<svg width="20" height="20" viewBox="0 0 20 20" fill="none" xmlns="http://www.w3.org/2000/svg">
<path d="M10.8565 1.66509C11.4646 1.66275 12.0727 1.66887 12.6807 1.68342L12.8423 1.68925C13.029 1.69592 13.2132 1.70425 13.4357 1.71425C14.3223 1.75592 14.9273 1.89592 15.4582 2.10175C16.0082 2.31342 16.4715 2.60009 16.9348 3.06342C17.3585 3.47976 17.6864 3.98338 17.8957 4.53925C18.1015 5.07009 18.2415 5.67592 18.2832 6.56259C18.2932 6.78425 18.3015 6.96925 18.3082 7.15592L18.3132 7.31759C18.328 7.92525 18.3344 8.53308 18.3323 9.14092L18.3332 9.76259V10.8543C18.3352 11.4624 18.3288 12.0705 18.314 12.6784L18.309 12.8401C18.3023 13.0268 18.294 13.2109 18.284 13.4334C18.2423 14.3201 18.1007 14.9251 17.8957 15.4559C17.687 16.0124 17.3591 16.5164 16.9348 16.9326C16.5181 17.3562 16.0143 17.684 15.4582 17.8934C14.9273 18.0993 14.3223 18.2393 13.4357 18.2809C13.2132 18.2909 13.029 18.2993 12.8423 18.3059L12.6807 18.3109C12.0727 18.3257 11.4646 18.3321 10.8565 18.3301L10.2348 18.3309H9.144C8.53588 18.333 7.92777 18.3266 7.31983 18.3118L7.15816 18.3068C6.96034 18.2996 6.76256 18.2912 6.56483 18.2818C5.67816 18.2401 5.07316 18.0984 4.5415 17.8934C3.9854 17.6845 3.48169 17.3566 3.06566 16.9326C2.64153 16.5162 2.31335 16.0122 2.104 15.4559C1.89816 14.9251 1.75816 14.3201 1.7165 13.4334C1.70722 13.2357 1.69888 13.0379 1.6915 12.8401L1.68733 12.6784C1.67197 12.0705 1.66502 11.4624 1.6665 10.8543V9.14092C1.66417 8.53309 1.67028 7.92525 1.68483 7.31759L1.69066 7.15592C1.69733 6.96925 1.70566 6.78425 1.71566 6.56259C1.75733 5.67509 1.89733 5.07092 2.10316 4.53925C2.31264 3.9831 2.64147 3.47963 3.0665 3.06425C3.48224 2.63988 3.98563 2.3114 4.5415 2.10175C5.07316 1.89592 5.67733 1.75592 6.56483 1.71425L7.15816 1.68925L7.31983 1.68509C7.92748 1.66973 8.53532 1.66279 9.14316 1.66425L10.8565 1.66509ZM9.99983 5.83175C9.44775 5.82395 8.89963 5.92594 8.38731 6.13181C7.87499 6.33768 7.4087 6.64332 7.01553 7.03097C6.62237 7.41861 6.31016 7.88054 6.09707 8.38989C5.88398 8.89924 5.77424 9.44587 5.77424 9.998C5.77424 10.5501 5.88398 11.0968 6.09707 11.6061C6.31016 12.1155 6.62237 12.5774 7.01553 12.965C7.4087 13.3527 7.87499 13.6583 8.38731 13.8642C8.89963 14.0701 9.44775 14.1721 9.99983 14.1643C11.1049 14.1643 12.1647 13.7253 12.9461 12.9439C13.7275 12.1625 14.1665 11.1027 14.1665 9.99759C14.1665 8.89252 13.7275 7.83271 12.9461 7.05131C12.1647 6.26991 11.1049 5.83175 9.99983 5.83175ZM9.99983 7.49842C10.3319 7.4923 10.6619 7.55242 10.9705 7.67526C11.2791 7.7981 11.5601 7.98121 11.7971 8.21387C12.0342 8.44654 12.2225 8.72411 12.351 9.03037C12.4796 9.33663 12.5458 9.66543 12.5459 9.99758C12.5459 10.3297 12.4798 10.6586 12.3514 10.9649C12.2229 11.2712 12.0347 11.5488 11.7977 11.7815C11.5608 12.0143 11.2798 12.1975 10.9713 12.3204C10.6627 12.4434 10.3328 12.5036 10.0007 12.4976C9.33762 12.4976 8.70174 12.2342 8.2329 11.7654C7.76406 11.2965 7.50066 10.6606 7.50066 9.99759C7.50066 9.33455 7.76406 8.69866 8.2329 8.22982C8.70174 7.76098 9.33762 7.49759 10.0007 7.49759L9.99983 7.49842ZM14.3748 4.58175C14.106 4.59251 13.8517 4.70688 13.6653 4.9009C13.4789 5.09491 13.3748 5.35353 13.3748 5.62259C13.3748 5.89164 13.4789 6.15026 13.6653 6.34428C13.8517 6.5383 14.106 6.65266 14.3748 6.66342C14.6511 6.66342 14.9161 6.55367 15.1114 6.35832C15.3068 6.16297 15.4165 5.89802 15.4165 5.62175C15.4165 5.34549 15.3068 5.08054 15.1114 4.88518C14.9161 4.68983 14.6511 4.58009 14.3748 4.58009V4.58175Z" fill="#282689"/>
</svg>
