<svg width="20" height="20" viewBox="0 0 20 20" fill="none" xmlns="http://www.w3.org/2000/svg">
<path d="M4.3 6.11562C5.3 6.11562 6.1 5.30313 6.1 4.31563C6.1 3.32813 5.2875 2.51562 4.3 2.51562C3.3125 2.51562 2.5 3.32813 2.5 4.31563C2.5 5.30313 3.3125 6.11562 4.3 6.11562ZM7.8125 7.47813V17.5031H10.9125V12.5531C10.9125 11.2406 11.1625 9.97813 12.775 9.97813C14.3875 9.97813 14.3875 11.4781 14.3875 12.6281V17.5031H17.5V12.0031C17.5 9.30312 16.925 7.22813 13.775 7.22813C12.2625 7.22813 11.25 8.05313 10.8375 8.84063H10.8V7.46562H7.825L7.8125 7.47813ZM2.75 7.47813H5.8625V17.5031H2.75V7.47813Z" fill="#282689"/>
</svg>
