<svg width="35" height="35" viewBox="0 0 35 35" fill="none" xmlns="http://www.w3.org/2000/svg">
<g clip-path="url(#clip0_3197_312)">
<path d="M11.9629 25.6706V18.6458H6.90149C7.89373 22.3018 9.77573 25.0141 11.9629 25.6706ZM6.15234 12.8353C6.15234 14.1361 6.25953 15.3995 6.45709 16.5951H11.9629V9.07553H6.45709C6.25953 10.2711 6.15234 11.5345 6.15234 12.8353ZM6.90149 7.02475H11.9629V0C9.77573 0.656455 7.89373 3.36875 6.90149 7.02475ZM19.8242 12.8353C19.8242 11.5345 19.717 10.2711 19.5195 9.07553H14.0137V16.5951H19.5195C19.717 15.3995 19.8242 14.1361 19.8242 12.8353ZM14.0137 0V7.02475H19.0751C18.0828 3.36875 16.2008 0.656455 14.0137 0ZM4.10156 12.8353C4.10156 11.5503 4.19521 10.2893 4.37568 9.07553H0.552891C0.193525 10.2657 0 11.5279 0 12.8353C0 14.1427 0.193525 15.4049 0.552891 16.5951H4.37568C4.19521 15.3813 4.10156 14.1202 4.10156 12.8353ZM4.77477 18.6458H1.36924C2.65665 21.2151 4.77107 23.2982 7.3636 24.5457C7.07349 24.146 6.79684 23.7125 6.53522 23.2462C5.77821 21.8967 5.18581 20.3375 4.77477 18.6458ZM6.53522 2.42443C6.79684 1.95815 7.07349 1.52455 7.3636 1.12485C4.77107 2.37234 2.65665 4.45546 1.36924 7.02475H4.77477C5.18581 5.33306 5.77821 3.77385 6.53522 2.42443ZM21.2018 7.02475H24.6073C23.3199 4.45546 21.2055 2.37234 18.613 1.12485C18.9031 1.52455 19.1797 1.95809 19.4413 2.42443C20.1983 3.77385 20.7908 5.33306 21.2018 7.02475ZM25.7715 31.9238H27.8223V35H25.7715V31.9238ZM21.0237 19.0503L19.2773 21.6699H34.3164L32.57 19.0503C32.4764 18.9099 32.3495 18.7947 32.2007 18.7151C32.0518 18.6354 31.8856 18.5937 31.7168 18.5938H21.8769C21.7081 18.5937 21.5419 18.6354 21.3931 18.7151C21.2442 18.7947 21.1174 18.9099 21.0237 19.0503ZM32.4365 23.7207V24.4897C32.4365 25.1976 33.0104 25.7715 33.7183 25.7715C34.4261 25.7715 35 25.1976 35 24.4897V23.7207H32.4365ZM29.104 25.7715C29.8119 25.7715 30.3857 25.1976 30.3857 24.4897V23.7207H27.8223V24.4897C27.8223 25.1976 28.3961 25.7715 29.104 25.7715ZM24.4897 25.7715C25.1976 25.7715 25.7715 25.1976 25.7715 24.4897V23.7207H23.208V24.4897C23.208 25.1976 23.7819 25.7715 24.4897 25.7715ZM21.1572 24.4897V23.7207H18.5938V24.4897C18.5938 25.1976 19.1676 25.7715 19.8755 25.7715C20.5833 25.7715 21.1572 25.1976 21.1572 24.4897Z" fill="white"/>
<path d="M29.104 27.8223C28.2091 27.8223 27.3962 27.4671 26.7969 26.8911C26.1976 27.4671 25.3846 27.8223 24.4897 27.8223C23.5949 27.8223 22.7819 27.4671 22.1826 26.8911C21.6025 27.4486 20.822 27.7983 19.9609 27.8201V33.9746C19.9609 34.5409 20.42 35 20.9863 35H23.7207V30.8984C23.7207 30.3322 24.1798 29.8731 24.7461 29.8731H28.8477C29.4139 29.8731 29.873 30.3322 29.873 30.8984V35H32.6074C33.1737 35 33.6328 34.5409 33.6328 33.9746V27.8201C32.7718 27.7982 31.9912 27.4486 31.4111 26.8911C30.8118 27.4671 29.9989 27.8223 29.104 27.8223ZM21.875 12.8353C21.875 14.1019 21.7836 15.3452 21.6081 16.543H25.4389C25.7883 15.368 25.9766 14.1237 25.9766 12.8353C25.9766 11.5279 25.783 10.2657 25.4237 9.07553H21.6009C21.7813 10.2893 21.875 11.5503 21.875 12.8353ZM14.0137 18.6458V25.6706C14.9237 25.3974 15.7807 24.7673 16.543 23.8623V22.3849C16.543 22.1825 16.6029 21.9845 16.7152 21.8161L18.8287 18.6459H14.0137V18.6458Z" fill="white"/>
</g>
<defs>
<clipPath id="clip0_3197_312">
<rect width="35" height="35" fill="white"/>
</clipPath>
</defs>
</svg>
