<svg width="36" height="36" viewBox="0 0 36 36" fill="none" xmlns="http://www.w3.org/2000/svg">
<g clip-path="url(#clip0_2856_126)">
<path d="M4.84268 14.5899L2.56616 14.0429C2.7739 13.1818 3.04937 12.3385 3.39002 11.5208L5.55159 12.4195C5.25847 13.1231 5.02142 13.8489 4.84268 14.5899ZM6.59379 10.3861L4.59973 9.16059C5.06428 8.40722 5.58678 7.69117 6.16249 7.01892L7.94174 8.53885C7.44521 9.11874 6.99453 9.73636 6.59379 10.3861ZM9.56061 6.92259L8.03868 5.14565C8.71198 4.57074 9.42896 4.04905 10.1831 3.58528L11.4102 5.57679C10.7597 5.97675 10.1413 6.42671 9.56061 6.92259ZM13.4456 4.53614L12.546 2.37733C13.3647 2.03723 14.2089 1.76215 15.0708 1.55463L15.619 3.82791C14.8771 4.00657 14.1504 4.24338 13.4456 4.53614Z" fill="white"/>
<path d="M19.0835 1.08624C18.6222 1.08624 18.1741 1.10385 17.7311 1.1386L17.9061 3.4697C18.2881 3.43971 18.699 3.42449 19.0834 3.42449C27.0788 3.42449 33.6584 9.96304 33.6584 17.9999C33.6584 26.0369 27.0881 32.5753 19.0387 32.5753C11.5322 32.5753 5.33098 26.8887 4.52866 19.6036L5.24649 20.1533L6.67055 18.2973L3.99557 16.2502C3.77966 16.085 3.51305 16 3.24138 16.0098C2.96971 16.0196 2.70988 16.1235 2.50639 16.3037L0 18.525L1.55414 20.274L2.18441 19.7154C3.04817 28.239 10.2767 34.9137 19.0374 34.9137C28.3779 34.9137 36 27.3263 36 18C36 8.67367 28.3859 1.08624 19.0835 1.08624Z" fill="white"/>
<path d="M8.85864 23.8537L17.9792 28.2385L17.9825 18.9152L8.85864 13.9062V23.8537ZM20.9954 18.9151L21.0258 28.2423L30.1542 23.8537V13.902L20.9954 18.9151ZM10.6403 11.4478L19.4893 16.3053L28.3683 11.4479L19.4892 7.19751L10.6403 11.4478Z" fill="white"/>
</g>
<defs>
<clipPath id="clip0_2856_126">
<rect width="36" height="36" fill="white"/>
</clipPath>
</defs>
</svg>
