<svg width="40" height="40" viewBox="0 0 40 40" fill="none" xmlns="http://www.w3.org/2000/svg">
<g clip-path="url(#clip0_3192_309)">
<path d="M25.458 7.97436C24.7044 7.02867 23.4824 7.02867 22.7292 7.97436L10.4484 23.386C8.94046 25.2769 6.49727 25.2769 4.99048 23.386C3.48208 21.4946 3.48208 18.4281 4.99048 16.5358L17.0348 1.42129C15.5276 -0.470586 13.0836 -0.470586 11.5764 1.42129L2.26049 13.1114C-0.753496 16.8947 -0.753496 23.0271 2.26049 26.8108C5.27527 30.5941 10.162 30.5941 13.1768 26.8108L25.458 11.3992C26.2112 10.4535 26.2112 8.92005 25.458 7.97436ZM29.5516 2.83782C26.5368 -0.94594 21.65 -0.94594 18.6352 2.83782L6.35447 18.2484C5.60127 19.1936 5.60127 20.7281 6.35447 21.6733C7.10806 22.619 8.32966 22.619 9.08325 21.6733L21.3648 6.26268C22.872 4.3708 25.3152 4.3708 26.822 6.26268C27.5764 7.20787 28.798 7.20787 29.5516 6.26268C30.3051 5.31599 30.3051 3.78351 29.5516 2.83782ZM33.6455 18.2484C32.8919 17.3038 31.6695 17.3038 30.9159 18.2484L18.6352 33.6596C17.128 35.5509 14.684 35.5509 13.1768 33.6596C12.4236 32.7144 11.202 32.7144 10.4484 33.6596C9.69365 34.6058 9.69365 36.1392 10.4484 37.0839C13.462 40.8672 18.35 40.8672 21.3648 37.0839L33.6455 21.6733C34.3987 20.7281 34.3987 19.1936 33.6455 18.2484ZM37.7395 13.1119C34.7247 9.32914 29.8372 9.32914 26.8232 13.1119L14.5416 28.5235C13.788 29.4682 13.788 31.0027 14.5416 31.9479C15.2956 32.8941 16.5176 32.8941 17.2708 31.9479L29.5516 16.5368C31.0583 14.6449 33.5027 14.6449 35.0095 16.5368C36.5167 18.4281 36.5167 21.4946 35.0095 23.386L22.9652 38.501C24.4724 40.3918 26.9152 40.3918 28.4236 38.501L37.7395 26.8108C40.7535 23.0271 40.7535 16.8947 37.7395 13.1119Z" fill="#1A1918"/>
</g>
<defs>
<clipPath id="clip0_3192_309">
<rect width="40" height="40" fill="white"/>
</clipPath>
</defs>
</svg>
