<svg width="197" height="47" viewBox="0 0 197 47" fill="none" xmlns="http://www.w3.org/2000/svg">
<path fill-rule="evenodd" clip-rule="evenodd" d="M66.7324 10.5255C68.4447 9.85668 70.2676 9.52039 72.2068 9.52039C73.7647 9.52039 75.1241 9.67088 76.292 9.96286L76.2939 9.96331L76.2957 9.96376C77.5325 10.2661 78.5735 10.6056 79.4254 10.9784L79.4268 10.979L79.4282 10.9796C80.1918 11.3098 80.8689 11.6601 81.4623 12.029L77.7511 18.5677C77.4676 18.3787 77.1714 18.1949 76.8629 18.0163L76.8367 18.0011L76.8094 17.9883C76.2935 17.7455 75.6864 17.5242 74.9943 17.3217C74.2622 17.0696 73.4418 16.951 72.5441 16.951C71.5871 16.951 70.6908 17.1212 69.8642 17.4709C69.0567 17.8125 68.3379 18.2807 67.7124 18.8749L67.7058 18.8812L67.6994 18.8876C67.0986 19.4884 66.6275 20.1969 66.2846 21.0056C65.9348 21.8026 65.7628 22.6581 65.7628 23.5637C65.7628 24.4712 65.9354 25.3385 66.2827 26.1592L66.2892 26.1747L66.2965 26.1899C66.6709 26.9699 67.1717 27.6587 67.7967 28.2525C68.4267 28.8509 69.1633 29.3194 69.9995 29.6601C70.8514 30.0072 71.7726 30.1763 72.7548 30.1763C73.7122 30.1763 74.5883 30.0568 75.3744 29.8053C76.1076 29.5706 76.7463 29.3 77.2797 28.9874C77.6118 28.8042 77.9235 28.6019 78.2143 28.3802L81.9057 34.884C81.3059 35.3145 80.6188 35.7096 79.841 36.0673C78.9846 36.4415 77.9405 36.7951 76.7028 37.1251C75.5105 37.4431 74.1266 37.607 72.5441 37.607C70.4308 37.607 68.4951 37.2688 66.73 36.6009C64.9572 35.9019 63.4368 34.9392 62.16 33.7156C60.8846 32.4933 59.8851 31.03 59.1623 29.3173C58.4436 27.5864 58.0792 25.6716 58.0792 23.5637C58.0792 21.3993 58.4577 19.4749 59.2 17.7783L59.2008 17.7765L59.2016 17.7746C59.9533 16.0295 60.9684 14.5502 62.2443 13.3275C63.5217 12.1033 65.0124 11.1706 66.7234 10.529L66.7279 10.5273L66.7324 10.5255ZM149.255 10.6411C150.961 9.89475 152.775 9.52039 154.704 9.52039C156.632 9.52039 158.446 9.89475 160.152 10.6411L160.156 10.643L160.16 10.6448C161.875 11.3682 163.355 12.3695 164.608 13.6488L164.613 13.6541L164.618 13.6594C165.898 14.912 166.899 16.3922 167.622 18.1069L167.624 18.1113L167.626 18.1156C168.372 19.8215 168.747 21.6352 168.747 23.5637C168.747 25.4921 168.372 27.3058 167.626 29.0118L167.624 29.0161L167.622 29.0204C166.898 30.7365 165.896 32.2329 164.613 33.5154C163.359 34.7693 161.876 35.7735 160.156 36.5265C158.449 37.2458 156.634 37.607 154.704 37.607C152.773 37.607 150.958 37.2458 149.251 36.5265C147.532 35.774 146.035 34.7701 144.752 33.5155C143.497 32.2326 142.493 30.7347 141.741 29.0158C141.021 27.3092 140.66 25.494 140.66 23.5637C140.66 21.6334 141.021 19.8182 141.741 18.1115C142.494 16.3917 143.498 14.9082 144.752 13.6541C146.034 12.3716 147.531 11.3688 149.247 10.6448L149.251 10.643L149.255 10.6411ZM84.6056 10.1953V10.1949H92.7107V10.1953H84.6056ZM92.7107 17.6076V36.8903H84.6056V17.6076H92.7107ZM95.6038 16.1501V10.1949H113.826V16.1501H108.641V36.8903H100.789V16.1501H95.6038ZM116.716 10.3371C116.716 10.2585 116.78 10.1949 116.858 10.1949H125.701C127.436 10.1949 129.021 10.4253 130.461 10.8787L130.463 10.8792L130.465 10.8798C131.932 11.3332 133.182 11.9945 134.227 12.8567C135.264 13.7121 136.069 14.7751 136.645 16.0562L136.648 16.0643L136.652 16.0722C137.245 17.3092 137.552 18.7607 137.552 20.4442C137.552 21.7868 137.363 22.8862 137.012 23.7633C136.636 24.7043 136.229 25.4601 135.798 26.0442C135.277 26.7213 134.695 27.2885 134.053 27.7502L133.535 28.1233L138.516 36.8903H129.605L124.273 27.8795V36.8903H116.716V10.3371ZM172.497 36.8903V10.1949H180.181V17.9675L186.54 10.1949H195.76L186.421 22.3158L196.366 36.8903H187.251L180.181 26.6333V36.8903H172.497ZM128.228 14.6923C125.318 13.4718 121.97 14.841 120.75 17.7505C119.529 20.6599 120.899 24.0079 123.808 25.2283C126.717 26.4488 130.065 25.0796 131.286 22.1702C132.506 19.2608 131.137 15.9128 128.228 14.6923ZM154.704 16.951C153.796 16.951 152.929 17.1237 152.108 17.4709L152.103 17.4729L152.099 17.4749C151.317 17.819 150.625 18.2903 150.027 18.8876C149.427 19.4884 148.956 20.1969 148.613 21.0056C148.263 21.8026 148.091 22.6581 148.091 23.5637C148.091 24.4712 148.264 25.3385 148.611 26.1592L148.613 26.1639L148.615 26.1685C148.959 26.9504 149.43 27.6424 150.027 28.2397C150.625 28.8371 151.317 29.3084 152.099 29.6524L152.103 29.6545L152.108 29.6564C152.929 30.0037 153.796 30.1763 154.704 30.1763C155.609 30.1763 156.464 30.0044 157.261 29.6545C158.07 29.3117 158.779 28.8406 159.38 28.2397C159.977 27.6424 160.448 26.9504 160.792 26.1685L160.794 26.1639L160.796 26.1592C161.144 25.3385 161.316 24.4712 161.316 23.5637C161.316 22.6581 161.144 21.8026 160.794 21.0056C160.451 20.1969 159.98 19.4884 159.38 18.8876C158.779 18.2868 158.07 17.8157 157.262 17.4729C156.465 17.123 155.609 16.951 154.704 16.951Z" fill="#282689"/>
<circle cx="126.018" cy="19.9227" r="3.18439" fill="#2EEFC1"/>
<rect x="84.5948" y="10.1953" width="8.11252" height="5.73113" fill="#2EEFC1"/>
<path d="M9.23523 2.45777C13.8247 0.506982 18.8884 0.300648 23.8022 0.173096C28.5246 0.296902 33.371 0.486342 37.8236 2.23642C40.8119 3.36375 43.5227 5.45334 44.9851 8.33823C45.8288 9.85201 46.1982 11.5571 46.5693 13.2321C47.1074 15.8919 47.068 18.6173 47.2349 21.311V25.6176C47.0773 28.3769 47.1111 31.1661 46.5693 33.8898C46.2 35.5591 45.8343 37.2604 44.9945 38.7704C43.5322 41.6685 40.8156 43.7656 37.816 44.8947C33.3654 46.6372 28.5228 46.8324 23.8022 46.9543C19.2765 46.8324 14.6532 46.6599 10.3526 45.1067C7.82167 44.2213 5.42947 42.7527 3.77968 40.6048C2.52733 38.9954 1.71556 37.0766 1.30499 35.0864C0.496951 32.0739 0.551316 28.9322 0.365723 25.8446V21.6222C0.538205 17.3626 0.555069 12.9375 2.30422 8.96475C3.62593 5.97103 6.23937 3.69013 9.23523 2.45777Z" fill="#282689"/>
<path d="M26.3345 22.4275C26.5448 22.6893 26.5432 23.0627 26.3306 23.3227L23.9808 26.1969C23.6948 26.5468 23.1591 26.5445 22.8761 26.1922L21.1756 24.0751C20.9652 23.8132 20.9668 23.4399 21.1795 23.1798L23.5294 20.3056C23.8155 19.9557 24.3511 19.9581 24.6341 20.3104L26.3345 22.4275ZM32.2565 29.8164C32.5392 30.1697 33.0757 30.1725 33.3621 29.8222L35.5934 27.093C35.8056 26.8334 35.8076 26.4607 35.5981 26.1988L33.2735 23.2937C33.0639 23.0318 33.0659 22.6592 33.2782 22.3995L35.4772 19.7098C35.726 19.4054 35.6806 18.9569 35.3758 18.7086L32.7609 16.5787C32.4569 16.3311 32.0097 16.3764 31.7615 16.68L30.4022 18.3425C30.1162 18.6924 29.5805 18.6901 29.2975 18.3377L27.5972 16.2207C27.3868 15.9589 27.3885 15.5855 27.6011 15.3255L29.8584 12.5645C30.1073 12.2601 30.0619 11.8115 29.757 11.5632L27.1422 9.43343C26.8382 9.18578 26.391 9.23107 26.1428 9.53466L24.7061 11.2919C24.4196 11.6423 23.883 11.6393 23.6004 11.2858L21.7565 8.97897C21.4739 8.62541 20.9372 8.62245 20.6507 8.97287L18.4195 11.7019C18.2073 11.9615 18.2053 12.334 18.4146 12.5958L20.6389 15.3786C20.8482 15.6405 20.8461 16.013 20.6339 16.2725L18.2845 19.1462C17.998 19.4966 17.4614 19.4937 17.1787 19.1401L15.3349 16.8332C15.0522 16.4797 14.5156 16.4767 14.2291 16.8271L11.9979 19.5562C11.7857 19.8157 11.7836 20.1882 11.9929 20.4501L14.2174 23.2331C14.4267 23.4949 14.4246 23.8674 14.2124 24.127L11.5406 27.395C11.2917 27.6994 11.3372 28.1479 11.642 28.3962L14.2568 30.526C14.5608 30.7737 15.008 30.7284 15.2562 30.4248L17.1078 28.1599C17.3939 27.81 17.9295 27.8123 18.2125 28.1646L19.9131 30.2817C20.1234 30.5436 20.1218 30.9169 19.9092 31.1769L17.1594 34.5404C16.9105 34.8448 16.956 35.2933 17.2608 35.5416L19.8755 37.6714C20.1796 37.919 20.6267 37.8737 20.8749 37.5701L22.7847 35.2343C23.0711 34.884 23.6075 34.8868 23.8902 35.2401L25.8349 37.6706C26.1176 38.0239 26.6541 38.0268 26.9405 37.6765L29.1718 34.9473C29.384 34.6877 29.386 34.315 29.1765 34.0531L26.8519 31.1479C26.6424 30.8861 26.6444 30.5134 26.8567 30.2538L29.2061 27.38C29.4925 27.0297 30.0289 27.0325 30.3116 27.3858L32.2565 29.8164Z" fill="#2EEFC1"/>
<rect x="28.3764" y="18.2759" width="10.0068" height="9.72086" rx="4.86043" transform="rotate(90 28.3764 18.2759)" fill="#2EEFC1"/>
<circle cx="23.567" cy="23.3247" r="4.77193" fill="#282689"/>
<circle cx="23.5671" cy="23.3247" r="2.59421" fill="#2EEFC1"/>
</svg>
