<svg width="180" height="50" viewBox="0 0 180 50" fill="none" xmlns="http://www.w3.org/2000/svg">
<path d="M0 35.8641V35.881C0 35.8756 0.00209869 35.8705 0.00209869 35.865L0 35.8641Z" fill="#131D31"/>
<path d="M33.9524 35.8641L33.9492 35.8645C33.9492 35.8741 33.9524 35.8837 33.9524 35.8933C33.9473 36.1969 33.7968 36.4984 33.4974 36.6718L17.4344 45.9764C17.1518 46.1402 16.8034 46.1402 16.5204 45.9764L0.457031 36.6722C0.152874 36.4964 0.00079622 36.1885 0 35.8801V36.4221V37.237C0 37.5457 0.152476 37.8549 0.457031 38.0314L16.52 47.3361C16.803 47.5003 17.1514 47.5003 17.434 47.3361L33.497 38.031C33.8015 37.8545 33.954 37.5457 33.954 37.2366V36.4213L33.9524 35.8641Z" fill="#131D31"/>
<path d="M33.9488 35.8648C33.9445 35.5605 33.7972 35.2577 33.497 35.0836L30.6421 33.4299L18.1108 40.6887C17.7665 40.888 17.3743 40.9935 16.977 40.9935C16.5797 40.9935 16.1876 40.8884 15.8428 40.6887L3.31188 33.4299L0.45703 35.0836C0.156457 35.2577 0.00636976 35.5605 0.00199055 35.8648C0.00199055 35.87 0 35.8748 0 35.88C0.00079622 36.1884 0.152874 36.4963 0.45703 36.6725L16.5196 45.9772C16.8026 46.1409 17.151 46.1409 17.4336 45.9772L33.497 36.6721C33.7964 36.4987 33.9469 36.1972 33.952 35.8936C33.9524 35.8836 33.9492 35.8744 33.9488 35.8648Z" fill="#223455"/>
<path d="M33.9524 28.339C33.9481 28.6433 33.7976 28.9461 33.497 29.1203L17.434 38.4253C17.1514 38.5891 16.803 38.5891 16.52 38.4253L0.457031 29.1203C0.152476 28.9441 0.00039811 28.6361 0 28.3274C0 28.3218 0.00199055 28.3162 0.00199055 28.3106L0 28.3098V28.8678V29.6822C0 29.991 0.152476 30.3002 0.457031 30.4767L16.52 39.7814C16.803 39.9455 17.1514 39.9455 17.434 39.7814L33.497 30.4767C33.8015 30.3002 33.954 29.9914 33.954 29.6822V28.867L33.9524 28.339Z" fill="#131D31"/>
<path d="M33.9529 28.3324V28.3204C33.9529 28.3176 33.9521 28.3152 33.9521 28.3124V28.312V28.3391C33.9521 28.3368 33.9529 28.3348 33.9529 28.3324Z" fill="#223455"/>
<path d="M33.9524 28.3118C33.9524 28.311 33.952 28.3106 33.952 28.3098C33.9469 28.0062 33.7964 27.705 33.497 27.5317L30.6421 25.8781L18.1112 33.1368C17.7669 33.3362 17.3747 33.4416 16.9766 33.4416C16.5789 33.4416 16.1868 33.3362 15.8424 33.1368L3.31148 25.8781L0.45703 27.5317C0.157254 27.7054 0.00716598 28.007 0.00199055 28.3106C0.00199055 28.3162 0 28.3218 0 28.3273C0.00039811 28.6357 0.152476 28.9441 0.45703 29.1202L16.5196 38.4249C16.8026 38.5886 17.151 38.5886 17.4336 38.4249L33.497 29.1202C33.7976 28.9461 33.9481 28.6433 33.9524 28.3389V28.3118Z" fill="#223455"/>
<path d="M0 20.7605V20.7747C0 20.7701 0.00165318 20.7659 0.00165318 20.7613L0 20.7605Z" fill="#34898B"/>
<path d="M33.9524 20.7882C33.9477 21.0926 33.7972 21.3949 33.497 21.5687L17.434 30.873C17.1514 31.0367 16.803 31.0367 16.52 30.873L0.457031 21.5687C0.152476 21.3921 0.00039811 21.0838 0 20.775V21.3182V22.1331C0 22.4418 0.152476 22.751 0.457031 22.9275L16.52 32.2322C16.803 32.3964 17.1514 32.3964 17.434 32.2322L33.497 22.9271C33.8015 22.7506 33.954 22.4418 33.954 22.1327V21.3174L33.9524 20.7882Z" fill="#34898B"/>
<path d="M33.497 19.9798L30.6421 18.3262L18.1112 25.585C17.7669 25.7843 17.3747 25.8897 16.9766 25.8897C16.5789 25.8897 16.1868 25.7843 15.8424 25.585L3.31188 18.3262L0.457031 19.9798C0.156855 20.154 0.00597165 20.4567 0.00159244 20.7611C0.00159244 20.7655 0 20.7695 0 20.7739V20.7751C0.00039811 21.0838 0.152476 21.3922 0.457031 21.5687L16.5196 30.8734C16.8026 31.0372 17.151 31.0372 17.4336 30.8734L33.497 21.5683C33.7972 21.3946 33.9477 21.0922 33.9524 20.7878C33.9524 20.7831 33.954 20.7787 33.954 20.7739C33.954 20.4655 33.8015 20.1563 33.497 19.9798Z" fill="#43B8BA"/>
<path d="M0 13.2087V13.2181C0 13.2151 0.00115215 13.2117 0.00115215 13.2087H0Z" fill="#34898B"/>
<path d="M33.9524 13.2295C33.95 13.5359 33.7988 13.8414 33.4962 14.0168L17.4332 23.3214C17.1506 23.4852 16.8018 23.4852 16.5192 23.3214L0.456234 14.0168C0.153671 13.8418 0.00238866 13.5363 0 13.2299V13.7663V14.5812C0 14.8899 0.152476 15.1991 0.457031 15.3756L16.52 24.6803C16.803 24.8444 17.1514 24.8444 17.434 24.6803L33.497 15.3752C33.8015 15.1987 33.954 14.8899 33.954 14.5808V13.7655L33.9524 13.2295Z" fill="#34898B"/>
<path d="M33.9523 13.2087H33.9512C33.9512 13.2117 33.9523 13.2151 33.9523 13.2181V13.2087Z" fill="#34898B"/>
<path d="M33.9516 13.2084C33.9473 12.904 33.7964 12.6016 33.4962 12.4279L17.4332 3.12282C17.1502 2.95906 16.8018 2.95906 16.5192 3.12282L0.456234 12.4279C0.156059 12.6016 0.00557354 12.904 0.00079622 13.2084C0.00079622 13.2108 0 13.2128 0 13.2148V13.2295C0.00238866 13.5359 0.153671 13.8415 0.456234 14.0164L16.5192 23.3211C16.8022 23.4848 17.1506 23.4848 17.4332 23.3211L33.4962 14.0164C33.7984 13.8411 33.95 13.5355 33.9524 13.2291V13.2148C33.9524 13.2124 33.9516 13.2104 33.9516 13.2084Z" fill="#43B8BA"/>
<path d="M23.2161 9.55276L23.2157 9.56994C23.2081 9.69376 23.1253 9.81639 22.9621 9.91105C22.6201 10.1092 22.066 10.1092 21.724 9.91105L16.9893 7.16858L12.2299 9.92583C11.8879 10.1239 11.3337 10.1239 10.9917 9.92583C10.8221 9.82757 10.7369 9.69895 10.7354 9.56994C10.7365 9.64503 10.7381 9.71972 10.7393 9.79482C10.7425 9.95738 10.7453 10.12 10.7485 10.2825C10.7513 10.4395 10.7545 10.5969 10.7572 10.7538C10.7588 10.8369 10.7485 10.9284 10.7911 11.0027C10.8464 11.0993 10.9225 11.1541 11.0168 11.2088C11.3588 11.4069 11.913 11.4069 12.2545 11.2088L17.0147 8.45154L21.7495 11.194C22.0914 11.3921 22.6456 11.3921 22.9872 11.194C23.1568 11.0962 23.2412 10.9675 23.2436 10.8389V10.8361C23.2436 10.8353 23.2436 10.8349 23.2436 10.8345L23.2161 9.55276Z" fill="#34898B"/>
<path d="M22.9617 9.19408L17.6083 6.09292C17.2664 5.89481 16.7122 5.89481 16.3702 6.09292L10.9913 9.20886C10.8194 9.30872 10.7342 9.43933 10.7354 9.57034C10.7366 9.69936 10.8218 9.82797 10.9913 9.92623C11.3333 10.1243 11.8875 10.1243 12.2295 9.92623L16.9893 7.16898L21.724 9.91145C22.066 10.1096 22.6201 10.1096 22.9621 9.91145C23.1253 9.81679 23.2082 9.69416 23.2157 9.57034C23.2237 9.43453 23.1405 9.29753 22.9617 9.19408Z" fill="white"/>
<path d="M50.9978 16.9452L46.2822 34.3095H48.4416L49.528 29.9494H54.3041L55.3906 34.3095H57.5746L52.8594 16.9452H50.9978ZM53.8411 28.1172H49.9906L51.9159 20.3679L53.8411 28.1172Z" fill="#223455"/>
<path d="M61.3096 30.7055V16.9452H59.335V30.7798C59.335 31.9189 59.6435 32.8013 60.2518 33.4032C60.8593 34.0043 61.7431 34.3095 62.8777 34.3095H63.4331V32.5265H62.9271C61.8387 32.5265 61.3096 31.9309 61.3096 30.7055Z" fill="#223455"/>
<path d="M69.5923 21.0323C68.6412 21.0323 67.8753 21.4102 67.3083 22.1571V21.2305H65.3584V38.0747H67.3083V33.4561C67.8776 34.1543 68.6524 34.5074 69.6174 34.5074C70.6576 34.5074 71.5104 34.1292 72.1518 33.3827C72.7879 32.6425 73.1104 31.5081 73.1104 30.0115V25.5279C73.1104 24.0313 72.7879 22.8969 72.1518 22.1567C71.51 21.4106 70.6493 21.0323 69.5923 21.0323ZM71.1605 25.726V29.8134C71.1605 30.8691 70.9988 31.63 70.6799 32.0749C70.3666 32.5119 69.914 32.7244 69.2961 32.7244C68.6456 32.7244 68.1647 32.4919 67.8267 32.0138C67.4827 31.5277 67.3083 30.796 67.3083 29.8381V25.7508C67.3083 24.7762 67.4831 24.0317 67.8271 23.5372C68.1655 23.0511 68.646 22.8146 69.2961 22.8146C70.5506 22.815 71.1605 23.7672 71.1605 25.726Z" fill="#223455"/>
<path d="M80.061 21.0325C79.5311 21.0325 79.0319 21.1544 78.5781 21.3952C78.2484 21.5698 77.9638 21.7966 77.7273 22.0718V16.9452H75.7773V34.3095H77.7273V24.9833C77.7273 24.2795 77.9021 23.7355 78.2464 23.3668C78.5932 22.9957 79.0331 22.8152 79.5916 22.8152C80.1665 22.8152 80.6104 22.9953 80.9488 23.3656C81.2856 23.7343 81.456 24.2783 81.456 24.9829V34.3091H83.4059V24.909C83.4059 23.6919 83.1125 22.7329 82.5337 22.0583C81.95 21.3776 81.118 21.0325 80.061 21.0325Z" fill="#223455"/>
<path d="M89.7639 21.0323C88.6798 21.0323 87.7972 21.3447 87.1403 21.9606C86.4811 22.5789 86.1466 23.4377 86.1466 24.5122V24.8712H87.9979V24.5373C87.9979 23.9829 88.1507 23.5487 88.4521 23.2464C88.7535 22.944 89.195 22.7906 89.7639 22.7906C91.0016 22.7906 91.6035 23.4513 91.6035 24.8097V26.7298H89.7639C88.4979 26.7298 87.5146 27.0725 86.841 27.7479C86.1674 28.4238 85.8262 29.3684 85.8262 30.5563C85.8262 31.7889 86.1192 32.7643 86.6972 33.4553C87.2813 34.1531 88.1304 34.507 89.2205 34.507C90.2611 34.507 91.0856 34.1376 91.6776 33.4082V34.3089H93.5535V24.884C93.5535 23.6806 93.225 22.7279 92.5773 22.0525C91.9284 21.3755 90.9817 21.0323 89.7639 21.0323ZM91.6035 28.2648V30.5072C91.6035 31.2293 91.428 31.7949 91.082 32.1884C90.7357 32.5826 90.2559 32.7739 89.6158 32.7739C88.3777 32.7739 87.7757 32.0406 87.7757 30.5315C87.7757 29.0061 88.4824 28.2648 89.9367 28.2648H91.6035Z" fill="#223455"/>
<path d="M101.367 24.7079L100.355 24.3113C99.4421 23.9578 98.792 23.5544 98.4221 23.1122C98.0582 22.6768 97.8735 22.0645 97.8735 21.292C97.8735 20.4217 98.0782 19.743 98.4822 19.2753C98.8815 18.8132 99.4946 18.5791 100.306 18.5791C101.881 18.5791 102.701 19.5177 102.812 21.4486L102.82 21.5768H104.793L104.787 21.435C104.72 19.8716 104.291 18.6789 103.514 17.8897C102.734 17.0984 101.662 16.6974 100.331 16.6974C98.9325 16.6974 97.8154 17.1284 97.0108 17.9784C96.2078 18.8263 95.8006 19.9747 95.8006 21.3915C95.8006 22.5905 96.0932 23.5612 96.6704 24.2761C97.2421 24.9847 98.1084 25.5735 99.2438 26.026L100.23 26.4219C101.209 26.8245 101.893 27.2531 102.264 27.6964C102.628 28.1314 102.813 28.7937 102.813 29.6652C102.813 30.667 102.604 31.4163 102.192 31.8924C101.785 32.3625 101.15 32.6014 100.306 32.6014C99.4771 32.6014 98.8334 32.3617 98.3931 31.8888C97.9488 31.4119 97.6992 30.6039 97.6518 29.4863L97.6458 29.356H95.625L95.6278 29.4946C95.6612 31.1063 96.0677 32.353 96.8356 33.1997C97.6076 34.0509 98.7506 34.4827 100.232 34.4827C101.728 34.4827 102.891 34.0561 103.688 33.2141C104.483 32.3745 104.885 31.1718 104.885 29.64C104.885 28.3099 104.585 27.2563 103.992 26.5085C103.404 25.7664 102.521 25.1605 101.367 24.7079Z" fill="#223455"/>
<path d="M109.997 17.7117L108.047 18.6036V21.2306H106.418V22.8152H108.047V30.8045C108.047 33.1304 109.273 34.3095 111.689 34.3095H112.244V32.5512H111.763C111.162 32.5512 110.713 32.4026 110.428 32.109C110.142 31.8147 109.997 31.3505 109.997 30.7298V22.8148H112.442V21.2302H109.997V17.7117H109.997Z" fill="#223455"/>
<path d="M119.292 21.0323C118.697 21.0323 118.153 21.1582 117.674 21.4066C117.32 21.5907 117.014 21.8496 116.761 22.1787V21.2305H114.86V34.3093H116.81V25.0821C116.81 24.38 117.013 23.8204 117.413 23.4193C117.818 23.0127 118.328 22.815 118.971 22.815C119.334 22.815 119.734 22.8877 120.163 23.0311L120.341 23.0906V21.161L120.238 21.1354C119.965 21.0671 119.647 21.0323 119.292 21.0323Z" fill="#223455"/>
<path d="M126.156 21.0323C124.936 21.0323 123.967 21.4314 123.277 22.2178C122.591 22.9995 122.243 24.1631 122.243 25.6765V29.8134C122.243 32.9281 123.585 34.5074 126.23 34.5074C127.448 34.5074 128.407 34.1515 129.081 33.4502C129.753 32.75 130.094 31.7015 130.094 30.3338V30.1237H128.169V30.3586C128.169 31.9839 127.551 32.7739 126.279 32.7739C125.608 32.7739 125.106 32.5554 124.743 32.1061C124.377 31.6543 124.193 30.8746 124.193 29.7886V28.4134H130.118V25.6765C130.118 24.1623 129.761 22.9983 129.058 22.2163C128.352 21.431 127.376 21.0323 126.156 21.0323ZM124.193 25.726C124.193 24.6719 124.366 23.9122 124.707 23.4681C125.046 23.0287 125.528 22.815 126.18 22.815C126.835 22.815 127.321 23.0255 127.667 23.4581C128.016 23.8934 128.193 24.64 128.193 25.6769V26.854H124.193V25.726Z" fill="#223455"/>
<path d="M136.252 21.0323C135.168 21.0323 134.285 21.3447 133.629 21.9606C132.969 22.5789 132.635 23.4377 132.635 24.5122V24.8712H134.486V24.5373C134.486 23.9829 134.639 23.5487 134.94 23.2464C135.242 22.944 135.683 22.7906 136.252 22.7906C137.49 22.7906 138.092 23.4513 138.092 24.8097V26.7298H136.252C134.986 26.7298 134.003 27.0725 133.329 27.7479C132.656 28.4238 132.314 29.3684 132.314 30.5563C132.314 31.7889 132.607 32.7643 133.186 33.4553C133.77 34.1531 134.619 34.507 135.709 34.507C136.749 34.507 137.574 34.1376 138.166 33.4082V34.3089H140.042V24.884C140.042 23.681 139.713 22.7283 139.066 22.0525C138.417 21.3755 137.47 21.0323 136.252 21.0323ZM138.092 28.2648V30.5072C138.092 31.2293 137.916 31.7949 137.57 32.1884C137.224 32.5826 136.744 32.7739 136.104 32.7739C134.866 32.7739 134.264 32.0406 134.264 30.5315C134.264 29.0061 134.971 28.2648 136.425 28.2648H138.092Z" fill="#223455"/>
<path d="M155.367 22.0581C154.783 21.3775 153.918 21.0323 152.796 21.0323C152.182 21.0323 151.614 21.1801 151.111 21.4717C150.667 21.7278 150.29 22.0812 149.985 22.5234C149.707 22.0964 149.348 21.7477 148.915 21.4853C148.418 21.1845 147.846 21.0323 147.215 21.0323C146.651 21.0323 146.134 21.1634 145.679 21.4214C145.357 21.6043 145.082 21.8332 144.857 22.1048V21.2305H142.932V34.3093H144.906V24.9831C144.906 24.2945 145.077 23.754 145.415 23.377C145.753 22.9991 146.189 22.815 146.746 22.815C147.32 22.815 147.764 22.9987 148.102 23.377C148.439 23.754 148.61 24.2945 148.61 24.9831V34.3093H150.56V24.9583C150.56 24.2865 150.735 23.7548 151.08 23.3782C151.427 22.9995 151.875 22.815 152.45 22.815C153.007 22.815 153.439 22.9947 153.769 23.3642C154.098 23.7333 154.265 24.2777 154.265 24.9827V34.3089H156.239V24.9088C156.239 23.6917 155.946 22.7327 155.367 22.0581Z" fill="#223455"/>
</svg>
