<svg width="24" height="24" viewBox="0 0 24 24" fill="none" xmlns="http://www.w3.org/2000/svg">
<g clip-path="url(#clip0_2538_147)">
<path d="M12 0C7.21828 0 3.32812 3.8902 3.32812 8.67188C3.32812 10.6973 4.02581 12.6218 5.28206 14.1562H18.718C19.9742 12.6218 20.6719 10.6973 20.6719 8.67188C20.6719 3.8902 16.7817 0 12 0ZM13.1232 11.4844C13.1232 11.8727 12.8084 12.1875 12.4201 12.1875C12.0318 12.1875 11.717 11.8727 11.717 11.4844V5.625H11.0174C10.629 5.625 10.3142 5.31019 10.3142 4.92188C10.3142 4.53356 10.629 4.21875 11.0174 4.21875H12.4201C12.8084 4.21875 13.1232 4.53356 13.1232 4.92188V11.4844ZM17.93 18.4921H17.5212C17.5216 18.6505 17.5219 18.8002 17.5219 18.8808C17.5219 18.9744 17.5224 19.1202 17.5231 19.2707C17.6795 19.27 17.832 19.2695 17.93 19.2695C18.1664 19.2695 18.3738 19.0879 18.3738 18.8808C18.3738 18.6737 18.1664 18.4921 17.93 18.4921Z" fill="#D33B3B"/>
<path d="M22.8656 19.7812L23.9634 16.488C24.1152 16.0327 23.7763 15.5625 23.2964 15.5625H0.703658C0.223751 15.5625 -0.115155 16.0327 0.0366263 16.488L1.13439 19.7812L0.0366263 23.0745C-0.115108 23.5298 0.223751 24 0.703658 24H23.2963C23.7763 24 24.1151 23.5298 23.9634 23.0745L22.8656 19.7812ZM7.91716 18.2354L6.82366 19.9152L6.81939 21.6577C6.8186 21.9808 6.55642 22.2421 6.23345 22.2421H6.232C5.90842 22.2413 5.64672 21.9784 5.64752 21.6547L5.65178 19.9143L4.5497 18.2265C4.3728 17.9556 4.44902 17.5925 4.71995 17.4156C4.99089 17.2387 5.35399 17.3149 5.53089 17.5859L6.23735 18.6678L6.93499 17.5961C7.11152 17.3249 7.47447 17.2481 7.74569 17.4247C8.01695 17.6012 8.09369 17.9641 7.91716 18.2354ZM10.5796 19.1953C10.9032 19.1953 11.1655 19.4576 11.1655 19.7812C11.1655 20.1048 10.9032 20.3671 10.5796 20.3671H9.70192V21.0703H10.6961C11.0197 21.0703 11.282 21.3326 11.282 21.6562C11.282 21.9798 11.0197 22.2421 10.6961 22.2421H9.11599C8.79241 22.2421 8.53005 21.9798 8.53005 21.6562V17.9062C8.53005 17.5826 8.79241 17.3203 9.11599 17.3203H10.6961C11.0197 17.3203 11.282 17.5826 11.282 17.9062C11.282 18.2298 11.0197 18.4921 10.6961 18.4921H9.70192V19.1953H10.5796ZM15.4635 22.2044C15.1608 22.3187 14.8227 22.1658 14.7085 21.8631L14.504 21.3213H13.0505L12.8435 21.8647C12.7284 22.1671 12.3898 22.3189 12.0874 22.2037C11.785 22.0886 11.6333 21.75 11.7484 21.4477L13.1566 17.7504C13.2049 17.6238 13.2906 17.5148 13.4023 17.438C13.514 17.3611 13.6464 17.3201 13.782 17.3203H13.7837C14.0552 17.3203 14.3005 17.484 14.4031 17.7355C14.4053 17.741 14.4075 17.7465 14.4096 17.752L15.8049 21.4493C15.9191 21.7521 15.7663 22.0902 15.4635 22.2044ZM19.3996 21.2691C19.6134 21.512 19.5897 21.8822 19.3468 22.096C19.1039 22.3098 18.7337 22.2862 18.5199 22.0433L17.5182 20.9052V21.6562C17.5182 21.9798 17.2558 22.2421 16.9323 22.2421C16.6087 22.2421 16.3463 21.9798 16.3463 21.6562V17.9062C16.3463 17.5826 16.6087 17.3203 16.9323 17.3203L16.9329 17.3203L16.9335 17.3203H17.93C18.8208 17.3203 19.5456 18.0203 19.5456 18.8808C19.5456 19.5249 19.1395 20.079 18.5616 20.317L19.3996 21.2691Z" fill="#D33B3B"/>
<path d="M13.4966 20.1495H14.0615L13.7804 19.4044L13.4966 20.1495Z" fill="#D33B3B"/>
</g>
<defs>
<clipPath id="clip0_2538_147">
<rect width="24" height="24" fill="white"/>
</clipPath>
</defs>
</svg>
