<svg width="50" height="50" viewBox="0 0 50 50" fill="none" xmlns="http://www.w3.org/2000/svg">
<g clip-path="url(#clip0_2698_297)">
<mask id="mask0_2698_297" style="mask-type:alpha" maskUnits="userSpaceOnUse" x="0" y="0" width="50" height="50">
<path d="M50 0H0V50H50V0Z" fill="#C4C4C4"/>
</mask>
<g mask="url(#mask0_2698_297)">
<path d="M15.5632 21.8822C15.5632 22.4137 15.621 22.8448 15.722 23.1609C15.8375 23.477 15.9818 23.8218 16.1839 24.1954C16.256 24.3103 16.2849 24.4252 16.2849 24.5258C16.2849 24.6695 16.1983 24.8132 16.0106 24.9569L15.1014 25.5603C14.9715 25.6465 14.8415 25.6897 14.726 25.6897C14.5817 25.6897 14.4374 25.6178 14.293 25.4885C14.091 25.273 13.9178 25.0431 13.7735 24.8132C13.6291 24.5689 13.4848 24.296 13.326 23.9655C12.2002 25.2873 10.7857 25.9482 9.08254 25.9482C7.87017 25.9482 6.90312 25.6034 6.19588 24.9137C5.48864 24.2242 5.12781 23.3046 5.12781 22.1552C5.12781 20.9339 5.56082 19.9425 6.44126 19.1954C7.3217 18.4482 8.49079 18.0747 9.97746 18.0747C10.4682 18.0747 10.9734 18.1178 11.5074 18.1897C12.0415 18.2615 12.5899 18.3764 13.1673 18.5057V17.4569C13.1673 16.3649 12.9363 15.6034 12.4889 15.1581C12.027 14.7127 11.2476 14.4971 10.1362 14.4971C9.63104 14.4971 9.11146 14.5546 8.57737 14.6839C8.04337 14.8133 7.52377 14.9712 7.01859 15.1724C6.78766 15.273 6.61446 15.3304 6.51342 15.3592C6.41239 15.3879 6.34022 15.4023 6.28248 15.4023C6.08042 15.4023 5.97938 15.2586 5.97938 14.9569V14.2528C5.97938 14.023 6.00825 13.8506 6.08042 13.75C6.15258 13.6494 6.28248 13.5488 6.48456 13.4482C6.98972 13.1897 7.59593 12.9742 8.30317 12.8017C9.01037 12.6149 9.76096 12.5288 10.5548 12.5288C12.2724 12.5288 13.5281 12.9167 14.3364 13.6925C15.1302 14.4684 15.5344 15.6466 15.5344 17.227V21.8822H15.5632ZM9.70321 24.0661C10.1795 24.0661 10.6703 23.9798 11.1899 23.8075C11.7095 23.6351 12.1714 23.3189 12.561 22.8879C12.792 22.6149 12.9652 22.3133 13.0518 21.9684C13.1384 21.6236 13.1961 21.2069 13.1961 20.7184V20.1149C12.7775 20.0143 12.3301 19.9282 11.8682 19.8707C11.4064 19.8133 10.959 19.7845 10.5115 19.7845C9.54446 19.7845 8.83721 19.9712 8.36087 20.3592C7.8846 20.7471 7.65367 21.2931 7.65367 22.0115C7.65367 22.6867 7.82687 23.1897 8.18771 23.5345C8.53412 23.8937 9.03929 24.0661 9.70321 24.0661ZM21.2933 25.6178C21.0335 25.6178 20.8603 25.5747 20.7448 25.4742C20.6294 25.3879 20.5283 25.1867 20.4417 24.9137L17.0499 13.8075C16.9633 13.5201 16.92 13.3333 16.92 13.2328C16.92 13.0028 17.0355 12.8736 17.2664 12.8736H18.6809C18.955 12.8736 19.1427 12.9167 19.2437 13.0172C19.3592 13.1034 19.4458 13.3046 19.5324 13.5776L21.9572 23.0891L24.2089 13.5776C24.281 13.2903 24.3676 13.1034 24.4831 13.0172C24.5985 12.931 24.8006 12.8736 25.0605 12.8736H26.2151C26.4894 12.8736 26.677 12.9167 26.7925 13.0172C26.908 13.1034 27.009 13.3046 27.0667 13.5776L29.3472 23.204L31.8441 13.5776C31.9308 13.2903 32.0318 13.1034 32.1329 13.0172C32.2483 12.931 32.436 12.8736 32.6957 12.8736H34.038C34.269 12.8736 34.3989 12.9885 34.3989 13.2328C34.3989 13.3046 34.3845 13.3764 34.37 13.4627C34.3556 13.5488 34.3267 13.6638 34.269 13.8218L30.7905 24.9282C30.704 25.2155 30.6029 25.4023 30.4875 25.4885C30.372 25.5747 30.1843 25.6322 29.939 25.6322H28.6977C28.4235 25.6322 28.2358 25.5891 28.1203 25.4885C28.0049 25.3879 27.9038 25.2012 27.8461 24.9137L25.6089 15.6466L23.3861 24.8994C23.314 25.1867 23.2274 25.3736 23.1119 25.4742C22.9965 25.5747 22.7944 25.6178 22.5345 25.6178H21.2933ZM39.8403 26.0057C39.0898 26.0057 38.3392 25.9195 37.6175 25.7471C36.8959 25.5747 36.333 25.3879 35.9577 25.1724C35.7268 25.0431 35.568 24.8994 35.5103 24.7701C35.4525 24.6408 35.4237 24.4971 35.4237 24.3678V23.6351C35.4237 23.3333 35.5391 23.1897 35.7556 23.1897C35.8422 23.1897 35.9289 23.204 36.0155 23.2327C36.102 23.2615 36.232 23.3189 36.3763 23.3764C36.867 23.5919 37.401 23.7643 37.964 23.8793C38.5413 23.9942 39.1042 24.0518 39.6815 24.0518C40.5909 24.0518 41.2981 23.8937 41.7888 23.5776C42.2795 23.2615 42.5394 22.8017 42.5394 22.2127C42.5394 21.8103 42.4095 21.4799 42.1497 21.2069C41.8899 20.9339 41.3991 20.6897 40.6919 20.4598L38.599 19.8132C37.5454 19.4827 36.766 18.9943 36.2897 18.3477C35.8134 17.7155 35.568 17.0115 35.568 16.2643C35.568 15.6609 35.6979 15.1293 35.9577 14.6695C36.2175 14.2097 36.5639 13.8075 36.9969 13.4914C37.43 13.1609 37.9206 12.9167 38.498 12.7443C39.0754 12.5718 39.6815 12.5 40.3166 12.5C40.6341 12.5 40.9661 12.5143 41.2836 12.5575C41.6156 12.6006 41.9187 12.6581 42.2219 12.7155C42.5105 12.7873 42.7847 12.8592 43.0445 12.9454C43.3044 13.0316 43.5064 13.1178 43.6507 13.204C43.8528 13.319 43.9971 13.4339 44.0838 13.5632C44.1704 13.6782 44.2136 13.8362 44.2136 14.0373V14.7127C44.2136 15.0143 44.0982 15.1724 43.8817 15.1724C43.7662 15.1724 43.5785 15.1149 43.3332 15C42.5105 14.6264 41.5868 14.4397 40.562 14.4397C39.7393 14.4397 39.0898 14.569 38.6423 14.8419C38.1949 15.1149 37.964 15.5316 37.964 16.1207C37.964 16.523 38.1083 16.8678 38.397 17.1408C38.6856 17.4138 39.2197 17.6868 39.9846 17.931L42.0342 18.5776C43.0734 18.908 43.824 19.3678 44.2714 19.9569C44.7188 20.546 44.9353 21.2213 44.9353 21.9684C44.9353 22.5862 44.8055 23.1465 44.56 23.6351C44.3003 24.1236 43.9539 24.5546 43.5064 24.8994C43.059 25.2586 42.525 25.5173 41.9043 25.704C41.2548 25.9052 40.5765 26.0057 39.8403 26.0057Z" fill="#252F3E"/>
<path fill-rule="evenodd" clip-rule="evenodd" d="M42.5682 32.9883C37.8195 36.4797 30.9204 38.3331 24.9882 38.3331C16.6745 38.3331 9.18354 35.2728 3.52563 30.1866C3.07819 29.7843 3.48233 29.2383 4.01637 29.5544C10.1361 33.0889 17.6849 35.2297 25.4934 35.2297C30.7616 35.2297 36.5495 34.1377 41.8754 31.8964C42.6692 31.5371 43.3475 32.4136 42.5682 32.9883Z" fill="#FF9900"/>
<path fill-rule="evenodd" clip-rule="evenodd" d="M44.5456 30.7469C43.9394 29.971 40.5331 30.3733 38.9887 30.5601C38.5268 30.6176 38.4546 30.2153 38.8732 29.9136C41.5867 28.017 46.0466 28.563 46.5663 29.1952C47.0859 29.8418 46.422 34.2813 43.8816 36.4078C43.492 36.7383 43.1166 36.5658 43.2899 36.1348C43.8672 34.7124 45.1518 31.5084 44.5456 30.7469Z" fill="#FF9900"/>
</g>
</g>
<defs>
<clipPath id="clip0_2698_297">
<rect width="50" height="50" fill="white"/>
</clipPath>
</defs>
</svg>
