<svg width="50" height="50" viewBox="0 0 50 50" fill="none" xmlns="http://www.w3.org/2000/svg">
<g clip-path="url(#clip0_2228_222)">
<path d="M46.7391 0H3.26087C1.46325 0 0 1.46325 0 3.26087V46.7391C0 48.5367 1.46325 50 3.26087 50H46.7391C48.5367 50 50 48.5367 50 46.7391V3.26087C50 1.46325 48.5367 0 46.7391 0ZM47.8261 46.7391C47.8261 47.3389 47.3378 47.8261 46.7391 47.8261H3.26087C2.66219 47.8261 2.17391 47.3389 2.17391 46.7391V3.26087C2.17391 2.66219 2.66219 2.17391 3.26087 2.17391H46.7391C47.3378 2.17391 47.8261 2.66219 47.8261 3.26087V46.7391Z" fill="#7C11FA"/>
<path d="M29.3478 8.6958H14.1304C13.5307 8.6958 13.0435 9.18302 13.0435 9.78275V40.2175C13.0435 40.8188 13.5307 41.3045 14.1304 41.3045H29.3478C33.5433 41.3045 36.9565 37.8902 36.9565 33.6958V31.5218C36.9565 28.7577 35.4752 26.3328 33.2641 25.0001C35.4752 23.6674 36.9565 21.2425 36.9565 18.4784V16.3045C36.9565 12.1089 33.5433 8.6958 29.3478 8.6958ZM34.7826 31.5218V33.6958C34.7826 36.6923 32.3444 39.1305 29.3478 39.1305H15.2174V26.0871H29.3478C32.3444 26.0871 34.7826 28.5253 34.7826 31.5218ZM34.7826 18.4784C34.7826 21.4749 32.3444 23.9131 29.3478 23.9131H15.2174V10.8697H29.3478C32.3444 10.8697 34.7826 13.3079 34.7826 16.3045V18.4784Z" fill="#7C11FA"/>
</g>
<defs>
<clipPath id="clip0_2228_222">
<rect width="50" height="50" fill="white"/>
</clipPath>
</defs>
</svg>
