<svg width="24" height="24" viewBox="0 0 24 24" fill="none" xmlns="http://www.w3.org/2000/svg">
<path d="M4.5 22C4.1 22 3.75 21.85 3.45 21.55C3.15 21.25 3 20.9 3 20.5V5C3 4.6 3.15 4.25 3.45 3.95C3.75 3.65 4.1 3.5 4.5 3.5H6.125V2H7.75V3.5H16.25V2H17.875V3.5H19.5C19.9 3.5 20.25 3.65 20.55 3.95C20.85 4.25 21 4.6 21 5V20.5C21 20.9 20.85 21.25 20.55 21.55C20.25 21.85 19.9 22 19.5 22H4.5ZM4.5 20.5H19.5V9.75H4.5V20.5Z" fill="#00D4A1"/>
<path d="M11.5272 18.4V18.6H11.7272H12.2726H12.4726V18.4V17.8296C12.8583 17.749 13.175 17.5976 13.4062 17.3624C13.6733 17.0906 13.7999 16.7363 13.7999 16.32C13.7999 15.9254 13.6896 15.5826 13.4575 15.3068C13.2273 15.0332 12.8834 14.8376 12.4486 14.7063L12.4486 14.7063C11.9593 14.5586 11.6539 14.4232 11.5033 14.3079C11.3699 14.2057 11.309 14.0817 11.309 13.92C11.309 13.7664 11.3638 13.6575 11.4755 13.5725C11.5938 13.4826 11.7676 13.4267 12.0181 13.4267C12.2254 13.4267 12.3724 13.4656 12.4739 13.5268C12.5735 13.5869 12.6632 13.6889 12.7355 13.8506L12.8153 14.0288L12.9954 13.9533L13.5045 13.74L13.695 13.6602L13.609 13.4723C13.4921 13.2167 13.3205 13.0046 13.0958 12.839C12.913 12.7042 12.7041 12.6142 12.4726 12.5667V12V11.8H12.2726H11.7272H11.5272V12V12.5632C11.2196 12.6205 10.9555 12.755 10.7435 12.971C10.4893 13.2301 10.3635 13.5541 10.3635 13.9289C10.3635 14.3134 10.4878 14.6458 10.7417 14.9115C10.9885 15.1698 11.3488 15.3642 11.8031 15.5062C12.2612 15.6536 12.5408 15.789 12.6746 15.9032C12.7882 16.0002 12.8544 16.1411 12.8544 16.3556C12.8544 16.5459 12.7867 16.6808 12.6519 16.7828C12.5063 16.893 12.3122 16.9556 12.0544 16.9556C11.8174 16.9556 11.6263 16.8957 11.4711 16.7842C11.3177 16.6741 11.19 16.4996 11.097 16.243L11.0265 16.0484L10.8345 16.1255L10.3254 16.33L10.1526 16.3994L10.2095 16.5767C10.3165 16.9103 10.4942 17.1917 10.7436 17.4155C10.9593 17.609 11.2225 17.741 11.5272 17.8159V18.4Z" fill="#00D4A1" stroke="#00D4A1" stroke-width="0.4"/>
</svg>
