<svg width="53" height="53" viewBox="0 0 53 53" fill="none" xmlns="http://www.w3.org/2000/svg">
<path d="M38.7569 26.5L30.9173 18.6604L34.0642 15.5688L38.7569 20.2615L48.1423 10.8761L51.234 14.0229L38.7569 26.5ZM19.8757 26.5C17.4465 26.5 15.367 25.6351 13.6371 23.9052C11.9072 22.1754 11.0423 20.0958 11.0423 17.6667C11.0423 15.2375 11.9072 13.158 13.6371 11.4281C15.367 9.69827 17.4465 8.83334 19.8757 8.83334C22.3048 8.83334 24.3843 9.69827 26.1142 11.4281C27.8441 13.158 28.709 15.2375 28.709 17.6667C28.709 20.0958 27.8441 22.1754 26.1142 23.9052C24.3843 25.6351 22.3048 26.5 19.8757 26.5ZM2.20898 44.1667V37.9833C2.20898 36.732 2.53103 35.5818 3.17513 34.5328C3.81923 33.4839 4.67496 32.6833 5.74232 32.1313C8.02426 30.9903 10.343 30.1346 12.6986 29.5641C15.0541 28.9936 17.4465 28.7083 19.8757 28.7083C22.3048 28.7083 24.6972 28.9936 27.0527 29.5641C29.4083 30.1346 31.727 30.9903 34.009 32.1313C35.0763 32.6833 35.9321 33.4839 36.5762 34.5328C37.2203 35.5818 37.5423 36.732 37.5423 37.9833V44.1667H2.20898Z" fill="#D33B3B"/>
</svg>
