<svg width="50" height="50" viewBox="0 0 50 50" fill="none" xmlns="http://www.w3.org/2000/svg">
<g clip-path="url(#clip0_2698_307)">
<mask id="mask0_2698_307" style="mask-type:alpha" maskUnits="userSpaceOnUse" x="0" y="0" width="50" height="50">
<path d="M50 0H0V50H50V0Z" fill="#C4C4C4"/>
</mask>
<g mask="url(#mask0_2698_307)">
<path d="M30.0631 17.8851H31.2685L34.7025 14.4646L34.8713 13.0133C28.4819 7.39615 18.728 8.0014 13.0887 14.3657C11.5208 16.1336 10.3833 18.2363 9.76404 20.5123C10.1465 20.3556 10.5704 20.3308 10.9694 20.4397L17.8356 19.3117C17.8356 19.3117 18.185 18.7361 18.3655 18.7723C21.4203 15.4311 26.5613 15.0418 30.088 17.8851H30.0631Z" fill="#EA4335"/>
<path d="M39.5939 20.5122C38.8042 17.6179 37.1848 15.0155 34.9314 13.0249L30.1133 17.8241C32.1482 19.4799 33.3072 21.9751 33.2575 24.5924V25.445C35.6268 25.445 37.5458 27.3581 37.5458 29.7165C37.5458 32.0765 35.6252 33.9879 33.2575 33.9879H24.6792L23.8232 34.8521V39.9762L24.6792 40.8287H33.2575C38.175 40.8667 42.5378 37.692 43.9982 33.0148C45.4552 28.3361 43.667 23.2566 39.5939 20.5122Z" fill="#4285F4"/>
<path d="M16.0893 40.7806H24.6676V33.9415H16.0893C15.4784 33.9415 14.874 33.8111 14.3177 33.5571L13.1124 33.9282L9.65522 37.3487L9.35388 38.5493C11.2927 40.0072 13.6587 40.7905 16.0893 40.7806Z" fill="#34A853"/>
<path d="M16.0892 18.5923C11.324 18.6204 7.10363 21.6598 5.58368 26.1573C4.06373 30.6546 5.57871 35.6187 9.35542 38.5114L14.3308 33.5556C12.1718 32.5842 11.2131 30.0543 12.1883 27.9038C13.1635 25.7532 15.7034 24.7983 17.8625 25.7697C18.8128 26.1985 19.5745 26.9571 20.005 27.9038L24.9804 22.9479C22.8628 20.1921 19.5728 18.5808 16.0892 18.5923Z" fill="#FBBC05"/>
</g>
</g>
<defs>
<clipPath id="clip0_2698_307">
<rect width="50" height="50" fill="white"/>
</clipPath>
</defs>
</svg>
