<svg width="299" height="64" viewBox="0 0 299 64" fill="none" xmlns="http://www.w3.org/2000/svg">
<path d="M81.9394 46.3729C82.429 46.5841 82.8178 46.9057 83.1058 47.3377C83.4034 47.7601 83.5522 48.2449 83.5522 48.7921C83.5522 49.5697 83.2786 50.2321 82.7314 50.7793C82.1842 51.3265 81.5218 51.6001 80.7442 51.6001H76.3522V41.5201H80.413C81.1618 41.5201 81.8002 41.7889 82.3282 42.3265C82.8562 42.8545 83.1202 43.4881 83.1202 44.2273C83.1202 45.1681 82.7266 45.8833 81.9394 46.3729ZM80.413 42.4705H77.3602V45.9841H80.413C80.8834 45.9841 81.2818 45.8161 81.6082 45.4801C81.9442 45.1345 82.1122 44.7169 82.1122 44.2273C82.1122 43.7473 81.9442 43.3345 81.6082 42.9889C81.2818 42.6433 80.8834 42.4705 80.413 42.4705ZM80.7442 50.6497C81.2434 50.6497 81.6658 50.4721 82.0114 50.1169C82.3666 49.7521 82.5442 49.3105 82.5442 48.7921C82.5442 48.2833 82.3666 47.8465 82.0114 47.4817C81.6658 47.1169 81.2434 46.9345 80.7442 46.9345H77.3602V50.6497H80.7442ZM91.3299 44.4001H92.2803V51.6001H91.3299V50.1889C90.6675 51.2449 89.6979 51.7729 88.4211 51.7729C87.3939 51.7729 86.5155 51.4081 85.7859 50.6785C85.0659 49.9489 84.7059 49.0561 84.7059 48.0001C84.7059 46.9441 85.0659 46.0513 85.7859 45.3217C86.5155 44.5921 87.3939 44.2273 88.4211 44.2273C89.6979 44.2273 90.6675 44.7553 91.3299 45.8113V44.4001ZM86.4771 50.0305C87.0243 50.5777 87.6963 50.8513 88.4931 50.8513C89.2899 50.8513 89.9619 50.5777 90.5091 50.0305C91.0563 49.4737 91.3299 48.7969 91.3299 48.0001C91.3299 47.2033 91.0563 46.5313 90.5091 45.9841C89.9619 45.4273 89.2899 45.1489 88.4931 45.1489C87.6963 45.1489 87.0243 45.4273 86.4771 45.9841C85.9299 46.5313 85.6563 47.2033 85.6563 48.0001C85.6563 48.7969 85.9299 49.4737 86.4771 50.0305ZM95.0414 46.2865C95.0414 46.6129 95.1854 46.8721 95.4734 47.0641C95.7614 47.2561 96.1118 47.4049 96.5246 47.5105C96.9374 47.6161 97.3502 47.7361 97.763 47.8705C98.1758 47.9953 98.5262 48.2113 98.8142 48.5185C99.1022 48.8161 99.2462 49.2097 99.2462 49.6993C99.2462 50.3137 99.0014 50.8129 98.5118 51.1969C98.0318 51.5809 97.4078 51.7729 96.6398 51.7729C95.9486 51.7729 95.3582 51.6193 94.8686 51.3121C94.3886 51.0049 94.0526 50.6065 93.8606 50.1169L94.667 49.6417C94.8014 50.0161 95.0414 50.3137 95.387 50.5345C95.7422 50.7457 96.1598 50.8513 96.6398 50.8513C97.1102 50.8513 97.5038 50.7601 97.8206 50.5777C98.1374 50.3857 98.2958 50.0929 98.2958 49.6993C98.2958 49.3729 98.1518 49.1137 97.8638 48.9217C97.5758 48.7297 97.2254 48.5809 96.8126 48.4753C96.3998 48.3697 95.987 48.2545 95.5742 48.1297C95.1614 47.9953 94.811 47.7793 94.523 47.4817C94.235 47.1745 94.091 46.7761 94.091 46.2865C94.091 45.7009 94.3214 45.2113 94.7822 44.8177C95.2526 44.4241 95.843 44.2273 96.5534 44.2273C97.139 44.2273 97.6526 44.3617 98.0942 44.6305C98.5358 44.8897 98.8622 45.2449 99.0734 45.6961L98.2814 46.1569C98.003 45.4849 97.427 45.1489 96.5534 45.1489C96.1406 45.1489 95.7854 45.2497 95.4878 45.4513C95.1902 45.6433 95.0414 45.9217 95.0414 46.2865ZM103.947 44.2273C105.013 44.2273 105.872 44.6065 106.525 45.3649C107.187 46.1137 107.518 47.0017 107.518 48.0289C107.518 48.1345 107.509 48.2833 107.489 48.4753H101.168C101.264 49.2049 101.571 49.7857 102.089 50.2177C102.617 50.6401 103.265 50.8513 104.033 50.8513C104.581 50.8513 105.051 50.7409 105.445 50.5201C105.848 50.2897 106.15 49.9921 106.352 49.6273L107.187 50.1169C106.87 50.6257 106.438 51.0289 105.891 51.3265C105.344 51.6241 104.72 51.7729 104.019 51.7729C102.886 51.7729 101.965 51.4177 101.254 50.7073C100.544 49.9969 100.189 49.0945 100.189 48.0001C100.189 46.9249 100.539 46.0273 101.24 45.3073C101.941 44.5873 102.843 44.2273 103.947 44.2273ZM103.947 45.1489C103.198 45.1489 102.569 45.3745 102.061 45.8257C101.561 46.2673 101.264 46.8433 101.168 47.5537H106.539C106.443 46.7953 106.15 46.2049 105.661 45.7825C105.171 45.3601 104.6 45.1489 103.947 45.1489ZM115.222 41.5201H116.172V51.6001H115.222V50.1889C114.56 51.2449 113.59 51.7729 112.313 51.7729C111.286 51.7729 110.408 51.4081 109.678 50.6785C108.958 49.9489 108.598 49.0561 108.598 48.0001C108.598 46.9441 108.958 46.0513 109.678 45.3217C110.408 44.5921 111.286 44.2273 112.313 44.2273C113.59 44.2273 114.56 44.7553 115.222 45.8113V41.5201ZM110.369 50.0305C110.916 50.5777 111.588 50.8513 112.385 50.8513C113.182 50.8513 113.854 50.5777 114.401 50.0305C114.948 49.4737 115.222 48.7969 115.222 48.0001C115.222 47.2033 114.948 46.5313 114.401 45.9841C113.854 45.4273 113.182 45.1489 112.385 45.1489C111.588 45.1489 110.916 45.4273 110.369 45.9841C109.822 46.5313 109.548 47.2033 109.548 48.0001C109.548 48.7969 109.822 49.4737 110.369 50.0305ZM127.818 50.6929C127.089 51.4129 126.196 51.7729 125.14 51.7729C124.084 51.7729 123.186 51.4129 122.447 50.6929C121.718 49.9633 121.353 49.0657 121.353 48.0001C121.353 46.9345 121.718 46.0417 122.447 45.3217C123.186 44.5921 124.084 44.2273 125.14 44.2273C126.196 44.2273 127.089 44.5921 127.818 45.3217C128.558 46.0417 128.927 46.9345 128.927 48.0001C128.927 49.0657 128.558 49.9633 127.818 50.6929ZM123.124 50.0305C123.671 50.5777 124.343 50.8513 125.14 50.8513C125.937 50.8513 126.609 50.5777 127.156 50.0305C127.703 49.4737 127.977 48.7969 127.977 48.0001C127.977 47.2033 127.703 46.5313 127.156 45.9841C126.609 45.4273 125.937 45.1489 125.14 45.1489C124.343 45.1489 123.671 45.4273 123.124 45.9841C122.577 46.5313 122.303 47.2033 122.303 48.0001C122.303 48.7969 122.577 49.4737 123.124 50.0305ZM133.887 44.2273C134.761 44.2273 135.447 44.4961 135.946 45.0337C136.455 45.5617 136.71 46.2769 136.71 47.1793V51.6001H135.759V47.1793C135.759 46.5361 135.586 46.0369 135.241 45.6817C134.905 45.3265 134.425 45.1489 133.801 45.1489C133.11 45.1489 132.548 45.3697 132.116 45.8113C131.684 46.2433 131.468 46.9153 131.468 47.8273V51.6001H130.518V44.4001H131.468V45.5233C132.006 44.6593 132.812 44.2273 133.887 44.2273ZM147 51.7729C145.474 51.7729 144.211 51.2689 143.213 50.2609C142.214 49.2529 141.715 48.0193 141.715 46.5601C141.715 45.1009 142.214 43.8673 143.213 42.8593C144.211 41.8513 145.474 41.3473 147 41.3473C147.931 41.3473 148.786 41.5729 149.563 42.0241C150.341 42.4657 150.941 43.0657 151.363 43.8241L150.47 44.3425C150.154 43.7281 149.683 43.2385 149.059 42.8737C148.435 42.5089 147.749 42.3265 147 42.3265C145.742 42.3265 144.715 42.7345 143.918 43.5505C143.122 44.3665 142.723 45.3697 142.723 46.5601C142.723 47.7505 143.122 48.7537 143.918 49.5697C144.715 50.3857 145.742 50.7937 147 50.7937C147.749 50.7937 148.435 50.6113 149.059 50.2465C149.683 49.8817 150.154 49.3921 150.47 48.7777L151.363 49.2817C150.95 50.0401 150.35 50.6449 149.563 51.0961C148.786 51.5473 147.931 51.7729 147 51.7729ZM152.877 51.6001V41.0881H153.827V51.6001H152.877ZM160.913 44.4001H161.863V51.6001H160.913V50.4769C160.375 51.3409 159.569 51.7729 158.494 51.7729C157.62 51.7729 156.929 51.5089 156.42 50.9809C155.921 50.4433 155.671 49.7233 155.671 48.8209V44.4001H156.622V48.8209C156.622 49.4641 156.79 49.9633 157.126 50.3185C157.471 50.6737 157.956 50.8513 158.58 50.8513C159.271 50.8513 159.833 50.6353 160.265 50.2033C160.697 49.7617 160.913 49.0849 160.913 48.1729V44.4001ZM167.69 45.3217H165.616V49.6849C165.616 50.0785 165.693 50.3617 165.847 50.5345C166 50.6977 166.231 50.7841 166.538 50.7937C166.845 50.7937 167.229 50.7841 167.69 50.7649V51.6001C166.682 51.7537 165.923 51.6817 165.415 51.3841C164.915 51.0865 164.666 50.5201 164.666 49.6849V45.3217H163.154V44.4001H164.666V42.6721L165.616 42.3841V44.4001H167.69V45.3217ZM172.193 51.7729C171.108 51.7729 170.206 51.4129 169.486 50.6929C168.766 49.9633 168.406 49.0657 168.406 48.0001C168.406 46.9345 168.766 46.0417 169.486 45.3217C170.206 44.5921 171.108 44.2273 172.193 44.2273C172.903 44.2273 173.542 44.4001 174.108 44.7457C174.675 45.0817 175.087 45.5377 175.347 46.1137L174.569 46.5601C174.377 46.1281 174.065 45.7873 173.633 45.5377C173.211 45.2785 172.731 45.1489 172.193 45.1489C171.396 45.1489 170.724 45.4273 170.177 45.9841C169.63 46.5313 169.356 47.2033 169.356 48.0001C169.356 48.7969 169.63 49.4737 170.177 50.0305C170.724 50.5777 171.396 50.8513 172.193 50.8513C172.731 50.8513 173.211 50.7265 173.633 50.4769C174.055 50.2177 174.387 49.8721 174.627 49.4401L175.419 49.9009C175.121 50.4769 174.684 50.9329 174.108 51.2689C173.532 51.6049 172.894 51.7729 172.193 51.7729ZM180.153 44.2273C181.026 44.2273 181.713 44.4961 182.212 45.0337C182.721 45.5617 182.975 46.2769 182.975 47.1793V51.6001H182.025V47.1793C182.025 46.5361 181.852 46.0369 181.506 45.6817C181.17 45.3265 180.69 45.1489 180.066 45.1489C179.375 45.1489 178.814 45.3697 178.382 45.8113C177.95 46.2433 177.734 46.9153 177.734 47.8273V51.6001H176.783V41.5201H177.734V45.5233C178.271 44.6593 179.078 44.2273 180.153 44.2273ZM189.363 45.5953C189.805 44.7217 190.563 44.2849 191.638 44.2849V45.2065C190.986 45.2065 190.443 45.3985 190.011 45.7825C189.579 46.1665 189.363 46.7713 189.363 47.5969V51.6001H188.413V44.4001H189.363V45.5953ZM195.831 44.2273C196.897 44.2273 197.756 44.6065 198.409 45.3649C199.071 46.1137 199.403 47.0017 199.403 48.0289C199.403 48.1345 199.393 48.2833 199.374 48.4753H193.052C193.148 49.2049 193.455 49.7857 193.974 50.2177C194.502 50.6401 195.15 50.8513 195.918 50.8513C196.465 50.8513 196.935 50.7409 197.329 50.5201C197.732 50.2897 198.035 49.9921 198.236 49.6273L199.071 50.1169C198.755 50.6257 198.323 51.0289 197.775 51.3265C197.228 51.6241 196.604 51.7729 195.903 51.7729C194.771 51.7729 193.849 51.4177 193.139 50.7073C192.428 49.9969 192.073 49.0945 192.073 48.0001C192.073 46.9249 192.423 46.0273 193.124 45.3073C193.825 44.5873 194.727 44.2273 195.831 44.2273ZM195.831 45.1489C195.083 45.1489 194.454 45.3745 193.945 45.8257C193.446 46.2673 193.148 46.8433 193.052 47.5537H198.423C198.327 46.7953 198.035 46.2049 197.545 45.7825C197.055 45.3601 196.484 45.1489 195.831 45.1489ZM205.817 44.4001H206.825L203.873 51.6001H202.721L199.769 44.4001H200.777L203.297 50.6065L205.817 44.4001ZM208.939 42.6721C208.804 42.8065 208.641 42.8737 208.449 42.8737C208.257 42.8737 208.094 42.8065 207.959 42.6721C207.825 42.5377 207.758 42.3745 207.758 42.1825C207.758 41.9905 207.825 41.8273 207.959 41.6929C208.094 41.5585 208.257 41.4913 208.449 41.4913C208.641 41.4913 208.804 41.5585 208.939 41.6929C209.073 41.8273 209.14 41.9905 209.14 42.1825C209.14 42.3745 209.073 42.5377 208.939 42.6721ZM207.974 51.6001V44.4001H208.924V51.6001H207.974ZM214.267 44.2273C215.333 44.2273 216.192 44.6065 216.845 45.3649C217.507 46.1137 217.839 47.0017 217.839 48.0289C217.839 48.1345 217.829 48.2833 217.81 48.4753H211.488C211.584 49.2049 211.891 49.7857 212.41 50.2177C212.938 50.6401 213.586 50.8513 214.354 50.8513C214.901 50.8513 215.371 50.7409 215.765 50.5201C216.168 50.2897 216.471 49.9921 216.672 49.6273L217.507 50.1169C217.191 50.6257 216.759 51.0289 216.211 51.3265C215.664 51.6241 215.04 51.7729 214.339 51.7729C213.207 51.7729 212.285 51.4177 211.575 50.7073C210.864 49.9969 210.509 49.0945 210.509 48.0001C210.509 46.9249 210.859 46.0273 211.56 45.3073C212.261 44.5873 213.163 44.2273 214.267 44.2273ZM214.267 45.1489C213.519 45.1489 212.89 45.3745 212.381 45.8257C211.882 46.2673 211.584 46.8433 211.488 47.5537H216.859C216.763 46.7953 216.471 46.2049 215.981 45.7825C215.491 45.3601 214.92 45.1489 214.267 45.1489ZM227.738 44.4001H228.717L226.5 51.6001H225.463L223.605 45.7969L221.748 51.6001H220.711L218.493 44.4001H219.472L221.244 50.3761L223.13 44.4001H224.08L225.967 50.3761L227.738 44.4001ZM230.463 46.2865C230.463 46.6129 230.607 46.8721 230.895 47.0641C231.183 47.2561 231.534 47.4049 231.946 47.5105C232.359 47.6161 232.772 47.7361 233.185 47.8705C233.598 47.9953 233.948 48.2113 234.236 48.5185C234.524 48.8161 234.668 49.2097 234.668 49.6993C234.668 50.3137 234.423 50.8129 233.934 51.1969C233.454 51.5809 232.83 51.7729 232.062 51.7729C231.37 51.7729 230.78 51.6193 230.29 51.3121C229.81 51.0049 229.474 50.6065 229.282 50.1169L230.089 49.6417C230.223 50.0161 230.463 50.3137 230.809 50.5345C231.164 50.7457 231.582 50.8513 232.062 50.8513C232.532 50.8513 232.926 50.7601 233.242 50.5777C233.559 50.3857 233.718 50.0929 233.718 49.6993C233.718 49.3729 233.574 49.1137 233.286 48.9217C232.998 48.7297 232.647 48.5809 232.234 48.4753C231.822 48.3697 231.409 48.2545 230.996 48.1297C230.583 47.9953 230.233 47.7793 229.945 47.4817C229.657 47.1745 229.513 46.7761 229.513 46.2865C229.513 45.7009 229.743 45.2113 230.204 44.8177C230.674 44.4241 231.265 44.2273 231.975 44.2273C232.561 44.2273 233.074 44.3617 233.516 44.6305C233.958 44.8897 234.284 45.2449 234.495 45.6961L233.703 46.1569C233.425 45.4849 232.849 45.1489 231.975 45.1489C231.562 45.1489 231.207 45.2497 230.91 45.4513C230.612 45.6433 230.463 45.9217 230.463 46.2865Z" fill="#333333"/>
<path d="M80.2882 23.7744C81.5426 23.7744 82.605 24.1456 83.4754 24.888C84.3586 25.6176 84.8002 26.6224 84.8002 27.9024C84.8002 29.1824 84.3586 30.1936 83.4754 30.936C82.605 31.6656 81.5426 32.0304 80.2882 32.0304C79.277 32.0304 78.3746 31.7872 77.581 31.3008C76.7874 30.8016 76.2498 30.0912 75.9682 29.1696L77.101 28.5168C77.293 29.2336 77.6706 29.784 78.2338 30.168C78.8098 30.5392 79.4946 30.7248 80.2882 30.7248C81.2098 30.7248 81.965 30.4816 82.5538 29.9952C83.1554 29.496 83.4562 28.7984 83.4562 27.9024C83.4562 27.0064 83.1554 26.3152 82.5538 25.8288C81.965 25.3296 81.2098 25.08 80.2882 25.08H76.6402L77.1202 18.36H84.3202V19.6272H78.3106L78.0226 23.7744H80.2882ZM88.1507 31.6848C87.9459 31.8896 87.6963 31.992 87.4019 31.992C87.1075 31.992 86.8579 31.8896 86.6531 31.6848C86.4483 31.48 86.3459 31.2304 86.3459 30.936C86.3459 30.6416 86.4483 30.392 86.6531 30.1872C86.8579 29.9824 87.1075 29.88 87.4019 29.88C87.6963 29.88 87.9459 29.9824 88.1507 30.1872C88.3555 30.392 88.4579 30.6416 88.4579 30.936C88.4579 31.2304 88.3555 31.48 88.1507 31.6848ZM98.8297 30.1488C97.9465 31.4032 96.6985 32.0304 95.0857 32.0304C93.4729 32.0304 92.2185 31.4032 91.3225 30.1488C90.4393 28.8816 89.9977 27.192 89.9977 25.08C89.9977 22.968 90.4393 21.2848 91.3225 20.0304C92.2185 18.7632 93.4729 18.1296 95.0857 18.1296C96.6985 18.1296 97.9465 18.7632 98.8297 20.0304C99.7257 21.2848 100.174 22.968 100.174 25.08C100.174 27.192 99.7257 28.8816 98.8297 30.1488ZM92.3209 29.2464C92.9865 30.232 93.9081 30.7248 95.0857 30.7248C96.2633 30.7248 97.1785 30.232 97.8313 29.2464C98.4969 28.2608 98.8297 26.872 98.8297 25.08C98.8297 23.288 98.4969 21.8992 97.8313 20.9136C97.1785 19.928 96.2633 19.4352 95.0857 19.4352C93.9081 19.4352 92.9865 19.928 92.3209 20.9136C91.6681 21.8992 91.3417 23.288 91.3417 25.08C91.3417 26.872 91.6681 28.2608 92.3209 29.2464Z" fill="black"/>
<path d="M122 26.4697L128.18 30.1997L126.54 23.1697L132 18.4397L124.81 17.8297L122 11.1997L119.19 17.8297L112 18.4397L117.46 23.1697L115.82 30.1997L122 26.4697Z" fill="#D43B28"/>
<path d="M146 26.4697L152.18 30.1997L150.54 23.1697L156 18.4397L148.81 17.8297L146 11.1997L143.19 17.8297L136 18.4397L141.46 23.1697L139.82 30.1997L146 26.4697Z" fill="#D43B28"/>
<path d="M170 26.4697L176.18 30.1997L174.54 23.1697L180 18.4397L172.81 17.8297L170 11.1997L167.19 17.8297L160 18.4397L165.46 23.1697L163.82 30.1997L170 26.4697Z" fill="#D43B28"/>
<path d="M194 26.4697L200.18 30.1997L198.54 23.1697L204 18.4397L196.81 17.8297L194 11.1997L191.19 17.8297L184 18.4397L189.46 23.1697L187.82 30.1997L194 26.4697Z" fill="#D43B28"/>
<path d="M218 26.4697L224.18 30.1997L222.54 23.1697L228 18.4397L220.81 17.8297L218 11.1997L215.19 17.8297L208 18.4397L213.46 23.1697L211.82 30.1997L218 26.4697Z" fill="#D43B28"/>
<path d="M2 2H30.8C46.7058 2 59.6 14.8942 59.6 30.8V62H30.8C14.8942 62 2 49.1058 2 33.2V2Z" fill="#16313A"/>
<path d="M38.0367 37.3245C36.6304 38.5887 34.7738 39.2894 32.7362 39.2894C28.2447 39.2894 24.9462 35.991 24.9462 31.4623C24.9462 26.9336 28.1397 23.774 32.7362 23.774C34.7382 23.774 36.6304 24.4408 38.0722 25.7049L39.0522 26.5477L43.4065 22.195L42.3167 21.2118C39.7545 18.8982 36.3527 17.6001 32.7346 17.6001C24.6621 17.6001 18.7998 23.4252 18.7998 31.4284C18.7998 39.3976 24.8026 45.431 32.7346 45.431C36.4206 45.431 39.8578 44.1329 42.3878 41.7822L43.4404 40.799L39.0183 36.4495L38.0367 37.3245Z" fill="white"/>
<path d="M32.5227 26.8638C33.761 26.8638 34.9486 27.3557 35.8243 28.2313C36.6999 29.107 37.1918 30.2946 37.1918 31.5329C37.1918 32.7713 36.6999 33.9589 35.8243 34.8345C34.9486 35.7102 33.761 36.2021 32.5227 36.2021C31.2843 36.2021 30.0967 35.7102 29.2211 34.8345C28.3454 33.9589 27.8535 32.7713 27.8535 31.5329C27.8535 30.2946 28.3454 29.107 29.2211 28.2313C30.0967 27.3557 31.2843 26.8638 32.5227 26.8638Z" fill="#FF3D2E"/>
<path d="M2 1.4H1.4V2V32C1.4 48.8999 15.1001 62.6 32 62.6H297.2H297.8V62V22.4C297.8 10.802 288.398 1.4 276.8 1.4H2Z" stroke="#E9E9E9" stroke-width="1.2"/>
</svg>
