<svg width="50" height="50" viewBox="0 0 50 50" fill="none" xmlns="http://www.w3.org/2000/svg">
<path d="M32.7143 0H12.6325C9.69867 0 7.31078 2.38945 7.31078 5.32168V24.9999H6.79091C5.60682 24.9999 4.64673 25.9592 4.64673 27.1442V40.1491C4.64673 41.3342 5.60682 42.2936 6.79091 42.2936H7.31078V44.6782C7.31078 47.6137 9.69878 49.9999 12.6325 49.9999H40.0335C42.9655 49.9999 45.3535 47.6136 45.3535 44.6782V12.5948L32.7143 0ZM14.8885 36.8362C15.504 36.8362 16.1864 36.7023 16.5886 36.5422L16.8956 38.134C16.5214 38.322 15.678 38.5232 14.5814 38.5232C11.4631 38.5232 9.85724 36.5831 9.85724 34.0137C9.85724 30.9362 12.0521 29.2233 14.7817 29.2233C15.8391 29.2233 16.6417 29.4373 17.0028 29.6238L16.5886 31.2433C16.1733 31.0685 15.5981 30.9085 14.8756 30.9085C13.2558 30.9085 11.9982 31.8857 11.9982 33.8929C11.9982 35.6988 13.0687 36.8362 14.8885 36.8362ZM40.0334 46.7408H12.6325C11.4965 46.7408 10.5713 45.8157 10.5713 44.6782V42.2936H36.1147C37.299 42.2936 38.2592 41.3342 38.2592 40.1491V27.1442C38.2592 25.9592 37.299 24.9999 36.1147 24.9999H10.5713V5.32168C10.5713 4.18726 11.4965 3.26222 12.6325 3.26222L31.4952 3.24262V10.215C31.4952 12.2514 33.1476 13.9055 35.1857 13.9055L42.0158 13.886L42.0926 44.6782C42.0926 45.8157 41.1692 46.7408 40.0334 46.7408ZM20.4866 34.6021C18.9877 34.0808 18.0105 33.2505 18.0105 31.9396C18.0105 30.3998 19.2949 29.2232 21.4229 29.2232C22.4396 29.2232 23.1899 29.4372 23.7242 29.6776L23.2698 31.3235C22.9087 31.1502 22.2663 30.8951 21.3829 30.8951C20.4996 30.8951 20.0714 31.2974 20.0714 31.7649C20.0714 32.3401 20.5796 32.5951 21.7441 33.0363C23.3369 33.6248 24.0862 34.4551 24.0862 35.7267C24.0862 37.2384 22.9217 38.5232 20.4464 38.5232C19.4159 38.5232 18.3985 38.2551 17.8903 37.9738L18.3053 36.2888C18.8538 36.57 19.6971 36.8495 20.5666 36.8495C21.5031 36.8495 21.9983 36.4621 21.9983 35.8735C21.9984 35.3115 21.5702 34.9895 20.4866 34.6021ZM27.7164 34.6021C26.2177 34.0808 25.2403 33.2505 25.2403 31.9396C25.2403 30.3998 26.525 29.2232 28.6528 29.2232C29.6704 29.2232 30.4188 29.4372 30.9549 29.6776L30.4999 31.3235C30.1385 31.1502 29.4963 30.8951 28.6129 30.8951C27.7295 30.8951 27.3013 31.2974 27.3013 31.7649C27.3013 32.3401 27.8096 32.5951 28.9742 33.0363C30.5668 33.6248 31.3164 34.4551 31.3164 35.7267C31.3164 37.2384 30.1519 38.5232 27.6765 38.5232C26.6459 38.5232 25.6285 38.2551 25.1202 37.9738L25.5354 36.2888C26.0837 36.57 26.927 36.8495 27.7965 36.8495C28.733 36.8495 29.2283 36.4621 29.2283 35.8735C29.2282 35.3115 28.7999 34.9895 27.7164 34.6021Z" fill="#F7B84E"/>
</svg>
