<svg width="202" height="202" viewBox="0 0 202 202" fill="none" xmlns="http://www.w3.org/2000/svg">
<g opacity="0.8">
<path d="M186.219 94.6875H179.906C179.069 94.6875 178.266 94.355 177.674 93.7631C177.083 93.1711 176.75 92.3683 176.75 91.5312C176.75 90.6942 177.083 89.8914 177.674 89.2994C178.266 88.7075 179.069 88.375 179.906 88.375H186.219C187.056 88.375 187.859 88.7075 188.451 89.2994C189.042 89.8914 189.375 90.6942 189.375 91.5312C189.375 92.3683 189.042 93.1711 188.451 93.7631C187.859 94.355 187.056 94.6875 186.219 94.6875Z" fill="#D33B3B"/>
<path d="M177.675 112.7L173.212 108.237C172.919 107.944 172.686 107.596 172.528 107.213C172.369 106.831 172.288 106.42 172.288 106.006C172.288 105.591 172.369 105.181 172.528 104.798C172.686 104.415 172.919 104.067 173.212 103.774C173.505 103.481 173.853 103.249 174.236 103.09C174.619 102.932 175.029 102.85 175.443 102.85C175.858 102.85 176.268 102.932 176.651 103.09C177.034 103.249 177.382 103.481 177.675 103.774L182.138 108.237C182.431 108.53 182.663 108.878 182.822 109.261C182.98 109.644 183.062 110.054 183.062 110.469C183.062 110.883 182.98 111.294 182.822 111.676C182.663 112.059 182.431 112.407 182.138 112.7C181.845 112.993 181.497 113.226 181.114 113.384C180.731 113.543 180.321 113.625 179.906 113.625C179.492 113.625 179.082 113.543 178.699 113.384C178.316 113.226 177.968 112.993 177.675 112.7Z" fill="#282689"/>
<path d="M173.212 79.2882C172.918 78.9953 172.686 78.6475 172.527 78.2646C172.368 77.8817 172.286 77.4712 172.286 77.0567C172.286 76.6422 172.368 76.2317 172.527 75.8488C172.686 75.4659 172.918 75.1181 173.212 74.8252L177.675 70.3623C177.968 70.0693 178.316 69.8368 178.699 69.6782C179.081 69.5196 179.492 69.438 179.906 69.438C180.321 69.438 180.731 69.5196 181.114 69.6782C181.497 69.8368 181.845 70.0693 182.138 70.3623C182.431 70.6553 182.663 71.0032 182.822 71.3861C182.98 71.769 183.062 72.1793 183.062 72.5938C183.062 73.0082 182.98 73.4185 182.822 73.8014C182.663 74.1843 182.431 74.5322 182.138 74.8252L177.675 79.2882C177.382 79.5815 177.034 79.8143 176.651 79.9731C176.268 80.1318 175.858 80.2136 175.443 80.2136C175.029 80.2136 174.618 80.1318 174.235 79.9731C173.852 79.8143 173.505 79.5815 173.212 79.2882Z" fill="#333333"/>
<path d="M15.7812 88.375H22.0938C22.9308 88.375 23.7336 88.7075 24.3256 89.2994C24.9175 89.8914 25.25 90.6942 25.25 91.5312C25.25 92.3683 24.9175 93.1711 24.3256 93.7631C23.7336 94.355 22.9308 94.6875 22.0938 94.6875H15.7812C14.9442 94.6875 14.1414 94.355 13.5494 93.7631C12.9575 93.1711 12.625 92.3683 12.625 91.5312C12.625 90.6942 12.9575 89.8914 13.5494 89.2994C14.1414 88.7075 14.9442 88.375 15.7812 88.375Z" fill="#D33B3B"/>
<path d="M24.3252 70.3623L28.7882 74.8252C29.0812 75.1183 29.3137 75.4662 29.4723 75.849C29.6308 76.2319 29.7125 76.6423 29.7125 77.0567C29.7125 77.4711 29.6308 77.8815 29.4723 78.2644C29.3137 78.6472 29.0812 78.9951 28.7882 79.2882C28.4951 79.5812 28.1472 79.8137 27.7644 79.9723C27.3815 80.1308 26.9711 80.2125 26.5567 80.2125C26.1423 80.2125 25.7319 80.1308 25.349 79.9723C24.9662 79.8137 24.6183 79.5812 24.3252 79.2882L19.8623 74.8252C19.2705 74.2334 18.938 73.4307 18.938 72.5938C18.938 71.7568 19.2705 70.9541 19.8623 70.3623C20.4541 69.7705 21.2568 69.438 22.0938 69.438C22.9307 69.438 23.7334 69.7705 24.3252 70.3623Z" fill="#282689"/>
<path d="M28.7882 103.774C29.0815 104.067 29.3143 104.415 29.4731 104.798C29.6319 105.181 29.7136 105.591 29.7136 106.006C29.7136 106.42 29.6319 106.831 29.4731 107.214C29.3143 107.597 29.0815 107.944 28.7882 108.237L24.3252 112.7C24.0322 112.993 23.6843 113.226 23.3014 113.384C22.9185 113.543 22.5082 113.625 22.0938 113.625C21.6793 113.625 21.269 113.543 20.8861 113.384C20.5032 113.226 20.1553 112.993 19.8623 112.7C19.5693 112.407 19.3368 112.059 19.1782 111.676C19.0196 111.294 18.938 110.883 18.938 110.469C18.938 110.054 19.0196 109.644 19.1782 109.261C19.3368 108.878 19.5693 108.53 19.8623 108.237L24.3252 103.774C24.6181 103.481 24.9659 103.248 25.3488 103.089C25.7317 102.931 26.1422 102.849 26.5567 102.849C26.9712 102.849 27.3817 102.931 27.7646 103.089C28.1475 103.248 28.4953 103.481 28.7882 103.774Z" fill="#333333"/>
<path d="M164.125 60.7262V132.562L101 101V25.25L160.622 55.0766C161.673 55.5992 162.558 56.4048 163.177 57.4029C163.796 58.4009 164.124 59.5519 164.125 60.7262Z" fill="#F4AF10"/>
<path d="M145.188 94.6875C145.188 103.778 142.442 112.268 137.644 119.338L101 101V50.5C125.65 50.5 145.188 70.6684 145.188 94.6875Z" fill="#F4AF10"/>
<path d="M101 25.25V101L37.875 132.562V60.7262C37.8756 59.5519 38.2038 58.4009 38.8228 57.4029C39.4417 56.4048 40.3267 55.5992 41.3784 55.0766L101 25.25Z" fill="#00D4A1"/>
<path d="M164.125 132.562L164.03 132.594L119.938 154.656L103.809 162.705C102.042 163.588 99.9584 163.588 98.1909 162.705L82.0625 154.656L44.9766 136.129L37.9697 132.626L37.875 132.562L49.2691 126.881C51.005 126.029 52.8356 125.082 54.7609 124.135L64.3559 119.338L100.842 101.063L101 101L101.158 101.063L137.644 119.306L151.721 126.345C153.267 127.134 154.814 127.923 156.455 128.743L164.125 132.562Z" fill="#D33B3B"/>
<path d="M137.644 119.306C135.75 122.178 133.478 124.798 130.953 127.134C127.513 130.29 124.767 134.046 122.873 138.181C120.979 142.315 119.938 146.829 119.938 151.5V154.656L103.809 162.705C102.042 163.588 99.9585 163.588 98.191 162.705L82.0625 154.656V151.5C82.0625 142.157 77.8647 133.415 71.0156 127.071C68.5222 124.767 66.2813 122.178 64.356 119.338L100.842 101.063L101 101L101.158 101.063L137.644 119.306Z" fill="#D33B3B"/>
<path d="M145.188 91.5312C145.188 104.282 139.759 115.866 130.953 123.977C127.513 127.134 124.767 130.89 122.873 135.024C120.979 139.159 119.938 143.672 119.938 148.344H82.0625C82.0625 139.001 77.8647 130.258 71.0156 123.914C62.2728 115.866 56.8125 104.346 56.8125 91.5312C56.8125 67.0703 76.9494 47.3438 101 47.3438C125.65 47.3438 145.188 67.5122 145.188 91.5312Z" fill="white"/>
<path d="M115.298 101.48L106.953 96.2656L115.295 91.0515C116.005 90.6078 116.509 89.9004 116.697 89.0847C116.886 88.2691 116.742 87.412 116.298 86.7022C115.855 85.9923 115.147 85.4878 114.332 85.2996C113.516 85.1113 112.659 85.2548 111.949 85.6985L104.156 90.5717V82.0625C104.156 81.2254 103.824 80.4226 103.232 79.8307C102.64 79.2388 101.837 78.9062 101 78.9062C100.163 78.9062 99.3601 79.2388 98.7682 79.8307C98.1763 80.4226 97.8438 81.2254 97.8438 82.0625V90.5717L90.0478 85.6985C89.338 85.2548 88.481 85.1113 87.6653 85.2996C86.8497 85.4878 86.1422 85.9923 85.6985 86.7022C85.2549 87.412 85.1114 88.2691 85.2996 89.0847C85.4878 89.9004 85.9924 90.6078 86.7022 91.0515L95.0442 96.2656L86.7022 101.48C85.9928 101.923 85.4886 102.631 85.3007 103.446C85.1128 104.261 85.2564 105.118 85.7001 105.827C86.1438 106.537 86.8511 107.041 87.6664 107.229C88.4818 107.417 89.3384 107.273 90.0478 106.83L97.8438 101.96V148.344C97.8438 149.181 98.1763 149.984 98.7682 150.576C99.3601 151.167 100.163 151.5 101 151.5C101.837 151.5 102.64 151.167 103.232 150.576C103.824 149.984 104.156 149.181 104.156 148.344V101.96L111.952 106.833C112.304 107.052 112.695 107.201 113.104 107.269C113.513 107.338 113.931 107.325 114.335 107.232C114.739 107.138 115.12 106.967 115.458 106.726C115.795 106.485 116.082 106.181 116.302 105.829C116.521 105.478 116.669 105.086 116.738 104.677C116.806 104.269 116.794 103.85 116.7 103.447C116.607 103.043 116.435 102.661 116.195 102.324C115.954 101.986 115.649 101.699 115.298 101.48Z" fill="#E9E9E9"/>
<path d="M113.625 176.75H88.375C86.7008 176.75 85.0952 176.085 83.9114 174.901C82.7276 173.717 82.0625 172.112 82.0625 170.438V148.344H119.938V170.438C119.938 172.112 119.272 173.717 118.089 174.901C116.905 176.085 115.299 176.75 113.625 176.75Z" fill="#333333"/>
</g>
</svg>
