<svg width="53" height="53" viewBox="0 0 53 53" fill="none" xmlns="http://www.w3.org/2000/svg">
<path fill-rule="evenodd" clip-rule="evenodd" d="M47.7122 8.94856H5.28768C4.98117 8.94908 4.68735 9.07105 4.47058 9.28774C4.2538 9.50444 4.13173 9.79822 4.1311 10.1047V35.4855C4.13173 35.792 4.2538 36.0858 4.47058 36.3025C4.68735 36.5192 4.98117 36.6412 5.28768 36.6417H47.7122C48.0189 36.6414 48.3129 36.5196 48.5299 36.3028C48.7469 36.0861 48.8691 35.7922 48.8697 35.4855V10.1047C48.8691 9.79815 48.7469 9.50433 48.5301 9.28763C48.3132 9.07092 48.0193 8.949 47.7127 8.94856H47.7122ZM47.5654 35.3383H5.43457V10.2522H47.5654V35.3383ZM1.89899 9.22019C1.90028 8.55533 2.16518 7.91811 2.6356 7.44828C3.10602 6.97844 3.74356 6.71433 4.40842 6.71387H48.5916C49.2565 6.71436 49.894 6.97847 50.3644 7.44829C50.8349 7.91812 51.0998 8.55532 51.1012 9.22019V39.3965H1.89899V9.22019ZM17.4749 40.6924H35.5255V42.5235C35.5241 42.5707 35.5047 42.6154 35.4712 42.6486C35.4378 42.6818 35.3928 42.7009 35.3457 42.702H17.6549C17.6078 42.7009 17.5629 42.6818 17.5295 42.6486C17.4961 42.6154 17.4767 42.5706 17.4753 42.5235V40.6924H17.4749ZM53 42.8805V40.6924H36.8285V42.5235C36.8275 42.9164 36.671 43.293 36.3931 43.5707C36.1152 43.8485 35.7386 44.0048 35.3457 44.0056H17.6549C17.262 44.0048 16.8854 43.8485 16.6074 43.5707C16.3295 43.293 16.1729 42.9165 16.1719 42.5235V40.6924H0V42.8805C0.00169927 43.7841 0.361742 44.6503 1.00116 45.2888C1.64057 45.9274 2.50716 46.2863 3.41084 46.2869H49.5892C50.4929 46.2864 51.3595 45.9275 51.9989 45.2889C52.6383 44.6503 52.9984 43.7842 53 42.8805ZM30.2715 25.7322L33.2098 22.7992L30.2715 19.8583C30.149 19.7361 30.0801 19.5703 30.08 19.3973C30.0798 19.2244 30.1483 19.0584 30.2705 18.936C30.3926 18.8135 30.5584 18.7446 30.7314 18.7444C30.9044 18.7442 31.0703 18.8128 31.1928 18.9349L34.5917 22.3335C34.7141 22.456 34.7828 22.6221 34.7828 22.7952C34.7828 22.9684 34.7141 23.1344 34.5917 23.2569L31.1932 26.6556C31.1326 26.7161 31.0606 26.7641 30.9815 26.7968C30.9023 26.8295 30.8175 26.8462 30.7318 26.8461C30.6462 26.846 30.5614 26.8291 30.4823 26.7962C30.4032 26.7633 30.3314 26.7152 30.2709 26.6546C30.2104 26.594 30.1624 26.522 30.1297 26.4429C30.097 26.3637 30.0803 26.2789 30.0804 26.1932C30.0805 26.1076 30.0974 26.0228 30.1303 25.9437C30.1632 25.8646 30.2113 25.7928 30.2719 25.7323L30.2715 25.7322ZM21.8071 26.6555L18.4081 23.2569C18.2858 23.1344 18.2171 22.9683 18.2171 22.7952C18.2171 22.6221 18.2858 22.4561 18.4081 22.3335L21.8071 18.9349C21.9296 18.8128 22.0955 18.7442 22.2685 18.7444C22.4415 18.7446 22.6073 18.8135 22.7294 18.936C22.8516 19.0584 22.9201 19.2244 22.9199 19.3973C22.9198 19.5703 22.8509 19.7361 22.7284 19.8583L19.7901 22.7992L22.7284 25.7322C22.8509 25.8543 22.9198 26.0201 22.9199 26.1931C22.9201 26.3661 22.8516 26.5321 22.7294 26.6545C22.6073 26.7769 22.4415 26.8458 22.2685 26.846C22.0955 26.8462 21.9296 26.7777 21.8071 26.6555ZM24.1897 27.2375L27.5858 17.9107C27.6139 17.8292 27.658 17.7541 27.7155 17.6897C27.7729 17.6254 27.8426 17.5731 27.9204 17.5359C27.9982 17.4987 28.0827 17.4774 28.1688 17.4731C28.255 17.4688 28.3411 17.4817 28.4222 17.511C28.5034 17.5403 28.5779 17.5854 28.6414 17.6438C28.7049 17.7021 28.7562 17.7725 28.7924 17.8508C28.8285 17.9292 28.8486 18.0139 28.8517 18.1001C28.8548 18.1863 28.8407 18.2722 28.8103 18.353L25.4149 27.6797C25.3706 27.8068 25.2879 27.917 25.1781 27.9949C25.0683 28.0728 24.937 28.1146 24.8023 28.1145C24.7266 28.1129 24.6514 28.0999 24.5796 28.0758C24.4168 28.0161 24.2844 27.8943 24.2113 27.7371C24.1383 27.5799 24.1306 27.4001 24.19 27.2373L24.1897 27.2375ZM26.5 33.9571C23.5421 33.9526 20.7066 32.7757 18.615 30.6841C16.5234 28.5926 15.3463 25.7571 15.3417 22.7992C15.3417 16.646 20.347 11.6333 26.5 11.6333C32.653 11.6333 37.6584 16.6457 37.6584 22.7992C37.6538 25.7571 36.4767 28.5926 34.385 30.6841C32.2934 32.7756 29.4579 33.9526 26.5 33.9571ZM26.5 12.9369C28.4498 12.9362 30.356 13.5137 31.9776 14.5963C33.5991 15.6789 34.8633 17.2181 35.6101 19.0192C36.3569 20.8203 36.5529 22.8024 36.1732 24.7148C35.7936 26.6273 34.8553 28.3842 33.4772 29.7634C32.099 31.1427 30.3428 32.0822 28.4306 32.4634C26.5185 32.8445 24.5362 32.65 22.7346 31.9046C20.9329 31.1591 19.3928 29.8962 18.3089 28.2754C17.225 26.6547 16.6461 24.7489 16.6453 22.7992C16.647 20.1854 17.6856 17.679 19.5331 15.8301C21.3807 13.9811 23.8862 12.9406 26.5 12.9369Z" fill="#F4AF10"/>
</svg>
