<svg width="180" height="50" viewBox="0 0 180 50" fill="none" xmlns="http://www.w3.org/2000/svg">
<path d="M9.0459 20.5201V14.0113C13.4454 13.8908 21.1596 16.0453 20.7979 24.9497C20.4281 34.0559 12.4811 35.6169 9.0459 35.3005V28.5657C10.206 28.626 12.5715 27.9872 12.7523 24.9497C12.9331 21.9123 10.3568 20.7311 9.0459 20.5201Z" fill="#4DD0E1"/>
<path d="M16.1062 15.7218L9.0459 18.2764V20.8075C10.5646 20.9883 11.5771 21.9677 11.8935 22.4347L20.2753 28.216C21.875 21.0301 19.3796 17.6851 16.1062 15.7218Z" fill="#42C5D6"/>
<path d="M8.05123 35.2549V14.0109H0.578125V35.2549H8.05123Z" fill="#4DD0E1"/>
<path d="M0.578125 27.7066L8.04867 23.8837V29.803L0.578125 33.2561V27.7066Z" fill="#42C5D6"/>
<path d="M9.3048 27.836C9.30729 28.4145 8.84051 28.8855 8.26179 28.8882L4.07451 28.9071C1.83752 28.9172 0.00984825 27.1062 4.76247e-05 24.87C-0.0111399 22.4479 1.95014 20.4685 4.37195 20.4576L8.22602 20.4406C8.50403 20.4395 8.77131 20.5484 8.96846 20.7441C9.16632 20.9396 9.27741 21.2058 9.27848 21.4838L9.3048 27.836Z" fill="#5964EB"/>
<path d="M6.96192 27.836C6.95943 28.4145 7.42621 28.8855 8.00493 28.8882L12.1922 28.9071C14.4292 28.9172 16.2569 27.1062 16.2667 24.87C16.2779 22.4479 14.3166 20.4685 11.8948 20.4576L8.0407 20.4406C7.76269 20.4395 7.49541 20.5484 7.29826 20.7441C7.1004 20.9396 6.98931 21.2058 6.98824 21.4838L6.96192 27.836Z" fill="#FEFEFF"/>
<path d="M8.6731 20.4392H5.38379V28.8898H8.6731V20.4392Z" fill="#5964EB"/>
<path d="M23.0986 26.5681C23.0986 31.8273 26.3557 35.174 30.4196 35.174C32.8998 35.174 34.6627 34.0385 35.5891 32.5743V34.9349H40.6988V18.2611H35.5891V20.6218C34.6926 19.1576 32.9296 18.0221 30.4495 18.0221C26.3557 18.0221 23.0986 21.309 23.0986 26.5681ZM35.5891 26.598C35.5891 29.2575 33.8858 30.7217 31.9435 30.7217C30.0311 30.7217 28.298 29.2276 28.298 26.5681C28.298 23.9087 30.0311 22.4744 31.9435 22.4744C33.8858 22.4744 35.5891 23.9386 35.5891 26.598Z" fill="#5964EB"/>
<path d="M47.204 34.9348H52.8218L55.541 24.1177L58.1706 34.9348H63.8182L68.3302 18.261H63.5193L61.1886 30.1239L58.3498 18.261H52.9413L50.1324 30.1836L47.7718 18.261H42.6621L47.204 34.9348Z" fill="#5964EB"/>
<path d="M69.2637 26.5681C69.2637 31.8273 72.5211 35.174 76.5843 35.174C79.065 35.174 80.8281 34.0385 81.7541 32.5743V34.9349H86.8636V18.2611H81.7541V20.6218C80.858 19.1576 79.0949 18.0221 76.6149 18.0221C72.5211 18.0221 69.2637 21.309 69.2637 26.5681ZM81.7541 26.598C81.7541 29.2575 80.0508 30.7217 78.1084 30.7217C76.1959 30.7217 74.4627 29.2276 74.4627 26.5681C74.4627 23.9087 76.1959 22.4744 78.1084 22.4744C80.0508 22.4744 81.7541 23.9386 81.7541 26.598Z" fill="#5964EB"/>
<path d="M93.37 34.9348H98.9879L101.707 24.1177L104.337 34.9348H109.984L114.496 18.261H109.685L107.355 30.1239L104.516 18.261H99.1074L96.2988 30.1836L93.9382 18.261H88.8281L93.37 34.9348Z" fill="#5964EB"/>
<path d="M116.999 37.6132L122.109 39.4489V18.2612H116.999V37.6132ZM119.569 16.5281C121.362 16.5281 122.587 15.3029 122.587 13.779C122.587 12.2251 121.362 11 119.569 11C117.746 11 116.521 12.2251 116.521 13.779C116.521 15.3029 117.746 16.5281 119.569 16.5281Z" fill="#5964EB"/>
</svg>
