<svg width="53" height="53" viewBox="0 0 53 53" fill="none" xmlns="http://www.w3.org/2000/svg">
<g clip-path="url(#clip0_2632_528)">
<mask id="mask0_2632_528" style="mask-type:luminance" maskUnits="userSpaceOnUse" x="1" y="12" width="52" height="30">
<path d="M53.0003 12.1465H1.10449V41.959H53.0003V12.1465Z" fill="white"/>
</mask>
<g mask="url(#mask0_2632_528)">
<path d="M53.0012 40.5388V41.958C35.9754 41.958 18.9486 41.958 1.92282 41.958C1.85174 41.9172 1.78066 41.8756 1.70856 41.8359C1.25569 41.5785 1.02416 41.1045 1.12977 40.6498C1.2435 40.1594 1.65779 39.8339 2.19902 39.8156C2.38484 39.8095 2.57067 39.8146 2.75649 39.8146C4.25223 39.8146 5.74797 39.8146 7.3818 39.8146C6.80706 39.428 6.79996 38.9499 6.79996 38.4504C6.80503 30.1045 6.803 21.7578 6.80401 13.412C6.80401 12.4425 7.10256 12.1465 8.07839 12.1465C20.6221 12.1465 33.1667 12.1465 45.7104 12.1465C46.8041 12.1465 47.0538 12.3957 47.0538 13.4822C47.0538 21.6429 47.0558 29.8034 47.0507 37.9631C47.0507 38.5958 47.2153 39.2713 46.5583 39.8125C48.3099 39.8125 49.9479 39.8369 51.5837 39.8003C52.2264 39.7861 52.6885 39.9844 53.0012 40.5388ZM8.41348 38.3903H45.5784V16.0264H8.41449L8.41348 38.3903ZM27.1056 40.2195C26.5989 40.2195 26.0871 40.1747 25.5896 40.2408C25.3885 40.2673 25.1001 40.5114 25.0626 40.6996C24.9997 41.0139 25.2494 41.2266 25.5896 41.2296C26.5685 41.2377 27.5473 41.2377 28.5251 41.2296C28.8643 41.2266 29.1141 41.0119 29.0492 40.6976C29.0105 40.5093 28.7232 40.2703 28.5201 40.2408C28.0581 40.1727 27.5788 40.2195 27.1056 40.2195ZM10.3479 14.0844L10.356 14.3266C10.5672 14.4628 10.7693 14.6917 10.9917 14.7151C11.2984 14.7477 11.5288 14.5147 11.5085 14.174C11.4892 13.8494 11.2861 13.6032 10.9561 13.6724C10.7348 13.7193 10.55 13.941 10.3479 14.0844ZM12.2915 14.0264L12.2721 14.2706C12.4701 14.4232 12.6479 14.6552 12.8692 14.709C13.189 14.7863 13.4237 14.5564 13.445 14.2319C13.4653 13.9125 13.2825 13.6409 12.9463 13.6765C12.7179 13.7009 12.5088 13.9033 12.2915 14.0264ZM8.41653 14.2828C8.61758 14.4313 8.80239 14.6632 9.02478 14.709C9.34768 14.7752 9.56397 14.5249 9.57819 14.2054C9.59341 13.8809 9.40353 13.6674 9.0593 13.6561C8.71912 13.6449 8.53533 13.826 8.41653 14.2828Z" fill="#DADADA"/>
<path d="M8.51855 38.2369V15.873H45.6824V38.2369H8.51855ZM16.1657 24.5698C17.3305 24.5698 18.4942 24.5739 19.6589 24.5688C20.5048 24.5647 20.9749 24.0958 20.9779 23.2544C20.983 21.8028 20.982 20.3501 20.9779 18.8975C20.9749 18.0246 20.5109 17.5668 19.6284 17.5658C17.3001 17.5628 14.9706 17.5628 12.6422 17.5658C11.7781 17.5658 11.3394 18.0073 11.3374 18.877C11.3334 20.3288 11.3344 21.7814 11.3374 23.2341C11.3394 24.1232 11.7801 24.5657 12.6727 24.5698C13.8374 24.5749 15.0011 24.5708 16.1657 24.5698ZM37.9743 17.5658C36.7933 17.5658 35.6134 17.5618 34.4324 17.5668C33.612 17.5709 33.146 18.0358 33.1419 18.8486C33.1368 19.8954 33.1581 20.9422 33.1307 21.9869C33.1216 22.3328 33.2343 22.4925 33.548 22.6156C34.9879 23.1812 36.4166 23.7763 37.8535 24.347C38.1155 24.4508 38.3987 24.5515 38.674 24.5586C39.6345 24.584 40.5961 24.578 41.5577 24.5657C42.3153 24.5556 42.7773 24.0825 42.7804 23.3195C42.7874 21.8181 42.7864 20.3156 42.7804 18.813C42.7773 18.0307 42.3051 17.5678 41.5151 17.5647C40.3342 17.5597 39.1543 17.5637 37.9733 17.5637L37.9743 17.5658ZM26.4166 24.5657C26.4166 24.0663 26.3353 23.6136 26.4309 23.2026C26.7994 21.6136 28.2881 20.7845 29.8488 21.2636C30.5159 21.4681 31.1749 21.703 31.8848 21.9411C31.8848 20.812 31.9102 19.7499 31.8756 18.6899C31.8533 18.0012 31.3425 17.5688 30.6338 17.5678C28.2545 17.5637 25.8765 17.5637 23.4972 17.5678C22.7356 17.5688 22.2452 18.0174 22.2361 18.7753C22.2168 20.3115 22.2168 21.8476 22.2361 23.3837C22.2442 24.049 22.694 24.5393 23.3256 24.5576C24.3513 24.5891 25.3809 24.5657 26.4166 24.5657ZM35.916 28.9899C36.5364 28.6908 37.1162 28.4802 37.6139 28.1455C37.8839 27.9635 38.1448 27.58 38.1632 27.2727C38.1774 27.0418 37.8474 26.6654 37.5875 26.5616C34.8539 25.4701 32.1051 24.4141 29.3533 23.3704C29.1543 23.2951 28.8049 23.3125 28.675 23.4396C28.546 23.5658 28.5327 23.9075 28.5958 24.1171C28.9745 25.3745 29.3908 26.6217 29.7919 27.8719C30.2763 29.3795 30.7586 30.8882 31.2409 32.3958C31.3597 32.766 31.5466 33.1709 31.9538 33.1414C32.2727 33.119 32.5986 32.8597 32.8687 32.6419C33.0403 32.5036 33.1206 32.2493 33.2353 32.0438C33.4221 31.7101 33.6029 31.3723 33.7643 31.0773C34.2923 31.5758 34.8113 32.052 35.3149 32.5433C35.7769 32.9949 36.0369 33.0224 36.5283 32.5951C36.8461 32.3184 37.1539 32.0286 37.4422 31.7213C37.8189 31.3195 37.8077 31.0265 37.4341 30.6216C36.9446 30.0906 36.4512 29.5647 35.916 28.9899ZM28.6719 31.291C28.5358 30.8759 28.4038 30.5311 28.3125 30.175C28.2464 29.9176 28.1235 29.8292 27.8555 29.8302C24.2477 29.8383 20.6388 29.8342 17.031 29.8413C16.8979 29.8413 16.6583 29.9166 16.6492 29.9837C16.5984 30.3398 16.5487 30.7153 16.6218 31.058C16.6461 31.174 17.0279 31.2798 17.2473 31.2808C20.8724 31.2941 24.4975 31.29 28.1225 31.29H28.6729L28.6719 31.291ZM27.6342 28.232C27.5143 27.8536 27.3915 27.5566 27.3284 27.2463C27.2473 26.8525 27.031 26.7702 26.6511 26.7722C23.4972 26.7885 20.3433 26.7813 17.1893 26.7813C16.6024 26.7813 16.5171 26.875 16.5161 27.5016C16.5161 28.1354 16.5994 28.23 17.1812 28.231C20.4194 28.231 23.6576 28.231 26.8969 28.231C27.1142 28.231 27.3315 28.231 27.6352 28.231L27.6342 28.232ZM13.4454 26.7824C12.9062 26.7824 12.365 26.8028 11.8268 26.7774C11.2632 26.7499 11.2968 27.171 11.2998 27.4965C11.3029 27.8149 11.239 28.2442 11.8045 28.2361C12.8839 28.2208 13.9633 28.2148 15.0427 28.2392C15.6043 28.2513 15.5718 27.8465 15.5738 27.5179C15.5758 27.1679 15.6022 26.7407 15.0133 26.7753C14.4924 26.8068 13.9683 26.7824 13.4454 26.7824ZM13.5795 29.8362C13.1581 29.8362 12.7376 29.8362 12.3163 29.8362C11.4958 29.8362 11.239 30.1568 11.4755 30.9492C11.5182 31.0906 11.7375 31.2716 11.8786 31.2747C12.9895 31.3011 14.1014 31.29 15.2133 31.29C15.7698 31.29 15.6895 30.8525 15.6957 30.528C15.7008 30.2056 15.717 29.819 15.1961 29.8332C14.6579 29.8475 14.1187 29.8362 13.5795 29.8362ZM39.9178 31.291C40.6845 31.291 41.4582 31.3062 42.2299 31.2808C42.4534 31.2737 42.8382 31.1862 42.8646 31.0702C42.9418 30.7284 42.89 30.3541 42.8544 29.995C42.8484 29.9339 42.6737 29.8444 42.5762 29.8434C41.5862 29.8323 40.5961 29.8362 39.602 29.8362C39.7066 30.3184 39.8031 30.759 39.9178 31.291ZM40.2814 28.232C40.9322 28.232 41.5882 28.2503 42.2422 28.2218C42.4646 28.2127 42.8464 28.1232 42.8718 28.0093C42.9459 27.6654 42.891 27.29 42.8585 26.9288C42.8535 26.874 42.7052 26.7926 42.6219 26.7916C41.8685 26.7803 41.116 26.7854 40.3676 26.7854C40.3383 27.2818 40.3118 27.7152 40.2814 28.232Z" fill="#D33B3B"/>
<path d="M27.1065 40.2208C27.5786 40.2208 28.0579 40.1739 28.5209 40.2421C28.724 40.2717 29.0114 40.5107 29.05 40.6989C29.115 41.0122 28.8652 41.2279 28.526 41.231C27.5472 41.239 26.5683 41.239 25.5904 41.231C25.2513 41.2279 25.0004 41.0152 25.0634 40.701C25.101 40.5127 25.3894 40.2686 25.5904 40.2421C26.088 40.176 26.5998 40.2208 27.1065 40.2208Z" fill="#D33B3B"/>
<path d="M10.3477 14.0838C10.5487 13.9404 10.7335 13.7187 10.9559 13.6719C11.287 13.6027 11.489 13.8489 11.5083 14.1734C11.5286 14.5142 11.2981 14.7471 10.9915 14.7145C10.768 14.6912 10.567 14.4633 10.3558 14.326L10.3477 14.0838Z" fill="#D33B3B"/>
<path d="M12.2908 14.0261C12.5081 13.903 12.7172 13.6996 12.9457 13.6752C13.2818 13.6385 13.4656 13.9112 13.4443 14.2306C13.423 14.5561 13.1884 14.785 12.8685 14.7077C12.6471 14.6548 12.4685 14.4218 12.2715 14.2692L12.2908 14.0261Z" fill="#D33B3B"/>
<path d="M8.41504 14.2833C8.53385 13.8275 8.71765 13.6454 9.05782 13.6565C9.40204 13.6678 9.59092 13.8814 9.5767 14.2059C9.56249 14.5253 9.34619 14.7745 9.02329 14.7095C8.80091 14.6637 8.61711 14.4318 8.41504 14.2833Z" fill="#D33B3B"/>
<path d="M16.0605 24.7243C14.8958 24.7243 13.7322 24.7282 12.5675 24.7232C11.6749 24.7191 11.2342 24.2776 11.2321 23.3876C11.2291 21.9358 11.2281 20.4832 11.2321 19.0305C11.2342 18.1607 11.6729 17.7202 12.537 17.7192C14.8654 17.7161 17.1948 17.7161 19.5232 17.7192C20.4066 17.7202 20.8707 18.178 20.8727 19.0508C20.8768 20.5025 20.8778 21.9551 20.8727 23.4079C20.8696 24.2491 20.3996 24.7181 19.5537 24.7222C18.389 24.7282 17.2253 24.7232 16.0605 24.7243Z" fill="#E7ECF8"/>
<path d="M37.8695 17.7184C39.0504 17.7184 40.2304 17.7144 41.4114 17.7194C42.2014 17.7225 42.6735 18.1854 42.6766 18.9677C42.6827 20.4691 42.6827 21.9717 42.6766 23.4742C42.6735 24.2362 42.2116 24.7102 41.454 24.7204C40.4924 24.7327 39.5308 24.7397 38.5701 24.7133C38.294 24.7062 38.0107 24.6055 37.7497 24.5017C36.3119 23.93 34.8841 23.3359 33.4443 22.7703C33.1295 22.6472 33.0177 22.4874 33.0269 22.1416C33.0533 21.0959 33.033 20.049 33.038 19.0033C33.0421 18.1905 33.5082 17.7256 34.3287 17.7215C35.5096 17.7155 36.6896 17.7205 37.8705 17.7194L37.8695 17.7184Z" fill="#E7ECF8"/>
<path d="M26.3125 24.7197C25.2768 24.7197 24.2492 24.742 23.2226 24.7115C22.591 24.6922 22.1422 24.2019 22.133 23.5376C22.1137 22.0015 22.1127 20.4654 22.133 18.9292C22.1432 18.1704 22.6327 17.7228 23.3942 17.7217C25.7734 17.7178 28.1515 17.7178 30.5307 17.7217C31.2384 17.7228 31.7502 18.1551 31.7725 18.8438C31.8071 19.9039 31.7817 20.9659 31.7817 22.0951C31.0709 21.8581 30.4128 21.6221 29.7457 21.4176C28.1851 20.9384 26.6964 21.7675 26.3278 23.3565C26.2324 23.7675 26.3125 24.2202 26.3125 24.7197Z" fill="#E7ECF8"/>
<path d="M35.8119 29.1432C36.347 29.718 36.8416 30.2439 37.331 30.775C37.7047 31.1799 37.7158 31.4728 37.3391 31.8746C37.0518 32.1819 36.7431 32.4727 36.4253 32.7484C35.9338 33.1758 35.6738 33.1483 35.2118 32.6966C34.7082 32.2052 34.1892 31.7292 33.6612 31.2307C33.4998 31.5257 33.3181 31.8625 33.1322 32.1971C33.0175 32.4026 32.9372 32.6569 32.7656 32.7953C32.4945 33.013 32.1685 33.2724 31.8507 33.2948C31.4435 33.3243 31.2567 32.9194 31.1379 32.549C30.6556 31.0404 30.1732 29.5329 29.6889 28.0253C29.2868 26.774 28.8715 25.5278 28.4926 24.2704C28.4297 24.0609 28.4429 23.7201 28.5719 23.5929C28.7019 23.4657 29.0501 23.4475 29.2502 23.5238C32.003 24.5665 34.7508 25.6234 37.4843 26.7149C37.7443 26.8187 38.0744 27.1952 38.0601 27.426C38.0418 27.7332 37.7809 28.1168 37.5108 28.2989C37.0132 28.6335 36.4324 28.8451 35.8119 29.1432ZM29.304 24.3579C30.2077 27.1747 31.0668 29.8512 31.9686 32.661C32.1431 32.3792 32.2447 32.2317 32.3289 32.074C32.6174 31.5409 32.8864 30.9957 33.1901 30.4718C33.4693 29.9896 33.6663 29.9763 34.0431 30.3701C34.635 30.9886 35.225 31.6102 35.8393 32.2561C36.1765 31.9337 36.4851 31.6387 36.9228 31.2195C36.3521 30.7067 35.7957 30.2622 35.3052 29.7536C34.5467 28.9652 34.5812 28.8747 35.5571 28.4433C35.818 28.3274 36.0749 28.2002 36.3298 28.071C36.6588 27.9031 36.9838 27.7271 37.4387 27.4871C34.6676 26.421 32.0548 25.4159 29.304 24.3579Z" fill="#D33B3B"/>
<path d="M28.5661 31.4442H28.0158C24.3906 31.4442 20.7655 31.4483 17.1404 31.435C16.9212 31.435 16.5403 31.3283 16.5149 31.2122C16.4428 30.8694 16.4916 30.4941 16.5423 30.138C16.5515 30.0718 16.7912 29.9966 16.9241 29.9955C20.532 29.9875 24.1409 29.9925 27.7487 29.9844C28.0168 29.9844 28.1396 30.0718 28.2056 30.3292C28.2971 30.6843 28.429 31.0291 28.5651 31.4452L28.5661 31.4442Z" fill="#E7ECF8"/>
<path d="M27.5311 28.3846C27.2275 28.3846 27.0102 28.3846 26.7929 28.3846C23.5546 28.3846 20.3165 28.3846 17.0773 28.3846C16.4954 28.3846 16.4111 28.289 16.4121 27.6552C16.4121 27.0286 16.4985 26.935 17.0853 26.935C20.2393 26.935 23.3932 26.9411 26.5472 26.9258C26.927 26.9238 27.1432 27.0062 27.2244 27.3998C27.2884 27.7091 27.4103 28.0072 27.5301 28.3856L27.5311 28.3846Z" fill="#E7ECF8"/>
<path d="M13.5305 27.489C13.6163 27.4898 13.704 27.491 13.7932 27.4923C14.1567 27.4975 14.544 27.503 14.9178 27.4823C14.9185 27.4999 14.9188 27.5195 14.9189 27.5411C14.9191 27.5689 14.9188 27.5948 14.9186 27.6239C14.9185 27.638 14.9184 27.6528 14.9183 27.669L13.5305 27.489ZM13.5305 27.489H13.342C13.1898 27.489 13.0315 27.4908 12.8696 27.4926C12.5045 27.4968 12.121 27.5013 11.7472 27.4855C11.7471 27.4973 11.747 27.51 11.7471 27.5235C11.7472 27.548 11.7474 27.568 11.7478 27.5904C11.748 27.6066 11.7482 27.6243 11.7484 27.6459V27.6475C11.7487 27.6827 11.7482 27.7208 11.7479 27.7528C11.7478 27.7625 11.7477 27.7717 11.7476 27.7801C11.7473 27.8014 11.7472 27.8204 11.7473 27.8378C12.8 27.8242 13.8585 27.8186 14.9171 27.8409C14.9175 27.8263 14.9177 27.8104 14.918 27.793L14.9182 27.7345L14.9183 27.669L13.5305 27.489Z" fill="#D33B3B"/>
<path d="M13.5305 27.489C13.6163 27.4898 13.704 27.491 13.7932 27.4923C14.1567 27.4975 14.544 27.503 14.9178 27.4823C14.9185 27.4999 14.9188 27.5195 14.9189 27.5411C14.9191 27.5689 14.9188 27.5948 14.9186 27.6239C14.9185 27.638 14.9184 27.6528 14.9183 27.669M13.5305 27.489L14.9183 27.669M13.5305 27.489H13.342C13.1898 27.489 13.0315 27.4908 12.8696 27.4926C12.5045 27.4968 12.121 27.5013 11.7472 27.4855C11.7471 27.4973 11.747 27.51 11.7471 27.5235C11.7472 27.548 11.7474 27.568 11.7478 27.5904C11.748 27.6066 11.7482 27.6243 11.7484 27.6459V27.6475C11.7487 27.6827 11.7482 27.7208 11.7479 27.7528C11.7478 27.7625 11.7477 27.7717 11.7476 27.7801C11.7473 27.8014 11.7472 27.8204 11.7473 27.8378C12.8 27.8242 13.8585 27.8186 14.9171 27.8409C14.9175 27.8263 14.9177 27.8104 14.918 27.793L14.9182 27.7345L14.9183 27.669" stroke="#E7ECF8"/>
<path d="M13.9557 30.5427C14.3127 30.545 14.6792 30.5472 15.0411 30.5391C15.0412 30.545 15.0412 30.5512 15.0412 30.5575C15.0412 30.5883 15.0406 30.619 15.0399 30.6554C15.0397 30.6602 15.0397 30.6649 15.0396 30.6699C15.0388 30.7174 15.0393 30.7657 15.0397 30.8048L15.0399 30.8132C15.0403 30.8424 15.0405 30.8673 15.0404 30.8902C14.7987 30.8903 14.5579 30.891 14.3178 30.8915C13.5006 30.8937 12.6917 30.8957 11.8817 30.8774C11.8473 30.7472 11.8381 30.6605 11.8394 30.6072C11.8395 30.5991 11.84 30.5924 11.8405 30.5869C11.8469 30.5842 11.8552 30.5812 11.8656 30.578C11.9284 30.5584 12.0373 30.5407 12.2122 30.5407H12.2147H12.2172H12.2196H12.2221H12.2246H12.227H12.2295H12.232H12.2345H12.2369H12.2394H12.2419H12.2443H12.2468H12.2493H12.2517H12.2542H12.2567H12.2591H12.2616H12.2641H12.2665H12.2691H12.2715H12.2739H12.2765H12.2789H12.2813H12.2839H12.2863H12.2887H12.2913H12.2937H12.2961H12.2987H12.3011H12.3036H12.3061H12.3085H12.311H12.3134H12.3159H12.3184H12.3208H12.3233H12.3258H12.3282H12.3307H12.3332H12.3356H12.3382H12.3406H12.343H12.3456H12.348H12.3504H12.353H12.3554H12.3578H12.3604H12.3628H12.3652H12.3678H12.3702H12.3726H12.3752H12.3776H12.38H12.3826H12.385H12.3875H12.39H12.3924H12.3949H12.3974H12.3998H12.4023H12.4048H12.4072H12.4097H12.4122H12.4146H12.4171H12.4196H12.422H12.4245H12.427H12.4294H12.4319H12.4344H12.4368H12.4393H12.4418H12.4443H12.4467H12.4492H12.4517H12.4541H12.4566H12.4591H12.4615H12.4639H12.4665H12.4689H12.4713H12.4739H12.4763H12.4787H12.4813H12.4837H12.4861H12.4887H12.4911H12.4935H12.4961H12.4985H12.5009H12.5035H12.5059H12.5083H12.5109H12.5133H12.5158H12.5183H12.5207H12.5232H12.5257H12.5281H12.5306H12.5331H12.5355H12.538H12.5405H12.5429H12.5454H12.5479H12.5503H12.5528H12.5553H12.5577H12.5602H12.5627H12.5651H12.5676H12.5701H12.5725H12.575H12.5775H12.5799H12.5824H12.5849H12.5873H12.5898H12.5923H12.5947H12.5972H12.5997H12.6021H12.6046H12.607H12.6095H12.612H12.6144H12.6169H12.6194H12.6218H12.6244H12.6268H12.6292H12.6318H12.6342H12.6366H12.6392H12.6416H12.644H12.6466H12.649H12.6514H12.654H12.6564H12.6588H12.6614H12.6638H12.6662H12.6688H12.6712H12.6736H12.6762H12.6786H12.681H12.6836H12.686H12.6884H12.691H12.6934H12.6958H12.6984H12.7008H12.7032H12.7058H12.7082H12.7106H12.7132H12.7156H12.718H12.7206H12.723H12.7254H12.728H12.7304H12.7328H12.7354H12.7378H12.7402H12.7428H12.7452H12.7476H12.7501H12.7526H12.755H12.7575H12.76H12.7624H12.7649H12.7674H12.7698H12.7723H12.7748H12.7772H12.7797H12.7822H12.7846H12.7871H12.7896H12.792H12.7945H12.797H12.7994H12.8019H12.8044H12.8068H12.8093H12.8118H12.8142H12.8167H12.8192H12.8216H12.8241H12.8266H12.829H12.8315H12.834H12.8364H12.8389H12.8414H12.8438H12.8463H12.8488H12.8512H12.8537H12.8561H12.8586H12.8611H12.8635H12.866H12.8685H12.8709H12.8734H12.8759H12.8783H12.8808H12.8833H12.8857H12.8882H12.8907H12.8931H12.8956H12.8981H12.9005H12.903H12.9055H12.9079H12.9105H12.9129H12.9153H12.9179H12.9203H12.9227H12.9253H12.9277H12.9301H12.9327H12.9351H12.9375H12.9401H12.9425H12.9449H12.9475H12.9499H12.9523H12.9549H12.9573H12.9597H12.9623H12.9647H12.9671H12.9697H12.9721H12.9745H12.9771H12.9795H12.9819H12.9845H12.9869H12.9893H12.9919H12.9943H12.9967H12.9992H13.0017H13.0041H13.0066H13.0091H13.0115H13.014H13.0165H13.0189H13.0214H13.0239H13.0263H13.0288H13.0313H13.0337H13.0362H13.0387H13.0411H13.0436H13.0461H13.0485H13.051H13.0535H13.0559H13.0584H13.0609H13.0633H13.0658H13.0683H13.0707H13.0732H13.0757H13.0781H13.0806H13.0831H13.0855H13.088H13.0905H13.0929H13.0954H13.0979H13.1003H13.1028H13.1052H13.1078H13.1102H13.1126H13.1152H13.1176H13.12H13.1226H13.125H13.1274H13.13H13.1324H13.1348H13.1374H13.1398H13.1422H13.1448H13.1472H13.1496H13.1522H13.1546H13.157H13.1596H13.162H13.1644H13.167H13.1694H13.1718H13.1744H13.1768H13.1792H13.1818H13.1842H13.1866H13.1892H13.1916H13.194H13.1966H13.199H13.2014H13.204H13.2064H13.2089H13.2114H13.2138H13.2163H13.2188H13.2212H13.2237H13.2262H13.2286H13.2311H13.2336H13.236H13.2385H13.241H13.2434H13.2459H13.2483H13.2508H13.2533H13.2557H13.2582H13.2607H13.2631H13.2656H13.2681H13.2705H13.2731H13.2755H13.2779H13.2805H13.2829H13.2853H13.2879H13.2903H13.2927H13.2953H13.2977H13.3001H13.3027H13.3051H13.3075H13.3101H13.3125H13.3149H13.3175H13.3199H13.3224H13.3249H13.3273H13.3298H13.3323H13.3347H13.3372H13.3397H13.3421H13.3446H13.3471H13.3495H13.352H13.3545H13.3569H13.3594H13.3619H13.3644H13.3668H13.3693H13.3718H13.3742H13.3767H13.3792H13.3816H13.3841H13.3866H13.389H13.3914H13.394H13.3964H13.3988H13.4014H13.4038H13.4064H13.4088H13.4112H13.4138H13.4162H13.4186H13.4212H13.4236H13.426H13.4285H13.431H13.4334H13.4359H13.4384H13.4409H13.4433H13.4458H13.4483H13.4507H13.4532H13.4557H13.4581H13.4606H13.4631H13.4655H13.4681H13.4705H13.4729H13.4755C13.6327 30.5407 13.7933 30.5417 13.9557 30.5427Z" fill="#D33B3B"/>
<path d="M11.8203 30.5969C11.8202 30.5969 11.8207 30.5966 11.8215 30.596M13.9557 30.5427C14.3127 30.545 14.6792 30.5472 15.0411 30.5391C15.0412 30.545 15.0412 30.5512 15.0412 30.5575C15.0412 30.5883 15.0406 30.619 15.0399 30.6554C15.0397 30.6602 15.0397 30.6649 15.0396 30.6699C15.0388 30.7174 15.0393 30.7657 15.0397 30.8048L15.0399 30.8132C15.0403 30.8424 15.0405 30.8673 15.0404 30.8902C14.7987 30.8903 14.5579 30.891 14.3178 30.8915C13.5006 30.8937 12.6917 30.8957 11.8817 30.8774C11.8473 30.7472 11.8381 30.6605 11.8394 30.6072C11.8395 30.5991 11.84 30.5924 11.8405 30.5869C11.8469 30.5842 11.8552 30.5812 11.8656 30.578C11.9284 30.5584 12.0373 30.5407 12.2122 30.5407H12.2147H12.2172H12.2196H12.2221H12.2246H12.227H12.2295H12.232H12.2345H12.2369H12.2394H12.2419H12.2443H12.2468H12.2493H12.2517H12.2542H12.2567H12.2591H12.2616H12.2641H12.2665H12.2691H12.2715H12.2739H12.2765H12.2789H12.2813H12.2839H12.2863H12.2887H12.2913H12.2937H12.2961H12.2987H12.3011H12.3036H12.3061H12.3085H12.311H12.3134H12.3159H12.3184H12.3208H12.3233H12.3258H12.3282H12.3307H12.3332H12.3356H12.3382H12.3406H12.343H12.3456H12.348H12.3504H12.353H12.3554H12.3578H12.3604H12.3628H12.3652H12.3678H12.3702H12.3726H12.3752H12.3776H12.38H12.3826H12.385H12.3875H12.39H12.3924H12.3949H12.3974H12.3998H12.4023H12.4048H12.4072H12.4097H12.4122H12.4146H12.4171H12.4196H12.422H12.4245H12.427H12.4294H12.4319H12.4344H12.4368H12.4393H12.4418H12.4443H12.4467H12.4492H12.4517H12.4541H12.4566H12.4591H12.4615H12.4639H12.4665H12.4689H12.4713H12.4739H12.4763H12.4787H12.4813H12.4837H12.4861H12.4887H12.4911H12.4935H12.4961H12.4985H12.5009H12.5035H12.5059H12.5083H12.5109H12.5133H12.5158H12.5183H12.5207H12.5232H12.5257H12.5281H12.5306H12.5331H12.5355H12.538H12.5405H12.5429H12.5454H12.5479H12.5503H12.5528H12.5553H12.5577H12.5602H12.5627H12.5651H12.5676H12.5701H12.5725H12.575H12.5775H12.5799H12.5824H12.5849H12.5873H12.5898H12.5923H12.5947H12.5972H12.5997H12.6021H12.6046H12.607H12.6095H12.612H12.6144H12.6169H12.6194H12.6218H12.6244H12.6268H12.6292H12.6318H12.6342H12.6366H12.6392H12.6416H12.644H12.6466H12.649H12.6514H12.654H12.6564H12.6588H12.6614H12.6638H12.6662H12.6688H12.6712H12.6736H12.6762H12.6786H12.681H12.6836H12.686H12.6884H12.691H12.6934H12.6958H12.6984H12.7008H12.7032H12.7058H12.7082H12.7106H12.7132H12.7156H12.718H12.7206H12.723H12.7254H12.728H12.7304H12.7328H12.7354H12.7378H12.7402H12.7428H12.7452H12.7476H12.7501H12.7526H12.755H12.7575H12.76H12.7624H12.7649H12.7674H12.7698H12.7723H12.7748H12.7772H12.7797H12.7822H12.7846H12.7871H12.7896H12.792H12.7945H12.797H12.7994H12.8019H12.8044H12.8068H12.8093H12.8118H12.8142H12.8167H12.8192H12.8216H12.8241H12.8266H12.829H12.8315H12.834H12.8364H12.8389H12.8414H12.8438H12.8463H12.8488H12.8512H12.8537H12.8561H12.8586H12.8611H12.8635H12.866H12.8685H12.8709H12.8734H12.8759H12.8783H12.8808H12.8833H12.8857H12.8882H12.8907H12.8931H12.8956H12.8981H12.9005H12.903H12.9055H12.9079H12.9105H12.9129H12.9153H12.9179H12.9203H12.9227H12.9253H12.9277H12.9301H12.9327H12.9351H12.9375H12.9401H12.9425H12.9449H12.9475H12.9499H12.9523H12.9549H12.9573H12.9597H12.9623H12.9647H12.9671H12.9697H12.9721H12.9745H12.9771H12.9795H12.9819H12.9845H12.9869H12.9893H12.9919H12.9943H12.9967H12.9992H13.0017H13.0041H13.0066H13.0091H13.0115H13.014H13.0165H13.0189H13.0214H13.0239H13.0263H13.0288H13.0313H13.0337H13.0362H13.0387H13.0411H13.0436H13.0461H13.0485H13.051H13.0535H13.0559H13.0584H13.0609H13.0633H13.0658H13.0683H13.0707H13.0732H13.0757H13.0781H13.0806H13.0831H13.0855H13.088H13.0905H13.0929H13.0954H13.0979H13.1003H13.1028H13.1052H13.1078H13.1102H13.1126H13.1152H13.1176H13.12H13.1226H13.125H13.1274H13.13H13.1324H13.1348H13.1374H13.1398H13.1422H13.1448H13.1472H13.1496H13.1522H13.1546H13.157H13.1596H13.162H13.1644H13.167H13.1694H13.1718H13.1744H13.1768H13.1792H13.1818H13.1842H13.1866H13.1892H13.1916H13.194H13.1966H13.199H13.2014H13.204H13.2064H13.2089H13.2114H13.2138H13.2163H13.2188H13.2212H13.2237H13.2262H13.2286H13.2311H13.2336H13.236H13.2385H13.241H13.2434H13.2459H13.2483H13.2508H13.2533H13.2557H13.2582H13.2607H13.2631H13.2656H13.2681H13.2705H13.2731H13.2755H13.2779H13.2805H13.2829H13.2853H13.2879H13.2903H13.2927H13.2953H13.2977H13.3001H13.3027H13.3051H13.3075H13.3101H13.3125H13.3149H13.3175H13.3199H13.3224H13.3249H13.3273H13.3298H13.3323H13.3347H13.3372H13.3397H13.3421H13.3446H13.3471H13.3495H13.352H13.3545H13.3569H13.3594H13.3619H13.3644H13.3668H13.3693H13.3718H13.3742H13.3767H13.3792H13.3816H13.3841H13.3866H13.389H13.3914H13.394H13.3964H13.3988H13.4014H13.4038H13.4064H13.4088H13.4112H13.4138H13.4162H13.4186H13.4212H13.4236H13.426H13.4285H13.431H13.4334H13.4359H13.4384H13.4409H13.4433H13.4458H13.4483H13.4507H13.4532H13.4557H13.4581H13.4606H13.4631H13.4655H13.4681H13.4705H13.4729H13.4755C13.6327 30.5407 13.7933 30.5417 13.9557 30.5427Z" stroke="#E7ECF8"/>
<path d="M40.2591 30.8955C40.2331 30.7756 40.2077 30.6588 40.1826 30.5433C40.8692 30.5427 41.552 30.5423 42.2344 30.5485C42.2445 30.6669 42.2506 30.7717 42.2485 30.8679C42.2414 30.8691 42.2343 30.8704 42.227 30.8715C42.1775 30.8796 42.1358 30.8835 42.1084 30.8843C41.5583 30.9026 41.0114 30.8996 40.4549 30.8966C40.3898 30.8963 40.3245 30.8958 40.2591 30.8955Z" fill="#D33B3B" stroke="#E7ECF8"/>
<path d="M42.114 27.8238C41.6649 27.8426 41.2208 27.8397 40.7637 27.8364C40.7706 27.7203 40.7774 27.6058 40.7842 27.4906C41.2695 27.49 41.7534 27.4895 42.2378 27.494C42.2478 27.6102 42.2542 27.7123 42.253 27.8064C42.247 27.8075 42.2409 27.8086 42.2349 27.8096C42.1855 27.818 42.143 27.8225 42.114 27.8238Z" fill="#D33B3B" stroke="#E7ECF8"/>
<path d="M29.3037 24.3574C32.0545 25.4154 34.6692 26.4204 37.4393 27.4866C36.9854 27.7267 36.6594 27.9027 36.3305 28.0705C36.0756 28.2007 35.8197 28.3279 35.5577 28.4428C34.5818 28.8741 34.5474 28.9647 35.306 29.753C35.7953 30.2617 36.3528 30.7063 36.9235 31.2189C36.4859 31.6381 36.1771 31.9331 35.84 32.2556C35.2247 31.6096 34.6357 30.9881 34.0437 30.3696C33.667 29.9759 33.47 29.9901 33.1907 30.4713C32.8861 30.9952 32.6181 31.5405 32.3297 32.0736C32.2443 32.2301 32.1429 32.3786 31.9692 32.6605C31.0675 29.8508 30.2075 27.1743 29.3037 24.3574Z" fill="#E7ECF8"/>
</g>
</g>
<defs>
<clipPath id="clip0_2632_528">
<rect width="53" height="53" fill="white"/>
</clipPath>
</defs>
</svg>
