<svg width="24" height="24" viewBox="0 0 24 24" fill="none" xmlns="http://www.w3.org/2000/svg">
<path d="M12.3837 3.60513C7.99406 3.60513 4.43555 7.16365 4.43555 11.5533C4.43555 15.943 7.99406 19.5015 12.3837 19.5015C16.7734 19.5015 20.3319 15.943 20.3319 11.5533C20.3319 7.16365 16.7734 3.60513 12.3837 3.60513ZM12.3837 17.5842C9.05827 17.5842 6.35283 14.8788 6.35283 11.5534C6.35283 8.22795 9.05827 5.52251 12.3837 5.52251C15.7091 5.52251 18.4145 8.22795 18.4145 11.5534C18.4145 14.8788 15.7091 17.5842 12.3837 17.5842Z" fill="#333333"/>
<path d="M12.3834 7.13903C9.94941 7.13903 7.96917 9.11926 7.96917 11.5533C7.96917 13.9873 9.94941 15.9676 12.3834 15.9676C14.8175 15.9676 16.7977 13.9873 16.7977 11.5533C16.7977 9.11926 14.8175 7.13903 12.3834 7.13903ZM23.4991 12.2197V2.56126C23.4991 2.51581 23.4848 2.47151 23.4583 2.43461C23.4318 2.39771 23.3943 2.37006 23.3512 2.35557C23.3082 2.34108 23.2616 2.34047 23.2182 2.35384C23.1747 2.3672 23.1366 2.39386 23.1091 2.43006C21.9041 4.01925 21.2518 5.95893 21.2518 7.95334V11.4867C21.2518 11.8919 21.5803 12.2205 21.9856 12.2205H22.2915C21.99 15.335 21.7907 19.6909 21.7907 20.201C21.7907 21.0045 22.2853 21.6559 22.8953 21.6559C23.5054 21.6559 24 21.0045 24 20.201C24 19.6909 23.8007 15.3342 23.4991 12.2197ZM3.20705 10.3052C3.81839 9.93484 4.227 9.2634 4.227 8.49643L3.92419 3.54545C3.91814 3.45131 3.87515 3.36337 3.80457 3.30077C3.734 3.23817 3.64156 3.20597 3.54737 3.2112C3.45318 3.21642 3.36486 3.25863 3.30164 3.32865C3.23842 3.39867 3.20542 3.49082 3.20981 3.58506L3.40673 7.55579C3.40673 7.66297 3.36416 7.76575 3.28837 7.84154C3.21259 7.91733 3.1098 7.9599 3.00262 7.9599C2.89545 7.9599 2.79266 7.91733 2.71688 7.84154C2.64109 7.76575 2.59852 7.66297 2.59852 7.55579L2.50012 3.5867C2.49741 3.48598 2.45549 3.39029 2.38329 3.32001C2.31109 3.24973 2.21431 3.21041 2.11355 3.21041C2.01279 3.21041 1.91601 3.24973 1.84381 3.32001C1.77161 3.39029 1.72969 3.48598 1.72697 3.5867L1.62858 7.55579C1.62858 7.66297 1.586 7.76575 1.51022 7.84154C1.43443 7.91733 1.33165 7.9599 1.22447 7.9599C1.11729 7.9599 1.01451 7.91733 0.93872 7.84154C0.862935 7.76575 0.820359 7.66297 0.820359 7.55579L1.01728 3.58506C1.02741 3.38082 0.864375 3.20959 0.66 3.20959C0.568907 3.20957 0.481242 3.24432 0.414891 3.30673C0.34854 3.36915 0.308505 3.45452 0.302953 3.54545L0 8.49648C0 9.26345 0.408563 9.93484 1.01995 10.3052C1.21485 10.4233 1.3719 10.5947 1.47261 10.7992C1.57332 11.0036 1.61348 11.2326 1.58836 11.4591C1.24322 14.5697 1.00884 19.6479 1.00884 20.201C1.00884 21.0046 1.50342 21.6559 2.1135 21.6559C2.72358 21.6559 3.21816 21.0045 3.21816 20.201C3.21816 19.6479 2.98373 14.5697 2.63864 11.4591C2.61357 11.2326 2.65375 11.0036 2.75445 10.7992C2.85516 10.5947 3.01219 10.4233 3.20705 10.3052Z" fill="#333333"/>
</svg>
