<svg width="50" height="50" viewBox="0 0 50 50" fill="none" xmlns="http://www.w3.org/2000/svg">
<g clip-path="url(#clip0_2698_195)">
<mask id="mask0_2698_195" style="mask-type:alpha" maskUnits="userSpaceOnUse" x="0" y="0" width="50" height="50">
<path d="M50 0H0V50H50V0Z" fill="#C4C4C4"/>
</mask>
<g mask="url(#mask0_2698_195)">
<path d="M22.9578 4.1665H29.7459V35.4358C26.2689 36.0968 23.7092 36.3568 20.9398 36.3568C12.649 36.3481 8.33337 32.6255 8.33337 25.4759C8.33337 18.5873 12.9111 14.1167 20.005 14.1167C21.1058 14.1167 21.9444 14.2038 22.9578 14.4646V4.1665ZM23.1956 20.0997C22.4006 19.8387 21.7455 19.7518 20.9068 19.7518C17.4735 19.7518 15.4904 21.8565 15.4904 25.5453C15.4904 29.1366 17.3862 31.1196 20.8632 31.1196C21.6144 31.1196 22.226 31.0771 23.1956 30.9466V20.0997Z" fill="#83B66B"/>
<path d="M40.8462 14.9562V30.6123C40.8462 36.0039 40.4443 38.5967 39.2649 40.8321C38.1641 42.9812 36.7139 44.3363 33.7174 45.8332L27.4186 42.8499C30.4152 41.4503 31.8652 40.2136 32.7914 38.3263C33.761 36.3963 34.0667 34.1608 34.0667 28.2812V14.9563L40.8462 14.9562ZM33.3827 4.1665H40.1707V11.0986H33.3827V4.1665Z" fill="#84B46A"/>
</g>
</g>
<defs>
<clipPath id="clip0_2698_195">
<rect width="50" height="50" fill="white"/>
</clipPath>
</defs>
</svg>
