<svg width="50" height="50" viewBox="0 0 50 50" fill="none" xmlns="http://www.w3.org/2000/svg">
<g clip-path="url(#clip0_2698_136)">
<mask id="mask0_2698_136" style="mask-type:alpha" maskUnits="userSpaceOnUse" x="0" y="0" width="50" height="50">
<path d="M50 0H0V50H50V0Z" fill="#C4C4C4"/>
</mask>
<g mask="url(#mask0_2698_136)">
<path d="M30.0887 43.7747H30.5505L38.0885 40.009L38.214 39.8319V9.77408L38.0885 9.59608L30.5505 5.8335H30.083L30.0887 43.7747Z" fill="#5294CF"/>
<path d="M20.2777 43.7747H19.8095L12.2779 40.009L12.1251 39.7464L12.0475 9.92716L12.2779 9.59608L19.8095 5.8335H20.2836L20.2777 43.7747Z" fill="#1F5B98"/>
<path d="M19.8243 5.8335H30.5435V43.7747H19.8243V5.8335Z" fill="#2D72B8"/>
<path d="M42.0341 24.3558L41.7795 24.2993L38.1424 23.9605L38.0884 23.9873L30.5436 23.6859H19.8239L12.279 23.9873V18.2398L12.2711 18.244L12.279 18.2272L19.8239 16.4807H30.5436L38.0884 18.2272L40.862 19.6999V18.7531L42.0341 18.625L41.9128 18.3885L38.2015 15.7373L38.0884 15.7741L30.5436 13.4386H19.8239L12.279 15.7741V10L8.33337 14.6178V18.6508L8.36387 18.6287L9.50554 18.7531V19.7194L8.33337 20.3461V24.3589L8.36387 24.3558L9.50554 24.3726V26.0568L8.52054 26.0716L8.33337 26.0537V30.0681L9.50554 30.6978V31.6753L8.38246 31.7992L8.33337 31.7623V35.7946L12.279 40.413V34.6395L19.8239 36.9751H30.5436L38.1106 34.6327L38.2112 34.6768L41.8737 32.0647L42.0341 31.8044L40.862 31.6753V30.7173L40.7084 30.6561L38.2015 32.006L38.1106 32.1954L30.5436 33.9318V33.9338H19.8239V33.9318L12.279 32.188V26.4194L19.8239 26.7198V26.7272H30.5436L38.0884 26.4194L38.2602 26.4983L41.7855 26.195L42.0341 26.0737L40.862 26.0568V24.3726L42.0341 24.3558Z" fill="#1A476F"/>
<path d="M38.0885 34.2352V40.0087L42.0343 35.3903V31.3843L38.1112 34.2284L38.0885 34.2352ZM38.0885 31.7964L38.1112 31.7911L42.0343 29.6832V25.6525L38.0885 26.0151V31.7964ZM38.1112 17.8281L38.0885 17.8229V23.583L42.0343 23.9515V19.9227L38.1112 17.8281ZM38.1112 15.3924L42.0343 18.2207V14.2145L38.0885 9.5957V15.3698L38.1112 15.3776V15.3924Z" fill="#2D72B8"/>
</g>
</g>
<defs>
<clipPath id="clip0_2698_136">
<rect width="50" height="50" fill="white"/>
</clipPath>
</defs>
</svg>
