<svg width="24" height="24" viewBox="0 0 24 24" fill="none" xmlns="http://www.w3.org/2000/svg">
<g clip-path="url(#clip0_2538_162)">
<path d="M23.1427 17.366C23.0738 17.1817 22.9372 17.0306 22.7607 16.9437C22.5842 16.8568 22.3811 16.8406 22.1931 16.8984L13.9243 19.632C13.7091 19.6996 13.4777 19.6944 13.2659 19.6172L9.56386 18.2464C9.33321 18.161 9.14072 17.9959 9.02121 17.7809C8.9017 17.566 8.86305 17.3154 8.91226 17.0744L9.12506 15.9908C9.16345 15.7899 9.261 15.6051 9.40518 15.46C9.54937 15.315 9.73361 15.2164 9.93426 15.1768L13.0663 14.6252C13.2443 14.5769 13.3973 14.4624 13.4939 14.3052C13.5905 14.148 13.6236 13.9599 13.5863 13.7792C13.5552 13.6108 13.4642 13.4593 13.3301 13.3528C13.1959 13.2463 13.0277 13.192 12.8567 13.2L7.18946 13.56C6.75155 13.5869 6.32683 13.7203 5.95226 13.9488L3.34866 15.5396C2.80309 15.8731 2.1761 16.0497 1.53666 16.05H1.19986C1.09196 16.052 0.98926 16.0967 0.914276 16.1743C0.839292 16.2519 0.798145 16.3561 0.799858 16.464V19.8948C0.798378 19.9867 0.827873 20.0765 0.883596 20.1496C0.939319 20.2227 1.01803 20.275 1.10706 20.298L12.5499 23.12C13.1934 23.278 13.8726 23.194 14.4583 22.884L22.7731 18.3812C22.949 18.2874 23.0841 18.1318 23.1524 17.9444C23.2206 17.757 23.2171 17.551 23.1427 17.366Z" fill="#333333"/>
<path d="M19.8749 15.4504C19.9688 15.3184 20.0115 15.1568 19.9949 14.9956C19.9783 14.8345 19.9037 14.6849 19.7849 14.5748C19.6678 14.4661 19.5143 14.4052 19.3546 14.4039C19.1949 14.4027 19.0405 14.4612 18.9217 14.568L14.9197 18.4608L18.5821 17.25L19.8749 15.4504ZM23.1997 0.799988H7.19971V10.4H23.1997V0.799988ZM22.3997 7.39999C22.3994 7.55189 22.3443 7.69858 22.2446 7.81319C22.145 7.92779 22.0073 8.00263 21.8569 8.02399C21.6429 8.04881 21.4389 8.12829 21.2645 8.25479C21.1353 8.34835 21.0265 8.46739 20.945 8.60456C20.8635 8.74173 20.8109 8.89413 20.7905 9.05239C20.769 9.20436 20.6933 9.34345 20.5774 9.44407C20.4615 9.54468 20.3132 9.60006 20.1597 9.59999H10.2397C10.0881 9.60047 9.94132 9.54664 9.82597 9.44824C9.71062 9.34984 9.63433 9.21338 9.61091 9.06359C9.58537 8.85634 9.50516 8.65961 9.37851 8.49359C9.27914 8.36454 9.15492 8.25672 9.01319 8.17647C8.87146 8.09623 8.71509 8.0452 8.55331 8.02639C8.40079 8.0068 8.26057 7.93249 8.15874 7.81727C8.05691 7.70205 8.00039 7.55376 7.99971 7.39999V3.79999C8.00003 3.64809 8.05508 3.50139 8.15477 3.38679C8.25446 3.27218 8.39212 3.19734 8.54251 3.17599C8.75651 3.15117 8.96052 3.07168 9.13491 2.94519C9.26416 2.85162 9.37289 2.73259 9.45441 2.59542C9.53593 2.45825 9.58851 2.30584 9.60891 2.14759C9.63041 1.99562 9.70607 1.85652 9.82197 1.75591C9.93788 1.65529 10.0862 1.59992 10.2397 1.59999H20.1597C20.312 1.59983 20.4593 1.65439 20.5748 1.75372C20.6903 1.85305 20.7663 1.99055 20.7889 2.14119C20.809 2.30059 20.8616 2.45417 20.9435 2.5924C21.0254 2.73063 21.1348 2.85057 21.2649 2.94479C21.4369 3.06983 21.6381 3.14861 21.8493 3.17359C22.0013 3.1938 22.1408 3.2684 22.242 3.38357C22.3432 3.49874 22.3992 3.64668 22.3997 3.79999V7.39999Z" fill="#333333"/>
<path d="M20.0222 2.39999H10.3774C10.2779 2.8781 10.0038 3.30196 9.6086 3.58879C9.36801 3.76438 9.09198 3.88533 8.7998 3.94319V7.25599C9.28186 7.34928 9.71304 7.61595 10.0118 8.00559C10.1912 8.23978 10.3157 8.51125 10.3762 8.79999H20.0222C20.1217 8.32189 20.3958 7.89803 20.791 7.61119C21.0316 7.43561 21.3076 7.31466 21.5998 7.25679V3.94319C21.3079 3.88578 21.0321 3.76508 20.7918 3.58959C20.3965 3.30231 20.1222 2.87829 20.0222 2.39999ZM15.1998 7.59999C14.8042 7.59999 14.4176 7.4827 14.0887 7.26293C13.7598 7.04317 13.5034 6.73081 13.352 6.36536C13.2007 5.99991 13.1611 5.59778 13.2382 5.20981C13.3154 4.82185 13.5059 4.46549 13.7856 4.18578C14.0653 3.90608 14.4217 3.71559 14.8096 3.63842C15.1976 3.56125 15.5997 3.60086 15.9652 3.75223C16.3306 3.90361 16.643 4.15996 16.8627 4.48885C17.0825 4.81775 17.1998 5.20443 17.1998 5.59999C17.1992 6.13023 16.9883 6.63857 16.6133 7.01351C16.2384 7.38844 15.73 7.59936 15.1998 7.59999Z" fill="#333333"/>
<path d="M15.2 6.79999C15.8627 6.79999 16.4 6.26274 16.4 5.59999C16.4 4.93725 15.8627 4.39999 15.2 4.39999C14.5373 4.39999 14 4.93725 14 5.59999C14 6.26274 14.5373 6.79999 15.2 6.79999Z" fill="#333333"/>
</g>
<defs>
<clipPath id="clip0_2538_162">
<rect width="24" height="24" fill="white"/>
</clipPath>
</defs>
</svg>
