<svg width="24" height="24" viewBox="0 0 24 24" fill="none" xmlns="http://www.w3.org/2000/svg">
<g clip-path="url(#clip0_2538_179)">
<path fill-rule="evenodd" clip-rule="evenodd" d="M4.81411 0.584808C5.88825 0.584808 6.75909 1.19831 6.75909 2.61323C6.75909 4.02815 5.8883 5.17518 4.81411 5.17518C3.73992 5.17518 2.86912 4.02815 2.86912 2.61323C2.86912 1.19831 3.73992 0.584808 4.81411 0.584808ZM7.00209 23.4152C7.30955 23.4152 7.56248 23.1623 7.56248 22.8548V22.1681C7.56248 21.8606 7.30959 21.6077 7.00209 21.6077H1.12289C0.815391 21.6077 0.5625 21.8606 0.5625 22.1681V22.8548C0.5625 23.1623 0.815437 23.4152 1.12289 23.4152H7.00209ZM8.87287 23.4152H14.7521C15.0595 23.4152 15.3125 23.1623 15.3125 22.8548V22.1681C15.3125 21.8606 15.0595 21.6077 14.7521 21.6077H8.87287C8.56537 21.6077 8.31248 21.8606 8.31248 22.1681V22.8548C8.31248 23.1623 8.56542 23.4152 8.87287 23.4152ZM22.5021 23.4152C22.8096 23.4152 23.0625 23.1623 23.0625 22.8548V22.1681C23.0625 21.8606 22.8096 21.6077 22.5021 21.6077H16.6229C16.3154 21.6077 16.0625 21.8606 16.0625 22.1681V22.8548C16.0625 23.1623 16.3155 23.4152 16.6229 23.4152H22.5021ZM22.5021 18.3002C22.8096 18.3002 23.0625 18.0472 23.0625 17.7398V17.0531C23.0625 16.7456 22.8096 16.4927 22.5021 16.4927H16.6229C16.3154 16.4927 16.0625 16.7456 16.0625 17.0531V17.7398C16.0625 18.0473 16.3155 18.3002 16.6229 18.3002H22.5021ZM8.87287 19.0502C8.56542 19.0502 8.31248 19.3031 8.31248 19.6106V20.2973C8.31248 20.6048 8.56537 20.8577 8.87287 20.8577H14.7521C15.0596 20.8577 15.3125 20.6048 15.3125 20.2973V19.6106C15.3125 19.3031 15.0595 19.0502 14.7521 19.0502H8.87287ZM22.5021 19.0502H16.6229C16.3154 19.0502 16.0625 19.3031 16.0625 19.6106V20.2973C16.0625 20.6048 16.3155 20.8577 16.6229 20.8577H22.5021C22.8096 20.8577 23.0625 20.6048 23.0625 20.2973V19.6106C23.0625 19.3031 22.8096 19.0502 22.5021 19.0502ZM19.5625 8.97722C21.7026 8.97722 23.4374 10.7121 23.4374 12.8521C23.4374 14.0011 22.9372 15.0331 22.1428 15.7427H21.3162C21.5476 15.6019 21.7613 15.434 21.9528 15.2425C22.5646 14.6307 22.943 13.7856 22.943 12.8521C22.943 11.9187 22.5646 11.0735 21.9528 10.4617C21.3411 9.84998 20.496 9.47161 19.5624 9.47161C18.629 9.47161 17.7838 9.85003 17.1721 10.4618C16.5603 11.0736 16.182 11.9187 16.182 12.8521C16.182 13.7856 16.5604 14.6308 17.1721 15.2425C17.3636 15.434 17.5773 15.6019 17.8087 15.7427H16.9822C16.1878 15.0331 15.6876 14.0011 15.6876 12.8521C15.6876 10.7121 17.4224 8.97722 19.5625 8.97722ZM21.4226 10.992C20.9466 10.516 20.2889 10.2216 19.5625 10.2216C18.8361 10.2216 18.1784 10.516 17.7024 10.992C17.2264 11.468 16.932 12.1257 16.932 12.8521C16.932 13.5786 17.2264 14.2362 17.7024 14.7122C18.1784 15.1882 18.8361 15.4827 19.5625 15.4827C20.2889 15.4827 20.9466 15.1882 21.4226 14.7122C21.8986 14.2362 22.193 13.5786 22.193 12.8521C22.193 12.1257 21.8986 11.4681 21.4226 10.992ZM20.8303 11.7245C20.6503 11.2959 20.3077 11.0483 19.9311 10.9529C19.9149 10.9488 19.8986 10.945 19.8823 10.9415V10.7609C19.8823 10.676 19.8486 10.5947 19.7886 10.5347C19.7287 10.4747 19.6473 10.441 19.5625 10.441C19.4777 10.441 19.3963 10.4747 19.3363 10.5347C19.2763 10.5947 19.2427 10.676 19.2427 10.7609V10.9462C19.0385 10.9923 18.8472 11.0813 18.6915 11.2079C18.4371 11.4148 18.2758 11.7152 18.294 12.0898C18.3122 12.4672 18.5004 12.7202 18.7622 12.8912C18.987 13.0379 19.2615 13.1136 19.5143 13.1551C19.7091 13.1871 19.9166 13.2373 20.0727 13.3316C20.1915 13.4033 20.2807 13.5076 20.2995 13.6633C20.3023 13.6855 20.3037 13.7008 20.3039 13.7092C20.3067 13.8296 20.2485 13.9218 20.1612 13.9882C20.0455 14.0759 19.8813 14.1279 19.7163 14.1479C19.6701 14.1535 19.6306 14.1567 19.5982 14.1575C19.4033 14.1621 19.2115 14.1147 19.0622 14.0152C18.942 13.9353 18.8503 13.8184 18.8121 13.665C18.7916 13.5831 18.7395 13.5128 18.6672 13.4692C18.5949 13.4257 18.5083 13.4126 18.4264 13.4327C18.3444 13.4529 18.2738 13.5046 18.2299 13.5767C18.1861 13.6488 18.1726 13.7354 18.1924 13.8174C18.2726 14.1393 18.4623 14.3826 18.7098 14.5475C18.8684 14.6531 19.051 14.7249 19.2426 14.763V14.9435C19.2426 15.0283 19.2763 15.1097 19.3362 15.1697C19.3962 15.2296 19.4776 15.2633 19.5624 15.2633C19.6472 15.2633 19.7286 15.2296 19.7885 15.1697C19.8485 15.1097 19.8822 15.0283 19.8822 14.9435V14.7692C20.1182 14.7284 20.3563 14.6392 20.5459 14.4954C20.7882 14.3115 20.9494 14.0481 20.9409 13.6942C20.9403 13.6589 20.9381 13.6235 20.9341 13.5884C20.8873 13.2023 20.6788 12.9513 20.4024 12.7844C20.1633 12.64 19.878 12.5684 19.6166 12.5255C19.4362 12.4958 19.2466 12.4461 19.1094 12.3565C19.0094 12.2912 18.9376 12.1971 18.931 12.0599C18.9237 11.9091 18.9896 11.7872 19.0936 11.7027C19.1775 11.6345 19.285 11.587 19.4018 11.5635C19.5257 11.5387 19.6536 11.5418 19.7761 11.5726C19.9704 11.6219 20.1473 11.75 20.2405 11.9719C20.2733 12.0501 20.3359 12.1121 20.4144 12.1442C20.4929 12.1763 20.5809 12.1759 20.6591 12.1431C20.7373 12.1102 20.7993 12.0477 20.8314 11.9692C20.8635 11.8907 20.8631 11.8027 20.8303 11.7245ZM11.6947 9.36693C11.6947 9.46639 11.6552 9.56177 11.5849 9.6321C11.5146 9.70242 11.4192 9.74193 11.3197 9.74193C11.2203 9.74193 11.1249 9.70242 11.0546 9.6321C10.9843 9.56177 10.9447 9.46639 10.9447 9.36693C10.9447 8.90198 11.1347 8.47954 11.4407 8.17354C11.7467 7.86754 12.1691 7.67761 12.6341 7.67761H8.80898C8.36278 7.67761 7.95637 7.86145 7.6613 8.15709C7.36617 8.45301 7.18284 8.86026 7.18284 9.30745V12.5376L10.5474 14.4844C10.7409 14.5964 10.8516 14.7883 10.8516 15.0119V18.3002H8.87287C8.75348 18.3002 8.63775 18.3164 8.52764 18.3466V15.9633C8.52764 15.824 8.45766 15.7045 8.3362 15.6363L4.86802 13.6892V20.8576H2.42227L2.42231 8.77607C2.42231 8.56026 2.24737 8.38532 2.03156 8.38532C1.81575 8.38532 1.64081 8.56026 1.64081 8.77607V14.358C1.06781 14.0819 0.672234 13.5129 0.672234 12.8597V7.31643C0.672234 6.04903 2.05467 5.64056 3.09956 5.64056H12.9321C13.4932 5.64056 13.9484 6.09651 13.9484 6.65906C13.9484 7.22165 13.4932 7.67761 12.9321 7.67761H12.634C13.099 7.67761 13.5214 7.86754 13.8274 8.17354C14.1334 8.47954 14.3233 8.90198 14.3233 9.36689H14.3219V18.3001H13.5748V9.36689H13.5733C13.5733 9.10898 13.4675 8.87423 13.2971 8.70379C13.1266 8.53336 12.8919 8.42756 12.634 8.42756C12.3761 8.42756 12.1413 8.53336 11.9708 8.70379C11.8005 8.87428 11.6947 9.10903 11.6947 9.36693Z" fill="#F4AF10"/>
</g>
<defs>
<clipPath id="clip0_2538_179">
<rect width="24" height="24" fill="white"/>
</clipPath>
</defs>
</svg>
