<svg width="24" height="24" viewBox="0 0 24 24" fill="none" xmlns="http://www.w3.org/2000/svg">
<g clip-path="url(#clip0_2538_127)">
<path d="M14.7297 8.29139C14.7056 8.14684 14.6369 8.01342 14.5333 7.90978L11.2187 4.5952C10.9441 4.32061 10.499 4.32061 10.2244 4.5952L9.06427 5.75531L8.23561 4.92666C7.96102 4.65206 7.51584 4.65206 7.24125 4.92666L4.25812 7.90978C4.14724 8.02066 4.07661 8.16542 4.05745 8.32105C4.03829 8.47669 4.0717 8.63426 4.15237 8.76872L4.86431 9.95522L0.943594 13.876C0.669 14.1506 0.669 14.5958 0.943594 14.8703L1.77225 15.699L1.02975 16.4415C0.365719 17.1055 0 17.9883 0 18.9274V23.2969C0 23.6852 0.314812 24 0.703125 24C1.09144 24 1.40625 23.6852 1.40625 23.2969V18.9274C1.40625 18.364 1.62567 17.8343 2.02411 17.4359L2.76661 16.6934L4.58963 18.5164C5.96039 19.8871 8.19075 19.8871 9.56147 18.5164L15.1962 12.8816C15.2753 12.8025 15.3344 12.7056 15.3686 12.599C15.4027 12.4924 15.411 12.3792 15.3926 12.2688L14.7297 8.29139ZM8.56711 17.522C7.74469 18.3444 6.40645 18.3445 5.58398 17.522L5.08678 17.0248L7.69819 14.4134V15.3675C7.69819 15.7559 8.013 16.0707 8.40131 16.0707C8.78962 16.0707 9.10444 15.7559 9.10444 15.3675V13.8535L11.1918 14.8972L8.56711 17.522ZM22.9676 8.91511C22.4904 8.09255 22.0202 7.41028 22.0004 7.38164C21.9357 7.28801 21.8493 7.21148 21.7485 7.15861C21.6478 7.10574 21.5357 7.07812 21.4219 7.07812C21.3081 7.07812 21.196 7.10574 21.0952 7.15861C20.9944 7.21148 20.908 7.28801 20.8433 7.38164C20.8236 7.41028 20.3534 8.09255 19.8762 8.91511C18.9508 10.5104 18.8438 11.1722 18.8438 11.5312C18.8438 12.9528 20.0003 14.1094 21.4219 14.1094C22.8435 14.1094 24 12.9528 24 11.5312C24 11.1722 23.893 10.5104 22.9676 8.91511ZM21.0905 3.51539C21.2782 3.51539 21.4548 3.44222 21.5876 3.30942C21.6531 3.24429 21.705 3.16681 21.7404 3.08147C21.7757 2.99613 21.7938 2.90463 21.7935 2.81227V0.703172C21.7935 0.315516 21.4782 9.37581e-05 21.0904 4.68831e-05L19.895 8.06987e-09C17.7976 -9.37419e-05 15.8259 0.816656 14.3429 2.29969L12.6274 4.01517L15.1133 6.50109L16.8289 4.78547C17.6478 3.96656 18.7366 3.51558 19.8947 3.51553L21.0905 3.51539Z" fill="#00D4A1"/>
</g>
<defs>
<clipPath id="clip0_2538_127">
<rect width="24" height="24" fill="white"/>
</clipPath>
</defs>
</svg>
