<svg width="53" height="53" viewBox="0 0 53 53" fill="none" xmlns="http://www.w3.org/2000/svg">
<path d="M50.2399 37.8067C50.2399 39.3083 49.3345 40.6554 47.8549 41.2958L28.2891 49.8642C27.7149 50.1071 27.1187 50.2396 26.5003 50.2396C25.882 50.2396 25.2857 50.1071 24.7116 49.8642L5.14574 41.2958C3.66616 40.6554 2.76074 39.3083 2.76074 37.8067C2.76074 36.305 3.66616 34.9579 5.14574 34.3175L5.94074 33.9642L23.3866 41.605C24.3803 42.0467 25.4182 42.2454 26.5003 42.2454C27.5824 42.2454 28.6424 42.0246 29.6141 41.5829L47.0378 33.9421L47.8328 34.2954C49.3124 34.9358 50.2178 36.2829 50.2178 37.7846L50.2399 37.8067ZM47.8549 23.0108L47.0599 22.6575L29.6362 30.2983C28.6424 30.74 27.6045 30.9608 26.5224 30.9608C25.4403 30.9608 24.4024 30.74 23.4087 30.3204L5.96283 22.6796L5.16783 23.0329C3.68824 23.6733 2.78283 25.0204 2.78283 26.5221C2.78283 28.0237 3.68824 29.3708 5.16783 30.0112L24.7337 38.5796C25.3078 38.8225 25.9041 38.955 26.5224 38.955C27.1407 38.955 27.737 38.8225 28.3112 38.5796L47.877 30.0112C49.3566 29.3708 50.262 28.0237 50.262 26.5221C50.262 25.0204 49.3566 23.6733 47.877 23.0329L47.8549 23.0108ZM47.8549 11.7042L28.2891 3.13583C27.1407 2.65 25.8378 2.65 24.7116 3.13583C23.5853 3.62166 5.14574 11.7042 5.14574 11.7042C3.66616 12.3446 2.76074 13.6917 2.76074 15.1933C2.76074 16.695 3.66616 18.0421 5.14574 18.6825L24.7116 27.2508C25.2857 27.4937 25.882 27.6262 26.5003 27.6262C27.1187 27.6262 27.7149 27.4937 28.2891 27.2508L47.8549 18.6825C49.3345 18.0421 50.2399 16.695 50.2399 15.1933C50.2399 13.6917 49.3345 12.3446 47.8549 11.7042Z" fill="#FF8000"/>
</svg>
