<svg width="24" height="24" viewBox="0 0 24 24" fill="none" xmlns="http://www.w3.org/2000/svg">
<g clip-path="url(#clip0_2538_144)">
<path fill-rule="evenodd" clip-rule="evenodd" d="M2.42213 16.7934C2.45963 17.0475 2.28399 17.2833 2.0311 17.3205C1.77587 17.3578 1.54168 17.1819 1.50423 16.9278C1.46677 16.6742 1.64237 16.4379 1.89526 16.4007C2.15049 16.3639 2.38702 16.5395 2.42213 16.7934ZM15.0747 6.8775C16.3681 8.31272 17.3333 9.55903 17.9701 10.6772C19.1777 12.7976 18.8789 14.935 17.6949 16.4996L16.6391 17.1145C16.3551 17.28 16.0657 17.3848 15.7666 17.4361C15.8913 17.2702 15.9879 17.0718 16.05 16.8417C16.2849 15.9712 15.7639 15.1105 14.9275 14.8207L14.8734 14.8019L14.8171 14.7916C14.624 14.7561 14.4318 14.7164 14.2405 14.6723C14.4113 14.444 14.5114 14.1628 14.5033 13.8241C14.5024 13.7729 14.4991 13.7217 14.4933 13.6708C14.4256 13.1131 14.1239 12.75 13.7238 12.5085C13.3724 12.2963 12.9509 12.1906 12.5645 12.1272C12.2859 12.0815 11.9923 12.004 11.7774 11.8637C11.6108 11.7549 11.4913 11.5975 11.4802 11.3673C11.4681 11.1182 11.5768 10.9173 11.7481 10.778C11.8824 10.6689 12.0536 10.5931 12.2392 10.5557C12.3147 10.5406 12.3914 10.532 12.4683 10.53C12.4866 10.531 12.5048 10.5309 12.523 10.5297C12.6266 10.5311 12.7296 10.5446 12.83 10.5699C13.1403 10.6486 13.4229 10.8532 13.5717 11.2076C13.6146 11.3096 13.6962 11.3905 13.7986 11.4324C13.9011 11.4743 14.016 11.4738 14.1181 11.431C14.2201 11.3881 14.301 11.3065 14.3429 11.2041C14.3848 11.1016 14.3843 10.9867 14.3415 10.8846C14.0795 10.2606 13.5806 9.9 13.0322 9.76097C12.992 9.7508 12.9515 9.74184 12.9107 9.73411V9.41058C12.9107 9.29984 12.8667 9.19365 12.7884 9.11535C12.7101 9.03705 12.6039 8.99306 12.4932 8.99306C12.3824 8.99306 12.2763 9.03705 12.198 9.11535C12.1197 9.19365 12.0757 9.29984 12.0757 9.41058V9.74034C11.7594 9.80414 11.4623 9.93764 11.223 10.1322C10.8553 10.4311 10.6221 10.8652 10.6484 11.4065C10.6748 11.9503 10.9462 12.315 11.324 12.5617C11.6533 12.7767 12.0578 12.888 12.4308 12.9492C12.7304 12.9983 13.0502 13.0761 13.2932 13.2228C13.4876 13.3402 13.6336 13.5117 13.6648 13.7686C13.6689 13.8029 13.6712 13.8278 13.6716 13.8437C13.6764 14.048 13.5787 14.2037 13.4319 14.3151C13.3804 14.3538 13.3254 14.3875 13.2676 14.416C12.1891 14.0988 11.1872 13.6876 10.1223 13.3421C9.01051 12.9814 7.97443 13.3896 7.01392 13.9461L6.35973 14.3251C6.15156 13.1838 6.3391 11.9276 7.05123 10.6772C7.68807 9.55912 8.65327 8.31276 9.9466 6.87759C10.1129 6.93174 10.2866 6.95926 10.4615 6.95915H14.5599C14.7347 6.9592 14.9085 6.93165 15.0747 6.8775ZM10.4614 6.20911H14.5599C15.0652 6.20911 15.4786 5.79567 15.4786 5.2905C15.4786 4.78519 15.0652 4.37184 14.5599 4.37184H10.4614C9.95612 4.37184 9.54277 4.78519 9.54277 5.29045C9.54273 5.79572 9.95612 6.20911 10.4614 6.20911ZM10.428 3.62222L9.67346 2.86767C9.30634 2.50055 9.30634 1.89975 9.67346 1.53262C9.98574 1.22034 10.48 1.16756 10.8517 1.40606C10.9897 1.49465 11.1482 1.50876 11.2997 1.44609C11.4511 1.38333 11.5532 1.26131 11.5882 1.10105C11.6807 0.677248 12.0601 0.35742 12.5107 0.357327C12.9531 0.357327 13.3389 0.669186 13.4333 1.10105C13.4682 1.26131 13.5703 1.38333 13.7218 1.44609C13.8733 1.50886 14.0318 1.49465 14.1697 1.40606C14.5347 1.17178 15.0293 1.21401 15.3479 1.53253V1.53262C15.715 1.89975 15.715 2.50055 15.3479 2.86767L14.5934 3.62222C14.5822 3.62196 14.5711 3.62182 14.5599 3.6218H10.4615C10.4503 3.6218 10.4391 3.62203 10.428 3.62222ZM3.91937 16.6056L6.42118 21.0203L7.36252 20.4771C7.40778 20.4509 7.45778 20.4339 7.50963 20.4271C7.56148 20.4203 7.61416 20.4238 7.66463 20.4375L13.5766 21.7395C14.3587 21.9487 15.094 21.8454 15.7661 21.4323L22.9452 16.9705C23.3363 16.7308 23.4557 16.0268 23.1864 15.576C22.7954 14.9232 21.7604 15.0002 20.4162 15.7826L17.0166 17.7626C16.3094 18.1757 15.546 18.3094 14.6866 18.1717C14.5317 18.1468 14.3771 18.1197 14.223 18.0902C14.1901 18.0878 11.3309 17.3446 11.0031 17.2563C10.79 17.1996 10.6636 16.9818 10.7221 16.7704C10.7783 16.5583 10.9961 16.4327 11.2068 16.4894C11.5417 16.5791 13.5696 17.154 14.3307 17.302C14.7194 17.3268 15.1713 17.2186 15.3259 16.6463C15.4524 16.177 15.176 15.7005 14.682 15.5293C13.2933 15.275 11.9515 14.7905 10.8743 14.4004C10.4973 14.2643 10.1718 14.1468 9.89077 14.0555C9.00559 13.7684 8.16493 14.1452 7.38981 14.595L3.91937 16.6056ZM6.33048 22.4793L2.50407 15.718C2.46662 15.652 2.40573 15.6046 2.33077 15.5838C2.30556 15.5771 2.27958 15.5736 2.25348 15.5735C2.20505 15.5734 2.15743 15.5859 2.11534 15.6098L0.813337 16.3463C0.675197 16.4243 0.628322 16.5992 0.705572 16.7362L4.53198 23.4974C4.60927 23.6349 4.78491 23.6831 4.92071 23.6056L6.22271 22.869C6.28829 22.8317 6.33512 22.7701 6.35616 22.6964C6.36663 22.6603 6.36975 22.6225 6.36534 22.5852C6.36093 22.5479 6.34907 22.5119 6.33048 22.4793Z" fill="#D33B3B"/>
</g>
<defs>
<clipPath id="clip0_2538_144">
<rect width="24" height="24" fill="white"/>
</clipPath>
</defs>
</svg>
