<svg width="24" height="24" viewBox="0 0 24 24" fill="none" xmlns="http://www.w3.org/2000/svg">
<path d="M10.8399 6.11462H13.1602V22.2667H10.8399V6.11462ZM9.16948 3.33733C8.29503 2.64222 7.08795 1.88926 5.95704 1.7537C5.54979 1.70491 5.10415 1.73491 4.74847 1.95817C4.23997 2.27739 4.11495 2.89811 4.14303 3.46098C4.17889 4.17948 4.43956 4.90426 4.73346 5.55236H5.35615L5.35597 5.45842C5.35273 3.68087 6.58315 3.02378 8.15145 3.75381C9.01568 4.15609 9.79226 4.85776 10.4314 5.55236H11.4083C10.6964 4.72192 10.0323 4.0232 9.16948 3.33733ZM1.86279 6.35819V10.8554C1.86279 10.9882 1.97332 11.0987 2.10612 11.0987H10.2774V6.11462H2.10617C1.97323 6.11462 1.86279 6.2253 1.86279 6.35819ZM2.38742 21.4713C2.38742 21.9098 2.74432 22.2667 3.18279 22.2667H10.2774V11.6612H2.38742V21.4713ZM21.8936 6.11462H13.7227V11.0987H21.8936C22.0265 11.0987 22.1374 10.9885 22.1374 10.8554V6.35819C22.1374 6.22506 22.0267 6.11462 21.8936 6.11462ZM15.8487 3.75376C17.4175 3.02345 18.6482 3.68214 18.6437 5.45837L18.6435 5.55236H19.2662C19.5603 4.90422 19.8211 4.17944 19.8571 3.4608C19.9186 2.23009 19.2422 1.61003 18.0431 1.75375C17.4956 1.81937 16.9415 2.03097 16.4518 2.27837C15.8772 2.56876 15.3337 2.9372 14.8304 3.33728C13.9675 4.02316 13.3033 4.72187 12.5914 5.55236H13.5685C14.208 4.85758 14.9839 4.15628 15.8487 3.75376ZM13.7227 22.2667H20.8169C21.2556 22.2667 21.6124 21.91 21.6124 21.4713V11.6612H13.7227V22.2667Z" fill="#D33B3B"/>
</svg>
