<svg width="24" height="24" viewBox="0 0 24 24" fill="none" xmlns="http://www.w3.org/2000/svg">
<path d="M7.11538 16.75H8.61533V10.25H7.11538V16.75ZM11 16.75H12.5V7.25003H11V16.75ZM14.8846 16.75H16.3846V13.25H14.8846V16.75ZM5.05768 20.5C4.55254 20.5 4.12498 20.325 3.775 19.975C3.425 19.625 3.25 19.1974 3.25 18.6923V5.30773C3.25 4.8026 3.425 4.37503 3.775 4.02503C4.12498 3.67503 4.55254 3.50003 5.05768 3.50003H14.2115V7.73076C14.2115 8.22787 14.3885 8.65343 14.7425 9.00743C15.0965 9.36143 15.5221 9.53843 16.0192 9.53843H20.2499V18.6923C20.2499 19.1974 20.0749 19.625 19.7249 19.975C19.3749 20.325 18.9474 20.5 18.4423 20.5H5.05768Z" fill="#00D4A1"/>
<path d="M23.2771 7.00332V3.87519L19.1999 6.13334L14.3999 3.46668L19.1999 0.800018L23.9999 3.46668V7.00332H23.2771ZM19.1999 8.80002L16.0679 7.06384V4.83216L19.1999 6.56834L22.332 4.83216V7.06384L19.1999 8.80002Z" fill="#00D4A1"/>
</svg>
