<svg width="24" height="24" viewBox="0 0 24 24" fill="none" xmlns="http://www.w3.org/2000/svg">
<path d="M20.2248 9.15963L14.7999 3.73468L15.2249 3.30968C15.5185 3.01609 15.8797 2.87187 16.3085 2.877C16.7373 2.88212 17.0985 3.03147 17.3921 3.32505L20.6652 6.60775C20.9588 6.90133 21.1056 7.25838 21.1056 7.67888C21.1056 8.09938 20.9588 8.45642 20.6652 8.75L20.2248 9.15963ZM8.73642 20.6884C8.44924 20.9756 8.09539 21.1224 7.67489 21.1288C7.25439 21.1352 6.90056 20.9948 6.61339 20.7077L3.31147 17.4153C3.01789 17.1217 2.87109 16.7631 2.87109 16.3394C2.87109 15.9157 3.01789 15.557 3.31147 15.2635L3.75954 14.8154L9.18449 20.2403L8.73642 20.6884ZM12.2075 20.3058C12.0268 20.4865 11.8159 20.5769 11.5749 20.5769C11.3339 20.5769 11.123 20.4865 10.9422 20.3058L3.69412 13.0577C3.51335 12.8769 3.42297 12.666 3.42297 12.425C3.42297 12.184 3.51335 11.9731 3.69412 11.7923L5.14797 10.3231C5.32874 10.1423 5.54219 10.0519 5.78834 10.0519C6.03451 10.0519 6.24798 10.1423 6.42874 10.3231L8.14797 12.052L12.0672 8.13273L10.3383 6.41348C10.1576 6.23271 10.0672 6.02182 10.0672 5.7808C10.0672 5.53977 10.1576 5.32887 10.3383 5.1481L11.7922 3.66925C11.973 3.48848 12.188 3.3981 12.4374 3.3981C12.6867 3.3981 12.9018 3.48848 13.0825 3.66925L20.3306 10.9173C20.5114 11.0981 20.6018 11.3132 20.6018 11.5625C20.6018 11.8119 20.5114 12.0269 20.3306 12.2077L18.8518 13.6615C18.671 13.8423 18.4601 13.9327 18.2191 13.9327C17.9781 13.9327 17.7672 13.8423 17.5864 13.6615L15.8671 11.9327L11.9479 15.8519L13.6768 17.5711C13.8576 17.7519 13.9479 17.9654 13.9479 18.2115C13.9479 18.4577 13.8576 18.6711 13.6768 18.8519L12.2075 20.3058Z" fill="#FF8000"/>
</svg>
