<svg width="53" height="53" viewBox="0 0 53 53" fill="none" xmlns="http://www.w3.org/2000/svg">
<path d="M2.20898 26.5V22.0833H6.62565V26.5H2.20898ZM26.1142 50.7917C25.2309 50.7917 24.3843 50.626 23.5746 50.2948C22.7649 49.9635 22.0472 49.4851 21.4215 48.8594L10.159 37.5417L11.9809 35.6646C12.4961 35.1493 13.1218 34.7997 13.8579 34.6156C14.5941 34.4316 15.3302 34.4316 16.0663 34.6156L19.8757 35.7198V17.6667C19.8757 17.041 20.0873 16.5165 20.5105 16.0932C20.9338 15.67 21.4583 15.4583 22.084 15.4583C22.7097 15.4583 23.2342 15.67 23.6574 16.0932C24.0807 16.5165 24.2923 17.041 24.2923 17.6667V33.125H26.5007V26.5C26.5007 25.8743 26.7123 25.3498 27.1355 24.9266C27.5588 24.5033 28.0833 24.2917 28.709 24.2917C29.3347 24.2917 29.8592 24.5033 30.2824 24.9266C30.7057 25.3498 30.9173 25.8743 30.9173 26.5V33.125H33.1257V28.7083C33.1257 28.0826 33.3373 27.5582 33.7605 27.1349C34.1838 26.7116 34.7083 26.5 35.334 26.5C35.9597 26.5 36.4842 26.7116 36.9074 27.1349C37.3307 27.5582 37.5423 28.0826 37.5423 28.7083V33.125H39.7507C39.7507 32.4993 39.9623 31.9748 40.3855 31.5516C40.8088 31.1283 41.3333 30.9167 41.959 30.9167C42.5847 30.9167 43.1092 31.1283 43.5324 31.5516C43.9557 31.9748 44.1673 32.4993 44.1673 33.125V41.9583C44.1673 44.3875 43.3024 46.467 41.5725 48.1969C39.8427 49.9267 37.7632 50.7917 35.334 50.7917H26.1142ZM2.20898 17.6667V13.25H6.62565V17.6667H2.20898ZM11.0423 26.5V22.0833H15.459V26.5H11.0423ZM37.5423 26.5V22.0833H41.959V26.5H37.5423ZM46.3757 26.5V22.0833H50.7923V26.5H46.3757ZM2.20898 8.83334V4.41667H6.62565V8.83334H2.20898ZM11.0423 8.83334V4.41667H15.459V8.83334H11.0423ZM19.8757 8.83334V4.41667H24.2923V8.83334H19.8757ZM28.709 8.83334V4.41667H33.1257V8.83334H28.709ZM37.5423 8.83334V4.41667H41.959V8.83334H37.5423ZM46.3757 17.6667V13.25H50.7923V17.6667H46.3757ZM46.3757 8.83334V4.41667H50.7923V8.83334H46.3757Z" fill="#00D4A1"/>
</svg>
