<svg width="46" height="50" viewBox="0 0 46 50" fill="none" xmlns="http://www.w3.org/2000/svg">
<g clip-path="url(#clip0_2228_218)">
<path d="M42.3378 17.8848H41.1372V12.0918C41.1372 12.0554 41.1315 12.0192 41.1266 11.9824C41.1247 11.7523 41.0516 11.5264 40.8941 11.3477L31.2538 0.335057C31.2509 0.332243 31.2481 0.331245 31.2461 0.328431C31.1887 0.264252 31.1217 0.210602 31.0509 0.164669C31.0299 0.150327 31.0087 0.138616 30.9868 0.126361C30.9254 0.0931371 30.8603 0.065087 30.7933 0.0450253C30.7752 0.0402142 30.7588 0.0327705 30.7407 0.0277777C30.6679 0.0108024 30.5923 0 30.5157 0H6.82354C5.74166 0 4.86276 0.8799 4.86276 1.96087V17.8843H3.66242C2.11476 17.8843 0.859863 19.1387 0.859863 20.6866V35.2601C0.859863 36.8073 2.11476 38.0629 3.66242 38.0629H4.86285V48.0391C4.86285 49.12 5.74175 50 6.82363 50H39.1765C40.2574 50 41.1373 49.1201 41.1373 48.0391V38.0629H42.3379C43.8851 38.0629 45.1402 36.8078 45.1402 35.2606V20.6871C45.1402 19.1392 43.885 17.8848 42.3378 17.8848ZM6.82354 1.96123H29.5353V11.993C29.5353 12.5347 29.9747 12.9734 30.5157 12.9734H39.1764V17.8851H6.82354V1.96123ZM34.8978 33.0412H32.5282L32.3692 28.8234C32.3214 27.4982 32.2735 25.8971 32.2735 24.2941H32.2265C31.8915 25.6998 31.4462 27.2699 31.0316 28.5619L29.7286 32.8617H27.8358L26.6898 28.595C26.3403 27.3034 25.9736 25.7333 25.719 24.2945H25.6874C25.6232 25.783 25.5754 27.4834 25.4968 28.8563L25.3049 33.0422H23.0617L23.7457 22.0223H26.9751L28.0253 25.7007C28.3603 26.9759 28.6936 28.3498 28.933 29.6418H28.9803C29.2838 28.3661 29.648 26.9118 29.9989 25.6853L31.144 22.0222H34.3102L34.8978 33.0412ZM13.835 24.1142V22.021H22.0748V24.1142H19.1482V33.0413H16.7135V24.1142H13.835ZM6.11575 28.4309V33.0412H3.68302V22.021H6.11575V26.2561H10.1098V22.021H12.5286V33.0412H10.1098V28.4303L6.11575 28.4309ZM39.1765 47.5084H6.82354V38.0629H39.1764L39.1765 47.5084ZM43.4599 33.0412H36.7618V22.021H39.1956V30.9479H43.46L43.4599 33.0412Z" fill="#FF6600"/>
</g>
<defs>
<clipPath id="clip0_2228_218">
<rect width="46" height="50" fill="white"/>
</clipPath>
</defs>
</svg>
