<svg width="24" height="24" viewBox="0 0 24 24" fill="none" xmlns="http://www.w3.org/2000/svg">
<path fill-rule="evenodd" clip-rule="evenodd" d="M15.4358 12.0758H13.6608C13.4026 12.0758 13.1921 12.2864 13.1921 12.5446V22.3844C13.1921 22.6425 13.4026 22.8531 13.6608 22.8531H15.4358C15.694 22.8531 15.9046 22.6425 15.9046 22.3844V12.5446C15.9045 12.2864 15.694 12.0758 15.4358 12.0758ZM2.31534 12.5711H0.75V6.56358H2.31534V12.5711ZM7.81364 13.215C5.63405 13.593 4.37156 13.8222 3.06534 12.5711L3.0653 6.56358C4.13213 5.76225 5.4937 5.07567 5.4937 3.55997V1.73621C6.69675 1.73621 7.68117 2.72021 7.68117 3.92335V5.33803C7.64653 5.58933 7.50656 5.93719 7.24463 6.26213H10.4835C10.9614 6.26213 11.3526 6.65335 11.3526 7.13124C11.3526 7.60931 10.9615 8.00035 10.4835 8.00035H10.8496C11.3277 8.00035 11.7188 8.39147 11.7188 8.8695C11.7188 9.34753 11.3277 9.73856 10.8496 9.73856H10.2398C10.7177 9.73856 11.1089 10.1296 11.1089 10.6077C11.1089 11.0858 10.7178 11.4768 10.2398 11.4768H9.72136C10.1994 11.4768 10.5904 11.868 10.5904 12.346C10.5904 12.824 10.1993 13.215 9.72131 13.215H7.81364ZM19.7475 1.25836L20.582 3.45638C20.607 3.52247 20.6655 3.56489 20.736 3.56831L23.0844 3.68278C23.2441 3.69056 23.3095 3.89175 23.1848 3.99192L21.3523 5.46488C21.2972 5.50913 21.2749 5.5778 21.2934 5.646L21.9102 7.91475C21.9522 8.06906 21.781 8.19342 21.6473 8.10581L19.6801 6.81811C19.6209 6.77939 19.5488 6.77939 19.4897 6.81811L17.5226 8.10581C17.3888 8.19338 17.2177 8.06906 17.2596 7.91475L17.8764 5.64596C17.8949 5.57775 17.8726 5.50913 17.8176 5.46483L15.985 3.99192C15.8603 3.89175 15.9257 3.69056 16.0854 3.68278L18.4338 3.56831C18.5044 3.56489 18.5628 3.52247 18.5879 3.45638L19.4224 1.25836C19.4788 1.10972 19.691 1.10972 19.7475 1.25836ZM3.58744 17.6493H5.36241C5.62059 17.6493 5.83116 17.8598 5.83116 18.118V22.3843C5.83116 22.6425 5.62059 22.8531 5.36241 22.8531H3.58744C3.32925 22.8531 3.11869 22.6425 3.11869 22.3843V18.118C3.11869 17.8598 3.32925 17.6493 3.58744 17.6493ZM18.6974 9.51478H20.4724C20.7306 9.51478 20.9412 9.72535 20.9412 9.98353V22.3843C20.9412 22.6425 20.7306 22.8531 20.4724 22.8531H18.6974C18.4392 22.8531 18.2287 22.6425 18.2287 22.3843V9.98353C18.2287 9.72535 18.4392 9.51478 18.6974 9.51478ZM10.3992 14.9228H8.62416C8.36597 14.9228 8.15541 15.1334 8.15541 15.3915V22.3844C8.15541 22.6425 8.36597 22.8531 8.62416 22.8531H10.3992C10.6574 22.8531 10.8679 22.6425 10.8679 22.3844V15.3915C10.8679 15.1334 10.6573 14.9228 10.3992 14.9228Z" fill="#333333"/>
</svg>
