<svg width="53" height="53" viewBox="0 0 53 53" fill="none" xmlns="http://www.w3.org/2000/svg">
<path fill-rule="evenodd" clip-rule="evenodd" d="M3.97646 35.2469C4.05368 35.4519 4.04628 35.6792 3.95589 35.8788C3.8655 36.0784 3.69954 36.2339 3.49449 36.3111C3.28945 36.3883 3.06214 36.3809 2.86255 36.2905C2.66297 36.2001 2.50747 36.0342 2.43025 35.8291C0.564485 30.894 0.345963 25.5326 1.6927 20.544C3.96187 12.1382 10.5065 5.52565 18.8277 3.1449L17.5932 2.70682C17.3885 2.63238 17.2214 2.48012 17.1283 2.28315C17.0352 2.08617 17.0236 1.8604 17.096 1.65494C17.1685 1.44947 17.3192 1.28092 17.5152 1.18592C17.7113 1.09093 17.9369 1.07718 18.1431 1.14767L22.078 2.54399C22.6007 2.72835 22.7977 3.37408 22.4662 3.81847L19.9271 7.21979C19.8621 7.30688 19.7806 7.38031 19.6872 7.4359C19.5938 7.49148 19.4904 7.52813 19.3829 7.54375C19.2753 7.55937 19.1657 7.55366 19.0604 7.52693C18.9551 7.50021 18.856 7.453 18.769 7.388C18.6819 7.323 18.6084 7.24149 18.5528 7.14811C18.4973 7.05473 18.4606 6.95132 18.445 6.84377C18.4294 6.73623 18.4351 6.62667 18.4618 6.52133C18.4885 6.416 18.5357 6.31696 18.6007 6.22987L19.8312 4.58159C11.8174 6.66764 5.46305 12.9237 3.29067 20.971C2.03213 25.6333 2.23502 30.6407 3.97646 35.2469ZM29.2743 30.5107C29.1067 30.6487 28.8914 30.715 28.6752 30.6952C28.459 30.6754 28.2593 30.5711 28.1195 30.4049C27.9798 30.2387 27.9113 30.0241 27.9288 29.8077C27.9464 29.5913 28.0486 29.3905 28.2133 29.2491L30.8332 27.0413L28.2133 24.8335C28.0486 24.692 27.9464 24.4913 27.9288 24.2748C27.9113 24.0584 27.9798 23.8438 28.1195 23.6777C28.2593 23.5115 28.459 23.4072 28.6752 23.3873C28.8914 23.3675 29.1067 23.4338 29.2743 23.5718L32.6341 26.4031C33.0306 26.7283 33.039 27.3388 32.6427 27.672L29.2743 30.5107ZM23.16 29.2491L20.5401 27.0413L23.16 24.8335C23.3247 24.692 23.4269 24.4913 23.4445 24.2748C23.462 24.0584 23.3935 23.8438 23.2537 23.6777C23.114 23.5115 22.9143 23.4072 22.6981 23.3873C22.4819 23.3675 22.2666 23.4338 22.0989 23.5718L18.7391 26.4031C18.3427 26.7283 18.3343 27.3388 18.7305 27.672L22.099 30.5105C22.4474 30.8034 22.9673 30.7586 23.2604 30.4102C23.5534 30.0618 23.5083 29.5421 23.16 29.2491ZM25.452 31.1124C25.4251 31.2186 25.3774 31.3184 25.3117 31.406C25.2459 31.4936 25.1634 31.5672 25.069 31.6227C24.9745 31.6781 24.87 31.7143 24.7614 31.729C24.6529 31.7437 24.5425 31.7367 24.4367 31.7085C24.3309 31.6802 24.2318 31.6312 24.145 31.5643C24.0583 31.4974 23.9858 31.4139 23.9315 31.3187C23.8773 31.2236 23.8426 31.1186 23.8293 31.0099C23.816 30.9011 23.8244 30.7909 23.8541 30.6854L25.9214 22.9702C25.9482 22.864 25.996 22.7643 26.0617 22.6767C26.1275 22.5891 26.21 22.5154 26.3044 22.46C26.3989 22.4045 26.5034 22.3684 26.6119 22.3537C26.7205 22.3389 26.8308 22.3459 26.9367 22.3742C27.0425 22.4025 27.1416 22.4515 27.2283 22.5184C27.3151 22.5853 27.3876 22.6687 27.4418 22.7639C27.496 22.8591 27.5308 22.9641 27.5441 23.0728C27.5574 23.1815 27.549 23.2918 27.5193 23.3972L25.452 31.1124ZM11.4923 30.429C11.8501 31.931 12.4451 33.3663 13.255 34.6808L12.0279 37.4437L15.2841 40.7L18.0461 39.4733C19.361 40.2833 20.7967 40.8784 22.299 41.2363L23.384 44.055H27.989L29.0742 41.2355C30.5762 40.8778 32.0114 40.2828 33.3259 39.4729L36.0888 40.7L39.3451 37.4438L38.1184 34.6818C38.9285 33.3669 39.5236 31.9313 39.8814 30.4289L42.7001 29.344V24.739L39.8808 23.6537C39.5229 22.1518 38.9279 20.7165 38.118 19.402L39.3451 16.6392L36.0889 13.3829L33.3269 14.6096C32.012 13.7995 30.5763 13.2044 29.0739 12.8466L27.989 10.0278H23.3839L22.2988 12.847C20.7967 13.2047 19.3613 13.7997 18.0467 14.6098L15.2842 13.3829L12.0279 16.6391L13.255 19.4019C12.4451 20.7165 11.8501 22.1518 11.4923 23.6537L8.67297 24.739V29.344L11.4923 30.429ZM15.669 27.0414C15.669 32.5744 20.1536 37.059 25.6866 37.059C31.2197 37.059 35.7042 32.5745 35.7042 27.0414C35.7042 21.5083 31.2197 17.0237 25.6866 17.0237C20.1536 17.0237 15.669 21.5083 15.669 27.0414ZM11.3468 42.2072C11.4534 42.2268 11.5551 42.2671 11.6462 42.326C11.7372 42.3848 11.8157 42.4611 11.8773 42.5503C11.9389 42.6395 11.9823 42.7399 12.005 42.8459C12.0278 42.9519 12.0294 43.0613 12.0099 43.168C11.9904 43.2746 11.95 43.3763 11.8911 43.4674C11.8323 43.5584 11.7561 43.6369 11.6669 43.6985C11.5777 43.7601 11.4772 43.8035 11.3712 43.8262C11.2652 43.849 11.1558 43.8506 11.0492 43.8311L9.3452 43.5164C13.2959 47.4438 18.3934 49.6903 23.6537 50.1534C31.3259 50.8289 38.7831 47.6722 43.6488 41.7396C43.7878 41.5705 43.9883 41.4637 44.206 41.4424C44.4238 41.4212 44.6411 41.4873 44.8102 41.6263C44.9792 41.7653 45.0861 41.9657 45.1073 42.1835C45.1286 42.4013 45.0624 42.6186 44.9234 42.7877C39.7262 49.1244 31.7461 52.5283 23.5115 51.8032C17.8925 51.3085 12.4456 48.9118 8.21636 44.7225L8.41221 46.3792C8.46583 46.833 8.14141 47.2443 7.6876 47.2979C7.23379 47.3516 6.82252 47.0271 6.7689 46.5733L6.27058 42.3581C6.20629 41.8113 6.69085 41.3483 7.24104 41.4491L11.3468 42.2072ZM50.8074 32.1995L49.8037 33.0556C50.6414 29.6878 50.7726 26.1659 50.1716 22.732C48.3483 12.315 40.1017 4.21287 29.7026 2.51376C29.4876 2.48123 29.2684 2.53482 29.0926 2.66288C28.9169 2.79095 28.7987 2.98316 28.7638 3.19781C28.7289 3.41245 28.78 3.63221 28.9061 3.80938C29.0322 3.98655 29.2231 4.10684 29.4374 4.14413C39.1469 5.73051 46.8391 13.2912 48.5413 23.0167C49.1329 26.4027 48.9689 29.8777 48.0612 33.193L47.2519 31.3102C47.209 31.2103 47.1468 31.1199 47.069 31.0441C46.9912 30.9683 46.8992 30.9085 46.7982 30.8683C46.5944 30.787 46.3666 30.79 46.165 30.8766C45.9634 30.9633 45.8044 31.1265 45.7231 31.3303C45.6418 31.5341 45.6448 31.7619 45.7315 31.9635L47.4075 35.8632C47.6265 36.3726 48.2836 36.5243 48.7046 36.164L51.8813 33.4545C52.0426 33.3106 52.141 33.1093 52.1555 32.8936C52.17 32.678 52.0995 32.4653 51.959 32.3011C51.8185 32.1369 51.6192 32.0343 51.4039 32.0153C51.1887 31.9963 50.9745 32.0624 50.8074 32.1995Z" fill="#FF8000"/>
</svg>
