<svg width="50" height="50" viewBox="0 0 50 50" fill="none" xmlns="http://www.w3.org/2000/svg">
<g clip-path="url(#clip0_2698_204)">
<mask id="mask0_2698_204" style="mask-type:alpha" maskUnits="userSpaceOnUse" x="0" y="0" width="50" height="50">
<path d="M50 0H0V50H50V0Z" fill="#C4C4C4"/>
</mask>
<g mask="url(#mask0_2698_204)">
<path d="M23.7247 4.60787C24.7493 4.02071 26.084 4.01806 27.1077 4.60787C32.2582 7.52146 37.4103 10.4305 42.56 13.3458C43.5285 13.892 44.1764 14.9712 44.1665 16.0885V33.6177C44.1737 34.7813 43.4618 35.8862 42.44 36.42C37.3064 39.3176 32.1755 42.2186 27.0428 45.1161C25.997 45.7148 24.6355 45.6687 23.6224 45.0209C22.0834 44.1278 20.5416 43.239 19.0025 42.3467C18.688 42.1589 18.3334 42.0095 18.1113 41.7043C18.3076 41.4393 18.6586 41.4063 18.9439 41.2907C19.5863 41.0861 20.1764 40.7578 20.7665 40.4393C20.9158 40.337 21.098 40.3763 21.241 40.4678C22.5571 41.2232 23.8615 42.0005 25.182 42.7488C25.4637 42.9116 25.749 42.6954 25.9897 42.561C31.0274 39.7107 36.0711 36.8711 41.1079 34.0198C41.2945 33.9299 41.3976 33.7316 41.3825 33.5269C41.386 27.7444 41.3834 21.9608 41.3843 16.1783C41.4056 15.9462 41.2714 15.7327 41.0616 15.6376C35.9459 12.7533 30.8328 9.86467 25.7179 6.97967C25.6293 6.91868 25.5243 6.88596 25.4168 6.8858C25.3092 6.88564 25.2041 6.91806 25.1154 6.97879C20.0005 9.86467 14.8883 12.756 9.77338 15.6401C9.56438 15.7353 9.42413 15.9453 9.44904 16.1783C9.44988 21.9608 9.44904 27.7444 9.44904 33.5278C9.44013 33.6277 9.46204 33.7278 9.51179 33.8148C9.56154 33.9019 9.63671 33.9716 9.72721 34.0145C11.0921 34.7893 12.4588 35.5588 13.8246 36.331C14.594 36.7457 15.5388 36.992 16.3865 36.6743C17.1346 36.4058 17.659 35.6415 17.6448 34.8463C17.6518 29.0975 17.6412 23.3478 17.65 17.5999C17.6314 17.3448 17.8732 17.1339 18.121 17.1579C18.7769 17.1535 19.4335 17.1491 20.0894 17.1597C20.3631 17.1535 20.5515 17.4283 20.5177 17.6854C20.515 23.4706 20.5247 29.2558 20.5133 35.041C20.515 36.5828 19.8823 38.2605 18.4578 39.0149C16.7028 39.9251 14.5337 39.732 12.8 38.8593C11.299 38.1093 9.86671 37.2243 8.39238 36.4208C7.36791 35.8899 6.65954 34.7805 6.66675 33.6178V16.0885C6.65601 14.948 7.32964 13.8493 8.32839 13.311C13.461 10.4112 18.5929 7.50908 23.7247 4.60787Z" fill="#689F63"/>
<path d="M28.2029 16.7505C30.4415 16.6063 32.838 16.665 34.8524 17.7691C36.4121 18.6152 37.2767 20.3908 37.3042 22.1255C37.2607 22.3594 37.0164 22.4885 36.7932 22.4724C36.1437 22.4716 35.4941 22.4813 34.8446 22.468C34.5691 22.4787 34.409 22.2243 34.3744 21.9805C34.1877 21.1505 33.7356 20.3284 32.9553 19.9281C31.7574 19.3277 30.3685 19.3579 29.0623 19.3704C28.1087 19.4211 27.0833 19.5038 26.2755 20.0652C25.6552 20.4904 25.4669 21.3488 25.6882 22.0402C25.8969 22.5366 26.4693 22.6968 26.9376 22.8443C29.6354 23.5508 32.4942 23.4804 35.1405 24.41C36.2361 24.789 37.3078 25.5258 37.6828 26.6741C38.1733 28.2133 37.9583 30.053 36.8645 31.2887C35.9775 32.3055 34.6856 32.8589 33.397 33.1595C31.6828 33.5422 29.9038 33.5518 28.1631 33.382C26.5261 33.1952 24.8226 32.7646 23.559 31.648C22.4784 30.7087 21.9506 29.2452 22.0031 27.8325C22.0156 27.594 22.2528 27.4277 22.4811 27.4473C23.1351 27.4419 23.7892 27.4402 24.4432 27.4481C24.7045 27.4294 24.8981 27.6554 24.9116 27.9019C25.0322 28.6928 25.3291 29.5228 26.0179 29.9916C27.3472 30.8502 29.0152 30.7913 30.5373 30.8154C31.7983 30.7594 33.2139 30.7424 34.243 29.908C34.7859 29.4321 34.9467 28.6358 34.8001 27.9508C34.6411 27.3725 34.0367 27.103 33.5178 26.9268C30.8546 26.0834 27.9639 26.3894 25.3265 25.4357C24.2557 25.0568 23.2203 24.3407 22.809 23.2394C22.235 21.6808 22.498 19.7529 23.7065 18.559C24.8848 17.3714 26.5857 16.9143 28.2029 16.7505Z" fill="#689F63"/>
</g>
</g>
<defs>
<clipPath id="clip0_2698_204">
<rect width="50" height="50" fill="white"/>
</clipPath>
</defs>
</svg>
