<svg width="180" height="50" viewBox="0 0 180 50" fill="none" xmlns="http://www.w3.org/2000/svg">
<path d="M7.10525 36.2448H20.8524V43.0411H0V7H7.10525V36.2448Z" fill="#406AE8"/>
<path d="M42.3666 17.2975H49.0085V43.0411H42.3666V40.0034C40.3758 42.5091 37.5783 43.762 33.9742 43.762C30.5417 43.762 27.5898 42.4576 25.1184 39.8489C22.6813 37.2059 21.4628 33.9794 21.4628 30.1693C21.4628 26.3592 22.6813 23.1499 25.1184 20.5412C27.5898 17.8982 30.5417 16.5766 33.9742 16.5766C37.5783 16.5766 40.3758 17.8295 42.3666 20.3352V17.2975ZM30.1127 35.421C31.4513 36.7597 33.1504 37.429 35.2099 37.429C37.2694 37.429 38.9685 36.7597 40.3071 35.421C41.6801 34.048 42.3666 32.2974 42.3666 30.1693C42.3666 28.0412 41.6801 26.3077 40.3071 24.9691C38.9685 23.5961 37.2694 22.9096 35.2099 22.9096C33.1504 22.9096 31.4513 23.5961 30.1127 24.9691C28.774 26.3077 28.1047 28.0412 28.1047 30.1693C28.1047 32.2974 28.774 34.048 30.1127 35.421Z" fill="#406AE8"/>
<path d="M68.0691 16.5766C70.8837 16.5766 73.2007 17.5206 75.0199 19.4084C76.8734 21.2963 77.8002 23.905 77.8002 27.2345V43.0411H71.1583V28.0583C71.1583 26.3421 70.6949 25.0377 69.7682 24.1453C68.8414 23.2185 67.6057 22.7551 66.0611 22.7551C64.3448 22.7551 62.9718 23.2872 61.9421 24.3512C60.9123 25.4153 60.3975 27.0114 60.3975 29.1396V43.0411H53.7556V17.2975H60.3975V20.1808C62.0107 17.778 64.5679 16.5766 68.0691 16.5766Z" fill="#406AE8"/>
<path d="M94.4497 43.762C90.571 43.762 87.3273 42.4576 84.7186 39.8489C82.1442 37.2402 80.8571 34.0137 80.8571 30.1693C80.8571 26.3249 82.1442 23.0984 84.7186 20.4897C87.3273 17.881 90.571 16.5766 94.4497 16.5766C96.9554 16.5766 99.238 17.1773 101.298 18.3787C103.357 19.5801 104.919 21.1933 105.983 23.2185L100.268 26.5652C99.7529 25.5011 98.9634 24.6602 97.8994 24.0423C96.8696 23.4245 95.7026 23.1155 94.3982 23.1155C92.4074 23.1155 90.7598 23.7849 89.4554 25.1235C88.1511 26.4279 87.4989 28.1098 87.4989 30.1693C87.4989 32.1945 88.1511 33.8764 89.4554 35.2151C90.7598 36.5194 92.4074 37.1716 94.3982 37.1716C95.7369 37.1716 96.9211 36.8798 97.9509 36.2963C99.0149 35.6784 99.8044 34.8375 100.319 33.7734L106.086 37.0686C104.953 39.0938 103.357 40.7242 101.298 41.9599C99.238 43.1613 96.9554 43.762 94.4497 43.762Z" fill="#406AE8"/>
<path d="M115.166 21.7254C115.784 20.0778 116.796 18.8421 118.204 18.0183C119.645 17.1945 121.241 16.7826 122.992 16.7826V24.1968C120.967 23.9565 119.148 24.3684 117.534 25.4325C115.955 26.4965 115.166 28.2643 115.166 30.7357V43.0411H108.524V17.2975H115.166V21.7254Z" fill="#406AE8"/>
<path d="M128.881 42.4233C128.023 43.2814 126.993 43.7105 125.792 43.7105C124.59 43.7105 123.561 43.2814 122.703 42.4233C121.844 41.5652 121.415 40.5354 121.415 39.334C121.415 38.1327 121.844 37.1029 122.703 36.2448C123.561 35.3867 124.59 34.9576 125.792 34.9576C126.993 34.9576 128.023 35.3867 128.881 36.2448C129.739 37.1029 130.168 38.1327 130.168 39.334C130.168 40.5354 129.739 41.5652 128.881 42.4233Z" fill="#406AE8"/>
</svg>
