<svg width="24" height="24" viewBox="0 0 24 24" fill="none" xmlns="http://www.w3.org/2000/svg">
<g clip-path="url(#clip0_2538_136)">
<path d="M8.9348 18.2476C7.75458 18.5655 6.67252 18.5062 5.6281 17.7477C4.77061 17.1249 4.24027 16.1695 4.15482 15.1161L1.12332 19.6413C0.775457 20.1604 1.14722 20.8624 1.77497 20.8624H4.42796L5.77979 23.5665C6.05485 24.1155 6.82271 24.1496 7.14694 23.6311L9.9204 19.19C9.45 18.8799 9.24797 18.6342 8.9348 18.2476ZM22.8771 19.6411L19.6729 14.8621C19.6071 16.1687 19.0543 17.1134 18.1803 17.7479C17.1241 18.5151 16.0397 18.5607 14.8741 18.2474C14.5958 18.5907 14.4338 18.7973 14.02 19.0976L16.8536 23.6313C17.1781 24.1497 17.9458 24.1152 18.2207 23.5665L19.5726 20.8624H22.2256C22.8534 20.8624 23.225 20.1596 22.8771 19.6411ZM19.8523 8.78644C20.3303 8.05134 20.9198 7.37845 20.5678 6.29405C20.2173 5.21456 19.3557 5.01713 18.4531 4.67161C18.3672 4.63863 18.2927 4.58149 18.2386 4.50708C18.1845 4.43267 18.1531 4.34418 18.1482 4.25231C18.1 3.31341 18.1863 2.41313 17.2586 1.7392C16.3402 1.07241 15.5276 1.41905 14.5943 1.67002C14.4146 1.71853 14.22 1.65623 14.101 1.5097C13.5095 0.778125 13.0505 0 11.9045 0C10.7719 0 10.3202 0.752484 9.70749 1.51012C9.64975 1.58161 9.57248 1.63477 9.48509 1.66315C9.39769 1.69153 9.30393 1.6939 9.21521 1.66997C8.30644 1.42561 7.47807 1.06561 6.55041 1.73944C5.6319 2.40614 5.71036 3.2873 5.66077 4.25255C5.65596 4.34433 5.62465 4.43276 5.57063 4.50712C5.51662 4.58148 5.44221 4.6386 5.35641 4.67156C4.47849 5.00761 3.59602 5.20345 3.24113 6.294C2.8905 7.37395 3.47002 8.03761 3.999 8.85C4.04901 8.9271 4.07561 9.01702 4.07561 9.10891C4.07561 9.20081 4.04901 9.29073 3.999 9.36783C3.49018 10.1489 2.88582 10.8296 3.24113 11.9241C3.59246 13.0033 4.45149 13.2 5.35641 13.5464C5.44226 13.5793 5.5167 13.6365 5.57072 13.7109C5.62474 13.7853 5.65602 13.8738 5.66077 13.9657C5.70891 14.9032 5.62247 15.805 6.55041 16.4785C7.4686 17.1457 8.28136 16.7991 9.21465 16.548C9.30358 16.5241 9.39751 16.5266 9.48508 16.555C9.57265 16.5835 9.65008 16.6367 9.708 16.7083C10.2989 17.4396 10.7572 18.2179 11.9045 18.2179C13.0394 18.2179 13.492 17.4614 14.1015 16.7081C14.2194 16.5615 14.4161 16.499 14.5937 16.548C15.5078 16.7934 16.3323 17.1517 17.2585 16.4788C18.1768 15.8118 18.0985 14.9317 18.1482 13.9665C18.153 13.8745 18.1843 13.7858 18.2384 13.7113C18.2925 13.6367 18.3671 13.5795 18.4531 13.5464C19.3293 13.211 20.2139 13.0142 20.5678 11.9242C20.9136 10.859 20.3507 10.198 19.8518 9.43097C19.7893 9.33509 19.756 9.22308 19.7561 9.10863C19.7562 8.99417 19.7896 8.88221 19.8523 8.78644ZM11.9045 13.8154C9.30915 13.8154 7.19799 11.704 7.19799 9.10889C7.19799 6.51384 9.30919 4.40241 11.9045 4.40241C14.4998 4.40241 16.611 6.51384 16.611 9.10889C16.611 11.704 14.4998 13.8154 11.9045 13.8154Z" fill="#FF8000"/>
<path d="M11.9043 5.97128C10.1741 5.97128 8.7666 7.37874 8.7666 9.10895C8.7666 10.8392 10.1741 12.2466 11.9043 12.2466C13.6345 12.2466 15.0419 10.8392 15.0419 9.10895C15.0419 7.3787 13.6345 5.97128 11.9043 5.97128Z" fill="#FF8000"/>
</g>
<defs>
<clipPath id="clip0_2538_136">
<rect width="24" height="24" fill="white"/>
</clipPath>
</defs>
</svg>
