<svg width="24" height="24" viewBox="0 0 24 24" fill="none" xmlns="http://www.w3.org/2000/svg">
<path d="M4.3365 20.6538L3.2827 19.6L13.475 9.4077C13.1558 8.65642 13.0981 7.86635 13.3019 7.0375C13.5058 6.20867 13.9583 5.45387 14.6596 4.7731C15.4275 4.00515 16.3275 3.52053 17.3596 3.31925C18.3916 3.11797 19.2429 3.35258 19.9134 4.0231C20.5839 4.6936 20.8185 5.54488 20.6172 6.57693C20.416 7.60898 19.9314 8.50897 19.1634 9.2769C18.4827 9.97818 17.7278 10.4307 16.899 10.6346C16.0702 10.8384 15.2801 10.7808 14.5288 10.4615L12.9903 12L20.5903 19.6L19.5365 20.6538L11.9365 13.1038L4.3365 20.6538ZM7.3442 12.1615L4.4596 9.2769C3.63653 8.45383 3.21057 7.475 3.18172 6.3404C3.15287 5.20578 3.52755 4.20771 4.30575 3.34617L10.2172 9.28847L7.3442 12.1615Z" fill="#FF8000"/>
</svg>
