<svg width="53" height="53" viewBox="0 0 53 53" fill="none" xmlns="http://www.w3.org/2000/svg">
<path d="M51.3438 19.6514V25.0673C51.3442 25.241 51.2901 25.4103 51.1891 25.5515C51.088 25.6927 50.9451 25.7985 50.7807 25.8541L47.0458 27.0962C46.696 28.3292 46.207 29.5183 45.5883 30.6406L47.3522 34.1602C47.4242 34.3117 47.4485 34.4815 47.4219 34.6471C47.3953 34.8127 47.319 34.9663 47.2032 35.0877L43.3689 38.9219C43.2459 39.0462 43.0867 39.1283 42.9142 39.1566C42.7416 39.1849 42.5645 39.1578 42.4083 39.0792L38.9219 37.307C37.8101 37.9234 36.6322 38.4124 35.4107 38.7645L34.1685 42.4994C34.1129 42.6639 34.0071 42.8067 33.8659 42.9078C33.7247 43.0088 33.5554 43.0629 33.3818 43.0625H27.9327C27.7591 43.0629 27.5897 43.0088 27.4485 42.9078C27.3074 42.8067 27.2015 42.6639 27.146 42.4994L25.9038 38.7645C25.1114 38.5464 24.3363 38.2696 23.585 37.9364L27.8747 33.6467C28.7805 33.8625 29.7096 33.9654 30.6407 33.9531C32.9337 33.9531 35.1752 33.2732 37.0818 31.9992C38.9884 30.7253 40.4744 28.9146 41.3519 26.7961C42.2294 24.6776 42.459 22.3465 42.0116 20.0975C41.5643 17.8486 40.4601 15.7828 38.8387 14.1614C37.2173 12.5399 35.1515 11.4357 32.9025 10.9884C30.6535 10.541 28.3224 10.7706 26.2039 11.6481C24.0854 12.5256 22.2747 14.0116 21.0008 15.9182C19.7269 17.8248 19.0469 20.0663 19.0469 22.3594C19.045 23.2946 19.159 24.2264 19.3864 25.1336L15.0968 29.415C14.7636 28.6637 14.4868 27.8886 14.2686 27.0962L10.5338 25.8541C10.3693 25.7985 10.2264 25.6927 10.1254 25.5515C10.0243 25.4103 9.97021 25.241 9.97066 25.0673V19.6514C9.97021 19.4778 10.0243 19.3084 10.1254 19.1673C10.2264 19.0261 10.3693 18.9202 10.5338 18.8647L14.2686 17.6225C14.6196 16.3887 15.1114 15.1994 15.7344 14.0781L13.9705 10.5586C13.8931 10.4111 13.8619 10.2437 13.8812 10.0782C13.9004 9.91276 13.969 9.75693 14.0782 9.63109L17.9124 5.79687C18.0354 5.67258 18.1946 5.59042 18.3671 5.56216C18.5397 5.53389 18.7168 5.56098 18.873 5.63953L22.3594 7.45312C23.4706 6.83531 24.6486 6.34631 25.8707 5.99562L27.1129 2.26078C27.1626 2.08307 27.2703 1.92707 27.4188 1.81755C27.5674 1.70803 27.7482 1.65126 27.9327 1.65625H33.3486C33.5222 1.6558 33.6916 1.70993 33.8328 1.81098C33.9739 1.91203 34.0798 2.05489 34.1353 2.21937L35.3775 5.95422C36.6128 6.3157 37.8021 6.81867 38.9219 7.45312L42.4 5.64781C42.5554 5.56822 42.732 5.53978 42.9045 5.56656C43.077 5.59333 43.2367 5.67394 43.3607 5.79687L47.2032 9.63109C47.3274 9.75409 47.4096 9.91328 47.4379 10.0858C47.4661 10.2584 47.4391 10.4355 47.3605 10.5917L45.5883 14.0781C46.2061 15.1893 46.6951 16.3673 47.0458 17.5894L50.7807 18.8316C50.9506 18.8888 51.0975 18.9997 51.199 19.1475C51.3006 19.2954 51.3514 19.4722 51.3438 19.6514ZM28.7277 30.417C29.3542 30.5672 29.9964 30.6423 30.6407 30.6406C32.837 30.6406 34.9434 29.7681 36.4964 28.2151C38.0494 26.6621 38.9219 24.5557 38.9219 22.3594C38.9251 21.3008 38.7226 20.2518 38.3257 19.2705C38.2745 19.1429 38.1924 19.0301 38.0867 18.9422C37.9811 18.8543 37.8552 18.794 37.7204 18.7669C37.5857 18.7398 37.4463 18.7467 37.3149 18.7869C37.1834 18.8271 37.0641 18.8993 36.9675 18.9972L32.8269 23.0964L30.4502 22.5084L29.8622 20.1317L34.0028 16.0325C34.1007 15.936 34.173 15.8166 34.2132 15.6852C34.2534 15.5537 34.2602 15.4144 34.2331 15.2796C34.206 15.1449 34.1458 15.019 34.0579 14.9133C33.97 14.8077 33.8571 14.7255 33.7296 14.6744C32.7485 14.2767 31.6993 14.0741 30.6407 14.0781C28.4443 14.0781 26.338 14.9506 24.7849 16.5036C23.2319 18.0567 22.3594 20.163 22.3594 22.3594C22.3577 23.0036 22.4328 23.6458 22.583 24.2723L11.8174 35.038C11.203 34.8792 10.572 34.793 9.93754 34.7812C8.85003 34.7812 7.77317 34.9954 6.76844 35.4116C5.76371 35.8278 4.85079 36.4378 4.08181 37.2068C2.52877 38.7598 1.65629 40.8662 1.65629 43.0625C1.65314 44.121 1.85564 45.1701 2.25254 46.1514C2.30454 46.2776 2.38694 46.3891 2.49241 46.4757C2.59788 46.5624 2.72315 46.6217 2.85707 46.6483C2.99137 46.6764 3.13055 46.6706 3.26208 46.6316C3.39362 46.5926 3.5134 46.5215 3.61066 46.4247L7.75129 42.2841L10.128 42.872L10.716 45.2487L6.61675 49.3894C6.51891 49.4859 6.44663 49.6053 6.40643 49.7367C6.36623 49.8681 6.35938 50.0075 6.38649 50.1423C6.4136 50.277 6.47383 50.4029 6.56174 50.5085C6.64965 50.6142 6.76247 50.6963 6.89004 50.7475C7.85843 51.1392 8.89293 51.3416 9.93754 51.3437C12.1339 51.3437 14.2402 50.4713 15.7933 48.9182C17.3463 47.3652 18.2188 45.2588 18.2188 43.0625C18.2205 42.4182 18.1454 41.776 17.9952 41.1495L28.7277 30.417Z" fill="#282689"/>
</svg>
