<svg width="24" height="24" viewBox="0 0 24 24" fill="none" xmlns="http://www.w3.org/2000/svg">
<path d="M4.3077 21.5C3.80257 21.5 3.375 21.325 3.025 20.975C2.675 20.625 2.5 20.1974 2.5 19.6923V8.30773C2.5 7.80259 2.675 7.37503 3.025 7.02503C3.375 6.67503 3.80257 6.50003 4.3077 6.50003H8.5V4.80775C8.5 4.30263 8.675 3.87508 9.025 3.52508C9.375 3.17508 9.80257 3.00008 10.3077 3.00008H13.6922C14.1974 3.00008 14.6249 3.17508 14.9749 3.52508C15.3249 3.87508 15.5 4.30263 15.5 4.80775V6.50003H19.6922C20.1974 6.50003 20.625 6.67503 20.975 7.02503C21.325 7.37503 21.5 7.80259 21.5 8.30773V19.6923C21.5 20.1974 21.325 20.625 20.975 20.975C20.625 21.325 20.1974 21.5 19.6922 21.5H4.3077ZM9.99997 6.50003H14V4.80775C14 4.73082 13.9679 4.6603 13.9038 4.5962C13.8397 4.53209 13.7692 4.50003 13.6922 4.50003H10.3077C10.2308 4.50003 10.1602 4.53209 10.0961 4.5962C10.032 4.6603 9.99997 4.73082 9.99997 4.80775V6.50003ZM11.25 14.75V17.75H12.7499V14.75H15.75V13.25H12.7499V10.25H11.25V13.25H8.25V14.75H11.25Z" fill="#D33B3B"/>
</svg>
