<svg width="53" height="53" viewBox="0 0 53 53" fill="none" xmlns="http://www.w3.org/2000/svg">
<path d="M34.3346 14.8763L41.1781 17.7515V22.7864L34.3346 19.9116V14.8763ZM41.694 16.8462L48.2358 14.0976L41.694 11.3489L35.1571 14.0976L41.694 16.8462ZM18.6176 20.1127H14.1396V20.8584H18.6176V20.1127ZM15.7167 9.79817H11.92V14.446H15.7167V9.79817ZM15.3808 6.77945C21.2216 0.93899 30.5525 0.662086 36.7196 5.94853L33.2491 6.09459C32.5615 6.12357 32.6173 7.16359 33.2929 7.12891L38.0971 6.91816C38.3228 6.88897 38.509 6.63918 38.5011 6.39199L38.3015 1.67737C38.2918 1.39166 38.0484 1.17066 37.7661 1.18194C37.479 1.19405 37.2599 1.43555 37.2697 1.72074L37.4157 5.18003C30.8397 -0.473067 20.881 -0.183947 14.6458 6.04728C14.4462 6.24976 14.4462 6.57738 14.6458 6.77934C14.7434 6.87658 14.8755 6.93118 15.0133 6.9312C15.151 6.93122 15.2832 6.87665 15.3808 6.77945ZM18.6176 25.8295H14.1396V26.5753H18.6176V25.8295ZM34.3346 37.816L41.1781 40.6907V35.6559L34.3346 32.7811V37.816ZM41.694 29.2537L35.1571 32.0014L41.694 34.751L48.2358 32.0014L41.694 29.2537ZM42.2149 40.6907L49.0536 37.816V32.7811L42.2149 35.6559V40.6907ZM42.2149 17.7515V22.7864L49.0536 19.9116V14.8763L42.2149 17.7515ZM23.6895 39.7737V12.631C23.6895 11.9807 23.1638 11.4521 22.5116 11.4521H16.7534V12.9615H21.6646C21.7325 12.9614 21.7997 12.9748 21.8625 13.0007C21.9252 13.0267 21.9822 13.0649 22.0301 13.1129C22.078 13.161 22.116 13.2181 22.1418 13.2809C22.1676 13.3437 22.1808 13.411 22.1805 13.4789V38.9257C22.1805 39.2114 21.9517 39.4432 21.6646 39.4432H5.97203C5.90413 39.4433 5.83687 39.4299 5.77414 39.4039C5.71141 39.3779 5.65443 39.3398 5.60649 39.2917C5.55854 39.2436 5.52057 39.1865 5.49477 39.1237C5.46896 39.0609 5.45582 38.9936 5.45611 38.9257V13.4789C5.45611 13.1932 5.68488 12.9615 5.97203 12.9615H10.8832V11.4521H5.12517C4.47292 11.4521 3.94727 11.9807 3.94727 12.631V39.7736C3.94727 40.4234 4.47292 40.9525 5.12517 40.9525H22.5116C23.1638 40.9525 23.6895 40.4235 23.6895 39.7737ZM10.8833 14.6243C10.8833 15.0968 11.2678 15.481 11.74 15.481H15.8968C16.3689 15.481 16.7535 15.0969 16.7535 14.6243V13.9969H21.1488V38.4079H6.48806V13.9969H10.8833V14.6243ZM12.3338 30.3723C12.1293 30.1708 11.8033 30.1727 11.6037 30.3761L9.63731 32.3641L8.86333 31.5916C8.38457 31.111 7.64795 31.8412 8.13323 32.3237L9.27221 33.4632C9.32042 33.5116 9.37776 33.55 9.44091 33.5762C9.50405 33.6023 9.57176 33.6157 9.6401 33.6155C9.70845 33.6153 9.77608 33.6016 9.83909 33.5751C9.90209 33.5486 9.95922 33.5099 10.0072 33.4612L12.3387 31.1044C12.5382 30.9009 12.5382 30.5732 12.3338 30.3723ZM12.3338 24.6555C12.1293 24.4544 11.8033 24.4564 11.6037 24.6593L9.63731 26.6472L8.86333 25.8752C8.38457 25.394 7.64816 26.1244 8.13323 26.6072L9.27221 27.7467C9.32049 27.7951 9.37784 27.8334 9.44098 27.8595C9.50412 27.8855 9.57179 27.8989 9.6401 27.8987C9.70841 27.8985 9.77601 27.8848 9.83901 27.8584C9.90201 27.832 9.95916 27.7934 10.0072 27.7448L12.3387 25.3875C12.5382 25.1845 12.5382 24.8565 12.3338 24.6555ZM13.1077 20.9095C13.1077 21.4523 13.5506 21.8938 14.091 21.8938H18.6712C19.2163 21.8938 19.6544 21.4523 19.6544 20.9095V20.0616C19.6544 19.5189 19.2163 19.0774 18.6712 19.0774H14.091C13.5507 19.0774 13.1077 19.5189 13.1077 20.0616V20.9095ZM13.1077 26.6263C13.1077 27.169 13.5506 27.6105 14.091 27.6105H18.6712C19.2163 27.6105 19.6544 27.169 19.6544 26.6263V25.7779C19.6544 25.2357 19.2163 24.7942 18.6712 24.7942H14.091C13.5507 24.7942 13.1077 25.2357 13.1077 25.7779V26.6263ZM13.1077 32.343C13.1077 32.8858 13.5506 33.3268 14.091 33.3268H18.6712C19.2163 33.3268 19.6544 32.8858 19.6544 32.343V31.4942C19.6544 30.952 19.2163 30.5105 18.6712 30.5105H14.091C13.5507 30.5105 13.1077 30.952 13.1077 31.4942V32.343ZM9.63731 20.9304L8.86333 20.1584C8.38436 19.6772 7.64816 20.4081 8.13323 20.8905L9.27221 22.0305C9.32058 22.0787 9.37797 22.1168 9.4411 22.1428C9.50422 22.1688 9.57184 22.182 9.6401 22.1818C9.70836 22.1817 9.77591 22.168 9.83889 22.1417C9.90188 22.1154 9.95906 22.077 10.0072 22.0285L12.3387 19.6708C12.8166 19.1861 12.0811 18.4585 11.6037 18.943L9.63731 20.9304ZM18.6176 31.5463H14.1396V32.2915H18.6176V31.5463ZM37.6201 46.2196C31.7792 52.061 22.4483 52.3375 16.2764 47.0504L19.7517 46.9049C20.034 46.8922 20.2579 46.6513 20.2433 46.3656C20.2336 46.0808 19.9902 45.8603 19.7079 45.8706L14.9038 46.0818L14.6458 46.2196C14.6458 46.2225 14.6409 46.2254 14.6409 46.2279C14.571 46.2696 14.4922 46.4774 14.4949 46.6075L14.6945 51.3216C14.7055 51.6089 14.9434 51.8241 15.2348 51.8176C15.522 51.805 15.741 51.564 15.7313 51.2783L15.5852 47.8196C22.1741 53.4889 32.1049 53.1686 38.3502 46.9522C38.3987 46.9044 38.4373 46.8473 38.4636 46.7845C38.4899 46.7216 38.5035 46.6541 38.5035 46.5859C38.5035 46.5177 38.4899 46.4503 38.4636 46.3874C38.4373 46.3245 38.3987 46.2675 38.3502 46.2196C38.1506 46.0176 37.8197 46.0176 37.6201 46.2196Z" fill="#D33B3B"/>
</svg>
