<svg width="50" height="50" viewBox="0 0 50 50" fill="none" xmlns="http://www.w3.org/2000/svg">
<g clip-path="url(#clip0_2698_126)">
<mask id="mask0_2698_126" style="mask-type:alpha" maskUnits="userSpaceOnUse" x="0" y="0" width="50" height="50">
<path d="M50 0H0V50H50V0Z" fill="#C4C4C4"/>
</mask>
<g mask="url(#mask0_2698_126)">
<path d="M26.6727 48.3333L25.3319 47.9187C25.3319 47.9187 25.5028 41.5781 23.0555 41.1342C21.4418 39.387 23.3039 -33.4976 29.1667 40.8844C29.1667 40.8844 27.16 41.8258 26.7802 43.4246C26.4005 45.0244 26.6727 48.3333 26.6727 48.3333Z" fill="#4FAA41"/>
<path d="M26.9538 42.4998C26.9538 42.4998 38.0354 35.2632 35.4392 20.2341C32.939 9.31517 27.036 5.72567 26.4017 4.35531C25.7033 3.38547 25 1.6665 25 1.6665L25.4713 32.0898C25.4713 32.0898 24.4963 41.3793 26.9538 42.4998Z" fill="#4FAA41"/>
<path d="M24.5921 42.4998C24.5921 42.4998 14.4402 35.5593 15.0243 23.3136C15.6085 11.0675 22.7788 5.04638 24.1753 3.95405C25.0782 2.98963 25.1155 2.61802 25.1854 1.6665C25.8181 3.02879 25.7129 22.0142 25.7799 24.2333C26.0401 32.8715 25.3025 40.8693 24.5921 42.4998Z" fill="#4FAA41"/>
</g>
</g>
<defs>
<clipPath id="clip0_2698_126">
<rect width="50" height="50" fill="white"/>
</clipPath>
</defs>
</svg>
