<svg width="53" height="53" viewBox="0 0 53 53" fill="none" xmlns="http://www.w3.org/2000/svg">
<path d="M48.8594 29.8125H32.2969C30.9305 29.8125 29.8125 30.9305 29.8125 32.2969V42.2344C29.8125 43.6008 30.9305 44.7188 32.2969 44.7188H48.8594C50.2258 44.7188 51.3438 43.6008 51.3438 42.2344V32.2969C51.3438 30.9305 50.2258 29.8125 48.8594 29.8125ZM37.0255 39.162C37.141 39.2777 37.2196 39.4251 37.2512 39.5855C37.2829 39.7459 37.2661 39.9121 37.2031 40.0629C37.1401 40.2138 37.0337 40.3425 36.8974 40.4328C36.7611 40.523 36.601 40.5707 36.4375 40.5698C36.2222 40.5698 36.0152 40.487 35.8495 40.3297L33.3652 37.8453C33.2884 37.7687 33.2275 37.6777 33.1859 37.5775C33.1444 37.4773 33.123 37.3699 33.123 37.2615C33.123 37.153 33.1444 37.0456 33.1859 36.9455C33.2275 36.8453 33.2884 36.7543 33.3652 36.6777L35.8495 34.1933C35.9262 34.1166 36.0172 34.0558 36.1174 34.0143C36.2176 33.9728 36.3249 33.9515 36.4334 33.9515C36.5418 33.9515 36.6492 33.9728 36.7493 34.0143C36.8495 34.0558 36.9405 34.1166 37.0172 34.1933C37.0939 34.27 37.1547 34.361 37.1962 34.4611C37.2377 34.5613 37.259 34.6687 37.259 34.7771C37.259 34.8855 37.2377 34.9929 37.1962 35.0931C37.1547 35.1932 37.0939 35.2843 37.0172 35.3609L35.1208 37.2573L37.0172 39.1537L37.0255 39.162ZM42.9797 34.3175L39.6672 40.9425C39.5668 41.1386 39.3928 41.287 39.1834 41.3553C38.9739 41.4235 38.7459 41.4061 38.5492 41.3069C38.3543 41.2074 38.2061 41.0355 38.1364 40.8281C38.0667 40.6206 38.0812 40.3941 38.1766 40.1972L41.4891 33.5722C41.6961 33.1664 42.193 33.0008 42.5987 33.1995C43.0045 33.4066 43.1702 33.9034 42.9714 34.3092L42.9797 34.3175ZM47.7911 37.8453L45.3067 40.3297C45.1411 40.4953 44.9341 40.5698 44.7188 40.5698C44.5034 40.5698 44.2964 40.487 44.1308 40.3297C44.054 40.2531 43.9931 40.1621 43.9515 40.0619C43.91 39.9617 43.8886 39.8543 43.8886 39.7459C43.8886 39.6374 43.91 39.53 43.9515 39.4298C43.9931 39.3296 44.054 39.2386 44.1308 39.162L46.0272 37.2656L44.1308 35.3692C44.0541 35.2925 43.9933 35.2015 43.9518 35.1014C43.9103 35.0012 43.889 34.8938 43.889 34.7854C43.889 34.677 43.9103 34.5696 43.9518 34.4694C43.9933 34.3693 44.0541 34.2782 44.1308 34.2016C44.2075 34.1249 44.2985 34.0641 44.3986 34.0226C44.4988 33.9811 44.6062 33.9597 44.7146 33.9597C44.823 33.9597 44.9304 33.9811 45.0306 34.0226C45.1307 34.0641 45.2218 34.1249 45.2984 34.2016L47.7828 36.6859C48.1058 37.0089 48.1058 37.5306 47.7828 37.8536L47.7911 37.8453Z" fill="#00D4A1"/>
<path d="M34.7812 1.65625H5.79688C3.51125 1.65625 1.65625 3.51125 1.65625 5.79688V47.2031C1.65625 49.4887 3.51125 51.3438 5.79688 51.3438H34.7812C37.0669 51.3438 38.9219 49.4887 38.9219 47.2031C38.9219 46.7477 38.5492 46.375 38.0938 46.375C37.6383 46.375 37.2656 46.7477 37.2656 47.2031C37.2656 48.5695 36.1477 49.6875 34.7812 49.6875H5.79688C4.43047 49.6875 3.3125 48.5695 3.3125 47.2031V11.5938H37.2656V27.3281C37.2656 27.7836 37.6383 28.1562 38.0938 28.1562C38.5492 28.1562 38.9219 27.7836 38.9219 27.3281V5.79688C38.9219 3.51125 37.0669 1.65625 34.7812 1.65625ZM7.03906 7.86719C6.35172 7.86719 5.79688 7.31234 5.79688 6.625C5.79688 5.93766 6.35172 5.38281 7.03906 5.38281C7.72641 5.38281 8.28125 5.93766 8.28125 6.625C8.28125 7.31234 7.72641 7.86719 7.03906 7.86719ZM11.1797 7.86719C10.4923 7.86719 9.9375 7.31234 9.9375 6.625C9.9375 5.93766 10.4923 5.38281 11.1797 5.38281C11.867 5.38281 12.4219 5.93766 12.4219 6.625C12.4219 7.31234 11.867 7.86719 11.1797 7.86719ZM15.3203 7.86719C14.633 7.86719 14.0781 7.31234 14.0781 6.625C14.0781 5.93766 14.633 5.38281 15.3203 5.38281C16.0077 5.38281 16.5625 5.93766 16.5625 6.625C16.5625 7.31234 16.0077 7.86719 15.3203 7.86719Z" fill="#00D4A1"/>
<path d="M7.86719 18.6328C8.55323 18.6328 9.10938 18.0767 9.10938 17.3906C9.10938 16.7046 8.55323 16.1484 7.86719 16.1484C7.18115 16.1484 6.625 16.7046 6.625 17.3906C6.625 18.0767 7.18115 18.6328 7.86719 18.6328Z" fill="#00D4A1"/>
<path d="M19.875 18.2188H11.5938C11.1383 18.2188 10.7656 17.8461 10.7656 17.3906C10.7656 16.9352 11.1383 16.5625 11.5938 16.5625H19.875C20.3305 16.5625 20.7031 16.9352 20.7031 17.3906C20.7031 17.8461 20.3305 18.2188 19.875 18.2188Z" fill="#00D4A1"/>
<path d="M7.86719 22.7734C8.55323 22.7734 9.10938 22.2173 9.10938 21.5312C9.10938 20.8452 8.55323 20.2891 7.86719 20.2891C7.18115 20.2891 6.625 20.8452 6.625 21.5312C6.625 22.2173 7.18115 22.7734 7.86719 22.7734Z" fill="#00D4A1"/>
<path d="M23.1875 22.3594H11.5938C11.1383 22.3594 10.7656 21.9867 10.7656 21.5312C10.7656 21.0758 11.1383 20.7031 11.5938 20.7031H23.1875C23.643 20.7031 24.0156 21.0758 24.0156 21.5312C24.0156 21.9867 23.643 22.3594 23.1875 22.3594ZM29.8125 22.3594H26.5C26.0445 22.3594 25.6719 21.9867 25.6719 21.5312C25.6719 21.0758 26.0445 20.7031 26.5 20.7031H29.8125C30.268 20.7031 30.6406 21.0758 30.6406 21.5312C30.6406 21.9867 30.268 22.3594 29.8125 22.3594Z" fill="#00D4A1"/>
<path d="M7.86719 35.1953C8.55323 35.1953 9.10938 34.6392 9.10938 33.9531C9.10938 33.2671 8.55323 32.7109 7.86719 32.7109C7.18115 32.7109 6.625 33.2671 6.625 33.9531C6.625 34.6392 7.18115 35.1953 7.86719 35.1953Z" fill="#00D4A1"/>
<path d="M19.0469 34.7812H11.5938C11.1383 34.7812 10.7656 34.4086 10.7656 33.9531C10.7656 33.4977 11.1383 33.125 11.5938 33.125H19.0469C19.5023 33.125 19.875 33.4977 19.875 33.9531C19.875 34.4086 19.5023 34.7812 19.0469 34.7812ZM25.6719 34.7812H22.3594C21.9039 34.7812 21.5312 34.4086 21.5312 33.9531C21.5312 33.4977 21.9039 33.125 22.3594 33.125H25.6719C26.1273 33.125 26.5 33.4977 26.5 33.9531C26.5 34.4086 26.1273 34.7812 25.6719 34.7812Z" fill="#00D4A1"/>
<path d="M7.86719 39.3359C8.55323 39.3359 9.10938 38.7798 9.10938 38.0938C9.10938 37.4077 8.55323 36.8516 7.86719 36.8516C7.18115 36.8516 6.625 37.4077 6.625 38.0938C6.625 38.7798 7.18115 39.3359 7.86719 39.3359Z" fill="#00D4A1"/>
<path d="M23.1875 38.9219H11.5938C11.1383 38.9219 10.7656 38.5492 10.7656 38.0938C10.7656 37.6383 11.1383 37.2656 11.5938 37.2656H23.1875C23.643 37.2656 24.0156 37.6383 24.0156 38.0938C24.0156 38.5492 23.643 38.9219 23.1875 38.9219Z" fill="#00D4A1"/>
<path d="M7.86719 43.4766C8.55323 43.4766 9.10938 42.9204 9.10938 42.2344C9.10938 41.5483 8.55323 40.9922 7.86719 40.9922C7.18115 40.9922 6.625 41.5483 6.625 42.2344C6.625 42.9204 7.18115 43.4766 7.86719 43.4766Z" fill="#00D4A1"/>
<path d="M18.2188 43.0625H11.5938C11.1383 43.0625 10.7656 42.6898 10.7656 42.2344C10.7656 41.7789 11.1383 41.4062 11.5938 41.4062H18.2188C18.6742 41.4062 19.0469 41.7789 19.0469 42.2344C19.0469 42.6898 18.6742 43.0625 18.2188 43.0625Z" fill="#00D4A1"/>
<path d="M12.0078 26.9141C12.6939 26.9141 13.25 26.3579 13.25 25.6719C13.25 24.9858 12.6939 24.4297 12.0078 24.4297C11.3218 24.4297 10.7656 24.9858 10.7656 25.6719C10.7656 26.3579 11.3218 26.9141 12.0078 26.9141Z" fill="#00D4A1"/>
<path d="M26.5 26.5H15.7344C15.2789 26.5 14.9062 26.1273 14.9062 25.6719C14.9062 25.2164 15.2789 24.8438 15.7344 24.8438H26.5C26.9555 24.8438 27.3281 25.2164 27.3281 25.6719C27.3281 26.1273 26.9555 26.5 26.5 26.5Z" fill="#00D4A1"/>
<path d="M12.0078 31.0547C12.6939 31.0547 13.25 30.4985 13.25 29.8125C13.25 29.1265 12.6939 28.5703 12.0078 28.5703C11.3218 28.5703 10.7656 29.1265 10.7656 29.8125C10.7656 30.4985 11.3218 31.0547 12.0078 31.0547Z" fill="#00D4A1"/>
<path d="M23.1875 30.6406H15.7344C15.2789 30.6406 14.9062 30.268 14.9062 29.8125C14.9062 29.357 15.2789 28.9844 15.7344 28.9844H23.1875C23.643 28.9844 24.0156 29.357 24.0156 29.8125C24.0156 30.268 23.643 30.6406 23.1875 30.6406Z" fill="#00D4A1"/>
</svg>
