<svg width="62" height="50" viewBox="0 0 62 50" fill="none" xmlns="http://www.w3.org/2000/svg">
<g clip-path="url(#clip0_2698_159)">
<mask id="mask0_2698_159" style="mask-type:alpha" maskUnits="userSpaceOnUse" x="-2" y="0" width="63" height="62">
<path d="M60.5128 0H-1.02563V61.2245H60.5128V0Z" fill="#C4C4C4"/>
</mask>
<g mask="url(#mask0_2698_159)">
<path d="M0 43.1886H1.96288V35.477L5.00151 42.1996C5.36009 43.0132 5.85089 43.3013 6.81337 43.3013C7.77601 43.3013 8.24786 43.0134 8.60659 42.1996L11.6452 35.477V43.1884H13.6081V35.4896C13.6081 34.7384 13.3061 34.3754 12.6834 34.1878C11.1923 33.7246 10.1919 34.1251 9.73887 35.1267L6.75682 41.7614L3.86921 35.1267C3.43512 34.1251 2.41593 33.7246 0.924882 34.1878C0.302031 34.3754 0 34.7386 0 35.4895V43.1886ZM15.2402 36.9118H17.2025V41.1602C17.1841 41.3911 17.2769 41.9328 18.3522 41.9495C18.9008 41.9582 22.5862 41.9495 22.6205 41.9495V36.891H24.5874C24.5964 36.891 24.5853 43.7895 24.5855 43.8189C24.5962 45.5202 22.4637 45.8897 21.4807 45.9183H15.2827V44.6045C15.2937 44.6045 21.4761 44.6058 21.4917 44.6043C22.755 44.4716 22.6058 43.8469 22.6056 43.6366V43.1244H18.4335C16.4923 43.1066 15.2564 42.2637 15.2411 41.2942C15.2396 41.2044 15.2831 36.9543 15.2402 36.9118Z" fill="#00618A"/>
<path d="M26.1 43.1883H31.7431C32.4038 43.1883 33.0454 43.0506 33.5551 42.8127C34.4044 42.4247 34.8196 41.899 34.8196 41.2103V39.7833C34.8196 39.2198 34.3479 38.694 33.4229 38.3436C32.9322 38.1556 32.3283 38.0556 31.7431 38.0556H29.3648C28.5725 38.0556 28.1949 37.8178 28.1006 37.2921C28.0817 37.2294 28.0817 37.1792 28.0817 37.1167V36.2281C28.0817 36.1779 28.0817 36.1277 28.1006 36.0652C28.1949 35.6646 28.4026 35.5518 29.1009 35.4893C29.1574 35.4893 29.2329 35.4766 29.2896 35.4766H34.8951V34.175H29.384C28.5912 34.175 28.176 34.225 27.7986 34.3376C26.6284 34.7006 26.1187 35.2765 26.1187 36.278V37.4173C26.1187 38.2936 27.1191 39.0447 28.7988 39.2198C28.9878 39.2324 29.1764 39.2448 29.365 39.2448H31.4033C31.479 39.2448 31.5545 39.2448 31.611 39.2575C32.2339 39.3076 32.498 39.4201 32.6869 39.6455C32.8001 39.758 32.8378 39.8708 32.8378 39.996V41.135C32.8378 41.273 32.7435 41.4483 32.5549 41.5984C32.385 41.7486 32.1019 41.8488 31.7244 41.8739C31.6489 41.8739 31.5923 41.8863 31.5168 41.8863H26.0999L26.1 43.1883ZM47.0647 40.9224C47.0647 42.2618 48.0649 43.0131 50.0845 43.1633C50.2731 43.1757 50.462 43.1883 50.6506 43.1883H55.7656V41.8863H50.6129C49.4616 41.8863 49.0275 41.5984 49.0275 40.9099V34.1748H47.0647V40.9224ZM36.0725 40.9907V36.3491C36.0725 35.1699 36.9047 34.4548 38.5499 34.229C38.7254 34.2041 38.9023 34.1915 39.0795 34.1914H42.8054C42.9944 34.1914 43.1649 34.204 43.354 34.229C44.9993 34.4548 45.8314 35.1699 45.8314 36.3491V40.9905C45.8314 41.9471 45.4781 42.4592 44.6635 42.7929L46.5971 44.5292H44.318L42.7537 43.1244L41.1789 43.2237H39.0795C38.7202 43.2237 38.3421 43.1734 37.9259 43.0605C36.6777 42.7218 36.0725 42.0697 36.0725 40.9907ZM38.1909 40.8779C38.1909 40.9406 38.2098 41.0033 38.2288 41.0786C38.3422 41.618 38.8529 41.9191 39.6283 41.9191H41.4115L39.7735 40.4478H42.0525L43.4813 41.7309C43.7445 41.5913 43.9178 41.3779 43.9783 41.1037C43.9972 41.041 43.9972 40.9782 43.9972 40.9155V36.4623C43.9972 36.412 43.9972 36.3493 43.9783 36.2864C43.8648 35.7846 43.3541 35.4963 42.5977 35.4963H39.6283C38.7584 35.4963 38.191 35.8727 38.191 36.4623L38.1909 40.8779Z" fill="#E48E00"/>
<path d="M57.4921 32.0155C56.2857 31.9829 55.364 32.0945 54.5761 32.4251C54.3521 32.5191 53.9951 32.5216 53.9586 32.8008C54.0817 32.9291 54.1007 33.1208 54.1986 33.2786C54.3866 33.5815 54.7043 33.9874 54.9877 34.2003C55.2974 34.4329 55.6165 34.6816 55.9485 34.883C56.539 35.2412 57.1982 35.4457 57.7668 35.8046C58.1019 36.0162 58.4348 36.2825 58.7617 36.5213C58.9233 36.6393 59.0319 36.8228 59.242 36.8969V36.8627C59.1316 36.7229 59.1032 36.5308 59.0019 36.3847L58.5558 35.941C58.1197 35.3651 57.5661 34.8593 56.9777 34.4391C56.5084 34.104 55.4581 33.6515 55.2623 33.108L55.2278 33.0737C55.5606 33.0365 55.9502 32.9167 56.2573 32.8349C56.7732 32.6972 57.234 32.7328 57.7668 32.596C58.0068 32.5277 58.2471 32.4592 58.4873 32.3911V32.2545C58.218 31.9796 58.0261 31.6159 57.7322 31.3671C56.9642 30.7162 56.1257 30.066 55.2623 29.5238C54.7834 29.2231 54.1915 29.0276 53.684 28.7728C53.5134 28.6872 53.2133 28.6426 53.1006 28.4996C52.8341 28.1616 52.6889 27.7329 52.4831 27.3391C52.0525 26.5141 51.6297 25.6129 51.2481 24.7447C50.9878 24.1529 50.8179 23.5693 50.4934 23.0381C48.9355 20.4899 47.2586 18.952 44.661 17.4401C44.1082 17.1187 43.4428 16.9916 42.7395 16.8258L41.6073 16.7574C41.3771 16.6616 41.1374 16.3813 40.9211 16.2453C40.0605 15.7046 37.8534 14.528 37.216 16.0747C36.8136 17.0511 37.8175 18.0037 38.1765 18.4984C38.4285 18.8455 38.7512 19.2344 38.9313 19.6247C39.0498 19.8814 39.0702 20.1385 39.1715 20.4099C39.4211 21.0785 39.6378 21.8059 39.9605 22.4237C40.1236 22.7364 40.3034 23.0658 40.5096 23.3452C40.636 23.517 40.8525 23.5926 40.8868 23.8575C40.675 24.1525 40.6629 24.6102 40.5438 24.9838C40.0076 26.6661 40.2099 28.7567 40.9899 30.0017C41.2292 30.3838 41.793 31.2034 42.568 30.8891C43.2461 30.6143 43.0946 29.7629 43.2885 29.0119C43.3324 28.8415 43.3054 28.7162 43.3914 28.6022V28.6364L44.009 29.865C44.466 30.5973 45.2773 31.3627 45.9646 31.8791C46.3211 32.1469 46.6017 32.6099 47.0625 32.7666V32.7324H47.0281C46.9389 32.5939 46.7992 32.5365 46.6852 32.4251C46.4165 32.1633 46.1181 31.8377 45.896 31.5377C45.2708 30.6932 44.7183 29.7691 44.2149 28.807C43.9745 28.3477 43.7656 27.8408 43.5629 27.3733C43.4847 27.1931 43.4857 26.9206 43.3229 26.8271C43.101 27.1696 42.7741 27.4468 42.6024 27.8513C42.3279 28.4978 42.2924 29.2863 42.1908 30.104C42.1306 30.1255 42.1572 30.1107 42.122 30.138C41.6442 30.0234 41.4762 29.534 41.2988 29.1141C40.8494 28.0524 40.7661 26.3427 41.1612 25.1206C41.2636 24.8042 41.7258 23.8082 41.5387 23.5163C41.4495 23.2247 41.1548 23.0561 40.9899 22.8334C40.7858 22.558 40.5821 22.1956 40.4408 21.8775C40.0733 21.0496 39.9016 20.1204 39.5146 19.2835C39.3296 18.8834 39.0167 18.4786 38.7598 18.123C38.4753 17.7291 38.1567 17.4386 37.9363 16.9622C37.858 16.793 37.7514 16.522 37.8676 16.3479C37.9047 16.2305 37.9568 16.1814 38.0737 16.143C38.2726 15.9905 38.8269 16.1938 39.0342 16.2795C39.5844 16.5069 40.0435 16.7235 40.5096 17.0305C40.7334 17.1781 40.9596 17.4636 41.23 17.5427H41.5387C42.0218 17.6531 42.5628 17.5769 43.014 17.7133C43.8116 17.9544 44.5263 18.3294 45.1753 18.7373C47.1531 19.9795 48.7699 21.748 49.8758 23.8575C50.0538 24.197 50.1308 24.5213 50.2875 24.8815C50.6037 25.6081 51.0021 26.3557 51.3166 27.0661C51.6306 27.7747 51.9365 28.4902 52.3802 29.0801C52.6137 29.3901 53.5147 29.5566 53.924 29.7285C54.2112 29.8492 54.6816 29.975 54.9535 30.138C55.4729 30.4498 55.976 30.8209 56.4632 31.1622C56.7067 31.3329 57.4548 31.7071 57.4921 32.0155Z" fill="#005E88"/>
<path fill-rule="evenodd" clip-rule="evenodd" d="M42.1571 19.0102C41.9055 19.0056 41.7275 19.0376 41.5394 19.0784V19.1126H41.5738C41.6938 19.3579 41.9055 19.5157 42.054 19.7269C42.1684 19.9659 42.2827 20.2049 42.3972 20.4438L42.4314 20.4097C42.6438 20.2607 42.7413 20.0223 42.7401 19.6588C42.655 19.5697 42.6424 19.4578 42.5687 19.3514C42.4705 19.2097 42.2808 19.1295 42.1571 19.0102Z" fill="black"/>
<path fill-rule="evenodd" clip-rule="evenodd" d="M56.6866 41.8486C56.6866 42.7084 57.3696 43.2878 58.1334 43.2878C58.8971 43.2878 59.5799 42.7084 59.5799 41.8486C59.5799 40.9891 58.8971 40.4097 58.1334 40.4097C57.3696 40.4097 56.6866 40.9891 56.6866 41.8486ZM59.2559 41.8486C59.2559 42.501 58.7545 42.9885 58.1334 42.9885C57.5047 42.9885 57.0109 42.501 57.0109 41.8486C57.0109 41.1963 57.5046 40.7087 58.1334 40.7087C58.7545 40.7087 59.2559 41.1963 59.2559 41.8486ZM58.5232 42.6699H58.8471L58.3727 41.9485C58.6273 41.9216 58.82 41.7988 58.82 41.4995C58.82 41.1656 58.608 41.0275 58.1991 41.0275H57.5549V42.6699H57.8326V41.96H58.0908L58.5232 42.6699ZM57.8326 41.7298V41.2577H58.1526C58.3186 41.2577 58.5192 41.2884 58.5192 41.4804C58.5192 41.7104 58.3379 41.7298 58.1294 41.7298H57.8326Z" fill="black"/>
</g>
</g>
<defs>
<clipPath id="clip0_2698_159">
<rect width="61.5385" height="50" fill="white"/>
</clipPath>
</defs>
</svg>
