<svg width="63" height="50" viewBox="0 0 63 50" fill="none" xmlns="http://www.w3.org/2000/svg">
<g clip-path="url(#clip0_2698_213)">
<mask id="mask0_2698_213" style="mask-type:alpha" maskUnits="userSpaceOnUse" x="0" y="0" width="63" height="63">
<path d="M62.5 0H0V62.5H62.5V0Z" fill="#C4C4C4"/>
</mask>
<g mask="url(#mask0_2698_213)">
<path d="M31.0909 45.8335C45.9607 45.8335 58.0151 39.5375 58.0151 31.771C58.0151 24.0045 45.9607 17.7085 31.0909 17.7085C16.221 17.7085 4.16663 24.0045 4.16663 31.771C4.16663 39.5375 16.221 45.8335 31.0909 45.8335Z" fill="#8993BE"/>
<path fill-rule="evenodd" clip-rule="evenodd" d="M11.7279 40.0978L14.6786 25.1101H21.5016C24.4521 25.2952 25.9275 26.7753 25.9275 29.366C25.9275 33.8068 22.4237 36.3972 19.2885 36.2121H15.9695L15.2319 40.0978H11.7279ZM16.707 33.4368L17.6292 27.8857H20.0264C21.3174 27.8857 22.2393 28.4408 22.2393 29.5509C22.055 32.6966 20.5797 33.2517 18.92 33.4368H16.707ZM25.242 36.2121L28.1925 21.2246H31.6964L30.9587 25.1101H34.278C37.2287 25.2952 38.3351 26.7753 37.9664 28.6259L36.6755 36.2121H32.9873L34.2782 29.366C34.4625 28.4408 34.4625 27.8857 33.1718 27.8857H30.4055L28.7459 36.2121H25.242ZM36.4393 40.0978L39.3898 25.1101H46.213C49.1637 25.2952 50.6391 26.7753 50.6391 29.366C50.6391 33.8068 47.1352 36.3972 44.0002 36.2121H40.6807L39.943 40.0978H36.4393ZM41.4182 33.4368L42.3403 27.8857H44.7378C46.0287 27.8857 46.9507 28.4408 46.9507 29.5509C46.7664 32.6966 45.291 33.2517 43.6314 33.4368H41.4182Z" fill="#232531"/>
</g>
</g>
<defs>
<clipPath id="clip0_2698_213">
<rect width="62.5" height="50" fill="white"/>
</clipPath>
</defs>
</svg>
