<svg width="30" height="30" viewBox="0 0 30 30" fill="none" xmlns="http://www.w3.org/2000/svg">
<path d="M13.9084 0C8.47315 0 4.05127 4.45618 4.05127 9.93355C4.05127 16.7311 12.8724 26.7104 13.248 27.1319C13.6008 27.5278 14.2167 27.5271 14.5688 27.1319C14.9444 26.7104 23.7656 16.7311 23.7656 9.93355C23.7654 4.45618 19.3436 0 13.9084 0ZM13.9084 14.9314C11.1738 14.9314 8.94909 12.6894 8.94909 9.93355C8.94909 7.17772 11.1739 4.93576 13.9084 4.93576C16.643 4.93576 18.8677 7.17778 18.8677 9.9336C18.8677 12.6894 16.643 14.9314 13.9084 14.9314Z" fill="#D33B3B"/>
</svg>
