<svg width="50" height="50" viewBox="0 0 50 50" fill="none" xmlns="http://www.w3.org/2000/svg">
<mask id="mask0_2698_148" style="mask-type:alpha" maskUnits="userSpaceOnUse" x="0" y="0" width="50" height="50">
<path d="M50 0H0V50H50V0Z" fill="#C4C4C4"/>
</mask>
<g mask="url(#mask0_2698_148)">
<path d="M46.7046 29.3665C46.4433 28.5746 45.7586 28.023 44.8732 27.8907C44.4556 27.8283 43.9775 27.8549 43.4117 27.9716C42.4255 28.1752 41.6938 28.2527 41.1598 28.2677C43.1754 24.8633 44.8143 20.9813 45.7578 17.3269C47.2835 11.418 46.4681 8.72608 45.5155 7.50847C42.9941 4.28561 39.3157 2.55426 34.878 2.50128C32.5105 2.47232 30.4324 2.93991 29.3482 3.27617C28.3388 3.09799 27.2535 2.99851 26.1146 2.98012C23.9799 2.94604 22.0937 3.41159 20.482 4.3684C19.5898 4.06655 18.1578 3.64104 16.504 3.36952C12.6146 2.73073 9.47979 3.22847 7.18687 4.84893C4.41033 6.81092 3.12321 10.2198 3.36126 14.9808C3.43686 16.4924 4.28212 21.0917 5.613 25.4534C6.37787 27.9605 7.1935 30.0424 8.03722 31.6419C9.23379 33.9101 10.514 35.2457 11.9514 35.7253C12.757 35.9938 14.2206 36.1819 15.7601 34.8993C15.9553 35.1357 16.2156 35.3706 16.5611 35.5888C16.9999 35.8656 17.5365 36.0918 18.0723 36.2258C20.0034 36.7088 21.8123 36.588 23.3555 35.9111C23.365 36.1857 23.3724 36.448 23.3785 36.6745C23.3887 37.0419 23.3989 37.4023 23.4124 37.7392C23.5038 40.0173 23.6587 41.7887 24.1178 43.0281C24.143 43.0963 24.1769 43.2002 24.2126 43.3103C24.4417 44.0118 24.8246 45.1862 25.799 46.1058C26.8079 47.0585 28.0282 47.3507 29.1459 47.3507C29.7065 47.3507 30.2413 47.2771 30.7104 47.1766C32.3825 46.818 34.2816 46.2719 35.6554 44.315C36.9543 42.4651 37.5857 39.6788 37.7 35.2886C37.7147 35.1644 37.7284 35.0459 37.7415 34.9329L37.7687 34.7009L38.0747 34.7278L38.1535 34.7332C39.8566 34.8108 41.9391 34.4495 43.218 33.8552C44.2287 33.3861 47.4671 31.6757 46.7046 29.3665Z" fill="black"/>
<path d="M43.7923 29.8158C38.7283 30.8609 38.38 29.1457 38.38 29.1457C43.7267 21.209 45.9619 11.1345 44.0332 8.66883C38.7709 1.94288 29.662 5.12384 29.5099 5.20629L29.4611 5.21514C28.4605 5.00732 27.341 4.88365 26.0824 4.86305C23.7912 4.82557 22.053 5.46401 20.7341 6.46459C20.7341 6.46459 4.48456 -0.232211 5.24042 14.887C5.40116 18.1033 9.84875 39.2242 15.1536 32.8447C17.0925 30.5119 18.9661 28.5395 18.9661 28.5395C19.8965 29.1578 21.0104 29.4733 22.1782 29.36L22.2689 29.283C22.2407 29.5726 22.2536 29.8559 22.3052 30.1913C20.9386 31.7187 21.3403 31.9868 18.6083 32.5495C15.8439 33.1195 17.4678 34.134 18.5282 34.3994C19.8136 34.7208 22.7873 35.1763 24.7965 32.3625L24.7165 32.6836C25.2518 33.1127 25.6278 35.4742 25.5648 37.6153C25.5018 39.7562 25.4598 41.226 25.8815 42.3742C26.3037 43.5222 26.7241 46.1054 30.3155 45.3357C33.3163 44.6923 34.8714 43.0252 35.0878 40.2442C35.2413 38.2672 35.5888 38.5595 35.6106 36.7918L35.8893 35.9552C36.2107 33.2752 35.9404 32.4105 37.7892 32.8127L38.2387 32.8522C39.5992 32.914 41.3803 32.6332 42.4256 32.1472C44.6763 31.1022 46.0116 29.3575 43.7923 29.8158Z" fill="#336791"/>
<path d="M21.6854 16.3249C21.229 16.2614 20.8158 16.3202 20.6067 16.4786C20.4892 16.5677 20.4528 16.6709 20.4429 16.7419C20.4166 16.9302 20.5484 17.1383 20.6295 17.2457C20.8587 17.5496 21.1934 17.7584 21.5248 17.8044C21.5729 17.8112 21.6207 17.8142 21.6682 17.8142C22.2207 17.8142 22.7232 17.3838 22.7675 17.0661C22.8229 16.6682 22.2454 16.4028 21.6854 16.3249ZM36.8032 16.3376C36.7596 16.0257 36.2049 15.9367 35.6784 16.01C35.1525 16.0832 34.6428 16.3207 34.6853 16.6332C34.7193 16.8763 35.1582 17.2913 35.6775 17.2913C35.7214 17.2913 35.7657 17.2884 35.8104 17.2821C36.157 17.2341 36.4114 17.0138 36.5323 16.8869C36.7162 16.6934 36.8228 16.4777 36.8032 16.3376Z" fill="white"/>
<path d="M45.4775 29.6968C45.2844 29.1128 44.6628 28.9248 43.6303 29.1381C40.5645 29.7711 39.4665 29.3327 39.106 29.0671C41.489 25.4354 43.4495 21.0453 44.507 16.9495C45.008 15.0093 45.2847 13.2074 45.3073 11.7388C45.3324 10.1268 45.0579 8.94226 44.4919 8.21866C42.2098 5.30156 38.8605 3.7368 34.8062 3.69387C32.019 3.66253 29.664 4.37609 29.2075 4.57676C28.2461 4.3376 27.198 4.19076 26.057 4.17202C23.9647 4.13812 22.156 4.63927 20.6586 5.66081C20.0081 5.41858 18.3271 4.8413 16.2714 4.50998C12.7174 3.93763 9.89321 4.37132 7.87779 5.79964C5.47298 7.50407 4.36277 10.5508 4.57783 14.855C4.65019 16.3031 5.47502 20.7578 6.77661 25.024C8.48996 30.6392 10.3525 33.8179 12.312 34.4718C12.5413 34.5483 12.8058 34.6018 13.0975 34.6018C13.8123 34.6018 14.6887 34.2795 15.6005 33.1829C16.7127 31.8482 17.8631 30.5459 19.0505 29.2777C19.8208 29.6913 20.6671 29.9222 21.5326 29.9453C21.5343 29.968 21.5365 29.9907 21.5385 30.0132C21.3896 30.1909 21.2437 30.3712 21.101 30.554C20.5013 31.3156 20.3765 31.4742 18.446 31.8718C17.8969 31.9852 16.4385 32.2858 16.417 33.3086C16.3939 34.426 18.141 34.8953 18.3401 34.9451C19.0338 35.1188 19.7021 35.2045 20.3395 35.2045C21.8895 35.2045 23.2536 34.6948 24.3437 33.7088C24.3102 37.6923 24.4762 41.6177 24.9543 42.8137C25.346 43.7928 26.3025 46.1856 29.3243 46.1854C29.7677 46.1854 30.2557 46.1338 30.7926 46.0186C33.9463 45.3423 35.3158 43.9479 35.8455 40.8738C36.129 39.2308 36.6155 35.3078 36.8444 33.2033C37.3273 33.3541 37.949 33.4231 38.621 33.4229C40.0228 33.4229 41.6402 33.125 42.6546 32.654C43.794 32.1246 45.8504 30.8255 45.4775 29.6968ZM37.9672 15.4768C37.9568 16.098 37.8714 16.662 37.7808 17.2507C37.6832 17.8838 37.5824 18.5384 37.557 19.3331C37.532 20.1064 37.6285 20.9104 37.7219 21.6881C37.9105 23.2586 38.1041 24.8755 37.3547 26.4709C37.2302 26.2503 37.1194 26.0222 37.0227 25.788C36.9295 25.5622 36.7273 25.1993 36.4471 24.6972C35.3575 22.7423 32.806 18.1646 34.1121 16.2966C34.5012 15.7406 35.4886 15.1689 37.9672 15.4768ZM34.9629 4.95185C38.5955 5.03208 41.4691 6.39157 43.5036 8.99234C45.064 10.9873 43.3457 20.0642 38.3715 27.895C38.3215 27.8313 38.2711 27.7679 38.2205 27.7047L38.1575 27.626C39.443 25.5023 39.1917 23.4012 38.968 21.5383C38.876 20.7738 38.7891 20.0518 38.8113 19.3735C38.8341 18.6546 38.9291 18.038 39.021 17.4418C39.134 16.7071 39.2489 15.9468 39.2172 15.0507C39.2409 14.9567 39.2504 14.8456 39.238 14.7138C39.1571 13.8544 38.1763 11.2824 36.1773 8.95451C35.0837 7.68123 33.4891 6.25632 31.3118 5.29526C32.2483 5.10106 33.529 4.91999 34.9629 4.95185ZM14.6355 32.3803C13.631 33.5887 12.9372 33.357 12.709 33.281C11.2225 32.785 9.49763 29.6418 7.97689 24.6577C6.66099 20.3449 5.89203 16.0082 5.83107 14.7922C5.63899 10.9462 6.57092 8.26584 8.60113 6.82543C11.9052 4.48153 17.3374 5.88446 19.5201 6.59598C19.4888 6.62698 19.4561 6.65594 19.4251 6.68746C15.8431 10.3062 15.9281 16.4889 15.937 16.8669C15.9366 17.0127 15.9489 17.2192 15.9656 17.5031C16.0272 18.5431 16.142 20.4785 15.8355 22.6703C15.5508 24.707 16.1785 26.7005 17.5572 28.1398C17.6986 28.2872 17.8474 28.4275 18.0028 28.5602C17.3891 29.2177 16.0553 30.6717 14.6355 32.3803ZM18.4632 27.2712C17.352 26.1112 16.8473 24.4977 17.0784 22.844C17.4019 20.5288 17.2825 18.5123 17.2183 17.4288C17.2093 17.2773 17.2013 17.1443 17.1967 17.0396C17.72 16.5754 20.1449 15.2758 21.8742 15.6721C22.6633 15.8528 23.1441 16.3904 23.344 17.3151C24.3786 22.1022 23.481 24.0973 22.7596 25.7008C22.611 26.0311 22.4705 26.3433 22.3506 26.6663L22.2576 26.916C22.0223 27.5473 21.8034 28.1343 21.6676 28.6917C20.4863 28.6883 19.337 28.1835 18.4632 27.2712ZM18.6445 33.7271C18.2995 33.6409 17.9893 33.4912 17.8073 33.367C17.9594 33.2955 18.23 33.198 18.6992 33.1013C20.9702 32.6337 21.321 32.3036 22.0869 31.3308C22.2625 31.1076 22.4615 30.8548 22.7371 30.5468C23.1477 30.0869 23.3359 30.1646 23.6764 30.306C23.9525 30.4201 24.2213 30.7663 24.3303 31.1472C24.3819 31.327 24.4398 31.6683 24.2502 31.9341C22.6503 34.1751 20.3189 34.1463 18.6445 33.7271ZM30.5297 44.7912C27.7515 45.3867 26.7678 43.9686 26.1195 42.3474C25.7011 41.3008 25.4955 36.5813 25.6414 31.3694C25.6433 31.3001 25.6334 31.2332 25.6143 31.1701C25.5973 31.0457 25.5713 30.9226 25.5367 30.8018C25.3197 30.0435 24.791 29.4092 24.1567 29.1462C23.9047 29.0417 23.4423 28.8501 22.8865 28.9923C23.005 28.5038 23.2105 27.952 23.4334 27.3547L23.5269 27.1034C23.6321 26.8201 23.7643 26.5266 23.9039 26.2159C24.6587 24.5384 25.6925 22.2407 24.5705 17.0498C24.1503 15.1056 22.7469 14.1561 20.6195 14.3767C19.344 14.5087 18.1771 15.0234 17.5951 15.3187C17.47 15.382 17.3555 15.4433 17.2486 15.503C17.411 13.544 18.0247 9.88309 20.3204 7.56676C21.7659 6.10864 23.6909 5.38843 26.0363 5.42727C30.6575 5.5029 33.621 7.87541 35.2935 9.85259C36.7347 11.5562 37.5151 13.2723 37.8265 14.198C35.4844 13.9597 33.8915 14.4222 33.084 15.5771C31.3273 18.0893 34.045 22.9651 35.3512 25.3085C35.5908 25.7379 35.7975 26.1091 35.8626 26.2668C36.288 27.2981 36.8386 27.9866 37.2406 28.4891C37.364 28.6431 37.4835 28.7925 37.5744 28.923C36.865 29.1276 35.5908 29.6003 35.707 31.9631C35.6133 33.1487 34.9474 38.6994 34.609 40.6605C34.1624 43.2514 33.2094 44.2163 30.5297 44.7912ZM42.1262 31.5154C41.4009 31.8522 40.187 32.1048 39.0338 32.1592C37.7601 32.2188 37.1117 32.0164 36.9592 31.8918C36.8876 30.4194 37.4355 30.2656 38.0152 30.1028C38.1063 30.0773 38.1952 30.0522 38.281 30.0222C38.3343 30.0657 38.3927 30.1088 38.4568 30.151C39.4805 30.8269 41.3064 30.8998 43.8841 30.3675L43.9125 30.3618C43.5647 30.687 42.9698 31.1234 42.1262 31.5154Z" fill="white"/>
</g>
</svg>
