<svg width="53" height="53" viewBox="0 0 53 53" fill="none" xmlns="http://www.w3.org/2000/svg">
<path d="M4.27898 10.1889H8.79009C9.33105 10.1889 9.75595 9.76463 9.75595 9.22457V7.94182H17.9381C12.2197 10.6519 7.96946 16.0045 6.80053 22.3989C5.0811 22.6979 3.76707 24.2023 3.76707 26.0058C3.76707 28.0313 5.41902 29.6704 7.43768 29.6704C9.46646 29.6704 11.1082 28.0308 11.1082 26.0058C11.1082 24.4336 10.123 23.1027 8.73183 22.5821C10.123 15.3683 15.8511 9.65845 23.0675 8.26969C23.5894 9.65857 24.9322 10.6423 26.4971 10.6423C28.0719 10.6423 29.4147 9.65861 29.9362 8.26969C37.152 9.64895 42.8809 15.3773 44.2719 22.5821C42.8808 23.1028 41.8857 24.434 41.8857 26.0058C41.8857 28.0313 43.5376 29.6704 45.566 29.6704C47.5851 29.6704 49.2366 28.0308 49.2366 26.0058C49.2366 24.2023 47.923 22.6979 46.2032 22.3989C45.0343 16.0049 40.7841 10.6522 35.0552 7.94182H43.2374V9.22457C43.2374 9.76464 43.672 10.1889 44.2032 10.1889H48.7152C49.2561 10.1889 49.681 9.76463 49.681 9.22457V4.72079C49.681 4.19041 49.2561 3.75651 48.7152 3.75651H44.2041C43.6728 3.75651 43.2382 4.19041 43.2382 4.72079V6.01325L30.0421 6.01285C29.6268 4.4605 28.1872 3.3125 26.4968 3.3125C24.8064 3.3125 23.3764 4.45999 22.9613 6.01285H9.75574V4.7208C9.75574 4.19042 9.33083 3.75652 8.7899 3.75652L4.27836 3.75611C3.74711 3.75611 3.3125 4.19001 3.3125 4.72039V9.22417C3.3125 9.76465 3.74773 10.1889 4.27898 10.1889Z" fill="#282689"/>
<path d="M16.3792 28.9197L21.2415 37.4247H31.7736L36.6361 28.9197C36.81 28.6109 36.8002 28.2254 36.607 27.9166L27.4731 13.6921V22.9814C28.7107 23.3898 29.6127 24.5422 29.6127 25.9138C29.6127 27.6232 28.2194 29.0141 26.5073 29.0141C24.7951 29.0141 23.402 27.6232 23.402 25.9138C23.402 24.5423 24.3038 23.3898 25.5414 22.9814V13.6932L16.4085 27.9158C16.2152 28.2245 16.2054 28.6108 16.3792 28.9197Z" fill="#282689"/>
<path d="M21.2314 48.7176C21.2314 49.2479 21.666 49.6819 22.1974 49.6819H30.8043C31.3356 49.6819 31.7702 49.2479 31.7702 48.7176V39.3532H21.2319L21.2314 48.7176Z" fill="#E7ECF8"/>
</svg>
