<svg width="53" height="53" viewBox="0 0 53 53" fill="none" xmlns="http://www.w3.org/2000/svg">
<path d="M20.8939 42.5759C20.8939 39.6997 19.0366 37.2551 16.4611 36.3613C17.6545 35.6332 18.4561 34.3225 18.4561 32.8247C18.4561 30.5396 16.5971 28.6803 14.3117 28.6803C12.0266 28.6803 10.1673 30.5396 10.1673 32.8247C10.1673 34.3225 10.9685 35.6332 12.1623 36.3613C9.58673 37.2551 7.72949 39.6997 7.72949 42.5759C7.72949 42.8452 7.94783 43.0635 8.21719 43.0635H20.4061C20.6755 43.0635 20.8939 42.8452 20.8939 42.5759Z" fill="#F4AF10"/>
<path d="M40.8387 13.2019C42.0324 12.4738 42.8341 11.163 42.8341 9.66526C42.8341 7.38017 40.9751 5.52084 38.6897 5.52084C36.4046 5.52084 34.5452 7.38009 34.5452 9.66526C34.5452 11.163 35.3465 12.4738 36.5402 13.2019C33.9647 14.0957 32.1074 16.5402 32.1074 19.4163C32.1074 19.6858 32.3258 19.904 32.5951 19.904H44.784C45.0534 19.904 45.2717 19.6861 45.2717 19.4163C45.2717 16.5402 43.4146 14.0957 40.8387 13.2019Z" fill="#F4AF10"/>
<path d="M13.0957 24.7763C13.3651 24.7763 13.5834 24.5583 13.5834 24.2886C13.5834 17.582 18.7202 12.0544 25.2656 11.4293L23.7205 12.9744C23.5302 13.1647 23.5302 13.4733 23.7205 13.6637C23.8158 13.7589 23.9406 13.8065 24.0655 13.8065C24.1902 13.8065 24.315 13.7589 24.4103 13.6637L26.8481 11.2259C26.895 11.179 26.9293 11.1249 26.9531 11.0675C26.9769 11.01 26.9908 10.947 26.9908 10.8811C26.9908 10.8151 26.9769 10.7522 26.9531 10.6947C26.9293 10.6372 26.8947 10.5831 26.8481 10.5362L24.4103 8.09843C24.2198 7.90799 23.9113 7.90799 23.7209 8.09843C23.5305 8.28889 23.5305 8.59735 23.7209 8.78781L25.3761 10.4431C18.2397 11.0195 12.6074 17.0069 12.6074 24.2888C12.6074 24.5582 12.8263 24.7763 13.0957 24.7763Z" fill="#C6CBD6"/>
<path d="M29.283 34.9171C29.0925 34.7266 28.7842 34.7266 28.5937 34.9171L26.1559 37.3548C26.109 37.4018 26.0745 37.4559 26.0508 37.5133C26.0266 37.5708 26.0127 37.6338 26.0127 37.6997C26.0127 37.7657 26.0266 37.8286 26.0505 37.8861C26.0742 37.9436 26.109 37.9976 26.1556 38.0446L28.5934 40.4824C28.6885 40.5776 28.8133 40.6252 28.9382 40.6252C29.063 40.6252 29.1878 40.5776 29.283 40.4824C29.4735 40.2919 29.4735 39.9834 29.283 39.793L27.6278 38.1377C34.7639 37.5612 40.3957 31.5739 40.3957 24.292C40.3957 24.0226 40.1773 23.8043 39.908 23.8043C39.6386 23.8043 39.4203 24.0223 39.4203 24.292C39.4203 30.9986 34.2835 36.5262 27.7381 37.1513L29.2831 35.6063C29.4735 35.4161 29.4734 35.1075 29.283 34.9171Z" fill="#C6CBD6"/>
</svg>
