<svg width="53" height="53" viewBox="0 0 53 53" fill="none" xmlns="http://www.w3.org/2000/svg">
<g clip-path="url(#clip0_2625_344)">
<mask id="mask0_2625_344" style="mask-type:luminance" maskUnits="userSpaceOnUse" x="0" y="0" width="53" height="53">
<path d="M53 0H0V53H53V0Z" fill="white"/>
</mask>
<g mask="url(#mask0_2625_344)">
<path d="M52.9309 44.6179H32.9502V21.0089H52.9309V44.6179ZM42.912 36.9809C40.9331 36.9809 38.9532 36.9809 36.9743 36.9809C36.8712 36.9809 36.7387 36.9476 36.6706 36.9986C36.5555 37.0838 36.4175 37.2192 36.4073 37.3434C36.3999 37.4436 36.5509 37.5817 36.6623 37.6559C36.7359 37.705 36.8629 37.6753 36.9669 37.6753C40.9488 37.6753 44.9305 37.6753 48.9114 37.6753C49.0035 37.6753 49.123 37.7088 49.182 37.6633C49.3044 37.5697 49.4627 37.4399 49.4765 37.311C49.4866 37.2137 49.3109 37.0709 49.1894 36.993C49.1148 36.9448 48.9878 36.9801 48.8838 36.9791C46.8928 36.9791 44.902 36.9791 42.9111 36.9791L42.912 36.9809ZM42.9424 40.4596C44.9213 40.4596 46.9011 40.4596 48.8801 40.4596C48.9831 40.4596 49.1148 40.4957 49.1848 40.4457C49.309 40.3567 49.4637 40.2213 49.4765 40.0925C49.4858 39.9951 49.3062 39.8588 49.1866 39.7764C49.123 39.7327 49.008 39.7642 48.916 39.7642C44.9342 39.7642 40.9524 39.7642 36.9716 39.7642C36.8684 39.7642 36.7415 39.7336 36.6669 39.7828C36.5546 39.857 36.4009 39.9923 36.4073 40.0925C36.4156 40.2167 36.5519 40.3539 36.6669 40.4402C36.7349 40.4912 36.8667 40.4587 36.9706 40.4587C38.9615 40.4587 40.9524 40.4587 42.9433 40.4587L42.9424 40.4596ZM40.8788 31.4163C39.5552 31.4163 38.2325 31.418 36.909 31.4144C36.6466 31.4144 36.3908 31.4412 36.3954 31.7731C36.3999 32.0791 36.643 32.1134 36.8943 32.1126C39.5405 32.1097 42.1877 32.1097 44.8339 32.1126C45.0961 32.1126 45.3548 32.0837 45.3466 31.7528C45.3383 31.4218 45.0695 31.4134 44.8136 31.4134C43.5021 31.4163 42.1904 31.4153 40.8779 31.4153L40.8788 31.4163ZM40.8631 34.8948C42.1057 34.8948 43.3482 34.8948 44.5918 34.8948C44.7068 34.8948 44.8219 34.8948 44.9369 34.8948C45.1781 34.8967 45.354 34.7966 45.3502 34.538C45.3466 34.3006 45.1808 34.1995 44.9535 34.1995C44.8845 34.1995 44.8155 34.1995 44.7464 34.1995C42.1573 34.1995 39.5681 34.1995 36.979 34.1995C36.9098 34.1995 36.8408 34.1985 36.7718 34.2004C36.5426 34.2069 36.3604 34.3265 36.4055 34.5528C36.4322 34.6844 36.6245 34.7948 36.7599 34.8884C36.8151 34.9264 36.9164 34.8958 36.9973 34.8958C38.286 34.8958 39.5745 34.8958 40.8641 34.8958L40.8631 34.8948ZM39.5754 27.932C39.6279 27.8828 39.7586 27.8115 39.8138 27.7021C40.4986 26.3401 41.1798 24.9753 41.8397 23.6004C41.8941 23.4864 41.8397 23.2536 41.7514 23.1516C41.5948 22.9708 41.3556 23.0655 41.2129 23.3482C40.772 24.2253 40.3375 25.1061 39.9013 25.9859C39.6703 26.4514 39.4338 26.9149 39.2109 27.3841C39.0766 27.6687 39.2266 27.9412 39.5754 27.932ZM36.5077 25.5001C36.8905 25.1236 37.2348 24.7853 37.5781 24.4469C37.7493 24.2772 37.8606 24.0861 37.6564 23.8767C37.453 23.668 37.2633 23.7738 37.0921 23.948C36.6871 24.3579 36.2776 24.763 35.8754 25.1765C35.6185 25.4417 35.6232 25.5733 35.8928 25.8496C36.2794 26.2456 36.6725 26.6349 37.0608 27.029C37.2348 27.2051 37.4235 27.3581 37.6499 27.1365C37.8754 26.9158 37.7383 26.7184 37.5598 26.5423C37.2246 26.2103 36.8896 25.8783 36.5077 25.5001ZM44.5605 25.5038C44.1546 25.8997 43.7993 26.2446 43.4467 26.5914C43.2783 26.7573 43.2083 26.9465 43.397 27.1346C43.5866 27.3238 43.7717 27.2468 43.9373 27.08C44.3516 26.6627 44.7639 26.2437 45.1818 25.8311C45.4082 25.6067 45.4064 25.399 45.1808 25.1765C44.7704 24.7714 44.3663 24.3606 43.9613 23.9508C43.7901 23.7774 43.6023 23.668 43.3962 23.8748C43.1909 24.0815 43.2968 24.2735 43.4707 24.4431C43.8167 24.7797 44.1628 25.1172 44.5605 25.5038Z" fill="#FF8000"/>
<path d="M32.9502 20.2613C32.9769 19.6614 32.9474 19.0764 33.0376 18.5109C33.2604 17.1192 34.4395 16.1179 35.8431 16.1151C40.6045 16.1058 45.3668 16.104 50.1282 16.1151C51.7132 16.1188 52.965 17.3954 52.9953 18.9902C53.0036 19.4056 52.9962 19.8219 52.9962 20.2603L32.9502 20.2613Z" fill="#FF8000"/>
<path d="M52.9994 45.3524C52.9727 45.9532 52.9994 46.5373 52.9101 47.1028C52.6901 48.4815 51.5221 49.493 50.1396 49.4968C45.3553 49.5097 40.5708 49.5116 35.7864 49.4968C34.2402 49.4921 32.9901 48.2099 32.9553 46.6579C32.9451 46.2313 32.9534 45.8039 32.9534 45.3534L52.9994 45.3524Z" fill="#D0D4DD"/>
<path d="M51.5367 22.7882H34.4385V42.8274H51.5367V22.7882Z" fill="#FF8000"/>
<path d="M47.8549 32.9909C47.1298 32.3927 46.4379 31.8282 45.7549 31.2533C45.6407 31.157 45.526 31.0264 45.4811 30.8891C45.4034 30.6495 45.4877 30.4288 45.7123 30.2949C45.9434 30.1565 46.1707 30.1903 46.3775 30.3601C47.1664 31.0098 47.9552 31.6606 48.7436 32.3109C48.85 32.3988 48.9614 32.4818 49.0612 32.5764C49.3162 32.8166 49.3328 33.1769 49.0662 33.4005C48.157 34.1646 47.2396 34.9195 46.3165 35.6671C46.0709 35.8663 45.7334 35.8054 45.5543 35.568C45.3763 35.3323 45.4124 35.0163 45.6635 34.8061C46.2772 34.2914 46.8981 33.785 47.5156 33.2748C47.6204 33.1885 47.7241 33.1004 47.8538 32.9915L47.8549 32.9909Z" fill="#D0D4DD"/>
<path d="M38.0817 32.9949C38.7009 33.5061 39.2951 33.9965 39.8894 34.4867C40.0241 34.598 40.1649 34.7032 40.2924 34.8215C40.5258 35.0385 40.5447 35.3595 40.3467 35.5875C40.1616 35.8005 39.834 35.8431 39.6005 35.6533C38.687 34.9112 37.7768 34.1635 36.8743 33.4082C36.5942 33.1741 36.6015 32.8017 36.8825 32.567C37.7723 31.8245 38.6676 31.089 39.5651 30.3552C39.8257 30.1422 40.161 30.171 40.354 30.4045C40.5602 30.6541 40.5209 30.9734 40.242 31.2058C39.6062 31.7354 38.9648 32.2594 38.3261 32.7862C38.2557 32.8443 38.1864 32.9052 38.0817 32.9949Z" fill="#D0D4DD"/>
<path d="M41.7226 36.144C41.3384 36.1457 41.0817 35.7832 41.212 35.4201C41.2336 35.3599 41.2624 35.3018 41.2918 35.2448C42.0845 33.7008 42.8789 32.158 43.6689 30.6124C43.7909 30.3739 43.9461 30.2018 44.2383 30.2134C44.5964 30.2278 44.8392 30.5703 44.7316 30.9124C44.7122 30.9732 44.6817 31.0307 44.6524 31.0877C43.8518 32.6484 43.0502 34.2083 42.2515 35.7694C42.1388 35.9897 41.9876 36.1446 41.7226 36.144Z" fill="#D0D4DD"/>
<path d="M43.3608 48.7637C44.182 48.7637 44.8476 48.0991 44.8476 47.2793C44.8476 46.4595 44.182 45.7949 43.3608 45.7949C42.5397 45.7949 41.874 46.4595 41.874 47.2793C41.874 48.0991 42.5397 48.7637 43.3608 48.7637Z" fill="white"/>
<path d="M52.9309 44.6226H32.9502V21.0137H52.9309V44.6226ZM42.912 36.9857C40.9331 36.9857 38.9532 36.9857 36.9743 36.9857C36.8712 36.9857 36.7387 36.9523 36.6706 37.0033C36.5555 37.0886 36.4175 37.2239 36.4073 37.3482C36.3999 37.4483 36.5509 37.5864 36.6623 37.6606C36.7359 37.7098 36.8629 37.6801 36.9669 37.6801C40.9488 37.6801 44.9305 37.6801 48.9114 37.6801C49.0035 37.6801 49.123 37.7135 49.182 37.668C49.3044 37.5744 49.4627 37.4447 49.4765 37.3158C49.4866 37.2184 49.3109 37.0757 49.1894 36.9977C49.1148 36.9496 48.9878 36.9848 48.8838 36.9838C46.8928 36.9838 44.902 36.9838 42.9111 36.9838L42.912 36.9857ZM42.9424 40.4643C44.9213 40.4643 46.9011 40.4643 48.8801 40.4643C48.9831 40.4643 49.1148 40.5006 49.1848 40.4504C49.309 40.3614 49.4637 40.2261 49.4765 40.0972C49.4858 39.9998 49.3062 39.8636 49.1866 39.7811C49.123 39.7375 49.008 39.7689 48.916 39.7689C44.9342 39.7689 40.9524 39.7689 36.9716 39.7689C36.8684 39.7689 36.7415 39.7384 36.6669 39.7875C36.5546 39.8617 36.4009 39.9971 36.4073 40.0972C36.4156 40.2214 36.5519 40.3587 36.6669 40.4449C36.7349 40.4959 36.8667 40.4635 36.9706 40.4635C38.9615 40.4635 40.9524 40.4635 42.9433 40.4635L42.9424 40.4643ZM40.8788 31.421C39.5552 31.421 38.2325 31.4228 36.909 31.4191C36.6466 31.4191 36.3908 31.4459 36.3954 31.7779C36.3999 32.0838 36.643 32.1182 36.8943 32.1173C39.5405 32.1144 42.1877 32.1144 44.8339 32.1173C45.0961 32.1173 45.3548 32.0885 45.3466 31.7575C45.3383 31.4265 45.0695 31.4181 44.8136 31.4181C43.5021 31.421 42.1904 31.42 40.8779 31.42L40.8788 31.421ZM40.8631 34.8996C42.1057 34.8996 43.3482 34.8996 44.5918 34.8996C44.7068 34.8996 44.8219 34.8996 44.9369 34.8996C45.1781 34.9014 45.354 34.8013 45.3502 34.5427C45.3466 34.3053 45.1808 34.2043 44.9535 34.2043C44.8845 34.2043 44.8155 34.2043 44.7464 34.2043C42.1573 34.2043 39.5681 34.2043 36.979 34.2043C36.9098 34.2043 36.8408 34.2033 36.7718 34.2052C36.5426 34.2117 36.3604 34.3312 36.4055 34.5575C36.4322 34.6891 36.6245 34.7995 36.7599 34.8932C36.8151 34.9311 36.9164 34.9006 36.9973 34.9006C38.286 34.9006 39.5745 34.9006 40.8641 34.9006L40.8631 34.8996ZM39.5754 27.9367C39.6279 27.8876 39.7586 27.8162 39.8138 27.7068C40.4986 26.3448 41.1798 24.9801 41.8397 23.6052C41.8941 23.4911 41.8397 23.2583 41.7514 23.1564C41.5948 22.9756 41.3556 23.0702 41.2129 23.353C40.772 24.23 40.3375 25.1108 39.9013 25.9907C39.6703 26.4561 39.4338 26.9196 39.2109 27.3888C39.0766 27.6735 39.2266 27.946 39.5754 27.9367ZM36.5077 25.5049C36.8905 25.1285 37.2348 24.79 37.5781 24.4516C37.7493 24.2819 37.8606 24.0909 37.6564 23.8814C37.453 23.6728 37.2633 23.7785 37.0921 23.9527C36.6871 24.3626 36.2776 24.7677 35.8754 25.1812C35.6185 25.4465 35.6232 25.5781 35.8928 25.8543C36.2794 26.2503 36.6725 26.6396 37.0608 27.0337C37.2348 27.2098 37.4235 27.3629 37.6499 27.1412C37.8754 26.9206 37.7383 26.7231 37.5598 26.547C37.2246 26.2151 36.8896 25.8832 36.5077 25.5049ZM44.5605 25.5085C44.1546 25.9045 43.7993 26.2493 43.4467 26.5961C43.2783 26.7621 43.2083 26.9512 43.397 27.1394C43.5866 27.3285 43.7717 27.2515 43.9373 27.0847C44.3516 26.6674 44.7639 26.2484 45.1818 25.8358C45.4082 25.6114 45.4064 25.4037 45.1808 25.1812C44.7704 24.7761 44.3663 24.3654 43.9613 23.9556C43.7901 23.7821 43.6023 23.6728 43.3962 23.8795C43.1909 24.0863 43.2968 24.2782 43.4707 24.4478C43.8167 24.7844 44.1628 25.1219 44.5605 25.5085Z" fill="#FF8000"/>
<path d="M32.9502 20.2613C32.9769 19.6614 32.9474 19.0764 33.0376 18.5109C33.2604 17.1192 34.4395 16.1179 35.8431 16.1151C40.6045 16.1058 45.3668 16.104 50.1282 16.1151C51.7132 16.1188 52.965 17.3954 52.9953 18.9902C53.0036 19.4056 52.9962 19.8219 52.9962 20.2603L32.9502 20.2613Z" fill="#FF8000"/>
<path d="M52.9994 45.5332C52.9727 46.134 52.9994 46.7181 52.9101 47.2836C52.6901 48.6623 51.5221 49.6738 50.1396 49.6776C45.3553 49.6905 40.5708 49.6924 35.7864 49.6776C34.2402 49.6729 32.9901 48.3907 32.9553 46.8387C32.9451 46.4121 32.9534 45.9847 32.9534 45.5341L52.9994 45.5332Z" fill="#E2E1E1"/>
<path d="M51.5387 22.79H34.4404V42.8292H51.5387V22.79Z" fill="#FF8000"/>
<path d="M42.894 48.7148C43.5528 48.7148 44.0869 48.1807 44.0869 47.5219C44.0869 46.8632 43.5528 46.3291 42.894 46.3291C42.2352 46.3291 41.7012 46.8632 41.7012 47.5219C41.7012 48.1807 42.2352 48.7148 42.894 48.7148Z" fill="white"/>
<path d="M22.1887 32.5932H2.20801V8.98438H22.1887V32.5932ZM12.1698 24.9563C10.1909 24.9563 8.21105 24.9563 6.23213 24.9563C6.12904 24.9563 5.9965 24.923 5.92839 24.9739C5.81333 25.0593 5.67527 25.1946 5.66514 25.3188C5.65778 25.419 5.80873 25.5571 5.92011 25.6313C5.99374 25.6805 6.12075 25.6508 6.22477 25.6508C10.2065 25.6508 14.1883 25.6508 18.1692 25.6508C18.2613 25.6508 18.3808 25.6841 18.4398 25.6387C18.5623 25.5451 18.7205 25.4152 18.7343 25.2864C18.7444 25.1891 18.5687 25.0462 18.4472 24.9684C18.3726 24.9201 18.2456 24.9555 18.1416 24.9545C16.1507 24.9545 14.1598 24.9545 12.1689 24.9545L12.1698 24.9563ZM12.2002 28.435C14.1792 28.435 16.1589 28.435 18.1379 28.435C18.2409 28.435 18.3726 28.4711 18.4426 28.4211C18.5668 28.3321 18.7215 28.1967 18.7343 28.0679C18.7436 27.9705 18.564 27.8342 18.4444 27.7517C18.3808 27.7081 18.2658 27.7396 18.1738 27.7396C14.192 27.7396 10.2102 27.7396 6.22937 27.7396C6.12628 27.7396 5.99926 27.709 5.92471 27.7582C5.81242 27.8324 5.65871 27.9677 5.66514 28.0679C5.67342 28.1921 5.80966 28.3294 5.92471 28.4155C5.99281 28.4665 6.12444 28.434 6.22844 28.434C8.21933 28.434 10.2102 28.434 12.2012 28.434L12.2002 28.435ZM10.1366 19.3916C8.81301 19.3916 7.49036 19.3934 6.16678 19.3898C5.90446 19.3898 5.64858 19.4166 5.65317 19.7485C5.65778 20.0545 5.90077 20.0888 6.15205 20.0879C8.79829 20.0851 11.4455 20.0851 14.0917 20.0879C14.3541 20.0879 14.6127 20.0591 14.6044 19.7281C14.5961 19.3972 14.3273 19.3888 14.0714 19.3888C12.7599 19.3916 11.4482 19.3907 10.1357 19.3907L10.1366 19.3916ZM10.121 22.8702C11.3635 22.8702 12.6061 22.8702 13.8496 22.8702C13.9646 22.8702 14.0797 22.8702 14.1947 22.8702C14.4359 22.8721 14.6118 22.772 14.608 22.5133C14.6044 22.276 14.4386 22.1749 14.2113 22.1749C14.1423 22.1749 14.0733 22.1749 14.0043 22.1749C11.4151 22.1749 8.8259 22.1749 6.23674 22.1749C6.1677 22.1749 6.09867 22.174 6.02964 22.1758C5.80045 22.1823 5.6182 22.3019 5.6633 22.5282C5.69 22.6598 5.88237 22.7701 6.01767 22.8637C6.0729 22.9018 6.17414 22.8712 6.25514 22.8712C7.54374 22.8712 8.83234 22.8712 10.1219 22.8712L10.121 22.8702ZM8.83326 15.9074C8.88573 15.8582 9.01643 15.7869 9.07166 15.6775C9.75646 14.3155 10.4376 12.9507 11.0975 11.5757C11.1519 11.4617 11.0975 11.229 11.0092 11.127C10.8527 10.9462 10.6134 11.0408 10.4707 11.3235C10.0298 12.2007 9.59538 13.0815 9.1591 13.9613C8.92807 14.4267 8.69152 14.8903 8.46878 15.3595C8.33439 15.644 8.48442 15.9166 8.83326 15.9074ZM5.76547 13.4754C6.14837 13.099 6.49262 12.7606 6.83593 12.4223C7.00714 12.2526 7.1185 12.0616 6.91416 11.8521C6.71075 11.6434 6.52115 11.7491 6.34995 11.9234C5.94496 12.3332 5.53536 12.7384 5.13313 13.1519C4.87634 13.417 4.88094 13.5488 5.15062 13.825C5.5372 14.2209 5.93023 14.6103 6.31865 15.0044C6.49262 15.1805 6.6813 15.3335 6.90773 15.1119C7.13323 14.8912 6.99608 14.6938 6.81753 14.5176C6.48249 14.1856 6.14745 13.8537 5.76547 13.4754ZM13.8183 13.4792C13.4124 13.875 13.0571 14.22 12.7045 14.5667C12.5362 14.7326 12.4662 14.9218 12.6549 15.11C12.8446 15.2992 13.0295 15.2222 13.1952 15.0553C13.6094 14.6381 14.0217 14.2191 14.4396 13.8065C14.666 13.5821 14.6642 13.3744 14.4386 13.1519C14.0282 12.7467 13.6241 12.3361 13.2191 11.9262C13.0479 11.7528 12.8601 11.6434 12.654 11.8502C12.4487 12.0569 12.5546 12.2488 12.7285 12.4185C13.0747 12.7551 13.4206 13.0925 13.8183 13.4792Z" fill="#FF8000"/>
<path d="M2.20801 8.2359C2.2347 7.63604 2.20525 7.05101 2.29545 6.48544C2.51819 5.09379 3.69726 4.09248 5.10092 4.0897C9.8623 4.08042 14.6246 4.07857 19.386 4.0897C20.971 4.09341 22.2228 5.37009 22.2532 6.96478C22.2614 7.38014 22.254 7.79643 22.254 8.23497L2.20801 8.2359Z" fill="#FF8000"/>
<path d="M22.2572 33.3274C22.2305 33.9281 22.2572 34.5122 22.168 35.0778C21.948 36.4565 20.78 37.468 19.3975 37.4717C14.6131 37.4847 9.82868 37.4865 5.04428 37.4717C3.49796 37.4671 2.24801 36.1848 2.21304 34.6328C2.20292 34.2063 2.2112 33.7789 2.2112 33.3282L22.2572 33.3274Z" fill="#D0D4DD"/>
<path d="M20.7945 10.7627H3.69629V30.8019H20.7945V10.7627Z" fill="#FF8000"/>
<path d="M17.1146 20.9656C16.3895 20.3674 15.6976 19.8029 15.0147 19.228C14.9005 19.1317 14.7857 19.0011 14.7409 18.8638C14.6632 18.6242 14.7475 18.4034 14.972 18.2694C15.2032 18.1312 15.4304 18.1649 15.6372 18.3348C16.4262 18.9845 17.215 19.6353 18.0032 20.2854C18.1097 20.3734 18.2211 20.4565 18.3209 20.5511C18.576 20.7912 18.5925 21.1515 18.3259 21.375C17.4167 22.1393 16.4993 22.8941 15.5763 23.6418C15.3307 23.841 14.9931 23.7801 14.8141 23.5427C14.6361 23.307 14.6721 22.991 14.9233 22.7806C15.5369 22.266 16.1578 21.7597 16.7754 21.2495C16.8801 21.1631 16.9838 21.0751 17.1135 20.9661L17.1146 20.9656Z" fill="#D0D4DD"/>
<path d="M7.3414 20.9693C7.96063 21.4806 8.5549 21.971 9.14918 22.4612C9.28389 22.5724 9.4247 22.6776 9.5522 22.796C9.78559 23.013 9.80444 23.3339 9.60653 23.5618C9.42137 23.775 9.09374 23.8176 8.86036 23.6278C7.94677 22.8857 7.0365 22.138 6.134 21.3827C5.85404 21.1486 5.86125 20.7761 6.14232 20.5415C7.03207 19.7988 7.92737 19.0635 8.82488 18.3296C9.08543 18.1167 9.42082 18.1454 9.61374 18.3789C9.81996 18.6285 9.7806 18.9478 9.50176 19.1802C8.8659 19.7099 8.2245 20.2339 7.58587 20.7607C7.51547 20.8188 7.44617 20.8796 7.3414 20.9693Z" fill="#D0D4DD"/>
<path d="M10.9823 24.1196C10.5981 24.1213 10.3415 23.7588 10.4718 23.3957C10.4934 23.3354 10.5222 23.2774 10.5516 23.2203C11.3443 21.6764 12.1388 20.1336 12.9287 18.588C13.0507 18.3495 13.2058 18.1773 13.498 18.189C13.8562 18.2034 14.099 18.5459 13.9914 18.8879C13.972 18.9488 13.9415 19.0063 13.9122 19.0633C13.1117 20.6238 12.31 22.1838 11.5112 23.745C11.3986 23.9652 11.2473 24.1202 10.9823 24.1196Z" fill="#D0D4DD"/>
<path d="M12.6186 36.7382C13.4398 36.7382 14.1054 36.0736 14.1054 35.2538C14.1054 34.434 13.4398 33.7694 12.6186 33.7694C11.7975 33.7694 11.1318 34.434 11.1318 35.2538C11.1318 36.0736 11.7975 36.7382 12.6186 36.7382Z" fill="white"/>
<path d="M22.1887 32.5932H2.20801V8.98438H22.1887V32.5932ZM12.1698 24.9563C10.1909 24.9563 8.21105 24.9563 6.23213 24.9563C6.12904 24.9563 5.9965 24.923 5.92839 24.9739C5.81333 25.0593 5.67527 25.1946 5.66514 25.3188C5.65778 25.419 5.80873 25.5571 5.92011 25.6313C5.99374 25.6805 6.12075 25.6508 6.22477 25.6508C10.2065 25.6508 14.1883 25.6508 18.1692 25.6508C18.2613 25.6508 18.3808 25.6841 18.4398 25.6387C18.5623 25.5451 18.7205 25.4152 18.7343 25.2864C18.7444 25.1891 18.5687 25.0462 18.4472 24.9684C18.3726 24.9201 18.2456 24.9555 18.1416 24.9545C16.1507 24.9545 14.1598 24.9545 12.1689 24.9545L12.1698 24.9563ZM12.2002 28.435C14.1792 28.435 16.1589 28.435 18.1379 28.435C18.2409 28.435 18.3726 28.4711 18.4426 28.4211C18.5668 28.3321 18.7215 28.1967 18.7343 28.0679C18.7436 27.9705 18.564 27.8342 18.4444 27.7517C18.3808 27.7081 18.2658 27.7396 18.1738 27.7396C14.192 27.7396 10.2102 27.7396 6.22937 27.7396C6.12628 27.7396 5.99926 27.709 5.92471 27.7582C5.81242 27.8324 5.65871 27.9677 5.66514 28.0679C5.67342 28.1921 5.80966 28.3294 5.92471 28.4155C5.99281 28.4665 6.12444 28.434 6.22844 28.434C8.21933 28.434 10.2102 28.434 12.2012 28.434L12.2002 28.435ZM10.1366 19.3916C8.81301 19.3916 7.49036 19.3934 6.16678 19.3898C5.90446 19.3898 5.64858 19.4166 5.65317 19.7485C5.65778 20.0545 5.90077 20.0888 6.15205 20.0879C8.79829 20.0851 11.4455 20.0851 14.0917 20.0879C14.3541 20.0879 14.6127 20.0591 14.6044 19.7281C14.5961 19.3972 14.3273 19.3888 14.0714 19.3888C12.7599 19.3916 11.4482 19.3907 10.1357 19.3907L10.1366 19.3916ZM10.121 22.8702C11.3635 22.8702 12.6061 22.8702 13.8496 22.8702C13.9646 22.8702 14.0797 22.8702 14.1947 22.8702C14.4359 22.8721 14.6118 22.772 14.608 22.5133C14.6044 22.276 14.4386 22.1749 14.2113 22.1749C14.1423 22.1749 14.0733 22.1749 14.0043 22.1749C11.4151 22.1749 8.8259 22.1749 6.23674 22.1749C6.1677 22.1749 6.09867 22.174 6.02964 22.1758C5.80045 22.1823 5.6182 22.3019 5.6633 22.5282C5.69 22.6598 5.88237 22.7701 6.01767 22.8637C6.0729 22.9018 6.17414 22.8712 6.25514 22.8712C7.54374 22.8712 8.83234 22.8712 10.1219 22.8712L10.121 22.8702ZM8.83326 15.9074C8.88573 15.8582 9.01643 15.7869 9.07166 15.6775C9.75646 14.3155 10.4376 12.9507 11.0975 11.5757C11.1519 11.4617 11.0975 11.229 11.0092 11.127C10.8527 10.9462 10.6134 11.0408 10.4707 11.3235C10.0298 12.2007 9.59538 13.0815 9.1591 13.9613C8.92807 14.4267 8.69152 14.8903 8.46878 15.3595C8.33439 15.644 8.48442 15.9166 8.83326 15.9074ZM5.76547 13.4754C6.14837 13.099 6.49262 12.7606 6.83593 12.4223C7.00714 12.2526 7.1185 12.0616 6.91416 11.8521C6.71075 11.6434 6.52115 11.7491 6.34995 11.9234C5.94496 12.3332 5.53536 12.7384 5.13313 13.1519C4.87634 13.417 4.88094 13.5488 5.15062 13.825C5.5372 14.2209 5.93023 14.6103 6.31865 15.0044C6.49262 15.1805 6.6813 15.3335 6.90773 15.1119C7.13323 14.8912 6.99608 14.6938 6.81753 14.5176C6.48249 14.1856 6.14745 13.8537 5.76547 13.4754ZM13.8183 13.4792C13.4124 13.875 13.0571 14.22 12.7045 14.5667C12.5362 14.7326 12.4662 14.9218 12.6549 15.11C12.8446 15.2992 13.0295 15.2222 13.1952 15.0553C13.6094 14.6381 14.0217 14.2191 14.4396 13.8065C14.666 13.5821 14.6642 13.3744 14.4386 13.1519C14.0282 12.7467 13.6241 12.3361 13.2191 11.9262C13.0479 11.7528 12.8601 11.6434 12.654 11.8502C12.4487 12.0569 12.5546 12.2488 12.7285 12.4185C13.0747 12.7551 13.4206 13.0925 13.8183 13.4792Z" fill="#FF8000"/>
<path d="M2.20801 8.2359C2.2347 7.63604 2.20525 7.05101 2.29545 6.48544C2.51819 5.09379 3.69726 4.09248 5.10092 4.0897C9.8623 4.08042 14.6246 4.07857 19.386 4.0897C20.971 4.09341 22.2228 5.37009 22.2532 6.96478C22.2614 7.38014 22.254 7.79643 22.254 8.23497L2.20801 8.2359Z" fill="#FF8000"/>
<path d="M22.2572 33.5059C22.2305 34.1066 22.2572 34.6907 22.168 35.2563C21.948 36.635 20.78 37.6465 19.3975 37.6502C14.6131 37.6632 9.82868 37.665 5.04428 37.6502C3.49796 37.6456 2.24801 36.3633 2.21304 34.8113C2.20292 34.3848 2.2112 33.9574 2.2112 33.5067L22.2572 33.5059Z" fill="#E2E1E1"/>
<path d="M20.7945 10.7627H3.69629V30.8019H20.7945V10.7627Z" fill="#FF8000"/>
<path d="M12.1499 36.6857C12.8087 36.6857 13.3427 36.1516 13.3427 35.4928C13.3427 34.8341 12.8087 34.3 12.1499 34.3C11.4911 34.3 10.957 34.8341 10.957 35.4928C10.957 36.1516 11.4911 36.6857 12.1499 36.6857Z" fill="white"/>
<path d="M22.2574 20.2914V21.7315C21.3306 21.737 20.4038 21.749 19.4771 21.7418C19.2485 21.7402 19.1323 21.8126 19.0241 22.0194C18.5981 22.8297 17.9078 23.2344 16.9937 23.2368C15.0605 23.2416 13.1266 23.2416 11.1927 23.2368C9.88367 23.2336 8.8916 22.2675 8.8916 21.0103C8.8916 19.7538 9.88606 18.7885 11.1934 18.7853C13.1138 18.7813 15.0343 18.7853 16.9547 18.7836C17.9038 18.7836 18.6132 19.1931 19.0423 20.0377C19.1491 20.2476 19.2773 20.2787 19.4762 20.2779C20.4031 20.2762 21.3306 20.2858 22.2574 20.2914ZM14.0764 21.7474C15.0159 21.7474 15.9562 21.7497 16.8958 21.7466C17.4602 21.745 17.7899 21.4755 17.7962 21.0222C17.8034 20.5657 17.4714 20.2779 16.9173 20.2771C15.0247 20.2747 13.1313 20.2739 11.2388 20.2771C10.6966 20.2779 10.3909 20.5442 10.3853 20.9999C10.3797 21.4715 10.691 21.7434 11.2564 21.7458C12.1958 21.7497 13.1369 21.7474 14.0764 21.7474Z" fill="#D0D4DD"/>
<path d="M14.0763 21.7472C13.1367 21.7472 12.1964 21.7504 11.2569 21.7465C10.6916 21.7442 10.3795 21.4722 10.3858 21.0006C10.3914 20.5449 10.6971 20.2786 11.2393 20.2777C13.132 20.2746 15.0253 20.2746 16.9178 20.2777C17.472 20.2777 17.804 20.5664 17.7969 21.0229C17.7897 21.4762 17.4601 21.7457 16.8963 21.7472C15.9569 21.7504 15.0158 21.7481 14.0763 21.7472Z" fill="#FF8000"/>
<path d="M33.1631 31.8951C32.2406 31.897 31.3169 31.9097 30.3944 31.899C28.4228 31.8757 26.8531 30.3293 26.819 28.3523C26.7937 26.9119 26.8141 25.4705 26.8121 24.0301C26.8103 22.6285 26.092 21.9209 24.6829 21.9131C23.8752 21.9083 23.0675 21.8898 22.2598 21.8772L22.2753 21.8957V20.1354L22.2598 20.1539C23.3584 20.152 24.4659 20.0654 25.5538 20.1694C27.2063 20.3279 28.5445 21.8324 28.594 23.5071C28.6379 24.9786 28.6086 26.4531 28.6106 27.9267C28.6126 29.4108 29.2869 30.0824 30.7837 30.0796C31.5758 30.0786 32.369 30.0659 33.1611 30.0581L33.1475 30.0474C33.1475 30.6685 33.1475 31.2886 33.1475 31.9097L33.1621 31.8961L33.1631 31.8951Z" fill="#FF8000"/>
<path d="M32.9502 31.7803C32.9502 31.1592 32.9502 30.5391 32.9502 29.918H37.0199C36.9081 29.7741 36.8165 29.6721 36.7417 29.5574C36.4818 29.1618 36.546 28.6787 36.8925 28.3716C37.2146 28.0869 37.7255 28.045 38.0476 28.3473C38.7191 28.979 39.3731 29.6303 40.0047 30.3019C40.3122 30.6294 40.3024 31.1212 39.9872 31.4557C39.3653 32.1147 38.726 32.7571 38.0631 33.3743C37.7129 33.7009 37.2049 33.6522 36.8711 33.3373C36.5236 33.0098 36.4886 32.517 36.7894 32.1068C36.8545 32.0184 36.9314 31.9386 37.0676 31.7803H32.9502Z" fill="#D0D4DD"/>
</g>
</g>
<defs>
<clipPath id="clip0_2625_344">
<rect width="53" height="53" fill="white"/>
</clipPath>
</defs>
</svg>
