<svg width="50" height="50" viewBox="0 0 50 50" fill="none" xmlns="http://www.w3.org/2000/svg">
<g clip-path="url(#clip0_2698_186)">
<mask id="mask0_2698_186" style="mask-type:alpha" maskUnits="userSpaceOnUse" x="0" y="0" width="50" height="50">
<path d="M50 0H0V50H50V0Z" fill="#C4C4C4"/>
</mask>
<g mask="url(#mask0_2698_186)">
<path d="M24.8749 4.1665C14.2846 4.1665 14.9457 8.77759 14.9457 8.77759L14.9576 13.5548H25.0637V14.989H10.9435C10.9435 14.989 4.16675 14.2173 4.16675 24.9458C4.16675 35.6747 10.0817 35.2942 10.0817 35.2942H13.6117V30.3156C13.6117 30.3156 13.4214 24.3769 19.4322 24.3769H29.4557C29.4557 24.3769 35.0872 24.4683 35.0872 18.9123V9.726C35.0872 9.726 35.9426 4.1665 24.8749 4.1665ZM19.3023 7.37907C19.5412 7.37885 19.7777 7.42592 19.9983 7.51758C20.2191 7.60924 20.4196 7.74369 20.5884 7.91324C20.7573 8.08279 20.8912 8.2841 20.9825 8.50567C21.0737 8.72725 21.1207 8.96467 21.1204 9.2045C21.1207 9.44425 21.0737 9.68167 20.9825 9.90325C20.8912 10.1248 20.7573 10.3262 20.5884 10.4957C20.4196 10.6653 20.2191 10.7997 19.9983 10.8913C19.7777 10.983 19.5412 11.0301 19.3023 11.0298C19.0635 11.0301 18.827 10.983 18.6063 10.8913C18.3857 10.7997 18.1852 10.6653 18.0162 10.4957C17.8474 10.3262 17.7135 10.1248 17.6222 9.90325C17.5309 9.68167 17.4841 9.44425 17.4842 9.2045C17.4841 8.96467 17.5309 8.72725 17.6222 8.50567C17.7135 8.2841 17.8474 8.08279 18.0162 7.91324C18.1852 7.74369 18.3857 7.60924 18.6063 7.51758C18.827 7.42592 19.0635 7.37885 19.3023 7.37907Z" fill="#3972A2"/>
<path d="M25.1758 45.833C35.7662 45.833 35.105 41.2219 35.105 41.2219L35.0932 36.4449H24.9868V35.0107H39.1071C39.1071 35.0107 45.8838 35.7824 45.8838 25.0534C45.8838 14.3248 39.9689 14.7053 39.9689 14.7053H36.4389V19.6837C36.4389 19.6837 36.6292 25.6224 30.6184 25.6224H20.5948C20.5948 25.6224 14.9633 25.5311 14.9633 31.0871V40.2736C14.9633 40.2736 14.1083 45.833 25.1758 45.833ZM30.7484 42.6208C30.5096 42.6209 30.2731 42.5739 30.0524 42.4823C29.8317 42.3906 29.6312 42.2561 29.4623 42.0866C29.2935 41.917 29.1596 41.7157 29.0682 41.4942C28.977 41.2726 28.9301 41.0351 28.9303 40.7954C28.9301 40.5555 28.9769 40.3181 29.0682 40.0965C29.1595 39.8749 29.2934 39.6736 29.4622 39.504C29.6312 39.3344 29.8317 39.2 30.0523 39.1084C30.2731 39.0166 30.5096 38.9696 30.7484 38.9698C30.9872 38.9696 31.2237 39.0166 31.4444 39.1083C31.6651 39.1999 31.8656 39.3344 32.0345 39.5039C32.2033 39.6735 32.3372 39.8749 32.4286 40.0964C32.5198 40.3179 32.5667 40.5554 32.5665 40.7952C32.5667 41.0349 32.5198 41.2724 32.4286 41.494C32.3372 41.7155 32.2033 41.9169 32.0345 42.0864C31.8656 42.2559 31.6651 42.3904 31.4444 42.4821C31.2237 42.5737 30.9872 42.6209 30.7484 42.6208Z" fill="#FFD342"/>
</g>
</g>
<defs>
<clipPath id="clip0_2698_186">
<rect width="50" height="50" fill="white"/>
</clipPath>
</defs>
</svg>
