<svg width="59" height="50" viewBox="0 0 59 50" fill="none" xmlns="http://www.w3.org/2000/svg">
<g clip-path="url(#clip0_2228_231)">
<path fill-rule="evenodd" clip-rule="evenodd" d="M47.6421 16.1678C47.0269 15.9674 46.4118 15.7781 45.7966 15.5999C45.8991 15.1879 45.9902 14.7759 46.0814 14.3638C47.4826 7.72689 46.5598 2.39282 43.4498 0.633353C40.4536 -1.04817 35.5664 0.700168 30.6222 4.90952C30.1323 5.32155 29.6539 5.75584 29.1981 6.19014C28.8905 5.90061 28.5716 5.61109 28.2526 5.33269C23.0691 0.833801 17.8743 -1.0593 14.7643 0.711304C11.7795 2.40395 10.891 7.42623 12.1441 13.7068C12.2694 14.3304 12.4061 14.9429 12.5656 15.5665C11.8365 15.767 11.1188 15.9897 10.4466 16.2236C4.3632 18.2837 0 21.5353 0 24.8984C0 28.3728 4.64801 31.8583 10.9707 33.9741C11.4833 34.1412 11.996 34.3082 12.52 34.4529C12.3491 35.1211 12.201 35.7781 12.0643 36.4574C10.8681 42.6378 11.8023 47.5376 14.787 49.2191C17.8629 50.9563 23.0349 49.1746 28.0703 44.865C28.469 44.5198 28.8678 44.1634 29.2665 43.7848C29.7678 44.2637 30.2918 44.7203 30.8159 45.1657C35.6917 49.2637 40.5106 50.9229 43.484 49.2413C46.5598 47.5042 47.5623 42.2369 46.2637 35.8227C46.1611 35.3327 46.0472 34.8316 45.9219 34.3193C46.2864 34.2191 46.6395 34.1078 46.9925 33.9964C53.5658 31.8694 58.328 28.4284 58.328 24.8984C58.328 21.5243 53.8395 18.2503 47.6421 16.1678ZM32.2285 6.71354C36.4664 3.10551 40.4194 1.69126 42.2194 2.70462C44.1447 3.7848 44.8852 8.15006 43.6777 13.885C43.5979 14.2637 43.5182 14.6311 43.4156 14.9986C40.8865 14.4418 38.3233 14.0409 35.7487 13.8182C34.2677 11.7469 32.65 9.76475 30.8956 7.90507C31.3399 7.49304 31.7728 7.10329 32.2285 6.71354ZM20.8477 33.5621C20.2211 32.6155 19.6287 31.6468 19.0477 30.6779C18.4781 29.7203 17.9427 28.7514 17.4187 27.7714C16.6895 29.4641 16.063 31.1233 15.5617 32.7269C17.3047 33.0943 19.0705 33.3728 20.8477 33.5621ZM15.5959 17.2814C17.2364 16.9251 18.9794 16.6356 20.7907 16.4128C20.187 17.3372 19.5945 18.2837 19.0363 19.2413C18.4781 20.1879 17.9313 21.1568 17.4187 22.1367C16.7009 20.4774 16.0972 18.8516 15.5959 17.2814ZM21.1552 20.4329C20.2895 21.914 19.4692 23.4173 18.7174 24.9541C19.4806 26.4908 20.2895 27.9942 21.1667 29.4753C22.0439 30.9563 22.978 32.4039 23.9691 33.8182C25.6438 33.9184 27.3754 33.9741 29.164 33.9741C30.9526 33.9741 32.7183 33.9184 34.4158 33.7959C35.3841 32.3706 36.3069 30.934 37.1727 29.4529C38.0499 27.9607 38.8702 26.4463 39.6334 24.9095C38.8587 23.3839 38.0385 21.8806 37.1613 20.4107C36.2841 18.9407 35.3613 17.5042 34.393 16.1011C32.6956 15.9786 30.9412 15.9118 29.164 15.9118C27.3868 15.9118 25.6438 15.9786 23.935 16.1011C22.9552 17.5153 22.0211 18.9518 21.1552 20.4329ZM39.2916 30.6556C39.8726 29.6757 40.4194 28.6846 40.9549 27.6823C41.684 29.2971 42.322 30.934 42.8801 32.6155C41.1144 33.0053 39.3258 33.3059 37.5258 33.5064C38.141 32.571 38.722 31.6133 39.2916 30.6556ZM39.2802 19.2191C39.8499 20.1768 40.3967 21.1568 40.9321 22.1367C41.627 20.5554 42.2422 18.9518 42.7662 17.3038C41.1257 16.9363 39.3714 16.6356 37.5373 16.4128C38.141 17.3372 38.722 18.2726 39.2802 19.2191ZM29.1868 9.60884C30.3829 10.8783 31.5107 12.2147 32.5588 13.5955C30.3032 13.4953 28.0361 13.4953 25.7805 13.5955C26.8969 12.159 28.0476 10.8227 29.1868 9.60884ZM26.6121 7.12556C22.135 3.25028 17.8858 1.69126 15.9719 2.78258C14.1719 3.79593 13.4656 7.86053 14.5364 13.2503C14.6616 13.8293 14.787 14.4084 14.9351 14.9763C17.4642 14.4307 20.016 14.0409 22.5907 13.8182C24.083 11.7469 25.7122 9.76475 27.4779 7.90507C27.384 7.82029 27.2912 7.73551 27.1991 7.65145L27.1983 7.65069C27.0006 7.47009 26.8062 7.29252 26.6121 7.12556ZM13.1807 32.1367C12.7023 32.0031 12.2352 31.8583 11.7681 31.7024C9.3416 30.9563 6.58468 29.7759 4.59105 28.228C3.44043 27.4485 2.66577 26.2458 2.44932 24.8984C2.44932 22.8605 6.04925 20.2548 11.2441 18.4842C11.8934 18.2614 12.5542 18.061 13.2149 17.8717C13.9896 20.2882 14.9238 22.6601 16.0061 24.9541C14.9124 27.2814 13.9668 29.6868 13.1807 32.1367ZM20.0389 46.9808C22.4084 46.0677 24.5843 44.7313 26.464 43.0498C26.8286 42.738 27.1932 42.4039 27.5577 42.0588C25.7919 40.1879 24.1401 38.1946 22.6362 36.1122C20.0274 35.9229 17.4529 35.5554 14.9009 35.0209C14.7415 35.6333 14.6048 36.257 14.4795 36.8806C13.4541 42.1701 14.2061 46.1011 16.0174 47.1256C17.3161 47.6267 18.7743 47.571 20.0389 46.9808ZM29.2552 40.3438C28.0931 39.1188 26.9311 37.7603 25.8033 36.3015C26.8969 36.3461 28.0248 36.3683 29.164 36.3683C30.3373 36.3683 31.488 36.3461 32.6272 36.2903C31.5791 37.7046 30.4513 39.0521 29.2552 40.3438ZM42.265 47.1701C43.3586 46.3127 44.0422 45.0432 44.1447 43.6846C44.5093 41.2124 44.4182 38.7068 43.8599 36.3015C43.7688 35.8561 43.6662 35.3995 43.5523 34.9429C40.9891 35.5108 38.3916 35.9006 35.7829 36.1122C34.3246 38.2058 32.7183 40.1991 30.9754 42.081C31.4652 42.5264 31.9436 42.9608 32.4222 43.3617C36.5917 46.8583 40.4536 48.1946 42.265 47.1701ZM46.2181 31.7135C45.8991 31.8137 45.58 31.914 45.2498 32.0031C44.4523 29.5754 43.4725 27.2035 42.3448 24.8984C43.4384 22.6267 44.3611 20.2882 45.1358 17.8939C45.7282 18.061 46.2979 18.2392 46.8447 18.4173C52.1534 20.1991 55.8787 22.8494 55.8787 24.8761C55.8787 27.0588 51.9028 29.8761 46.2181 31.7135ZM34.3816 24.9429C34.3816 27.7603 32.0462 30.0432 29.164 30.0432C26.2818 30.0432 23.9464 27.7603 23.9464 24.9429C23.9464 22.1256 26.2818 19.8427 29.164 19.8427C32.0462 19.8427 34.3816 22.1256 34.3816 24.9429Z" fill="#4DCFE0"/>
</g>
<defs>
<clipPath id="clip0_2228_231">
<rect width="58.8235" height="50" fill="white"/>
</clipPath>
</defs>
</svg>
