<svg width="24" height="24" viewBox="0 0 24 24" fill="none" xmlns="http://www.w3.org/2000/svg">
<path d="M20.25 16.6065V15.75C20.25 15.1533 20.013 14.581 19.591 14.159C19.169 13.737 18.5967 13.5 18 13.5H12.75V11.94C14.0637 11.7504 15.2568 11.0702 16.0892 10.0364C16.9216 9.00253 17.3316 7.69177 17.2365 6.36787C17.1415 5.04397 16.5485 3.80522 15.5769 2.9009C14.6054 1.99658 13.3273 1.49384 12 1.49384C10.6727 1.49384 9.39466 1.99658 8.42309 2.9009C7.45152 3.80522 6.85854 5.04397 6.76349 6.36787C6.66844 7.69177 7.07837 9.00253 7.91079 10.0364C8.7432 11.0702 9.93632 11.7504 11.25 11.94V13.5H6.00001C5.40327 13.5 4.83097 13.737 4.40902 14.159C3.98706 14.581 3.75001 15.1533 3.75001 15.75V16.6065C3.04301 16.789 2.42687 17.2232 2.01706 17.8275C1.60725 18.4318 1.43191 19.1649 1.52392 19.8892C1.61592 20.6136 1.96895 21.2795 2.51683 21.7622C3.06471 22.2449 3.76983 22.5112 4.50001 22.5112C5.23019 22.5112 5.9353 22.2449 6.48318 21.7622C7.03106 21.2795 7.38409 20.6136 7.4761 19.8892C7.5681 19.1649 7.39277 18.4318 6.98296 17.8275C6.57315 17.2232 5.957 16.789 5.25001 16.6065V15.75C5.25001 15.5511 5.32903 15.3603 5.46968 15.2197C5.61033 15.079 5.8011 15 6.00001 15H11.25V16.6065C10.543 16.789 9.92687 17.2232 9.51706 17.8275C9.10725 18.4318 8.93191 19.1649 9.02392 19.8892C9.11592 20.6136 9.46895 21.2795 10.0168 21.7622C10.5647 22.2449 11.2698 22.5112 12 22.5112C12.7302 22.5112 13.4353 22.2449 13.9832 21.7622C14.5311 21.2795 14.8841 20.6136 14.9761 19.8892C15.0681 19.1649 14.8928 18.4318 14.483 17.8275C14.0732 17.2232 13.457 16.789 12.75 16.6065V15H18C18.1989 15 18.3897 15.079 18.5303 15.2197C18.671 15.3603 18.75 15.5511 18.75 15.75V16.6065C18.043 16.789 17.4269 17.2232 17.0171 17.8275C16.6072 18.4318 16.4319 19.1649 16.5239 19.8892C16.6159 20.6136 16.969 21.2795 17.5168 21.7622C18.0647 22.2449 18.7698 22.5112 19.5 22.5112C20.2302 22.5112 20.9353 22.2449 21.4832 21.7622C22.0311 21.2795 22.3841 20.6136 22.4761 19.8892C22.5681 19.1649 22.3928 18.4318 21.983 17.8275C21.5732 17.2232 20.957 16.789 20.25 16.6065ZM10.125 8.24999C10.125 8.15053 10.1645 8.05515 10.2348 7.98482C10.3052 7.9145 10.4006 7.87499 10.5 7.87499H11.625V7.12499H11.25C10.9516 7.12499 10.6655 7.00646 10.4545 6.79548C10.2435 6.5845 10.125 6.29836 10.125 5.99999C10.125 5.70162 10.2435 5.41547 10.4545 5.20449C10.6655 4.99351 10.9516 4.87499 11.25 4.87499H11.625V4.49999C11.625 4.40053 11.6645 4.30515 11.7348 4.23482C11.8052 4.1645 11.9006 4.12499 12 4.12499C12.0995 4.12499 12.1948 4.1645 12.2652 4.23482C12.3355 4.30515 12.375 4.40053 12.375 4.49999V4.87499H13.5C13.5995 4.87499 13.6948 4.9145 13.7652 4.98482C13.8355 5.05515 13.875 5.15053 13.875 5.24999C13.875 5.34944 13.8355 5.44483 13.7652 5.51515C13.6948 5.58548 13.5995 5.62499 13.5 5.62499H12.375V6.37499H12.75C13.0484 6.37499 13.3345 6.49351 13.5455 6.70449C13.7565 6.91547 13.875 7.20162 13.875 7.49999C13.875 7.79836 13.7565 8.0845 13.5455 8.29548C13.3345 8.50646 13.0484 8.62499 12.75 8.62499H12.375V8.99999C12.375 9.09944 12.3355 9.19483 12.2652 9.26515C12.1948 9.33548 12.0995 9.37499 12 9.37499C11.9006 9.37499 11.8052 9.33548 11.7348 9.26515C11.6645 9.19483 11.625 9.09944 11.625 8.99999V8.62499H10.5C10.4006 8.62499 10.3052 8.58548 10.2348 8.51515C10.1645 8.44483 10.125 8.34944 10.125 8.24999Z" fill="#333333"/>
<path d="M11.625 5.625H11.25C11.1505 5.625 11.0552 5.66451 10.9848 5.73484C10.9145 5.80516 10.875 5.90054 10.875 6C10.875 6.09946 10.9145 6.19484 10.9848 6.26517C11.0552 6.33549 11.1505 6.375 11.25 6.375H11.625V5.625ZM13.125 7.5C13.125 7.40054 13.0855 7.30516 13.0152 7.23483C12.9448 7.16451 12.8495 7.125 12.75 7.125H12.375V7.875H12.75C12.8495 7.875 12.9448 7.83549 13.0152 7.76517C13.0855 7.69484 13.125 7.59946 13.125 7.5Z" fill="#333333"/>
</svg>
