<svg width="53" height="53" viewBox="0 0 53 53" fill="none" xmlns="http://www.w3.org/2000/svg">
<g clip-path="url(#clip0_2689_231)">
<path d="M0 39.75V36.2719C0 34.6892 0.809722 33.401 2.42917 32.4073C4.04861 31.4135 6.18333 30.9167 8.83333 30.9167C9.31181 30.9167 9.77187 30.9259 10.2135 30.9443C10.6552 30.9627 11.0785 31.0087 11.4833 31.0823C10.9681 31.8552 10.5816 32.6649 10.324 33.5115C10.0663 34.358 9.9375 35.2413 9.9375 36.1615V39.75H0ZM13.25 39.75V36.1615C13.25 34.9837 13.572 33.9071 14.2161 32.9318C14.8602 31.9564 15.7712 31.1007 16.949 30.3646C18.1267 29.6285 19.5345 29.0764 21.1724 28.7083C22.8102 28.3403 24.5861 28.1562 26.5 28.1562C28.4507 28.1562 30.245 28.3403 31.8828 28.7083C33.5207 29.0764 34.9285 29.6285 36.1062 30.3646C37.284 31.1007 38.1858 31.9564 38.8115 32.9318C39.4372 33.9071 39.75 34.9837 39.75 36.1615V39.75H13.25ZM43.0625 39.75V36.1615C43.0625 35.2045 42.9429 34.3028 42.7036 33.4562C42.4644 32.6097 42.1056 31.8184 41.6271 31.0823C42.0319 31.0087 42.446 30.9627 42.8693 30.9443C43.2925 30.9259 43.725 30.9167 44.1667 30.9167C46.8167 30.9167 48.9514 31.4043 50.5708 32.3797C52.1903 33.355 53 34.6524 53 36.2719V39.75H43.0625ZM8.83333 28.7083C7.61875 28.7083 6.57899 28.2759 5.71406 27.4109C4.84913 26.546 4.41667 25.5062 4.41667 24.2917C4.41667 23.0403 4.84913 21.9913 5.71406 21.1448C6.57899 20.2983 7.61875 19.875 8.83333 19.875C10.0847 19.875 11.1337 20.2983 11.9802 21.1448C12.8267 21.9913 13.25 23.0403 13.25 24.2917C13.25 25.5062 12.8267 26.546 11.9802 27.4109C11.1337 28.2759 10.0847 28.7083 8.83333 28.7083ZM44.1667 28.7083C42.9521 28.7083 41.9123 28.2759 41.0474 27.4109C40.1825 26.546 39.75 25.5062 39.75 24.2917C39.75 23.0403 40.1825 21.9913 41.0474 21.1448C41.9123 20.2983 42.9521 19.875 44.1667 19.875C45.4181 19.875 46.467 20.2983 47.3135 21.1448C48.1601 21.9913 48.5833 23.0403 48.5833 24.2917C48.5833 25.5062 48.1601 26.546 47.3135 27.4109C46.467 28.2759 45.4181 28.7083 44.1667 28.7083ZM26.5 26.5C24.6597 26.5 23.0955 25.8559 21.8073 24.5677C20.5191 23.2795 19.875 21.7153 19.875 19.875C19.875 17.9979 20.5191 16.4245 21.8073 15.1547C23.0955 13.8849 24.6597 13.25 26.5 13.25C28.3771 13.25 29.9505 13.8849 31.2203 15.1547C32.4901 16.4245 33.125 17.9979 33.125 19.875C33.125 21.7153 32.4901 23.2795 31.2203 24.5677C29.9505 25.8559 28.3771 26.5 26.5 26.5Z" fill="#F4AF10"/>
</g>
<defs>
<clipPath id="clip0_2689_231">
<rect width="53" height="53" fill="white"/>
</clipPath>
</defs>
</svg>
