<svg width="53" height="53" viewBox="0 0 53 53" fill="none" xmlns="http://www.w3.org/2000/svg">
<g clip-path="url(#clip0_2625_412)">
<path d="M51.4725 19.896C51.313 19.9343 51.1751 20.0342 51.089 20.1738C51.0029 20.3135 50.9756 20.4815 51.0129 20.6413C51.4656 22.5628 51.6949 24.5302 51.6961 26.5044C51.6881 33.1843 49.031 39.5882 44.3076 44.3116C39.5843 49.035 33.1803 51.6921 26.5004 51.7001C21.0141 51.7193 15.675 49.926 11.3126 46.5988C11.8983 45.7255 12.1324 44.6631 11.9678 43.6244C11.8032 42.5858 11.2522 41.6478 10.4252 40.9983C9.59818 40.3488 8.55625 40.0358 7.50823 40.1221C6.4602 40.2084 5.48351 40.6876 4.77389 41.4637C4.06426 42.2397 3.67414 43.2553 3.6817 44.3068C3.68926 45.3583 4.09394 46.3682 4.81464 47.134C5.53535 47.8997 6.51883 48.3648 7.56798 48.436C8.61714 48.5073 9.65446 48.1794 10.4721 47.5181C15.0652 51.0541 20.7038 52.9623 26.5004 52.9423C30.4937 52.938 34.4343 52.0301 38.0269 50.2866C41.6196 48.5432 44.7711 46.0094 47.2454 42.875C49.7198 39.7407 51.4528 36.087 52.3146 32.1878C53.1765 28.2886 53.1448 24.2449 52.222 20.3597C52.2035 20.2799 52.1694 20.2046 52.1216 20.138C52.0739 20.0714 52.0134 20.015 51.9438 19.9719C51.8741 19.9288 51.7966 19.8999 51.7157 19.8868C51.6349 19.8738 51.5522 19.8769 51.4725 19.896ZM1.30471 26.5044C1.30498 22.0226 2.50061 17.6221 4.76831 13.7564C7.03602 9.89069 10.2937 6.69979 14.2056 4.51266C18.1174 2.32554 22.5418 1.22135 27.0226 1.31394C31.5034 1.40653 35.8784 2.69254 39.6966 5.03939C39.3025 5.88254 39.2394 6.84294 39.5199 7.73037C39.8003 8.61781 40.4038 9.36757 41.2108 9.83114C42.0179 10.2947 42.9696 10.4383 43.8774 10.2334C44.7853 10.0286 45.5831 9.49021 46.1129 8.725C46.6427 7.95979 46.8657 7.02353 46.7379 6.10165C46.6101 5.17977 46.1407 4.33952 45.4227 3.74731C44.7047 3.1551 43.7905 2.85414 42.8612 2.90402C41.9318 2.95391 41.0551 3.351 40.4046 4.01666C36.3997 1.54085 31.8062 0.179449 27.099 0.073147C22.3918 -0.0331547 17.7415 1.1195 13.6289 3.41199C9.51626 5.70448 6.09042 9.05364 3.70542 13.1133C1.32043 17.173 0.0628029 21.796 0.0625249 26.5044C0.0602983 28.1183 0.207225 29.7289 0.501431 31.3158C0.526684 31.4588 0.60158 31.5882 0.712925 31.6814C0.82427 31.7746 0.964922 31.8255 1.1101 31.8251C1.14771 31.8251 1.1852 31.8209 1.2219 31.8127C1.38381 31.7834 1.5275 31.6911 1.62143 31.5561C1.71536 31.421 1.75186 31.2542 1.72292 31.0922C1.4438 29.5789 1.30382 28.0432 1.30471 26.5044Z" fill="#D33B3B"/>
<path d="M22.7734 22.4012V22.7739H30.2266V22.4012C30.1686 17.3663 22.8314 17.3663 22.7734 22.4012Z" fill="#D33B3B"/>
<path d="M43.8706 13.5972C36.8812 13.6676 30.1569 9.34892 27.5855 7.48564C27.2698 7.25754 26.8902 7.13477 26.5007 7.13477C26.1112 7.13477 25.7316 7.25754 25.4159 7.48564C22.8445 9.34892 16.1036 13.651 9.13078 13.5972C8.88315 13.5947 8.63747 13.6413 8.4079 13.7342C8.17833 13.827 7.9694 13.9644 7.79314 14.1384C7.61687 14.3123 7.47676 14.5194 7.38086 14.7478C7.28497 14.9761 7.23518 15.2211 7.23438 15.4688C7.23852 25.0295 9.15148 38.706 25.6602 47.0617C25.9205 47.1944 26.2085 47.2636 26.5007 47.2636C26.7929 47.2636 27.0809 47.1944 27.3412 47.0617C43.8499 38.706 45.7629 25.0295 45.767 15.4688C45.7633 14.9692 45.5615 14.4916 45.206 14.1407C44.8504 13.7898 44.3702 13.5943 43.8706 13.5972ZM33.3327 32.5033C33.3327 33.3269 33.0055 34.1168 32.4232 34.6992C31.8408 35.2816 31.0509 35.6088 30.2273 35.6088H22.7741C21.9505 35.6088 21.1606 35.2816 20.5782 34.6992C19.9959 34.1168 19.6687 33.3269 19.6687 32.5033V25.8783C19.669 25.2743 19.8454 24.6835 20.1764 24.1783C20.5073 23.6731 20.9784 23.2753 21.532 23.0337V22.3919C21.6065 15.7462 31.3949 15.7462 31.4695 22.3919V23.0337C32.023 23.2753 32.4941 23.6731 32.825 24.1783C33.156 24.6835 33.3324 25.2743 33.3327 25.8783V32.5033Z" fill="#D33B3B"/>
<path d="M27.5178 28.4796C27.5086 28.424 27.5112 28.3671 27.5255 28.3126C27.5398 28.2581 27.5654 28.2072 27.6006 28.1632C27.7393 27.9627 27.8205 27.728 27.8354 27.4846C27.8503 27.2412 27.7983 26.9983 27.6851 26.7824C27.5718 26.5664 27.4017 26.3855 27.193 26.2593C26.9843 26.1331 26.7451 26.0664 26.5013 26.0664C26.2574 26.0664 26.0182 26.1331 25.8096 26.2593C25.6009 26.3855 25.4308 26.5664 25.3175 26.7824C25.2043 26.9983 25.1523 27.2412 25.1672 27.4846C25.1821 27.728 25.2633 27.9627 25.402 28.1632C25.4371 28.2067 25.4626 28.2571 25.4768 28.3111C25.4911 28.3651 25.4938 28.4215 25.4848 28.4767C25.3875 28.9615 25.1121 30.3478 24.9179 31.3101C24.8943 31.4301 24.8976 31.5539 24.9275 31.6725C24.9574 31.7911 25.0132 31.9016 25.091 31.9961C25.1687 32.0905 25.2664 32.1666 25.377 32.2188C25.4876 32.271 25.6084 32.2981 25.7307 32.2981H27.271C27.3936 32.2981 27.5146 32.271 27.6254 32.2186C27.7362 32.1662 27.8339 32.0899 27.9116 31.9951C27.9894 31.9004 28.0451 31.7896 28.0748 31.6707C28.1045 31.5518 28.1074 31.4278 28.0834 31.3076L27.5178 28.4796Z" fill="#D33B3B"/>
</g>
<defs>
<clipPath id="clip0_2625_412">
<rect width="53" height="53" fill="white"/>
</clipPath>
</defs>
</svg>
