<svg width="53" height="53" viewBox="0 0 53 53" fill="none" xmlns="http://www.w3.org/2000/svg">
<path d="M52.9503 17.8179L49.9525 5.82006C49.5848 4.346 48.2598 3.3125 46.7394 3.3125H6.26394C4.7435 3.3125 3.4185 4.346 3.0475 5.82006L0.0496875 17.8179C0.0165625 17.9471 0 18.0829 0 18.2188C0 22.7834 3.52781 26.5 7.86719 26.5C10.388 26.5 12.6372 25.2446 14.0781 23.2968C15.5191 25.2446 17.7683 26.5 20.2891 26.5C22.8099 26.5 25.0591 25.2446 26.5 23.2968C27.9409 25.2446 30.1868 26.5 32.7109 26.5C35.2351 26.5 37.4809 25.2446 38.9219 23.2968C40.3628 25.2446 42.6087 26.5 45.1328 26.5C49.4722 26.5 53 22.7834 53 18.2188C53 18.0829 52.9834 17.9471 52.9503 17.8179ZM45.1328 29.8125C42.877 29.8125 40.7338 29.1235 38.9219 27.8647C35.298 30.3856 30.1239 30.3856 26.5 27.8647C22.8761 30.3856 17.702 30.3856 14.0781 27.8647C12.2662 29.1235 10.123 29.8125 7.86719 29.8125C6.24075 29.8125 4.70706 29.4316 3.3125 28.7823V46.375C3.3125 48.2035 4.7965 49.6875 6.625 49.6875H19.875V36.4375H33.125V49.6875H46.375C48.2035 49.6875 49.6875 48.2035 49.6875 46.375V28.7823C48.2929 29.4316 46.7592 29.8125 45.1328 29.8125Z" fill="#00D4A1"/>
</svg>
