<svg width="50" height="50" viewBox="0 0 50 50" fill="none" xmlns="http://www.w3.org/2000/svg">
<g clip-path="url(#clip0_2698_262)">
<mask id="mask0_2698_262" style="mask-type:alpha" maskUnits="userSpaceOnUse" x="0" y="0" width="50" height="50">
<path d="M50 0H0V50H50V0Z" fill="#C4C4C4"/>
</mask>
<g mask="url(#mask0_2698_262)">
<path d="M38.5364 12.8741C38.5085 12.6708 38.3311 12.5583 38.1844 12.5459C38.0381 12.5337 34.9408 12.3033 34.9408 12.3033C34.9408 12.3033 32.7897 10.1601 32.5536 9.92283C32.3173 9.68575 31.856 9.75792 31.6769 9.81083C31.6505 9.81858 31.2069 9.956 30.4731 10.1839C29.7545 8.10878 28.4863 6.20183 26.2553 6.20183C26.1938 6.20183 26.1303 6.20433 26.0669 6.20796C25.4324 5.36585 24.6465 5 23.9676 5C18.7705 5 16.2876 11.5201 15.5091 14.8333C13.4896 15.4613 12.055 15.9078 11.8718 15.9656C10.7445 16.3204 10.7088 16.3561 10.5608 17.422C10.4494 18.2291 7.5 41.1198 7.5 41.1198L30.4827 45.4413L42.9354 42.7378C42.9354 42.7378 38.5639 13.0773 38.5364 12.8741ZM29.2028 10.5782L27.2582 11.1822C27.2588 11.0447 27.2595 10.9093 27.2595 10.7613C27.2595 9.47167 27.0812 8.43325 26.7949 7.61012C27.9445 7.7549 28.7101 9.0675 29.2028 10.5782ZM25.3689 7.86585C25.6885 8.6695 25.8963 9.82292 25.8963 11.3793C25.8963 11.4589 25.8957 11.5318 25.8949 11.6054C24.6303 11.9985 23.2559 12.4253 21.8786 12.8536C22.652 9.85825 24.1016 8.41158 25.3689 7.86585ZM23.8248 6.39896C24.0492 6.39896 24.2751 6.47538 24.4914 6.62476C22.8258 7.41132 21.0405 9.39233 20.2866 13.3483L17.1118 14.3351C17.9949 11.3177 20.0919 6.39896 23.8248 6.39896Z" fill="#95BF47"/>
<path d="M38.1849 12.5456C38.0386 12.5334 34.9413 12.3029 34.9413 12.3029C34.9413 12.3029 32.7902 10.1598 32.554 9.92253C32.4657 9.83428 32.3465 9.78903 32.2219 9.76953L30.4843 45.4407L42.9359 42.7374C42.9359 42.7374 38.5643 13.077 38.5368 12.8738C38.509 12.6705 38.3315 12.558 38.1849 12.5456Z" fill="#5E8E3E"/>
<path d="M26.2553 19.4511L24.7198 24.0348C24.7198 24.0348 23.3745 23.3143 21.7254 23.3143C19.3078 23.3143 19.1862 24.8368 19.1862 25.2205C19.1862 27.314 24.624 28.1162 24.624 33.0198C24.624 36.8778 22.1858 39.3621 18.8981 39.3621C14.9529 39.3621 12.9354 36.898 12.9354 36.898L13.9918 33.3954C13.9918 33.3954 16.0656 35.1822 17.8155 35.1822C18.959 35.1822 19.4241 34.2787 19.4241 33.6186C19.4241 30.8878 14.9629 30.7659 14.9629 26.2787C14.9629 22.5019 17.664 18.8472 23.1165 18.8472C25.2174 18.8472 26.2553 19.4511 26.2553 19.4511Z" fill="white"/>
</g>
</g>
<defs>
<clipPath id="clip0_2698_262">
<rect width="50" height="50" fill="white"/>
</clipPath>
</defs>
</svg>
