<svg width="53" height="53" viewBox="0 0 53 53" fill="none" xmlns="http://www.w3.org/2000/svg">
<path d="M24.2917 26.5C21.8625 26.5 19.783 25.6351 18.0531 23.9052C16.3233 22.1753 15.4583 20.0958 15.4583 17.6667C15.4583 15.2375 16.3233 13.158 18.0531 11.4281C19.783 9.69826 21.8625 8.83333 24.2917 8.83333C26.7208 8.83333 28.8003 9.69826 30.5302 11.4281C32.2601 13.158 33.125 15.2375 33.125 17.6667C33.125 20.0958 32.2601 22.1753 30.5302 23.9052C28.8003 25.6351 26.7208 26.5 24.2917 26.5ZM48.8042 51.8958L41.7375 44.8292C40.9646 45.2708 40.1365 45.6389 39.2531 45.9333C38.3698 46.2278 37.4312 46.375 36.4375 46.375C33.6771 46.375 31.3307 45.4088 29.3984 43.4766C27.4661 41.5443 26.5 39.1979 26.5 36.4375C26.5 33.6771 27.4661 31.3307 29.3984 29.3984C31.3307 27.4661 33.6771 26.5 36.4375 26.5C39.1979 26.5 41.5443 27.4661 43.4766 29.3984C45.4089 31.3307 46.375 33.6771 46.375 36.4375C46.375 37.4312 46.2278 38.3698 45.9333 39.2531C45.6389 40.1365 45.2708 40.9646 44.8292 41.7375L51.8958 48.8042L48.8042 51.8958ZM36.4375 41.9583C37.9833 41.9583 39.2899 41.4246 40.3573 40.3573C41.4247 39.2899 41.9583 37.9833 41.9583 36.4375C41.9583 34.8917 41.4247 33.5851 40.3573 32.5177C39.2899 31.4503 37.9833 30.9167 36.4375 30.9167C34.8917 30.9167 33.5851 31.4503 32.5177 32.5177C31.4503 33.5851 30.9167 34.8917 30.9167 36.4375C30.9167 37.9833 31.4503 39.2899 32.5177 40.3573C33.5851 41.4246 34.8917 41.9583 36.4375 41.9583ZM24.3469 28.7083C22.801 30.9903 22.0281 33.5667 22.0281 36.4375C22.0281 39.3083 22.801 41.8847 24.3469 44.1667H6.625V38.0385C6.625 36.7871 6.93785 35.6278 7.56354 34.5604C8.18924 33.4931 9.05417 32.6833 10.1583 32.1312C12.0354 31.1743 14.1517 30.3646 16.5073 29.7021C18.8628 29.0396 21.476 28.7083 24.3469 28.7083Z" fill="#FF8000"/>
</svg>
