<svg width="180" height="50" viewBox="0 0 180 50" fill="none" xmlns="http://www.w3.org/2000/svg">
<path d="M13.1742 38.9178C12.3158 38.9178 11.4573 38.6967 10.6931 38.2543L2.48111 33.5135C0.950401 32.6289 0 30.9822 0 29.215V19.7006C0 17.9334 0.950401 16.2868 2.48111 15.4021L10.6931 10.6635C12.2238 9.77884 14.1268 9.77884 15.6553 10.6635L23.8651 15.4043C25.3958 16.2868 26.3462 17.9334 26.3462 19.7028V29.2194C26.3462 30.9866 25.3958 32.6332 23.8651 33.5179L15.6553 38.2565C14.891 38.6989 14.0326 38.92 13.1742 38.92V38.9178ZM13.1742 11.2394C12.5304 11.2394 11.8866 11.4058 11.3128 11.7365L3.10303 16.4773C1.95555 17.1408 1.24165 18.3758 1.24165 19.7006V29.2172C1.24165 30.542 1.95555 31.7771 3.10303 32.4406L11.3128 37.1813C12.4603 37.8448 13.8859 37.8426 15.0334 37.1813L23.2431 32.4427C24.3907 31.7792 25.1046 30.5442 25.1046 29.2194V19.7006C25.1046 18.3758 24.3928 17.1408 23.2431 16.4773L15.0356 11.7387C14.4618 11.408 13.818 11.2416 13.1742 11.2416V11.2394Z" fill="#D1492E"/>
<path d="M8.34147 28.5296C6.14505 28.5296 4.78297 26.6771 4.77856 24.9625C4.76761 24.8596 4.78733 24.7479 4.80269 24.6603C4.818 24.5793 4.82677 24.5268 4.83113 24.4786C4.85086 24.3341 4.88371 24.1698 4.92751 24.0056C5.00635 23.6837 5.1224 23.3662 5.27348 23.064C5.36986 22.8713 5.48809 22.6808 5.62604 22.4991C5.69175 22.4049 5.75745 22.326 5.82752 22.2494L5.89322 22.1662C5.9786 22.0589 6.00709 22.0326 6.01805 22.0261C6.2436 21.8356 6.38374 21.7173 6.52169 21.6166L11.0197 17.8874H11.0087C11.2672 17.6772 11.6657 17.3466 12.3051 16.8145L15.36 14.2634C15.3709 14.259 15.3819 14.259 15.3906 14.259C15.4147 14.259 15.43 14.27 15.441 14.2875C15.4454 14.2963 15.4454 14.3138 15.4344 14.3313L10.0846 22.7158C9.72545 23.2764 9.7036 23.9596 10.0233 24.5443C10.343 25.1289 10.9321 25.4771 11.5978 25.4771H13.2818L13.5117 25.4727C13.6213 25.4727 13.7373 25.4815 13.8227 25.5472C13.884 25.5932 13.9256 25.6829 13.9147 25.7465C13.895 25.8756 13.7964 26.0114 13.7198 26.1209L12.0708 28.5318H8.34806L8.34147 28.5296Z" fill="#D1492E"/>
<path d="M10.9585 34.6675C10.9431 34.6675 10.9212 34.6544 10.9059 34.6325C10.9016 34.6237 10.9016 34.6062 10.9147 34.5887L16.2645 26.2041C16.6236 25.6436 16.6455 24.9582 16.3258 24.3757C16.0061 23.7911 15.4171 23.4429 14.7513 23.4429H13.0673L12.8374 23.4473C12.7279 23.4473 12.6118 23.4385 12.5264 23.3728C12.4651 23.3268 12.4257 23.2371 12.4344 23.1735C12.4542 23.0444 12.5527 22.9086 12.6293 22.7991L14.2783 20.3882H18.0011C20.1975 20.3882 21.5596 22.2407 21.564 23.9553C21.5727 24.0538 21.5574 24.1546 21.5399 24.2575C21.5246 24.3385 21.5136 24.391 21.5114 24.4392C21.4917 24.5837 21.4588 24.7479 21.415 24.9122C21.3362 25.2341 21.2202 25.5516 21.0691 25.8538C20.9727 26.0465 20.8545 26.237 20.7165 26.4187C20.6508 26.5129 20.5851 26.5917 20.515 26.6684L20.4493 26.7516C20.364 26.8589 20.3355 26.8852 20.3245 26.8918C20.099 27.0822 19.9588 27.2005 19.8209 27.3012L15.3229 31.0304H15.3338C15.0798 31.2362 14.6878 31.5603 14.0659 32.0792L10.9826 34.6544L10.9541 34.6675H10.9585Z" fill="#D1492E"/>
<path d="M42.9634 23.6968V23.6333C42.9634 23.0749 42.3678 22.6129 41.6473 22.6129H35.8048C35.0843 22.6129 34.4887 23.0749 34.4887 23.6333V23.6968C34.4887 24.2552 35.0843 24.7172 35.8048 24.7172H40.9882C42.3262 24.7172 43.5175 25.1639 44.3408 25.8668C44.4022 25.915 44.4437 25.9632 44.5051 26.0113C45.1423 26.6179 45.5343 27.3996 45.5343 28.2449C45.5343 30.1916 43.4978 31.7704 40.9882 31.7704H36.4836C33.974 31.7704 31.9375 30.1916 31.9375 28.2449H34.5084C34.5084 29.0901 35.3931 29.7755 36.4836 29.7755H40.9882C42.0787 29.7755 42.9831 29.0901 42.9831 28.2449C42.9831 27.3996 42.0787 26.7143 40.9882 26.7143H35.8048C34.7558 26.7143 33.8098 26.3946 33.1112 25.869C32.9251 25.7245 32.7609 25.5669 32.6164 25.3895C32.1849 24.9099 31.9375 24.3209 31.9375 23.6815V23.6179C31.9375 21.9581 33.6653 20.6027 35.8048 20.6027H41.6473C43.7868 20.6027 45.5343 21.9581 45.5343 23.6179V23.6815L42.9634 23.6968Z" fill="#231F20"/>
<path d="M61.3731 29.3618L60.4468 31.7705L58.5548 29.7274L55.6948 26.6793L52.8566 29.7274L50.9646 31.753L50.0383 29.3596L46.6855 20.6006H49.3594L51.952 27.3341L54.1332 24.9888L54.5452 24.5421L55.7166 23.2983L56.888 24.5421L57.3 24.9888L59.4811 27.3341L62.0738 20.6006H64.7475L61.375 29.3596L61.3731 29.3618Z" fill="#231F20"/>
<path d="M65.8613 31.7705V20.6006H68.4326V31.7683H65.8613V31.7705Z" fill="#231F20"/>
<path d="M81.8541 20.5854V22.5803H73.4361C72.7156 22.5803 72.1201 23.0423 72.1201 23.6007V24.6386H80.4764V26.6335H72.1002V31.7554H69.5488V23.6182C69.5488 21.9584 71.2768 20.6029 73.4162 20.6029L81.856 20.5876L81.8541 20.5854Z" fill="#231F20"/>
<path d="M96.738 20.618V22.6129H91.1976V31.788H88.6268V22.6129H83.1016V20.618H96.738Z" fill="#231F20"/>
<path d="M114.725 29.7909L116.041 31.7858H113.162L111.846 29.7909L110.468 27.7019L110.407 27.6055C109.954 27.0318 109.152 26.6486 108.226 26.6486H104.886V31.7858H102.315V20.618H112.176C113.245 20.618 114.213 20.9531 114.912 21.4961C115.61 22.0545 116.044 22.8034 116.044 23.6333C116.044 24.8464 115.117 25.8997 113.782 26.3771C113.431 26.5041 113.061 26.5851 112.671 26.6157L114.728 29.7909H114.725ZM112.174 24.6537C112.36 24.6537 112.544 24.6209 112.709 24.5574C113.181 24.3976 113.491 24.0319 113.491 23.6311C113.491 23.2633 113.243 23.0093 113.1 22.8976C112.936 22.7706 112.628 22.6107 112.174 22.6107H104.884V24.6691L112.174 24.6537Z" fill="#231F20"/>
<path d="M130.728 31.7705H128.052L126.828 29.7756L123.902 24.9888L120.976 29.7756L119.752 31.7705H117.076L118.3 29.7756L123.902 20.6006L129.504 29.7756L130.728 31.7705Z" fill="#231F20"/>
<path d="M133.299 26.1866C133.299 28.166 135.377 29.7755 137.926 29.7755H144.377V31.7704H137.926C133.956 31.7704 130.726 29.2653 130.726 26.1866C130.726 23.1078 133.956 20.6027 137.926 20.6027H144.377V22.5975H137.926C135.375 22.5975 133.299 24.2092 133.299 26.1866Z" fill="#231F20"/>
<path d="M153.954 25.0852L159.853 31.7705H156.856L152.143 26.4407L148.696 29.0092V31.7705H146.261V20.6006H148.696V26.3114L150.702 24.8114L152.513 23.456L156.31 20.6006H159.912L153.954 25.083V25.0852Z" fill="#231F20"/>
<path d="M170.935 23.6968V23.6333C170.935 23.0749 170.34 22.6129 169.619 22.6129H163.777C163.056 22.6129 162.461 23.0749 162.461 23.6333V23.6968C162.461 24.2552 163.056 24.7172 163.777 24.7172H168.96C170.298 24.7172 171.489 25.1639 172.313 25.8668C172.374 25.915 172.415 25.9632 172.477 26.0113C173.114 26.6179 173.506 27.3996 173.506 28.2449C173.506 30.1916 171.47 31.7704 168.96 31.7704H164.455C161.946 31.7704 159.909 30.1916 159.909 28.2449H162.48C162.48 29.0901 163.365 29.7755 164.455 29.7755H168.96C170.051 29.7755 170.955 29.0901 170.955 28.2449C170.955 27.3996 170.051 26.7143 168.96 26.7143H163.777C162.727 26.7143 161.782 26.3946 161.083 25.869C160.897 25.7245 160.733 25.5669 160.588 25.3895C160.157 24.9099 159.909 24.3209 159.909 23.6815V23.6179C159.909 21.9581 161.637 20.6027 163.777 20.6027H169.619C171.759 20.6027 173.506 21.9581 173.506 23.6179V23.6815L170.935 23.6968Z" fill="#231F20"/>
</svg>
