<svg width="180" height="50" viewBox="0 0 180 50" fill="none" xmlns="http://www.w3.org/2000/svg">
<path d="M45.0968 14.9276H60.368L59.861 18.1447H53.9601L51.1947 35.5687H47.7517L50.5171 18.1519H44.5898L45.0968 14.9276Z" fill="#141D2E"/>
<path d="M67.9064 24.6366H66.6642C64.2616 24.6366 62.5148 25.9917 62.0992 28.6754L60.9892 35.5686H57.6855L59.8888 21.6333H62.9665L62.8512 23.7788C63.2316 23.0401 63.8119 22.4231 64.526 21.9983C65.2402 21.5734 66.0593 21.3579 66.89 21.3762C67.4025 21.3749 67.9135 21.4313 68.4133 21.5444L67.9064 24.6366Z" fill="#141D2E"/>
<path d="M83.2918 21.6164L81.091 35.5517H78.0132L78.042 33.6608C76.8263 35.2129 75.5841 35.9193 73.7173 35.9193C70.6395 35.9193 68.6934 33.3797 69.2292 30.1049L70.5842 21.6068H73.8855L72.6481 29.3217C72.2829 31.5802 73.2415 32.9256 75.0507 32.9256C77.0545 32.9256 78.4144 31.5417 78.8061 29.0814L79.9641 21.5996L83.2918 21.6164Z" fill="#141D2E"/>
<path d="M87.0755 31.3857C87.1307 32.6255 88.0629 33.3607 89.531 33.3607C90.999 33.3607 92.0441 32.6831 92.0441 31.638C92.0441 30.8475 91.6765 30.4535 90.6602 30.1147L88.2888 29.3218C86.3403 28.6996 85.211 27.5151 85.211 25.6794C85.211 22.9693 87.3566 21.2466 90.7731 21.2466C93.8221 21.2466 95.8187 23.0269 95.8187 25.7083H92.6352C92.6087 24.4373 91.8447 23.7309 90.5184 23.7309C89.1922 23.7309 88.3729 24.3244 88.3729 25.3407C88.3729 26.1311 88.8823 26.6669 89.9538 27.0225L92.2964 27.7842C94.3002 28.4617 95.2324 29.5645 95.2324 31.256C95.2324 34.1079 92.9739 35.8594 89.3051 35.8594C86.0592 35.8594 83.8848 34.0791 83.8848 31.3713L87.0755 31.3857Z" fill="#141D2E"/>
<path d="M97.9718 35.5686L99.7113 24.3843H97.0684L97.5201 21.6165H100.163L100.841 17.2917H104.144L103.467 21.6165H106.121L105.67 24.3843H103.027L101.275 35.5686H97.9718Z" fill="#141D2E"/>
<path d="M110.642 26.6139C110.642 30.3116 112.788 32.5989 116.233 32.5989C119.734 32.5989 122.019 30.6215 122.557 27.2338L122.583 27.0944H116.401L116.911 23.9878H126.281L124.455 35.5685H121.548L121.716 33.2548C120.558 34.8646 118.215 35.8977 115.76 35.8977C110.423 35.8977 106.98 32.313 106.98 26.8085C106.98 19.7231 111.694 14.5863 118.16 14.5863C122.845 14.5863 126.036 17.2676 126.346 21.5299H122.612C122.218 19.2162 120.524 17.926 117.756 17.926C113.578 17.9188 110.642 21.5323 110.642 26.6139Z" fill="#141D2E"/>
<path d="M142.605 21.6164L140.402 35.5517H137.326L137.355 33.6608C136.139 35.2129 134.897 35.9193 133.03 35.9193C129.953 35.9193 128.004 33.3797 128.542 30.1049L129.897 21.6068H133.199L131.961 29.3217C131.596 31.5802 132.555 32.9256 134.364 32.9256C136.368 32.9256 137.728 31.5417 138.119 29.0814L139.275 21.5996L142.605 21.6164Z" fill="#141D2E"/>
<path d="M146.159 21.6165H149.461L147.26 35.5518H143.956L146.159 21.6165ZM146.524 17.0683C146.543 16.4451 146.798 15.8524 147.239 15.4116C147.68 14.9707 148.273 14.715 148.896 14.6969C149.123 14.6913 149.35 14.732 149.561 14.8164C149.772 14.9009 149.965 15.0273 150.126 15.1882C150.287 15.349 150.413 15.5409 150.498 15.7521C150.583 15.9634 150.624 16.1896 150.619 16.4172C150.593 17.0391 150.334 17.6285 149.894 18.0686C149.454 18.5088 148.864 18.7674 148.242 18.7934C148.015 18.7984 147.789 18.7571 147.577 18.672C147.366 18.587 147.175 18.46 147.014 18.2987C146.853 18.1374 146.727 17.9452 146.643 17.7337C146.559 17.5222 146.519 17.2959 146.524 17.0683Z" fill="#141D2E"/>
<path d="M151.041 29.6052C151.041 24.6943 154.164 21.2489 158.352 21.2489C160.469 21.2489 162.305 22.2652 162.982 23.7909L164.424 14.5599H167.727L164.395 35.5686H161.317L161.43 33.423C160.92 34.21 160.215 34.852 159.384 35.2872C158.554 35.7224 157.625 35.936 156.687 35.9074C153.412 35.9002 151.041 33.3317 151.041 29.6052ZM162.249 27.6831C162.249 25.5208 161.007 24.1561 158.917 24.1561C156.377 24.1561 154.352 26.441 154.352 29.4058C154.352 31.5514 155.649 32.9617 157.682 32.9617C160.217 32.9641 162.249 30.6504 162.249 27.6855V27.6831Z" fill="#141D2E"/>
<path d="M25.0759 23.2804C25.0759 28.228 22.2886 31.786 19.2239 34.2194C16.8754 36.0841 14.4819 37.1877 13.3961 37.6366C12.3102 37.1877 9.91665 36.0841 7.56816 34.2196C4.50346 31.7865 1.71624 28.2289 1.71624 23.2825V12.865C1.71624 12.8255 1.73191 12.7877 1.75981 12.7598C1.7877 12.7319 1.82554 12.7162 1.86498 12.7162H24.9277C24.967 12.7164 25.0046 12.7321 25.0324 12.7599C25.0602 12.7878 25.0759 12.8256 25.0759 12.865V23.2804Z" fill="url(#paint0_linear_2799_124)" stroke="url(#paint1_linear_2799_124)" stroke-width="3.43249" stroke-miterlimit="10"/>
<path d="M15.1575 22.3303H13.0057C12.863 22.3303 12.7262 22.387 12.6253 22.4879C12.5244 22.5888 12.4678 22.7256 12.4678 22.8683C12.4678 23.0109 12.5244 23.1478 12.6253 23.2486C12.7262 23.3495 12.863 23.4062 13.0057 23.4062H13.5436V25.0242C13.56 25.1548 13.6235 25.2749 13.7221 25.362C13.8208 25.4491 13.9479 25.4971 14.0795 25.4971C14.2111 25.4971 14.3382 25.4491 14.4368 25.362C14.5355 25.2749 14.599 25.1548 14.6153 25.0242V23.4062H15.1533C15.2959 23.4062 15.4328 23.3495 15.5336 23.2486C15.6345 23.1478 15.6912 23.0109 15.6912 22.8683C15.6912 22.7256 15.6345 22.5888 15.5336 22.4879C15.4328 22.387 15.2959 22.3303 15.1533 22.3303H15.1575Z" fill="white"/>
<path d="M18.9328 27.2762C18.8144 27.4136 18.6802 27.5366 18.533 27.6425C17.3791 28.6904 15.8905 29.2941 14.3327 29.3458C12.7749 29.3976 11.2494 28.894 10.0286 27.9251C9.90718 27.8121 9.72717 27.7011 9.60995 27.586C9.51336 27.4958 9.38489 27.4477 9.2528 27.4522C9.12071 27.4567 8.99582 27.5135 8.90561 27.6101C8.8154 27.7067 8.76726 27.8351 8.77178 27.9672C8.77629 28.0993 8.83309 28.2242 8.92968 28.3144C10.4012 29.6884 12.3578 30.4222 14.3699 30.3547C16.382 30.2872 18.2851 29.4239 19.6612 27.9544C19.7501 27.8582 19.7979 27.731 19.7944 27.6C19.7909 27.469 19.7363 27.3445 19.6424 27.2532C19.5961 27.2059 19.5405 27.1687 19.4791 27.1441C19.4176 27.1194 19.3518 27.1078 19.2856 27.11C19.2195 27.1122 19.1545 27.1281 19.0949 27.1567C19.0352 27.1853 18.9821 27.226 18.9391 27.2762H18.9328Z" fill="white"/>
<path d="M8.5667 17.5787C8.51823 17.6256 8.47979 17.6819 8.45372 17.7441C8.42765 17.8064 8.4145 17.8733 8.41506 17.9407C8.41561 18.0082 8.42987 18.0748 8.45696 18.1366C8.48406 18.1984 8.52342 18.2541 8.57266 18.3002C8.62191 18.3463 8.68001 18.382 8.74344 18.405C8.80688 18.428 8.87432 18.4378 8.94168 18.434C9.00904 18.4301 9.07492 18.4126 9.13531 18.3825C9.19571 18.3524 9.24936 18.3104 9.29302 18.259C9.4114 18.1222 9.5456 17.9999 9.69281 17.8948C10.8465 16.8465 12.3352 16.2426 13.8931 16.1908C15.451 16.139 16.9765 16.6428 18.1972 17.6122C18.3186 17.7252 18.4986 17.8361 18.6158 17.9492C18.6628 17.9977 18.7191 18.0361 18.7813 18.0622C18.8435 18.0882 18.9104 18.1014 18.9779 18.1008C19.0454 18.1003 19.112 18.086 19.1738 18.0589C19.2356 18.0318 19.2912 17.9925 19.3374 17.9432C19.3835 17.894 19.4191 17.8359 19.4421 17.7724C19.4651 17.709 19.475 17.6416 19.4711 17.5742C19.4673 17.5068 19.4498 17.441 19.4197 17.3806C19.3896 17.3202 19.3476 17.2665 19.2961 17.2229C16.2694 14.3281 11.4301 14.5185 8.5667 17.5787Z" fill="white"/>
<path d="M17.4463 25.8886C16.8346 26.5414 16.0432 26.9982 15.172 27.2012C14.3008 27.4042 13.3889 27.3443 12.5517 27.0292C11.7145 26.714 10.9896 26.1576 10.4686 25.4305C9.94757 24.7033 9.65385 23.838 9.62459 22.9439C9.59532 22.0498 9.83182 21.1672 10.3042 20.4075C10.7765 19.6478 11.4635 19.0453 12.2783 18.676C13.0931 18.3068 13.9991 18.1874 14.8817 18.333C15.7643 18.4786 16.5839 18.8827 17.2369 19.4941C17.2886 19.5421 17.3497 19.5789 17.4164 19.6019C17.4831 19.625 17.5539 19.6339 17.6242 19.628C17.6941 19.628 17.7633 19.6139 17.8277 19.5866C17.8921 19.5592 17.9503 19.5192 17.9989 19.4689C18.0866 19.3707 18.1322 19.242 18.1259 19.1104C18.1197 18.9789 18.062 18.8551 17.9654 18.7656C17.4994 18.3309 16.961 17.981 16.3746 17.7316C15.6102 17.401 14.782 17.2438 13.9496 17.2713C13.1172 17.2988 12.3013 17.5103 11.5604 17.8907C10.7647 18.2949 10.0785 18.8854 9.56017 19.6118C9.04184 20.3383 8.70675 21.1793 8.58342 22.0632C8.46009 22.9471 8.55217 23.8476 8.85183 24.6883C9.15149 25.5289 9.64986 26.2846 10.3045 26.8912C10.771 27.3242 11.3093 27.6727 11.8953 27.921C12.6599 28.2508 13.4879 28.4076 14.3202 28.3801C15.1524 28.3526 15.9683 28.1415 16.7095 27.7619C17.2772 27.4736 17.7906 27.089 18.227 26.6254C18.2972 26.5511 18.3429 26.4571 18.3579 26.356C18.3728 26.2549 18.3564 26.1517 18.3107 26.0603C18.265 25.9689 18.1923 25.8937 18.1024 25.845C18.0126 25.7964 17.9099 25.7765 17.8084 25.7881C17.6598 25.7044 17.5446 25.7672 17.4316 25.8886H17.4463Z" fill="white"/>
<path d="M15.9358 24.4694C15.853 24.5669 15.8109 24.6925 15.8182 24.8202C15.8255 24.9479 15.8817 25.0679 15.975 25.1554C16.0684 25.2428 16.1918 25.291 16.3197 25.2899C16.4476 25.2889 16.5702 25.2386 16.6621 25.1497C17.1386 24.6403 17.4534 24.0011 17.5666 23.3128C17.6799 22.6246 17.5865 21.9182 17.2983 21.283C17.0101 20.6478 16.5401 20.1123 15.9476 19.7442C15.3551 19.3762 14.6667 19.1921 13.9696 19.2152C13.2725 19.2383 12.5978 19.4676 12.031 19.8741C11.4642 20.2806 11.0307 20.8461 10.7852 21.499C10.5397 22.1519 10.4934 22.8629 10.652 23.5422C10.8106 24.2214 11.167 24.8384 11.6762 25.315C11.7738 25.3978 11.8994 25.4399 12.0271 25.4326C12.1548 25.4253 12.2747 25.3691 12.3622 25.2758C12.4496 25.1824 12.4978 25.059 12.4967 24.9311C12.4957 24.8032 12.4455 24.6806 12.3565 24.5887C12.1085 24.3677 11.9073 24.0992 11.7646 23.7992C11.6219 23.4992 11.5407 23.1737 11.5257 22.8419C11.5107 22.51 11.5622 22.1785 11.6773 21.8668C11.7923 21.5552 11.9685 21.2697 12.1955 21.0272C12.4226 20.7847 12.6958 20.59 12.9992 20.4547C13.3026 20.3193 13.63 20.246 13.9621 20.2391C14.2942 20.2322 14.6244 20.2918 14.9331 20.4144C15.2419 20.537 15.523 20.7201 15.7599 20.9529C16.0077 21.1689 16.2094 21.4326 16.3529 21.7283C16.4964 22.024 16.5789 22.3455 16.5953 22.6738C16.6117 23.0021 16.5617 23.3303 16.4484 23.6388C16.3351 23.9473 16.1608 24.2298 15.9358 24.4694Z" fill="white"/>
<path d="M7.4749 19.113C6.98592 19.9994 6.68086 20.9753 6.578 21.9824C6.47514 22.9895 6.57658 24.0069 6.87626 24.9738C6.90212 25.0591 6.94915 25.1364 7.01296 25.1985C7.07677 25.2607 7.15529 25.3057 7.24118 25.3293C7.32708 25.3529 7.41755 25.3544 7.50417 25.3336C7.59079 25.3128 7.67073 25.2704 7.73654 25.2104C7.79616 25.1423 7.83896 25.0612 7.8615 24.9736C7.88404 24.886 7.88569 24.7943 7.86631 24.7059C7.69107 24.1082 7.60088 23.4889 7.59839 22.866C7.59267 22.3607 7.64535 21.8564 7.75538 21.3632C7.89234 20.7475 8.1202 20.1556 8.43146 19.607C8.46674 19.5483 8.48937 19.4828 8.49789 19.4149C8.5064 19.3469 8.50063 19.2779 8.48092 19.2122C8.46121 19.1466 8.42802 19.0858 8.38345 19.0338C8.33889 18.9818 8.28395 18.9396 8.22215 18.91C7.89562 18.774 7.57537 18.8723 7.46652 19.1193L7.4749 19.113Z" fill="white"/>
<path d="M19.8179 18.4976C19.759 18.5321 19.7078 18.5784 19.6678 18.6337C19.6277 18.689 19.5996 18.752 19.5852 18.8188C19.5709 18.8855 19.5705 18.9545 19.5843 19.0214C19.5981 19.0883 19.6256 19.1516 19.6651 19.2072C19.8744 19.5233 20.0398 19.9 20.2282 20.2538C20.7286 21.498 20.8552 22.8612 20.5924 24.1763C20.5133 24.5658 20.3882 24.9445 20.2198 25.3045C20.1919 25.3667 20.1773 25.434 20.1768 25.5021C20.1763 25.5703 20.1899 25.6378 20.2169 25.7003C20.2439 25.7629 20.2835 25.8192 20.3334 25.8657C20.3833 25.9121 20.4422 25.9477 20.5066 25.9701C20.6062 26.0072 20.7145 26.0141 20.818 25.9899C20.9216 25.9657 21.0156 25.9115 21.0885 25.8341C21.1336 25.7964 21.1633 25.7436 21.1722 25.6855C21.647 24.5471 21.839 23.3106 21.7318 22.0818C21.6246 20.8531 21.2215 19.6685 20.5568 18.6295C20.472 18.5195 20.3486 18.4456 20.2116 18.4227C20.0746 18.3998 19.9339 18.4296 19.8179 18.506V18.4976Z" fill="white"/>
<path d="M19.4433 24.1869C19.4983 24.1171 19.5363 24.0354 19.5542 23.9483C19.7401 23.0857 19.72 22.1915 19.4956 21.3382C19.4815 21.2696 19.4536 21.2046 19.4134 21.1472C19.3732 21.0898 19.3217 21.0413 19.2621 21.0046C19.2025 20.9679 19.1359 20.9437 19.0666 20.9337C18.9973 20.9237 18.9267 20.928 18.8591 20.9463C18.7915 20.9647 18.7283 20.9967 18.6736 21.0403C18.6188 21.084 18.5736 21.1384 18.5407 21.2002C18.5077 21.262 18.4878 21.3299 18.4822 21.3997C18.4765 21.4695 18.4852 21.5398 18.5077 21.6061C18.6973 22.3056 18.7116 23.041 18.5495 23.7474C18.532 23.8136 18.5287 23.8828 18.54 23.9503C18.5512 24.0179 18.5766 24.0823 18.6146 24.1393C18.6526 24.1963 18.7023 24.2446 18.7604 24.281C18.8184 24.3173 18.8835 24.3409 18.9514 24.3502C19.0405 24.3687 19.1329 24.3633 19.2193 24.3346C19.3057 24.306 19.3829 24.255 19.4433 24.1869Z" fill="white"/>
<path d="M8.14702 16.5071C8.43378 16.2622 8.69124 16.0487 8.98428 15.8038C9.09059 15.7225 9.16023 15.6023 9.1779 15.4696C9.19556 15.3369 9.1598 15.2027 9.07847 15.0964C8.99714 14.99 8.87691 14.9204 8.74424 14.9027C8.61156 14.8851 8.4773 14.9208 8.37099 15.0022C7.8933 15.3406 7.45331 15.7294 7.05859 16.1618C6.16024 17.1204 5.4672 18.2524 5.02196 19.4884C4.57673 20.7244 4.38869 22.0383 4.46938 23.3496C4.47639 23.4816 4.53407 23.6057 4.63039 23.6962C4.72671 23.7867 4.85424 23.8365 4.98639 23.8352C5.10862 23.8255 5.22247 23.7693 5.30454 23.6782C5.35579 23.6288 5.39463 23.5679 5.41791 23.5006C5.44119 23.4334 5.44825 23.3615 5.43851 23.291C5.42595 22.9393 5.41548 22.5877 5.43851 22.2046C5.55203 20.2097 6.37107 18.3201 7.74933 16.8734C7.89449 16.7658 8.0278 16.643 8.14702 16.5071Z" fill="white"/>
<path d="M10.2062 13.943C10.1417 13.9674 10.0834 14.0055 10.0352 14.0547C9.98695 14.104 9.95001 14.1631 9.92691 14.228C9.90381 14.2929 9.89511 14.3621 9.9014 14.4307C9.90769 14.4993 9.92883 14.5657 9.96336 14.6253C9.98802 14.6898 10.0264 14.7482 10.0758 14.7964C10.1252 14.8447 10.1845 14.8816 10.2496 14.9047C10.3146 14.9277 10.3839 14.9364 10.4527 14.9301C10.5215 14.9238 10.588 14.9027 10.6478 14.8681C12.201 14.18 13.9224 13.9643 15.5974 14.248C17.2724 14.5316 18.8268 15.302 20.0669 16.4631C20.1139 16.5116 20.1701 16.55 20.2324 16.5761C20.2946 16.6022 20.3615 16.6153 20.429 16.6148C20.4964 16.6142 20.5631 16.5999 20.6249 16.5728C20.6867 16.5458 20.7423 16.5064 20.7884 16.4571C20.8346 16.4079 20.8702 16.3498 20.8932 16.2864C20.9162 16.2229 20.926 16.1555 20.9222 16.0881C20.9183 16.0208 20.9008 15.9549 20.8708 15.8945C20.8407 15.8341 20.7986 15.7805 20.7472 15.7368C19.3623 14.4327 17.623 13.5667 15.7476 13.2476C13.8723 12.9284 11.9445 13.1704 10.2062 13.943Z" fill="white"/>
<path d="M20.4121 28.6662C19.0303 30.1463 17.1723 31.0937 15.1628 31.3428C13.1534 31.5918 11.1203 31.1268 9.41895 30.0288C9.30819 29.97 9.17956 29.9543 9.05793 29.9849C8.9363 30.0154 8.83033 30.09 8.76053 30.1942C8.69072 30.2984 8.66205 30.4248 8.68005 30.5489C8.69806 30.673 8.76146 30.786 8.85799 30.8661C10.7579 32.0962 13.0304 32.6177 15.2765 32.3391C17.5227 32.0604 19.5988 30.9994 21.1405 29.3423C21.229 29.2451 21.2762 29.1173 21.2719 28.9859C21.2676 28.8546 21.2122 28.7301 21.1175 28.639C21.071 28.5916 21.0152 28.5544 20.9537 28.5297C20.8921 28.5051 20.826 28.4935 20.7597 28.4956C20.6934 28.4978 20.6283 28.5137 20.5685 28.5423C20.5086 28.571 20.4554 28.6117 20.4121 28.662V28.6662Z" fill="white"/>
<defs>
<linearGradient id="paint0_linear_2799_124" x1="2.83544e-07" y1="25.1651" x2="26.2103" y2="21.2598" gradientUnits="userSpaceOnUse">
<stop offset="0.370023" stop-color="#6C47FF"/>
<stop offset="0.808155" stop-color="#17CCFC"/>
</linearGradient>
<linearGradient id="paint1_linear_2799_124" x1="2.83544e-07" y1="25.1651" x2="26.2103" y2="21.2598" gradientUnits="userSpaceOnUse">
<stop offset="0.370023" stop-color="#6C47FF"/>
<stop offset="0.808155" stop-color="#17CCFC"/>
</linearGradient>
</defs>
</svg>
