<svg width="24" height="24" viewBox="0 0 24 24" fill="none" xmlns="http://www.w3.org/2000/svg">
<path d="M4.5 22C4.1 22 3.75 21.85 3.45 21.55C3.15 21.25 3 20.9 3 20.5V5C3 4.6 3.15 4.25 3.45 3.95C3.75 3.65 4.1 3.5 4.5 3.5H6.125V2H7.75V3.5H16.25V2H17.875V3.5H19.5C19.9 3.5 20.25 3.65 20.55 3.95C20.85 4.25 21 4.6 21 5V20.5C21 20.9 20.85 21.25 20.55 21.55C20.25 21.85 19.9 22 19.5 22H4.5ZM4.5 20.5H19.5V9.75H4.5V20.5Z" fill="#FF8000"/>
<path d="M8.8 18.4C8.58 18.4 8.39167 18.3217 8.235 18.165C8.07833 18.0083 8 17.82 8 17.6V16.4H16V17.6C16 17.82 15.9217 18.0083 15.765 18.165C15.6083 18.3217 15.42 18.4 15.2 18.4H8.8ZM12 15.4C11.76 15.4 11.57 15.4667 11.43 15.6C11.29 15.7333 11.0333 15.8 10.66 15.8C10.2867 15.8 10.0333 15.7333 9.9 15.6C9.76667 15.4667 9.58 15.4 9.34 15.4C9.1 15.4 8.91 15.4667 8.77 15.6C8.63 15.7333 8.37333 15.8 8 15.8V15C8.24 15 8.43 14.9333 8.57 14.8C8.71 14.6667 8.96667 14.6 9.34 14.6C9.71333 14.6 9.96667 14.6667 10.1 14.8C10.2333 14.9333 10.42 15 10.66 15C10.9 15 11.09 14.9333 11.23 14.8C11.37 14.6667 11.6267 14.6 12 14.6C12.3733 14.6 12.63 14.6667 12.77 14.8C12.91 14.9333 13.1 15 13.34 15C13.58 15 13.7667 14.9333 13.9 14.8C14.0333 14.6667 14.2867 14.6 14.66 14.6C15.0333 14.6 15.2967 14.6667 15.45 14.8C15.6033 14.9333 15.7867 15 16 15V15.8C15.6267 15.8 15.3767 15.7333 15.25 15.6C15.1233 15.4667 14.94 15.4 14.7 15.4C14.46 15.4 14.2667 15.4667 14.12 15.6C13.9733 15.7333 13.7133 15.8 13.34 15.8C12.9667 15.8 12.71 15.7333 12.57 15.6C12.43 15.4667 12.24 15.4 12 15.4ZM8 14V13.6C8 12.8333 8.36167 12.2417 9.085 11.825C9.80833 11.4083 10.78 11.2 12 11.2C13.22 11.2 14.1917 11.4083 14.915 11.825C15.6383 12.2417 16 12.8333 16 13.6V14H8Z" fill="#FF8000"/>
</svg>
