<svg width="24" height="24" viewBox="0 0 24 24" fill="none" xmlns="http://www.w3.org/2000/svg">
<path d="M21.0248 2.811C20.5606 2.352 20.0074 1.9929 19.3993 1.75583C18.7911 1.51875 18.1408 1.40871 17.4885 1.4325C16.2341 1.47851 15.0447 2.00227 14.1638 2.89655C13.2829 3.79084 12.7771 4.98801 12.75 6.243C12.7323 7.30701 13.0693 8.34665 13.7078 9.198C13.7978 9.33225 15.984 12.372 16.6545 13.302C16.7629 13.4488 16.904 13.5681 17.0667 13.6507C17.2295 13.7332 17.4092 13.7765 17.5916 13.7773C17.7741 13.778 17.9541 13.7361 18.1175 13.6549C18.2808 13.5736 18.423 13.4554 18.5325 13.3095C18.5325 13.3095 21.4238 9.35925 21.5115 9.2475C22.1492 8.39874 22.4958 7.36684 22.5 6.30525C22.5023 5.65345 22.3728 5.00793 22.1192 4.40746C21.8657 3.80698 21.4934 3.26395 21.0248 2.811ZM17.625 8.25C17.2542 8.25 16.8916 8.14003 16.5833 7.934C16.275 7.72797 16.0346 7.43514 15.8927 7.09253C15.7508 6.74992 15.7137 6.37292 15.786 6.0092C15.8584 5.64549 16.037 5.31139 16.2992 5.04917C16.5614 4.78695 16.8955 4.60837 17.2592 4.53602C17.6229 4.46368 17.9999 4.50081 18.3425 4.64272C18.6851 4.78464 18.978 5.02496 19.184 5.3333C19.39 5.64164 19.5 6.00416 19.5 6.375C19.4994 6.87209 19.3017 7.34866 18.9502 7.70016C18.5987 8.05167 18.1221 8.2494 17.625 8.25ZM5.25 20.625C5.25 20.9958 5.14003 21.3583 4.93401 21.6667C4.72798 21.975 4.43514 22.2154 4.09253 22.3573C3.74992 22.4992 3.37292 22.5363 3.00921 22.464C2.64549 22.3916 2.3114 22.213 2.04918 21.9508C1.78695 21.6886 1.60838 21.3545 1.53603 20.9908C1.46368 20.6271 1.50081 20.2501 1.64273 19.9075C1.78464 19.5649 2.02496 19.272 2.33331 19.066C2.64165 18.86 3.00416 18.75 3.375 18.75C3.8721 18.7506 4.34867 18.9483 4.70017 19.2998C5.05167 19.6513 5.24941 20.1279 5.25 20.625ZM13.5 18.75C13.4994 19.3466 13.2622 19.9185 12.8403 20.3403C12.4185 20.7622 11.8466 20.9994 11.25 21H6.7125C6.78668 20.4938 6.72828 19.9769 6.543 19.5H11.25C11.4489 19.5 11.6397 19.421 11.7803 19.2803C11.921 19.1397 12 18.9489 12 18.75C12 18.5511 11.921 18.3603 11.7803 18.2197C11.6397 18.079 11.4489 18 11.25 18H8.25C7.65345 17.9994 7.0815 17.7622 6.65967 17.3403C6.23784 16.9185 6.0006 16.3466 6 15.75V15C6.0006 14.4034 6.23784 13.8315 6.65967 13.4097C7.0815 12.9878 7.65345 12.7506 8.25 12.75H14.409C14.8875 13.401 15.222 13.9102 15.5033 14.25H8.25C8.05115 14.2502 7.8605 14.3293 7.71989 14.4699C7.57928 14.6105 7.5002 14.8011 7.5 15V15.75C7.5002 15.9488 7.57928 16.1395 7.71989 16.2801C7.8605 16.4207 8.05115 16.4998 8.25 16.5H11.25C11.8466 16.5006 12.4185 16.7378 12.8403 17.1597C13.2622 17.5815 13.4994 18.1534 13.5 18.75Z" fill="#00D4A1"/>
</svg>
