<svg width="286" height="60" viewBox="0 0 286 60" fill="none" xmlns="http://www.w3.org/2000/svg">
<circle cx="28.4985" cy="28.4985" r="28.4985" fill="#14A800"/>
<path d="M39.0407 19.4243C34.9059 19.4443 31.7616 22.1798 30.5853 26.5384C28.6114 23.5001 27.0712 20.025 26.1877 17.0906L21.8351 17.1106L21.8891 28.6472C21.8939 29.7441 21.4629 30.798 20.6909 31.5773C19.919 32.3565 18.8692 32.7974 17.7723 32.8029C16.6754 32.8077 15.6216 32.3768 14.8423 31.6048C14.063 30.8329 13.6222 29.7831 13.6166 28.6862L13.5616 17.1495L9.20703 17.1695L9.261 28.7062C9.28399 33.4936 13.1089 37.2875 17.7903 37.2645C22.4717 37.2415 26.2637 33.4146 26.2417 28.6262L26.2317 26.6673C27.1092 28.4034 28.2066 30.2484 29.4129 31.8765L26.7514 44.6225L31.2129 44.6025L33.1319 35.3416C34.8779 36.423 36.8299 37.0656 39.1246 37.0546C43.914 37.0316 47.8148 33.0968 47.7898 28.0895C47.7716 25.7825 46.8415 23.5764 45.2025 21.9528C43.5635 20.3291 41.3487 19.4198 39.0417 19.4233L39.0407 19.4243ZM39.1026 32.5941C37.3616 32.6021 35.6175 31.8485 34.1973 30.6571L34.6241 28.9151V28.8151C34.9439 26.9622 35.9054 23.8019 39.1716 23.7879C40.3232 23.786 41.429 24.239 42.2483 25.0484C43.0676 25.8577 43.5341 26.9579 43.5462 28.1095C43.4482 30.6132 41.3904 32.5821 39.1036 32.5931L39.1026 32.5941Z" fill="#FEFDFE"/>
<path d="M135.8 35.9236C131.26 35.9454 127.562 39.6766 127.583 44.3224C127.604 48.9681 131.339 52.6643 135.878 52.6434C140.418 52.6226 144.117 48.8904 144.095 44.2466C144.073 39.6027 140.339 35.9037 135.798 35.9255L135.8 35.9236ZM135.862 49.2364C134.575 49.2439 133.338 48.7388 132.424 47.8337C131.509 46.9286 131.002 45.6957 130.988 44.4086C130.974 43.1216 131.486 41.8848 132.391 40.9703C133.296 40.0557 134.529 39.5487 135.816 39.5345C137.103 39.5203 138.34 40.032 139.254 40.9371C140.169 41.8422 140.676 43.0752 140.69 44.3622C140.703 46.9448 138.444 49.2231 135.862 49.2364ZM154.191 39.8614C151.817 39.8728 149.968 41.8422 149.98 44.2163L150.017 52.1629L146.405 52.18L146.332 36.388L149.945 36.371L149.957 38.8474C149.957 38.8474 151.492 36.3643 154.589 36.3501L155.622 36.3444L155.639 39.8529L154.191 39.8614ZM118.153 36.5226L120.888 47.3475L123.728 36.4961L127.34 36.48L122.871 52.3023L119.362 52.3184L116.525 41.2887L113.79 52.344L110.28 52.3601L105.562 36.5899L109.071 36.5738L112.217 47.3968L114.748 36.5472L118.153 36.5226ZM166.179 43.5225C168.648 42.0668 170.392 39.3743 170.377 36.2781L166.765 36.2952C166.778 38.9791 164.619 41.157 162.039 41.1665L161.523 41.1684L161.466 28.6802L157.853 28.6972L157.964 52.125L161.575 52.1089L161.541 44.6787L161.953 44.6768C162.366 44.675 162.781 44.8797 162.886 45.1886L167.975 52.0786L172.207 52.0596L166.179 43.5225Z" fill="#14A800"/>
<path d="M97.1988 36.1058C93.2781 36.1247 90.2965 38.7186 89.181 42.8517C87.3093 39.9706 85.8488 36.6753 85.011 33.8928L80.8837 33.9118L80.9349 44.8514C80.9394 45.8915 80.5308 46.8908 79.7988 47.6298C79.0668 48.3687 78.0713 48.7868 77.0312 48.792C75.9911 48.7966 74.9917 48.3879 74.2528 47.6559C73.5139 46.9239 73.0958 45.9285 73.0905 44.8883L73.0384 33.9487L68.9092 33.9677L68.9604 44.9073C68.9822 49.4469 72.6091 53.0445 77.0483 53.0227C81.4874 53.0009 85.0831 49.372 85.0622 44.8315L85.0527 42.9739C85.8849 44.6201 86.9255 46.3696 88.0694 47.9135L85.5456 59.9998L89.7762 59.9809L91.5958 51.1993C93.2515 52.2247 95.1024 52.8341 97.2784 52.8237C101.82 52.8019 105.519 49.0707 105.495 44.3225C105.478 42.1349 104.596 40.043 103.042 38.5034C101.488 36.9638 99.3874 36.1015 97.1998 36.1048L97.1988 36.1058ZM97.2576 48.594C95.6066 48.6015 93.9528 47.8869 92.6061 46.7573L93.0108 45.1054V45.0106C93.3141 43.2535 94.2258 40.2568 97.323 40.2435C98.415 40.2417 99.4636 40.6713 100.24 41.4388C101.017 42.2063 101.46 43.2495 101.471 44.3415C101.378 46.7156 99.4269 48.5826 97.2585 48.593L97.2576 48.594Z" fill="#14A800"/>
<path d="M69.35 16.0366L69.2754 0.558838L81.1509 8.35751L69.35 16.0366Z" fill="#E7769B"/>
<path d="M81.1417 8.3374L93.0961 0.544678H69.2588L81.1417 8.3374Z" fill="#EEA4BC"/>
<path d="M70.3962 16.0583L92.4819 1.64956V15.7292L81.0881 23.6868L70.3962 16.0583Z" fill="#DE497A" stroke="#DE497A" stroke-width="1.17908"/>
<path d="M269.617 52.4416L271.204 45.5786L265.88 40.9626L272.914 40.352L275.649 33.8799L278.385 40.352L285.418 40.9626L280.094 45.5786L281.682 52.4416L275.649 48.8025L269.617 52.4416Z" fill="#14A800"/>
<path d="M248.778 52.4416L250.365 45.5786L245.041 40.9626L252.075 40.352L254.81 33.8799L257.546 40.352L264.58 40.9626L259.255 45.5786L260.843 52.4416L254.81 48.8025L248.778 52.4416Z" fill="#14A800"/>
<path d="M207.1 52.4416L208.688 45.5786L203.363 40.9626L210.397 40.352L213.133 33.8799L215.868 40.352L222.902 40.9626L217.578 45.5786L219.165 52.4416L213.133 48.8025L207.1 52.4416Z" fill="#14A800"/>
<path d="M227.939 52.4416L229.526 45.5786L224.202 40.9626L231.236 40.352L233.971 33.8799L236.707 40.352L243.741 40.9626L238.416 45.5786L240.004 52.4416L233.971 48.8025L227.939 52.4416Z" fill="#14A800"/>
<path d="M186.261 52.4416L187.849 45.5786L182.524 40.9626L189.558 40.352L192.294 33.8799L195.029 40.352L202.063 40.9626L196.739 45.5786L198.326 52.4416L192.294 48.8025L186.261 52.4416Z" fill="#14A800"/>
<path d="M106.648 18.5447V6.63408H102.199V5.04048H112.903V6.63408H108.435V18.5447H106.648ZM114.04 11.9676C114.04 9.72611 114.642 7.97283 115.846 6.70778C117.049 5.43658 118.603 4.80097 120.507 4.80097C121.753 4.80097 122.877 5.09882 123.878 5.6945C124.879 6.29018 125.641 7.1223 126.163 8.19084C126.691 9.25325 126.955 10.46 126.955 11.811C126.955 13.1805 126.679 14.4056 126.126 15.4864C125.573 16.5673 124.79 17.3871 123.777 17.9459C122.764 18.4986 121.671 18.775 120.498 18.775C119.226 18.775 118.09 18.4679 117.089 17.8538C116.088 17.2397 115.33 16.4014 114.814 15.339C114.298 14.2766 114.04 13.1528 114.04 11.9676ZM115.883 11.9952C115.883 13.6226 116.319 14.9061 117.191 15.8457C118.069 16.7791 119.168 17.2458 120.488 17.2458C121.833 17.2458 122.939 16.773 123.805 15.8273C124.677 14.8815 125.113 13.5397 125.113 11.8018C125.113 10.7025 124.925 9.74453 124.551 8.92777C124.182 8.10487 123.639 7.46927 122.92 7.02097C122.208 6.56653 121.407 6.33931 120.516 6.33931C119.251 6.33931 118.161 6.77533 117.246 7.64736C116.337 8.51325 115.883 9.96254 115.883 11.9952ZM129.456 18.5447V5.04048H134.55C135.446 5.04048 136.131 5.08346 136.604 5.16944C137.267 5.27998 137.823 5.49184 138.271 5.80504C138.72 6.11209 139.079 6.54504 139.349 7.10387C139.625 7.66271 139.764 8.27682 139.764 8.94619C139.764 10.0946 139.398 11.0679 138.667 11.8663C137.937 12.6585 136.616 13.0546 134.706 13.0546H131.243V18.5447H129.456ZM131.243 11.461H134.734C135.889 11.461 136.708 11.246 137.193 10.8161C137.679 10.3863 137.921 9.78138 137.921 9.00146C137.921 8.43649 137.777 7.95441 137.488 7.55524C137.206 7.14993 136.831 6.8828 136.364 6.75383C136.064 6.674 135.508 6.63408 134.697 6.63408H131.243V11.461ZM147.344 18.5447V5.04048H153.332C154.535 5.04048 155.45 5.1633 156.077 5.40894C156.703 5.64844 157.204 6.07525 157.578 6.68935C157.953 7.30346 158.14 7.98205 158.14 8.72512C158.14 9.68312 157.83 10.4907 157.21 11.1478C156.59 11.8049 155.632 12.2225 154.336 12.4005C154.809 12.6278 155.168 12.8519 155.414 13.073C155.936 13.552 156.43 14.1507 156.897 14.8693L159.246 18.5447H156.998L155.211 15.7351C154.689 14.9245 154.259 14.3043 153.921 13.8744C153.584 13.4445 153.28 13.1436 153.009 12.9717C152.745 12.7997 152.475 12.68 152.199 12.6124C151.996 12.5694 151.665 12.5479 151.204 12.5479H149.131V18.5447H147.344ZM149.131 11.0004H152.973C153.789 11.0004 154.428 10.9175 154.889 10.7517C155.349 10.5797 155.699 10.3095 155.939 9.94105C156.178 9.56644 156.298 9.16113 156.298 8.72512C156.298 8.08644 156.065 7.56138 155.598 7.14993C155.137 6.73848 154.407 6.53276 153.406 6.53276H149.131V11.0004ZM159.655 18.5447L164.842 5.04048H166.767L172.294 18.5447H170.258L168.683 14.4547H163.036L161.553 18.5447H159.655ZM163.552 12.9993H168.13L166.721 9.25939C166.291 8.12329 165.971 7.18985 165.763 6.45906C165.591 7.32495 165.348 8.1847 165.035 9.03831L163.552 12.9993ZM175.946 18.5447V6.63408H171.497V5.04048H182.201V6.63408H177.733V18.5447H175.946ZM184.268 18.5447V5.04048H194.033V6.63408H186.055V10.7701H193.526V12.3545H186.055V16.9511H194.346V18.5447H184.268ZM197.003 18.5447V5.04048H201.655C202.705 5.04048 203.507 5.10496 204.059 5.23392C204.833 5.41201 205.493 5.73442 206.04 6.20114C206.752 6.80296 207.283 7.57367 207.633 8.51325C207.99 9.44669 208.168 10.5152 208.168 11.7189C208.168 12.7444 208.048 13.6533 207.808 14.4455C207.569 15.2377 207.262 15.8948 206.887 16.4168C206.513 16.9326 206.101 17.341 205.653 17.6419C205.211 17.9367 204.673 18.1609 204.041 18.3144C203.415 18.4679 202.693 18.5447 201.876 18.5447H197.003ZM198.79 16.9511H201.674C202.564 16.9511 203.261 16.8682 203.765 16.7024C204.274 16.5365 204.68 16.3032 204.981 16.0023C205.404 15.5785 205.733 15.0105 205.966 14.2981C206.206 13.5796 206.325 12.7107 206.325 11.6912C206.325 10.2788 206.092 9.19491 205.625 8.43956C205.165 7.67806 204.603 7.16836 203.94 6.91043C203.461 6.7262 202.69 6.63408 201.627 6.63408H198.79V16.9511ZM216.264 18.5447V5.04048H221.358C222.255 5.04048 222.94 5.08346 223.413 5.16944C224.076 5.27998 224.632 5.49184 225.08 5.80504C225.528 6.11209 225.887 6.54504 226.158 7.10387C226.434 7.66271 226.572 8.27682 226.572 8.94619C226.572 10.0946 226.207 11.0679 225.476 11.8663C224.745 12.6585 223.425 13.0546 221.515 13.0546H218.051V18.5447H216.264ZM218.051 11.461H221.543C222.697 11.461 223.517 11.246 224.002 10.8161C224.487 10.3863 224.73 9.78138 224.73 9.00146C224.73 8.43649 224.585 7.95441 224.297 7.55524C224.014 7.14993 223.64 6.8828 223.173 6.75383C222.872 6.674 222.316 6.63408 221.506 6.63408H218.051V11.461ZM228.962 18.5447V5.04048H230.749V16.9511H237.4V18.5447H228.962ZM248.587 5.04048H250.375V12.8427C250.375 14.1999 250.221 15.2776 249.914 16.076C249.607 16.8743 249.051 17.5253 248.247 18.0288C247.448 18.5263 246.398 18.775 245.096 18.775C243.831 18.775 242.796 18.557 241.992 18.1209C241.187 17.6849 240.613 17.0555 240.269 16.2326C239.926 15.4035 239.754 14.2736 239.754 12.8427V5.04048H241.541V12.8335C241.541 14.0064 241.648 14.8723 241.863 15.4312C242.084 15.9839 242.459 16.4107 242.987 16.7116C243.521 17.0125 244.172 17.1629 244.94 17.1629C246.254 17.1629 247.19 16.8651 247.749 16.2694C248.308 15.6737 248.587 14.5284 248.587 12.8335V5.04048ZM252.94 14.206L254.626 14.0586C254.705 14.7341 254.89 15.2899 255.178 15.7259C255.473 16.1558 255.927 16.5058 256.542 16.7761C257.156 17.0401 257.846 17.1721 258.614 17.1721C259.296 17.1721 259.898 17.0708 260.42 16.8682C260.942 16.6655 261.328 16.3892 261.58 16.0391C261.838 15.6829 261.967 15.2961 261.967 14.8785C261.967 14.4547 261.844 14.0863 261.599 13.7731C261.353 13.4537 260.948 13.1866 260.383 12.9717C260.02 12.8304 259.219 12.6124 257.979 12.3176C256.738 12.0167 255.869 11.7342 255.372 11.4702C254.727 11.1324 254.245 10.7148 253.925 10.2174C253.612 9.71383 253.456 9.15192 253.456 8.53167C253.456 7.85001 253.649 7.21441 254.036 6.62487C254.423 6.02919 254.988 5.57782 255.731 5.27077C256.474 4.96371 257.3 4.81019 258.209 4.81019C259.21 4.81019 260.091 4.97292 260.853 5.2984C261.62 5.61774 262.21 6.0906 262.621 6.71699C263.033 7.34338 263.254 8.05267 263.284 8.84487L261.571 8.97383C261.479 8.12022 261.166 7.47541 260.631 7.03939C260.103 6.60338 259.32 6.38537 258.283 6.38537C257.202 6.38537 256.413 6.58495 255.915 6.98412C255.424 7.37715 255.178 7.85308 255.178 8.41192C255.178 8.89707 255.353 9.29623 255.703 9.60943C256.047 9.92262 256.944 10.245 258.393 10.5766C259.848 10.9021 260.846 11.1877 261.387 11.4333C262.173 11.7956 262.753 12.2562 263.128 12.8151C263.502 13.3678 263.69 14.0064 263.69 14.7311C263.69 15.4496 263.484 16.1282 263.073 16.7668C262.661 17.3994 262.068 17.8937 261.295 18.2499C260.527 18.5999 259.661 18.775 258.697 18.775C257.475 18.775 256.449 18.5969 255.62 18.2407C254.797 17.8845 254.15 17.3502 253.677 16.6379C253.21 15.9194 252.964 15.1088 252.94 14.206Z" fill="#28534E"/>
<path d="M106.648 18.5447H106.412V18.7805H106.648V18.5447ZM106.648 6.63408H106.884V6.39827H106.648V6.63408ZM102.199 6.63408H101.963V6.8699H102.199V6.63408ZM102.199 5.04048V4.80466H101.963V5.04048H102.199ZM112.903 5.04048H113.139V4.80466H112.903V5.04048ZM112.903 6.63408V6.8699H113.139V6.63408H112.903ZM108.435 6.63408V6.39827H108.199V6.63408H108.435ZM108.435 18.5447V18.7805H108.671V18.5447H108.435ZM106.884 18.5447V6.63408H106.412V18.5447H106.884ZM106.648 6.39827H102.199V6.8699H106.648V6.39827ZM102.435 6.63408V5.04048H101.963V6.63408H102.435ZM102.199 5.27629H112.903V4.80466H102.199V5.27629ZM112.667 5.04048V6.63408H113.139V5.04048H112.667ZM112.903 6.39827H108.435V6.8699H112.903V6.39827ZM108.199 6.63408V18.5447H108.671V6.63408H108.199ZM108.435 18.3089H106.648V18.7805H108.435V18.3089ZM115.846 6.70778L116.017 6.87033L116.017 6.86991L115.846 6.70778ZM126.163 8.19084L125.951 8.29435L125.952 8.29581L126.163 8.19084ZM123.777 17.9459L123.89 18.1529L123.891 18.1524L123.777 17.9459ZM117.191 15.8457L117.018 16.0061L117.019 16.0073L117.191 15.8457ZM123.805 15.8273L123.631 15.6674L123.631 15.668L123.805 15.8273ZM124.551 8.92777L124.336 9.02414L124.336 9.02608L124.551 8.92777ZM122.92 7.02097L122.793 7.21979L122.795 7.22104L122.92 7.02097ZM117.246 7.64736L117.409 7.81809L117.409 7.81807L117.246 7.64736ZM114.276 11.9676C114.276 9.76879 114.866 8.08013 116.017 6.87033L115.675 6.54523C114.419 7.86553 113.804 9.68343 113.804 11.9676H114.276ZM116.017 6.86991C117.172 5.65013 118.662 5.03679 120.507 5.03679V4.56516C118.545 4.56516 116.927 5.22302 115.675 6.54564L116.017 6.86991ZM120.507 5.03679C121.714 5.03679 122.796 5.3247 123.758 5.89715L123.999 5.49185C122.959 4.87293 121.793 4.56516 120.507 4.56516V5.03679ZM123.758 5.89715C124.718 6.46885 125.449 7.26611 125.951 8.29435L126.375 8.08734C125.833 6.97848 125.04 6.11151 123.999 5.49185L123.758 5.89715ZM125.952 8.29581C126.461 9.32134 126.719 10.4913 126.719 11.811H127.191C127.191 10.4286 126.92 9.18515 126.374 8.08587L125.952 8.29581ZM126.719 11.811C126.719 13.148 126.45 14.3355 125.916 15.3791L126.336 15.5938C126.908 14.4757 127.191 13.213 127.191 11.811H126.719ZM125.916 15.3791C125.384 16.4202 124.633 17.2045 123.663 17.7394L123.891 18.1524C124.947 17.5697 125.763 16.7143 126.336 15.5938L125.916 15.3791ZM123.664 17.7389C122.686 18.2724 121.632 18.5392 120.498 18.5392V19.0108C121.709 19.0108 122.841 18.7249 123.89 18.1529L123.664 17.7389ZM120.498 18.5392C119.266 18.5392 118.174 18.2423 117.213 17.6528L116.966 18.0548C118.007 18.6936 119.187 19.0108 120.498 19.0108V18.5392ZM117.213 17.6528C116.25 17.0624 115.523 16.2582 115.026 15.236L114.602 15.442C115.137 16.5447 115.926 17.417 116.966 18.0548L117.213 17.6528ZM115.026 15.236C114.526 14.2059 114.276 13.1173 114.276 11.9676H113.804C113.804 13.1884 114.07 14.3474 114.602 15.442L115.026 15.236ZM115.647 11.9952C115.647 13.6655 116.095 15.0121 117.018 16.0061L117.364 15.6853C116.542 14.8001 116.118 13.5798 116.118 11.9952H115.647ZM117.019 16.0073C117.943 16.9897 119.105 17.4817 120.488 17.4817V17.01C119.231 17.01 118.195 16.5686 117.362 15.6841L117.019 16.0073ZM120.488 17.4817C121.896 17.4817 123.066 16.9836 123.979 15.9865L123.631 15.668C122.812 16.5623 121.771 17.01 120.488 17.01V17.4817ZM123.978 15.9871C124.902 14.9845 125.348 13.5778 125.348 11.8018H124.877C124.877 13.5016 124.451 14.7786 123.631 15.6674L123.978 15.9871ZM125.348 11.8018C125.348 10.676 125.157 9.68316 124.765 8.82946L124.336 9.02608C124.694 9.8059 124.877 10.7291 124.877 11.8018H125.348ZM124.766 8.8314C124.38 7.96862 123.806 7.29565 123.045 6.8209L122.795 7.22104C123.472 7.64289 123.985 8.24111 124.336 9.02414L124.766 8.8314ZM123.047 6.82216C122.295 6.34222 121.449 6.10349 120.516 6.10349V6.57513C121.364 6.57513 122.121 6.79084 122.793 7.21978L123.047 6.82216ZM120.516 6.10349C119.19 6.10349 118.042 6.56279 117.083 7.47665L117.409 7.81807C118.28 6.98787 119.312 6.57513 120.516 6.57513V6.10349ZM117.083 7.47662C116.106 8.408 115.647 9.93656 115.647 11.9952H116.118C116.118 9.98852 116.568 8.6185 117.409 7.81809L117.083 7.47662ZM129.456 18.5447H129.22V18.7805H129.456V18.5447ZM129.456 5.04048V4.80466H129.22V5.04048H129.456ZM136.604 5.16944L136.562 5.40148L136.565 5.40205L136.604 5.16944ZM138.271 5.80504L138.136 5.99836L138.138 5.9996L138.271 5.80504ZM139.349 7.10387L139.137 7.20653L139.138 7.2084L139.349 7.10387ZM138.667 11.8663L138.841 12.0262L138.841 12.0255L138.667 11.8663ZM131.243 13.0546V12.8187H131.007V13.0546H131.243ZM131.243 18.5447V18.7805H131.479V18.5447H131.243ZM131.243 11.461H131.007V11.6968H131.243V11.461ZM137.488 7.55524L137.295 7.6901L137.297 7.69342L137.488 7.55524ZM136.364 6.75383L136.427 6.52652L136.425 6.5259L136.364 6.75383ZM131.243 6.63408V6.39827H131.007V6.63408H131.243ZM129.692 18.5447V5.04048H129.22V18.5447H129.692ZM129.456 5.27629H134.55V4.80466H129.456V5.27629ZM134.55 5.27629C135.442 5.27629 136.11 5.31931 136.562 5.40145L136.646 4.93743C136.152 4.84761 135.451 4.80466 134.55 4.80466V5.27629ZM136.565 5.40205C137.202 5.50811 137.722 5.70933 138.136 5.99835L138.406 5.61173C137.923 5.27436 137.333 5.05184 136.643 4.93683L136.565 5.40205ZM138.138 5.9996C138.548 6.28028 138.882 6.67934 139.137 7.20653L139.561 7.00122C139.276 6.41073 138.891 5.9439 138.404 5.61048L138.138 5.9996ZM139.138 7.2084C139.397 7.73238 139.528 8.31035 139.528 8.94619H139.999C139.999 8.24329 139.854 7.59304 139.56 6.99934L139.138 7.2084ZM139.528 8.94619C139.528 10.0396 139.182 10.955 138.493 11.707L138.841 12.0255C139.614 11.1809 139.999 10.1496 139.999 8.94619H139.528ZM138.494 11.7064C137.832 12.4239 136.598 12.8187 134.706 12.8187V13.2904C136.635 13.2904 138.041 12.8931 138.841 12.0262L138.494 11.7064ZM134.706 12.8187H131.243V13.2904H134.706V12.8187ZM131.007 13.0546V18.5447H131.479V13.0546H131.007ZM131.243 18.3089H129.456V18.7805H131.243V18.3089ZM131.243 11.6968H134.734V11.2251H131.243V11.6968ZM134.734 11.6968C135.906 11.6968 136.799 11.4811 137.35 10.9926L137.037 10.6396C136.618 11.011 135.871 11.2251 134.734 11.2251V11.6968ZM137.35 10.9926C137.896 10.509 138.157 9.83391 138.157 9.00146H137.685C137.685 9.72885 137.462 10.2636 137.037 10.6396L137.35 10.9926ZM138.157 9.00146C138.157 8.39444 138.001 7.86217 137.679 7.41707L137.297 7.69342C137.553 8.04665 137.685 8.47853 137.685 9.00146H138.157ZM137.682 7.4204C137.368 6.97098 136.948 6.67046 136.427 6.52653L136.302 6.98113C136.714 7.09513 137.043 7.32888 137.295 7.69008L137.682 7.4204ZM136.425 6.5259C136.09 6.43717 135.506 6.39827 134.697 6.39827V6.8699C135.51 6.8699 136.037 6.91083 136.304 6.98177L136.425 6.5259ZM134.697 6.39827H131.243V6.8699H134.697V6.39827ZM131.007 6.63408V11.461H131.479V6.63408H131.007ZM147.344 18.5447H147.108V18.7805H147.344V18.5447ZM147.344 5.04048V4.80466H147.108V5.04048H147.344ZM156.077 5.40894L155.991 5.62849L155.993 5.62921L156.077 5.40894ZM154.336 12.4005L154.304 12.1669L153.527 12.2736L154.234 12.6131L154.336 12.4005ZM155.414 13.073L155.573 12.8992L155.571 12.8977L155.414 13.073ZM156.897 14.8693L157.095 14.7423L157.094 14.7408L156.897 14.8693ZM159.246 18.5447V18.7805H159.676L159.444 18.4177L159.246 18.5447ZM156.998 18.5447L156.799 18.6712L156.869 18.7805H156.998V18.5447ZM155.211 15.7351L155.41 15.6086L155.409 15.6075L155.211 15.7351ZM153.009 12.9717L152.881 13.1693L152.883 13.1706L153.009 12.9717ZM152.199 12.6124L152.255 12.3832L152.248 12.3817L152.199 12.6124ZM149.131 12.5479V12.3121H148.896V12.5479H149.131ZM149.131 18.5447V18.7805H149.367V18.5447H149.131ZM149.131 11.0004H148.896V11.2362H149.131V11.0004ZM154.889 10.7517L154.968 10.9736L154.971 10.9726L154.889 10.7517ZM155.939 9.94105L156.136 10.0696L156.137 10.0681L155.939 9.94105ZM155.598 7.14993L155.441 7.3258L155.442 7.32682L155.598 7.14993ZM149.131 6.53276V6.29694H148.896V6.53276H149.131ZM147.58 18.5447V5.04048H147.108V18.5447H147.58ZM147.344 5.27629H153.332V4.80466H147.344V5.27629ZM153.332 5.27629C154.526 5.27629 155.405 5.39895 155.991 5.62848L156.163 5.1894C155.496 4.92764 154.545 4.80466 153.332 4.80466V5.27629ZM155.993 5.62921C156.567 5.84868 157.028 6.23914 157.377 6.81216L157.78 6.56655C157.38 5.91135 156.84 5.44821 156.161 5.18868L155.993 5.62921ZM157.377 6.81216C157.728 7.38801 157.904 8.02387 157.904 8.72511H158.376C158.376 7.94022 158.178 7.2189 157.78 6.56655L157.377 6.81216ZM157.904 8.72511C157.904 9.62692 157.615 10.3754 157.038 10.9859L157.381 11.3096C158.046 10.606 158.376 9.73932 158.376 8.72511H157.904ZM157.038 10.9859C156.468 11.5897 155.569 11.993 154.304 12.1669L154.368 12.6342C155.694 12.4519 156.711 12.02 157.381 11.3096L157.038 10.9859ZM154.234 12.6131C154.697 12.8356 155.034 13.0483 155.256 13.2483L155.571 12.8977C155.302 12.6555 154.921 12.4199 154.438 12.188L154.234 12.6131ZM155.254 13.2467C155.759 13.7099 156.241 14.2925 156.699 14.9977L157.094 14.7408C156.619 14.009 156.112 13.3941 155.573 12.8992L155.254 13.2467ZM156.698 14.9962L159.047 18.6717L159.444 18.4177L157.095 14.7423L156.698 14.9962ZM159.246 18.3089H156.998V18.7805H159.246V18.3089ZM157.197 18.4181L155.41 15.6086L155.012 15.8617L156.799 18.6712L157.197 18.4181ZM155.409 15.6075C154.886 14.7946 154.451 14.1672 154.107 13.7287L153.736 14.0201C154.067 14.4414 154.492 15.0545 155.013 15.8628L155.409 15.6075ZM154.107 13.7287C153.763 13.2905 153.439 12.9656 153.136 12.7727L152.883 13.1706C153.12 13.3216 153.405 13.5985 153.736 14.0201L154.107 13.7287ZM153.138 12.774C152.854 12.5891 152.56 12.4578 152.255 12.3833L152.143 12.8415C152.391 12.9021 152.637 13.0103 152.881 13.1693L153.138 12.774ZM152.248 12.3817C152.019 12.3332 151.666 12.3121 151.204 12.3121V12.7837C151.663 12.7837 151.973 12.8056 152.15 12.8431L152.248 12.3817ZM151.204 12.3121H149.131V12.7837H151.204V12.3121ZM148.896 12.5479V18.5447H149.367V12.5479H148.896ZM149.131 18.3089H147.344V18.7805H149.131V18.3089ZM149.131 11.2362H152.973V10.7646H149.131V11.2362ZM152.973 11.2362C153.801 11.2362 154.471 11.1527 154.968 10.9735L154.809 10.5298C154.385 10.6822 153.778 10.7646 152.973 10.7646V11.2362ZM154.971 10.9726C155.473 10.7852 155.866 10.4854 156.136 10.0696L155.741 9.81253C155.532 10.1337 155.225 10.3743 154.806 10.5307L154.971 10.9726ZM156.137 10.0681C156.401 9.65633 156.534 9.20708 156.534 8.72511H156.062C156.062 9.11518 155.956 9.47655 155.74 9.81402L156.137 10.0681ZM156.534 8.72511C156.534 8.0208 156.273 7.4306 155.754 6.97304L155.442 7.32682C155.856 7.69217 156.062 8.15209 156.062 8.72511H156.534ZM155.755 6.97407C155.231 6.50621 154.431 6.29694 153.406 6.29694V6.76857C154.382 6.76857 155.043 6.97075 155.441 7.3258L155.755 6.97407ZM153.406 6.29694H149.131V6.76857H153.406V6.29694ZM148.896 6.53276V11.0004H149.367V6.53276H148.896ZM159.655 18.5447L159.435 18.4601L159.312 18.7805H159.655V18.5447ZM164.842 5.04048V4.80466H164.679L164.621 4.95593L164.842 5.04048ZM166.767 5.04048L166.985 4.95115L166.925 4.80466H166.767V5.04048ZM172.294 18.5447V18.7805H172.645L172.512 18.4554L172.294 18.5447ZM170.258 18.5447L170.038 18.6294L170.096 18.7805H170.258V18.5447ZM168.683 14.4547L168.903 14.37L168.845 14.2189H168.683V14.4547ZM163.036 14.4547V14.2189H162.871L162.814 14.3743L163.036 14.4547ZM161.553 18.5447V18.7805H161.718L161.775 18.6251L161.553 18.5447ZM163.552 12.9993L163.331 12.9166L163.212 13.2351H163.552V12.9993ZM168.13 12.9993V13.2351H168.471L168.351 12.9161L168.13 12.9993ZM166.721 9.25939L166.941 9.17623L166.941 9.17593L166.721 9.25939ZM165.763 6.45906L165.989 6.39428L165.531 6.41313L165.763 6.45906ZM165.035 9.03831L165.256 9.121L165.256 9.11954L165.035 9.03831ZM159.876 18.6292L165.062 5.12502L164.621 4.95593L159.435 18.4601L159.876 18.6292ZM164.842 5.27629H166.767V4.80466H164.842V5.27629ZM166.549 5.1298L172.075 18.634L172.512 18.4554L166.985 4.95115L166.549 5.1298ZM172.294 18.3089H170.258V18.7805H172.294V18.3089ZM170.478 18.4599L168.903 14.37L168.463 14.5395L170.038 18.6294L170.478 18.4599ZM168.683 14.2189H163.036V14.6905H168.683V14.2189ZM162.814 14.3743L161.331 18.4643L161.775 18.6251L163.258 14.5351L162.814 14.3743ZM161.553 18.3089H159.655V18.7805H161.553V18.3089ZM163.552 13.2351H168.13V12.7635H163.552V13.2351ZM168.351 12.9161L166.941 9.17623L166.5 9.34255L167.909 13.0825L168.351 12.9161ZM166.941 9.17593C166.513 8.04282 166.196 7.11619 165.989 6.39428L165.536 6.52385C165.747 7.26351 166.069 8.20376 166.5 9.34284L166.941 9.17593ZM165.531 6.41313C165.362 7.26666 165.123 8.11462 164.814 8.95708L165.256 9.11954C165.574 8.25478 165.82 7.38324 165.994 6.50499L165.531 6.41313ZM164.814 8.95562L163.331 12.9166L163.773 13.082L165.256 9.121L164.814 8.95562ZM175.946 18.5447H175.71V18.7805H175.946V18.5447ZM175.946 6.63408H176.182V6.39827H175.946V6.63408ZM171.497 6.63408H171.261V6.8699H171.497V6.63408ZM171.497 5.04048V4.80466H171.261V5.04048H171.497ZM182.201 5.04048H182.436V4.80466H182.201V5.04048ZM182.201 6.63408V6.8699H182.436V6.63408H182.201ZM177.733 6.63408V6.39827H177.497V6.63408H177.733ZM177.733 18.5447V18.7805H177.969V18.5447H177.733ZM176.182 18.5447V6.63408H175.71V18.5447H176.182ZM175.946 6.39827H171.497V6.8699H175.946V6.39827ZM171.733 6.63408V5.04048H171.261V6.63408H171.733ZM171.497 5.27629H182.201V4.80466H171.497V5.27629ZM181.965 5.04048V6.63408H182.436V5.04048H181.965ZM182.201 6.39827H177.733V6.8699H182.201V6.39827ZM177.497 6.63408V18.5447H177.969V6.63408H177.497ZM177.733 18.3089H175.946V18.7805H177.733V18.3089ZM184.268 18.5447H184.033V18.7805H184.268V18.5447ZM184.268 5.04048V4.80466H184.033V5.04048H184.268ZM194.033 5.04048H194.269V4.80466H194.033V5.04048ZM194.033 6.63408V6.8699H194.269V6.63408H194.033ZM186.055 6.63408V6.39827H185.82V6.63408H186.055ZM186.055 10.7701H185.82V11.0059H186.055V10.7701ZM193.526 10.7701H193.762V10.5343H193.526V10.7701ZM193.526 12.3545V12.5903H193.762V12.3545H193.526ZM186.055 12.3545V12.1187H185.82V12.3545H186.055ZM186.055 16.9511H185.82V17.1869H186.055V16.9511ZM194.346 16.9511H194.582V16.7153H194.346V16.9511ZM194.346 18.5447V18.7805H194.582V18.5447H194.346ZM184.504 18.5447V5.04048H184.033V18.5447H184.504ZM184.268 5.27629H194.033V4.80466H184.268V5.27629ZM193.797 5.04048V6.63408H194.269V5.04048H193.797ZM194.033 6.39827H186.055V6.8699H194.033V6.39827ZM185.82 6.63408V10.7701H186.291V6.63408H185.82ZM186.055 11.0059H193.526V10.5343H186.055V11.0059ZM193.29 10.7701V12.3545H193.762V10.7701H193.29ZM193.526 12.1187H186.055V12.5903H193.526V12.1187ZM185.82 12.3545V16.9511H186.291V12.3545H185.82ZM186.055 17.1869H194.346V16.7153H186.055V17.1869ZM194.11 16.9511V18.5447H194.582V16.9511H194.11ZM194.346 18.3089H184.268V18.7805H194.346V18.3089ZM197.003 18.5447H196.767V18.7805H197.003V18.5447ZM197.003 5.04048V4.80466H196.767V5.04048H197.003ZM204.059 5.23392L204.006 5.46357L204.006 5.46373L204.059 5.23392ZM206.04 6.20114L205.887 6.38047L205.888 6.38127L206.04 6.20114ZM207.633 8.51325L207.412 8.59558L207.413 8.59732L207.633 8.51325ZM206.887 16.4168L207.078 16.5554L207.079 16.5543L206.887 16.4168ZM205.653 17.6419L205.784 17.8382L205.784 17.8377L205.653 17.6419ZM204.041 18.3144L203.985 18.0852L203.985 18.0854L204.041 18.3144ZM198.79 16.9511H198.555V17.1869H198.79V16.9511ZM203.765 16.7024L203.692 16.4781L203.691 16.4784L203.765 16.7024ZM205.966 14.2981L205.742 14.2236L205.742 14.2247L205.966 14.2981ZM205.625 8.43956L205.424 8.56161L205.425 8.56351L205.625 8.43956ZM203.94 6.91043L204.025 6.69065L204.024 6.69033L203.94 6.91043ZM198.79 6.63408V6.39827H198.555V6.63408H198.79ZM197.239 18.5447V5.04048H196.767V18.5447H197.239ZM197.003 5.27629H201.655V4.80466H197.003V5.27629ZM201.655 5.27629C202.7 5.27629 203.48 5.34081 204.006 5.46357L204.113 5.00427C203.534 4.86911 202.711 4.80466 201.655 4.80466V5.27629ZM204.006 5.46373C204.747 5.63421 205.372 5.94089 205.887 6.38047L206.193 6.02181C205.615 5.52794 204.919 5.18981 204.112 5.00411L204.006 5.46373ZM205.888 6.38127C206.567 6.95499 207.075 7.69102 207.412 8.59557L207.854 8.43092C207.491 7.45631 206.938 6.65093 206.192 6.021L205.888 6.38127ZM207.413 8.59732C207.757 9.49904 207.932 10.5382 207.932 11.7189H208.404C208.404 10.4922 208.222 9.39434 207.854 8.42918L207.413 8.59732ZM207.932 11.7189C207.932 12.7266 207.814 13.6118 207.583 14.3773L208.034 14.5138C208.282 13.6949 208.404 12.7623 208.404 11.7189H207.932ZM207.583 14.3773C207.349 15.1514 207.052 15.7834 206.696 16.2793L207.079 16.5543C207.472 16.0062 207.789 15.324 208.034 14.5138L207.583 14.3773ZM206.697 16.2782C206.335 16.7756 205.943 17.1632 205.522 17.4461L205.784 17.8377C206.259 17.5189 206.69 17.0897 207.078 16.5554L206.697 16.2782ZM205.522 17.4457C205.107 17.7222 204.597 17.9368 203.985 18.0852L204.097 18.5436C204.75 18.3849 205.314 18.1512 205.784 17.8382L205.522 17.4457ZM203.985 18.0854C203.381 18.2334 202.679 18.3089 201.876 18.3089V18.7805C202.707 18.7805 203.448 18.7025 204.097 18.5434L203.985 18.0854ZM201.876 18.3089H197.003V18.7805H201.876V18.3089ZM198.79 17.1869H201.674V16.7153H198.79V17.1869ZM201.674 17.1869C202.574 17.1869 203.3 17.1035 203.838 16.9263L203.691 16.4784C203.222 16.6328 202.554 16.7153 201.674 16.7153V17.1869ZM203.838 16.9266C204.374 16.7522 204.814 16.5022 205.147 16.169L204.814 15.8355C204.545 16.1042 204.175 16.3209 203.692 16.4781L203.838 16.9266ZM205.147 16.169C205.603 15.7134 205.948 15.1105 206.19 14.3715L205.742 14.2247C205.517 14.9105 205.206 15.4437 204.814 15.8355L205.147 16.169ZM206.19 14.3727C206.44 13.6235 206.561 12.7278 206.561 11.6912H206.09C206.09 12.6935 205.972 13.5358 205.742 14.2236L206.19 14.3727ZM206.561 11.6912C206.561 10.2585 206.326 9.12412 205.826 8.3156L205.425 8.56351C205.859 9.26569 206.09 10.2991 206.09 11.6912H206.561ZM205.827 8.31751C205.346 7.52286 204.748 6.97173 204.025 6.69065L203.854 7.13021C204.458 7.36498 204.983 7.83327 205.424 8.5616L205.827 8.31751ZM204.024 6.69033C203.502 6.48959 202.695 6.39827 201.627 6.39827V6.8699C202.685 6.8699 203.419 6.96281 203.855 7.13053L204.024 6.69033ZM201.627 6.39827H198.79V6.8699H201.627V6.39827ZM198.555 6.63408V16.9511H199.026V6.63408H198.555ZM216.264 18.5447H216.029V18.7805H216.264V18.5447ZM216.264 5.04048V4.80466H216.029V5.04048H216.264ZM223.413 5.16944L223.37 5.40148L223.374 5.40205L223.413 5.16944ZM225.08 5.80504L224.945 5.99836L224.947 5.9996L225.08 5.80504ZM226.158 7.10387L225.945 7.20653L225.946 7.2084L226.158 7.10387ZM225.476 11.8663L225.649 12.0262L225.65 12.0255L225.476 11.8663ZM218.051 13.0546V12.8187H217.816V13.0546H218.051ZM218.051 18.5447V18.7805H218.287V18.5447H218.051ZM218.051 11.461H217.816V11.6968H218.051V11.461ZM224.297 7.55524L224.103 7.6901L224.106 7.69342L224.297 7.55524ZM223.173 6.75383L223.236 6.52652L223.234 6.5259L223.173 6.75383ZM218.051 6.63408V6.39827H217.816V6.63408H218.051ZM216.5 18.5447V5.04048H216.029V18.5447H216.5ZM216.264 5.27629H221.358V4.80466H216.264V5.27629ZM221.358 5.27629C222.251 5.27629 222.919 5.31931 223.37 5.40145L223.455 4.93743C222.961 4.84761 222.259 4.80466 221.358 4.80466V5.27629ZM223.374 5.40205C224.01 5.50811 224.531 5.70933 224.945 5.99835L225.215 5.61173C224.732 5.27436 224.141 5.05184 223.451 4.93683L223.374 5.40205ZM224.947 5.9996C225.356 6.28028 225.69 6.67934 225.945 7.20653L226.37 7.00122C226.084 6.41073 225.7 5.9439 225.213 5.61048L224.947 5.9996ZM225.946 7.2084C226.205 7.73238 226.336 8.31035 226.336 8.94619H226.808C226.808 8.24329 226.663 7.59304 226.369 6.99934L225.946 7.2084ZM226.336 8.94619C226.336 10.0396 225.99 10.955 225.302 11.707L225.65 12.0255C226.423 11.1809 226.808 10.1496 226.808 8.94619H226.336ZM225.303 11.7064C224.641 12.4239 223.406 12.8187 221.515 12.8187V13.2904C223.443 13.2904 224.85 12.8931 225.649 12.0262L225.303 11.7064ZM221.515 12.8187H218.051V13.2904H221.515V12.8187ZM217.816 13.0546V18.5447H218.287V13.0546H217.816ZM218.051 18.3089H216.264V18.7805H218.051V18.3089ZM218.051 11.6968H221.543V11.2251H218.051V11.6968ZM221.543 11.6968C222.714 11.6968 223.607 11.4811 224.158 10.9926L223.846 10.6396C223.427 11.011 222.68 11.2251 221.543 11.2251V11.6968ZM224.158 10.9926C224.704 10.509 224.966 9.83391 224.966 9.00146H224.494C224.494 9.72885 224.27 10.2636 223.846 10.6396L224.158 10.9926ZM224.966 9.00146C224.966 8.39444 224.81 7.86217 224.488 7.41707L224.106 7.69342C224.361 8.04665 224.494 8.47853 224.494 9.00146H224.966ZM224.49 7.4204C224.177 6.97098 223.757 6.67046 223.236 6.52653L223.11 6.98113C223.523 7.09513 223.852 7.32888 224.103 7.69008L224.49 7.4204ZM223.234 6.5259C222.899 6.43717 222.314 6.39827 221.506 6.39827V6.8699C222.318 6.8699 222.845 6.91083 223.113 6.98177L223.234 6.5259ZM221.506 6.39827H218.051V6.8699H221.506V6.39827ZM217.816 6.63408V11.461H218.287V6.63408H217.816ZM228.962 18.5447H228.727V18.7805H228.962V18.5447ZM228.962 5.04048V4.80466H228.727V5.04048H228.962ZM230.749 5.04048H230.985V4.80466H230.749V5.04048ZM230.749 16.9511H230.514V17.1869H230.749V16.9511ZM237.4 16.9511H237.636V16.7153H237.4V16.9511ZM237.4 18.5447V18.7805H237.636V18.5447H237.4ZM229.198 18.5447V5.04048H228.727V18.5447H229.198ZM228.962 5.27629H230.749V4.80466H228.962V5.27629ZM230.514 5.04048V16.9511H230.985V5.04048H230.514ZM230.749 17.1869H237.4V16.7153H230.749V17.1869ZM237.164 16.9511V18.5447H237.636V16.9511H237.164ZM237.4 18.3089H228.962V18.7805H237.4V18.3089ZM248.587 5.04048V4.80466H248.352V5.04048H248.587ZM250.375 5.04048H250.61V4.80466H250.375V5.04048ZM248.247 18.0288L248.371 18.229L248.372 18.2287L248.247 18.0288ZM240.269 16.2326L240.052 16.3229L240.052 16.3235L240.269 16.2326ZM239.754 5.04048V4.80466H239.518V5.04048H239.754ZM241.541 5.04048H241.776V4.80466H241.541V5.04048ZM241.863 15.4312L241.643 15.5158L241.644 15.5187L241.863 15.4312ZM242.987 16.7116L242.87 16.9165L242.871 16.917L242.987 16.7116ZM248.587 5.27629H250.375V4.80466H248.587V5.27629ZM250.139 5.04048V12.8427H250.61V5.04048H250.139ZM250.139 12.8427C250.139 14.1859 249.986 15.2311 249.694 15.9913L250.134 16.1606C250.456 15.3241 250.61 14.2138 250.61 12.8427H250.139ZM249.694 15.9913C249.407 16.7367 248.888 17.3494 248.122 17.8289L248.372 18.2287C249.215 17.7012 249.807 17.0119 250.134 16.1606L249.694 15.9913ZM248.122 17.8287C247.373 18.2955 246.37 18.5392 245.096 18.5392V19.0108C246.426 19.0108 247.524 18.757 248.371 18.229L248.122 17.8287ZM245.096 18.5392C243.856 18.5392 242.864 18.3252 242.104 17.9136L241.88 18.3283C242.729 18.7888 243.806 19.0108 245.096 19.0108V18.5392ZM242.104 17.9136C241.346 17.5025 240.81 16.9135 240.487 16.1416L240.052 16.3235C240.417 17.1975 241.029 17.8673 241.88 18.3283L242.104 17.9136ZM240.487 16.1422C240.16 15.3538 239.989 14.2588 239.989 12.8427H239.518C239.518 14.2883 239.691 15.4533 240.052 16.3229L240.487 16.1422ZM239.989 12.8427V5.04048H239.518V12.8427H239.989ZM239.754 5.27629H241.541V4.80466H239.754V5.27629ZM241.305 5.04048V12.8335H241.776V5.04048H241.305ZM241.305 12.8335C241.305 14.0131 241.412 14.9149 241.643 15.5158L242.083 15.3465C241.884 14.8297 241.776 13.9998 241.776 12.8335H241.305ZM241.644 15.5187C241.885 16.1221 242.297 16.5897 242.87 16.9165L243.104 16.5067C242.621 16.2316 242.283 15.8456 242.082 15.3436L241.644 15.5187ZM242.871 16.917C243.449 17.2423 244.142 17.3988 244.94 17.3988V16.9271C244.203 16.9271 243.594 16.7827 243.103 16.5061L242.871 16.917ZM244.94 17.3988C246.281 17.3988 247.297 17.0962 247.921 16.4308L247.577 16.1081C247.084 16.634 246.227 16.9271 244.94 16.9271V17.3988ZM247.921 16.4308C248.238 16.093 248.462 15.6153 248.607 15.0196C248.753 14.4226 248.823 13.6923 248.823 12.8335H248.352C248.352 13.6696 248.283 14.3595 248.149 14.9078C248.015 15.4574 247.819 15.8501 247.577 16.1081L247.921 16.4308ZM248.823 12.8335V5.04048H248.352V12.8335H248.823ZM252.94 14.206L252.919 13.9711L252.698 13.9904L252.704 14.2124L252.94 14.206ZM254.626 14.0586L254.86 14.031L254.833 13.8038L254.605 13.8237L254.626 14.0586ZM255.178 15.7259L254.982 15.8561L254.984 15.8593L255.178 15.7259ZM256.542 16.7761L256.447 16.9919L256.448 16.9927L256.542 16.7761ZM261.58 16.0391L261.389 15.9008L261.389 15.9014L261.58 16.0391ZM261.599 13.7731L261.412 13.9169L261.413 13.9186L261.599 13.7731ZM260.383 12.9717L260.297 13.1914L260.299 13.1921L260.383 12.9717ZM257.979 12.3176L257.923 12.5468L257.924 12.5471L257.979 12.3176ZM255.372 11.4702L255.482 11.2619L255.481 11.2613L255.372 11.4702ZM253.925 10.2174L253.725 10.342L253.727 10.3448L253.925 10.2174ZM254.036 6.62487L254.233 6.75426L254.234 6.75332L254.036 6.62487ZM260.853 5.2984L260.76 5.51525L260.762 5.51613L260.853 5.2984ZM263.284 8.84487L263.302 9.08002L263.529 9.06295L263.52 8.83573L263.284 8.84487ZM261.571 8.97383L261.337 8.99913L261.361 9.22612L261.589 9.20898L261.571 8.97383ZM260.631 7.03939L260.481 7.22125L260.482 7.22209L260.631 7.03939ZM255.915 6.98412L256.062 7.16827L256.063 7.16804L255.915 6.98412ZM255.703 9.60943L255.862 9.43507L255.861 9.43369L255.703 9.60943ZM258.393 10.5766L258.34 10.8065L258.342 10.8068L258.393 10.5766ZM261.387 11.4333L261.486 11.2192L261.484 11.2186L261.387 11.4333ZM263.128 12.8151L262.932 12.9464L262.933 12.9474L263.128 12.8151ZM263.073 16.7668L263.27 16.8954L263.271 16.8946L263.073 16.7668ZM261.295 18.2499L261.393 18.4645L261.393 18.4641L261.295 18.2499ZM255.62 18.2407L255.527 18.4571L255.527 18.4574L255.62 18.2407ZM253.677 16.6379L253.479 16.7663L253.48 16.7683L253.677 16.6379ZM252.96 14.4409L254.646 14.2936L254.605 13.8237L252.919 13.9711L252.96 14.4409ZM254.391 14.0863C254.474 14.7878 254.667 15.3815 254.982 15.8561L255.375 15.5958C255.112 15.1983 254.936 14.6805 254.86 14.031L254.391 14.0863ZM254.984 15.8593C255.31 16.3344 255.804 16.709 256.447 16.9919L256.636 16.5602C256.051 16.3027 255.636 15.9772 255.373 15.5926L254.984 15.8593ZM256.448 16.9927C257.096 17.2711 257.819 17.408 258.614 17.408V16.9363C257.874 16.9363 257.215 16.8091 256.635 16.5594L256.448 16.9927ZM258.614 17.408C259.319 17.408 259.951 17.3032 260.505 17.088L260.334 16.6483C259.845 16.8384 259.273 16.9363 258.614 16.9363V17.408ZM260.505 17.088C261.057 16.8737 261.486 16.5735 261.772 16.1768L261.389 15.9014C261.171 16.2048 260.826 16.4573 260.334 16.6483L260.505 17.088ZM261.771 16.1774C262.057 15.7833 262.203 15.3485 262.203 14.8785H261.731C261.731 15.2436 261.62 15.5826 261.389 15.9008L261.771 16.1774ZM262.203 14.8785C262.203 14.4056 262.065 13.985 261.784 13.6275L261.413 13.9186C261.624 14.1875 261.731 14.5038 261.731 14.8785H262.203ZM261.786 13.6293C261.503 13.2622 261.053 12.9745 260.467 12.7513L260.299 13.1921C260.842 13.3987 261.203 13.6453 261.412 13.9169L261.786 13.6293ZM260.468 12.7519C260.088 12.6037 259.27 12.3821 258.033 12.0882L257.924 12.5471C259.168 12.8427 259.953 13.0572 260.297 13.1914L260.468 12.7519ZM258.034 12.0885C256.795 11.7879 255.951 11.5109 255.482 11.2619L255.261 11.6785C255.787 11.9576 256.681 12.2456 257.923 12.5468L258.034 12.0885ZM255.481 11.2613C254.864 10.9381 254.417 10.5459 254.124 10.09L253.727 10.3448C254.073 10.8838 254.589 11.3267 255.262 11.6791L255.481 11.2613ZM254.126 10.0929C253.837 9.62842 253.691 9.11002 253.691 8.53167H253.22C253.22 9.19382 253.388 9.79923 253.725 10.3419L254.126 10.0929ZM253.691 8.53167C253.691 7.89763 253.871 7.30676 254.233 6.75425L253.839 6.49549C253.428 7.12207 253.22 7.80239 253.22 8.53167H253.691ZM254.234 6.75332C254.591 6.20283 255.116 5.78002 255.821 5.48871L255.641 5.05282C254.86 5.37562 254.254 5.85554 253.838 6.49643L254.234 6.75332ZM255.821 5.48871C256.532 5.1949 257.327 5.046 258.209 5.046V4.57437C257.273 4.57437 256.416 4.73253 255.641 5.05282L255.821 5.48871ZM258.209 5.046C259.184 5.046 260.033 5.20461 260.76 5.51524L260.945 5.08156C260.149 4.74124 259.235 4.57437 258.209 4.57437V5.046ZM260.762 5.51613C261.491 5.81942 262.041 6.26373 262.424 6.84645L262.818 6.58752C262.378 5.91746 261.749 5.41606 260.943 5.08067L260.762 5.51613ZM262.424 6.84645C262.811 7.43488 263.02 8.10209 263.049 8.854L263.52 8.83573C263.488 8.00325 263.255 7.25187 262.818 6.58752L262.424 6.84645ZM263.267 8.60971L261.553 8.73868L261.589 9.20898L263.302 9.08002L263.267 8.60971ZM261.806 8.94853C261.708 8.04921 261.374 7.341 260.781 6.85669L260.482 7.22209C260.957 7.60981 261.249 8.19123 261.337 8.99913L261.806 8.94853ZM260.782 6.85754C260.194 6.37262 259.348 6.14955 258.283 6.14955V6.62119C259.293 6.62119 260.012 6.83414 260.481 7.22124L260.782 6.85754ZM258.283 6.14955C257.182 6.14955 256.327 6.35104 255.768 6.8002L256.063 7.16804C256.498 6.81887 257.221 6.62119 258.283 6.62119V6.14955ZM255.768 6.79998C255.229 7.23138 254.942 7.77182 254.942 8.41192H255.414C255.414 7.93435 255.619 7.52292 256.062 7.16827L255.768 6.79998ZM254.942 8.41192C254.942 8.96165 255.144 9.42559 255.546 9.78517L255.861 9.43369C255.562 9.16688 255.414 8.83249 255.414 8.41192H254.942ZM255.544 9.78378C255.753 9.9735 256.101 10.145 256.554 10.308C257.015 10.4737 257.611 10.6396 258.34 10.8065L258.446 10.3468C257.726 10.182 257.149 10.021 256.713 9.86422C256.27 9.70483 255.998 9.55855 255.862 9.43508L255.544 9.78378ZM258.342 10.8068C259.798 11.1324 260.774 11.4137 261.289 11.648L261.484 11.2186C260.919 10.9617 259.899 10.6718 258.445 10.3465L258.342 10.8068ZM261.288 11.6475C262.046 11.9968 262.587 12.4325 262.932 12.9464L263.324 12.6838C262.919 12.0799 262.3 11.5945 261.486 11.2192L261.288 11.6475ZM262.933 12.9474C263.278 13.4577 263.454 14.0494 263.454 14.7311H263.926C263.926 13.9635 263.726 13.2779 263.323 12.6828L262.933 12.9474ZM263.454 14.7311C263.454 15.4016 263.263 16.0362 262.874 16.6391L263.271 16.8946C263.705 16.2201 263.926 15.4975 263.926 14.7311H263.454ZM262.875 16.6383C262.491 17.2288 261.935 17.6957 261.196 18.0357L261.393 18.4641C262.202 18.0918 262.831 17.5699 263.27 16.8954L262.875 16.6383ZM261.197 18.0353C260.464 18.3695 259.632 18.5392 258.697 18.5392V19.0108C259.69 19.0108 260.59 18.8304 261.393 18.4645L261.197 18.0353ZM258.697 18.5392C257.496 18.5392 256.505 18.3639 255.713 18.024L255.527 18.4574C256.394 18.8298 257.454 19.0108 258.697 19.0108V18.5392ZM255.714 18.0243C254.931 17.6853 254.32 17.1799 253.873 16.5075L253.48 16.7683C253.98 17.5206 254.664 18.0837 255.527 18.4571L255.714 18.0243ZM253.874 16.5094C253.433 15.8293 253.199 15.0614 253.176 14.1996L252.704 14.2124C252.73 15.1561 252.987 16.0094 253.479 16.7663L253.874 16.5094Z" fill="#28534E"/>
</svg>
