<svg width="50" height="50" viewBox="0 0 50 50" fill="none" xmlns="http://www.w3.org/2000/svg">
<g clip-path="url(#clip0_2698_272)">
<mask id="mask0_2698_272" style="mask-type:alpha" maskUnits="userSpaceOnUse" x="0" y="0" width="50" height="50">
<path d="M50 0H0V50H50V0Z" fill="#C4C4C4"/>
</mask>
<g mask="url(#mask0_2698_272)">
<path d="M7.1272 24.9993C7.1272 32.0738 11.2383 38.1868 17.1998 41.0842L8.6745 17.7258C7.65254 20.0144 7.12527 22.4929 7.1272 24.9993ZM37.0642 24.0974C37.0642 21.8887 36.2708 20.359 35.5903 19.1684C34.6844 17.6963 33.8356 16.4496 33.8356 14.9774C33.8356 13.3345 35.0813 11.8053 36.8363 11.8053C36.9156 11.8053 36.9907 11.8151 37.0682 11.8195C33.8883 8.90651 29.652 7.12793 24.9992 7.12793C18.7555 7.12793 13.2624 10.3314 10.0668 15.1835C10.4861 15.1961 10.8816 15.2046 11.2168 15.2046C13.0863 15.2046 15.9799 14.9778 15.9799 14.9778C16.9433 14.9209 17.0569 16.336 16.0948 16.4499C16.0948 16.4499 15.1263 16.5638 14.049 16.6203L20.5573 35.9788L24.4687 24.2488L21.6838 16.6199C20.7215 16.5635 19.8098 16.4496 19.8098 16.4496C18.8467 16.3931 18.9596 14.9206 19.9227 14.9774C19.9227 14.9774 22.8741 15.2043 24.6303 15.2043C26.4993 15.2043 29.3933 14.9774 29.3933 14.9774C30.3573 14.9206 30.4706 16.3357 29.5078 16.4496C29.5078 16.4496 28.5377 16.5635 27.4623 16.6199L33.9209 35.8318L35.7033 29.8748C36.4762 27.4028 37.0642 25.6273 37.0642 24.0974Z" fill="#21759B"/>
<path d="M25.3134 26.5626L19.9512 42.1439C21.5905 42.627 23.2908 42.8723 24.9998 42.8723C27.0811 42.8723 29.0769 42.5121 30.9348 41.8592C30.8849 41.7812 30.8423 41.6988 30.8076 41.6131L25.3134 26.5626ZM40.6818 16.4248C40.7587 16.9941 40.8022 17.6055 40.8022 18.2625C40.8022 20.0761 40.4635 22.1148 39.4433 24.664L33.9842 40.4476C39.2974 37.3492 42.8712 31.5929 42.8712 24.9993C42.8759 22.0022 42.1228 19.0526 40.6818 16.4248Z" fill="#21759B"/>
<path d="M25 4.1665C13.5128 4.1665 4.16663 13.5119 4.16663 24.9992C4.16663 36.4878 13.5124 45.8332 25 45.8332C36.4868 45.8332 45.8343 36.4881 45.8343 24.9992C45.834 13.5119 36.4868 4.1665 25 4.1665ZM25 44.8779C14.0395 44.8779 5.12188 35.9603 5.12188 24.9992C5.12188 14.0391 14.0392 5.1221 25 5.1221C35.96 5.1221 44.877 14.0391 44.877 24.9992C44.877 35.9603 35.9597 44.8779 25 44.8779Z" fill="#21759B"/>
</g>
</g>
<defs>
<clipPath id="clip0_2698_272">
<rect width="50" height="50" fill="white"/>
</clipPath>
</defs>
</svg>
