<svg width="24" height="24" viewBox="0 0 24 24" fill="none" xmlns="http://www.w3.org/2000/svg">
<g clip-path="url(#clip0_2686_149)">
<path d="M4.25002 0.299988H19.75C22.1 0.299988 24 2.19997 24 4.55V19.45C24 21.8 22.1 23.7 19.75 23.7H4.25002C1.89998 23.7 0 21.8 0 19.45V4.55C0 2.19997 1.89998 0.299988 4.25002 0.299988Z" fill="#001834"/>
<path d="M5.40039 16.71V6.42002C5.40039 6.35003 5.43039 6.31 5.50038 6.31C5.67039 6.31 5.83038 6.31 6.06039 6.30002C6.30039 6.29003 6.55038 6.29003 6.82038 6.28C7.09038 6.26997 7.38039 6.27002 7.69038 6.25998C8.00036 6.25 8.30036 6.25 8.60036 6.25C9.42034 6.25 10.1004 6.34998 10.6604 6.55998C11.1604 6.73 11.6204 7.00998 12.0004 7.37997C12.3204 7.69998 12.5704 8.08998 12.7304 8.51997C12.8804 8.93997 12.9604 9.36995 12.9604 9.81995C12.9604 10.68 12.7604 11.3899 12.3604 11.95C11.9604 12.51 11.4004 12.93 10.7504 13.17C10.0704 13.42 9.32036 13.51 8.50038 13.51C8.26038 13.51 8.10039 13.51 8.00036 13.5C7.90038 13.49 7.76036 13.49 7.57038 13.49V16.7C7.58036 16.77 7.53039 16.83 7.46036 16.84H5.52039C5.44038 16.84 5.40039 16.8 5.40039 16.71ZM7.58041 8.24003V11.6C7.72042 11.61 7.85041 11.62 7.97041 11.62H8.50042C9.19094 11.62 9.98842 11.4578 10.4704 10.9101C10.8852 10.4387 10.8864 9.50392 10.5504 8.99008C10.1516 8.38009 9.35406 8.20337 8.67039 8.22006C8.41038 8.22006 8.18041 8.22006 7.99038 8.23005C7.79041 8.22002 7.65039 8.23 7.58041 8.24003ZM19.2004 10.99C18.9004 10.83 18.5804 10.72 18.2404 10.65C17.8704 10.57 17.5004 10.52 17.1204 10.52C16.9204 10.51 16.7104 10.54 16.5204 10.59C16.3904 10.62 16.2804 10.69 16.2104 10.79C16.1604 10.87 16.1304 10.97 16.1304 11.06C16.1304 11.15 16.1704 11.24 16.2304 11.32C16.3204 11.4301 16.4404 11.5201 16.5704 11.59C16.8004 11.71 17.0404 11.8201 17.2804 11.92C17.8204 12.1 18.3404 12.35 18.8204 12.65C19.1504 12.86 19.4204 13.14 19.6104 13.48C19.7703 13.8001 19.8504 14.15 19.8404 14.51C19.8504 14.98 19.7104 15.45 19.4504 15.84C19.1704 16.24 18.7804 16.55 18.3304 16.73C17.8404 16.94 17.2404 17.05 16.5204 17.05C16.0604 17.05 15.6104 17.0101 15.1604 16.9201C14.8077 16.8591 14.4647 16.7515 14.1404 16.6C14.0704 16.5601 14.0204 16.49 14.0304 16.4101V14.6701C14.0304 14.6401 14.0404 14.6001 14.0704 14.5801C14.1004 14.56 14.1304 14.5701 14.1604 14.59C14.5504 14.8201 14.9604 14.98 15.4004 15.08C15.7804 15.18 16.1804 15.23 16.5804 15.23C16.9604 15.23 17.2304 15.18 17.4104 15.09C17.5704 15.02 17.6804 14.85 17.6804 14.67C17.6804 14.53 17.6004 14.4 17.4404 14.27C17.2804 14.14 16.9504 13.99 16.4604 13.8C15.9504 13.62 15.4803 13.38 15.0404 13.08C14.7304 12.86 14.4704 12.57 14.2804 12.23C14.1204 11.91 14.0404 11.56 14.0504 11.21C14.0504 10.78 14.1704 10.37 14.3904 10C14.6403 9.60006 15.0104 9.28005 15.4404 9.08003C15.9104 8.84003 16.5003 8.73002 17.2104 8.73002C17.6204 8.73002 18.0404 8.76002 18.4503 8.82002C18.7503 8.86 19.0404 8.94002 19.3104 9.05003C19.3503 9.06002 19.3904 9.10005 19.4103 9.14003C19.4203 9.18002 19.4304 9.22005 19.4304 9.26003V10.89C19.4304 10.93 19.4103 10.97 19.3803 10.99C19.2904 11.01 19.2404 11.01 19.2004 10.99Z" fill="#00A9FF"/>
</g>
<defs>
<clipPath id="clip0_2686_149">
<rect width="24" height="24" fill="white"/>
</clipPath>
</defs>
</svg>
