<svg width="24" height="24" viewBox="0 0 24 24" fill="none" xmlns="http://www.w3.org/2000/svg">
<g clip-path="url(#clip0_2686_144)">
<path d="M4.25002 0.299988H19.75C22.1 0.299988 24 2.19997 24 4.55V19.45C24 21.8 22.1 23.7 19.75 23.7H4.25002C1.89998 23.7 0 21.8 0 19.45V4.55C0 2.19997 1.89998 0.299988 4.25002 0.299988Z" fill="#390000"/>
<path d="M11.6299 14.34H7.90994L7.14996 16.69C7.12994 16.78 7.04997 16.84 6.95997 16.83H5.07996C4.96994 16.83 4.93994 16.77 4.96994 16.65L8.18992 7.37998C8.21992 7.27999 8.24992 7.16998 8.28991 7.04998C8.32989 6.83998 8.34991 6.61999 8.34991 6.39996C8.33992 6.34994 8.37991 6.29998 8.42992 6.28994H11.0199C11.0999 6.28994 11.1399 6.31994 11.1499 6.36996L14.7999 16.6699C14.8299 16.78 14.7999 16.8299 14.6999 16.8299H12.6099C12.5399 16.8399 12.4699 16.7899 12.4499 16.7199L11.6299 14.34ZM8.48992 12.31H11.0299L9.74992 8.13996L8.48992 12.31ZM16.9799 7.99999C16.6499 8.00998 16.3299 7.87999 16.0899 7.64998C15.8599 7.39999 15.7399 7.06999 15.7499 6.72996C15.7399 6.38998 15.8699 6.06996 16.1099 5.83994C16.3499 5.60993 16.6699 5.48993 16.9999 5.48993C17.3899 5.48993 17.6899 5.60993 17.9099 5.83994C18.1315 6.0824 18.2499 6.40166 18.2399 6.72996C18.2499 7.06994 18.1299 7.39994 17.8899 7.64998C17.6599 7.88998 17.3199 8.01996 16.9799 7.99999ZM15.8599 16.68V8.97996C15.8599 8.87998 15.8999 8.83994 15.9899 8.83994H17.9699C18.0599 8.83994 18.0999 8.88996 18.0999 8.97996V16.68C18.0999 16.79 18.0599 16.84 17.9699 16.84H16.0099C15.9099 16.84 15.8599 16.78 15.8599 16.68Z" fill="#FF9A00"/>
</g>
<defs>
<clipPath id="clip0_2686_144">
<rect width="24" height="24" fill="white"/>
</clipPath>
</defs>
</svg>
