<svg width="24" height="24" viewBox="0 0 24 24" fill="none" xmlns="http://www.w3.org/2000/svg">
<path d="M12.4665 1L2 4.6425L3.654 18.204L12.4775 23L21.3465 18.139L23 4.578L12.4665 1Z" fill="#BDBDBD"/>
<path d="M21.909 5.196L12.5 2V21.78L20.416 17.441L21.909 5.196Z" fill="#B71C1C"/>
<path d="M12.4698 2L3.08984 5.2645L4.58334 17.514L12.4748 21.803L12.4993 21.79V2.01L12.4698 2Z" fill="#DD2C00"/>
<path d="M12.5 5V9.754L16.789 19.002H18.9935L12.5 5Z" fill="#BDBDBD"/>
<path d="M6.00586 19.002H8.21036L12.4994 9.754V5L6.00586 19.002Z" fill="#EEEEEE"/>
<path d="M12.5 11H15.5V13H12.5V11Z" fill="#BDBDBD"/>
<path d="M9.5 11H12.5V13H9.5V11Z" fill="#EEEEEE"/>
</svg>
