<svg width="24" height="24" viewBox="0 0 24 24" fill="none" xmlns="http://www.w3.org/2000/svg">
<g clip-path="url(#clip0_2705_222)">
<path d="M25.9296 -8.00006H-1.92958C-6.93903 -8.00006 -11 -4.46879 -11 -0.112737V24.1126C-11 28.4687 -6.93903 31.9999 -1.92958 31.9999H25.9296C30.939 31.9999 35 28.4687 35 24.1126V-0.112737C35 -4.46879 30.939 -8.00006 25.9296 -8.00006Z" fill="#F5DA55" stroke="black" stroke-width="21.9178"/>
<path d="M19.8908 4.25863C19.9328 4.56753 19.9072 4.81633 19.8192 5.00743L19.6958 4.98048C19.7036 4.6715 19.6976 4.49618 19.679 4.45842L19.635 4.42533C19.6003 4.44211 19.5871 4.5533 19.5969 4.76283L19.5462 4.78532C19.5291 4.75151 19.5109 4.72692 19.4847 4.70519L19.4621 4.71768C19.4679 6.17557 19.4778 6.85081 19.409 7.99806C19.4234 8.28133 19.4077 8.44673 19.3577 8.49562C19.372 8.52163 19.3938 8.53157 19.4244 8.51622C19.483 8.63731 19.496 8.77024 19.473 8.91623C19.4795 9.5573 19.4636 9.91795 19.4159 9.99715L19.5604 10.2518C19.5746 10.2778 19.5658 10.3031 19.5337 10.3146L19.4871 10.3356C19.4515 10.264 19.4103 10.2388 19.3637 10.2599L19.3411 10.2723C19.3159 10.3878 19.3085 10.5147 19.323 10.6516L19.3696 10.6305C19.4192 10.5684 19.4298 10.5114 19.404 10.4541L19.4972 10.4119L19.5566 10.4129C19.5372 10.4952 19.5376 10.5573 19.5561 10.595L19.5962 10.6295L19.5885 10.792L19.6012 10.8141C19.6559 10.7901 19.7218 10.7843 19.8005 10.8006C19.8431 10.781 19.8839 10.7443 19.9244 10.6943C19.9791 10.6704 20.178 10.5949 20.5305 10.4691L20.685 10.3474C20.8999 10.2663 20.9349 10.2627 21.1175 10.1798L21.1907 10.1448L21.2206 10.103L21.2333 10.1251C21.4199 10.0407 21.4403 10.0468 21.5999 10.0121L21.6126 10.0341L21.5073 10.0806L21.5273 10.1223C21.558 10.1069 21.5831 10.0891 21.5999 10.0609C21.6265 10.047 21.6483 10.0569 21.6639 10.0868C21.6213 10.1064 21.5776 10.1354 21.5273 10.1711L21.4734 10.1725C21.4045 10.2193 21.422 10.2175 21.3753 10.2386L21.2934 10.2501C21.2977 10.2618 21.2966 10.2711 21.2861 10.2793C21.3003 10.3053 21.3181 10.3167 21.3447 10.3028L21.434 10.262L21.3881 10.2606C21.3924 10.2724 21.4034 10.2774 21.4194 10.2716L21.8031 10.0948L21.9437 10.0091C21.9481 10.0209 21.959 10.0258 21.971 10.0216L22.033 9.96837L22.1649 9.90799C22.2702 9.86153 22.2633 9.85512 22.4786 9.73835C22.4742 9.7266 22.4754 9.71732 22.4873 9.71304L22.4946 9.73264C22.9053 9.50621 22.8667 9.52446 22.9472 9.46022L22.9097 9.42033C22.7956 9.49211 22.7938 9.47499 22.7326 9.50571L22.4058 9.64011L22.3931 9.61804L22.5687 9.52876L22.6354 9.50054L22.6613 9.46022L22.674 9.48228C22.9258 9.36582 23.0427 9.39952 24.164 8.7154C24.2267 8.68861 24.2023 8.63516 24.2016 8.51117C24.1776 8.51976 24.1561 8.523 24.1317 8.51836C24.0461 8.5933 23.9867 8.5923 23.8059 8.6923C23.7899 8.69801 23.7735 8.69055 23.7538 8.66208L23.7466 8.64248L23.9338 8.58455C23.9644 8.56921 24.0351 8.53952 24.1109 8.45035C24.1353 8.45495 24.1037 8.47956 24.1222 8.46851L24.1529 8.45316C24.1729 8.44601 24.1751 8.42746 24.1634 8.39612L24.1274 8.36017C24.0075 8.41625 23.9489 8.44165 23.869 8.53226L23.8563 8.51019L23.7098 8.58023C23.6883 8.53462 23.6691 8.51935 23.649 8.52651L23.5718 8.56296C23.4825 8.6037 23.437 8.61549 23.406 8.66652C23.4002 8.65082 23.3893 8.64587 23.3813 8.64873L23.296 8.68805L23.2541 8.73409C23.2482 8.71839 23.2373 8.71345 23.2293 8.7163L23.2075 8.75519L23.1947 8.73313L23.0715 8.76819L23.0449 8.7821L23.065 8.82376L23.1349 8.81657L23.1896 8.79264C23.214 8.79724 23.2395 8.7926 23.2636 8.78401L23.307 8.74192L23.3142 8.76152C23.0559 8.93361 23.05 8.91791 22.8668 9.02328C22.8369 9.01617 22.8194 9.01798 22.8114 9.02084C22.7987 9.04758 22.8369 9.01615 22.8249 9.02045C22.7943 9.03579 22.7725 9.02585 22.7583 8.99984L22.8541 8.95235C22.8621 8.94949 22.869 8.9559 22.9295 8.94762C22.9951 8.87983 22.9933 8.86274 23.0359 8.84306L23.0159 8.8014C22.7557 8.95636 22.8549 8.88107 22.5124 9.03436L22.4964 9.04008L22.4763 8.99842C22.9089 8.78196 22.7682 8.86766 22.9045 8.77021C22.9103 8.78591 22.9212 8.79085 22.9292 8.788C22.9394 8.76659 22.9591 8.74625 22.9832 8.73767L23.0138 8.72232C23.1657 8.6548 23.2335 8.66612 23.5141 8.46837L23.5214 8.48797L23.5647 8.44588L23.6114 8.42482C23.5899 8.37922 23.6606 8.34956 23.6792 8.33851L23.6577 8.2929C23.1494 8.59858 22.9935 8.61872 22.857 8.71623L22.8497 8.69664C22.7156 8.77556 22.7057 8.76131 22.6712 8.77812C22.6591 8.78241 22.6475 8.79987 22.6373 8.8213C22.6314 8.8056 22.6205 8.80065 22.6085 8.80495C22.5844 8.81353 22.5994 8.81709 22.5866 8.84383L22.6085 8.80495L22.1592 9.04959C22.1548 9.03784 22.1439 9.03285 22.1319 9.03714C21.9103 9.17389 21.9774 9.15886 21.6629 9.3021C21.6469 9.30781 21.6297 9.32283 21.6115 9.34705C21.6072 9.3353 21.5963 9.33031 21.5802 9.33604L21.3856 9.42324L21.265 9.50178C21.2607 9.49003 21.2498 9.48504 21.2337 9.49077C21.1648 9.53754 21.105 9.57218 21.0544 9.59467L21.0504 9.59611C21.0198 9.61145 21.0635 9.58254 21.0351 9.57936L21.0037 9.61716C20.9451 9.64251 20.9743 9.62327 20.7753 9.69868C20.4386 9.86762 20.4802 9.85727 20.4416 9.87547L20.3064 9.91481C20.3108 9.92656 20.3097 9.93585 20.2951 9.94546C20.1395 9.97878 20.0546 9.98246 20.0405 9.95644C20.0096 9.81216 20.0155 9.73017 20.0647 9.70373L20.0873 9.69125L20.0807 9.74687L20.1033 9.73439C20.1426 9.69373 20.154 9.66302 20.1453 9.63953L20.1238 9.59392L20.0771 9.61498L20.0571 9.57332C20.04 9.53951 20.0338 9.51063 20.0357 9.47889L20.0814 9.27179L20.1014 9.31345L20.152 9.29095L20.132 9.2493L20.088 9.21621C20.1124 9.17198 20.1372 9.14094 20.1612 9.13237L20.1485 9.11031L20.0818 9.13853L20.053 9.07338C20.0846 8.74264 20.0916 8.55374 20.0716 8.51208L20.127 8.51452C20.1576 8.49918 20.1678 8.47777 20.1521 8.44784L20.1055 8.4689L20.0982 8.4493C20.0811 8.41549 20.0775 8.38127 20.0793 8.34955C20.1279 8.24793 20.1308 8.1581 20.0922 8.07869C20.1082 8.07297 20.1192 8.07795 20.125 8.0936C20.1761 8.03547 20.1892 7.92427 20.1671 7.75466C20.2052 7.5148 20.2171 7.05803 20.2044 6.38795C20.2139 5.19091 20.1557 5.08301 20.1202 4.81616L20.0735 4.83721C20.0892 4.86712 20.0928 4.90134 20.087 4.9345C20.0505 4.93419 20.0196 4.93635 20.0035 4.94208L19.9963 4.92248C19.9548 4.8352 19.9541 4.71122 19.9943 4.55041L20.0143 4.54326L20.1112 4.6818L20.1578 4.66074C20.1534 4.64899 20.1436 4.58591 20.1255 4.46382C20.1128 4.44176 20.0924 4.43572 20.0549 4.44466L20.021 4.48784C20.0053 4.45793 19.9788 4.3742 19.9319 4.23563L19.8907 4.25922M19.5652 5.14303L19.5879 5.13054C19.575 5.20611 19.5601 5.25136 19.5335 5.26532L19.5048 5.20016C19.5233 5.18911 19.5445 5.17263 19.5652 5.14303ZM19.5394 5.68477C19.5162 5.47564 19.5236 5.34873 19.5575 5.30555L19.5703 5.32762C19.6131 5.51643 19.6065 5.62087 19.5532 5.64865L19.6034 5.75943C19.5812 5.83396 19.5786 5.8881 19.5957 5.92196L19.5731 5.93444L19.5029 5.78201C19.5255 5.76952 19.5408 5.7375 19.5394 5.68477ZM19.5578 5.96653C19.572 5.99254 19.5752 6.06238 19.574 6.16916L19.5514 6.18164L19.5226 6.11649C19.5216 6.02809 19.5352 5.97905 19.5578 5.96653ZM19.2965 9.28564L19.3366 9.32015C19.3712 9.30337 19.3814 9.28196 19.3672 9.25596L19.3545 9.2339L19.3318 9.24638L19.2965 9.28564ZM20.1203 9.57292L20.1275 9.59252C20.1622 9.57574 20.175 9.50019 20.1619 9.36726L20.108 9.36872C20.1072 9.48881 20.113 9.55347 20.1203 9.57292ZM24.2272 8.26249L24.2345 8.28209L24.2119 8.34343L24.2779 8.28881L24.2859 8.28595L24.2658 8.24429L24.2498 8.25L24.2305 8.28351C24.2262 8.27176 24.3016 8.21823 24.2331 8.22932C24.2283 8.25321 24.2618 8.24568 24.2272 8.26249ZM24.4359 8.34778L24.5412 8.30131C24.527 8.2753 24.456 8.29181 24.432 8.30039L24.416 8.3061L24.4359 8.34778ZM22.5348 9.07058L22.5814 9.09833C22.5771 9.08658 22.5782 9.0773 22.5902 9.07302L22.6302 9.10753L22.5257 9.13153C22.5061 9.10304 22.5123 9.08305 22.5348 9.07058ZM22.2193 9.22309C22.254 9.20631 22.2867 9.22124 22.2983 9.25259L22.1861 9.29263L22.1788 9.27303C22.1894 9.26484 22.2066 9.24984 22.2193 9.22309ZM22.4715 9.1198L22.4842 9.14186L22.395 9.1826L22.3822 9.16054L22.4715 9.1198ZM21.5766 9.54564C21.581 9.55739 21.5919 9.56238 21.6079 9.55665C21.746 9.47629 21.7285 9.47811 21.7978 9.44451C21.8204 9.43202 21.8382 9.44338 21.8524 9.4694L21.4527 9.65197L21.5 9.65726L21.4873 9.6352L21.3353 9.70273L21.3226 9.68066L21.4585 9.61885L21.5766 9.54564ZM21.9885 9.35872L21.9958 9.37831C21.9838 9.38261 22.0373 9.36792 22.0205 9.3961C21.9294 9.41972 21.9226 9.41329 21.8599 9.44012L21.8526 9.42053L21.9885 9.35872ZM22.0884 9.30978L22.0957 9.32938L22.0224 9.36441L22.0151 9.34481L22.0884 9.30978ZM19.6717 10.6248L19.7005 10.6899C19.6779 10.7024 19.652 10.6939 19.6324 10.6654L19.6251 10.6458L19.6717 10.6248ZM23.0806 9.34171L23.1006 9.38337L23.1779 9.34693L23.1385 9.33877L23.1513 9.36083L23.2198 9.30089C23.747 9.04616 23.8199 9.04682 23.7886 8.987L23.7813 8.9674C23.2733 9.28624 23.1925 9.28844 23.0806 9.34171ZM23.9106 8.96122L23.9966 8.94831L23.9766 8.90666L23.8906 8.91956L23.9106 8.96122ZM21.5948 9.96072C21.6232 9.96388 21.5754 9.99422 21.6061 9.97888L21.8779 9.85527L21.8906 9.87733C21.8134 9.91378 21.7657 9.94412 21.7554 9.9655C21.7496 9.9498 21.7387 9.94486 21.7226 9.95059L21.6067 10.0053L21.594 9.98319C21.6246 9.96785 21.5766 9.98498 21.5948 9.96072ZM22.8816 9.46601L22.9216 9.50052C23.0065 9.44803 22.9559 9.47053 22.9727 9.44239C22.9785 9.45809 22.9894 9.46303 22.9974 9.46017L23.0601 9.43339L23.0386 9.38778L22.8688 9.44395L22.8816 9.46601ZM21.357 10.2009L21.341 10.2066L21.321 10.1649L21.337 10.1592L21.357 10.2009ZM20.1579 10.7974L20.1706 10.8194L20.8863 10.4975L20.8662 10.4558L20.2945 10.7131L20.1645 10.7417L20.1579 10.7974ZM20.9635 10.4611L20.9715 10.4582L20.9515 10.4166L20.9435 10.4194L20.9635 10.4611Z" fill="black"/>
<path d="M8.33489 10.6807C8.03935 11.4739 7.89445 11.9028 7.89913 11.9765C7.76672 12.2679 7.71051 12.4343 7.73854 12.4731C7.6955 12.5284 7.68459 12.5723 7.70714 12.6086C7.69258 12.6182 7.67766 12.6147 7.6678 12.6004C7.62946 12.7783 7.53063 12.9157 7.36628 13.023L7.19411 13.1333C7.17149 13.1457 7.16674 13.1696 7.17838 13.201L7.19112 13.223L7.25743 13.1816L7.26873 13.1998L7.13023 13.3158L6.86895 13.48L6.72357 13.5408C6.71081 13.5675 6.83835 13.4954 6.79206 13.5296L6.62372 13.6385C6.5217 13.706 6.45321 13.7171 6.42919 13.6768L6.41061 13.6879C6.43864 13.7267 6.43679 13.7584 6.40764 13.7777L6.44082 13.757L6.40009 13.6961L6.09253 13.8946L6.13445 13.8975C6.1246 13.8832 6.10714 13.885 6.07799 13.9043L6.04698 13.9553L5.99052 13.9621C5.95263 14.0067 5.92638 14.0338 5.91832 14.0367L5.86186 14.0435C5.75067 14.172 5.85487 14.1348 5.84687 14.1377L5.8749 14.1765L5.94776 14.1283L6.06908 14.0761L6.07596 14.1313C5.66273 14.4119 5.97064 14.2266 5.85659 14.2984L5.83398 14.3109L5.86201 14.3497L5.92832 14.3082L5.94107 14.3303C5.85617 14.3828 5.81135 14.421 5.80257 14.4463L5.78982 14.4242C5.67975 14.4946 5.59299 14.6276 5.52802 14.8194C5.58005 14.8985 5.35882 15.0972 6.48184 14.3814C6.56456 14.3475 6.61263 14.3303 6.6232 14.3221C6.61335 14.3078 6.6185 14.2972 6.63304 14.2875C6.76348 14.2232 6.70809 14.2696 6.78498 14.22L7.02768 14.0668L6.98319 14.1182C6.9748 14.1079 6.97994 14.0971 6.99048 14.089C7.02545 14.0854 7.05605 14.07 7.0892 14.0493L7.12993 14.1102L6.68619 16.1058L6.55846 16.4709L6.58445 16.8832L6.60304 16.8722L6.69778 16.7851L6.71551 16.9429L6.74354 16.9817L6.79015 17.0095C6.77559 17.0191 6.77448 17.0284 6.78433 17.0426L6.79708 17.0647L6.84079 17.0358C6.88712 16.9527 6.8948 16.8878 6.86935 16.8437C6.94987 16.8283 6.99941 16.8151 7.02201 16.8025L7.03475 16.8246C6.99502 16.8521 6.98406 16.896 7.00189 16.9561L7.01464 16.9782L7.03725 16.9657C7.26818 16.4262 7.68053 14.7127 8.07685 13.5064C8.01497 13.4131 8.35137 13.1333 9.08602 12.667L9.10863 12.6545C9.18177 12.766 9.2322 13.0852 9.25594 13.6137C9.26195 13.9354 9.27604 14.1079 9.28876 14.13C9.30158 14.5559 9.31731 14.781 9.33677 14.8096L9.38967 15.8201C9.37843 16.3522 9.41997 16.8921 9.51575 17.4435C9.53031 17.4339 9.55985 17.4278 9.59483 17.4242L9.62181 17.3747C9.63166 17.3889 9.64112 17.39 9.66115 17.3828L9.62042 17.3219L9.7432 17.2737C9.77638 17.253 9.791 17.1945 9.78447 17.1037C9.73534 16.9836 9.73468 16.9084 9.78498 16.8727C9.7535 16.5556 9.7463 16.3895 9.76091 16.3799C9.7254 16.0642 9.7164 15.881 9.73649 15.8251C9.70508 15.4103 9.70846 15.1872 9.75615 15.1569L9.78564 15.1996L9.78367 15.4266C9.86705 16.0669 9.90136 16.5873 9.88907 16.982L9.99315 17.1402L10.0158 17.1277C10.0917 16.293 10.053 14.7095 9.90755 12.3737C9.85926 12.1825 9.89358 12.006 10.0201 11.8455L9.9709 11.8231L9.9596 11.805C10.0259 11.7635 10.0678 11.7175 10.0813 11.6683C10.0715 11.6541 9.99862 11.6535 9.86275 11.6664L9.65484 9.95687C9.5925 9.44664 9.51574 9.00813 9.42224 8.63345L9.40949 8.61139C9.31587 8.59152 9.21503 8.55209 9.11488 8.49022L9.07997 8.39618L9.06867 8.37802L9.05008 8.38907C8.94563 8.81683 8.70325 9.58221 8.33511 10.6811M9.0005 10.8474C9.05108 10.9226 9.07575 11.0868 9.07852 11.3388C9.15919 11.6295 9.11462 11.8273 8.95028 11.9348L8.93753 11.9127L8.79903 12.0287L8.73272 12.0702C8.69954 12.0909 8.66748 12.1023 8.6311 12.102L8.59182 12.045C8.57907 12.023 8.69118 11.628 8.94154 10.8597L9.0005 10.8474ZM8.99551 11.9587L9.04324 11.9283L9.07127 11.9671C8.84641 12.1317 8.72067 12.2209 8.69555 12.2388C8.68099 12.2484 8.66131 12.2688 8.64194 12.3023C8.63209 12.288 8.60003 12.2995 8.54032 12.3341C8.51229 12.2953 8.66534 12.1697 8.99551 11.9587ZM6.751 13.5051L6.80277 13.4734L6.77327 13.4306L6.72151 13.4624L6.751 13.5051ZM7.4146 13.0553L7.44263 13.0941L7.32529 13.1449L7.31254 13.1228L7.4146 13.0553ZM6.17912 14.0065L6.19187 14.0286L6.12154 14.0715L6.10879 14.0494L6.17912 14.0065ZM6.14501 14.3426L6.15631 14.3608L6.07142 14.4132L6.04339 14.3744L6.14501 14.3426ZM6.34797 14.2169L6.35928 14.2351L6.2055 14.3343L6.1942 14.3162L6.34797 14.2169ZM6.62307 14.0654L6.63582 14.0875L6.23132 14.3428L6.2033 14.304C6.44382 14.1693 6.42156 14.1951 6.62307 14.0654ZM8.64537 12.7758L8.69601 12.8021C8.64827 12.8324 8.61403 12.8624 8.60127 12.8892L8.54626 12.8999C8.47775 12.9598 8.41434 13.0091 8.36258 13.0409L8.31887 13.0698C8.29374 13.0876 8.26934 13.083 8.24712 13.0599L8.55212 12.8667L8.64537 12.7758ZM8.86289 12.6404L9.07892 12.5012L9.09167 12.5233C8.9736 12.5965 8.88506 12.6636 8.82602 12.7246L8.81327 12.7025C8.83185 12.6915 8.84611 12.6686 8.86289 12.6404ZM6.62254 14.1854L6.72602 14.1218L6.75405 14.1607C6.71034 14.1896 6.74638 14.1767 6.69646 14.2256C6.5846 14.2788 6.60285 14.2546 6.43446 14.3635L6.42171 14.3414L6.62254 14.1854ZM6.90819 14.0258C6.93734 14.0065 6.96174 14.0111 6.9774 14.041L6.91507 14.081C6.88995 14.0989 6.86555 14.0943 6.84188 14.0672L6.90819 14.0258ZM6.57307 16.9498L6.58582 16.9718C6.61497 16.9526 6.62119 16.9326 6.60155 16.9041L6.5888 16.8821C6.56367 16.8999 6.55745 16.9199 6.57307 16.9498ZM6.81473 17.3073C6.83292 17.3319 6.85334 17.3379 6.88249 17.3186C6.91164 17.2993 6.91786 17.2794 6.89822 17.2509L6.88547 17.2288L6.84176 17.2577L6.81473 17.3073ZM9.62192 17.0688C9.65107 17.0495 9.67144 17.0555 9.68968 17.0801L9.70243 17.1022L9.61754 17.1547C9.61391 17.1205 9.60518 17.097 9.59538 17.0827L9.62192 17.0688Z" fill="black"/>
<path d="M10.6422 8.49519C10.4876 8.71454 10.3064 8.94781 10.0959 9.18711L10.1159 9.22876C10.1319 9.22305 10.1516 9.20272 10.1764 9.17168C10.207 9.15633 10.2289 9.16627 10.2431 9.19228L10.2784 9.15305L10.2985 9.1459L10.3058 9.16549C10.3185 9.18756 10.1967 9.37301 9.95244 9.71756L9.99397 9.75601L9.97393 9.76316L9.91456 9.76216C9.92038 9.77786 9.90471 9.79675 9.85804 9.81783L9.86531 9.83742L9.94069 9.88152C9.92468 9.88724 9.89514 9.89336 9.85725 9.8891C9.75194 9.93557 9.67682 10.0511 9.625 10.2294L9.66506 10.2639C9.72668 10.1487 9.76278 10.087 9.77883 10.0813L9.80758 10.1464C9.79157 10.1521 9.77187 10.1725 9.74708 10.2035L9.83774 10.2644C9.90233 10.1082 9.98616 9.96732 10.0839 9.83926C10.1553 9.83598 10.1986 9.84271 10.2059 9.86231L10.2525 9.84125C10.5172 9.45391 10.8015 9.14393 11.1081 8.906L11.1281 8.94766C11.0989 9.06459 11.0722 9.12736 11.0497 9.13983C11.0653 9.16974 11.0835 9.19433 11.1097 9.21602C11.1356 9.27337 11.1247 9.72095 11.0733 10.5602C10.9639 12.5029 10.8133 13.9677 10.6161 14.952C10.6219 14.9677 10.6427 14.9869 10.6729 15.0072C10.7869 14.9354 10.8515 14.8769 10.8734 14.838L10.8934 14.8309L10.9134 14.8725L10.9641 14.8501L10.9994 14.8108C11.0038 14.8226 11.0227 14.8247 11.0533 14.8094L11.0748 14.855C11.0949 14.8966 11.0915 14.9733 11.0743 15.0859C11.0426 15.1593 11.0301 15.297 11.0395 15.4933L11.0522 15.5153L11.0988 15.4943C11.2178 15.2033 11.2875 14.9388 11.3132 14.6901C11.8318 14.3143 12.213 13.9963 12.462 13.7255C12.7644 13.5865 12.9677 13.4252 13.0801 13.2387L13.0673 13.2166L12.9602 13.2948L12.9376 13.3072L12.9248 13.2852C13.1416 13.1723 13.279 13.0656 13.3386 12.9689C13.6558 12.4785 13.9012 12.1248 14.0787 11.9061C14.5899 11.1557 14.7411 10.5604 14.5293 10.1124C14.5078 10.0667 14.2857 9.93301 13.8589 9.7126C13.8316 9.65134 13.9023 9.52402 14.0711 9.33068L14.4881 8.59612C14.5618 8.37902 14.5402 8.07616 14.4231 7.68747L14.3831 7.60414C14.2616 7.35021 13.9867 7.20871 13.5569 7.17571C13.2826 7.10939 12.8608 7.17121 12.2899 7.35714C11.8447 7.55152 11.2926 7.93492 10.6428 8.49516M13.9167 7.36238L13.9101 7.41801L13.1335 7.38016C13.5937 7.23815 13.8537 7.2294 13.9167 7.36238ZM11.8643 10.1717C11.8207 9.90772 11.8219 9.75199 11.8664 9.70062L11.9622 8.40603C11.9335 8.34088 12.0173 8.2488 12.2232 8.13099L12.2924 8.0974L12.3212 8.16256C12.5245 8.05009 12.6495 7.98329 12.7041 7.95933C13.0918 7.78106 13.3306 7.78905 13.4166 7.97134L13.4632 7.95029L13.4159 7.84736L13.4626 7.8263C13.6021 7.84751 13.6898 7.90051 13.7313 7.98779C13.7586 8.04904 13.7556 8.13887 13.7224 8.25723C13.6917 8.27258 13.667 8.25479 13.647 8.21313L13.6004 8.23419L13.6338 8.37313C13.5414 8.74779 13.4539 8.9521 13.3645 8.99261C13.3251 9.13095 13.2934 9.20438 13.2693 9.21297C13.2328 9.31029 13.1086 9.5011 12.8894 9.77894C12.7961 9.82111 12.4969 10.0788 11.9877 10.5533C11.9553 10.5516 11.9178 10.5605 11.8872 10.5759L11.8672 10.5342C11.8286 10.4548 11.8295 10.335 11.8643 10.1717ZM14.1524 7.80184L14.1739 7.84744C14.1499 7.85603 14.0796 7.80123 13.9551 7.68593L13.9351 7.64427C13.9777 7.62464 14.0519 7.67793 14.1524 7.80184ZM9.90988 9.91934L9.92263 9.9414C9.90662 9.94711 9.88692 9.96745 9.86068 9.99458L9.84064 10.0017L9.82062 9.96008L9.90988 9.91934ZM11.3677 9.35921L11.3964 9.42436C11.3723 9.43295 11.3574 9.4782 11.3431 9.54987L11.3231 9.50821C11.3443 9.44297 11.3497 9.39663 11.3396 9.36923L11.3677 9.35921ZM11.3107 9.9029L11.3507 9.98623L11.3281 9.99872L11.2881 9.91539L11.3107 9.9029ZM11.3143 10.0836C11.3379 10.1594 11.3324 10.2058 11.2978 10.2225L11.2752 10.235C11.2843 10.1741 11.2818 10.1306 11.2676 10.1046L11.3143 10.0836ZM11.2959 10.3521L11.3087 10.3741L11.2948 10.459L11.2482 10.48L11.2354 10.4579C11.282 10.4369 11.2974 10.4048 11.2759 10.3592L11.2959 10.3521ZM11.2729 10.5955L11.2991 10.7148L11.279 10.722L11.2288 10.6112L11.2729 10.5955ZM13.7723 9.79673L13.8943 9.81977C13.9085 9.84578 13.8997 9.8711 13.8677 9.88255C13.8134 9.87084 13.7769 9.87053 13.7544 9.88305L13.7297 9.81645L13.7723 9.79673ZM11.9336 10.737L11.9536 10.7786L11.8603 10.8208L11.8403 10.7791L11.9336 10.737ZM13.5524 10.3412C13.6322 10.3482 13.6744 10.3642 13.6872 10.3863L13.6945 10.4059C13.6318 10.4327 13.56 10.4228 13.4777 10.3723L13.5524 10.3412ZM11.7235 11.5397C11.9873 11.4189 12.3695 11.1405 12.8743 10.703L13.0183 10.6384C13.3061 10.509 13.5467 10.4853 13.7461 10.5694L13.7861 10.6528C13.7913 10.997 13.7381 11.2202 13.6261 11.3222L13.1984 12.0162C12.8532 12.4678 12.6625 12.7 12.6239 12.7182C12.0465 13.3635 11.6718 13.7235 11.5013 13.8022L11.4787 13.8147C11.4641 13.7267 11.5463 12.9696 11.7235 11.5397ZM12.2821 11.0519L12.2949 11.074L12.2016 11.1162L12.1889 11.0941L12.2821 11.0519ZM14.43 10.1745L14.513 10.349C14.5049 10.4007 14.4936 10.4314 14.471 10.4439L14.3295 10.1483C14.3874 10.1454 14.4228 10.1549 14.43 10.1745ZM11.3008 13.0306C11.324 13.191 11.321 13.2808 11.289 13.2922L11.2817 13.2726C11.2435 13.2064 11.2493 13.1244 11.3008 13.0306ZM12.2172 13.6532C12.3819 13.5589 12.7754 13.139 13.3957 12.3896L13.4157 12.4312C13.423 12.4508 13.3807 12.5325 13.2753 12.6766C12.9473 13.0155 12.7548 13.2306 12.7074 13.323C12.3258 13.6278 12.1443 13.7991 12.1614 13.8328C11.8279 14.1204 11.6162 14.3203 11.5181 14.4351C11.4915 14.449 11.4431 14.453 11.3808 14.4442C11.3437 14.3687 11.3579 14.2971 11.4167 14.223C11.4834 14.1948 11.5504 14.1797 11.6192 14.1818C11.6783 14.1208 11.788 14.0373 11.951 13.9258L11.9309 13.8842L11.787 13.9489C11.7928 13.9157 11.9099 13.8029 12.1325 13.6081L12.2018 13.5745L12.209 13.5941C12.0892 13.6502 12.0341 13.7098 12.0414 13.7782C12.0556 13.8043 12.0774 13.8142 12.108 13.7988C12.1907 13.7161 12.2216 13.6649 12.2172 13.6532ZM11.2687 13.384L11.276 13.4036C11.2916 13.4335 11.2828 13.4588 11.2508 13.4703L11.238 13.4482C11.2308 13.4286 11.2395 13.4033 11.2687 13.384ZM12.5203 13.2834C12.4656 13.3074 12.3749 13.393 12.2466 13.5364L12.224 13.5489L12.204 13.5072C12.3158 13.454 12.404 13.3737 12.4551 13.2667C12.4857 13.2514 12.5061 13.2575 12.5203 13.2834ZM11.4613 14.0251L11.5305 13.9915L11.5433 14.0136C11.5273 14.0193 11.5076 14.0396 11.4813 14.0668L11.4347 14.0878C11.422 14.0658 11.4322 14.0444 11.4613 14.0251ZM11.0738 14.4606L11.1292 14.4631C11.1641 14.6059 11.1462 14.6922 11.0835 14.719C11.0187 14.7155 10.9662 14.7209 10.9236 14.7405L10.8948 14.6754C10.8821 14.6533 10.8923 14.6319 10.9215 14.6126C10.9521 14.5973 10.9768 14.615 10.9968 14.6567C11.0406 14.5302 11.0658 14.4635 11.0738 14.4606Z" fill="black"/>
<path d="M1.13364 11.6656C0.933848 11.9588 0.692518 12.2623 0.41365 12.5748L0.439501 12.6321C0.463561 12.6236 0.485773 12.5979 0.518585 12.564C0.557206 12.5458 0.587076 12.5529 0.601626 12.5921L0.652671 12.5339L0.683288 12.5186L0.697502 12.5446C0.711716 12.5706 0.553832 12.8177 0.228959 13.2754L0.285409 13.3173L0.254792 13.3327L0.177914 13.3335C0.185189 13.3531 0.161511 13.3748 0.0988296 13.4016L0.114492 13.4315L0.215726 13.4842C0.191666 13.4928 0.158153 13.5003 0.112257 13.4989C-0.0236716 13.5607 -0.126091 13.7127 -0.192535 13.9494L-0.136085 13.9913C-0.0551015 13.8426 -0.00754001 13.7635 0.0126819 13.7563L0.0526828 13.8397C0.0326481 13.8468 0.00641011 13.8739 -0.0264013 13.9078L0.0904952 13.9904C0.178029 13.786 0.286333 13.601 0.423442 13.4323C0.520355 13.4243 0.573143 13.4321 0.58478 13.4634L0.647462 13.4367C0.989944 12.9284 1.36454 12.5196 1.76871 12.2024L1.79457 12.2597C1.75695 12.4151 1.72012 12.4993 1.6895 12.5146C1.70952 12.5563 1.73863 12.5858 1.77578 12.6125C1.81288 12.688 1.79503 13.2757 1.72514 14.3833C1.57849 16.9471 1.37721 18.8738 1.11935 20.1727C1.12663 20.1923 1.15427 20.2179 1.18744 20.246C1.33322 20.1496 1.42433 20.0772 1.45387 20.0223L1.48852 20.0055L1.51437 20.0628L1.57302 20.0375L1.62407 19.9793C1.63134 19.9989 1.65832 19.9982 1.69692 19.98L1.72277 20.0373C1.74862 20.0947 1.75 20.1962 1.71894 20.3449C1.67842 20.4436 1.66705 20.6208 1.6767 20.8791L1.69092 20.9051L1.74957 20.8798C1.90389 20.5008 1.99956 20.1472 2.03399 19.8242C2.71802 19.3316 3.21916 18.9087 3.54533 18.5526C3.93701 18.3729 4.21183 18.1594 4.35622 17.9126L4.34056 17.8827L4.20428 17.9802L4.16964 17.997L4.15398 17.967C4.43457 17.8181 4.61823 17.6771 4.69843 17.5509C5.11667 16.9046 5.43858 16.4392 5.66668 16.1493C6.34011 15.1635 6.53734 14.3745 6.2612 13.7895C6.2339 13.7283 5.93788 13.5544 5.38105 13.2648C5.3425 13.1853 5.43911 13.0177 5.6615 12.7609L6.20459 11.7905C6.29802 11.5043 6.27241 11.1052 6.12372 10.5947L6.06806 10.4814C5.90654 10.1442 5.54529 9.95359 4.97635 9.91254C4.6165 9.82355 4.06171 9.90614 3.31209 10.1603C2.71923 10.434 1.988 10.9348 1.13364 11.6656ZM5.44904 10.1831L5.4468 10.2505L4.42167 10.2036C5.02352 10.0155 5.36617 10.0086 5.44904 10.1831ZM2.74593 13.8811C2.68677 13.5384 2.6866 13.33 2.7467 13.2596L2.86945 11.5606C2.82798 11.4734 2.94206 11.3528 3.21739 11.2013L3.31067 11.1591L3.34922 11.2386C3.62181 11.0925 3.78942 11.0061 3.85462 10.9739C4.36766 10.742 4.67783 10.7467 4.79657 10.9927L4.85523 10.9674L4.78793 10.8228L4.85061 10.796C5.03745 10.8225 5.15939 10.8942 5.21253 11.013C5.25108 11.0924 5.24476 11.2099 5.18972 11.3672C5.1511 11.3854 5.11686 11.3666 5.09101 11.3092L5.02833 11.336L5.07778 11.5181C4.95474 12.0057 4.83654 12.2742 4.72064 12.3289C4.66624 12.5125 4.62577 12.6112 4.59913 12.6251C4.55132 12.7531 4.38545 13.0032 4.09599 13.3727C3.97612 13.4287 3.57918 13.7655 2.90822 14.3911C2.86088 14.3858 2.81936 14.3962 2.77269 14.4173L2.7483 14.3639C2.69811 14.2531 2.69371 14.095 2.74593 13.8811ZM5.76 10.7644L5.78439 10.8178C5.75377 10.8332 5.65876 10.7606 5.50078 10.6041L5.4764 10.5507C5.52961 10.5228 5.62462 10.5954 5.76 10.7644ZM0.167667 13.5499L0.181881 13.5759C0.161846 13.5831 0.135608 13.6102 0.102797 13.6441L0.0721802 13.6594L0.0477947 13.606L0.167667 13.5499ZM2.0858 12.8122L2.1258 12.8955C2.09921 12.9094 2.07364 12.9629 2.05612 13.0624L2.03027 13.005C2.06167 12.9184 2.0708 12.8574 2.0577 12.8221L2.0858 12.8122ZM2.01607 13.5292L2.07173 13.6425L2.04112 13.6578L1.98545 13.5446L2.01607 13.5292ZM2.01845 13.768C2.04681 13.8688 2.04166 13.9283 1.99102 13.9509L1.96041 13.9662C1.97177 13.8867 1.97435 13.8325 1.95724 13.7987L2.01845 13.768ZM1.99967 14.1208L2.01388 14.1468L1.99266 14.2609L1.93401 14.2862L1.91979 14.2602C1.97845 14.2349 1.9949 14.1935 1.96905 14.1361L1.99967 14.1208ZM1.96522 14.4437L2.00303 14.5944L1.97241 14.6097L1.90656 14.469L1.96522 14.4437ZM5.25498 13.3895L5.41632 13.4207C5.43489 13.4585 5.42358 13.4891 5.38491 13.5073C5.3157 13.4921 5.26583 13.4922 5.23376 13.5036L5.19376 13.4203L5.25498 13.3895ZM2.83356 14.6308L2.85794 14.6842L2.73807 14.7403L2.71369 14.6869L2.83356 14.6308ZM4.96117 14.1023C5.06391 14.11 5.12251 14.1335 5.13817 14.1634L5.15238 14.1894C5.07113 14.2273 4.97897 14.2114 4.87193 14.1431L4.96117 14.1023ZM2.5516 15.6811C2.90068 15.521 3.40865 15.1534 4.07174 14.5795L4.25409 14.4967C4.63524 14.3252 4.95399 14.2913 5.21323 14.4029L5.2689 14.5161C5.27591 14.9751 5.20283 15.2674 5.05814 15.4034L4.48804 16.3124C4.03344 16.9095 3.78406 17.2159 3.73745 17.237C2.97817 18.0892 2.48245 18.5634 2.26129 18.6645L2.22665 18.6813C2.21798 18.5601 2.32454 17.5634 2.5516 15.6811ZM3.29373 15.0393L3.30794 15.0653L3.18404 15.1228L3.16983 15.0968L3.29373 15.0393ZM6.12459 13.8871L6.2305 14.1113C6.22573 14.184 6.20928 14.2253 6.17722 14.2368L5.98985 13.8421C6.06819 13.8453 6.11038 13.8611 6.12459 13.8871ZM1.9975 17.6495C2.03161 17.8636 2.02534 17.9812 1.98269 18.0009L1.96847 17.9749C1.92265 17.8758 1.93333 17.7699 1.9975 17.6495ZM3.20912 18.4687C3.42558 18.3427 3.94061 17.7861 4.76117 16.8055L4.78555 16.8589C4.7983 16.881 4.73372 16.9883 4.60142 17.182C4.16294 17.6269 3.91556 17.9149 3.85728 18.0377C3.35289 18.4396 3.11341 18.6626 3.1349 18.7082C2.69609 19.0911 2.4133 19.3562 2.28639 19.5035C2.25175 19.5203 2.18986 19.5247 2.10609 19.5191C2.06026 19.4201 2.07386 19.3222 2.15329 19.2183C2.23856 19.1789 2.33107 19.1592 2.42436 19.1659C2.50309 19.0845 2.64703 18.9711 2.86316 18.8318L2.83731 18.7745L2.65496 18.8573C2.66738 18.8174 2.81719 18.6707 3.11094 18.4106L3.20423 18.3684L3.21844 18.3944C3.06248 18.4634 2.98922 18.5472 2.99973 18.6367C3.01684 18.6705 3.04415 18.6829 3.08277 18.6647C3.1699 18.5449 3.21401 18.4803 3.20965 18.4686M1.96055 18.1112L1.97476 18.1372C1.99334 18.1749 1.98203 18.2056 1.94336 18.2238L1.92914 18.1978C1.91203 18.164 1.92333 18.1333 1.96055 18.1112ZM3.60777 17.9759C3.53452 18.011 3.41609 18.1198 3.24726 18.313L3.21665 18.3284L3.19079 18.271C3.33871 18.2049 3.44917 18.0989 3.51812 17.9545C3.5593 17.9309 3.59069 17.9421 3.60777 17.9759ZM2.20979 18.9539L2.30307 18.9117L2.31873 18.9417C2.29467 18.9502 2.27246 18.9759 2.23965 19.0098L2.18099 19.0351C2.16678 19.0091 2.17408 18.98 2.20979 18.9539ZM1.70205 19.53L1.78039 19.5331C1.82179 19.718 1.80315 19.8267 1.71388 19.8674C1.63011 19.8618 1.56162 19.8729 1.50296 19.8983L1.46296 19.815C1.44585 19.7812 1.45861 19.7544 1.49834 19.7269C1.53696 19.7087 1.57119 19.7275 1.59704 19.7849C1.65727 19.617 1.69404 19.5328 1.70205 19.53Z" fill="black"/>
<path d="M16.6232 5.48639L16.5639 5.48539L15.7582 5.91931C15.7203 5.91505 15.6773 5.92155 15.6347 5.94119C15.5881 5.96224 15.5217 6.0037 15.4237 6.06975L15.0734 6.38554L15.1244 6.42504C15.1444 6.41789 15.1681 6.39614 15.1969 6.36366L15.3456 6.32393L15.375 6.46431C15.2646 6.57029 15.2164 6.68509 15.2385 6.80588C15.0701 6.96358 14.9932 7.06202 15.0078 7.10121L15.0205 7.12327L15.0512 7.10793L15.0971 7.06046L15.1889 7.11201L15.2347 7.21104C15.2504 7.24095 15.17 8.06389 14.9964 9.67449C14.896 11.2013 14.855 12.0326 14.8709 12.173C14.6909 12.2993 14.6012 12.4245 14.6084 12.5417C14.6255 12.5756 14.6929 12.5737 14.8135 12.544L14.8364 12.5935L14.8163 12.6983L14.8622 12.7973C14.8866 12.8507 15.0494 12.837 15.3496 12.7654C15.3423 12.7458 15.3474 12.7351 15.366 12.724C15.3933 12.7853 15.4238 12.9164 15.4495 13.1202L15.4801 13.1048C15.5407 12.9013 15.5561 12.7716 15.5288 12.7103L15.5514 12.6978C15.578 12.6839 15.6232 12.7077 15.6855 12.7653C15.6552 12.7939 15.6317 13.1218 15.6203 13.7515L15.6713 13.791L15.7019 13.7756C15.7246 13.0176 15.7562 12.5892 15.7982 12.4944C16.1392 12.3372 16.7226 12.0624 17.5548 11.6634L17.5953 11.6135C17.6025 11.6331 17.6175 11.6367 17.6361 11.6256L17.6907 11.6016L17.7312 11.5517C17.7385 11.5713 17.7534 11.5748 17.772 11.5638L18.4049 11.2758C18.5714 11.1986 18.6367 11.1176 18.5966 11.0343C18.5839 11.0122 18.6779 10.9476 18.8762 10.8458C18.8962 10.8386 18.9257 10.8325 18.9702 10.83C18.9644 10.8143 19.0587 10.7629 19.2599 10.6689C19.2246 10.5617 19.2389 10.49 19.3015 10.4633L19.2786 10.4137C19.2239 10.4377 19.1616 10.4777 19.0942 10.5284C18.955 10.5691 18.8639 10.5928 18.8221 10.59C18.7933 10.6224 18.7696 10.6442 18.7495 10.6513L18.2985 10.8301L18.2526 10.8776C18.2467 10.8619 18.2318 10.8583 18.2132 10.8694L18.1906 10.8819L18.1407 10.9308C18.1349 10.9151 18.0824 10.9205 17.9819 10.9431L17.9374 10.9944L17.8281 11.0423L17.8139 11.0163C18.3757 10.7448 18.6392 10.562 18.5963 10.4709C18.6309 10.4541 18.6582 10.4665 18.6753 10.5003L18.8317 10.3957L18.8087 10.3462L17.4206 10.886C17.4278 10.9056 17.4228 10.9163 17.4042 10.9273L17.226 10.9732C17.1833 10.9928 17.1517 11.0175 17.1323 11.051L17.0595 11.0504C16.8889 11.129 16.7639 11.1957 16.686 11.2546C16.5628 11.2897 16.4306 11.3369 16.2866 11.4016L15.9802 11.542L15.8301 11.5778C15.7886 11.4905 15.8032 10.9795 15.8777 10.0432C15.8855 9.73417 15.9231 9.52994 15.992 9.43436C16.0121 9.42721 16.0416 9.4211 16.0875 9.42248L16.2843 9.26795L16.4078 9.24607C16.5944 9.16172 16.7984 9.02679 17.0215 8.84516C17.0842 8.81837 17.1337 8.80512 17.1701 8.80543L17.3279 8.70473L17.821 8.47999C18.0301 8.38317 18.2491 8.25178 18.474 8.08718L18.4511 8.03767C18.3578 8.07985 18.3039 8.0813 18.2868 8.04749C18.2526 7.97981 18.1743 7.97673 18.0464 8.03567L18.0235 7.98617L18.1492 7.89691L18.5063 7.73398L18.4833 7.68448C18.4673 7.69019 18.3952 7.71595 18.2535 7.76209L18.2291 7.70868L18.369 7.64545C18.4036 7.62867 18.4164 7.60193 18.4007 7.57202C18.2098 7.64457 18.1107 7.6711 18.102 7.64755C16.7906 8.1865 16.1297 8.43565 16.1111 8.3979C16.0911 8.40504 16.0674 8.4268 16.0401 8.46318L15.9836 8.42121C16.0643 7.56266 16.1345 7.11584 16.1932 7.09072C16.2074 7.11672 16.2088 7.16945 16.2 7.24358L16.2128 7.26565L16.2674 7.24172C16.2855 6.8625 16.3392 6.65254 16.4366 6.60913C16.8403 6.42515 16.3532 6.56789 17.2 6.1104C17.2419 6.11322 17.2728 6.11101 17.2874 6.1014C17.6139 5.90501 18.0767 5.65998 18.6783 5.36099L18.6553 5.31149L18.3303 5.46297L18.3074 5.41347C18.346 5.39527 18.3737 5.37203 18.393 5.33852L18.4072 5.36453C18.4272 5.35738 18.4469 5.33705 18.4703 5.30211C18.525 5.27818 18.5705 5.26636 18.6083 5.27061C18.7129 5.19779 18.7993 5.1492 18.8685 5.11566L19.0696 5.0217C19.1101 4.97176 19.124 4.93573 19.1098 4.90976L19.1011 4.88627C19.0504 4.90876 18.9889 4.92631 18.9124 4.9403C18.8981 4.91429 18.9069 4.88896 18.9401 4.8683L19.3157 4.69432L19.4801 4.58687C19.4874 4.60646 19.5023 4.61002 19.5143 4.60573C19.5344 4.59858 19.5541 4.57824 19.5774 4.5433C19.674 4.52216 19.7315 4.50608 19.7421 4.49784C19.7895 4.4055 19.8533 4.32058 19.9324 4.25244C19.8778 4.22755 19.8461 4.20335 19.8319 4.17739L19.5801 4.29384C19.5729 4.27425 19.5521 4.25504 19.523 4.22546C19.5143 4.20196 19.5617 4.15839 19.6731 4.092L19.7325 4.093L19.7704 4.0484C19.7762 4.0641 19.7912 4.06761 19.8057 4.05799L19.8436 4.01339C19.8494 4.02909 19.8644 4.0326 19.8789 4.02298L19.9015 4.0105L19.8786 3.96099C19.8439 3.97777 19.7478 4.01208 19.594 4.06254L19.5576 4.11104L19.5434 4.08503C18.3575 4.61912 17.6844 4.92148 17.5257 4.99585C17.5057 5.003 17.4175 5.03447 17.2677 5.08349C17.275 5.10308 17.2633 5.12054 17.2273 5.13342L17.1664 5.12852L17.0021 5.23597C16.9635 5.25417 16.8899 5.27602 16.7867 5.30393C16.766 5.33353 16.7397 5.36063 16.7011 5.37887C16.6625 5.39707 17.6507 4.97791 17.6125 4.97374L17.4722 5.07262L17.4496 5.0851C17.3869 5.11189 17.3068 5.14049 17.2062 5.16306C17.1855 5.19267 17.1512 5.22263 17.0925 5.24803C17.0539 5.26623 17.0149 5.2713 16.9811 5.26561C16.9413 5.2931 16.8251 5.36997 16.6232 5.48639ZM16.7452 5.62048C16.7524 5.64008 16.7754 5.64077 16.806 5.62538L16.8289 5.67489L16.7783 5.69738C16.7396 5.71558 16.7007 5.72066 16.6668 5.71497C16.6475 5.74847 16.6158 5.7731 16.5812 5.78991L16.5972 5.7842L16.4471 5.81999L16.4343 5.79792C16.6063 5.72325 16.6552 5.68367 16.7452 5.62048ZM16.873 5.56149L16.8996 5.54759L16.9225 5.59709L16.8453 5.63354C16.8351 5.60609 16.8399 5.58216 16.873 5.56149ZM17.17 5.42006L17.1842 5.44607C17.1256 5.47142 17.0552 5.51429 16.9733 5.57463L16.9467 5.58854L16.9504 5.52511L17.17 5.42006ZM14.9882 6.48711L15.0735 6.44779L15.0505 6.39828L14.9653 6.4376L14.9882 6.48711ZM15.5971 6.20772L15.6277 6.19238L15.6965 6.19443C15.7136 6.22824 15.7009 6.25499 15.6648 6.26787L15.5795 6.30718L15.5653 6.28118C15.5511 6.25517 15.5653 6.23235 15.5971 6.20772ZM17.6553 5.60192L17.664 5.62542L17.4895 5.70548L17.4808 5.68198L17.6553 5.60192ZM17.1662 5.86078L17.1804 5.88679L17.0791 5.93182L17.0649 5.90581L17.1662 5.86078ZM17.6777 5.72262L18.0166 5.53511L18.2038 5.47717L18.2181 5.50318C18.1328 5.5425 18.0625 5.58531 18.0071 5.63174C17.9998 5.61214 17.9579 5.60937 17.8829 5.62727L17.6274 5.8072C17.5596 5.79588 17.5229 5.78239 17.5171 5.7667L17.6777 5.72262ZM17.3501 5.92834C17.3848 5.91156 17.4066 5.9215 17.4237 5.95536L17.2773 6.02539L17.2543 5.97588L17.3501 5.92834ZM17.0277 6.02568L17.0419 6.05169L17.9635 5.67401L17.9493 5.648L17.0277 6.02568ZM17.11 6.07619L17.1187 6.09969L16.9216 6.19223L16.9129 6.16874L17.11 6.07619ZM16.1529 7.59362L16.1671 7.61963L16.2257 7.59428C16.2184 7.57469 16.2123 7.5458 16.2152 7.50484L16.1923 7.45534C16.1617 7.47068 16.1467 7.51593 16.1529 7.59362ZM15.177 11.261L15.1898 11.2831C15.2069 11.3169 15.1941 11.3437 15.1555 11.3619L15.1427 11.3399C15.1271 11.3099 15.1413 11.2871 15.177 11.261ZM15.1657 11.3894C15.1886 11.4389 15.1991 11.5771 15.2026 11.8066L15.1173 11.8459C15.1002 11.8121 15.1018 11.6696 15.1125 11.4172L15.1657 11.3894ZM16.4356 11.8636C16.4498 11.8896 16.4133 11.9381 16.3328 12.0023L16.1521 12.0535L16.0974 12.0775L16.0745 12.0279L16.4356 11.8636ZM16.6137 11.8178L16.6264 11.8399L16.4865 11.9031L16.4738 11.881L16.6137 11.8178Z" fill="black"/>
</g>
<defs>
<clipPath id="clip0_2705_222">
<rect width="24" height="24" rx="2" fill="white"/>
</clipPath>
</defs>
</svg>
