<svg width="24" height="24" viewBox="0 0 24 24" fill="none" xmlns="http://www.w3.org/2000/svg">
<path d="M18.594 5.16251C18.3795 4.96166 18.1127 4.74164 17.7936 4.50244C17.4211 4.23139 17.1419 4.02762 16.956 3.89112C16.7279 3.72343 16.4581 3.55898 16.1468 3.39778C15.9551 3.29963 15.6684 3.16476 15.2869 2.99316C14.8416 2.79751 14.5085 2.64899 14.2875 2.54759C13.9066 2.37209 13.5813 2.20635 13.3115 2.05035C13.255 2.0185 13.19 2.00192 13.1165 2.00062C12.9339 1.99542 12.7519 2.02272 12.5706 2.08252C12.4081 2.13582 12.2423 2.21675 12.0733 2.32529C12.0402 2.34609 12.0093 2.37404 11.9807 2.40914C11.9293 2.47219 11.9378 2.52354 12.006 2.56319L12.2157 2.68409L12.2147 2.70261C12.1276 2.71106 12.0762 2.71561 12.0606 2.71626C11.1578 2.77476 10.4808 2.82124 10.0297 2.85569C9.2595 2.91614 8.41938 3.01949 7.50939 3.16573C6.55651 3.31848 5.73069 3.74228 5.03195 4.43712C4.68551 4.78161 4.36864 5.16998 4.08134 5.60223C3.82004 5.99612 3.57792 6.43421 3.35497 6.91651C2.54768 8.66433 2.10017 10.5925 2.01242 12.7011C1.98317 13.4187 2.00559 14.1093 2.07969 14.773C2.15964 15.486 2.28639 16.1379 2.45994 16.7288C2.69978 17.5426 3.02185 18.2446 3.42615 18.8347C4.06769 19.772 4.95038 20.5134 6.07421 21.0587C6.62476 21.3258 7.2104 21.5358 7.83114 21.6885C8.40898 21.8309 9.02355 21.9251 9.67484 21.9713C10.3417 22.0181 11.0229 22.0077 11.7184 21.9401C12.5855 21.8562 13.4243 21.6921 14.2349 21.4477C15.1435 21.1728 15.9772 20.8237 16.7357 20.4006C17.5404 19.9521 18.2671 19.4158 18.9158 18.7918C19.7445 17.9969 20.3708 17.108 20.7946 16.1253C21.271 15.0209 21.5411 13.8249 21.6048 12.5373C21.6568 11.5051 21.5482 10.5093 21.2791 9.54995C20.8046 7.85542 19.9096 6.39294 18.594 5.16251ZM14.4991 5.00358C14.6902 5.10173 14.8904 5.11993 15.0997 5.05818C15.1601 5.04063 15.2401 5.01366 15.3395 4.97726C15.4559 4.93501 15.5352 4.90706 15.5774 4.89341C15.6002 4.88626 15.6229 4.88269 15.6457 4.88269C15.6723 4.88204 15.6941 4.88594 15.711 4.89439C15.8104 4.94443 15.9599 5.01918 16.1595 5.11863C16.3304 5.20508 16.4773 5.28438 16.6002 5.35653C16.9141 5.54178 17.0857 5.6435 17.115 5.6617C17.308 5.7813 17.4705 5.89472 17.6025 6.00197C18.7737 6.95486 19.5476 8.19309 19.9239 9.71667C20.1117 10.4778 20.1823 11.2669 20.1355 12.0839C20.0458 13.6582 19.5914 15.1386 18.7724 16.525C18.1309 17.6098 17.3334 18.4974 16.3798 19.1877C15.5608 19.7798 14.6427 20.1793 13.6255 20.386C13.2459 20.4633 12.8582 20.5208 12.4623 20.5585C12.0717 20.5956 11.655 20.6154 11.2124 20.618C9.52177 20.5959 8.01996 20.2784 6.70698 19.6654C6.28838 19.4691 5.91821 19.252 5.59647 19.0141C5.23767 18.7489 4.92893 18.4503 4.67023 18.1181C4.48238 17.8763 4.31469 17.6027 4.16714 17.2972C4.04039 17.0352 3.92274 16.7366 3.81419 16.4012C3.61855 15.7993 3.47945 15.1272 3.3969 14.3849C3.315 13.6381 3.2968 12.8922 3.3423 12.1473C3.3943 11.3043 3.50415 10.5171 3.67184 9.78589C3.85644 8.98381 4.11449 8.23177 4.44598 7.52977C4.78138 6.82128 5.18502 6.22394 5.65692 5.73775C6.08916 5.2938 6.60916 4.95386 7.2169 4.71791C8.13339 4.36042 8.99592 4.11602 9.80451 3.98472C10.1133 3.93467 10.3937 3.89957 10.6459 3.87942C10.9456 3.85537 11.2277 3.8505 11.4922 3.8648C11.9706 3.89015 12.4191 3.99935 12.8377 4.19239C13.3577 4.43159 13.9115 4.70199 14.4991 5.00358Z" fill="#3E3E3E"/>
<path d="M16.7902 13.2314C16.7369 13.1904 16.67 13.1862 16.5894 13.2187C16.5627 13.2298 16.5348 13.2512 16.5055 13.2831C16.4925 13.2967 16.4691 13.326 16.4353 13.3708C16.4191 13.3916 16.3967 13.427 16.3681 13.4771C16.3408 13.5252 16.318 13.5606 16.2998 13.5834C16.0203 13.9318 15.7031 14.2373 15.3482 14.4999C14.8523 14.8677 14.3095 15.1453 13.72 15.3325C13.1643 15.5086 12.563 15.6055 11.9163 15.623C11.3137 15.6393 10.7086 15.5759 10.1008 15.4329C9.55095 15.3029 9.05793 15.1346 8.62179 14.9279C8.13234 14.6958 7.69782 14.4082 7.31823 14.065C7.12713 13.8921 6.96886 13.7127 6.84341 13.5268C6.70496 13.3221 6.60291 13.105 6.53726 12.8755C6.52036 12.8131 6.49371 12.7472 6.45731 12.6776C6.42871 12.6243 6.39589 12.5876 6.35884 12.5674C6.32309 12.5479 6.27987 12.5427 6.22917 12.5518C6.09267 12.5765 6.02475 12.6428 6.0254 12.7507C6.02735 12.9028 6.03092 13.024 6.03612 13.1144C6.04457 13.2483 6.05854 13.3685 6.07804 13.4751C6.19894 14.129 6.52069 14.7179 7.04328 15.2418C7.33773 15.5363 7.67475 15.794 8.05434 16.015C8.39949 16.2158 8.78656 16.39 9.21555 16.5376C10.0014 16.808 10.8623 16.9539 11.7983 16.9753L12.2448 16.9432C12.4236 16.9302 12.5721 16.9175 12.6904 16.9051C13.4736 16.8213 14.1825 16.6143 14.8169 16.2841C15.552 15.9019 16.0967 15.3884 16.4509 14.7436C16.6921 14.3055 16.8283 13.8661 16.8595 13.4254C16.866 13.337 16.8429 13.2723 16.7902 13.2314Z" fill="#3E3E3E"/>
<path d="M15.0738 9.38998C14.9432 9.35878 14.8083 9.35911 14.6692 9.39095C14.5548 9.4176 14.4287 9.46798 14.2909 9.54208C14.1525 9.61683 14.0615 9.7296 14.0179 9.8804C13.9081 10.2574 13.9627 10.6068 14.1817 10.9285C14.2734 11.0631 14.3874 11.1547 14.5239 11.2035C14.6585 11.2516 14.8064 11.2548 14.9676 11.2132C15.1944 11.1547 15.3813 11.0276 15.5282 10.832C15.6744 10.637 15.7498 10.4153 15.7544 10.167C15.7492 10.1079 15.7449 10.0634 15.7417 10.0335C15.7358 9.98082 15.7248 9.9402 15.7086 9.9116C15.55 9.6256 15.3384 9.45173 15.0738 9.38998Z" fill="#3E3E3E"/>
<path d="M8.87169 9.47768C8.71764 9.33598 8.53532 9.25928 8.32472 9.24758C8.10958 9.23588 7.93148 9.27618 7.79043 9.36848C7.64808 9.46143 7.54766 9.60378 7.48916 9.79552C7.47551 9.84102 7.46316 9.8966 7.45211 9.96225C7.44626 9.99864 7.43813 10.0493 7.42773 10.1143C7.43098 10.1468 7.43488 10.1901 7.43943 10.244C7.44333 10.2882 7.44821 10.3246 7.45406 10.3532C7.50541 10.6015 7.62468 10.791 7.81188 10.9216C7.99843 11.0516 8.23112 11.1082 8.50997 11.0913C8.80832 11.0731 9.01436 10.921 9.12811 10.635C9.19896 10.4582 9.21196 10.2538 9.16711 10.0217C9.12551 9.80072 9.02704 9.61937 8.87169 9.47768Z" fill="#3E3E3E"/>
</svg>
