<svg width="24" height="24" viewBox="0 0 24 24" fill="none" xmlns="http://www.w3.org/2000/svg">
<mask id="mask0_2686_210" style="mask-type:luminance" maskUnits="userSpaceOnUse" x="0" y="0" width="24" height="24">
<path d="M24 0H0V24H24V0Z" fill="white"/>
</mask>
<g mask="url(#mask0_2686_210)">
<path d="M15.8848 19.514H3.5V4.31445H15.8848V19.514ZM9.6747 14.5973C8.4481 14.5973 7.2209 14.5973 5.9943 14.5973C5.9304 14.5973 5.84825 14.5758 5.80605 14.6086C5.7347 14.6635 5.64915 14.7507 5.64285 14.8307C5.6383 14.8951 5.73185 14.9841 5.8009 15.0318C5.84655 15.0635 5.92525 15.0444 5.98975 15.0444C8.4578 15.0444 10.9258 15.0444 13.3933 15.0444C13.4504 15.0444 13.5246 15.0658 13.5611 15.0366C13.637 14.9763 13.7351 14.8927 13.7437 14.8098C13.75 14.7471 13.6409 14.6552 13.5656 14.605C13.5194 14.574 13.4407 14.5967 13.3763 14.5961C12.1422 14.5961 10.9082 14.5961 9.67415 14.5961L9.6747 14.5973ZM9.69355 16.8369C10.9202 16.8369 12.1473 16.8369 13.374 16.8369C13.4379 16.8369 13.5195 16.8601 13.5628 16.8279C13.6398 16.7706 13.7357 16.6835 13.7437 16.6005C13.7494 16.5378 13.6381 16.4501 13.5639 16.3969C13.5246 16.3689 13.4533 16.3892 13.3962 16.3892C10.9282 16.3892 8.4601 16.3892 5.9926 16.3892C5.9287 16.3892 5.84995 16.3695 5.80375 16.4011C5.73415 16.4489 5.63885 16.536 5.64285 16.6005C5.648 16.6805 5.73245 16.7688 5.80375 16.8243C5.84595 16.8572 5.92755 16.8363 5.992 16.8363C7.22605 16.8363 8.4601 16.8363 9.6941 16.8363L9.69355 16.8369ZM8.41445 11.0147C7.59405 11.0147 6.7742 11.0159 5.9538 11.0135C5.7912 11.0135 5.6326 11.0308 5.63545 11.2445C5.6383 11.4415 5.7889 11.4635 5.94465 11.4629C7.5849 11.4611 9.2257 11.4611 10.8659 11.4629C11.0285 11.4629 11.1889 11.4444 11.1838 11.2313C11.1786 11.0182 11.012 11.0129 10.8534 11.0129C10.0404 11.0147 9.22745 11.0141 8.41385 11.0141L8.41445 11.0147ZM8.40475 13.2542C9.17495 13.2542 9.94515 13.2542 10.7159 13.2542C10.7873 13.2542 10.8585 13.2542 10.9298 13.2542C11.0793 13.2554 11.1883 13.191 11.186 13.0244C11.1837 12.8716 11.0811 12.8066 10.9402 12.8066C10.8974 12.8066 10.8546 12.8066 10.8118 12.8066C9.2069 12.8066 7.60205 12.8066 5.99715 12.8066C5.95435 12.8066 5.9116 12.806 5.8688 12.8072C5.72675 12.8113 5.61375 12.8883 5.64175 13.034C5.65825 13.1187 5.7775 13.1898 5.8614 13.2501C5.8956 13.2745 5.95835 13.2548 6.00855 13.2548C6.8073 13.2548 7.606 13.2548 8.4053 13.2548L8.40475 13.2542ZM7.6066 8.77155C7.6391 8.7399 7.7201 8.69395 7.75435 8.6235C8.1788 7.74665 8.601 6.868 9.01005 5.9828C9.04375 5.9094 9.01005 5.75955 8.9553 5.6939C8.8583 5.5775 8.70995 5.6384 8.62155 5.82045C8.34825 6.3851 8.079 6.95215 7.80855 7.51865C7.66535 7.81825 7.51875 8.11675 7.38065 8.41875C7.29735 8.602 7.39035 8.7769 7.6066 8.77095V8.77155ZM5.70505 7.20585C5.9424 6.9635 6.15575 6.74565 6.36855 6.52775C6.4747 6.41855 6.5437 6.29555 6.41705 6.16065C6.291 6.02635 6.17345 6.0944 6.06735 6.20665C5.8163 6.47045 5.5624 6.7313 5.3131 6.99755C5.15395 7.16825 5.1568 7.253 5.32395 7.4309C5.56355 7.68575 5.8072 7.93645 6.04795 8.19015C6.15575 8.30355 6.2727 8.40205 6.41305 8.2594C6.55285 8.1173 6.46785 7.9902 6.35715 7.87675C6.1495 7.6631 5.9418 7.4494 5.70505 7.20585ZM10.6965 7.20825C10.4449 7.4631 10.2247 7.68515 10.0062 7.9084C9.9018 8.01525 9.85845 8.137 9.9754 8.2582C10.0929 8.37995 10.2076 8.3304 10.3103 8.22295C10.567 7.95435 10.8226 7.68455 11.0816 7.41895C11.222 7.2745 11.2208 7.1408 11.081 6.99755C10.8266 6.7367 10.5761 6.47225 10.3251 6.20845C10.219 6.0968 10.1026 6.02635 9.9748 6.1595C9.8476 6.2926 9.9132 6.41615 10.021 6.5254C10.2355 6.74205 10.4495 6.95935 10.6959 7.20825H10.6965Z" fill="#FF8000"/>
<path d="M3.5 4.06593C3.51649 3.69538 3.49829 3.334 3.55401 2.98464C3.6916 2.12499 4.41995 1.50646 5.287 1.50474C8.2282 1.49901 11.17 1.49786 14.1112 1.50474C15.0903 1.50703 15.8635 2.29566 15.8822 3.28073C15.8874 3.53731 15.8828 3.79446 15.8828 4.06535H3.5V4.06593Z" fill="#FF8000"/>
<path d="M15.1889 5.44135H4.62695V17.8199H15.1889V5.44135Z" fill="#FF8000"/>
<mask id="mask1_2686_210" style="mask-type:luminance" maskUnits="userSpaceOnUse" x="6" y="7" width="8" height="9">
<path d="M13.73 7.96185H6.19141V15.5005H13.73V7.96185Z" fill="white"/>
</mask>
<g mask="url(#mask1_2686_210)">
<path d="M6.19141 15.5005C6.23091 15.047 6.21971 14.6013 6.31591 14.1806C6.53831 13.2045 7.42286 12.5193 8.42031 12.4977C8.81831 12.489 9.21636 12.4964 9.61441 12.4873C8.06861 12.122 7.63111 10.8432 7.74186 9.97903C7.89131 8.80968 8.83121 7.96578 9.96861 7.96193C11.1194 7.95803 12.058 8.80058 12.2164 9.98033C12.371 11.1273 11.6273 12.1177 10.286 12.4942C10.6964 12.4942 11.052 12.4929 11.4079 12.4942C12.7574 12.4998 13.7244 13.4769 13.7296 14.8395C13.7304 15.0548 13.7296 15.2696 13.7296 15.5005H6.19141Z" fill="white"/>
</g>
<path d="M19.3868 15.5536C19.2994 15.5139 19.2754 15.4681 19.2772 15.3773C19.2827 15.1132 19.2793 14.8489 19.279 14.5848C19.279 14.205 19.1124 14.0341 18.7417 14.0341C17.7607 14.0338 16.7798 14.0341 15.7988 14.0341H15.642V12.1922H17.4558C17.4558 12.3354 17.4551 12.4712 17.4558 12.6066C17.4577 12.9041 17.6254 13.1005 17.9133 13.1047C18.5208 13.1134 19.1288 13.1134 19.7363 13.1044C20.018 13.1002 20.1891 12.9036 20.1899 12.6162C20.1914 12.0173 20.1917 11.4182 20.1899 10.8193C20.1888 10.529 20.0041 10.3374 19.718 10.3358C19.1233 10.3324 18.5286 10.3327 17.9339 10.3358C17.6392 10.3372 17.4582 10.5266 17.4558 10.8262C17.4545 10.9659 17.4558 11.1057 17.4558 11.2504H15.6399V9.40994H15.8006C16.7641 9.40994 17.7279 9.40994 18.6914 9.40994C18.7477 9.40994 18.8046 9.40994 18.8604 9.40384C19.1053 9.37764 19.2725 9.19634 19.2777 8.94654C19.2816 8.76159 19.2788 8.57659 19.2788 8.39159C19.2788 8.27039 19.2788 8.14894 19.2788 8.02114C19.4272 8.02114 19.5568 8.02164 19.6867 8.02114C20.0905 8.01874 20.301 7.68054 20.1226 7.31454C19.8343 6.72339 19.5409 6.13459 19.2522 5.54364C19.1643 5.36264 19.0255 5.27109 18.8286 5.26949C18.6267 5.26789 18.4838 5.35894 18.393 5.54469C18.1066 6.13194 17.8155 6.71674 17.5281 7.30344C17.3445 7.67819 17.5508 8.01794 17.9608 8.02009C18.0936 8.02089 18.2263 8.02009 18.3612 8.02009V8.47579H15.6324V8.32334C15.6324 7.77714 15.6334 7.23119 15.6324 6.68499C15.6318 6.49079 15.5998 6.30949 15.5408 6.14569C15.5223 6.76014 15.5403 7.37704 15.5403 7.99019C15.5403 8.43499 15.4845 8.88304 15.4589 9.32734C15.4334 9.77219 15.413 10.2173 15.3974 10.6627C15.3653 11.559 15.3515 12.4558 15.3473 13.3526C15.3405 14.7787 15.3577 16.2048 15.365 17.6309C15.5346 17.3938 15.6316 17.0937 15.6324 16.754C15.6337 16.2078 15.6324 15.6618 15.6324 15.1156C15.6324 15.0683 15.6324 15.0209 15.6324 14.9685H18.3672C18.3672 15.0873 18.3573 15.1977 18.3695 15.3056C18.3857 15.4469 18.3369 15.5171 18.2065 15.5814C17.5802 15.891 17.2986 16.6349 17.5435 17.2943C17.7879 17.9525 18.4872 18.3237 19.1546 18.1499C19.7227 18.002 20.1312 17.5179 20.1859 16.9278C20.2394 16.3525 19.9202 15.7957 19.3868 15.5536Z" fill="#FF8000"/>
<path d="M15.8848 19.8076C15.8683 20.1969 15.8848 20.5754 15.8296 20.9419C15.6937 21.8353 14.9722 22.4908 14.1182 22.4932C11.1628 22.5016 8.20745 22.5028 5.252 22.4932C4.29683 22.4902 3.52471 21.6593 3.50311 20.6535C3.49685 20.3772 3.50197 20.1002 3.50197 19.8082H15.8848V19.8076Z" fill="#F8F8F8"/>
<path d="M9.69247 21.9611C10.1386 21.9611 10.5002 21.5994 10.5002 21.1533C10.5002 20.7073 10.1386 20.3456 9.69247 20.3456C9.24639 20.3456 8.88477 20.7073 8.88477 21.1533C8.88477 21.5994 9.24639 21.9611 9.69247 21.9611Z" fill="white"/>
</g>
</svg>
