<svg width="24" height="24" viewBox="0 0 24 24" fill="none" xmlns="http://www.w3.org/2000/svg">
<mask id="mask0_2705_142" style="mask-type:luminance" maskUnits="userSpaceOnUse" x="2" y="2" width="21" height="21">
<path d="M22.7589 2H2V22.33H22.7589V2Z" fill="white"/>
</mask>
<g mask="url(#mask0_2705_142)">
<path d="M22.7144 15.5203C22.6662 14.2779 22.6526 13.0249 22.6393 11.8131C22.6363 11.5378 22.6334 11.2626 22.6296 10.9799C22.6086 10.6729 22.6103 10.3649 22.6343 10.0581C22.6777 9.20975 22.7271 8.24813 21.9375 7.76038C19.4732 6.13672 17.3068 4.78201 15.3152 3.61926L15.0885 3.48379C14.451 3.10302 13.7918 2.70931 13.1473 2.31926C12.6002 1.98849 12.4999 1.9696 11.9807 2.36119C11.4038 2.79541 10.8264 3.23172 10.2487 3.67006C7.77675 5.54196 5.22065 7.47743 2.62064 9.23722C2.27683 9.47578 2.11892 9.76456 2.12363 10.1441C2.11874 10.5702 2.12527 11.0053 2.13161 11.4261C2.14302 12.1883 2.15487 12.9765 2.09834 13.7289L2.09764 13.7381L2.09892 13.7473C2.13744 14.0175 2.11772 14.5087 2.0949 15.0775C2.04283 16.3776 1.98339 17.8514 2.5263 18.1103C3.89021 18.6953 6.5964 19.8828 8.77111 20.837C10.3495 21.5294 11.5958 22.0764 11.9193 22.2135C12.0611 22.2863 12.2182 22.3243 12.3776 22.3246C12.7695 22.3246 13.1379 22.0996 13.4643 21.8743C16.0771 20.2193 19.0385 18.3433 21.9405 16.8587C22.5317 16.5568 22.7414 16.1939 22.7144 15.5203ZM21.5873 15.3573C21.2124 15.2261 19.6388 14.0496 18.7698 13.3999C17.9978 12.8226 17.7287 12.6215 17.6139 12.5687L21.6771 9.69296C21.7962 10.0867 21.6938 12.4327 21.6376 13.7208C21.5919 14.7708 21.576 15.1853 21.5873 15.3578V15.3573ZM13.0328 17.2026C13.0464 17.0013 13.0444 16.7993 13.0269 16.5984C13.0004 16.1578 12.9729 15.7025 13.2586 15.4012C14.4556 14.5792 15.4654 13.8959 16.498 13.2354C16.5366 13.2165 16.5729 13.1933 16.6064 13.1661C16.638 13.1372 16.6758 13.116 16.7169 13.1039C16.7973 13.1926 17.0718 13.3895 18.0393 14.0617C19.0308 14.7508 20.6616 15.8839 20.8614 16.1743C20.6974 16.2641 20.1897 16.5747 18.4415 17.654C16.4698 18.8713 13.5434 20.6778 13.0459 20.9151C13.0009 20.5935 13.0202 19.2526 13.0323 18.425C13.0449 17.5042 13.045 17.2775 13.0328 17.203V17.2026ZM21.2947 8.6623C21.2886 8.66773 21.2812 8.67172 21.2735 8.67399L21.2517 8.68579C20.4699 9.27391 19.6503 9.83289 18.8576 10.3734C18.2639 10.7783 17.6497 11.1969 17.0522 11.6274C16.7862 11.8137 16.6111 11.8124 16.3586 11.6221C15.4756 10.9587 14.5128 10.2633 13.3286 9.43356C13.0456 9.23532 12.9336 9.01067 12.928 8.63289C12.9194 7.763 12.8881 6.89085 12.8581 6.04746C12.8273 5.17756 12.7953 4.27812 12.7878 3.38533C12.7915 3.33986 12.7911 3.29417 12.7866 3.24877C12.7789 3.18379 12.7796 3.11806 12.7887 3.05326C12.7939 3.05299 12.799 3.05372 12.8039 3.05535C13.9195 3.78749 15.0885 4.51421 16.1208 5.15585C16.2752 5.29053 16.8531 5.63878 17.582 6.07825C18.3585 6.54635 19.3249 7.12899 20.0736 7.63217C21.2718 8.43774 21.3003 8.63347 21.2951 8.66272L21.2947 8.6623ZM11.9622 20.6183C11.9649 20.7563 11.9695 20.9872 11.906 21.0478C11.8983 21.0554 11.888 21.0598 11.8771 21.06C11.0254 20.7032 10.162 20.3526 9.3268 20.0135C7.44906 19.251 5.50828 18.463 3.62505 17.5723C3.94244 17.2264 5.59175 15.77 6.7117 14.7812C7.81638 13.8059 8.08161 13.5679 8.15169 13.4919C8.25008 13.5131 8.53771 13.6813 8.68045 13.7651C8.75713 13.8145 8.83743 13.858 8.92064 13.8955C9.13578 14.0468 9.55361 14.2525 10.0358 14.4901C10.8582 14.8951 12.1009 15.5072 12.0912 15.8159C12.0592 17.3112 12.0153 18.8322 11.973 20.3034L11.9706 20.3891C11.9601 20.465 11.9573 20.5419 11.9622 20.6183ZM7.16857 12.866C7.10158 12.9167 6.86385 13.1379 5.76793 14.1699C4.81096 15.0712 3.40674 16.3938 3.07176 16.672C2.97123 16.2029 2.94637 13.7923 2.93102 12.3143C2.91489 10.755 2.90579 10.3816 2.88288 10.2718H2.884L7.16831 12.8654L7.16857 12.866ZM3.5452 9.62209L3.5475 9.62072C3.54698 9.62147 3.54635 9.62213 3.5456 9.62268L3.5452 9.62209ZM12.0843 4.56807C12.0608 4.81137 12.0563 5.05613 12.0705 5.30014C12.0562 6.23515 12.0533 6.94118 12.0515 7.45663C12.0478 8.44499 12.0462 8.85405 11.9658 8.93485C11.7673 9.13326 11.4136 9.4049 10.924 9.78087C10.2433 10.3041 9.31137 11.0194 8.19408 12.0034C8.16353 12.0225 8.13537 12.0453 8.11018 12.0711C8.08204 12.0994 8.05089 12.1245 8.01728 12.1461C7.99824 12.1355 3.60034 9.65315 3.54904 9.62046C3.65447 9.56042 4.07103 9.26336 6.21495 7.71389C8.34762 6.17251 11.5099 3.88709 12.048 3.56996C12.1331 3.87165 12.108 4.22513 12.0845 4.56807H12.0843ZM11.3571 10.6658C12.072 10.0642 12.2843 9.88126 12.3464 9.80183L15.7703 12.3768C15.5325 12.5477 15.2929 12.7199 15.0518 12.8934C14.311 13.4267 13.5449 13.9779 12.8197 14.4867C12.7615 14.5214 12.6949 14.5397 12.627 14.5394C11.8853 14.2574 11.1372 13.8545 10.4139 13.4649C9.96836 13.2247 9.50805 12.9772 9.0487 12.757C9.21039 12.4718 10.597 11.3054 11.3572 10.6658H11.3571Z" fill="black"/>
</g>
</svg>
