<svg width="24" height="24" viewBox="0 0 24 24" fill="none" xmlns="http://www.w3.org/2000/svg">
<path d="M10.8333 10C10.7733 10 10.72 10.0133 10.6667 10.0333C10.4733 10.1 10.3333 10.2867 10.3333 10.5V11.8333C10.3333 12.0467 10.4733 12.2333 10.6667 12.3C10.72 12.32 10.7733 12.3333 10.8333 12.3333C11.1067 12.3333 11.3333 12.1067 11.3333 11.8333V10.5C11.3333 10.2267 11.1067 10 10.8333 10ZM10.8333 10C10.7733 10 10.72 10.0133 10.6667 10.0333C10.4733 10.1 10.3333 10.2867 10.3333 10.5V11.8333C10.3333 12.0467 10.4733 12.2333 10.6667 12.3C10.72 12.32 10.7733 12.3333 10.8333 12.3333C11.1067 12.3333 11.3333 12.1067 11.3333 11.8333V10.5C11.3333 10.2267 11.1067 10 10.8333 10ZM10.8333 10C10.7733 10 10.72 10.0133 10.6667 10.0333C10.4733 10.1 10.3333 10.2867 10.3333 10.5V11.8333C10.3333 12.0467 10.4733 12.2333 10.6667 12.3C10.72 12.32 10.7733 12.3333 10.8333 12.3333C11.1067 12.3333 11.3333 12.1067 11.3333 11.8333V10.5C11.3333 10.2267 11.1067 10 10.8333 10ZM15.6667 10C15.48 10 15.3333 10.1467 15.3333 10.3333V10.6667H16V10.3333C16 10.1467 15.8533 10 15.6667 10ZM15.6667 10C15.48 10 15.3333 10.1467 15.3333 10.3333V10.6667H16V10.3333C16 10.1467 15.8533 10 15.6667 10ZM10.8333 10C10.7733 10 10.72 10.0133 10.6667 10.0333C10.4733 10.1 10.3333 10.2867 10.3333 10.5V11.8333C10.3333 12.0467 10.4733 12.2333 10.6667 12.3C10.72 12.32 10.7733 12.3333 10.8333 12.3333C11.1067 12.3333 11.3333 12.1067 11.3333 11.8333V10.5C11.3333 10.2267 11.1067 10 10.8333 10ZM21.3333 0H2.66667C1.19333 0 0 1.19333 0 2.66667V21.3333C0 22.8067 1.19333 24 2.66667 24H21.3333C22.8067 24 24 22.8067 24 21.3333V2.66667C24 1.19333 22.8067 0 21.3333 0ZM2.66667 10.3333C2.66667 9.78 3.11333 9.33333 3.66667 9.33333C4.22 9.33333 4.66667 9.78 4.66667 10.3333V11.3333H3.33333V12C3.33333 12.1867 3.48 12.3333 3.66667 12.3333C3.85333 12.3333 4 12.1867 4 12H4.66667C4.66667 12.5533 4.22 13 3.66667 13C3.11333 13 2.66667 12.5533 2.66667 12V10.3333ZM12 11.92C12 12.5133 11.5133 13 10.92 13H10.9133C10.8267 13 10.7467 12.9933 10.6667 12.9733C10.5467 12.9467 10.4333 12.8933 10.3333 12.8267V14.3333H9.66667V9.33333H10.3333V9.50667C10.4333 9.44 10.5467 9.38667 10.6667 9.36C10.7467 9.34 10.8267 9.33333 10.9133 9.33333H10.92C11.5133 9.33333 12 9.82 12 10.4133V11.92ZM7.95333 10.22C9.04667 13.4533 10.1733 17.7933 10 21.6667L9 21.3333C9 21.3333 8.58 18 6.76 11.6533C5.56667 13.1533 4.36 14.9533 3.33333 17H2.66667C2.66667 17 3.03333 14.98 6.50667 10.7933C6.08 9.34 5.58 7.74 5 6L6 5.33333C6 5.33333 6.79333 6.98 7.67333 9.43333C8.68 8.30667 9.88667 7.05333 11.3333 5.66667L12 6.33333C12 6.33333 10.1533 7.72 7.95333 10.22ZM14.3333 10.02C14.28 10.0067 14.2267 10 14.1667 10C13.7667 10 13.4067 10.2867 13.3333 10.6667V13H12.6667V9.33333H13.3333V9.8C13.3533 9.77333 13.3733 9.74667 13.3933 9.72667C13.6333 9.48 13.9667 9.33333 14.3333 9.33333V10.02ZM16.6667 11.3333H15.3333V12C15.3333 12.1867 15.48 12.3333 15.6667 12.3333C15.8533 12.3333 16 12.1867 16 12H16.6667C16.6667 12.5533 16.22 13 15.6667 13C15.1133 13 14.6667 12.5533 14.6667 12V10.3333C14.6667 9.78 15.1133 9.33333 15.6667 9.33333C16.22 9.33333 16.6667 9.78 16.6667 10.3333V11.3333ZM19.0667 12.34C19.0133 12.4667 18.94 12.58 18.8467 12.68C18.7467 12.78 18.6333 12.86 18.5067 12.9133C18.3733 12.9733 18.2267 13 18.0733 13C17.78 13 17.54 12.9067 17.34 12.7267C17.24 12.6333 17.16 12.52 17.1 12.3867C17.04 12.2533 17.0067 12.1 17 11.92H17.68C17.6933 12.02 17.7267 12.1067 17.78 12.1933C17.8333 12.28 17.9333 12.32 18.0667 12.32C18.1733 12.32 18.26 12.2867 18.3467 12.22C18.4267 12.1533 18.4667 12.0533 18.4667 11.9333C18.4667 11.8333 18.4467 11.7467 18.3933 11.68C18.34 11.6067 18.2467 11.5467 18.1067 11.4933L17.76 11.3667C17.54 11.28 17.36 11.16 17.2267 10.9867C17.1 10.82 17.0333 10.62 17.0333 10.38C17.0333 10.2267 17.0667 10.0867 17.12 9.96C17.1733 9.82667 17.2533 9.72 17.3533 9.62C17.4467 9.52667 17.56 9.46 17.6867 9.40667C17.8133 9.36 17.9467 9.33333 18.0933 9.33333C18.24 9.33333 18.3733 9.36 18.5 9.41333C18.6267 9.46 18.7333 9.53333 18.82 9.63333C18.9133 9.72667 18.98 9.83333 19.0333 9.96667C19.0867 10.0933 19.1133 10.2333 19.1133 10.38H18.4333C18.4267 10.2533 18.3933 10.1667 18.32 10.1C18.2467 10.04 18.16 10.0133 18.0667 10.0133C17.9533 10.0133 17.8667 10.0467 17.8067 10.12C17.7467 10.1933 17.7133 10.28 17.7133 10.3733C17.7133 10.44 17.7267 10.5 17.76 10.5667C17.7933 10.6267 17.88 10.6867 18.02 10.74L18.44 10.9067C18.7067 11.0133 18.8933 11.1533 18.9933 11.3333C19.1 11.5133 19.1467 11.7067 19.1467 11.92C19.1467 12.0667 19.12 12.2133 19.0667 12.34ZM21.5867 12.34C21.5333 12.4667 21.46 12.58 21.36 12.68C21.2667 12.78 21.1533 12.86 21.0267 12.9133C20.8933 12.9733 20.7467 13 20.5933 13C20.3 13 20.0533 12.9067 19.86 12.7267C19.76 12.6333 19.68 12.52 19.62 12.3867C19.5533 12.2533 19.52 12.1 19.52 11.92H20.2C20.2133 12.02 20.2467 12.1067 20.3 12.1933C20.3533 12.28 20.4467 12.32 20.5867 12.32C20.6867 12.32 20.78 12.2867 20.8667 12.22C20.9467 12.1533 20.9867 12.0533 20.9867 11.9333C20.9867 11.8333 20.96 11.7467 20.9133 11.68C20.86 11.6067 20.7667 11.5467 20.6267 11.4933L20.28 11.3667C20.0533 11.28 19.88 11.16 19.7467 10.9867C19.62 10.82 19.5533 10.62 19.5533 10.38C19.5533 10.2267 19.58 10.0867 19.64 9.96C19.6933 9.82667 19.7733 9.72 19.8733 9.62C19.9667 9.52667 20.08 9.46 20.2067 9.40667C20.3333 9.36 20.4667 9.33333 20.6133 9.33333C20.76 9.33333 20.8933 9.36 21.02 9.41333C21.1467 9.46 21.2533 9.53333 21.34 9.63333C21.4333 9.72667 21.5 9.83333 21.5533 9.96667C21.6067 10.0933 21.6333 10.2333 21.6333 10.38H20.9533C20.9467 10.2533 20.9067 10.1667 20.84 10.1C20.7667 10.04 20.68 10.0133 20.5867 10.0133C20.4733 10.0133 20.3867 10.0467 20.3267 10.12C20.26 10.1933 20.2333 10.28 20.2333 10.3733C20.2333 10.44 20.2467 10.5 20.28 10.5667C20.3133 10.6267 20.4 10.6867 20.5333 10.74L20.96 10.9067C21.2267 11.0133 21.4133 11.1533 21.5133 11.3333C21.6133 11.5133 21.6667 11.7067 21.6667 11.92C21.6667 12.0667 21.64 12.2133 21.5867 12.34ZM15.6667 10C15.48 10 15.3333 10.1467 15.3333 10.3333V10.6667H16V10.3333C16 10.1467 15.8533 10 15.6667 10ZM10.8333 10C10.7733 10 10.72 10.0133 10.6667 10.0333C10.4733 10.1 10.3333 10.2867 10.3333 10.5V11.8333C10.3333 12.0467 10.4733 12.2333 10.6667 12.3C10.72 12.32 10.7733 12.3333 10.8333 12.3333C11.1067 12.3333 11.3333 12.1067 11.3333 11.8333V10.5C11.3333 10.2267 11.1067 10 10.8333 10ZM10.8333 10C10.7733 10 10.72 10.0133 10.6667 10.0333C10.4733 10.1 10.3333 10.2867 10.3333 10.5V11.8333C10.3333 12.0467 10.4733 12.2333 10.6667 12.3C10.72 12.32 10.7733 12.3333 10.8333 12.3333C11.1067 12.3333 11.3333 12.1067 11.3333 11.8333V10.5C11.3333 10.2267 11.1067 10 10.8333 10ZM15.6667 10C15.48 10 15.3333 10.1467 15.3333 10.3333V10.6667H16V10.3333C16 10.1467 15.8533 10 15.6667 10ZM15.6667 10C15.48 10 15.3333 10.1467 15.3333 10.3333V10.6667H16V10.3333C16 10.1467 15.8533 10 15.6667 10ZM10.8333 10C10.7733 10 10.72 10.0133 10.6667 10.0333C10.4733 10.1 10.3333 10.2867 10.3333 10.5V11.8333C10.3333 12.0467 10.4733 12.2333 10.6667 12.3C10.72 12.32 10.7733 12.3333 10.8333 12.3333C11.1067 12.3333 11.3333 12.1067 11.3333 11.8333V10.5C11.3333 10.2267 11.1067 10 10.8333 10ZM10.8333 10C10.7733 10 10.72 10.0133 10.6667 10.0333C10.4733 10.1 10.3333 10.2867 10.3333 10.5V11.8333C10.3333 12.0467 10.4733 12.2333 10.6667 12.3C10.72 12.32 10.7733 12.3333 10.8333 12.3333C11.1067 12.3333 11.3333 12.1067 11.3333 11.8333V10.5C11.3333 10.2267 11.1067 10 10.8333 10ZM10.8333 10C10.7733 10 10.72 10.0133 10.6667 10.0333C10.4733 10.1 10.3333 10.2867 10.3333 10.5V11.8333C10.3333 12.0467 10.4733 12.2333 10.6667 12.3C10.72 12.32 10.7733 12.3333 10.8333 12.3333C11.1067 12.3333 11.3333 12.1067 11.3333 11.8333V10.5C11.3333 10.2267 11.1067 10 10.8333 10Z" fill="#212121"/>
</svg>
