<svg width="24" height="24" viewBox="0 0 24 24" fill="none" xmlns="http://www.w3.org/2000/svg">
<g clip-path="url(#clip0_2686_137)">
<path d="M12.0293 12C12.0293 9.79086 13.8202 8 16.0293 8C18.2384 8 20.0293 9.79091 20.0293 12C20.0293 14.2092 18.2384 16 16.0293 16C13.8201 16 12.0293 14.2091 12.0293 12Z" fill="#00BCFF"/>
<path d="M4.0293 20C4.0293 17.7909 5.82016 16.0001 8.02928 16.0001L10.1609 14.8746L12.0293 16.0001V20C12.0293 22.2092 10.2384 24 8.02928 24C5.82016 24 4.0293 22.2092 4.0293 20Z" fill="#00CF7F"/>
<path d="M12.0282 0L9.85156 3.78141L12.0282 7.99997H15.972C18.1812 7.99997 19.972 6.20911 19.972 3.99998C19.972 1.79086 18.1812 0 15.972 0H12.0282Z" fill="#FF7361"/>
<path d="M3.97266 3.99998C3.97266 6.20911 5.76352 7.99997 7.97264 7.99997L10.0945 8.81953L12.0287 7.99997V0H7.97259C5.76352 0 3.97266 1.79086 3.97266 3.99998Z" fill="#FF4D12"/>
<path d="M4.0293 12C4.0293 14.2091 5.82016 16 8.02928 16H12.0293V7.99994H8.02928C5.82016 7.99994 4.0293 9.79085 4.0293 12Z" fill="#B659FF"/>
</g>
<defs>
<clipPath id="clip0_2686_137">
<rect width="24" height="24" fill="white"/>
</clipPath>
</defs>
</svg>
