<svg width="24" height="24" viewBox="0 0 24 24" fill="none" xmlns="http://www.w3.org/2000/svg">
<g clip-path="url(#clip0_2709_281)">
<path d="M21 7L20 20L7 21L21 7Z" fill="#9B1010"/>
<path d="M14 14L20 20L21 7L14 14Z" fill="#B71C1C"/>
<path d="M7.8765 7.87621C6.82624 8.92651 5.89293 10.0732 5.12987 11.2508C4.3668 12.4284 3.78892 13.6138 3.42921 14.7394C3.06951 15.865 2.93503 16.9087 3.03345 17.811C3.13187 18.7132 3.46126 19.4563 4.00282 19.9979C4.54439 20.5394 5.28751 20.8688 6.18976 20.9672C7.09201 21.0655 8.13573 20.931 9.26132 20.5713C10.3869 20.2115 11.5723 19.6336 12.7499 18.8705C13.9274 18.1074 15.0741 17.1741 16.1243 16.1238C17.1746 15.0735 18.1079 13.9268 18.871 12.7492C19.634 11.5716 20.2119 10.3862 20.5716 9.26059C20.9313 8.13499 21.0658 7.09127 20.9674 6.18902C20.869 5.28677 20.5396 4.54366 19.998 4.00212C19.4564 3.46057 18.7133 3.13121 17.8111 3.03282C16.9088 2.93443 15.8651 3.06895 14.7395 3.42869C13.6139 3.78843 12.4285 4.36636 11.251 5.12946C10.0734 5.89257 8.92676 6.82592 7.8765 7.87621Z" fill="#C62828"/>
<path d="M5 8.5L8.5 5L12.5 3L15.5 5L14 9.5L9.5 13.5L5 15L3 12L5 8.5Z" fill="#E53935"/>
<path d="M15.5 5L12.5 3H18L15.5 5ZM21 7.5L15.5 5L14 9.5L21 7.5ZM9.5 13.5L16.1175 16.1175L14 9.5L9.5 13.5ZM5 15L7 21L9.5 13.5L5 15ZM3 12V17.5L5 15L3 12Z" fill="#FF5252"/>
</g>
<defs>
<clipPath id="clip0_2709_281">
<rect width="24" height="24" fill="white"/>
</clipPath>
</defs>
</svg>
