<svg width="24" height="24" viewBox="0 0 24 24" fill="none" xmlns="http://www.w3.org/2000/svg">
<path d="M11.8243 12.449C11.3253 11.6445 10.9633 10.9775 10.4618 9.7215C9.6138 7.6 15.6193 5.683 13.1843 1.9995C14.2398 4.544 9.3958 6.117 8.9458 8.236C8.5343 10.185 11.8218 12.449 11.8243 12.449Z" fill="#F44336"/>
<path d="M11.939 8.63501C11.843 9.89301 13.0535 10.5635 13.0885 11.4825C13.1165 12.2305 12.365 12.854 12.365 12.854C12.365 12.854 13.729 12.586 14.1545 11.445C14.627 10.178 13.2375 9.31051 13.3805 8.29601C13.514 7.32701 16.396 5.52451 16.396 5.52451C16.396 5.52451 12.1555 5.80551 11.939 8.63501Z" fill="#F44336"/>
<path d="M16.0423 12.5275C16.9193 12.3305 17.6588 12.889 17.6588 13.5325C17.6588 14.983 15.6483 16.354 15.6483 16.354C15.6483 16.354 18.7608 15.983 18.7608 13.6015C18.7608 12.0265 17.2323 11.633 16.0423 12.5275ZM14.5648 13.6975C14.5648 13.6975 15.5353 13.006 15.7938 12.7465C13.4123 13.252 7.9748 13.32 7.9748 12.881C7.9748 12.4765 9.7283 12.062 9.7283 12.062C9.7283 12.062 5.8418 12.006 5.8418 13.1525C5.8418 14.3475 10.9293 14.433 14.5648 13.6975Z" fill="#1565C0"/>
<path d="M13.9667 14.7855C11.7122 15.535 7.55973 15.2955 8.78973 14.289C8.19073 14.289 7.30273 14.7705 7.30273 15.2335C7.30273 16.162 11.7937 16.879 15.1177 15.5195L13.9667 14.7855Z" fill="#1565C0"/>
<path d="M9.34359 16.3695C8.52559 16.3695 7.99609 16.8965 7.99609 17.2805C7.99609 18.476 12.8761 18.5965 14.8096 17.383L13.5806 16.567C12.1361 17.202 8.50759 17.2895 9.34359 16.3695Z" fill="#1565C0"/>
<path d="M18.1405 18.316C18.1405 17.848 17.613 17.6275 17.424 17.522C18.538 20.2085 6.2655 20 6.2655 18.414C6.2655 18.0535 7.169 17.7005 8.004 17.8675L7.294 17.448C5.63 17.187 4.5 17.9185 4.5 18.5085C4.5 21.26 18.1405 21.1275 18.1405 18.316Z" fill="#1565C0"/>
<path d="M19.5003 19.302C17.4273 21.3495 12.1708 22.0955 6.88477 20.8305C12.1708 23.082 19.4753 21.814 19.5003 19.302Z" fill="#1565C0"/>
</svg>
