<svg width="24" height="24" viewBox="0 0 24 24" fill="none" xmlns="http://www.w3.org/2000/svg">
<path d="M12.0005 5.76001C5.54109 5.76001 0.480469 8.50126 0.480469 12C0.480469 15.4988 5.54109 18.24 12.0005 18.24C18.4598 18.24 23.5205 15.4988 23.5205 12C23.5205 8.50126 18.4598 5.76001 12.0005 5.76001ZM10.8042 7.68001H12.0623L11.663 9.60001H12.7861C13.4986 9.60001 13.9767 9.69938 14.2486 9.94876C14.5148 10.1944 14.5955 10.5975 14.4886 11.1469L13.9898 13.44H12.7111L13.1705 11.3194C13.2267 11.0288 13.2042 10.8263 13.1067 10.7194C13.0092 10.6125 12.7955 10.56 12.4748 10.56H11.468L10.8605 13.44H9.60047L10.8042 7.68001ZM5.28047 9.60001H7.83984C9.06047 9.60001 9.79922 10.4175 9.51047 11.6381C9.17484 13.0556 8.27484 13.44 6.62109 13.44H5.82984L5.57859 14.88H4.30734L5.28047 9.60001ZM15.3605 9.60001H17.9198C19.1405 9.60001 19.8792 10.4175 19.5905 11.6381C19.2548 13.0556 18.3548 13.44 16.7011 13.44H15.9098L15.6586 14.88H14.3873L15.3605 9.60001ZM6.36984 10.56L6.00797 12.48H6.82922C7.53984 12.48 8.19984 12.3994 8.31047 11.34C8.35172 10.9294 8.18109 10.56 7.35984 10.56H6.36984ZM16.4498 10.56L16.088 12.48H16.9092C17.6198 12.48 18.2798 12.3994 18.3905 11.34C18.4317 10.9294 18.2611 10.56 17.4398 10.56H16.4498Z" fill="black"/>
</svg>
