<svg width="24" height="24" viewBox="0 0 24 24" fill="none" xmlns="http://www.w3.org/2000/svg">
<path d="M12 2L3.5 7V17L12 22L20.5 17V7L12 2Z" fill="#ECEFF1"/>
<path d="M11.75 12.25V16.75L7.5 14.5V9.75L11.75 12.25Z" fill="#0277BD"/>
<path d="M12.25 12.25V16.75L16.5 14.5V9.75L12.25 12.25Z" fill="#0277BD"/>
<path d="M12 11.75L7.75 9.25L12 7L16.25 9.25L12 11.75Z" fill="#0277BD"/>
<path d="M11.75 3.5V6.5L7.25 9L4.75 7.5L11.75 3.5Z" fill="#81D4FA"/>
<path d="M11.75 20.5V17.5L7.25 15L4.75 16.5L11.75 20.5Z" fill="#81D4FA"/>
<path d="M7 9.5L4.5 8V16L7 14.5V9.5Z" fill="#81D4FA"/>
<path d="M12.25 3.5V6.5L16.75 9L19.25 7.5L12.25 3.5Z" fill="#81D4FA"/>
<path d="M12.25 20.5V17.5L16.75 15L19.25 16.5L12.25 20.5Z" fill="#81D4FA"/>
<path d="M17 9.5L19.5 8V16L17 14.5V9.5Z" fill="#81D4FA"/>
</svg>
