<svg width="24" height="24" viewBox="0 0 24 24" fill="none" xmlns="http://www.w3.org/2000/svg">
<path d="M21.1 11.05L12.95 2.9C12.7 2.65 12.35 2.5 12 2.5C11.65 2.5 11.3 2.65 11.05 2.9L9.3 4.65L11.35 6.7C11.55 6.6 11.75 6.55 12 6.55C12.85 6.55 13.5 7.2 13.5 8.05C13.5 8.3 13.45 8.5 13.35 8.7L15.35 10.7C15.55 10.6 15.75 10.55 16 10.55C16.85 10.55 17.5 11.2 17.5 12.05C17.5 12.9 16.85 13.55 16 13.55C15.15 13.55 14.5 12.9 14.5 12.05C14.5 11.8 14.55 11.6 14.65 11.4L12.65 9.4C12.6 9.4 12.55 9.45 12.5 9.45V14.65C13.1 14.85 13.5 15.4 13.5 16.05C13.5 16.9 12.85 17.55 12 17.55C11.15 17.55 10.5 16.9 10.5 16.05C10.5 15.4 10.9 14.85 11.5 14.65V9.4C10.9 9.2 10.5 8.65 10.5 8C10.5 7.75 10.55 7.55 10.65 7.35L8.6 5.3L2.9 11.05C2.65 11.3 2.5 11.65 2.5 12C2.5 12.35 2.65 12.7 2.9 12.95L11.05 21.1C11.3 21.35 11.65 21.5 12 21.5C12.35 21.5 12.7 21.35 12.95 21.1L21.1 12.95C21.35 12.7 21.5 12.35 21.5 12C21.5 11.65 21.35 11.3 21.1 11.05Z" fill="#F4511E"/>
</svg>
