<svg width="24" height="24" viewBox="0 0 24 24" fill="none" xmlns="http://www.w3.org/2000/svg">
<path d="M2.90156 7.67532V9.70595C2.70572 9.65555 2.47062 9.63845 2.2575 9.63845C0.88518 9.63845 0 10.4989 0 11.8247C0 13.2013 0.834277 13.9172 2.43844 13.9191C2.97412 13.9191 3.47033 13.87 4.14281 13.7428V7.67532H2.90156ZM4.91812 7.68189V9.01595H6.23156V7.68189H4.91812ZM4.91812 9.60001V12.2953C4.91812 13.4272 4.85924 13.8579 4.67156 14.2294C4.49252 14.5927 4.21171 14.8301 3.63187 15.0994L4.85062 15.6741C5.43046 15.3856 5.71094 15.125 5.92406 14.7113C6.15206 14.2812 6.22969 13.7821 6.22969 12.7444V9.60001H4.91812ZM21.8719 9.60001C20.5236 9.60001 19.6824 10.4457 19.68 11.8022C19.68 13.1088 20.4951 13.92 21.8184 13.92C23.1586 13.92 24 13.0755 24 11.7272C24 10.412 23.1933 9.60001 21.8719 9.60001ZM8.68031 9.63845C8.09951 9.63845 7.56788 9.75732 7.01156 10.0256L7.01344 11.0278C7.50496 10.7672 8.02815 10.6322 8.49375 10.6322C8.81151 10.6322 8.92687 10.7176 8.92687 10.9528V11.2378C7.38127 11.3713 6.75187 11.7921 6.75187 12.7013C6.75187 13.5417 7.22587 13.92 8.28187 13.92C8.80411 13.92 9.516 13.8601 10.08 13.7766V11.145C10.08 10.6065 10.0459 10.3541 9.94031 10.1606C9.75215 9.81504 9.32735 9.63845 8.68031 9.63845ZM12.9206 9.63845C12.2736 9.63845 11.6347 9.73026 10.8591 9.93282V13.8675H12.1706V10.7775C12.4346 10.7007 12.5958 10.6847 12.7753 10.6847C13.2433 10.6847 13.4625 10.8704 13.4625 11.3691V13.8675H14.7281V11.3175C14.7281 10.6681 14.6412 10.3636 14.3691 10.0856C14.0801 9.79092 13.5931 9.63845 12.9206 9.63845ZM18.1369 9.64595C16.2202 9.64595 15.1369 10.4804 15.1369 11.9588C15.1369 13.1492 15.8683 13.9013 17.0194 13.9013C17.3592 13.9013 17.6162 13.8498 17.8716 13.7241V13.7484C17.8716 14.5755 17.5045 14.9222 16.6444 14.9222C16.1572 14.9222 15.6975 14.8134 15.2381 14.5772H15.2372V15.7781C15.697 15.9557 16.1397 16.0313 16.6519 16.0313C17.658 16.0313 18.3664 15.718 18.7753 15.0853C19.0556 14.6538 19.1503 14.1304 19.1503 13.0153V12.6609C19.1417 12.4833 19.1421 12.306 19.1334 12.1284L19.125 11.4188L19.1081 10.8694V10.7334C19.3716 10.7584 19.0512 10.7019 19.4006 10.7691L19.8506 9.83157C19.2204 9.70437 18.6999 9.64595 18.1369 9.64595ZM21.8531 10.6359C22.36 10.6359 22.6509 11.054 22.6509 11.7581C22.6509 12.4705 22.352 12.8813 21.8447 12.8813C21.3306 12.8813 21.0281 12.4705 21.0281 11.7581C21.0281 11.0458 21.3285 10.6359 21.8531 10.6359ZM2.38594 10.6847C2.54789 10.6847 2.74714 10.702 2.90062 10.7522V12.8391C2.71294 12.864 2.52294 12.8728 2.3775 12.8728C1.70502 12.8728 1.33781 12.4906 1.33781 11.7994C1.33781 11.0895 1.72162 10.6847 2.38594 10.6847ZM17.7094 10.6931H17.8041H17.8462V10.7934L17.8547 11.2238L17.8631 11.8238C17.8631 12.0009 17.8716 12.1704 17.8716 12.3225V12.6769V12.7716C17.7026 12.822 17.5575 12.855 17.3784 12.855C16.7986 12.855 16.4737 12.4826 16.4737 11.8331C16.4738 11.3776 16.6356 11.0564 16.95 10.8788C17.1545 10.7516 17.454 10.685 17.7094 10.6931ZM8.98406 12.0853V12.9525C8.73926 12.9943 8.5666 13.0116 8.37844 13.0116C8.03428 13.0116 7.87875 12.8933 7.87875 12.6413C7.87875 12.3048 8.1503 12.1688 8.98406 12.0853Z" fill="black"/>
</svg>
