<svg width="24" height="24" viewBox="0 0 24 24" fill="none" xmlns="http://www.w3.org/2000/svg">
<path d="M12.0235 2.50001C11.246 2.50251 10.707 2.57101 10.0555 2.68351C8.13148 3.01851 7.78098 3.72201 7.78098 5.01851V7.00001H12.281V8.00001H7.60998H5.43498C4.11698 8.00001 2.96348 8.62101 2.59798 10.1095C2.18498 11.818 2.16648 12.888 2.59798 14.672C2.92548 16.0025 3.64698 17 4.96548 17H6.78148V14.448C6.78148 12.965 8.12448 11.5 9.66348 11.5H13.2815C14.543 11.5 15.7815 10.569 15.7815 9.31151V5.01851C15.7815 3.79901 14.902 2.88701 13.6725 2.68251C13.703 2.67951 12.7945 2.49701 12.0235 2.50001ZM9.53148 4.50001C9.94198 4.50001 10.2815 4.83851 10.2815 5.25101C10.2815 5.66751 9.94198 6.00001 9.53148 6.00001C9.11298 6.00001 8.78148 5.66801 8.78148 5.25101C8.78148 4.84001 9.11298 4.50001 9.53148 4.50001Z" fill="#0277BD"/>
<path d="M11.5392 21.5C12.3167 21.4975 12.8557 21.429 13.5072 21.3165C15.4312 20.9815 15.7817 20.278 15.7817 18.9815V17H11.2817V16H15.9532H18.1283C19.4463 16 20.5998 15.379 20.9653 13.8905C21.3783 12.182 21.3968 11.112 20.9653 9.328C20.6373 7.9975 19.9158 7 18.5972 7H16.7812V9.552C16.7812 11.035 15.4383 12.5 13.8993 12.5H10.2812C9.01975 12.5 7.78125 13.431 7.78125 14.6885V18.9815C7.78125 20.201 8.66075 21.113 9.89025 21.3175C9.85975 21.3205 10.7682 21.503 11.5392 21.5ZM14.0317 19.5C13.6212 19.5 13.2817 19.1615 13.2817 18.749C13.2817 18.3325 13.6212 18 14.0317 18C14.4502 18 14.7817 18.332 14.7817 18.749C14.7817 19.16 14.4497 19.5 14.0317 19.5Z" fill="#FFC107"/>
</svg>
