<svg width="24" height="24" viewBox="0 0 24 24" fill="none" xmlns="http://www.w3.org/2000/svg">
<path d="M11.5 2C8.1915 2 5.5 5.635 5.5 10.1025C5.5 12.5195 6.291 14.687 7.539 16.1705C7.515 16.277 7.5 16.3865 7.5 16.5C7.5 17.3285 8.1715 18 9 18C9.8285 18 10.5 17.3285 10.5 16.5C10.5 15.6715 9.8285 15 9 15C8.8425 15 8.694 15.031 8.5515 15.076C7.603 13.8655 7 12.0875 7 10.1025C7 6.462 9.0185 3.5 11.5 3.5C13.4185 3.5 15.0555 5.2735 15.702 7.759C16.263 7.932 16.8205 8.15 17.367 8.413C16.7895 4.754 14.3795 2 11.5 2Z" fill="#7E57C2"/>
<path d="M17.7535 10.042C15.78 8.846 13.5665 8.321 11.6625 8.5625C11.3875 8.222 10.9715 8 10.5 8C9.6715 8 9 8.6715 9 9.5C9 10.3285 9.6715 11 10.5 11C11.136 11 11.6765 10.6025 11.8945 10.044C13.4535 9.8545 15.3005 10.3095 16.976 11.3255C20.1775 13.266 21.811 16.61 20.617 18.781C20.2035 19.533 19.474 20.067 18.508 20.326C17.365 20.6315 16.0045 20.523 14.6445 20.062C14.225 20.448 13.77 20.811 13.282 21.146C14.558 21.7045 15.88 21.998 17.1165 21.998C17.7365 21.998 18.3355 21.9245 18.896 21.7745C20.2665 21.408 21.3165 20.6225 21.9315 19.5035C23.508 16.638 21.6335 12.3935 17.7535 10.042Z" fill="#7E57C2"/>
<path d="M17.4994 14.496C17.4994 13.67 16.8279 13 15.9994 13C15.1709 13 14.4994 13.67 14.4994 14.496C14.4994 14.8305 14.6134 15.1365 14.7994 15.3855C14.1599 16.7865 12.9274 18.169 11.2684 19.1745C9.33588 20.3465 7.17588 20.7755 5.49088 20.3255C4.52488 20.0665 3.79538 19.5325 3.38188 18.7805C2.53088 17.2335 3.12138 15.0925 4.68688 13.2865C4.52538 12.7145 4.40588 12.1165 4.33388 11.499C1.79888 13.8975 0.779379 17.1605 2.06788 19.5035C2.68288 20.6225 3.73288 21.408 5.10338 21.7745C5.66388 21.9245 6.26238 21.998 6.88288 21.998C8.55588 21.998 10.3864 21.464 12.0459 20.458C13.9639 19.2955 15.3874 17.6695 16.1504 15.977C16.9069 15.9005 17.4994 15.2705 17.4994 14.496Z" fill="#7E57C2"/>
</svg>
