<svg width="24" height="24" viewBox="0 0 24 24" fill="none" xmlns="http://www.w3.org/2000/svg">
<path d="M1.93765 4.61382H3.98042C4.22538 4.61382 4.41779 4.42172 4.41779 4.17717V3.5963H8.1229C5.53345 4.8235 3.60881 7.2473 3.07948 10.1429C2.30087 10.2783 1.70584 10.9596 1.70584 11.7762C1.70584 12.6934 2.4539 13.4356 3.36801 13.4356C4.2867 13.4356 5.03015 12.6932 5.03015 11.7762C5.03015 11.0643 4.58401 10.4616 3.95404 10.2259C4.58399 6.95925 7.17785 4.37364 10.4457 3.74477C10.682 4.37369 11.2901 4.81915 11.9987 4.81915C12.7118 4.81915 13.3198 4.37371 13.556 3.74477C16.8235 4.36934 19.4177 6.9633 20.0476 10.2259C19.4177 10.4617 18.9671 11.0645 18.9671 11.7762C18.9671 12.6934 19.7151 13.4356 20.6336 13.4356C21.5479 13.4356 22.2958 12.6932 22.2958 11.7762C22.2958 10.9596 21.701 10.2783 20.9222 10.1429C20.3929 7.2475 18.4683 4.82364 15.8741 3.5963H19.5792V4.17717C19.5792 4.42173 19.776 4.61382 20.0166 4.61382H22.0597C22.3047 4.61382 22.497 4.42172 22.497 4.17717V2.13772C22.497 1.89755 22.3047 1.70106 22.0597 1.70106H20.017C19.7764 1.70106 19.5795 1.89755 19.5795 2.13772V2.72298L13.6039 2.7228C13.4159 2.01985 12.764 1.5 11.9986 1.5C11.2331 1.5 10.5855 2.01962 10.3975 2.7228H4.4177V2.13772C4.4177 1.89755 4.22528 1.70106 3.98033 1.70106L1.93737 1.70088C1.6968 1.70088 1.5 1.89737 1.5 2.13754V4.17698C1.5 4.42173 1.69708 4.61382 1.93765 4.61382Z" fill="#282689"/>
<path d="M7.4172 13.0957L9.619 16.947H14.3882L16.5901 13.0957C16.6688 12.9559 16.6644 12.7813 16.5769 12.6415L12.4408 6.2002V10.4066C13.0012 10.5916 13.4097 11.1134 13.4097 11.7345C13.4097 12.5086 12.7788 13.1384 12.0035 13.1384C11.2281 13.1384 10.5973 12.5086 10.5973 11.7345C10.5973 11.1135 11.0057 10.5916 11.5661 10.4066V6.2007L7.43045 12.6411C7.3429 12.7809 7.3385 12.9558 7.4172 13.0957Z" fill="#282689"/>
<path d="M9.61523 22.0608C9.61523 22.301 9.81203 22.4975 10.0526 22.4975H13.9501C14.1907 22.4975 14.3875 22.301 14.3875 22.0608V17.8203H9.61543L9.61523 22.0608Z" fill="#E7ECF8"/>
</svg>
