<svg width="24" height="24" viewBox="0 0 24 24" fill="none" xmlns="http://www.w3.org/2000/svg">
<path d="M20.0149 2H3L4.59511 19.3327L11.5066 21.297L18.4181 19.3327L20.0149 2Z" fill="#E6A329"/>
<path d="M11.5059 3.41217V19.8282L17.1057 18.2385L18.468 3.41217H11.5059Z" fill="#F1BF22"/>
<path d="M15.9618 5.53851H7.35166L6.75195 12.0274L6.7643 11.987H14.0791L13.8408 14.7326L11.507 15.4053L9.13866 14.7217L8.9968 13.06H6.84703L7.15371 16.3804L11.507 17.6187L15.8622 16.3804L16.4619 9.86285H8.69879L8.79841 7.69135H14.1845L14.2651 8.93552H16.4331L15.9618 5.53851Z" fill="white"/>
<path d="M11.5087 5.53851H7.35166L6.75195 12.0274L6.7643 11.987H11.5085V9.87023H9.00157L9.10119 7.69873H11.5087V5.53851ZM9.00157 13.0611H6.84681L7.15349 16.3797L11.5067 17.6167V15.4084L9.13844 14.723L9.00157 13.0611Z" fill="#EBEBEB"/>
</svg>
