<svg width="24" height="24" viewBox="0 0 24 24" fill="none" xmlns="http://www.w3.org/2000/svg">
<path d="M14.3354 1.44373C14.2848 1.45123 14.2342 1.46623 14.1854 1.48873C13.7729 1.69311 13.3042 2.30061 13.2142 2.42061C13.2085 2.42811 13.2029 2.43561 13.1992 2.44311C12.736 3.13686 12.4885 3.94873 12.4792 4.79436C12.4735 5.42811 12.5973 6.05623 12.8485 6.66186C13.4335 8.06623 14.6485 9.22873 16.0942 9.77248C16.1429 9.78936 16.1898 9.80623 16.2742 9.83623C16.2817 9.83998 16.3529 9.86248 16.3642 9.86436L16.4167 9.88311C16.4917 9.90748 16.5685 9.93186 16.6435 9.94686C17.0242 10.0237 17.3954 10.0669 17.7442 10.0781C17.8042 10.0781 17.8642 10.08 17.9242 10.08C20.5548 10.08 21.5748 8.22373 21.9142 7.60498C21.9479 7.54498 21.9723 7.49623 21.9948 7.46623C21.9948 7.46436 21.9948 7.46436 21.9967 7.46248C22.1448 7.24311 22.0885 6.94498 21.8692 6.79498C21.6517 6.64686 21.3535 6.70311 21.2035 6.92248H21.2017C20.5004 7.95561 19.3004 8.26873 17.6373 7.85623C17.5135 7.82623 17.3785 7.77936 17.2585 7.73436C17.101 7.67811 16.9435 7.61248 16.7973 7.54123C16.5067 7.39686 16.2329 7.22436 15.9854 7.03311C14.5229 5.89873 13.951 3.53811 14.806 2.17498C14.9204 1.99311 14.8998 1.75686 14.7554 1.59748C14.6467 1.47748 14.4892 1.42311 14.3354 1.44373ZM10.0829 2.39998C9.97417 2.39811 9.86354 2.43373 9.77354 2.50873C9.04792 3.09936 8.30542 4.06686 8.27354 4.10623C8.26979 4.11373 8.26604 4.11936 8.26042 4.12686C6.94792 6.03748 6.84854 8.75623 8.00917 11.0531C8.19104 11.4169 8.39729 11.7637 8.61667 12.0825L8.68229 12.1762C8.86792 12.4481 9.07604 12.7556 9.34229 12.9956C9.43417 13.1006 9.53354 13.2019 9.63104 13.2994L9.67792 13.3481L9.71729 13.3875C9.81667 13.4831 9.91792 13.5806 10.0229 13.6744H10.0248C10.0323 13.6856 10.0435 13.6931 10.0529 13.7025C10.171 13.8075 10.291 13.9069 10.4504 14.0325L10.4935 14.0644C10.6173 14.1637 10.7429 14.2575 10.8723 14.3494C10.8854 14.3587 10.8985 14.3681 10.9117 14.3775C10.9567 14.4075 11.0017 14.4356 11.0467 14.4675L11.0917 14.4975L11.1442 14.5312C11.2398 14.595 11.3335 14.6531 11.4667 14.73C11.5529 14.7825 11.6448 14.835 11.7048 14.865C11.731 14.88 11.7592 14.895 11.8248 14.9306L11.971 15.0075C11.9785 15.0112 12.0123 15.0262 12.0198 15.03C12.1154 15.0787 12.2148 15.1256 12.3142 15.1706L12.466 15.2381C12.5654 15.2812 12.6667 15.3225 12.7904 15.3694L12.8467 15.39C12.8504 15.3937 12.8973 15.4106 12.901 15.4125C12.991 15.4444 13.0829 15.4762 13.1748 15.5062L13.3848 15.5756C13.4898 15.6112 13.6117 15.6525 13.7448 15.675C14.3992 15.7837 15.0348 15.84 15.6367 15.84C15.7079 15.84 15.7792 15.8381 15.8485 15.8381C21.1473 15.7219 22.5254 11.22 22.5385 11.175C22.6042 10.9481 22.4973 10.7062 22.2835 10.605C22.0698 10.5037 21.8148 10.575 21.6817 10.77C20.3392 12.7312 17.8004 13.56 15.2148 12.8775C15.0948 12.8475 14.9785 12.8137 14.8342 12.7669C14.8098 12.7594 14.7892 12.7519 14.7498 12.7369C14.6654 12.7106 14.5829 12.6825 14.4892 12.6469L14.356 12.5962C14.2792 12.5662 14.2023 12.5362 14.1085 12.495L14.0467 12.4669C13.9323 12.4181 13.8217 12.3637 13.7223 12.315L13.4485 12.1725C13.3867 12.1425 13.3323 12.1087 13.2479 12.0581L13.201 12.0319L13.1542 12.0037C13.0848 11.9625 13.0154 11.9194 12.9517 11.8744L12.9067 11.8462C12.9029 11.8444 12.8654 11.8181 12.8617 11.8144C12.8054 11.7787 12.751 11.7431 12.6985 11.7094C12.5823 11.6269 12.4679 11.5406 12.3348 11.4356L12.2823 11.3925C11.0448 10.4044 10.1298 9.08436 9.70042 7.66873C9.30104 6.36936 9.59729 4.66873 10.4935 3.11998C10.6098 2.91936 10.5667 2.66436 10.3885 2.51436C10.3004 2.43936 10.1917 2.39998 10.0829 2.39998ZM4.80104 3.83998C4.68667 3.83998 4.57042 3.88123 4.47854 3.96373C3.56167 4.78686 2.87542 5.85373 2.80042 5.97561C0.839168 8.83123 1.21792 13.2694 2.56417 15.9825C2.59042 16.0387 2.61854 16.0931 2.64667 16.1475L2.66542 16.1775C2.68979 16.2319 2.71792 16.2881 2.72729 16.2994C2.74229 16.335 2.76479 16.3744 2.77417 16.3856C2.79667 16.4325 2.81917 16.4737 2.86042 16.545L3.01417 16.8094C3.03667 16.845 3.05917 16.8825 3.06667 16.8956C3.09667 16.9444 3.12854 16.995 3.16042 17.0456L3.23542 17.1656C3.25792 17.2012 3.28042 17.2331 3.29542 17.2519C3.37042 17.3681 3.44542 17.4844 3.52792 17.595C3.53167 17.6006 3.53542 17.6044 3.53917 17.6081L3.56917 17.6494C3.63667 17.7469 3.70604 17.8406 3.76792 17.9175L4.04167 18.2644C4.04542 18.2681 4.07542 18.3037 4.07729 18.3075L4.11667 18.3525C4.19917 18.4537 4.28729 18.555 4.37542 18.6525C4.38854 18.6675 4.40167 18.6806 4.41479 18.6956C4.49917 18.7875 4.58542 18.8794 4.67542 18.975L4.76167 19.0575C4.83292 19.1325 4.90417 19.2056 4.97917 19.275C4.97917 19.2769 5.01479 19.3106 5.01479 19.3106L5.08979 19.38C5.17979 19.4662 5.27354 19.5525 5.34479 19.6125C5.34854 19.6181 5.41604 19.6762 5.42167 19.68C5.50979 19.7587 5.59792 19.8337 5.68792 19.9069L6.14729 20.2706C6.22417 20.3269 6.30292 20.3831 6.39292 20.4487C6.42292 20.4712 6.45479 20.4937 6.48667 20.5144C6.49979 20.5256 6.51479 20.5369 6.52417 20.5425L6.86917 20.7731C6.99479 20.8556 7.12042 20.9325 7.27417 21.0244L7.35667 21.0712C7.45229 21.1275 7.54979 21.1837 7.64167 21.2325C7.69604 21.2625 7.75042 21.2887 7.79729 21.3131C7.86292 21.3487 7.93417 21.3881 8.04292 21.4406C8.05229 21.4462 8.12917 21.4837 8.13854 21.4875C8.24729 21.5419 8.35792 21.5925 8.49667 21.6544C8.49667 21.6562 8.54167 21.6769 8.54167 21.6769C8.66917 21.7312 8.79292 21.7837 8.95604 21.8494C8.98229 21.8606 9.00854 21.87 9.01417 21.8719C9.13042 21.9169 9.25229 21.9619 9.35167 21.9975C9.36104 22.0012 9.41167 22.0219 9.42104 22.0256C9.55417 22.0706 9.68542 22.1137 9.85417 22.1662C9.88229 22.1756 9.91229 22.185 9.91604 22.185L10.0117 22.215C10.1279 22.2506 10.2442 22.2881 10.3698 22.3125C11.2623 22.4756 12.1342 22.56 12.9592 22.56H12.961C19.8367 22.56 22.0267 17.0269 22.0492 16.9706C22.1335 16.7475 22.0417 16.4962 21.8317 16.38C21.6254 16.2656 21.3629 16.32 21.2167 16.5094C19.4523 18.8325 16.1242 19.695 12.3142 18.8194C12.2223 18.7969 12.1285 18.7706 12.0367 18.7425L11.8567 18.6881C11.7348 18.6506 11.6129 18.6094 11.4948 18.5681C11.4929 18.5681 11.4385 18.5475 11.4385 18.5475C11.3335 18.5119 11.2285 18.4706 11.1367 18.435L11.0317 18.3937C10.9154 18.3469 10.7992 18.2981 10.6867 18.2475L10.621 18.2194C10.5198 18.1725 10.4223 18.1275 10.3248 18.0787C10.3173 18.075 10.2404 18.0375 10.2329 18.0356C10.1654 18.0019 10.0979 17.9662 10.0117 17.9194L9.61979 17.7094C9.58042 17.6831 9.53917 17.6587 9.49979 17.6381C9.38167 17.565 9.25979 17.4919 9.13979 17.415C9.11167 17.3981 9.08729 17.3794 9.04042 17.3475C8.95792 17.295 8.87729 17.2406 8.75917 17.1581L8.71229 17.1244C8.63167 17.0681 8.55292 17.0081 8.48729 16.9594C8.44604 16.9294 8.40479 16.8956 8.33729 16.845C8.27729 16.7981 8.21729 16.7531 8.16104 16.7081L8.05604 16.6219C7.96792 16.5506 7.88542 16.4756 7.79917 16.4025C7.78792 16.3912 7.77854 16.3837 7.76542 16.3744C7.66979 16.2862 7.57229 16.1981 7.45604 16.0875L7.11667 15.75C7.03417 15.6656 6.95167 15.5794 6.85792 15.4762C6.77167 15.3806 6.68917 15.285 6.57854 15.1537L6.37604 14.9062C6.35167 14.8706 6.32542 14.835 6.29354 14.7975C6.22417 14.7037 6.15479 14.6119 6.08542 14.5144C4.21792 11.9419 3.73042 6.57186 5.18542 4.60498C5.33167 4.40811 5.30542 4.13061 5.12167 3.96373C5.03167 3.88123 4.91542 3.83998 4.80104 3.83998Z" fill="black"/>
</svg>
