<svg width="24" height="24" viewBox="0 0 24 24" fill="none" xmlns="http://www.w3.org/2000/svg">
<g clip-path="url(#clip0_2709_298)">
<path fill-rule="evenodd" clip-rule="evenodd" d="M3.17513 0.322311C2.96381 0.338811 2.75625 0.336186 2.55169 0.392249C2.10413 0.515061 1.70644 0.711374 1.35563 1.014C1.14938 1.19175 0.969375 1.38337 0.816563 1.60912C0.580688 1.95769 0.42 2.33231 0.339375 2.754C0.371625 2.81044 0.405563 2.86969 0.441563 2.92987C0.670125 3.312 0.898875 3.6915 1.128 4.07325L1.73025 5.07469C1.9155 5.38331 2.10038 5.69212 2.28525 6.00075L3.14925 7.44225C3.34556 7.77 3.54206 8.09794 3.73856 8.4255C4.02488 8.90269 4.31194 9.3795 4.59788 9.85687L5.64956 11.6139C5.95275 12.12 6.2565 12.6257 6.56025 13.1314L6.60075 13.1902C6.64481 13.2043 6.67988 13.1923 6.71625 13.1837C7.11638 13.0877 7.5165 12.9922 7.91663 12.8966C8.56556 12.7416 9.2145 12.5871 9.86344 12.4318L10.8799 12.1886C11.5359 12.0319 12.1922 11.8755 12.8483 11.7184C13.5114 11.5597 14.1744 11.4004 14.8378 11.2416C15.1731 11.1611 15.5083 11.0811 15.8438 11.001C16.4927 10.8461 17.1416 10.6916 17.7906 10.5371L19.9108 10.0322L20.0254 10.0012L19.9941 9.93919L19.4154 9.12131L18.8439 8.31225L18.2327 7.449L17.6484 6.62156L17.0694 5.80387L16.4717 4.95881C16.2765 4.68319 16.0809 4.40794 15.8856 4.1325L15.5768 3.69637C15.5295 3.62944 15.4918 3.55725 15.4667 3.47906C15.4056 3.2895 15.4753 3.16331 15.5859 3.07012C15.6576 3.00956 15.7401 2.96512 15.8293 2.93887C15.9536 2.90231 16.0791 2.86725 16.2062 2.84325C16.461 2.79506 16.7175 2.75419 16.9733 2.71162L17.8403 2.57025C18.0231 2.54006 18.2057 2.50837 18.3885 2.47744C18.6369 2.43544 18.8854 2.39325 19.134 2.35181C19.3753 2.31131 19.6166 2.27119 19.8579 2.23144L20.6479 2.10225L21.1961 2.01019C21.4046 1.97531 21.6129 1.94062 21.8213 1.9065C22.0811 1.86412 22.3408 1.82137 22.6007 1.78069C22.7556 1.7565 22.9104 1.74806 23.0642 1.79231C23.1795 1.8255 23.2845 1.8795 23.3822 1.9485L23.5174 2.04281C23.5309 2.01169 23.5114 1.99481 23.5024 1.977C23.3074 1.58231 23.0415 1.24294 22.7036 0.960374C22.3896 0.697499 22.0369 0.504186 21.6469 0.380999C21.4164 0.308061 21.1796 0.341999 20.9385 0.323811M10.4417 23.8125C10.4301 23.8125 10.4198 23.7281 10.4066 23.7058C10.1254 23.2258 9.84113 22.7106 9.56325 22.2289C9.21319 21.6217 8.86631 21.0127 8.52131 20.4026C8.15288 19.7505 7.78763 19.0965 7.422 18.4429C7.07438 17.8215 6.72788 17.1996 6.38156 16.5776C6.1725 16.2017 5.96475 15.825 5.75588 15.4489L5.70038 15.3628L5.59875 15.3829C5.39775 15.4348 5.19713 15.4871 4.9965 15.54C4.71713 15.6135 4.43794 15.6883 4.15838 15.7612C3.53081 15.9246 2.90325 16.0869 2.27569 16.2497C1.63744 16.4154 0.972375 16.5816 0.333938 16.7466C0.295125 16.7565 0.375 16.7599 0.1875 16.7664V20.7311C0.26475 20.8541 0.257438 20.7962 0.262313 20.8367C0.277125 20.9541 0.301125 21.0724 0.32175 21.1886C0.399 21.6217 0.572813 22.0183 0.824063 22.3794C1.1925 22.9093 1.68319 23.2881 2.28431 23.5198C2.499 23.6023 2.72306 23.6604 2.95219 23.6886L3.18488 23.7501" fill="#FD4F31"/>
<path fill-rule="evenodd" clip-rule="evenodd" d="M0.933 14.5766C1.67156 14.4009 2.41031 14.2254 3.14888 14.0501C3.47325 13.9732 3.79781 13.8973 4.12219 13.8201C4.28438 13.7814 4.44694 13.7447 4.60781 13.7012C4.75106 13.6626 4.76869 13.6151 4.695 13.4859C4.5885 13.2992 4.48013 13.1136 4.37231 12.9274L3.42281 11.2924L2.47369 9.65718C2.15175 9.10255 1.82944 8.54793 1.50731 7.99349C1.2315 7.51912 0.955688 7.04474 0.680063 6.57037C0.560813 6.36524 0.416063 6.15955 0.29625 5.95462C0.273938 5.9173 0.375 5.87268 0.1875 5.85281V14.7396C0.1875 14.7336 0.272437 14.7285 0.301125 14.7216L0.933 14.5766ZM23.667 20.9287C23.3775 21.0317 23.0878 21.1354 22.7985 21.2391C22.1394 21.4753 21.4804 21.7116 20.8213 21.948C20.4551 22.0794 20.0897 22.2124 19.7233 22.3432C18.9767 22.6097 18.2297 22.8752 17.4829 23.1411C17.0501 23.2952 16.6172 23.4857 16.1846 23.6406C16.0661 23.6831 15.9493 23.8125 15.8319 23.8125H20.7988L20.9057 23.7512C21.0321 23.7457 21.1564 23.7082 21.2805 23.6856C21.7903 23.5924 22.2469 23.3719 22.6513 23.0496C22.962 22.8019 23.2148 22.4991 23.4128 22.1537C23.6164 21.7982 23.7373 21.4136 23.7954 21.0097C23.8005 20.9749 23.8114 20.9353 23.7821 20.8993C23.7409 20.8961 23.7045 20.9154 23.667 20.9287ZM23.2404 14.2592C23.0214 13.9596 22.8019 13.6605 22.5833 13.3607C22.2816 12.9469 21.9804 12.5327 21.6791 12.1187C21.5567 11.9507 21.4326 11.784 21.3131 11.6141C21.2771 11.5629 21.2361 11.5492 21.18 11.5644L21.1479 11.5736C20.5933 11.7084 20.0385 11.8429 19.4837 11.9773L18.4896 12.2186C17.8414 12.3759 17.193 12.5334 16.5448 12.6909C15.9038 12.8467 15.2627 13.0027 14.6214 13.1582L12.6223 13.6423C11.9666 13.8015 11.3113 13.9612 10.6558 14.1206L8.75419 14.5822C8.41913 14.6636 8.08406 14.7446 7.74938 14.8264C7.70006 14.8384 7.647 14.8414 7.5945 14.8811L7.63931 14.9664C7.92 15.4513 8.20069 15.936 8.48213 16.4205C8.80069 16.9691 9.11944 17.5176 9.43894 18.0656C9.79031 18.6681 10.1426 19.2701 10.4946 19.8724C10.6969 20.2183 10.8979 20.5646 11.1019 20.9096C11.3286 21.2929 11.556 21.6754 11.7868 22.0562C11.856 22.17 11.9346 22.2787 12.0137 22.386C12.0668 22.4576 12.1324 22.5187 12.2098 22.5654C12.2897 22.6136 12.3758 22.6288 12.4665 22.6084C12.5134 22.5977 12.5593 22.5823 12.6047 22.5666L12.7716 22.5047C13.3785 22.2971 13.9853 22.0896 14.5924 21.8827C15.066 21.7215 15.5402 21.561 16.0142 21.4007C16.4846 21.2411 16.9554 21.0823 17.4261 20.9235L18.8274 20.4502C19.3052 20.2888 19.7828 20.1274 20.2603 19.9656C20.8464 19.7666 21.4324 19.5669 22.0189 19.3684C22.5842 19.1771 23.1501 18.987 23.7156 18.7961C23.7503 18.7845 23.7885 18.7796 23.8172 18.7416L23.8208 18.6592C23.8209 17.4864 23.8206 16.3134 23.8219 15.1406C23.8219 15.078 23.8052 15.0274 23.7677 14.9769C23.5899 14.739 23.4158 14.4986 23.2404 14.2592ZM23.1431 3.20831C23.0115 3.04162 22.8439 2.98874 22.6384 3.04237C22.5489 3.06581 22.4571 3.08062 22.3659 3.09731C22.0671 3.15206 21.7678 3.20587 21.4689 3.26006C21.0313 3.33956 20.5939 3.41981 20.1563 3.49856C19.8098 3.56081 19.4631 3.62212 19.1164 3.68287L17.7255 3.92624C17.6672 3.93637 17.6083 3.94649 17.5521 3.96449C17.4701 3.99074 17.4465 4.04212 17.484 4.11918C17.5146 4.18218 17.5526 4.24237 17.5939 4.29899C17.8815 4.69537 18.1704 5.09081 18.4594 5.48643C18.8576 6.03187 19.2561 6.57712 19.6545 7.12218C19.9916 7.58343 20.3291 8.04468 20.6664 8.50574C20.9316 8.86799 21.1967 9.23024 21.4622 9.5923L21.5145 9.65568L23.8153 9.08699L23.8208 8.96774C23.8209 7.37193 23.8206 5.77612 23.8219 4.18012C23.8219 4.10962 23.8048 4.05299 23.7604 3.99712C23.5669 3.75281 23.3769 3.50568 23.1855 3.25968L23.1431 3.20831ZM23.7621 10.941C23.4141 11.0246 23.0648 11.1041 22.7083 11.1984C22.746 11.2654 23.7236 12.585 23.7804 12.6476L23.8161 12.6673L23.82 12.5869L23.8202 12.0313C23.8204 11.709 23.8211 11.3867 23.8204 11.0644C23.8204 11.0252 23.8314 10.983 23.8044 10.9432L23.7621 10.941Z" fill="#FD4F31"/>
</g>
<defs>
<clipPath id="clip0_2709_298">
<rect width="24" height="24" fill="white"/>
</clipPath>
</defs>
</svg>
