<svg width="24" height="24" viewBox="0 0 24 24" fill="none" xmlns="http://www.w3.org/2000/svg">
<g clip-path="url(#clip0_2705_164)">
<path d="M9.413 21.027C8.798 21.383 8.681 21.427 8.102 21.631C7.962 21.679 7.75 21.764 8.183 22.012L11.082 23.75C11.358 23.913 11.679 23.998 11.993 23.998L11.995 24C12.315 24 12.629 23.914 12.907 23.752L21.589 18.676C22.152 18.342 22.5 17.728 22.5 17.07V6.92197C22.5 6.25997 22.153 5.64597 21.589 5.31797L12.907 0.235971C12.361 -0.0770293 11.633 -0.0770293 11.083 0.235971L2.411 5.31297C1.848 5.64197 1.5 6.25997 1.5 6.91697V17.066C1.5 17.728 1.847 18.342 2.411 18.67L4.686 19.999C5.787 20.551 6.181 20.551 6.683 20.551C8.314 20.551 9.254 19.551 9.254 17.808V7.78497C9.254 7.64197 9.137 7.53297 9 7.53297H7.901C7.759 7.53297 7.647 7.64197 7.647 7.78497V17.803C7.647 18.579 6.857 19.346 5.565 18.694L3.186 17.304C3.103 17.262 3.05 17.166 3.05 17.07V6.92197C3.05 6.82397 3.103 6.72797 3.186 6.67997L11.858 1.60297H12.125L20.802 6.67497C20.886 6.72697 20.938 6.81697 20.938 6.91697V17.07C20.938 17.165 20.887 17.26 20.807 17.307L12.125 22.384H11.858L9.63 21.047L9.413 21.027Z" fill="#8CC03E"/>
<path d="M9.413 21.027C8.798 21.383 8.681 21.427 8.102 21.631C7.962 21.679 7.75 21.764 8.183 22.012L11.082 23.75C11.358 23.913 11.679 23.998 11.993 23.998L11.995 24C11.997 24 11.998 24 12 24V22.385H11.858L9.63 21.047L9.413 21.027ZM11.997 0C11.678 0 11.358 0.078 11.083 0.235L2.411 5.313C1.848 5.642 1.5 6.26 1.5 6.917V17.066C1.5 17.728 1.847 18.342 2.411 18.67L4.686 19.999C5.787 20.551 6.181 20.551 6.683 20.551C8.314 20.551 9.254 19.551 9.254 17.808V7.785C9.254 7.642 9.137 7.533 9 7.533H7.901C7.759 7.533 7.647 7.642 7.647 7.785V17.803C7.647 18.374 7.22 18.94 6.48 18.94C6.214 18.94 5.907 18.867 5.565 18.694L3.186 17.304C3.103 17.262 3.05 17.166 3.05 17.07V6.922C3.05 6.824 3.103 6.728 3.186 6.68L11.858 1.603H12V0H11.997Z" fill="#7AA736"/>
<path d="M14.673 15.47C12.374 15.47 11.871 14.883 11.703 13.726C11.684 13.602 11.58 13.512 11.454 13.512H10.331C10.189 13.512 10.082 13.625 10.082 13.764C10.082 15.246 10.877 17.012 14.679 17.012C17.423 17.006 19.004 15.907 19.004 13.992L19.001 13.993C19.001 12.093 17.732 11.589 15.066 11.23C12.368 10.869 12.096 10.683 12.096 10.044C12.096 9.516 12.327 8.81101 14.325 8.81101C16.106 8.81101 16.765 9.20201 17.037 10.42C17.06 10.535 17.165 10.62 17.282 10.62H18.41L18.594 10.539L18.659 10.344C18.486 8.24401 17.108 7.26801 14.326 7.26801C11.85 7.26801 10.373 8.32601 10.373 10.102C10.373 12.026 11.844 12.559 14.218 12.796C17.062 13.078 17.282 13.502 17.282 14.069C17.282 15.051 16.502 15.47 14.673 15.47Z" fill="#8CC03E"/>
<path d="M11.454 13.512H10.331C10.189 13.512 10.082 13.625 10.082 13.764C10.082 15.228 10.858 16.97 14.543 17.011V15.469C12.355 15.447 11.868 14.86 11.703 13.725C11.684 13.601 11.58 13.512 11.454 13.512ZM14.326 7.26898C11.85 7.26898 10.373 8.32698 10.373 10.103C10.373 12.027 11.844 12.56 14.218 12.797C14.33 12.808 14.439 12.819 14.543 12.831V11.158C12.332 10.841 12.097 10.639 12.097 10.045C12.097 9.51698 12.328 8.81198 14.326 8.81198C14.401 8.81198 14.473 8.81298 14.544 8.81398V7.27098C14.472 7.26898 14.399 7.26898 14.326 7.26898Z" fill="#7AA736"/>
</g>
<defs>
<clipPath id="clip0_2705_164">
<rect width="24" height="24" fill="white"/>
</clipPath>
</defs>
</svg>
