<svg width="24" height="24" viewBox="0 0 24 24" fill="none" xmlns="http://www.w3.org/2000/svg">
<path d="M22.3291 7.851L21.6131 7.453C22.7141 5.884 23.3711 3.526 22.5471 0C22.5471 0 20.6901 5.029 16.9571 4.863L12.5871 2.432C12.4231 2.33965 12.2392 2.28819 12.0511 2.282H11.9501C11.7613 2.28834 11.5769 2.33978 11.4121 2.432L7.04108 4.863C3.30808 5.03 1.45108 0 1.45108 0C0.626078 3.526 1.28508 5.884 2.38508 7.453L1.66908 7.851C1.49165 7.94811 1.34345 8.09096 1.23988 8.2647C1.1363 8.43844 1.08113 8.63673 1.08008 8.839L1.10208 23.43C1.10208 23.633 1.21108 23.822 1.39608 23.921C1.48472 23.9727 1.58548 23.9999 1.68808 23.9999C1.79067 23.9999 1.89143 23.9727 1.98008 23.921L7.77008 20.717C8.13608 20.506 8.35908 20.135 8.35908 19.73V12.913C8.35908 12.507 8.58208 12.13 8.94708 11.929L11.4121 10.557C11.592 10.4553 11.7954 10.4022 12.0021 10.403C12.2021 10.403 12.4091 10.453 12.5871 10.557L15.0521 11.929C15.4171 12.13 15.6401 12.507 15.6401 12.913V19.73C15.6401 20.135 15.8661 20.509 16.2301 20.717L22.0181 23.921C22.1076 23.9726 22.2092 23.9998 22.3126 23.9998C22.4159 23.9998 22.5175 23.9726 22.6071 23.921C22.6951 23.8726 22.7685 23.8015 22.8198 23.7152C22.8712 23.6289 22.8985 23.5304 22.8991 23.43L22.9181 8.839C22.9175 8.63665 22.8625 8.43818 22.7588 8.26437C22.6552 8.09055 22.5068 7.94779 22.3291 7.851Z" fill="#FF8000"/>
</svg>
