<svg width="24" height="24" viewBox="0 0 24 24" fill="none" xmlns="http://www.w3.org/2000/svg">
<path d="M5.75448 9.42553L5.98653 9.80515C5.98653 9.80515 6.0722 9.94708 5.95742 10.0317C5.84264 10.1164 5.76113 9.98555 5.76113 9.98555C5.6957 9.89523 5.63383 9.80225 5.57566 9.70683C5.37105 10.0274 5.36772 10.0257 5.36772 10.0257C5.64469 10.5199 5.97738 10.9568 6.19696 11.4339C6.28346 11.7246 6.20528 12.0153 6.04143 12.2547C5.99152 12.3257 5.88173 12.3966 5.79274 12.3351C5.70457 12.2752 5.75614 12.1589 5.80106 12.07C5.85225 11.9976 5.89081 11.9166 5.915 11.8306C5.95019 11.687 5.93055 11.5349 5.86011 11.4057C5.64008 11.0367 5.41801 10.6691 5.19389 10.3028L4.99427 10.6191C5.1365 10.8867 5.29203 11.0859 5.43426 11.3818C5.47668 11.4963 5.49248 11.5878 5.48915 11.7075C5.48716 11.8327 5.45577 11.9556 5.39766 12.0657C5.2596 12.3368 4.92773 12.8318 4.92773 12.8318L5.12652 13.1618C5.12652 13.1618 5.47086 12.6044 5.49082 12.583C5.53906 12.5283 5.63055 12.5257 5.68461 12.5608C5.73951 12.5967 5.76113 12.6719 5.74533 12.7181C5.61558 12.9464 5.27956 13.4235 5.27956 13.4235L5.49415 13.774C5.49415 13.774 6.19862 12.7634 6.46228 12.3009C6.56791 12.1085 6.66772 11.9042 6.68353 11.7417C6.70099 11.3912 6.39824 11.0859 6.11545 10.5823C6.11545 10.5823 6.00733 10.4011 6.13209 10.3207C6.25851 10.2403 6.3525 10.4207 6.3525 10.4207L6.90144 11.3185C7.01788 11.5758 7.02703 11.746 6.91808 12.0521C6.72511 12.4035 6.03644 13.4628 5.66216 14.057L5.8626 14.3879C5.9333 14.3554 6.07054 14.2511 6.1404 14.1571C6.55045 13.515 6.9555 12.884 7.36638 12.2265C7.47528 12.0892 7.53544 11.9178 7.53695 11.7406C7.53846 11.5635 7.48124 11.3911 7.3747 11.2518C7.13516 10.8713 6.76171 10.1882 6.22441 9.34431C6.14916 9.25009 6.05642 9.1722 5.9516 9.11517L5.75448 9.42553ZM4.95352 9.86243V9.86756C4.95352 9.87269 4.95352 9.87526 4.95435 9.87269C4.95536 9.86965 4.95536 9.86634 4.95435 9.86329C4.95435 9.86158 4.95352 9.86072 4.95352 9.86243Z" fill="url(#paint0_linear_2707_262)"/>
<path d="M4.01459 9.00145C3.88734 9.22545 3.76341 9.43835 3.62035 9.67432C3.54102 9.79177 3.43784 9.89013 3.31794 9.96261C3.19804 10.0351 3.06426 10.08 2.92585 10.0941C2.49501 10.1155 2.31869 10.1112 1.92278 10.1198C1.84709 10.2138 1.77224 10.3481 1.71485 10.4412C1.93359 10.4489 2.24549 10.4361 2.51331 10.443C2.57985 10.4669 2.62227 10.5327 2.61146 10.5969C2.60711 10.625 2.59463 10.6511 2.57564 10.6718C2.55666 10.6926 2.53204 10.707 2.50499 10.7131L1.51606 10.7388C1.51606 10.7388 1.31395 11.0517 1.31146 11.0603C1.73315 11.0551 2.69879 11.0389 3.27934 11.0303C3.58043 11.044 3.76424 11.0269 3.95304 10.9081C4.05701 10.8363 4.13187 10.7396 4.25496 10.5216C4.42963 10.2198 4.49284 10.1044 4.70244 9.76923C4.70244 9.76923 4.7931 9.69142 4.8929 9.75127C4.99271 9.81112 4.94281 9.93766 4.94281 9.93766C4.7224 10.3121 4.55522 10.6388 4.32733 10.9662C3.97301 11.3621 3.454 11.3185 3.1288 11.3236L1.11517 11.351C1.03913 11.4702 0.999723 11.6102 1.00205 11.7528H4.27493L5.95253 9.1143C5.80979 9.03392 5.64859 8.99463 5.48593 9.00059L5.22061 9.43749C5.22061 9.43749 5.15324 9.53581 5.04179 9.48366C4.9295 9.43151 4.96859 9.32976 4.96859 9.32976L5.14076 9.00145H4.75484C4.42547 9.49905 4.25413 9.90346 3.88152 10.4233C3.60039 10.6738 3.30429 10.7268 2.98906 10.702C2.92752 10.6866 2.8851 10.643 2.87678 10.5866C2.86514 10.5122 2.91421 10.4447 2.99406 10.4267C3.10513 10.4216 3.21607 10.4136 3.32675 10.4028C3.47651 10.3739 3.6118 10.2923 3.70935 10.1719C3.92976 9.83677 4.1327 9.45715 4.40301 9.00059L4.01459 9.00145Z" fill="url(#paint1_linear_2707_262)"/>
<path d="M4.27383 11.7545H1.00179C0.990146 11.8195 1.03755 12.011 1.07914 12.1102C1.09827 12.1478 1.13986 12.2196 1.14984 12.2307C1.15649 12.2376 1.37357 12.2393 2.92725 12.2478C3.5261 12.2521 3.50864 12.2513 3.62092 12.2744C3.82054 12.3154 3.98855 12.4094 4.12246 12.5539C4.17319 12.6087 4.21062 12.6574 4.26552 12.7446C4.39693 12.9532 4.77287 13.5876 4.77287 13.5876C4.77287 13.5876 4.85688 13.7313 4.73129 13.8031C4.6057 13.8749 4.51337 13.7441 4.51337 13.7441L4.11747 13.0823C3.9636 12.8173 3.89706 12.7301 3.78976 12.6557C3.67787 12.5778 3.54641 12.5351 3.41133 12.5326C3.32233 12.5283 1.32367 12.5274 1.32367 12.5274L1.52329 12.8523L2.31759 12.8566C2.31759 12.8566 2.45566 12.8814 2.44651 13.0002C2.4382 13.1199 2.33839 13.1362 2.33839 13.1362C2.33839 13.1362 1.99738 13.1379 1.70294 13.1447L1.89341 13.4645C2.2261 13.4748 2.58957 13.4559 2.89149 13.5004C3.03704 13.5338 3.17428 13.6013 3.28573 13.6936C3.50864 13.8928 3.51862 13.9946 3.838 14.5007H4.22726C4.04095 14.187 3.838 13.8535 3.665 13.5654C3.64094 13.5249 3.61598 13.485 3.59015 13.4457C3.50138 13.3131 3.3691 13.2177 3.21753 13.1772C3.05701 13.143 2.93724 13.1533 2.78503 13.1276C2.78503 13.1276 2.71184 13.1225 2.71184 12.9994C2.71184 12.878 2.82246 12.8694 2.82246 12.8694C2.95304 12.8506 3.10774 12.8694 3.24248 12.8882C3.46206 12.9344 3.65003 13.0464 3.78976 13.214C3.83551 13.2704 3.87044 13.3217 3.93033 13.4243C4.03513 13.6013 4.12911 13.7543 4.23807 13.933C4.35867 14.1357 4.45432 14.2921 4.57991 14.5007H5.07479L4.87185 14.157C4.87185 14.157 4.83442 14.0553 4.92924 13.9946C5.02323 13.9347 5.10973 13.9972 5.1405 14.0382L5.41996 14.5016C5.57383 14.4982 5.72771 14.4589 5.86328 14.3879C5.3476 13.5201 4.75873 12.5497 4.27383 11.7545Z" fill="url(#paint2_linear_2707_262)"/>
<path d="M15.4018 13.0929L13.6782 11.1271L13.6753 13.0473C13.6633 13.1242 13.6222 13.208 13.5129 13.2069H13.2473C13.1787 13.1891 13.1113 13.1399 13.1072 13.0473C13.1072 13.0473 13.1014 10.5347 13.1087 10.5041C13.149 10.3778 13.2519 10.2999 13.355 10.2883C13.5042 10.2564 13.6513 10.3225 13.7284 10.4033L15.7501 12.6378L17.7157 10.4002C17.7611 10.3571 17.8321 10.3214 17.9095 10.3027C17.9615 10.2902 18.0539 10.2868 18.1032 10.2956C18.1761 10.3087 18.2241 10.3327 18.2688 10.3785C18.3024 10.413 18.3302 10.4652 18.3395 10.5421L18.3398 13.0698C18.3143 13.1612 18.2602 13.1927 18.1811 13.2069H17.925C17.8119 13.1865 17.7843 13.1194 17.7714 13.0501L17.7713 11.1273L16.0798 13.0929C15.9191 13.2787 15.5181 13.2472 15.4018 13.0929ZM8.72984 13.2081C8.60531 13.181 8.58984 13.0615 8.58984 13.0615L8.59156 10.4168C8.60634 10.3436 8.67239 10.2823 8.74994 10.2821H11.3287C11.6209 10.2821 12.0785 10.395 12.2871 10.5802C12.3681 10.6478 12.4425 10.744 12.4623 10.8867L12.4624 11.4815C12.4625 11.6445 12.3854 11.7357 12.2803 11.8416C12.1295 12.0099 11.76 12.1341 11.3202 12.1589C10.546 12.1694 9.99217 12.1477 9.16262 12.1615L9.16348 13.0568C9.16348 13.0568 9.1407 13.2083 9.01803 13.208L8.72984 13.2081ZM11.2429 11.7231C11.5968 11.7214 11.8619 11.6383 11.8963 11.4245V10.9535C11.8963 10.8315 11.663 10.734 11.3309 10.7252L9.1612 10.7234L9.16141 11.7231L11.2429 11.7231ZM19.02 13.0578L19.0196 12.1903C19.0813 11.8458 19.3479 11.7277 19.5302 11.6598C19.7121 11.5862 20.0085 11.5466 20.2415 11.539L21.7326 11.5356L22.02 11.5083C22.236 11.4769 22.415 11.3823 22.4311 11.2768L22.4332 10.9811C22.4131 10.9234 22.3462 10.872 22.272 10.8389C22.1707 10.7937 22.0381 10.7582 21.9038 10.7402C21.7598 10.7144 20.1933 10.7211 20.1933 10.7211C20.1091 10.7014 20.0595 10.6541 20.0478 10.5757C20.0399 10.5292 20.0428 10.4306 20.053 10.3983C20.0714 10.3398 20.1134 10.2972 20.1963 10.2833L21.8263 10.2813C22.1152 10.293 22.3759 10.3359 22.5902 10.4464C22.8008 10.5549 22.9854 10.7415 22.9991 10.9624L22.9944 11.1863L22.981 11.3549C22.8956 11.6751 22.63 11.805 22.4297 11.8748C22.2779 11.9261 22.1151 11.9544 21.8752 11.9715C21.2262 12.0148 20.6042 11.9428 19.9732 12.0006C19.7492 12.0324 19.6222 12.0996 19.5912 12.2026L19.5842 12.7633L22.828 12.7651C22.9047 12.7727 22.9655 12.8097 22.9834 12.896C22.9899 12.9274 22.99 13.0492 22.9819 13.0799C22.9644 13.1462 22.9077 13.2067 22.8082 13.2067L19.1593 13.2069C19.0671 13.1833 19.0279 13.117 19.02 13.0578Z" fill="black"/>
<defs>
<linearGradient id="paint0_linear_2707_262" x1="7.48781" y1="11.7066" x2="4.93521" y2="11.7325" gradientUnits="userSpaceOnUse">
<stop stop-color="#4B6AF2"/>
<stop offset="1" stop-color="#3CB4EA"/>
</linearGradient>
<linearGradient id="paint1_linear_2707_262" x1="4.27493" y1="11.7545" x2="3.333" y2="9.93373" gradientUnits="userSpaceOnUse">
<stop stop-color="#5401F9"/>
<stop offset="1" stop-color="#B41ED8"/>
</linearGradient>
<linearGradient id="paint2_linear_2707_262" x1="4.27383" y1="11.7545" x2="2.04307" y2="15.4534" gradientUnits="userSpaceOnUse">
<stop stop-color="#B11B96"/>
<stop offset="1" stop-color="#FF00FF"/>
</linearGradient>
</defs>
</svg>
