<svg width="24" height="24" viewBox="0 0 24 24" fill="none" xmlns="http://www.w3.org/2000/svg">
<g clip-path="url(#clip0_2707_268)">
<path d="M18.8548 6.04898C18.8305 6.06673 18.8124 6.09156 18.803 6.12004C18.7935 6.14852 18.793 6.17925 18.8018 6.20798V6.20698C18.8377 6.27905 18.8518 6.36009 18.8422 6.44007C18.8326 6.52005 18.7998 6.59546 18.7478 6.65698L18.7488 6.65598C18.7292 6.68073 18.7186 6.71141 18.7188 6.74298C18.7188 6.78698 18.7398 6.82698 18.7718 6.85298C18.7958 6.87168 18.8253 6.88219 18.8558 6.88298C18.8978 6.88298 18.9358 6.86298 18.9618 6.83298C19.0478 6.72965 19.1018 6.60342 19.1171 6.46982C19.1323 6.33622 19.1083 6.20107 19.0478 6.08098C19.0372 6.06617 19.0238 6.05359 19.0084 6.04396C18.993 6.03433 18.9758 6.02784 18.9579 6.02487C18.94 6.0219 18.9216 6.02249 18.9039 6.02663C18.8862 6.03077 18.8695 6.03836 18.8548 6.04898ZM19.0488 6.08198L19.0468 6.07798L19.0478 6.08098L19.0488 6.08198Z" fill="#F36933"/>
<path d="M13.5268 0.0988126C6.95483 -0.744187 0.94183 3.89981 0.0988302 10.4728C-0.74417 17.0448 3.89883 23.0568 10.4718 23.9008C17.0448 24.7438 23.0598 20.0998 23.9008 13.5268C24.7448 6.95481 20.1018 0.942813 13.5268 0.0988126ZM15.9978 7.58381C15.7751 7.58631 15.5622 7.67607 15.4048 7.83381L10.9518 12.2868L10.0018 11.3368C14.3908 6.96081 15.1828 6.91881 15.9978 7.58381ZM11.1348 12.4448L15.5748 8.00481C15.6329 7.94365 15.7029 7.89499 15.7805 7.86181C15.8581 7.82864 15.9416 7.81164 16.0259 7.81186C16.1103 7.81208 16.1937 7.82952 16.2711 7.8631C16.3485 7.89669 16.4182 7.94572 16.476 8.00718C16.5338 8.06865 16.5784 8.14126 16.6072 8.22058C16.6359 8.29989 16.6482 8.38424 16.6432 8.46846C16.6382 8.55267 16.6161 8.63499 16.5782 8.71036C16.5403 8.78574 16.4875 8.85258 16.4228 8.90681L16.4218 8.90781L11.7228 13.0328L11.1348 12.4448ZM11.4648 13.1388L10.3648 13.3768C10.3605 13.3776 10.3562 13.378 10.3518 13.3778C10.3406 13.3779 10.3297 13.3748 10.3201 13.369C10.3106 13.3632 10.3029 13.3548 10.2978 13.3448C10.2911 13.3333 10.2885 13.3198 10.2903 13.3066C10.2921 13.2934 10.2983 13.2811 10.3078 13.2718L10.9528 12.6268L11.4648 13.1388ZM8.66183 12.6798L9.83383 11.5078L10.7128 12.3858L8.73383 12.8118C8.72757 12.813 8.72121 12.8137 8.71483 12.8138C8.70111 12.8138 8.68767 12.8099 8.67602 12.8027C8.66436 12.7954 8.65495 12.7851 8.64883 12.7728C8.64145 12.7612 8.63763 12.7476 8.63783 12.7338C8.63783 12.7128 8.64683 12.6928 8.66183 12.6798ZM5.01583 18.7368C4.99691 18.7355 4.9792 18.727 4.96636 18.7131C4.95352 18.6991 4.94653 18.6808 4.94683 18.6618V18.6538C4.94873 18.6364 4.95649 18.6202 4.96883 18.6078H4.97083L5.91683 17.6618L7.13883 18.8838L5.01583 18.7368ZM7.44183 17.4818C7.39597 17.5052 7.3594 17.5434 7.33815 17.5903C7.31689 17.6372 7.31219 17.6899 7.32483 17.7398V17.7378L7.52783 18.6028C7.53439 18.6295 7.53199 18.6575 7.52101 18.6827C7.51002 18.7078 7.49107 18.7287 7.46707 18.742C7.44306 18.7553 7.41535 18.7603 7.38819 18.7563C7.36104 18.7523 7.33596 18.7395 7.31683 18.7198H7.31383L6.08583 17.4908L9.84783 13.7328L11.6678 13.3398L12.5418 14.2138C11.2868 15.3158 9.57083 16.4148 7.44183 17.4818ZM12.7198 14.0538H12.7178L11.8788 13.2148L16.5778 9.08981C16.6204 9.05162 16.6595 9.0098 16.6948 8.96481L16.6968 8.96281C16.5498 10.3078 14.6678 12.2078 12.7198 14.0538ZM17.6618 8.12581C17.4231 8.12624 17.1867 8.07946 16.9662 7.98816C16.7457 7.89686 16.5454 7.76284 16.3768 7.59381L16.3748 7.59181C16.0472 7.25878 15.86 6.81264 15.852 6.34555C15.8439 5.87847 16.0156 5.42612 16.3315 5.08197C16.6474 4.73783 17.0834 4.52817 17.5495 4.49631C18.0155 4.46446 18.476 4.61284 18.8358 4.91081L18.8328 4.90881L17.2228 6.52181C17.2117 6.53277 17.2028 6.54584 17.1968 6.56027C17.1908 6.5747 17.1878 6.59018 17.1878 6.60581C17.1878 6.63881 17.2008 6.66881 17.2228 6.68981L18.4698 7.93681C18.2189 8.06185 17.9422 8.12656 17.6618 8.12581ZM18.9558 7.59381C18.8748 7.67381 18.7868 7.74481 18.6908 7.80781L18.6848 7.81181L17.4768 6.60481L19.0098 5.07181C19.6708 5.79181 19.6468 6.90381 18.9558 7.59381Z" fill="#F36933"/>
</g>
<defs>
<clipPath id="clip0_2707_268">
<rect width="24" height="24" fill="white"/>
</clipPath>
</defs>
</svg>
