<svg width="24" height="24" viewBox="0 0 24 24" fill="none" xmlns="http://www.w3.org/2000/svg">
<g clip-path="url(#clip0_2705_179)">
<path d="M18.9595 4.57141H17.6113C17.3524 4.57141 17.1426 4.78128 17.1426 5.04016V5.24552C17.1426 5.5044 17.3524 5.71427 17.6113 5.71427H18.9595C19.2184 5.71427 19.4283 5.5044 19.4283 5.24552V5.04016C19.4283 4.78128 19.2184 4.57141 18.9595 4.57141Z" fill="#56B3B4"/>
<path d="M6.38839 22.8571H0.46875C0.209867 22.8571 0 23.067 0 23.3259V23.5312C0 23.7901 0.209867 24 0.46875 24H6.38839C6.64728 24 6.85714 23.7901 6.85714 23.5312V23.3259C6.85714 23.067 6.64728 22.8571 6.38839 22.8571Z" fill="#EA5E5E"/>
<path d="M17.8175 13.7143H14.1836C13.9247 13.7143 13.7148 13.9242 13.7148 14.183V14.3884C13.7148 14.6473 13.9247 14.8572 14.1836 14.8572H17.8175C18.0764 14.8572 18.2863 14.6473 18.2863 14.3884V14.183C18.2863 13.9242 18.0764 13.7143 17.8175 13.7143Z" fill="#BF85BF"/>
<path d="M12.103 13.7143H7.32617C7.06729 13.7143 6.85742 13.9242 6.85742 14.183V14.3884C6.85742 14.6473 7.06729 14.8572 7.32617 14.8572H12.103C12.3618 14.8572 12.5717 14.6473 12.5717 14.3884V14.183C12.5717 13.9242 12.3618 13.7143 12.103 13.7143Z" fill="#EA5E5E"/>
<path d="M5.24554 13.7143H0.46875C0.209867 13.7143 0 13.9242 0 14.183V14.3884C0 14.6473 0.209867 14.8572 0.46875 14.8572H5.24554C5.50442 14.8572 5.71429 14.6473 5.71429 14.3884V14.183C5.71429 13.9242 5.50442 13.7143 5.24554 13.7143Z" fill="#56B3B4"/>
<path d="M6.38839 18.2857H0.46875C0.209867 18.2857 0 18.4956 0 18.7545V18.9598C0 19.2187 0.209867 19.4286 0.46875 19.4286H6.38839C6.64728 19.4286 6.85714 19.2187 6.85714 18.9598V18.7545C6.85714 18.4956 6.64728 18.2857 6.38839 18.2857Z" fill="#BF85BF"/>
<path d="M6.38839 9.14288H0.46875C0.209867 9.14288 0 9.35275 0 9.61163V9.81699C0 10.0759 0.209867 10.2857 0.46875 10.2857H6.38839C6.64728 10.2857 6.85714 10.0759 6.85714 9.81699V9.61163C6.85714 9.35275 6.64728 9.14288 6.38839 9.14288Z" fill="#BF85BF"/>
<path d="M17.8175 2.28571H6.18359C5.92471 2.28571 5.71484 2.49557 5.71484 2.75446V2.95981C5.71484 3.2187 5.92471 3.42856 6.18359 3.42856H17.8175C18.0764 3.42856 18.2863 3.2187 18.2863 2.95981V2.75446C18.2863 2.49557 18.0764 2.28571 17.8175 2.28571Z" fill="#F7BA3E"/>
<path d="M4.10268 2.28571H0.46875C0.209867 2.28571 0 2.49557 0 2.75446V2.95981C0 3.2187 0.209867 3.42856 0.46875 3.42856H4.10268C4.36156 3.42856 4.57143 3.2187 4.57143 2.95981V2.75446C4.57143 2.49557 4.36156 2.28571 4.10268 2.28571Z" fill="#EA5E5E"/>
<path d="M6.38923 20.5714H5.04102C4.78213 20.5714 4.57227 20.7813 4.57227 21.0402V21.2455C4.57227 21.5044 4.78213 21.7143 5.04102 21.7143H6.38923C6.64811 21.7143 6.85798 21.5044 6.85798 21.2455V21.0402C6.85798 20.7813 6.64811 20.5714 6.38923 20.5714Z" fill="#F7BA3E"/>
<path d="M6.38923 6.85712H5.04102C4.78213 6.85712 4.57227 7.06698 4.57227 7.32587V7.53122C4.57227 7.79011 4.78213 7.99997 5.04102 7.99997H6.38923C6.64811 7.99997 6.85798 7.79011 6.85798 7.53122V7.32587C6.85798 7.06698 6.64811 6.85712 6.38923 6.85712Z" fill="#56B3B4"/>
<path d="M2.95982 20.5714H0.46875C0.209867 20.5714 0 20.7813 0 21.0402V21.2455C0 21.5044 0.209867 21.7143 0.46875 21.7143H2.95982C3.2187 21.7143 3.42857 21.5044 3.42857 21.2455V21.0402C3.42857 20.7813 3.2187 20.5714 2.95982 20.5714Z" fill="#56B3B4"/>
<path d="M2.95982 6.85712H0.46875C0.209867 6.85712 0 7.06698 0 7.32587V7.53122C0 7.79011 0.209867 7.99997 0.46875 7.99997H2.95982C3.2187 7.99997 3.42857 7.79011 3.42857 7.53122V7.32587C3.42857 7.06698 3.2187 6.85712 2.95982 6.85712Z" fill="#F7BA3E"/>
<path opacity="0.5" d="M16.6744 20.5714H15.3262C15.0673 20.5714 14.8574 20.7813 14.8574 21.0402V21.2455C14.8574 21.5044 15.0673 21.7143 15.3262 21.7143H16.6744C16.9333 21.7143 17.1431 21.5044 17.1431 21.2455V21.0402C17.1431 20.7813 16.9333 20.5714 16.6744 20.5714Z" fill="#D0D4D8"/>
<path opacity="0.5" d="M13.2455 20.5714H8.46875C8.20987 20.5714 8 20.7813 8 21.0402V21.2455C8 21.5044 8.20987 21.7143 8.46875 21.7143H13.2455C13.5044 21.7143 13.7143 21.5044 13.7143 21.2455V21.0402C13.7143 20.7813 13.5044 20.5714 13.2455 20.5714Z" fill="#D0D4D8"/>
<path opacity="0.5" d="M23.5307 20.5714H18.7539C18.495 20.5714 18.2852 20.7813 18.2852 21.0402V21.2455C18.2852 21.5044 18.495 21.7143 18.7539 21.7143H23.5307C23.7896 21.7143 23.9994 21.5044 23.9994 21.2455V21.0402C23.9994 20.7813 23.7896 20.5714 23.5307 20.5714Z" fill="#D0D4D8"/>
<path d="M18.9595 11.4286H9.61133C9.35244 11.4286 9.14258 11.6385 9.14258 11.8973V12.1027C9.14258 12.3616 9.35244 12.5714 9.61133 12.5714H18.9595C19.2184 12.5714 19.4283 12.3616 19.4283 12.1027V11.8973C19.4283 11.6385 19.2184 11.4286 18.9595 11.4286Z" fill="#56B3B4"/>
<path d="M7.53041 11.4286H3.89648C3.6376 11.4286 3.42773 11.6385 3.42773 11.8973V12.1027C3.42773 12.3616 3.6376 12.5714 3.89648 12.5714H7.53041C7.7893 12.5714 7.99916 12.3616 7.99916 12.1027V11.8973C7.99916 11.6385 7.7893 11.4286 7.53041 11.4286Z" fill="#F7BA3E"/>
<path d="M1.81696 11.4286H0.46875C0.209867 11.4286 0 11.6385 0 11.8973V12.1027C0 12.3616 0.209867 12.5714 0.46875 12.5714H1.81696C2.07585 12.5714 2.28571 12.3616 2.28571 12.1027V11.8973C2.28571 11.6385 2.07585 11.4286 1.81696 11.4286Z" fill="#EA5E5E"/>
<path d="M15.5307 4.57141H10.7539C10.495 4.57141 10.2852 4.78128 10.2852 5.04016V5.24552C10.2852 5.5044 10.495 5.71427 10.7539 5.71427H15.5307C15.7896 5.71427 15.9994 5.5044 15.9994 5.24552V5.04016C15.9994 4.78128 15.7896 4.57141 15.5307 4.57141Z" fill="#BF85BF"/>
<path d="M8.67411 4.57141H0.46875C0.209867 4.57141 0 4.78128 0 5.04016V5.24552C0 5.5044 0.209867 5.71427 0.46875 5.71427H8.67411C8.93299 5.71427 9.14286 5.5044 9.14286 5.24552V5.04016C9.14286 4.78128 8.93299 4.57141 8.67411 4.57141Z" fill="#56B3B4"/>
<path d="M14.3876 16H3.89648C3.6376 16 3.42773 16.2099 3.42773 16.4688V16.6741C3.42773 16.933 3.6376 17.1429 3.89648 17.1429H14.3876C14.6464 17.1429 14.8563 16.933 14.8563 16.6741V16.4688C14.8563 16.2099 14.6464 16 14.3876 16Z" fill="#F7BA3E"/>
<path d="M1.81696 16H0.46875C0.209867 16 0 16.2099 0 16.4688V16.6741C0 16.933 0.209867 17.1429 0.46875 17.1429H1.81696C2.07585 17.1429 2.28571 16.933 2.28571 16.6741V16.4688C2.28571 16.2099 2.07585 16 1.81696 16Z" fill="#BF85BF"/>
<path d="M20.1032 6.85712H14.1836C13.9247 6.85712 13.7148 7.06698 13.7148 7.32587V7.53122C13.7148 7.79011 13.9247 7.99997 14.1836 7.99997H20.1032C20.3621 7.99997 20.572 7.79011 20.572 7.53122V7.32587C20.572 7.06698 20.3621 6.85712 20.1032 6.85712Z" fill="#EA5E5E"/>
<path d="M20.1032 9.14288H14.1836C13.9247 9.14288 13.7148 9.35275 13.7148 9.61163V9.81699C13.7148 10.0759 13.9247 10.2857 14.1836 10.2857H20.1032C20.3621 10.2857 20.572 10.0759 20.572 9.81699V9.61163C20.572 9.35275 20.3621 9.14288 20.1032 9.14288Z" fill="#F7BA3E"/>
<path d="M14.3884 0H0.46875C0.209866 0 0 0.209867 0 0.46875V0.674107C0 0.932991 0.209866 1.14286 0.46875 1.14286H14.3884C14.6473 1.14286 14.8571 0.932991 14.8571 0.674107V0.46875C14.8571 0.209867 14.6473 0 14.3884 0Z" fill="#56B3B4"/>
<path opacity="0.5" d="M23.5312 0H16.4688C16.2099 0 16 0.209867 16 0.46875V0.674107C16 0.932991 16.2099 1.14286 16.4688 1.14286H23.5312C23.7901 1.14286 24 0.932991 24 0.674107V0.46875C24 0.209867 23.7901 0 23.5312 0Z" fill="#D0D4D8"/>
<path opacity="0.5" d="M18.9598 16H16.4688C16.2099 16 16 16.2099 16 16.4688V16.6741C16 16.933 16.2099 17.1429 16.4688 17.1429H18.9598C19.2187 17.1429 19.4286 16.933 19.4286 16.6741V16.4688C19.4286 16.2099 19.2187 16 18.9598 16Z" fill="#D0D4D8"/>
<path opacity="0.5" d="M23.5321 16H21.041C20.7821 16 20.5723 16.2099 20.5723 16.4688V16.6741C20.5723 16.933 20.7821 17.1429 21.041 17.1429H23.5321C23.791 17.1429 24.0008 16.933 24.0008 16.6741V16.4688C24.0008 16.2099 23.791 16 23.5321 16Z" fill="#D0D4D8"/>
<path opacity="0.5" d="M23.5304 13.7143H19.8965C19.6376 13.7143 19.4277 13.9242 19.4277 14.183V14.3884C19.4277 14.6473 19.6376 14.8572 19.8965 14.8572H23.5304C23.7893 14.8572 23.9992 14.6473 23.9992 14.3884V14.183C23.9992 13.9242 23.7893 13.7143 23.5304 13.7143Z" fill="#D0D4D8"/>
<path opacity="0.5" d="M23.5304 2.28571H19.8965C19.6376 2.28571 19.4277 2.49557 19.4277 2.75446V2.95981C19.4277 3.2187 19.6376 3.42856 19.8965 3.42856H23.5304C23.7893 3.42856 23.9992 3.2187 23.9992 2.95981V2.75446C23.9992 2.49557 23.7893 2.28571 23.5304 2.28571Z" fill="#D0D4D8"/>
<path opacity="0.5" d="M23.5321 11.4286H21.041C20.7821 11.4286 20.5723 11.6385 20.5723 11.8973V12.1027C20.5723 12.3616 20.7821 12.5714 21.041 12.5714H23.5321C23.791 12.5714 24.0008 12.3616 24.0008 12.1027V11.8973C24.0008 11.6385 23.791 11.4286 23.5321 11.4286Z" fill="#D0D4D8"/>
<path opacity="0.5" d="M23.5321 4.57141H21.041C20.7821 4.57141 20.5723 4.78128 20.5723 5.04016V5.24552C20.5723 5.5044 20.7821 5.71427 21.041 5.71427H23.5321C23.791 5.71427 24.0008 5.5044 24.0008 5.24552V5.04016C24.0008 4.78128 23.791 4.57141 23.5321 4.57141Z" fill="#D0D4D8"/>
<path opacity="0.5" d="M23.5318 6.85712H22.1836C21.9247 6.85712 21.7148 7.06698 21.7148 7.32587V7.53122C21.7148 7.79011 21.9247 7.99997 22.1836 7.99997H23.5318C23.7907 7.99997 24.0006 7.79011 24.0006 7.53122V7.32587C24.0006 7.06698 23.7907 6.85712 23.5318 6.85712Z" fill="#D0D4D8"/>
<path opacity="0.5" d="M23.5318 9.14288H22.1836C21.9247 9.14288 21.7148 9.35275 21.7148 9.61163V9.81699C21.7148 10.0759 21.9247 10.2857 22.1836 10.2857H23.5318C23.7907 10.2857 24.0006 10.0759 24.0006 9.81699V9.61163C24.0006 9.35275 23.7907 9.14288 23.5318 9.14288Z" fill="#D0D4D8"/>
<path opacity="0.5" d="M23.5321 18.2857H13.041C12.7821 18.2857 12.5723 18.4956 12.5723 18.7545V18.9598C12.5723 19.2187 12.7821 19.4286 13.041 19.4286H23.5321C23.791 19.4286 24.0008 19.2187 24.0008 18.9598V18.7545C24.0008 18.4956 23.791 18.2857 23.5321 18.2857Z" fill="#D0D4D8"/>
<path opacity="0.5" d="M10.9598 18.2857H8.46875C8.20987 18.2857 8 18.4956 8 18.7545V18.9598C8 19.2187 8.20987 19.4286 8.46875 19.4286H10.9598C11.2187 19.4286 11.4286 19.2187 11.4286 18.9598V18.7545C11.4286 18.4956 11.2187 18.2857 10.9598 18.2857Z" fill="#D0D4D8"/>
<path opacity="0.5" d="M23.531 22.8571H17.6113C17.3524 22.8571 17.1426 23.067 17.1426 23.3259V23.5312C17.1426 23.7901 17.3524 24 17.6113 24H23.531C23.7899 24 23.9997 23.7901 23.9997 23.5312V23.3259C23.9997 23.067 23.7899 22.8571 23.531 22.8571Z" fill="#D0D4D8"/>
<path opacity="0.5" d="M15.5313 22.8571H8.46875C8.20987 22.8571 8 23.067 8 23.3259V23.5312C8 23.7901 8.20987 24 8.46875 24H15.5313C15.7901 24 16 23.7901 16 23.5312V23.3259C16 23.067 15.7901 22.8571 15.5313 22.8571Z" fill="#D0D4D8"/>
<path opacity="0.5" d="M12.1027 6.85712H8.46875C8.20987 6.85712 8 7.06698 8 7.32587V7.53122C8 7.79011 8.20987 7.99997 8.46875 7.99997H12.1027C12.3616 7.99997 12.5714 7.79011 12.5714 7.53122V7.32587C12.5714 7.06698 12.3616 6.85712 12.1027 6.85712Z" fill="#D0D4D8"/>
<path opacity="0.5" d="M12.1027 9.14288H8.46875C8.20987 9.14288 8 9.35275 8 9.61163V9.81699C8 10.0759 8.20987 10.2857 8.46875 10.2857H12.1027C12.3616 10.2857 12.5714 10.0759 12.5714 9.81699V9.61163C12.5714 9.35275 12.3616 9.14288 12.1027 9.14288Z" fill="#D0D4D8"/>
</g>
<defs>
<clipPath id="clip0_2705_179">
<rect width="24" height="24" fill="white"/>
</clipPath>
</defs>
</svg>
