<svg width="24" height="24" viewBox="0 0 24 24" fill="none" xmlns="http://www.w3.org/2000/svg">
<g clip-path="url(#clip0_2686_175)">
<mask id="mask0_2686_175" style="mask-type:luminance" maskUnits="userSpaceOnUse" x="0" y="0" width="24" height="24">
<path d="M24 0H0V24H24V0Z" fill="white"/>
</mask>
<g mask="url(#mask0_2686_175)">
<path d="M23.9697 20.2045H14.9219V9.51367H23.9697V20.2045ZM19.4329 16.7463C18.5368 16.7463 17.6402 16.7463 16.7441 16.7463C16.6974 16.7463 16.6374 16.7312 16.6066 16.7543C16.5545 16.7929 16.492 16.8542 16.4874 16.9104C16.484 16.9558 16.5524 17.0183 16.6028 17.0519C16.6362 17.0742 16.6937 17.0607 16.7408 17.0607C18.5439 17.0607 20.3469 17.0607 22.1496 17.0607C22.1913 17.0607 22.2454 17.0759 22.2721 17.0553C22.3276 17.0129 22.3992 16.9541 22.4055 16.8957C22.4101 16.8517 22.3305 16.787 22.2755 16.7517C22.2417 16.7299 22.1842 16.7459 22.1371 16.7454C21.2355 16.7454 20.334 16.7454 19.4325 16.7454L19.4329 16.7463ZM19.4466 18.3215C20.3428 18.3215 21.2393 18.3215 22.1354 18.3215C22.1821 18.3215 22.2417 18.3379 22.2734 18.3152C22.3296 18.2749 22.3997 18.2136 22.4055 18.1553C22.4097 18.1112 22.3284 18.0495 22.2742 18.0121C22.2454 17.9924 22.1933 18.0066 22.1517 18.0066C20.3486 18.0066 18.5455 18.0066 16.7429 18.0066C16.6962 18.0066 16.6387 17.9928 16.6049 18.015C16.5541 18.0486 16.4845 18.1099 16.4874 18.1553C16.4911 18.2115 16.5528 18.2737 16.6049 18.3127C16.6357 18.3358 16.6954 18.3211 16.7424 18.3211C17.644 18.3211 18.5455 18.3211 19.4471 18.3211L19.4466 18.3215ZM18.5122 14.2264C17.9128 14.2264 17.3139 14.2272 16.7145 14.2256C16.5957 14.2256 16.4799 14.2377 16.482 14.388C16.484 14.5266 16.5941 14.5421 16.7079 14.5417C17.9062 14.5404 19.1049 14.5404 20.3032 14.5417C20.4219 14.5417 20.5391 14.5287 20.5353 14.3788C20.5316 14.2289 20.4099 14.2251 20.294 14.2251C19.7001 14.2264 19.1061 14.226 18.5118 14.226L18.5122 14.2264ZM18.5051 15.8016C19.0678 15.8016 19.6304 15.8016 20.1935 15.8016C20.2456 15.8016 20.2977 15.8016 20.3498 15.8016C20.459 15.8025 20.5387 15.7571 20.537 15.64C20.5353 15.5325 20.4603 15.4868 20.3573 15.4868C20.3261 15.4868 20.2948 15.4868 20.2636 15.4868C19.0911 15.4868 17.9187 15.4868 16.7462 15.4868C16.7149 15.4868 16.6837 15.4863 16.6524 15.4872C16.5486 15.4901 16.4661 15.5443 16.4865 15.6467C16.4986 15.7063 16.5857 15.7563 16.647 15.7987C16.672 15.8159 16.7179 15.8021 16.7545 15.8021C17.3381 15.8021 17.9216 15.8021 18.5055 15.8021L18.5051 15.8016ZM17.922 12.6486C17.9457 12.6264 18.0049 12.5941 18.0299 12.5445C18.34 11.9278 18.6485 11.3098 18.9473 10.6872C18.9719 10.6355 18.9473 10.5301 18.9073 10.4839C18.8364 10.4021 18.7281 10.4449 18.6635 10.573C18.4638 10.9701 18.2671 11.369 18.0695 11.7674C17.9649 11.9782 17.8578 12.1881 17.7569 12.4005C17.6961 12.5294 17.764 12.6528 17.922 12.6486ZM16.5328 11.5474C16.7062 11.3769 16.8621 11.2237 17.0175 11.0705C17.0951 10.9936 17.1455 10.9071 17.053 10.8123C16.9609 10.7178 16.875 10.7657 16.7975 10.8446C16.6141 11.0302 16.4286 11.2136 16.2465 11.4009C16.1302 11.521 16.1323 11.5806 16.2544 11.7057C16.4294 11.885 16.6074 12.0613 16.7833 12.2397C16.8621 12.3195 16.9475 12.3888 17.05 12.2884C17.1522 12.1885 17.0901 12.0991 17.0092 12.0193C16.8575 11.869 16.7058 11.7187 16.5328 11.5474ZM20.1794 11.5491C19.9956 11.7284 19.8347 11.8845 19.675 12.0416C19.5988 12.1167 19.5671 12.2024 19.6525 12.2876C19.7384 12.3732 19.8222 12.3384 19.8972 12.2628C20.0848 12.0739 20.2715 11.8841 20.4607 11.6973C20.5632 11.5957 20.5624 11.5016 20.4603 11.4009C20.2744 11.2174 20.0914 11.0314 19.908 10.8458C19.8305 10.7673 19.7455 10.7178 19.6521 10.8114C19.5592 10.905 19.6071 10.992 19.6859 11.0688C19.8426 11.2212 19.9993 11.374 20.1794 11.5491Z" fill="#282689"/>
<path d="M14.9219 9.17495C14.934 8.9033 14.9206 8.6384 14.9615 8.3823C15.0623 7.7521 15.5963 7.2987 16.2319 7.2974C18.388 7.2932 20.5445 7.2924 22.7006 7.2974C23.4183 7.2991 23.9852 7.8772 23.9989 8.59935C24.0027 8.78745 23.9993 8.97595 23.9993 9.1745L14.9219 9.17495Z" fill="#282689"/>
<path d="M24.0008 20.5371C23.9887 20.8092 24.0008 21.0737 23.9603 21.3298C23.8607 21.9541 23.3318 22.4121 22.7058 22.4138C20.5393 22.4197 18.3727 22.4205 16.2062 22.4138C15.506 22.4117 14.94 21.8311 14.9242 21.1283C14.9196 20.9351 14.9233 20.7416 14.9233 20.5376L24.0008 20.5371Z" fill="#E7ECF8"/>
<path d="M23.3383 10.3193H15.5957V19.3937H23.3383V10.3193Z" fill="#282689"/>
<path d="M21.6702 14.9394C21.3418 14.6685 21.0285 14.4129 20.7192 14.1526C20.6675 14.109 20.6156 14.0498 20.5952 13.9877C20.5601 13.8792 20.5982 13.7792 20.6999 13.7186C20.8046 13.6559 20.9075 13.6712 21.0012 13.7481C21.3584 14.0423 21.7156 14.337 22.0726 14.6315C22.1208 14.6713 22.1712 14.7089 22.2164 14.7517C22.3319 14.8605 22.3394 15.0236 22.2187 15.1249C21.807 15.4709 21.3915 15.8127 20.9735 16.1513C20.8623 16.2415 20.7095 16.2139 20.6284 16.1064C20.5478 15.9997 20.5641 15.8566 20.6778 15.7614C20.9557 15.5283 21.2369 15.299 21.5165 15.068C21.564 15.0289 21.6109 14.989 21.6697 14.9397L21.6702 14.9394Z" fill="#E7ECF8"/>
<path d="M17.2437 14.9412C17.5241 15.1727 17.7932 15.3948 18.0623 15.6168C18.1233 15.6672 18.187 15.7148 18.2448 15.7684C18.3505 15.8666 18.359 16.012 18.2694 16.1152C18.1855 16.2117 18.0372 16.231 17.9315 16.145C17.5178 15.809 17.1056 15.4704 16.6969 15.1284C16.5701 15.0224 16.5734 14.8537 16.7007 14.7475C17.1036 14.4112 17.509 14.0782 17.9154 13.7459C18.0334 13.6494 18.1853 13.6625 18.2727 13.7682C18.366 13.8812 18.3482 14.0258 18.2219 14.1311C17.934 14.3709 17.6436 14.6082 17.3544 14.8467C17.3225 14.873 17.2911 14.9006 17.2437 14.9412Z" fill="#E7ECF8"/>
<path d="M18.8932 16.3674C18.7192 16.3682 18.603 16.204 18.662 16.0396C18.6718 16.0123 18.6848 15.986 18.6981 15.9602C19.0571 15.2611 19.4168 14.5624 19.7745 13.8625C19.8298 13.7545 19.9001 13.6766 20.0324 13.6819C20.1945 13.6884 20.3045 13.8435 20.2558 13.9984C20.247 14.0259 20.2332 14.052 20.2199 14.0778C19.8574 14.7845 19.4944 15.4909 19.1327 16.1978C19.0817 16.2975 19.0132 16.3677 18.8932 16.3674Z" fill="#E7ECF8"/>
<path d="M19.6362 22.0817C20.008 22.0817 20.3094 21.7807 20.3094 21.4095C20.3094 21.0382 20.008 20.7373 19.6362 20.7373C19.2643 20.7373 18.9629 21.0382 18.9629 21.4095C18.9629 21.7807 19.2643 22.0817 19.6362 22.0817Z" fill="white"/>
<path d="M23.9697 20.2065H14.9219V9.51562H23.9697V20.2065ZM19.4329 16.7482C18.5368 16.7482 17.6402 16.7482 16.7441 16.7482C16.6974 16.7482 16.6374 16.7331 16.6066 16.7562C16.5545 16.7948 16.492 16.8561 16.4874 16.9124C16.484 16.9577 16.5524 17.0203 16.6028 17.0539C16.6362 17.0761 16.6937 17.0627 16.7408 17.0627C18.5439 17.0627 20.3469 17.0627 22.1496 17.0627C22.1913 17.0627 22.2454 17.0778 22.2721 17.0572C22.3276 17.0148 22.3992 16.9561 22.4055 16.8977C22.4101 16.8536 22.3305 16.789 22.2755 16.7537C22.2417 16.7319 22.1842 16.7478 22.1371 16.7474C21.2355 16.7474 20.334 16.7474 19.4325 16.7474L19.4329 16.7482ZM19.4466 18.3235C20.3428 18.3235 21.2393 18.3235 22.1354 18.3235C22.1821 18.3235 22.2417 18.3399 22.2734 18.3172C22.3296 18.2769 22.3997 18.2156 22.4055 18.1572C22.4097 18.1131 22.3284 18.0514 22.2742 18.0141C22.2454 17.9943 22.1933 18.0086 22.1517 18.0086C20.3486 18.0086 18.5455 18.0086 16.7429 18.0086C16.6962 18.0086 16.6387 17.9947 16.6049 18.017C16.5541 18.0506 16.4845 18.1119 16.4874 18.1572C16.4911 18.2135 16.5528 18.2756 16.6049 18.3147C16.6357 18.3378 16.6954 18.3231 16.7424 18.3231C17.644 18.3231 18.5455 18.3231 19.4471 18.3231L19.4466 18.3235ZM18.5122 14.2284C17.9128 14.2284 17.3139 14.2292 16.7145 14.2275C16.5957 14.2275 16.4799 14.2397 16.482 14.39C16.484 14.5285 16.5941 14.5441 16.7079 14.5437C17.9062 14.5424 19.1049 14.5424 20.3032 14.5437C20.4219 14.5437 20.5391 14.5306 20.5353 14.3808C20.5316 14.2309 20.4099 14.2271 20.294 14.2271C19.7001 14.2284 19.1061 14.2279 18.5118 14.2279L18.5122 14.2284ZM18.5051 15.8036C19.0678 15.8036 19.6304 15.8036 20.1935 15.8036C20.2456 15.8036 20.2977 15.8036 20.3498 15.8036C20.459 15.8044 20.5387 15.7591 20.537 15.642C20.5353 15.5345 20.4603 15.4887 20.3573 15.4887C20.3261 15.4887 20.2948 15.4887 20.2636 15.4887C19.0911 15.4887 17.9187 15.4887 16.7462 15.4887C16.7149 15.4887 16.6837 15.4883 16.6524 15.4891C16.5486 15.4921 16.4661 15.5462 16.4865 15.6487C16.4986 15.7083 16.5857 15.7583 16.647 15.8007C16.672 15.8179 16.7179 15.804 16.7545 15.804C17.3381 15.804 17.9216 15.804 18.5055 15.804L18.5051 15.8036ZM17.922 12.6506C17.9457 12.6283 18.0049 12.596 18.0299 12.5465C18.34 11.9297 18.6485 11.3117 18.9473 10.6891C18.9719 10.6375 18.9473 10.5321 18.9073 10.4859C18.8364 10.404 18.7281 10.4469 18.6635 10.5749C18.4638 10.9721 18.2671 11.3709 18.0695 11.7694C17.9649 11.9801 17.8578 12.19 17.7569 12.4025C17.6961 12.5314 17.764 12.6548 17.922 12.6506ZM16.5328 11.5494C16.7062 11.3789 16.8621 11.2257 17.0175 11.0724C17.0951 10.9956 17.1455 10.9091 17.053 10.8142C16.9609 10.7198 16.875 10.7676 16.7975 10.8465C16.6141 11.0321 16.4286 11.2156 16.2465 11.4028C16.1302 11.5229 16.1323 11.5825 16.2544 11.7076C16.4294 11.8869 16.6074 12.0632 16.7833 12.2417C16.8621 12.3214 16.9475 12.3907 17.05 12.2904C17.1522 12.1905 17.0901 12.101 17.0092 12.0213C16.8575 11.871 16.7058 11.7207 16.5328 11.5494ZM20.1794 11.551C19.9956 11.7303 19.8347 11.8865 19.675 12.0435C19.5988 12.1187 19.5671 12.2043 19.6525 12.2895C19.7384 12.3752 19.8222 12.3403 19.8972 12.2648C20.0848 12.0758 20.2715 11.8861 20.4607 11.6992C20.5632 11.5976 20.5624 11.5036 20.4603 11.4028C20.2744 11.2194 20.0914 11.0334 19.908 10.8478C19.8305 10.7693 19.7455 10.7198 19.6521 10.8134C19.5592 10.907 19.6071 10.9939 19.6859 11.0707C19.8426 11.2231 19.9993 11.376 20.1794 11.551Z" fill="#282689"/>
<path d="M14.9219 9.17495C14.934 8.9033 14.9206 8.6384 14.9615 8.3823C15.0623 7.7521 15.5963 7.2987 16.2319 7.2974C18.388 7.2932 20.5445 7.2924 22.7006 7.2974C23.4183 7.2991 23.9852 7.8772 23.9989 8.59935C24.0027 8.78745 23.9993 8.97595 23.9993 9.1745L14.9219 9.17495Z" fill="#282689"/>
<path d="M24.0008 20.6191C23.9887 20.8912 24.0008 21.1557 23.9603 21.4118C23.8607 22.0361 23.3318 22.4941 22.7058 22.4958C20.5393 22.5017 18.3727 22.5025 16.2062 22.4958C15.506 22.4937 14.94 21.9131 14.9242 21.2103C14.9196 21.0171 14.9233 20.8236 14.9233 20.6195L24.0008 20.6191Z" fill="#F8F8F8"/>
<path d="M23.3383 10.3203H15.5957V19.3947H23.3383V10.3203Z" fill="#282689"/>
<path d="M19.4249 22.0598C19.7232 22.0598 19.9651 21.818 19.9651 21.5196C19.9651 21.2213 19.7232 20.9795 19.4249 20.9795C19.1266 20.9795 18.8848 21.2213 18.8848 21.5196C18.8848 21.818 19.1266 22.0598 19.4249 22.0598Z" fill="white"/>
<path d="M10.0478 14.7591H1V4.06836H10.0478V14.7591ZM5.511 11.3009C4.6149 11.3009 3.71836 11.3009 2.82224 11.3009C2.77556 11.3009 2.71555 11.2858 2.6847 11.3089C2.6326 11.3475 2.57008 11.4088 2.5655 11.4651C2.56216 11.5104 2.63051 11.573 2.68095 11.6066C2.71429 11.6288 2.77181 11.6154 2.81891 11.6154C4.62198 11.6154 6.42505 11.6154 8.2277 11.6154C8.2694 11.6154 8.32355 11.6305 8.35025 11.6099C8.4057 11.5675 8.47735 11.5087 8.4836 11.4504C8.4882 11.4063 8.4086 11.3416 8.3536 11.3064C8.3198 11.2845 8.2623 11.3005 8.2152 11.3001C7.31365 11.3001 6.41215 11.3001 5.5106 11.3001L5.511 11.3009ZM5.52475 12.8762C6.4209 12.8762 7.3174 12.8762 8.21355 12.8762C8.2602 12.8762 8.3198 12.8925 8.3515 12.8699C8.40775 12.8296 8.4778 12.7683 8.4836 12.7099C8.4878 12.6658 8.4065 12.6041 8.35235 12.5667C8.32355 12.547 8.27145 12.5613 8.2298 12.5613C6.4267 12.5613 4.62365 12.5613 2.821 12.5613C2.77431 12.5613 2.71679 12.5475 2.68303 12.5697C2.63218 12.6033 2.56258 12.6646 2.5655 12.7099C2.56925 12.7662 2.63093 12.8283 2.68303 12.8673C2.71387 12.8904 2.77348 12.8757 2.82057 12.8757C3.72211 12.8757 4.62365 12.8757 5.5252 12.8757L5.52475 12.8762ZM4.5903 8.78105C3.99094 8.78105 3.39201 8.7819 2.79265 8.78025C2.67386 8.78025 2.558 8.7924 2.56008 8.9427C2.56216 9.08125 2.67219 9.0968 2.78598 9.09635C3.98428 9.0951 5.183 9.0951 6.3813 9.09635C6.5001 9.09635 6.6172 9.08335 6.61345 8.93345C6.6097 8.7836 6.488 8.7798 6.3721 8.7798C5.7782 8.78105 5.18425 8.78065 4.58989 8.78065L4.5903 8.78105ZM4.58322 10.3563C5.1459 10.3563 5.70855 10.3563 6.27165 10.3563C6.32375 10.3563 6.37585 10.3563 6.42795 10.3563C6.53715 10.3571 6.6168 10.3118 6.6151 10.1946C6.61345 10.0872 6.5384 10.0414 6.43545 10.0414C6.4042 10.0414 6.37295 10.0414 6.3417 10.0414C5.16925 10.0414 3.99678 10.0414 2.82433 10.0414C2.79307 10.0414 2.76181 10.041 2.73055 10.0418C2.62677 10.0448 2.54424 10.0989 2.56466 10.2014C2.57675 10.261 2.66386 10.3109 2.72513 10.3533C2.75014 10.3706 2.79598 10.3567 2.83266 10.3567C3.41618 10.3567 3.9997 10.3567 4.58363 10.3567L4.58322 10.3563ZM4.00011 7.2033C4.02387 7.18105 4.08306 7.14875 4.10807 7.0992C4.41816 6.48245 4.7266 5.86445 5.02545 5.2418C5.05005 5.19015 5.02545 5.0848 4.98543 5.0386C4.91457 4.95674 4.80621 4.99956 4.7416 5.1276C4.54196 5.5248 4.34523 5.92365 4.14767 6.32205C4.04305 6.5328 3.93593 6.74275 3.83506 6.9552C3.77421 7.08405 3.84215 7.2075 4.00011 7.2033ZM2.61092 6.10205C2.78431 5.9316 2.9402 5.77835 3.09566 5.62515C3.17319 5.5483 3.22362 5.4618 3.13109 5.36695C3.03898 5.27245 2.95312 5.3203 2.8756 5.39925C2.69221 5.5848 2.50672 5.7683 2.32458 5.95555C2.2083 6.0756 2.21038 6.13525 2.3325 6.26035C2.50756 6.4396 2.68553 6.61595 2.86142 6.7944C2.9402 6.87415 3.02564 6.94345 3.12818 6.8431C3.23029 6.74315 3.16819 6.65375 3.08733 6.57395C2.93562 6.42365 2.7839 6.27335 2.61092 6.10205ZM6.2575 6.10375C6.0737 6.283 5.9128 6.4392 5.75315 6.5962C5.6769 6.67135 5.6452 6.757 5.73065 6.84225C5.81655 6.9279 5.9003 6.89305 5.97535 6.81745C6.1629 6.62855 6.3496 6.4388 6.53885 6.25195C6.64135 6.15035 6.64055 6.0563 6.5384 5.95555C6.35255 5.77205 6.16955 5.5861 5.98615 5.4005C5.90865 5.322 5.8236 5.27245 5.73025 5.3661C5.6373 5.4597 5.68525 5.5466 5.764 5.62345C5.92075 5.77585 6.0774 5.92865 6.2575 6.10375Z" fill="#282689"/>
<path d="M1 3.72963C1.01209 3.458 0.99875 3.19308 1.0396 2.93697C1.14046 2.30679 1.67438 1.85336 2.31 1.8521C4.46609 1.8479 6.6226 1.84706 8.7787 1.8521C9.49645 1.85378 10.0633 2.43191 10.0771 3.15403C10.0808 3.34212 10.0774 3.53062 10.0774 3.72921L1 3.72963Z" fill="#282689"/>
<path d="M10.0789 15.0918C10.0668 15.3638 10.0789 15.6283 10.0385 15.8844C9.93885 16.5087 9.40995 16.9668 8.7839 16.9685C6.6174 16.9743 4.45087 16.9752 2.28435 16.9685C1.58413 16.9664 1.01811 16.3857 1.00228 15.6829C0.997694 15.4898 1.00144 15.2962 1.00144 15.0922L10.0789 15.0918Z" fill="#E7ECF8"/>
<path d="M9.41643 4.87402H1.67383V13.9484H9.41643V4.87402Z" fill="#282689"/>
<path d="M7.75019 9.49415C7.42184 9.22325 7.10855 8.96765 6.7993 8.7073C6.7476 8.6637 6.6956 8.60455 6.6753 8.5424C6.64015 8.4339 6.6783 8.3339 6.77995 8.27325C6.88465 8.21065 6.98755 8.2259 7.0812 8.30285C7.43845 8.59705 7.79565 8.89175 8.1526 9.18615C8.2008 9.226 8.25124 9.2636 8.29644 9.30645C8.41194 9.4152 8.41945 9.57835 8.2987 9.67955C7.887 10.0256 7.47154 10.3675 7.05359 10.706C6.94239 10.7962 6.78949 10.7686 6.70844 10.6611C6.62784 10.5544 6.64415 10.4113 6.7579 10.316C7.03575 10.083 7.31695 9.85375 7.5966 9.6227C7.644 9.5836 7.69095 9.54375 7.7497 9.4944L7.75019 9.49415Z" fill="#E7ECF8"/>
<path d="M3.32374 9.4959C3.60415 9.72745 3.87325 9.9495 4.14236 10.1715C4.20336 10.2219 4.26712 10.2695 4.32486 10.3231C4.43055 10.4214 4.43908 10.5667 4.34946 10.6699C4.26562 10.7664 4.11726 10.7857 4.01157 10.6998C3.59787 10.3637 3.18568 10.0252 2.777 9.6831C2.65022 9.5771 2.65349 9.40845 2.78076 9.3022C3.18367 8.9659 3.58909 8.6329 3.99551 8.3006C4.11349 8.20415 4.26537 8.21715 4.35273 8.3229C4.44611 8.43595 4.42829 8.5805 4.30202 8.68575C4.01408 8.9256 3.72364 9.1629 3.43445 9.40145C3.40257 9.42775 3.37119 9.4553 3.32374 9.4959Z" fill="#E7ECF8"/>
<path d="M4.97327 10.9221C4.79931 10.9229 4.68308 10.7587 4.74207 10.5943C4.75186 10.567 4.76491 10.5407 4.77822 10.5149C5.1372 9.81578 5.49695 9.11713 5.85465 8.41723C5.9099 8.30923 5.98015 8.23128 6.11245 8.23658C6.27465 8.24308 6.3846 8.39818 6.3359 8.55303C6.3271 8.58063 6.3133 8.60668 6.3 8.63248C5.9375 9.33913 5.5745 10.0455 5.21275 10.7525C5.1618 10.8522 5.09325 10.9224 4.97327 10.9221Z" fill="#E7ECF8"/>
<path d="M5.71429 16.6363C6.08612 16.6363 6.38756 16.3354 6.38756 15.9642C6.38756 15.5929 6.08612 15.292 5.71429 15.292C5.34245 15.292 5.04102 15.5929 5.04102 15.9642C5.04102 16.3354 5.34245 16.6363 5.71429 16.6363Z" fill="white"/>
<path d="M10.0478 14.7591H1V4.06836H10.0478V14.7591ZM5.511 11.3009C4.6149 11.3009 3.71836 11.3009 2.82224 11.3009C2.77556 11.3009 2.71555 11.2858 2.6847 11.3089C2.6326 11.3475 2.57008 11.4088 2.5655 11.4651C2.56216 11.5104 2.63051 11.573 2.68095 11.6066C2.71429 11.6288 2.77181 11.6154 2.81891 11.6154C4.62198 11.6154 6.42505 11.6154 8.2277 11.6154C8.2694 11.6154 8.32355 11.6305 8.35025 11.6099C8.4057 11.5675 8.47735 11.5087 8.4836 11.4504C8.4882 11.4063 8.4086 11.3416 8.3536 11.3064C8.3198 11.2845 8.2623 11.3005 8.2152 11.3001C7.31365 11.3001 6.41215 11.3001 5.5106 11.3001L5.511 11.3009ZM5.52475 12.8762C6.4209 12.8762 7.3174 12.8762 8.21355 12.8762C8.2602 12.8762 8.3198 12.8925 8.3515 12.8699C8.40775 12.8296 8.4778 12.7683 8.4836 12.7099C8.4878 12.6658 8.4065 12.6041 8.35235 12.5667C8.32355 12.547 8.27145 12.5613 8.2298 12.5613C6.4267 12.5613 4.62365 12.5613 2.821 12.5613C2.77431 12.5613 2.71679 12.5475 2.68303 12.5697C2.63218 12.6033 2.56258 12.6646 2.5655 12.7099C2.56925 12.7662 2.63093 12.8283 2.68303 12.8673C2.71387 12.8904 2.77348 12.8757 2.82057 12.8757C3.72211 12.8757 4.62365 12.8757 5.5252 12.8757L5.52475 12.8762ZM4.5903 8.78105C3.99094 8.78105 3.39201 8.7819 2.79265 8.78025C2.67386 8.78025 2.558 8.7924 2.56008 8.9427C2.56216 9.08125 2.67219 9.0968 2.78598 9.09635C3.98428 9.0951 5.183 9.0951 6.3813 9.09635C6.5001 9.09635 6.6172 9.08335 6.61345 8.93345C6.6097 8.7836 6.488 8.7798 6.3721 8.7798C5.7782 8.78105 5.18425 8.78065 4.58989 8.78065L4.5903 8.78105ZM4.58322 10.3563C5.1459 10.3563 5.70855 10.3563 6.27165 10.3563C6.32375 10.3563 6.37585 10.3563 6.42795 10.3563C6.53715 10.3571 6.6168 10.3118 6.6151 10.1946C6.61345 10.0872 6.5384 10.0414 6.43545 10.0414C6.4042 10.0414 6.37295 10.0414 6.3417 10.0414C5.16925 10.0414 3.99678 10.0414 2.82433 10.0414C2.79307 10.0414 2.76181 10.041 2.73055 10.0418C2.62677 10.0448 2.54424 10.0989 2.56466 10.2014C2.57675 10.261 2.66386 10.3109 2.72513 10.3533C2.75014 10.3706 2.79598 10.3567 2.83266 10.3567C3.41618 10.3567 3.9997 10.3567 4.58363 10.3567L4.58322 10.3563ZM4.00011 7.2033C4.02387 7.18105 4.08306 7.14875 4.10807 7.0992C4.41816 6.48245 4.7266 5.86445 5.02545 5.2418C5.05005 5.19015 5.02545 5.0848 4.98543 5.0386C4.91457 4.95674 4.80621 4.99956 4.7416 5.1276C4.54196 5.5248 4.34523 5.92365 4.14767 6.32205C4.04305 6.5328 3.93593 6.74275 3.83506 6.9552C3.77421 7.08405 3.84215 7.2075 4.00011 7.2033ZM2.61092 6.10205C2.78431 5.9316 2.9402 5.77835 3.09566 5.62515C3.17319 5.5483 3.22362 5.4618 3.13109 5.36695C3.03898 5.27245 2.95312 5.3203 2.8756 5.39925C2.69221 5.5848 2.50672 5.7683 2.32458 5.95555C2.2083 6.0756 2.21038 6.13525 2.3325 6.26035C2.50756 6.4396 2.68553 6.61595 2.86142 6.7944C2.9402 6.87415 3.02564 6.94345 3.12818 6.8431C3.23029 6.74315 3.16819 6.65375 3.08733 6.57395C2.93562 6.42365 2.7839 6.27335 2.61092 6.10205ZM6.2575 6.10375C6.0737 6.283 5.9128 6.4392 5.75315 6.5962C5.6769 6.67135 5.6452 6.757 5.73065 6.84225C5.81655 6.9279 5.9003 6.89305 5.97535 6.81745C6.1629 6.62855 6.3496 6.4388 6.53885 6.25195C6.64135 6.15035 6.64055 6.0563 6.5384 5.95555C6.35255 5.77205 6.16955 5.5861 5.98615 5.4005C5.90865 5.322 5.8236 5.27245 5.73025 5.3661C5.6373 5.4597 5.68525 5.5466 5.764 5.62345C5.92075 5.77585 6.0774 5.92865 6.2575 6.10375Z" fill="#282689"/>
<path d="M1 3.72963C1.01209 3.458 0.99875 3.19308 1.0396 2.93697C1.14046 2.30679 1.67438 1.85336 2.31 1.8521C4.46609 1.8479 6.6226 1.84706 8.7787 1.8521C9.49645 1.85378 10.0633 2.43191 10.0771 3.15403C10.0808 3.34212 10.0774 3.53062 10.0774 3.72921L1 3.72963Z" fill="#282689"/>
<path d="M10.0789 15.1729C10.0668 15.4449 10.0789 15.7094 10.0385 15.9655C9.93885 16.5898 9.40995 17.0479 8.7839 17.0496C6.6174 17.0554 4.45087 17.0563 2.28435 17.0496C1.58413 17.0475 1.01811 16.4668 1.00228 15.764C0.997694 15.5709 1.00144 15.3773 1.00144 15.1733L10.0789 15.1729Z" fill="#F8F8F8"/>
<path d="M9.41643 4.87402H1.67383V13.9484H9.41643V4.87402Z" fill="#282689"/>
<path d="M5.50305 16.6126C5.80136 16.6126 6.0432 16.3708 6.0432 16.0724C6.0432 15.7741 5.80136 15.5323 5.50305 15.5323C5.20473 15.5323 4.96289 15.7741 4.96289 16.0724C4.96289 16.3708 5.20473 16.6126 5.50305 16.6126Z" fill="white"/>
<path d="M10.0798 9.18869V9.84084C9.66008 9.84334 9.24043 9.84874 8.82078 9.84549C8.71728 9.84479 8.66463 9.87754 8.61563 9.97119C8.42273 10.3381 8.11013 10.5214 7.69623 10.5225C6.82083 10.5246 5.94508 10.5246 5.06933 10.5225C4.47658 10.521 4.02734 10.0835 4.02734 9.51424C4.02734 8.94529 4.47766 8.50814 5.06968 8.50669C5.93928 8.50489 6.80893 8.50669 7.67858 8.50594C8.10833 8.50594 8.42958 8.69139 8.62388 9.07384C8.67223 9.16889 8.73028 9.18294 8.82038 9.18259C9.24008 9.18184 9.66008 9.18619 10.0798 9.18869ZM6.37518 9.84804C6.80063 9.84804 7.22643 9.84909 7.65188 9.84769C7.90748 9.84694 8.05678 9.72489 8.05963 9.51964C8.06288 9.31294 7.91253 9.18259 7.66163 9.18224C6.80458 9.18114 5.94723 9.18079 5.09023 9.18224C4.84469 9.18259 4.70625 9.30319 4.70372 9.50954C4.7012 9.72309 4.84217 9.84624 5.09818 9.84729C5.52358 9.84909 5.94973 9.84804 6.37518 9.84804Z" fill="#E7ECF8"/>
<path d="M6.3743 9.84814C5.94885 9.84814 5.52305 9.84959 5.0976 9.84779C4.84161 9.84674 4.70028 9.72359 4.70317 9.51004C4.70569 9.30369 4.84414 9.18309 5.08965 9.18269C5.9467 9.18129 6.80405 9.18129 7.66105 9.18269C7.912 9.18269 8.06235 9.31344 8.0591 9.52014C8.05585 9.72539 7.9066 9.84744 7.6513 9.84814C7.2259 9.84959 6.79975 9.84854 6.3743 9.84814Z" fill="#282689"/>
<path d="M15.0174 14.4433C14.5997 14.4441 14.1814 14.4499 13.7637 14.445C12.8709 14.4345 12.1601 13.7342 12.1446 12.839C12.1332 12.1867 12.1424 11.534 12.1415 10.8817C12.1407 10.2471 11.8154 9.92661 11.1773 9.92311C10.8116 9.92091 10.4458 9.91256 10.0801 9.90681L10.0871 9.91521V9.1181L10.0801 9.12645C10.5776 9.1256 11.0791 9.0864 11.5717 9.1335C12.32 9.20525 12.926 9.88656 12.9484 10.6449C12.9683 11.3113 12.955 11.979 12.9559 12.6462C12.9568 13.3183 13.2622 13.6224 13.94 13.6211C14.2987 13.6207 14.6578 13.6149 15.0165 13.6114L15.0104 13.6066C15.0104 13.8878 15.0104 14.1686 15.0104 14.4499L15.017 14.4437L15.0174 14.4433Z" fill="#282689"/>
<path d="M14.9219 14.3912C14.9219 14.11 14.9219 13.8292 14.9219 13.5479H16.7648C16.7141 13.4828 16.6727 13.4366 16.6388 13.3846C16.5211 13.2055 16.5502 12.9867 16.7071 12.8477C16.8529 12.7187 17.0843 12.6998 17.2301 12.8367C17.5342 13.1227 17.8304 13.4176 18.1164 13.7218C18.2556 13.8701 18.2512 14.0928 18.1084 14.2442C17.8268 14.5426 17.5373 14.8335 17.2372 15.113C17.0786 15.2609 16.8485 15.2389 16.6974 15.0963C16.54 14.948 16.5242 14.7248 16.6604 14.5391C16.6899 14.499 16.7247 14.4629 16.7864 14.3912H14.9219Z" fill="#E7ECF8"/>
</g>
</g>
<defs>
<clipPath id="clip0_2686_175">
<rect width="24" height="24" fill="white"/>
</clipPath>
</defs>
</svg>
