<svg width="24" height="24" viewBox="0 0 24 24" fill="none" xmlns="http://www.w3.org/2000/svg">
<path d="M20.8893 15.6997V17H22.8716C23.2777 17 23.9749 16.648 23.9991 15.6638V15.1609C23.9991 14.3204 23.4171 13.8247 22.8716 13.8247H21.8834V13.2213H23.8415V11.9138H21.9623C21.4773 11.9138 20.8286 12.3879 20.8286 13.2715V13.7241C20.8286 14.6078 21.4712 15.0603 21.9623 15.0603C23.3262 15.0675 21.6349 15.0603 22.8958 15.0603V15.6925M10.2685 15.3836C10.2685 15.3836 11.3294 15.2759 11.3294 13.6523C11.3294 12.0287 10.0442 11.8779 10.0442 11.8779H7.72852V17H8.89243V15.7644L9.89874 17H11.6204L10.2685 15.3836ZM9.81993 14.3348H8.89243V13.1638H9.82599C9.82599 13.1638 10.0867 13.2787 10.0867 13.7457C10.0867 14.2126 9.81993 14.3348 9.81993 14.3348ZM14.2028 11.9138H13.0207C12.1781 11.9138 11.8932 12.819 11.8932 13.25V17H13.0753V16.102H14.1846V17H15.3303V13.25C15.3303 12.158 14.4938 11.9138 14.2028 11.9138ZM14.1846 14.6509H13.0692V13.408C13.0692 13.408 13.0692 13.1279 13.439 13.1279H13.8451C14.1725 13.1279 14.1786 13.408 14.1786 13.408V14.6509H14.1846ZM15.8699 11.9138H17.1005V17H15.8699V11.9138ZM18.8282 15.6853V11.9138H17.6036V17H20.4831V15.6853H18.8282Z" fill="#CC0000"/>
<path d="M0.423828 17H5.21286C5.21286 17 4.29749 12.0503 7.32853 10.046C7.98929 9.66521 10.0928 8.2428 13.5361 11.26C13.6452 11.1523 13.7483 11.0661 13.7483 11.0661C13.7483 11.0661 10.596 7.33763 7.08604 7.75429C5.32198 7.94107 3.15176 9.84481 1.87872 12.3592C0.60569 14.8735 0.423828 17 0.423828 17Z" fill="#CC0000"/>
<path d="M0.423828 17H5.21286C5.21286 17 4.29749 12.0503 7.32853 10.046C7.98929 9.66521 10.0928 8.2428 13.5361 11.26C13.6452 11.1523 13.7483 11.0661 13.7483 11.0661C13.7483 11.0661 10.596 7.33763 7.08604 7.75429C5.32198 7.94107 3.15176 9.84481 1.87872 12.3592C0.60569 14.8735 0.423828 17 0.423828 17Z" fill="#CC0000"/>
<path d="M0.423828 17H5.21286C5.21286 17 4.29749 12.0503 7.32853 10.046C7.98929 9.66521 10.0928 8.24279 13.5361 11.26C13.6452 11.1523 13.7483 11.0661 13.7483 11.0661C13.7483 11.0661 10.596 7.33762 7.08604 7.75429C5.31592 7.94107 3.1457 9.8448 1.87266 12.3592C0.599628 14.8735 0.423828 17 0.423828 17ZM10.402 8.15659L10.4262 7.67526C10.3717 7.63935 10.2201 7.55314 9.83822 7.42383L9.81397 7.89797C10.014 7.97699 10.208 8.0632 10.402 8.15659Z" fill="#CC0000"/>
<path d="M9.82661 9.6796L9.80237 10.1322C10.0024 10.1394 10.2025 10.1681 10.4025 10.2184L10.4268 9.77299C10.2206 9.7227 10.0206 9.69397 9.82661 9.6796ZM7.58365 7.43822H7.64427L7.52303 7C7.3351 7 7.14112 7.01437 6.94107 7.0431L7.05625 7.46695C7.23205 7.4454 7.40785 7.43822 7.58365 7.43822ZM7.87463 10.0819L8.01406 10.5776C8.18986 10.477 8.36566 10.3908 8.54146 10.3261L8.40809 9.85201C8.20198 9.92385 8.02618 10.0029 7.87463 10.0819ZM5.12245 8.19253L4.84966 7.69684C4.6981 7.79023 4.54049 7.8908 4.37681 8.00575L4.65567 8.50862C4.81328 8.39368 4.96483 8.28592 5.12245 8.19253ZM6.36517 11.4253L6.65615 11.9425C6.75921 11.7629 6.88045 11.5977 7.01381 11.4325L6.74102 10.944C6.60159 11.0948 6.47429 11.2601 6.36517 11.4253ZM5.48617 13.7385L5.9772 14.1983C6.00145 13.9181 6.04388 13.6379 6.1045 13.3578L5.66803 12.9483C5.58923 13.2141 5.53467 13.4799 5.48617 13.7385ZM2.83099 10.3261L2.40058 9.88075C2.24297 10.0603 2.09141 10.2399 1.95199 10.4195L2.41877 10.8937C2.54607 10.6997 2.6855 10.5057 2.83099 10.3261ZM1.00024 13.5374L0.303103 13.2356C0.187924 13.5445 0.0606207 13.9037 0 14.0977L0.697138 14.3994C0.775945 14.1552 0.903248 13.8032 1.00024 13.5374ZM5.39524 15.5632C5.40737 15.944 5.43768 16.2529 5.46799 16.4684L6.19543 16.7773C6.14088 16.4971 6.08632 16.181 6.04995 15.8434L5.39524 15.5632Z" fill="#CC0000"/>
</svg>
