<svg width="24" height="24" viewBox="0 0 24 24" fill="none" xmlns="http://www.w3.org/2000/svg">
<path d="M7.31868 14.1176C8.52036 14.1176 9.49451 13.1434 9.49451 11.9418C9.49451 10.7401 8.52036 9.76593 7.31868 9.76593C6.11701 9.76593 5.14286 10.7401 5.14286 11.9418C5.14286 13.1434 6.11701 14.1176 7.31868 14.1176ZM2.17582 18.4692C3.3775 18.4692 4.35165 17.4951 4.35165 16.2934C4.35165 15.0917 3.3775 14.1176 2.17582 14.1176C0.97415 14.1176 0 15.0917 0 16.2934C0 17.4951 0.97415 18.4692 2.17582 18.4692ZM21.8242 18.4692C23.0259 18.4692 24 17.4951 24 16.2934C24 15.0917 23.0259 14.1176 21.8242 14.1176C20.6225 14.1176 19.6484 15.0917 19.6484 16.2934C19.6484 17.4951 20.6225 18.4692 21.8242 18.4692Z" fill="black"/>
<path d="M14.678 12.0335C14.6084 11.3065 14.573 10.7015 14.0161 10.2762C13.3109 9.73769 12.512 10.0871 11.5279 9.73193C10.561 9.49801 9.84375 8.63949 9.84375 7.6162C9.84375 6.41294 10.8354 5.4375 12.0587 5.4375C12.9647 5.4375 13.7437 5.97258 14.0868 6.73899C14.612 7.73645 14.2707 8.75157 14.9305 9.26289C15.7117 9.86833 16.765 9.42496 17.9402 9.9986C18.3178 10.1721 18.6375 10.4474 18.8627 10.7885C19.0879 11.1296 19.2188 11.5366 19.2188 11.9736C19.2188 12.9969 18.5015 13.8554 17.5346 14.0893C16.5505 14.4445 15.7516 14.0951 15.0464 14.6336C14.2533 15.2392 14.6779 16.2524 14.0315 17.3226C13.6646 18.0273 12.9189 18.5097 12.0587 18.5097C10.8354 18.5097 9.84375 17.5342 9.84375 16.331C9.84375 15.4569 10.3671 14.703 11.1223 14.356C12.2975 13.7824 13.3508 14.2257 14.132 13.6203C14.5827 13.271 14.678 12.7322 14.678 12.0335Z" fill="#D0021B"/>
</svg>
