<svg width="24" height="24" viewBox="0 0 24 24" fill="none" xmlns="http://www.w3.org/2000/svg">
<path d="M23.8204 11.82C22.8204 9.22002 17.1704 7.17002 10.8704 7.04002C13.4504 4.12002 16.0904 2.49002 17.6004 2.71002C19.1104 2.93002 19.0004 4.84002 18.8604 6.00002C18.8434 6.13127 18.8791 6.26391 18.9597 6.36889C19.0403 6.47386 19.1592 6.54259 19.2904 6.56002C19.4212 6.57442 19.5525 6.53772 19.6569 6.45759C19.7612 6.37746 19.8306 6.26009 19.8504 6.13002C20.1904 3.60002 19.4304 2.00002 17.7504 1.76002C15.6304 1.41002 12.4204 3.58002 9.57042 7.00002C8.47213 7.02148 7.37645 7.11501 6.29042 7.28002C5.91042 5.06002 6.06042 3.28002 6.71042 2.50002C7.62042 1.36002 9.27042 2.36002 10.1804 3.05002C10.2858 3.12145 10.4144 3.15001 10.54 3.1299C10.6657 3.10978 10.779 3.0425 10.8568 2.94176C10.9346 2.84103 10.971 2.71442 10.9587 2.58774C10.9463 2.46107 10.8862 2.34386 10.7904 2.26002C8.76042 0.720019 7.00042 0.580018 5.93042 1.90002C5.05042 3.00002 4.88042 5.00002 5.30042 7.48002C2.94042 8.00002 1.20042 8.84002 0.430417 10C0.202655 10.3179 0.0601004 10.6889 0.0163376 11.0775C-0.0274252 11.4661 0.0290623 11.8594 0.180417 12.22C0.607799 13.1269 1.30678 13.8783 2.18042 14.37C2.29313 14.4403 2.42915 14.4629 2.55855 14.4329C2.68795 14.4029 2.80013 14.3227 2.87042 14.21C2.9407 14.0973 2.96333 13.9613 2.93332 13.8319C2.90331 13.7025 2.82313 13.5903 2.71042 13.52C2.00576 13.1409 1.431 12.5592 1.06042 11.85C0.970131 11.6407 0.936463 11.4114 0.96279 11.1849C0.989118 10.9585 1.07451 10.743 1.21042 10.56C1.75042 9.77002 3.21042 8.97002 5.45042 8.50002C5.7115 9.57487 6.04561 10.6307 6.45042 11.66C4.30042 15.56 3.52042 19.1 4.45042 20.98C4.61271 21.3393 4.86424 21.651 5.18106 21.8855C5.49788 22.1201 5.86945 22.2697 6.26042 22.32C6.40689 22.3308 6.55395 22.3308 6.70042 22.32C7.814 22.2471 8.88624 21.8701 9.80042 21.23C9.91313 21.1597 9.99331 21.0476 10.0233 20.9182C10.0533 20.7888 10.0307 20.6527 9.96042 20.54C9.89013 20.4273 9.77795 20.3471 9.64855 20.3171C9.51915 20.2871 9.38313 20.3097 9.27042 20.38C8.44349 20.9989 7.43303 21.3228 6.40042 21.3C6.1724 21.2734 5.95538 21.1873 5.7711 21.0504C5.58682 20.9136 5.44175 20.7306 5.35042 20.52C4.76042 19.3 5.08042 16.52 6.96042 12.84C7.43153 13.9237 7.96578 14.9789 8.56042 16C10.9604 20.13 13.8104 22.8 16.0104 23H16.2204C16.5776 23.0047 16.9309 22.9257 17.2522 22.7695C17.5734 22.6132 17.8536 22.3839 18.0704 22.1C19.6004 20.18 19.0204 15.33 16.6604 10.3C16.6047 10.1793 16.5034 10.0857 16.3787 10.0398C16.2539 9.99385 16.1161 9.99932 15.9954 10.055C15.8747 10.1107 15.7811 10.2121 15.7352 10.3368C15.6892 10.4615 15.6947 10.5993 15.7504 10.72C17.8804 15.27 18.5404 19.89 17.2804 21.47C17.1401 21.6525 16.9548 21.7954 16.7427 21.8848C16.5307 21.9741 16.299 22.007 16.0704 21.98C14.5604 21.87 11.9104 19.83 9.41042 15.52C8.69632 14.2878 8.07462 13.0042 7.55042 11.68L7.63042 11.54C8.33231 10.3034 9.12446 9.12015 10.0004 8.00002H10.1704C16.7604 8.00002 22.0504 10.16 22.8504 12.17C23.2904 13.28 22.2304 14.1 21.2604 14.59C21.1424 14.651 21.0534 14.7564 21.0131 14.883C20.9728 15.0096 20.9844 15.147 21.0454 15.265C21.1064 15.383 21.2118 15.472 21.3384 15.5123C21.465 15.5526 21.6024 15.541 21.7204 15.48C23.6204 14.55 24.3704 13.21 23.8204 11.82ZM7.12042 10.49C6.87353 9.77114 6.66326 9.0402 6.49042 8.30002C7.23943 8.18562 7.99371 8.10885 8.75042 8.07002C8.18042 8.83002 7.63042 9.64002 7.12042 10.49Z" fill="#303C42"/>
<path d="M12 14C13.1046 14 14 13.1046 14 12C14 10.8954 13.1046 10 12 10C10.8954 10 10 10.8954 10 12C10 13.1046 10.8954 14 12 14Z" fill="#303C42"/>
</svg>
