<svg width="24" height="24" viewBox="0 0 24 24" fill="none" xmlns="http://www.w3.org/2000/svg">
<path d="M11.9988 14.1375C13.1793 14.1375 14.1363 13.1805 14.1363 12C14.1363 10.8195 13.1793 9.86249 11.9988 9.86249C10.8183 9.86249 9.86133 10.8195 9.86133 12C9.86133 13.1805 10.8183 14.1375 11.9988 14.1375Z" fill="#61DAFB"/>
<path d="M20.118 8.47499C19.7055 8.32499 19.2742 8.17499 18.8242 8.04374C18.9367 7.59374 19.0305 7.14374 19.1055 6.71249C19.4992 4.23749 19.068 2.49374 17.868 1.81874C17.5117 1.61249 17.118 1.51874 16.668 1.51874C15.3555 1.51874 13.6867 2.49374 11.9992 4.12499C10.3117 2.49374 8.64297 1.51874 7.33047 1.51874C6.88047 1.51874 6.48672 1.61249 6.13047 1.81874C4.93047 2.51249 4.49922 4.25624 4.89297 6.71249C4.96797 7.14374 5.06172 7.59374 5.17422 8.04374C4.72422 8.17499 4.29297 8.30624 3.88047 8.47499C1.53672 9.37499 0.261719 10.6125 0.261719 12C0.261719 13.3875 1.55547 14.625 3.88047 15.525C4.29297 15.675 4.72422 15.825 5.17422 15.9562C5.06172 16.4062 4.96797 16.8562 4.89297 17.2875C4.49922 19.7625 4.93047 21.5062 6.13047 22.1812C6.48672 22.3875 6.88047 22.4812 7.33047 22.4812C8.66172 22.4812 10.3305 21.5062 11.9992 19.875C13.6867 21.5062 15.3555 22.4812 16.668 22.4812C17.118 22.4812 17.5117 22.3875 17.868 22.1812C19.068 21.4875 19.4992 19.7437 19.1055 17.2875C19.0305 16.8562 18.9367 16.4062 18.8242 15.9562C19.2742 15.825 19.7055 15.6937 20.118 15.525C22.4617 14.625 23.7367 13.3875 23.7367 12C23.7367 10.6125 22.4617 9.37499 20.118 8.47499ZM17.343 2.75624C18.1117 3.20624 18.3742 4.59374 18.0555 6.56249C17.9992 6.95624 17.9055 7.36874 17.793 7.79999C16.818 7.57499 15.7867 7.42499 14.6992 7.33124C14.0617 6.43124 13.4055 5.62499 12.7492 4.89374C14.1367 3.52499 15.543 2.58749 16.6867 2.58749C16.9305 2.58749 17.1555 2.64374 17.343 2.75624ZM15.243 13.875C14.9055 14.475 14.5117 15.075 14.0992 15.675C13.4055 15.7312 12.7117 15.75 11.9992 15.75C11.268 15.75 10.5742 15.7312 9.89922 15.675C9.48672 15.075 9.11172 14.475 8.77422 13.875C8.41797 13.2562 8.08047 12.6187 7.78047 12C8.08047 11.3812 8.41797 10.7437 8.77422 10.125C9.11172 9.52499 9.50547 8.92499 9.91797 8.32499C10.6117 8.26874 11.3055 8.24999 12.018 8.24999C12.7492 8.24999 13.443 8.26874 14.118 8.32499C14.5305 8.92499 14.9055 9.52499 15.243 10.125C15.5992 10.7437 15.9367 11.3812 16.2367 12C15.918 12.6187 15.5992 13.2375 15.243 13.875ZM16.7992 13.2562C17.0805 13.9125 17.3055 14.55 17.5117 15.1875C16.8742 15.3375 16.1992 15.45 15.4867 15.5437C15.7117 15.1875 15.9555 14.8125 16.1617 14.4187C16.3867 14.025 16.593 13.6312 16.7992 13.2562ZM11.9992 18.3375C11.5492 17.85 11.118 17.325 10.7055 16.7812C11.1367 16.8 11.568 16.8187 11.9992 16.8187C12.4305 16.8187 12.8617 16.8 13.293 16.7812C12.8805 17.325 12.4492 17.85 11.9992 18.3375ZM8.51172 15.525C7.79922 15.4312 7.12422 15.3187 6.48672 15.1687C6.69297 14.55 6.91797 13.8937 7.19922 13.2375C7.40547 13.6125 7.61172 14.0062 7.83672 14.3812C8.06172 14.7937 8.28672 15.15 8.51172 15.525ZM7.19922 10.7437C6.91797 10.0875 6.69297 9.44999 6.48672 8.81249C7.12422 8.66249 7.79922 8.54999 8.51172 8.45624C8.28672 8.81249 8.04297 9.18749 7.83672 9.58124C7.61172 9.97499 7.40547 10.3687 7.19922 10.7437ZM11.9992 5.66249C12.4492 6.14999 12.8805 6.67499 13.293 7.21874C12.8617 7.19999 12.4305 7.18124 11.9992 7.18124C11.568 7.18124 11.1367 7.19999 10.7055 7.21874C11.118 6.67499 11.5492 6.14999 11.9992 5.66249ZM16.1617 9.59999L15.4867 8.47499C16.1992 8.56874 16.8742 8.68124 17.5117 8.83124C17.3055 9.44999 17.0805 10.1062 16.7992 10.7625C16.593 10.3687 16.3867 9.97499 16.1617 9.59999ZM5.94297 6.56249C5.62422 4.59374 5.88672 3.20624 6.65547 2.75624C6.84297 2.64374 7.06797 2.58749 7.31172 2.58749C8.43672 2.58749 9.84297 3.50624 11.2492 4.89374C10.593 5.60624 9.93672 6.43124 9.29922 7.33124C8.21172 7.42499 7.18047 7.59374 6.20547 7.79999C6.09297 7.36874 6.01797 6.95624 5.94297 6.56249ZM1.31172 12C1.31172 11.1187 2.38047 10.1812 4.25547 9.48749C4.63047 9.33749 5.04297 9.20624 5.45547 9.09374C5.75547 10.0312 6.13047 11.025 6.58047 12.0187C6.13047 13.0125 5.73672 13.9875 5.45547 14.925C2.86797 14.175 1.31172 13.05 1.31172 12ZM6.65547 21.2437C5.88672 20.7937 5.62422 19.4062 5.94297 17.4375C5.99922 17.0437 6.09297 16.6312 6.20547 16.2C7.18047 16.425 8.21172 16.575 9.29922 16.6687C9.93672 17.5687 10.593 18.375 11.2492 19.1062C9.86172 20.475 8.45547 21.4125 7.31172 21.4125C7.06797 21.4125 6.84297 21.3562 6.65547 21.2437ZM18.0555 17.4375C18.3742 19.4062 18.1117 20.7937 17.343 21.2437C17.1555 21.3562 16.9305 21.4125 16.6867 21.4125C15.5617 21.4125 14.1555 20.4937 12.7492 19.1062C13.4055 18.3937 14.0617 17.5687 14.6992 16.6687C15.7867 16.575 16.818 16.4062 17.793 16.2C17.9055 16.6312 17.9805 17.0437 18.0555 17.4375ZM19.743 14.5125C19.368 14.6625 18.9555 14.7937 18.543 14.9062C18.243 13.9687 17.868 12.975 17.418 11.9812C17.868 10.9875 18.2617 10.0125 18.543 9.07499C21.1305 9.82499 22.6867 10.95 22.6867 12C22.6867 12.8812 21.5992 13.8187 19.743 14.5125Z" fill="#61DAFB"/>
</svg>
