<svg width="24" height="24" viewBox="0 0 24 24" fill="none" xmlns="http://www.w3.org/2000/svg">
<path d="M6.74122 12.6201H9.33888V14.5H5.7722C5.69498 14.5 5.63195 14.4379 5.63195 14.3607V13.6997C5.63195 13.6233 5.69498 13.5594 5.7722 13.5594H6.74122V12.6201ZM3.25533 11.1335V3.246C3.25533 3.15947 3.32636 3.08885 3.41291 3.08885H13.0791C13.1652 3.08885 13.2363 3.15945 13.2363 3.246V6.5308H14.4911V2.54687C14.4911 2.24549 14.247 2 13.9447 2H2.54733C2.24503 2 2 2.24547 2 2.54687V11.8402C2 12.1425 2.24503 12.3875 2.54733 12.3875H9.33888V11.2907H3.41293C3.32636 11.2907 3.25533 11.2201 3.25533 11.1335Z" fill="#545454"/>
<path d="M17.3848 8.23443H10.3535V16.3905H14.1857V16.8646H13.5007C13.4457 16.8646 13.4004 16.9085 13.4004 16.964V17.0142C13.4004 17.0692 13.4457 17.1132 13.5007 17.1132H14.1857V17.7812H10.338C9.96023 17.7812 9.65039 17.471 9.65039 17.0936V7.53043C9.65039 7.1531 9.96023 6.84326 10.338 6.84326H17.4003C17.7789 6.84326 18.0879 7.1531 18.0879 7.53043V10.7504H17.3848V8.23443H17.3848ZM14.0361 7.42079C14.0361 7.32047 13.9544 7.23835 13.8536 7.23835C13.7528 7.23835 13.6711 7.32047 13.6711 7.42079C13.6711 7.52198 13.7528 7.60366 13.8536 7.60366C13.9544 7.60366 14.0361 7.52198 14.0361 7.42079ZM21.999 12.1527V20.9094C21.9973 21.5117 21.5112 21.9982 20.9084 22H15.5887C14.9859 21.9982 14.4994 21.5117 14.4986 20.9094V12.1527C14.4994 11.5508 14.9859 11.0638 15.5887 11.0629H20.9084C21.5112 11.0638 21.9973 11.5508 21.999 12.1527ZM17.6209 11.4757C17.6209 11.5397 17.6724 11.5916 17.7363 11.5916H18.7609C18.8243 11.5916 18.8767 11.5397 18.8767 11.4757C18.8767 11.4123 18.8243 11.3603 18.7609 11.3603H17.7363C17.7057 11.3603 17.6764 11.3725 17.6547 11.3941C17.6331 11.4158 17.6209 11.4451 17.6209 11.4757ZM18.5899 21.1411C18.59 21.0962 18.5812 21.0517 18.5641 21.0102C18.5469 20.9688 18.5218 20.9311 18.49 20.8994C18.4582 20.8676 18.4205 20.8425 18.379 20.8254C18.3375 20.8083 18.293 20.7996 18.2481 20.7997C18.0599 20.7997 17.9064 20.952 17.9064 21.1411C17.9064 21.3297 18.0599 21.4829 18.2481 21.4829C18.4377 21.4829 18.5899 21.3297 18.5899 21.1411ZM21.2063 12.2521C21.2058 12.0919 21.07 11.9552 20.9084 11.9552H15.5887C15.4276 11.9552 15.2918 12.0919 15.2914 12.2521V20.0176C15.2918 20.1778 15.4276 20.315 15.5887 20.315H20.9084C21.0633 20.315 21.1947 20.188 21.204 20.0344L21.2062 20.0362V12.2521L21.2063 12.2521Z" fill="#DAB466"/>
</svg>
