<svg width="24" height="24" viewBox="0 0 24 24" fill="none" xmlns="http://www.w3.org/2000/svg">
<g clip-path="url(#clip0_2709_296)">
<path d="M21.8276 1.25147C21.49 2.05761 21.0617 2.82313 20.546 3.52616C18.2891 1.27022 15.2258 0.00164795 12.0344 0.00164795C5.43266 0.00164795 0 5.43839 0 12.0468C0 15.3433 1.35035 18.4991 3.73847 20.7737L4.18234 21.1674C6.35165 22.9953 9.09924 24.0014 11.9344 24.0014C18.211 24.0014 23.4874 19.0834 23.9344 12.8155C24.2626 9.74716 23.3623 5.86645 21.8276 1.25147ZM5.44829 20.8425C5.25449 21.0831 4.95754 21.2237 4.64808 21.2237C4.08231 21.2237 3.61969 20.7581 3.61969 20.1926C3.61969 19.627 4.08544 19.1615 4.64808 19.1615C4.88252 19.1615 5.11383 19.2427 5.29513 19.3927C5.73587 19.7489 5.80464 20.4019 5.44829 20.8425ZM21.7775 17.2367C18.808 21.1956 12.4657 19.8614 8.39906 20.052C8.39906 20.052 7.677 20.0957 6.95181 20.2144C6.95181 20.2144 7.22376 20.0988 7.57697 19.9645C10.4308 18.9709 11.7812 18.7772 13.516 17.8866C16.7825 16.2244 20.0115 12.5874 20.6835 8.80354C19.4394 12.4437 15.6697 15.5713 12.2344 16.843C9.8807 17.7117 5.62959 18.5553 5.62959 18.5553L5.45767 18.4647C2.56317 17.0555 2.47564 10.7845 7.73639 8.7598C10.0401 7.87242 12.2438 8.35986 14.732 7.76619C17.3889 7.13503 20.4616 5.14155 21.7119 2.54192C23.1123 6.70071 24.7971 13.2123 21.7775 17.2367Z" fill="#77BC1F"/>
</g>
<defs>
<clipPath id="clip0_2709_296">
<rect width="24" height="24" fill="white"/>
</clipPath>
</defs>
</svg>
