<svg width="24" height="24" viewBox="0 0 24 24" fill="none" xmlns="http://www.w3.org/2000/svg">
<path d="M20.5889 22.4999C20.2391 22.1162 19.889 21.7325 19.5392 21.3484C19.4706 21.2728 19.4016 21.1976 19.3263 21.115C18.8401 21.3948 18.3279 21.5747 17.7777 21.6544C15.7031 21.9539 13.6704 20.5181 13.2851 18.4754C12.8584 16.215 14.3141 14.1284 16.5945 13.7307C18.7467 13.3556 20.8688 14.8773 21.2098 17.0416C21.3516 17.9401 21.216 18.795 20.7745 19.5937C20.7034 19.7219 20.7203 19.7925 20.8134 19.892C21.1635 20.2675 21.5054 20.6499 21.8498 21.0308C22.0553 21.258 22.0515 21.2978 21.8196 21.5123C21.4641 21.8409 21.1094 22.1704 20.7542 22.4991H20.5893L20.5889 22.4999ZM17.2456 20.8862C19.0055 20.8866 20.4512 19.4421 20.4516 17.6825C20.4525 15.9241 19.0158 14.5014 17.2365 14.4977C15.4522 14.494 14.0276 15.9065 14.0263 17.68C14.0251 19.4552 15.4613 20.8857 17.2456 20.8862Z" fill="#F4AF10"/>
<path d="M16.0454 8.4759C16.5915 8.63325 16.7879 8.92535 16.6511 9.41795C16.5498 9.78235 16.3873 10.1345 16.2124 10.4714C16.1566 10.5786 15.978 10.6312 15.8466 10.6879C15.7841 10.715 15.6998 10.6924 15.6093 10.6924C15.601 11.1952 15.4563 11.643 15.1425 12.0259C15.004 12.1948 14.8573 12.3604 14.6944 12.5058C14.5939 12.5954 14.5848 12.6763 14.6179 12.7909C14.7043 13.0896 14.6849 13.0686 14.4381 13.2613C14.0296 13.5805 13.6468 13.9318 13.2503 14.2666C13.1854 14.3217 13.1122 14.3878 13.0337 14.4026C11.9613 14.6064 10.9414 14.495 10.0174 13.8706C9.88802 13.7831 9.77887 13.666 9.66107 13.562C9.38697 13.3205 9.30552 13.0395 9.49157 12.7096C9.55647 12.5945 9.53082 12.5235 9.42997 12.4343C8.94627 12.007 8.63453 11.4832 8.56718 10.8321C8.56303 10.7918 8.54937 10.7524 8.53737 10.7014C8.02887 10.6875 7.77628 10.3608 7.66428 9.9237C7.58903 9.63035 7.55348 9.3169 7.56668 9.01575C7.57578 8.8054 7.69773 8.6004 7.77008 8.38925C7.76058 8.1444 7.75563 7.87735 7.73908 7.6107C7.71013 7.1485 7.69568 6.68345 7.63493 6.22495C7.56423 5.6909 7.24877 5.35155 6.70843 5.2332C6.64398 5.21925 6.58317 5.18805 6.48438 5.15145C6.78697 4.79774 7.06602 4.45552 7.36247 4.12891C8.05532 3.36558 8.80857 2.66963 9.70402 2.14089C10.2907 1.79374 10.9137 1.54847 11.5987 1.50616C12.5099 1.44987 13.2838 1.78183 13.9267 2.40711C14.1925 2.66594 14.4538 2.86355 14.8391 2.95475C15.5539 3.12401 16.064 3.61208 16.4406 4.22463C16.969 5.0837 17.1492 6.01955 16.9996 7.015C16.9219 7.53185 16.6275 7.93115 16.2691 8.29105C16.2116 8.34855 16.1434 8.3958 16.0454 8.4759Z" fill="#F4AF10"/>
<path d="M12.2822 19.4773H2.5C2.54547 19.1063 2.5707 18.7398 2.63891 18.3816C2.72283 17.9408 2.81792 17.4991 2.95228 17.0718C3.22306 16.2124 3.83987 15.6463 4.62454 15.2453C5.55185 14.7712 6.4853 14.3086 7.4122 13.8333C7.67965 13.696 7.9327 13.5321 8.20055 13.376C9.0729 15.1266 10.6 15.6027 12.4335 15.5247C11.8733 16.8192 11.8146 18.1228 12.2822 19.4773Z" fill="#F4AF10"/>
</svg>
