<svg width="24" height="24" viewBox="0 0 24 24" fill="none" xmlns="http://www.w3.org/2000/svg">
<path d="M19.3125 1.125H4.6875C2.51288 1.125 0.75 2.88788 0.75 5.0625V18.9375C0.75 21.1121 2.51288 22.875 4.6875 22.875H19.3125C21.4871 22.875 23.25 21.1121 23.25 18.9375V5.0625C23.25 2.88788 21.4871 1.125 19.3125 1.125Z" fill="#470137"/>
<path d="M12.3156 7.27874L9.54811 12.0337L12.5303 17.0962C12.5912 17.1994 12.565 17.25 12.4534 17.25H10.5934C10.5474 17.2549 10.5009 17.2457 10.4601 17.2238C10.4193 17.2019 10.3861 17.1683 10.3647 17.1272L8.26561 13.2769H8.24968L6.20593 17.1272C6.18713 17.1638 6.15869 17.1946 6.12366 17.2163C6.08863 17.2379 6.04835 17.2496 6.00718 17.25H4.21843C4.11624 17.25 4.09655 17.1994 4.15749 17.0962L7.08999 12.1725L4.29624 7.24781C4.2353 7.16624 4.25593 7.12499 4.35718 7.12499H6.22093C6.26089 7.12213 6.30083 7.13076 6.33605 7.14987C6.37127 7.16897 6.40028 7.19775 6.41968 7.23281L8.38843 11.0372H8.40343L10.3619 7.23281C10.3812 7.1979 10.4101 7.16922 10.4451 7.15013C10.4801 7.13104 10.5199 7.12232 10.5597 7.12499H12.2547C12.3672 7.12499 12.3869 7.17656 12.3156 7.27874ZM16.8625 17.4375C15.775 17.4375 14.9378 17.1291 14.2881 16.5131C13.6384 15.8972 13.3122 14.9869 13.3122 13.7812C13.3122 12.6856 13.6616 11.7856 14.3603 11.0812C14.7179 10.7112 15.1477 10.4187 15.6232 10.2219C16.0987 10.0251 16.6096 9.92832 17.1241 9.93749C17.3543 9.93339 17.5842 9.95796 17.8084 10.0106V6.83812C17.8067 6.82623 17.8078 6.81412 17.8116 6.80272C17.8153 6.79132 17.8217 6.78095 17.8301 6.77241C17.8386 6.76388 17.8489 6.75742 17.8603 6.75353C17.8716 6.74964 17.8837 6.74843 17.8956 6.74999H19.6094C19.6572 6.74999 19.6816 6.77906 19.6816 6.83812V15.7209C19.6816 16.0959 19.8437 16.4156 19.8691 16.6894C19.8742 16.7165 19.8697 16.7445 19.8564 16.7687C19.843 16.7928 19.8216 16.8115 19.7959 16.8216C18.955 17.2322 17.8525 17.4375 16.8625 17.4375ZM17.8122 15.9853V11.4506C17.7512 11.3437 17.4287 11.25 17.0987 11.25C16.8256 11.2429 16.5544 11.2969 16.3047 11.408C16.0551 11.5191 15.8335 11.6845 15.6559 11.8922C15.2235 12.3986 14.9903 13.0451 14.9997 13.7109C14.9997 14.5322 15.2809 15.0947 15.6475 15.4856C15.8208 15.6843 16.0342 15.844 16.2736 15.9542C16.5131 16.0644 16.7733 16.1226 17.0369 16.125C17.3866 16.125 17.7287 16.0725 17.8122 15.9853Z" fill="#FF61F6"/>
</svg>
