<svg width="24" height="24" viewBox="0 0 24 24" fill="none" xmlns="http://www.w3.org/2000/svg">
<g clip-path="url(#clip0_2707_271)">
<path d="M12.0052 3.24056e-06C18.5632 0.0128804 23.8274 5.2301 23.9958 11.6746C24.1741 18.5966 18.5344 24.1545 11.7249 23.997C5.35807 23.8524 0.292979 18.7719 0.0126307 12.5562C-0.299418 5.66792 5.21146 -0.0049495 12.0052 3.24056e-06Z" fill="#3398C2"/>
<path d="M7.58515 8.4038C7.66341 8.0997 7.77634 7.80551 7.92098 7.52518C8.06264 7.25476 8.26472 7.05269 8.55795 6.95562C8.76796 6.88727 8.94331 6.76642 9.10082 6.60694C9.65656 6.04827 10.3312 5.72337 11.1158 5.63621C11.2445 5.62333 11.3099 5.57578 11.3595 5.45494C11.4773 5.16867 11.624 4.89329 11.8181 4.64962C12.0747 4.3267 12.3818 4.086 12.8256 4.11175C13.1059 4.1276 13.3397 4.24548 13.5101 4.47132C13.7013 4.72292 13.843 5.00424 13.9797 5.28753C14.0242 5.37965 14.0609 5.41333 14.1738 5.38956C14.5879 5.29744 14.9237 5.47871 15.1021 5.86403C15.3091 6.31473 15.4091 6.79218 15.4587 7.28052C15.5637 8.29583 15.4953 9.29529 15.1516 10.268C14.9495 10.8396 14.6662 11.3695 14.3204 11.8677C14.2788 11.9282 14.2679 11.9678 14.3254 12.0302C15.2516 13.0693 15.7053 14.2807 15.6528 15.6764V15.7765C15.7182 15.7794 15.7687 15.7398 15.8183 15.7131C16.2274 15.5031 16.5999 15.2356 17.012 15.0286C17.5915 14.7374 18.1978 14.5333 18.8556 14.5383C19.8284 14.5462 20.4534 15.4932 20.0463 16.3371C19.8858 16.6699 19.6243 16.9067 19.2647 16.9849C18.6089 17.1315 18.0264 17.4287 17.4707 17.7932C16.5553 18.4014 15.5528 18.8531 14.5037 19.1988C14.4334 19.2226 14.367 19.2513 14.3066 19.2988C14.0262 19.5088 13.6983 19.595 13.3566 19.6426C12.3204 19.7872 11.2792 19.8496 10.2351 19.8942C9.80515 19.913 9.3772 19.8545 8.9968 19.6267C8.89477 19.5633 8.80561 19.4454 8.7006 19.4276C8.59857 19.4118 8.48266 19.5059 8.36973 19.5326C7.70106 19.6822 7.07399 19.5564 6.49447 19.2047C6.15072 18.9977 5.98826 18.6698 6.00609 18.2657C6.01104 18.1577 5.98033 18.0795 5.91693 17.9933C5.63856 17.605 5.50285 17.1622 5.42657 16.6947C5.27698 15.7745 5.60488 15.0137 6.21313 14.3471C6.27059 14.2837 6.29139 14.2213 6.29139 14.1371C6.29139 13.2169 6.46673 12.3402 6.93926 11.5379C7.20376 11.0892 7.54553 10.7039 7.92593 10.3552C7.99924 10.2898 8.00716 10.2452 7.95763 10.161C7.79715 9.89358 7.69808 9.59939 7.61091 9.30025C7.5376 9.24775 7.58515 9.16652 7.55543 9.10114C7.55048 9.05162 7.55543 9.0011 7.53958 8.95157V8.6237C7.55246 8.57615 7.55246 8.52663 7.55246 8.4771C7.56435 8.45333 7.5594 8.42163 7.58515 8.4038Z" fill="#FEFEFE"/>
<path d="M7.5768 9.09917C7.59761 9.16455 7.57185 9.23785 7.61048 9.30124C7.59959 9.30917 7.59959 9.36167 7.58473 9.32502C7.556 9.25469 7.5352 9.17544 7.5352 9.09917C7.53024 8.84757 7.50647 8.593 7.5768 8.34338C7.57978 8.36419 7.58176 8.38499 7.5877 8.40381C7.58473 8.42758 7.58275 8.45135 7.57977 8.47216C7.556 8.51673 7.58275 8.56923 7.55897 8.6138V8.95752C7.5768 9.0021 7.55402 9.0546 7.5768 9.09917Z" fill="#3298C3"/>
<path d="M14.9485 15.8131C14.9485 16.0548 14.8931 16.2906 14.8623 16.5263C14.8366 16.7333 14.8574 16.7571 15.0674 16.7204C15.5399 16.6392 15.9669 16.4401 16.379 16.2064C16.8198 15.9548 17.2399 15.6685 17.7114 15.4803C18.0759 15.3337 18.4484 15.2366 18.8447 15.2366C19.1884 15.2366 19.4272 15.4228 19.4688 15.717C19.5084 15.9894 19.3588 16.2499 19.0854 16.3074C18.3038 16.4728 17.6292 16.8581 16.9714 17.2861C16.0897 17.8556 15.1298 18.2667 14.1303 18.5817C14.0936 18.5926 14.0461 18.6005 14.0223 18.6233C13.7865 18.8729 13.4745 18.9145 13.1594 18.9561C12.2758 19.072 11.3862 19.1235 10.4947 19.176C10.2381 19.1919 9.98051 19.1998 9.72394 19.1503C9.31481 19.069 9.14145 18.9165 9.07904 18.5807C9.02357 18.2786 9.16523 17.9933 9.46737 17.7962C9.49907 17.7754 9.53275 17.7546 9.58327 17.7229C9.42081 17.6228 9.28707 17.505 9.18504 17.3584C9.13551 17.29 9.10876 17.3326 9.09291 17.3901C9.04338 17.5793 8.99286 17.7704 8.94332 17.9596C8.90964 18.0854 8.86705 18.2092 8.81454 18.3291C8.66199 18.6778 8.38461 18.8462 8.01709 18.8798C7.64164 18.9135 7.28798 18.8303 6.95216 18.6649C6.72134 18.552 6.65299 18.3816 6.72927 18.132C6.76889 17.9983 6.84517 17.8824 6.93631 17.7407C6.61931 17.8041 6.47963 17.6199 6.36967 17.397C6.123 16.9087 6.0388 16.3926 6.13885 15.8577C6.22008 15.4327 6.46972 15.087 6.76889 14.7879C6.94423 14.6126 6.99674 14.4442 6.99178 14.1975C6.95216 12.7731 7.49007 11.6033 8.5976 10.6989C8.69468 10.6177 8.79176 10.5335 8.89379 10.4602C8.95719 10.4156 8.96413 10.3869 8.91262 10.3215C8.62632 9.96194 8.40343 9.57166 8.3014 9.11799C8.18549 8.60686 8.35885 8.1631 8.61642 7.73815C8.65307 7.6807 8.71053 7.65198 8.77393 7.6282C9.09687 7.51231 9.3693 7.33698 9.61596 7.09033C10.1717 6.53464 10.8592 6.28007 11.6458 6.31374C11.7458 6.3187 11.7904 6.28997 11.8211 6.19587C11.939 5.85215 12.0856 5.52131 12.2827 5.21523C12.356 5.09933 12.4373 4.99235 12.5423 4.90617C12.7364 4.74571 12.9019 4.76948 13.0326 4.98245C13.2744 5.36777 13.4606 5.78281 13.6488 6.19686C13.6964 6.30186 13.733 6.33851 13.843 6.26719C13.9718 6.18596 14.1154 6.12851 14.26 6.07799C14.3759 6.03837 14.4433 6.06512 14.4938 6.18596C14.6404 6.53959 14.7197 6.91005 14.7643 7.29043C14.7771 7.39542 14.8009 7.49745 14.788 7.60245C14.7801 7.83027 14.791 8.05909 14.793 8.28989C14.793 8.39192 14.7563 8.49493 14.788 8.59894C14.7643 9.22299 14.5988 9.81335 14.3581 10.3849C14.1322 10.9198 13.8043 11.3943 13.4764 11.8697C13.3477 12.053 13.3506 12.056 13.5181 12.2055C14.3363 12.9425 14.788 13.8687 14.9396 14.9493C14.9446 14.991 14.9426 15.0355 14.9426 15.0801C14.9089 15.1801 14.9456 15.2772 14.9475 15.3743C14.9565 15.5219 14.9228 15.6695 14.9485 15.8131Z" fill="#3398C2"/>
<path d="M14.7903 8.60096C14.7586 8.5752 14.7665 8.53756 14.7665 8.50388V7.70352C14.7665 7.66984 14.7586 7.63319 14.7903 7.60645C14.825 7.93729 14.8269 8.27011 14.7903 8.60096Z" fill="#2B95C1"/>
<path d="M14.9481 15.8131C14.8956 15.611 14.9372 15.407 14.9243 15.2049C14.9213 15.1633 14.9084 15.1158 14.9481 15.0821C14.9817 15.3258 14.9768 15.5694 14.9481 15.8131Z" fill="#2693BF"/>
<path d="M7.55684 8.61382C7.55981 8.56627 7.53604 8.51377 7.57764 8.47217C7.57764 8.51872 7.58062 8.56924 7.55684 8.61382ZM7.57764 9.09919C7.53802 9.05758 7.55882 9.00508 7.55684 8.95754C7.58359 9.00211 7.57764 9.05164 7.57764 9.09919Z" fill="#3398C2"/>
</g>
<defs>
<clipPath id="clip0_2707_271">
<rect width="24" height="24" fill="white"/>
</clipPath>
</defs>
</svg>
