<svg width="123" height="35" viewBox="0 0 123 35" fill="none" xmlns="http://www.w3.org/2000/svg">
<path d="M0.849854 25.7567V25.7698C0.849854 25.7655 0.851474 25.7616 0.851474 25.7574L0.849854 25.7567Z" fill="#131D31"/>
<path d="M27.2097 25.7567L27.2072 25.757C27.2072 25.7645 27.2097 25.7719 27.2097 25.7794C27.2057 26.015 27.0888 26.2492 26.8564 26.3837L14.3855 33.6077C14.1661 33.7348 13.8956 33.7348 13.6759 33.6077L1.20468 26.3841C0.968541 26.2476 0.850472 26.0085 0.849854 25.7691V26.1899V26.8225C0.849854 27.0623 0.968232 27.3023 1.20468 27.4393L13.6756 34.6633C13.8953 34.7907 14.1658 34.7907 14.3852 34.6633L26.8561 27.439C27.0926 27.302 27.2109 27.0623 27.2109 26.8222V26.1893L27.2097 25.7567Z" fill="#131D31"/>
<path d="M27.2069 25.7573C27.2035 25.521 27.0892 25.2859 26.8561 25.1507L24.6397 23.8669L14.9107 29.5024C14.6433 29.6572 14.3389 29.739 14.0304 29.739C13.7219 29.739 13.4175 29.6575 13.1498 29.5024L3.42112 23.8669L1.20468 25.1507C0.971323 25.2859 0.854799 25.521 0.851399 25.7573C0.851399 25.7613 0.849854 25.765 0.849854 25.7691C0.850472 26.0085 0.968541 26.2476 1.20468 26.3843L13.6753 33.6082C13.895 33.7354 14.1655 33.7354 14.3849 33.6082L26.8561 26.384C27.0885 26.2494 27.2054 26.0153 27.2094 25.7796C27.2097 25.7719 27.2072 25.7647 27.2069 25.7573Z" fill="#223455"/>
<path d="M27.2096 19.8916C27.2093 19.8924 27.2096 19.8931 27.2096 19.8935V19.8916Z" fill="#131D31"/>
<path d="M27.2097 19.9143C27.2063 20.1506 27.0895 20.3856 26.8561 20.5208L14.3852 27.7451C14.1658 27.8722 13.8953 27.8722 13.6756 27.7451L1.20468 20.5208C0.968232 20.3841 0.850163 20.145 0.849854 19.9053C0.849854 19.9009 0.851399 19.8966 0.851399 19.8923L0.849854 19.8916V20.3248V20.9572C0.849854 21.1969 0.968232 21.4369 1.20468 21.574L13.6756 28.7979C13.8953 28.9253 14.1658 28.9253 14.3852 28.7979L26.8561 21.574C27.0926 21.4369 27.2109 21.1972 27.2109 20.9572V20.3242L27.2097 19.9143Z" fill="#131D31"/>
<path d="M27.2103 19.9095V19.9C27.2103 19.8978 27.2097 19.8959 27.2097 19.8937V19.8933V19.9149C27.2097 19.913 27.2103 19.9114 27.2103 19.9095Z" fill="#223455"/>
<path d="M27.2097 19.8932C27.2097 19.8926 27.2094 19.8923 27.2094 19.8916C27.2054 19.656 27.0885 19.4221 26.8561 19.2876L24.6397 18.0037L14.911 23.6393C14.6436 23.794 14.3392 23.8759 14.0301 23.8759C13.7213 23.8759 13.4169 23.794 13.1495 23.6393L3.42081 18.0037L1.20468 19.2876C0.971941 19.4225 0.855417 19.6566 0.851399 19.8923C0.851399 19.8966 0.849854 19.901 0.849854 19.9053C0.850163 20.1447 0.968232 20.3841 1.20468 20.5209L13.6753 27.7448C13.895 27.8719 14.1655 27.8719 14.3849 27.7448L26.8561 20.5209C27.0895 20.3856 27.2063 20.1506 27.2097 19.9143V19.8932Z" fill="#223455"/>
<path d="M0.849854 14.0305V14.0415C0.849854 14.0379 0.85113 14.0347 0.85113 14.0312L0.849854 14.0305Z" fill="#34898B"/>
<path d="M27.2097 14.052C27.206 14.2883 27.0892 14.5231 26.8561 14.658L14.3852 21.8816C14.1658 22.0087 13.8953 22.0087 13.6756 21.8816L1.20468 14.658C0.968232 14.5209 0.850163 14.2815 0.849854 14.0418V14.4636V15.0962C0.849854 15.3359 0.968232 15.5759 1.20468 15.713L13.6756 22.9369C13.8953 23.0643 14.1658 23.0643 14.3852 22.9369L26.8561 15.7127C27.0926 15.5756 27.2109 15.3359 27.2109 15.0959V14.4629L27.2097 14.052Z" fill="#34898B"/>
<path d="M26.8561 13.4244L24.6397 12.1406L14.911 17.7761C14.6436 17.9309 14.3392 18.0128 14.0301 18.0128C13.7213 18.0128 13.4169 17.9309 13.1495 17.7761L3.42112 12.1406L1.20468 13.4244C0.971632 13.5596 0.85449 13.7947 0.85109 14.031C0.85109 14.0344 0.849854 14.0375 0.849854 14.0409V14.0419C0.850163 14.2816 0.968232 14.521 1.20468 14.658L13.6753 21.882C13.895 22.0091 14.1655 22.0091 14.3849 21.882L26.8561 14.6577C27.0892 14.5228 27.206 14.2881 27.2097 14.0518C27.2097 14.0481 27.2109 14.0446 27.2109 14.0409C27.2109 13.8015 27.0926 13.5615 26.8561 13.4244Z" fill="#43B8BA"/>
<path d="M0.849854 8.16766V8.1749C0.849854 8.17264 0.850749 8.16993 0.850749 8.16766H0.849854Z" fill="#34898B"/>
<path d="M27.2097 8.18375C27.2078 8.4216 27.0904 8.65883 26.8555 8.79496L14.3846 16.0189C14.1652 16.146 13.8944 16.146 13.6749 16.0189L1.20406 8.79496C0.96916 8.65914 0.851708 8.42191 0.849854 8.18406V8.60053V9.23314C0.849854 9.47286 0.968232 9.71288 1.20468 9.84995L13.6756 17.0739C13.8953 17.2013 14.1658 17.2013 14.3852 17.0739L26.8561 9.84964C27.0926 9.71257 27.2109 9.47286 27.2109 9.23284V8.59991L27.2097 8.18375Z" fill="#34898B"/>
<path d="M27.2099 8.16766H27.209C27.209 8.16993 27.2099 8.17264 27.2099 8.1749V8.16766Z" fill="#34898B"/>
<path d="M27.2091 8.16735C27.2057 7.93105 27.0885 7.6963 26.8555 7.56141L14.3846 0.337179C14.1648 0.210035 13.8944 0.210035 13.6749 0.337179L1.20406 7.56141C0.971014 7.6963 0.854181 7.93105 0.850472 8.16735C0.850472 8.16921 0.849854 8.17076 0.849854 8.17232V8.18379C0.851708 8.42164 0.96916 8.65887 1.20406 8.7947L13.6749 16.0186C13.8947 16.1458 14.1652 16.1458 14.3846 16.0186L26.8555 8.7947C27.0901 8.65856 27.2078 8.42133 27.2097 8.18348V8.17232C27.2097 8.17045 27.2091 8.1689 27.2091 8.16735Z" fill="#43B8BA"/>
<path d="M18.8743 5.3292L18.874 5.34254C18.8681 5.43867 18.8039 5.53387 18.6771 5.60737C18.4116 5.76118 17.9814 5.76118 17.7159 5.60737L14.04 3.47818L10.3449 5.61884C10.0794 5.77265 9.64912 5.77265 9.38362 5.61884C9.25195 5.54256 9.18581 5.4427 9.18457 5.34254C9.1855 5.40084 9.18673 5.45883 9.18766 5.51713C9.19013 5.64334 9.1923 5.76955 9.19477 5.89577C9.19693 6.01764 9.19941 6.13982 9.20157 6.26169C9.20281 6.32619 9.19477 6.39721 9.22784 6.45489C9.2708 6.52993 9.32984 6.57242 9.40309 6.6149C9.66859 6.76871 10.0988 6.76871 10.364 6.6149L14.0597 4.47424L17.7357 6.60343C18.0012 6.75724 18.4314 6.75724 18.6966 6.60343C18.8283 6.52745 18.8938 6.4276 18.8957 6.32774V6.32557C18.8957 6.32495 18.8957 6.32464 18.8957 6.32433L18.8743 5.3292Z" fill="#34898B"/>
<path d="M18.6773 5.05073L14.5211 2.64307C14.2556 2.48926 13.8253 2.48926 13.5598 2.64307L9.38381 5.06221C9.25028 5.13973 9.18414 5.24114 9.18507 5.34285C9.186 5.44302 9.25214 5.54287 9.38381 5.61916C9.64931 5.77297 10.0796 5.77297 10.3451 5.61916L14.0405 3.47849L17.7164 5.60768C17.9819 5.7615 18.4121 5.7615 18.6776 5.60768C18.8044 5.53419 18.8686 5.43898 18.8745 5.34285C18.8807 5.23742 18.8161 5.13105 18.6773 5.05073Z" fill="white"/>
<path d="M40.4438 11.0684L36.7827 24.5497H38.4592L39.3027 21.1645H43.0107L43.8542 24.5497H45.5499L41.8891 11.0684H40.4438ZM42.6513 19.7421H39.6618L41.1565 13.7257L42.6513 19.7421Z" fill="#223455"/>
<path d="M48.4496 21.7516V11.0684H46.9165V21.8092C46.9165 22.6937 47.156 23.3787 47.6283 23.846C48.1 24.3127 48.7861 24.5497 49.667 24.5497H50.0982V23.1653H49.7054C48.8603 23.1653 48.4496 22.703 48.4496 21.7516Z" fill="#223455"/>
<path d="M54.8806 14.2417C54.1422 14.2417 53.5475 14.5351 53.1074 15.115V14.3955H51.5935V27.473H53.1074V23.8872C53.5494 24.4293 54.1509 24.7034 54.9001 24.7034C55.7077 24.7034 56.3698 24.4098 56.8677 23.8302C57.3616 23.2555 57.612 22.3748 57.612 21.2129V17.7319C57.612 16.57 57.3616 15.6893 56.8677 15.1146C56.3695 14.5354 55.7012 14.2417 54.8806 14.2417ZM56.0981 17.8858V21.0591C56.0981 21.8787 55.9726 22.4694 55.725 22.8149C55.4818 23.1541 55.1303 23.3191 54.6506 23.3191C54.1456 23.3191 53.7722 23.1386 53.5098 22.7674C53.2428 22.39 53.1074 21.8219 53.1074 21.0783V17.905C53.1074 17.1483 53.2431 16.5703 53.5101 16.1864C53.7729 15.809 54.1459 15.6254 54.6506 15.6254C55.6246 15.6257 56.0981 16.365 56.0981 17.8858Z" fill="#223455"/>
<path d="M63.0076 14.2417C62.5962 14.2417 62.2086 14.3363 61.8563 14.5233C61.6004 14.6588 61.3794 14.835 61.1958 15.0486V11.0684H59.6819V24.5497H61.1958V17.309C61.1958 16.7626 61.3315 16.3402 61.5988 16.054C61.868 15.7659 62.2096 15.6257 62.6432 15.6257C63.0895 15.6257 63.4342 15.7656 63.6969 16.0531C63.9584 16.3393 64.0906 16.7617 64.0906 17.3087V24.5493H65.6045V17.2513C65.6045 16.3064 65.3767 15.5619 64.9273 15.0381C64.4742 14.5097 63.8282 14.2417 63.0076 14.2417Z" fill="#223455"/>
<path d="M70.5408 14.2417C69.6991 14.2417 69.0139 14.4842 68.5039 14.9624C67.9921 15.4424 67.7324 16.1092 67.7324 16.9433V17.2221H69.1697V16.9629C69.1697 16.5325 69.2884 16.1954 69.5224 15.9606C69.7563 15.7259 70.0991 15.6068 70.5408 15.6068C71.5017 15.6068 71.9691 16.1197 71.9691 17.1744V18.6651H70.5408C69.5579 18.6651 68.7945 18.9311 68.2715 19.4555C67.7485 19.9802 67.4836 20.7136 67.4836 21.6359C67.4836 22.5929 67.7111 23.3501 68.1599 23.8866C68.6133 24.4284 69.2726 24.7031 70.1189 24.7031C70.9268 24.7031 71.5669 24.4163 72.0265 23.85V24.5493H73.4829V17.2321C73.4829 16.2977 73.2279 15.5581 72.7251 15.0337C72.2213 14.5081 71.4863 14.2417 70.5408 14.2417ZM71.9691 19.8568V21.5977C71.9691 22.1584 71.8327 22.5975 71.5642 22.903C71.2952 23.209 70.9228 23.3576 70.4258 23.3576C69.4646 23.3576 68.9972 22.7882 68.9972 21.6166C68.9972 20.4323 69.5458 19.8568 70.6749 19.8568H71.9691Z" fill="#223455"/>
<path d="M79.5495 17.0952L78.7632 16.7873C78.0548 16.5128 77.5501 16.1996 77.2629 15.8563C76.9804 15.5183 76.837 15.0429 76.837 14.4432C76.837 13.7675 76.9959 13.2406 77.3096 12.8775C77.6196 12.5187 78.0956 12.3369 78.7252 12.3369C79.9482 12.3369 80.585 13.0657 80.6715 14.5647L80.6774 14.6643H82.2092L82.2045 14.5542C82.1523 13.3404 81.8197 12.4145 81.2158 11.8017C80.6103 11.1874 79.7786 10.876 78.745 10.876C77.6592 10.876 76.7919 11.2106 76.1672 11.8705C75.5438 12.5289 75.2276 13.4205 75.2276 14.5204C75.2276 15.4513 75.4548 16.2049 75.903 16.76C76.3468 17.3101 77.0194 17.7672 77.9009 18.1186L78.6668 18.4259C79.4268 18.7385 79.9578 19.0712 80.2459 19.4154C80.5284 19.7531 80.6718 20.2673 80.6718 20.9439C80.6718 21.7217 80.5095 22.3034 80.1896 22.6731C79.8734 23.0381 79.3811 23.2235 78.7258 23.2235C78.082 23.2235 77.5822 23.0375 77.2404 22.6703C76.8954 22.3 76.7016 21.6727 76.6648 20.805L76.6602 20.7039H75.0913L75.0935 20.8115C75.1194 22.0628 75.435 23.0306 76.0312 23.6881C76.6305 24.3489 77.5179 24.6841 78.668 24.6841C79.8299 24.6841 80.7327 24.3529 81.3512 23.6992C81.9684 23.0474 82.2809 22.1137 82.2809 20.9244C82.2809 19.8917 82.0475 19.0737 81.5873 18.4932C81.1305 17.917 80.4449 17.4466 79.5495 17.0952Z" fill="#223455"/>
<path d="M86.2486 11.6635L84.735 12.356V14.3955H83.47V15.6257H84.735V21.8285C84.735 23.6342 85.6864 24.5497 87.5622 24.5497H87.9934V23.1846H87.6197C87.153 23.1846 86.8044 23.0692 86.5834 22.8413C86.3614 22.6127 86.2489 22.2524 86.2489 21.7705V15.6254H88.1467V14.3952H86.2489V11.6635H86.2486Z" fill="#223455"/>
<path d="M93.4656 14.2417C93.0035 14.2417 92.581 14.3394 92.2095 14.5323C91.9344 14.6752 91.697 14.8762 91.5005 15.1317V14.3955H90.0249V24.5496H91.5388V17.3859C91.5388 16.8407 91.6961 16.4062 92.0064 16.0949C92.3211 15.7792 92.717 15.6257 93.2165 15.6257C93.4978 15.6257 93.809 15.6821 94.1416 15.7935L94.2801 15.8397V14.3416L94.2003 14.3217C93.9883 14.2687 93.741 14.2417 93.4656 14.2417Z" fill="#223455"/>
<path d="M98.7943 14.2417C97.847 14.2417 97.0947 14.5515 96.559 15.1621C96.0265 15.769 95.7563 16.6723 95.7563 17.8473V21.0591C95.7563 23.4773 96.798 24.7034 98.8518 24.7034C99.7973 24.7034 100.542 24.4271 101.065 23.8826C101.587 23.339 101.851 22.5249 101.851 21.4631V21.3H100.357V21.4824C100.357 22.7442 99.877 23.3576 98.8898 23.3576C98.369 23.3576 97.979 23.1879 97.6968 22.8391C97.4133 22.4883 97.2699 21.883 97.2699 21.0398V19.9721H101.87V17.8473C101.87 16.6717 101.593 15.768 101.048 15.1609C100.499 14.5512 99.741 14.2417 98.7943 14.2417ZM97.2699 17.8858C97.2699 17.0674 97.4044 16.4776 97.6696 16.1327C97.9323 15.7916 98.3063 15.6257 98.8132 15.6257C99.321 15.6257 99.6987 15.7891 99.9676 16.125C100.238 16.463 100.376 17.0426 100.376 17.8476V18.7615H97.2699V17.8858Z" fill="#223455"/>
<path d="M106.634 14.2417C105.792 14.2417 105.107 14.4842 104.597 14.9624C104.085 15.4424 103.825 16.1092 103.825 16.9433V17.2221H105.263V16.9629C105.263 16.5325 105.381 16.1954 105.615 15.9606C105.849 15.7259 106.192 15.6068 106.634 15.6068C107.595 15.6068 108.062 16.1197 108.062 17.1744V18.6651H106.634C105.651 18.6651 104.887 18.9311 104.365 19.4555C103.842 19.9802 103.577 20.7136 103.577 21.6359C103.577 22.5929 103.804 23.3501 104.253 23.8866C104.706 24.4284 105.366 24.7031 106.212 24.7031C107.02 24.7031 107.66 24.4163 108.12 23.85V24.5493H109.576V17.2321C109.576 16.298 109.321 15.5584 108.818 15.0337C108.314 14.5081 107.579 14.2417 106.634 14.2417ZM108.062 19.8568V21.5977C108.062 22.1584 107.926 22.5975 107.657 22.903C107.388 23.209 107.016 23.3576 106.519 23.3576C105.558 23.3576 105.09 22.7882 105.09 21.6166C105.09 20.4323 105.639 19.8568 106.768 19.8568H108.062Z" fill="#223455"/>
<path d="M121.473 15.0381C121.019 14.5096 120.348 14.2417 119.477 14.2417C119 14.2417 118.559 14.3564 118.168 14.5828C117.824 14.7816 117.531 15.056 117.294 15.3993C117.079 15.0678 116.8 14.7971 116.464 14.5934C116.078 14.3598 115.634 14.2417 115.144 14.2417C114.706 14.2417 114.305 14.3434 113.952 14.5437C113.702 14.6858 113.488 14.8635 113.313 15.0743V14.3955H111.818V24.5496H113.351V17.309C113.351 16.7743 113.484 16.3548 113.746 16.062C114.009 15.7687 114.347 15.6257 114.78 15.6257C115.225 15.6257 115.57 15.7684 115.832 16.062C116.094 16.3548 116.227 16.7743 116.227 17.309V24.5496H117.741V17.2897C117.741 16.7681 117.877 16.3554 118.145 16.063C118.414 15.769 118.762 15.6257 119.208 15.6257C119.641 15.6257 119.976 15.7652 120.232 16.0521C120.488 16.3386 120.617 16.7613 120.617 17.3086V24.5493H122.15V17.2513C122.15 16.3064 121.922 15.5618 121.473 15.0381Z" fill="#223455"/>
</svg>
