<svg width="97" height="23" viewBox="0 0 97 23" fill="none" xmlns="http://www.w3.org/2000/svg">
<path d="M7.93604 7.84766V2.79437C11.3517 2.70079 17.3408 4.37352 17.06 11.2867C16.7729 18.3565 10.603 19.5685 7.93604 19.3228V14.0941C8.83674 14.1409 10.6732 13.6449 10.8136 11.2867C10.954 8.92849 8.95375 8.01144 7.93604 7.84766Z" fill="#4DD0E1"/>
<path d="M13.4175 4.12247L7.93604 6.10576V8.07089C9.11515 8.21126 9.90123 8.9716 10.1468 9.33421L16.6543 13.8227C17.8963 8.24367 15.9589 5.64676 13.4175 4.12247Z" fill="#42C5D6"/>
<path d="M7.16375 19.2874V2.79407H1.36182V19.2874H7.16375Z" fill="#4DD0E1"/>
<path d="M1.36182 13.4272L7.16177 10.4591V15.0547L1.36182 17.7356V13.4272Z" fill="#42C5D6"/>
<path d="M8.13686 13.5276C8.13879 13.9768 7.7764 14.3424 7.3271 14.3446L4.07619 14.3593C2.33944 14.3671 0.920488 12.9611 0.912879 11.2249C0.904193 9.34447 2.42689 7.80772 4.30712 7.79927L7.29932 7.78602C7.51517 7.78519 7.72267 7.86973 7.87574 8.02169C8.02935 8.17348 8.1156 8.38016 8.11643 8.596L8.13686 13.5276Z" fill="#5964EB"/>
<path d="M6.31861 13.5276C6.31668 13.9768 6.67907 14.3424 7.12838 14.3446L10.3793 14.3593C12.1161 14.3671 13.535 12.9611 13.5426 11.2249C13.5513 9.34447 12.0286 7.80772 10.1484 7.79927L7.15615 7.78602C6.9403 7.78519 6.7328 7.86973 6.57973 8.02169C6.42612 8.17348 6.33987 8.38016 6.33904 8.596L6.31861 13.5276Z" fill="#FEFEFF"/>
<path d="M7.64627 7.78497H5.09253V14.3458H7.64627V7.78497Z" fill="#5964EB"/>
<path d="M18.8464 12.5432C18.8464 16.6263 21.3752 19.2246 24.5302 19.2246C26.4558 19.2246 27.8245 18.3431 28.5437 17.2063V19.039H32.5108V6.09388H28.5437V7.9266C27.8477 6.78984 26.479 5.90829 24.5534 5.90829C21.3752 5.90829 18.8464 8.46017 18.8464 12.5432ZM28.5437 12.5664C28.5437 14.6312 27.2213 15.7679 25.7134 15.7679C24.2286 15.7679 22.8831 14.608 22.8831 12.5432C22.8831 10.4785 24.2286 9.36496 25.7134 9.36496C27.2213 9.36496 28.5437 10.5017 28.5437 12.5664Z" fill="#5964EB"/>
<path d="M37.5614 19.039H41.9229L44.034 10.641L46.0756 19.039H50.4602L53.9633 6.0939H50.2282L48.4186 15.304L46.2147 6.0939H42.0157L39.8349 15.3503L38.0022 6.0939H34.0352L37.5614 19.039Z" fill="#5964EB"/>
<path d="M54.6875 12.5432C54.6875 16.6263 57.2165 19.2246 60.371 19.2246C62.297 19.2246 63.6659 18.3431 64.3848 17.2063V19.039H68.3516V6.09388H64.3848V7.9266C63.6891 6.78984 62.3202 5.90829 60.3948 5.90829C57.2165 5.90829 54.6875 8.46017 54.6875 12.5432ZM64.3848 12.5664C64.3848 14.6312 63.0623 15.7679 61.5543 15.7679C60.0695 15.7679 58.7239 14.608 58.7239 12.5432C58.7239 10.4785 60.0695 9.36496 61.5543 9.36496C63.0623 9.36496 64.3848 10.5017 64.3848 12.5664Z" fill="#5964EB"/>
<path d="M73.4024 19.039H77.764L79.875 10.641L81.9169 19.039H86.3012L89.8042 6.0939H86.0693L84.2598 15.304L82.0561 6.0939H77.8568L75.6763 15.3503L73.8436 6.0939H69.8762L73.4024 19.039Z" fill="#5964EB"/>
<path d="M91.749 21.1184L95.7158 22.5435V6.09391H91.749V21.1184ZM93.744 4.74836C95.136 4.74836 96.0874 3.7972 96.0874 2.61404C96.0874 1.40768 95.136 0.456512 93.744 0.456512C92.3288 0.456512 91.3779 1.40768 91.3779 2.61404C91.3779 3.7972 92.3288 4.74836 93.744 4.74836Z" fill="#5964EB"/>
</svg>
