<svg width="76" height="23" viewBox="0 0 76 23" fill="none" xmlns="http://www.w3.org/2000/svg">
<path d="M4.84359 18.3794H13.1791V22.5003H0.535346V0.64692H4.84359V18.3794ZM25.5111 6.89075H29.5383V22.5003H25.5111V20.6584C24.3039 22.1777 22.6077 22.9374 20.4224 22.9374C18.3411 22.9374 16.5512 22.1465 15.0527 20.5647C13.575 18.9621 12.8361 17.0057 12.8361 14.6955C12.8361 12.3853 13.575 10.4393 15.0527 8.85755C16.5512 7.25497 18.3411 6.45368 20.4224 6.45368C22.6077 6.45368 24.3039 7.21334 25.5111 8.73267V6.89075ZM18.0809 17.8799C18.8926 18.6916 19.9229 19.0974 21.1716 19.0974C22.4204 19.0974 23.4506 18.6916 24.2623 17.8799C25.0948 17.0474 25.5111 15.9859 25.5111 14.6955C25.5111 13.4051 25.0948 12.3541 24.2623 11.5424C23.4506 10.7099 22.4204 10.2936 21.1716 10.2936C19.9229 10.2936 18.8926 10.7099 18.0809 11.5424C17.2692 12.3541 16.8634 13.4051 16.8634 14.6955C16.8634 15.9859 17.2692 17.0474 18.0809 17.8799ZM40.3825 6.45368C42.0892 6.45368 43.494 7.02603 44.5971 8.17073C45.721 9.31543 46.2829 10.8972 46.2829 12.916V22.5003H42.2557V13.4155C42.2557 12.3749 41.9747 11.584 41.4128 11.0429C40.8508 10.4809 40.1016 10.2 39.165 10.2C38.1244 10.2 37.2918 10.5226 36.6675 11.1678C36.0431 11.813 35.7309 12.7808 35.7309 14.0711V22.5003H31.7036V6.89075H35.7309V8.63901C36.7091 7.18212 38.2596 6.45368 40.3825 6.45368ZM55.6652 22.9374C53.3134 22.9374 51.3466 22.1465 49.7648 20.5647C48.2038 18.983 47.4234 17.0266 47.4234 14.6955C47.4234 12.3645 48.2038 10.4081 49.7648 8.82633C51.3466 7.24456 53.3134 6.45368 55.6652 6.45368C57.1845 6.45368 58.5686 6.8179 59.8174 7.54635C61.0661 8.27479 62.0131 9.25299 62.6583 10.4809L59.193 12.5102C58.8808 11.865 58.4021 11.3551 57.7569 10.9804C57.1325 10.6058 56.4249 10.4185 55.634 10.4185C54.4269 10.4185 53.4278 10.8244 52.637 11.6361C51.8461 12.4269 51.4506 13.4468 51.4506 14.6955C51.4506 15.9235 51.8461 16.9433 52.637 17.755C53.4278 18.5459 54.4269 18.9413 55.634 18.9413C56.4457 18.9413 57.1637 18.7644 57.7881 18.4106C58.4333 18.036 58.912 17.5261 59.2242 16.8809L62.7207 18.8789C62.0339 20.1068 61.0661 21.0954 59.8174 21.8447C58.5686 22.5731 57.1845 22.9374 55.6652 22.9374ZM67.5133 9.57559C67.8879 8.57658 68.5019 7.82732 69.3552 7.32781C70.2294 6.82831 71.1972 6.57855 72.2586 6.57855V11.0741C71.0307 10.9284 69.9276 11.1782 68.9494 11.8234C67.992 12.4686 67.5133 13.5404 67.5133 15.0389V22.5003H63.486V6.89075H67.5133V9.57559ZM75.1163 22.1257C74.596 22.646 73.9716 22.9062 73.2432 22.9062C72.5147 22.9062 71.8903 22.646 71.37 22.1257C70.8497 21.6054 70.5895 20.981 70.5895 20.2525C70.5895 19.5241 70.8497 18.8997 71.37 18.3794C71.8903 17.8591 72.5147 17.5989 73.2432 17.5989C73.9716 17.5989 74.596 17.8591 75.1163 18.3794C75.6366 18.8997 75.8968 19.5241 75.8968 20.2525C75.8968 20.981 75.6366 21.6054 75.1163 22.1257Z" fill="#406AE8"/>
</svg>
