<svg width="144" height="24" viewBox="0 0 144 24" fill="none" xmlns="http://www.w3.org/2000/svg">
<g clip-path="url(#clip0_2161_867)">
<mask id="mask0_2161_867" style="mask-type:luminance" maskUnits="userSpaceOnUse" x="0" y="0" width="144" height="24">
<path d="M144 0H0V24H144V0Z" fill="white"/>
</mask>
<g mask="url(#mask0_2161_867)">
<path d="M10.9338 24C10.2213 24 9.50888 23.8165 8.87461 23.4493L2.05917 19.5148C0.788774 18.7806 0 17.4139 0 15.9473V8.0509C0 6.58426 0.788774 5.21764 2.05917 4.48344L8.87461 0.550658C10.145 -0.183553 11.7244 -0.183553 12.9929 0.550658L19.8065 4.48525C21.077 5.21764 21.8657 6.58426 21.8657 8.05271V15.951C21.8657 17.4175 21.077 18.7842 19.8065 19.5184L12.9929 23.4511C12.3586 23.8183 11.6462 24.0018 10.9338 24.0018V24ZM10.9338 1.02862C10.3994 1.02862 9.8651 1.16674 9.38892 1.44116L2.57532 5.37572C1.62298 5.92639 1.03049 6.95138 1.03049 8.0509V15.9491C1.03049 17.0486 1.62298 18.0736 2.57532 18.6243L9.38892 22.5588C10.3413 23.1095 11.5244 23.1077 12.4768 22.5588L19.2904 18.6261C20.2427 18.0754 20.8352 17.0504 20.8352 15.951V8.0509C20.8352 6.95138 20.2446 5.92639 19.2904 5.37572L12.4786 1.44298C12.0024 1.16856 11.4681 1.03044 10.9338 1.03044V1.02862Z" fill="#D1492E"/>
<path d="M6.92276 15.3784C5.09986 15.3784 3.96943 13.841 3.96577 12.418C3.95668 12.3326 3.97304 12.2399 3.98579 12.1672C3.9985 12.0999 4.00578 12.0563 4.0094 12.0163C4.02577 11.8964 4.05303 11.7601 4.08939 11.6238C4.15482 11.3566 4.25113 11.0931 4.37652 10.8423C4.45651 10.6824 4.55463 10.5243 4.66912 10.3735C4.72365 10.2953 4.77819 10.2299 4.83634 10.1663L4.89087 10.0972C4.96173 10.0082 4.98537 9.98636 4.99446 9.98089C5.18166 9.8228 5.29796 9.72464 5.41245 9.64103L9.14552 6.5461H9.13643C9.35089 6.37164 9.68166 6.09722 10.2123 5.65558L12.7477 3.53837C12.7568 3.53474 12.7659 3.53474 12.7731 3.53474C12.7931 3.53474 12.8058 3.54383 12.8149 3.55836C12.8186 3.56563 12.8186 3.58017 12.8095 3.59471L8.36945 10.5533C8.07138 11.0186 8.05324 11.5856 8.31858 12.0709C8.58392 12.5561 9.07281 12.845 9.62532 12.845H11.0229L11.2138 12.8414C11.3047 12.8414 11.401 12.8487 11.4718 12.9032C11.5227 12.9414 11.5573 13.0159 11.5482 13.0686C11.5318 13.1758 11.45 13.2885 11.3864 13.3794L10.0179 15.3803H6.92823L6.92276 15.3784Z" fill="#D1492E"/>
<path d="M9.09462 20.4725C9.08188 20.4725 9.0637 20.4616 9.05099 20.4434C9.04737 20.4362 9.04737 20.4216 9.05827 20.4071L13.4983 13.4484C13.7963 12.9832 13.8145 12.4144 13.5492 11.931C13.2838 11.4457 12.795 11.1567 12.2424 11.1567H10.8448L10.654 11.1604C10.5631 11.1604 10.4668 11.1531 10.3959 11.0986C10.345 11.0604 10.3123 10.9859 10.3196 10.9332C10.3359 10.826 10.4177 10.7133 10.4813 10.6224L11.8499 8.62155H14.9395C16.7624 8.62155 17.8929 10.159 17.8965 11.582C17.9038 11.6638 17.8911 11.7474 17.8765 11.8328C17.8638 11.9001 17.8547 11.9437 17.8529 11.9836C17.8365 12.1036 17.8093 12.2399 17.7729 12.3762C17.7075 12.6434 17.6112 12.9069 17.4858 13.1577C17.4058 13.3176 17.3077 13.4757 17.1932 13.6265C17.1386 13.7047 17.0841 13.7701 17.026 13.8337L16.9714 13.9028C16.9006 13.9918 16.8769 14.0136 16.8678 14.0191C16.6806 14.1772 16.5643 14.2753 16.4498 14.3589L12.7168 17.4539H12.7259C12.5151 17.6247 12.1897 17.8937 11.6736 18.3244L9.11461 20.4616L9.09096 20.4725H9.09462Z" fill="#D1492E"/>
<path d="M35.6565 11.3675V11.3149C35.6565 10.8514 35.1621 10.468 34.5641 10.468H29.7152C29.1173 10.468 28.6229 10.8514 28.6229 11.3149V11.3675C28.6229 11.831 29.1173 12.2144 29.7152 12.2144H34.0171C35.1276 12.2144 36.1163 12.5852 36.7996 13.1686C36.8505 13.2085 36.885 13.2485 36.9359 13.2885C37.4648 13.7919 37.7901 14.4407 37.7901 15.1422C37.7901 16.7578 36.0999 18.0681 34.0171 18.0681H30.2786C28.1958 18.0681 26.5056 16.7578 26.5056 15.1422H28.6393C28.6393 15.8437 29.3735 16.4125 30.2786 16.4125H34.0171C34.9222 16.4125 35.6728 15.8437 35.6728 15.1422C35.6728 14.4407 34.9222 13.8719 34.0171 13.8719H29.7152C28.8447 13.8719 28.0595 13.6065 27.4797 13.1704C27.3253 13.0504 27.1889 12.9196 27.069 12.7724C26.711 12.3744 26.5056 11.8855 26.5056 11.3548V11.3021C26.5056 9.92459 27.9396 8.79962 29.7152 8.79962H34.5641C36.3398 8.79962 37.7901 9.92459 37.7901 11.3021V11.3548L35.6565 11.3675Z" fill="#231F20"/>
<path d="M50.9359 16.0691L50.1671 18.0681L48.5968 16.3725L46.2232 13.8428L43.8677 16.3725L42.2974 18.0536L41.5286 16.0672L38.7461 8.79781H40.9652L43.117 14.3862L44.9272 12.4398L45.2691 12.069L46.2413 11.0368L47.2135 12.069L47.5554 12.4398L49.3656 14.3862L51.5174 8.79781H53.7364L50.9374 16.0672L50.9359 16.0691Z" fill="#231F20"/>
<path d="M54.6614 18.0681V8.79781H56.7954V18.0663H54.6614V18.0681Z" fill="#231F20"/>
<path d="M67.9345 8.78514V10.4407H60.9482C60.3501 10.4407 59.856 10.8242 59.856 11.2876V12.149H66.7912V13.8046H59.8394V18.0555H57.7219V11.3022C57.7219 9.92459 59.156 8.79966 60.9316 8.79966L67.9361 8.78695L67.9345 8.78514Z" fill="#231F20"/>
<path d="M80.2859 8.81241V10.468H75.6877V18.0827H73.5541V10.468H68.9685V8.81241H80.2859Z" fill="#231F20"/>
<path d="M95.2143 16.4253L96.3065 18.0809H93.9168L92.8246 16.4253L91.6812 14.6915L91.6305 14.6116C91.2539 14.1355 90.589 13.8174 89.8202 13.8174H87.0484V18.0809H84.9148V8.81241H93.0988C93.9856 8.81241 94.789 9.09045 95.369 9.54118C95.9485 10.0046 96.3085 10.6261 96.3085 11.3149C96.3085 12.3217 95.5397 13.1959 94.431 13.5921C94.1402 13.6975 93.833 13.7647 93.5095 13.7901L95.2163 16.4253H95.2143ZM93.0968 12.1618C93.2515 12.1618 93.4041 12.1345 93.5406 12.0818C93.9329 11.9492 94.1894 11.6457 94.1894 11.3131C94.1894 11.0078 93.984 10.797 93.8656 10.7043C93.7295 10.5989 93.4734 10.4662 93.0968 10.4662H87.0469V12.1745L93.0968 12.1618Z" fill="#231F20"/>
<path d="M108.496 18.0681H106.275L105.259 16.4125L102.831 12.4398L100.403 16.4125L99.3872 18.0681H97.1663L98.1821 16.4125L102.831 8.79781L107.48 16.4125L108.496 18.0681Z" fill="#231F20"/>
<path d="M110.63 13.4339C110.63 15.0768 112.355 16.4125 114.47 16.4125H119.824V18.0681H114.47C111.175 18.0681 108.494 15.9891 108.494 13.4339C108.494 10.8787 111.175 8.79962 114.47 8.79962H119.824V10.4552H114.47C112.353 10.4552 110.63 11.7928 110.63 13.4339Z" fill="#231F20"/>
<path d="M127.772 12.5197L132.668 18.0681H130.18L126.269 13.6447L123.408 15.7765V18.0681H121.387V8.79781H123.408V13.5375L125.073 12.2926L126.576 11.1676L129.727 8.79781H132.717L127.772 12.5179V12.5197Z" fill="#231F20"/>
<path d="M141.866 11.3675V11.3149C141.866 10.8514 141.372 10.468 140.774 10.468H135.925C135.327 10.468 134.833 10.8514 134.833 11.3149V11.3675C134.833 11.831 135.327 12.2144 135.925 12.2144H140.227C141.338 12.2144 142.326 12.5852 143.009 13.1686C143.061 13.2085 143.095 13.2485 143.146 13.2885C143.675 13.7919 144 14.4407 144 15.1422C144 16.7578 142.31 18.0681 140.227 18.0681H136.488C134.406 18.0681 132.715 16.7578 132.715 15.1422H134.849C134.849 15.8437 135.584 16.4125 136.488 16.4125H140.227C141.132 16.4125 141.883 15.8437 141.883 15.1422C141.883 14.4407 141.132 13.8719 140.227 13.8719H135.925C135.054 13.8719 134.269 13.6065 133.69 13.1704C133.535 13.0504 133.399 12.9196 133.279 12.7724C132.921 12.3744 132.715 11.8855 132.715 11.3548V11.3021C132.715 9.92459 134.149 8.79962 135.925 8.79962H140.774C142.55 8.79962 144 9.92459 144 11.3021V11.3548L141.866 11.3675Z" fill="#231F20"/>
</g>
</g>
<defs>
<clipPath id="clip0_2161_867">
<rect width="144" height="24" fill="white"/>
</clipPath>
</defs>
</svg>
