<svg width="94" height="24" viewBox="0 0 94 24" fill="none" xmlns="http://www.w3.org/2000/svg">
<g clip-path="url(#clip0_2161_941)">
<path d="M0.148193 7.24209H5.61955V23.5947H10.6496V7.24209H16.121V3.27692H0.148193V7.24209Z" fill="#E84B4B"/>
<path d="M18.6455 23.5947H23.6755V7.44469H18.6455V23.5947ZM21.1752 5.76599C22.9402 5.76599 24.1462 4.57934 24.1462 3.10326C24.1462 1.59824 22.9402 0.411591 21.1752 0.411591C19.3809 0.411591 18.1748 1.59824 18.1748 3.10326C18.1748 4.57934 19.3809 5.76599 21.1752 5.76599Z" fill="#E84B4B"/>
<path d="M27.8208 23.5947H32.851V11.5545H35.5573V7.44467H32.851V7.29991C32.851 5.59231 33.5275 5.01346 35.469 5.12923V0.932539C30.4683 0.672057 27.8208 2.75593 27.8208 6.98159V7.44467H25.9971V11.5545H27.8208V23.5947Z" fill="#E84B4B"/>
<path d="M38.4209 23.5947H43.4511V11.5545H46.1573V7.44467H43.4511V7.29991C43.4511 5.59231 44.1276 5.01346 46.0691 5.12923V0.932539C41.0684 0.672057 38.4209 2.75593 38.4209 6.98159V7.44467H36.5972V11.5545H38.4209V23.5947Z" fill="#E84B4B"/>
<path d="M64.7292 7.44467H59.699V16.2143C59.699 18.4139 58.4637 19.6295 56.5222 19.6295C54.6396 19.6295 53.3747 18.4139 53.3747 16.2143V7.44467H48.374V16.8799C48.374 21.1924 50.9332 23.7683 54.7278 23.7683C56.934 23.7683 58.699 22.7843 59.699 21.3951V23.5947H64.7292V7.44467Z" fill="#E84B4B"/>
<path d="M79.6675 23.5947H84.6679V14.1593C84.6679 9.81792 82.1383 7.271 78.3438 7.271C76.1377 7.271 74.3726 8.22608 73.3725 9.58641V7.44467H68.3423V23.5947H73.3725V14.825C73.3725 12.6254 74.6082 11.4098 76.5203 11.4098C78.4318 11.4098 79.6675 12.6254 79.6675 14.825V23.5947Z" fill="#E84B4B"/>
<path d="M93.4877 21.1635C93.4877 19.6296 92.2818 18.4429 90.5166 18.4429C88.7223 18.4429 87.5164 19.6296 87.5164 21.1635C87.5164 22.6396 88.7223 23.8262 90.5166 23.8262C92.2818 23.8262 93.4877 22.6396 93.4877 21.1635Z" fill="#E84B4B"/>
</g>
<defs>
<clipPath id="clip0_2161_941">
<rect width="94" height="24" fill="white"/>
</clipPath>
</defs>
</svg>
