<svg width="131" height="23" viewBox="0 0 131 23" fill="none" xmlns="http://www.w3.org/2000/svg">
<path d="M35.4522 3.77725H47.3083L46.9147 6.27495H42.3335L40.1864 19.8025H37.5134L39.6604 6.28055H35.0586L35.4522 3.77725Z" fill="#141D2E"/>
<path d="M53.1613 11.3152H52.1969C50.3315 11.3152 48.9754 12.3672 48.6527 14.4508L47.7909 19.8025H45.2261L46.9366 8.98348H49.3261L49.2366 10.6492C49.5319 10.0757 49.9824 9.59666 50.5369 9.26684C51.0913 8.93702 51.7273 8.76967 52.3722 8.78389C52.7701 8.78285 53.1668 8.82665 53.5549 8.91446L53.1613 11.3152Z" fill="#141D2E"/>
<path d="M65.1058 8.97036L63.3971 19.7894H61.0076L61.03 18.3214C60.0861 19.5264 59.1217 20.0748 57.6723 20.0748C55.2828 20.0748 53.7719 18.1031 54.1879 15.5606L55.2399 8.9629H57.8029L56.8423 14.9525C56.5587 16.706 57.303 17.7506 58.7076 17.7506C60.2633 17.7506 61.3191 16.6761 61.6231 14.766L62.5222 8.95731L65.1058 8.97036Z" fill="#141D2E"/>
<path d="M68.0431 16.5549C68.086 17.5174 68.8098 18.0882 69.9495 18.0882C71.0892 18.0882 71.9006 17.5622 71.9006 16.7508C71.9006 16.1371 71.6152 15.8312 70.8262 15.5681L68.9851 14.9526C67.4723 14.4695 66.5956 13.5498 66.5956 12.1247C66.5956 10.0206 68.2613 8.68314 70.9139 8.68314C73.281 8.68314 74.8311 10.0654 74.8311 12.1471H72.3595C72.339 11.1603 71.7458 10.6119 70.7161 10.6119C69.6865 10.6119 69.0504 11.0727 69.0504 11.8617C69.0504 12.4754 69.4458 12.8914 70.2778 13.1674L72.0965 13.7588C73.6522 14.2848 74.376 15.141 74.376 16.4542C74.376 18.6684 72.6225 20.0282 69.7741 20.0282C67.2541 20.0282 65.5659 18.646 65.5659 16.5437L68.0431 16.5549Z" fill="#141D2E"/>
<path d="M76.5034 19.8025L77.8539 11.1193H75.802L76.1527 8.9704H78.2046L78.7306 5.61277H81.2955L80.7694 8.9704H82.8306L82.4799 11.1193H80.4281L79.0682 19.8025H76.5034Z" fill="#141D2E"/>
<path d="M86.3396 12.8503C86.3396 15.7211 88.0054 17.4969 90.6803 17.4969C93.3981 17.4969 95.172 15.9617 95.5899 13.3316L95.6104 13.2234H90.8109L91.2063 10.8115H98.4812L97.0635 19.8024H94.8064L94.937 18.0061C94.0379 19.2559 92.2192 20.058 90.3128 20.058C86.1699 20.058 83.4968 17.2749 83.4968 13.0014C83.4968 7.50048 87.1566 3.51236 92.1763 3.51236C95.8137 3.51236 98.2909 5.59409 98.5315 8.90322H95.6328C95.3269 7.10689 94.0118 6.10519 91.8629 6.10519C88.6191 6.0996 86.3396 8.90508 86.3396 12.8503Z" fill="#141D2E"/>
<path d="M111.155 8.97036L109.444 19.7894H107.056L107.079 18.3214C106.135 19.5264 105.171 20.0748 103.721 20.0748C101.332 20.0748 99.8189 18.1031 100.237 15.5606L101.289 8.9629H103.852L102.891 14.9525C102.608 16.706 103.352 17.7506 104.756 17.7506C106.312 17.7506 107.368 16.6761 107.672 14.766L108.569 8.95731L111.155 8.97036Z" fill="#141D2E"/>
<path d="M113.914 8.9704H116.477L114.769 19.7894H112.204L113.914 8.9704ZM114.198 5.43929C114.212 4.95546 114.41 4.4953 114.753 4.15303C115.095 3.81076 115.555 3.61227 116.039 3.59819C116.216 3.59386 116.391 3.62542 116.555 3.69098C116.72 3.75654 116.869 3.85473 116.994 3.9796C117.119 4.10447 117.217 4.25342 117.283 4.41744C117.349 4.58145 117.381 4.75712 117.376 4.93378C117.356 5.4166 117.155 5.87422 116.814 6.21592C116.472 6.55762 116.014 6.75845 115.532 6.77861C115.355 6.78246 115.179 6.7504 115.015 6.68439C114.852 6.61837 114.703 6.51976 114.578 6.39455C114.453 6.26933 114.355 6.1201 114.29 5.9559C114.225 5.7917 114.193 5.61595 114.198 5.43929Z" fill="#141D2E"/>
<path d="M117.705 15.1727C117.705 11.3599 120.13 8.685 123.381 8.685C125.024 8.685 126.449 9.47404 126.975 10.6585L128.095 3.49187H130.659L128.072 19.8025H125.683L125.77 18.1367C125.374 18.7477 124.827 19.2462 124.182 19.584C123.537 19.9219 122.816 20.0877 122.088 20.0655C119.546 20.0599 117.705 18.0658 117.705 15.1727ZM126.406 13.6804C126.406 12.0016 125.442 10.9421 123.819 10.9421C121.848 10.9421 120.275 12.716 120.275 15.0179C120.275 16.6836 121.282 17.7786 122.86 17.7786C124.828 17.7804 126.406 15.9841 126.406 13.6823V13.6804Z" fill="#141D2E"/>
<path d="M19.24 10.2623C19.24 13.8206 17.2433 16.4106 14.9491 18.2322C13.3559 19.4972 11.7318 20.2954 10.8396 20.6829C9.94732 20.2954 8.32326 19.4973 6.73002 18.2324C4.43571 16.4108 2.43921 13.8213 2.43921 10.2639V2.72803H19.24V10.2623Z" fill="url(#paint0_linear_2161_949)" stroke="url(#paint1_linear_2161_949)" stroke-width="4" stroke-miterlimit="10"/>
<path d="M12.2061 9.52454H10.5356C10.4248 9.52454 10.3186 9.56854 10.2402 9.64687C10.1619 9.72519 10.1179 9.83142 10.1179 9.94218C10.1179 10.0529 10.1619 10.1592 10.2402 10.2375C10.3186 10.3158 10.4248 10.3598 10.5356 10.3598H10.9532V11.616C10.9659 11.7174 11.0152 11.8106 11.0918 11.8782C11.1684 11.9458 11.267 11.9832 11.3692 11.9832C11.4714 11.9832 11.57 11.9458 11.6466 11.8782C11.7233 11.8106 11.7725 11.7174 11.7852 11.616V10.3598H12.2029C12.3136 10.3598 12.4199 10.3158 12.4982 10.2375C12.5765 10.1592 12.6205 10.0529 12.6205 9.94218C12.6205 9.83142 12.5765 9.72519 12.4982 9.64687C12.4199 9.56854 12.3136 9.52454 12.2029 9.52454H12.2061Z" fill="white"/>
<path d="M15.1378 13.3645C15.0459 13.4712 14.9417 13.5667 14.8274 13.6489C13.9316 14.4624 12.7758 14.9311 11.5664 14.9713C10.3569 15.0115 9.1726 14.6205 8.22476 13.8683C8.13051 13.7805 7.99075 13.6944 7.89975 13.605C7.82475 13.535 7.72501 13.4976 7.62246 13.5011C7.51991 13.5046 7.42295 13.5487 7.35291 13.6237C7.28288 13.6987 7.2455 13.7984 7.24901 13.901C7.25251 14.0035 7.29661 14.1005 7.3716 14.1705C8.51404 15.2373 10.0331 15.807 11.5953 15.7546C13.1574 15.7022 14.6349 15.0319 15.7033 13.891C15.7723 13.8163 15.8095 13.7176 15.8067 13.6159C15.804 13.5142 15.7616 13.4175 15.6887 13.3466C15.6527 13.3099 15.6096 13.2811 15.5619 13.2619C15.5142 13.2428 15.4631 13.2338 15.4117 13.2355C15.3604 13.2371 15.3099 13.2495 15.2636 13.2717C15.2173 13.2939 15.1761 13.3255 15.1426 13.3645H15.1378Z" fill="white"/>
<path d="M7.08869 5.83563C7.05106 5.87207 7.02122 5.91577 7.00098 5.96409C6.98074 6.0124 6.97053 6.06433 6.97096 6.11671C6.97139 6.16909 6.98246 6.22084 7.0035 6.26881C7.02453 6.31679 7.05509 6.35999 7.09332 6.3958C7.13156 6.43161 7.17666 6.45928 7.22591 6.47713C7.27516 6.49498 7.32752 6.50264 7.37982 6.49964C7.43212 6.49665 7.48326 6.48306 7.53015 6.45971C7.57704 6.43635 7.61869 6.40372 7.65259 6.36378C7.7445 6.25757 7.84869 6.16266 7.96298 6.08102C8.85864 5.26719 10.0145 4.7983 11.224 4.75811C12.4335 4.71792 13.6179 5.10906 14.5656 5.86163C14.6599 5.94939 14.7996 6.03552 14.8906 6.12327C14.927 6.16091 14.9707 6.19075 15.0191 6.21099C15.0674 6.23122 15.1193 6.24144 15.1717 6.241C15.2241 6.24057 15.2758 6.2295 15.3238 6.20847C15.3718 6.18743 15.415 6.15687 15.4508 6.11864C15.4866 6.08041 15.5143 6.0353 15.5321 5.98605C15.55 5.9368 15.5576 5.88444 15.5546 5.83214C15.5516 5.77985 15.538 5.7287 15.5147 5.68181C15.4913 5.63493 15.4587 5.59327 15.4188 5.55937C13.0689 3.31191 9.31178 3.4598 7.08869 5.83563Z" fill="white"/>
<path d="M13.9834 12.2871C13.5086 12.7939 12.8941 13.1486 12.2177 13.3062C11.5414 13.4638 10.8334 13.4173 10.1834 13.1726C9.53347 12.9279 8.97065 12.496 8.56614 11.9314C8.16163 11.3669 7.9336 10.6951 7.91088 10.0009C7.88816 9.3068 8.07177 8.62151 8.43849 8.03172C8.80521 7.44193 9.33859 6.97412 9.97116 6.68744C10.6037 6.40076 11.3071 6.30808 11.9924 6.42113C12.6776 6.53418 13.314 6.84787 13.8209 7.32255C13.861 7.35986 13.9085 7.38839 13.9603 7.4063C14.012 7.42421 14.067 7.43111 14.1216 7.42655C14.1759 7.42653 14.2296 7.41559 14.2796 7.39437C14.3295 7.37315 14.3747 7.34209 14.4125 7.30304C14.4806 7.22679 14.516 7.12684 14.5111 7.02472C14.5063 6.9226 14.4615 6.82647 14.3865 6.75702C14.0247 6.4195 13.6067 6.14781 13.1514 5.95424C12.5579 5.69753 11.915 5.57547 11.2687 5.59682C10.6225 5.61818 9.98899 5.78242 9.41377 6.07775C8.79604 6.39155 8.26328 6.84997 7.86086 7.414C7.45845 7.97802 7.19829 8.63094 7.10254 9.31716C7.00679 10.0034 7.07828 10.7026 7.31093 11.3552C7.54358 12.0078 7.9305 12.5946 8.43873 13.0655C8.8009 13.4017 9.21882 13.6722 9.67378 13.865C10.2674 14.1211 10.9103 14.2428 11.5564 14.2214C12.2026 14.2001 12.836 14.0362 13.4114 13.7415C13.8522 13.5177 14.2508 13.2191 14.5896 12.8591C14.6441 12.8015 14.6796 12.7285 14.6912 12.65C14.7028 12.5715 14.69 12.4913 14.6545 12.4204C14.6191 12.3494 14.5626 12.2911 14.4928 12.2533C14.4231 12.2155 14.3434 12.2001 14.2646 12.2091C14.1492 12.1441 14.0598 12.1928 13.9721 12.2871H13.9834Z" fill="white"/>
<path d="M12.8102 11.1853C12.7459 11.261 12.7133 11.3585 12.7189 11.4577C12.7246 11.5568 12.7682 11.65 12.8407 11.7179C12.9131 11.7857 13.009 11.8231 13.1083 11.8223C13.2076 11.8215 13.3027 11.7825 13.3741 11.7135C13.744 11.318 13.9884 10.8217 14.0764 10.2874C14.1643 9.75301 14.0918 9.20459 13.868 8.71144C13.6443 8.21829 13.2793 7.80255 12.8193 7.5168C12.3593 7.23105 11.8249 7.08811 11.2837 7.10606C10.7425 7.12401 10.2187 7.30204 9.77863 7.61765C9.33857 7.93325 9.00197 8.37225 8.8114 8.87914C8.62082 9.38604 8.58482 9.93806 8.70796 10.4654C8.83109 10.9928 9.10783 11.4718 9.50318 11.8418C9.57889 11.9061 9.67642 11.9388 9.77555 11.9331C9.87469 11.9274 9.96785 11.8838 10.0357 11.8113C10.1036 11.7389 10.141 11.6431 10.1402 11.5438C10.1394 11.4445 10.1004 11.3493 10.0313 11.2779C9.8388 11.1063 9.68255 10.8979 9.57178 10.665C9.461 10.4321 9.39794 10.1794 9.38629 9.92172C9.37465 9.66407 9.41466 9.40669 9.50397 9.16473C9.59329 8.92278 9.7301 8.70113 9.90636 8.51284C10.0826 8.32455 10.2948 8.17342 10.5303 8.06835C10.7658 7.96327 11.02 7.90638 11.2779 7.90101C11.5357 7.89564 11.7921 7.9419 12.0318 8.03708C12.2715 8.13225 12.4897 8.27442 12.6737 8.45521C12.866 8.62287 13.0226 8.8276 13.134 9.05716C13.2455 9.28672 13.3095 9.53639 13.3222 9.79124C13.335 10.0461 13.2962 10.3009 13.2082 10.5404C13.1202 10.78 12.9849 10.9993 12.8102 11.1853Z" fill="white"/>
<path d="M6.24121 7.02683C5.86158 7.71498 5.62474 8.47267 5.54488 9.25453C5.46502 10.0364 5.54378 10.8263 5.77644 11.577C5.79652 11.6432 5.83303 11.7032 5.88257 11.7515C5.93211 11.7997 5.99307 11.8346 6.05976 11.853C6.12644 11.8713 6.19669 11.8725 6.26394 11.8563C6.33119 11.8402 6.39325 11.8072 6.44434 11.7606C6.49063 11.7078 6.52386 11.6448 6.54136 11.5768C6.55886 11.5088 6.56014 11.4376 6.54509 11.369C6.40904 10.905 6.33902 10.4241 6.33709 9.94056C6.33265 9.54824 6.37355 9.15671 6.45897 8.77377C6.5653 8.29576 6.7422 7.83625 6.98386 7.41034C7.01125 7.36475 7.02882 7.31393 7.03543 7.26115C7.04205 7.20837 7.03756 7.15479 7.02226 7.10384C7.00696 7.05289 6.98119 7.00571 6.94659 6.9653C6.91199 6.92489 6.86934 6.89216 6.82135 6.8692C6.56784 6.76357 6.31921 6.83995 6.23471 7.03171L6.24121 7.02683Z" fill="white"/>
<path d="M15.824 6.54899C15.7782 6.57573 15.7385 6.61171 15.7074 6.65464C15.6763 6.69756 15.6545 6.74649 15.6433 6.79831C15.6322 6.85013 15.6319 6.9037 15.6426 6.95562C15.6533 7.00754 15.6746 7.05667 15.7053 7.09988C15.8678 7.34527 15.9962 7.63778 16.1425 7.91241C16.531 8.87841 16.6293 9.93676 16.4252 10.9578C16.3638 11.2602 16.2667 11.5542 16.136 11.8337C16.1143 11.882 16.103 11.9342 16.1026 11.9871C16.1022 12.04 16.1128 12.0924 16.1337 12.141C16.1547 12.1896 16.1855 12.2333 16.2242 12.2693C16.2629 12.3054 16.3087 12.333 16.3586 12.3505C16.436 12.3793 16.5201 12.3846 16.6004 12.3658C16.6808 12.347 16.7538 12.3049 16.8104 12.2448C16.8454 12.2156 16.8685 12.1745 16.8754 12.1294C17.244 11.2456 17.3931 10.2857 17.3099 9.33168C17.2267 8.37769 16.9137 7.45804 16.3976 6.65137C16.3317 6.56594 16.236 6.50859 16.1296 6.4908C16.0232 6.47302 15.914 6.49613 15.824 6.55549V6.54899Z" fill="white"/>
<path d="M15.5334 10.966C15.5761 10.9118 15.6056 10.8483 15.6195 10.7807C15.7638 10.1111 15.7482 9.41679 15.574 8.75427C15.5631 8.70101 15.5414 8.65055 15.5102 8.60601C15.479 8.56146 15.439 8.52378 15.3927 8.49528C15.3464 8.46678 15.2948 8.44806 15.241 8.44029C15.1871 8.43251 15.1323 8.43584 15.0798 8.45007C15.0273 8.46431 14.9783 8.48914 14.9358 8.52303C14.8933 8.55693 14.8582 8.59918 14.8326 8.64717C14.8071 8.69516 14.7916 8.74788 14.7872 8.80207C14.7828 8.85627 14.7895 8.91079 14.807 8.96228C14.9542 9.50535 14.9654 10.0763 14.8395 10.6247C14.8259 10.6761 14.8234 10.7298 14.8321 10.7823C14.8408 10.8348 14.8605 10.8848 14.89 10.929C14.9195 10.9733 14.9581 11.0108 15.0032 11.039C15.0483 11.0672 15.0988 11.0855 15.1515 11.0927C15.2207 11.1071 15.2924 11.1029 15.3595 11.0807C15.4265 11.0584 15.4865 11.0188 15.5334 10.966Z" fill="white"/>
<path d="M6.76341 5.00362C6.98605 4.81349 7.18593 4.64773 7.41344 4.4576C7.49597 4.39446 7.55004 4.30112 7.56376 4.19811C7.57747 4.0951 7.5497 3.99086 7.48656 3.90833C7.42342 3.82579 7.33008 3.77172 7.22707 3.75801C7.12407 3.74429 7.01983 3.77206 6.93729 3.8352C6.56643 4.09798 6.22483 4.3998 5.91838 4.73548C5.22093 5.47972 4.68286 6.35859 4.33719 7.31819C3.99152 8.2778 3.84553 9.2979 3.90818 10.3159C3.91362 10.4184 3.9584 10.5148 4.03318 10.585C4.10797 10.6553 4.20698 10.6939 4.30957 10.693C4.40447 10.6854 4.49286 10.6418 4.55658 10.5711C4.59637 10.5327 4.62652 10.4855 4.6446 10.4332C4.66267 10.381 4.66815 10.3252 4.66058 10.2704C4.65083 9.99743 4.64271 9.72442 4.66058 9.42703C4.74872 7.87823 5.38461 6.4112 6.45465 5.288C6.56735 5.20441 6.67085 5.10908 6.76341 5.00362Z" fill="white"/>
<path d="M8.36144 3.01286C8.31142 3.03182 8.26612 3.06143 8.22868 3.09964C8.19125 3.13785 8.16257 3.18374 8.14464 3.23414C8.1267 3.28453 8.11995 3.33823 8.12483 3.3915C8.12972 3.44477 8.14613 3.49633 8.17293 3.54263C8.19208 3.5927 8.22186 3.63802 8.26022 3.67546C8.29859 3.7129 8.34462 3.74157 8.39514 3.75949C8.44566 3.77741 8.49946 3.78416 8.55285 3.77926C8.60623 3.77437 8.65791 3.75795 8.70433 3.73114C9.91021 3.1969 11.2467 3.02945 12.5471 3.24965C13.8475 3.46985 15.0543 4.06797 16.0171 4.96943C16.0535 5.00707 16.0972 5.03691 16.1455 5.05715C16.1939 5.07739 16.2458 5.0876 16.2982 5.08717C16.3506 5.08673 16.4023 5.07566 16.4503 5.05463C16.4983 5.0336 16.5415 5.00304 16.5773 4.9648C16.6131 4.92657 16.6407 4.88146 16.6586 4.83221C16.6764 4.78297 16.6841 4.7306 16.6811 4.67831C16.6781 4.62601 16.6645 4.57486 16.6412 4.52798C16.6178 4.48109 16.5852 4.43943 16.5452 4.40553C15.47 3.39305 14.1197 2.72073 12.6637 2.47296C11.2078 2.22519 9.71104 2.41302 8.36144 3.01286Z" fill="white"/>
<path d="M16.2859 14.4436C15.2131 15.5927 13.7706 16.3282 12.2105 16.5216C10.6504 16.715 9.07195 16.3539 7.75107 15.5015C7.66509 15.4558 7.56522 15.4437 7.47079 15.4674C7.37636 15.4911 7.29409 15.549 7.23989 15.6299C7.1857 15.7108 7.16344 15.8089 7.17741 15.9053C7.19139 16.0016 7.24062 16.0894 7.31556 16.1515C8.79058 17.1066 10.5549 17.5115 12.2988 17.2951C14.0426 17.0788 15.6545 16.255 16.8514 14.9685C16.9201 14.8931 16.9567 14.7938 16.9534 14.6918C16.9501 14.5898 16.9071 14.4932 16.8335 14.4224C16.7975 14.3857 16.7542 14.3568 16.7063 14.3377C16.6585 14.3185 16.6073 14.3095 16.5558 14.3112C16.5043 14.3128 16.4537 14.3252 16.4073 14.3474C16.3608 14.3697 16.3195 14.4013 16.2859 14.4403V14.4436Z" fill="white"/>
<defs>
<linearGradient id="paint0_linear_2161_949" x1="0.439209" y1="11.7254" x2="20.7882" y2="8.69347" gradientUnits="userSpaceOnUse">
<stop offset="0.370023" stop-color="#6C47FF"/>
<stop offset="0.808155" stop-color="#17CCFC"/>
</linearGradient>
<linearGradient id="paint1_linear_2161_949" x1="0.439209" y1="11.7254" x2="20.7882" y2="8.69347" gradientUnits="userSpaceOnUse">
<stop offset="0.370023" stop-color="#6C47FF"/>
<stop offset="0.808155" stop-color="#17CCFC"/>
</linearGradient>
</defs>
</svg>
