<svg width="53" height="53" viewBox="0 0 53 53" fill="none" xmlns="http://www.w3.org/2000/svg">
<g id="Design-Strategy.svg">
<path id="Vector" d="M29.2724 16.9406V22.8756H29.7532C34.8932 22.8756 40.0325 22.8756 45.1725 22.8756C46.2278 22.8756 46.6495 23.2959 46.6495 24.3495C46.6504 26.5025 46.6495 28.6564 46.6495 30.8094C46.6495 30.9549 46.6495 31.1012 46.6495 31.3149C47.0376 31.3149 47.4032 31.3108 47.7682 31.3157C48.3547 31.3238 48.5746 31.7199 48.2658 32.2246C47.5264 33.431 46.7831 34.6348 46.0358 35.8355C45.7358 36.3169 45.3509 36.3225 45.0453 35.8484C44.2628 34.638 43.4802 33.427 42.7201 32.2021C42.6153 32.0326 42.5393 31.7224 42.6233 31.589C42.7217 31.4338 43.0058 31.3519 43.2202 31.3253C43.5579 31.2836 43.9043 31.3142 44.2684 31.3142V25.2793H29.2771V31.3142C29.7363 31.3142 30.174 31.3076 30.6117 31.3157C31.1719 31.3253 31.3927 31.7329 31.0894 32.2094C30.3165 33.4261 29.5379 34.6389 28.7563 35.85C28.4514 36.3218 28.0753 36.3145 27.7656 35.8339C26.9919 34.6333 26.215 33.435 25.4629 32.2207C25.3525 32.0415 25.278 31.7256 25.3628 31.5721C25.4469 31.4202 25.7502 31.3575 25.9669 31.3238C26.2262 31.2828 26.4958 31.3142 26.7943 31.3142V25.2754H11.8207V31.3142C12.1855 31.3142 12.5552 31.2828 12.9169 31.3262C13.1169 31.3503 13.3865 31.4523 13.4698 31.6042C13.5514 31.7545 13.5018 32.0527 13.3993 32.2175C12.648 33.4317 11.8719 34.6308 11.0981 35.8307C10.7781 36.3265 10.4076 36.3218 10.0844 35.8203C9.31145 34.6196 8.53693 33.4197 7.77921 32.2086C7.68559 32.0583 7.60238 31.7819 7.67519 31.6741C7.78 31.5199 8.02565 31.4081 8.22408 31.3833C8.58894 31.3382 8.96339 31.3704 9.39147 31.3704C9.39147 31.1936 9.39147 31.0529 9.39147 30.9115C9.39147 28.691 9.39066 26.4712 9.39147 24.2507C9.39147 23.3337 9.85075 22.874 10.7661 22.874C15.9462 22.8724 21.1254 22.874 26.3055 22.874C26.4623 22.874 26.6191 22.874 26.8023 22.874V16.9389C26.6671 16.9389 26.5263 16.9389 26.3863 16.9389C24.2027 16.9389 22.0191 16.9398 19.8356 16.9389C18.5745 16.9381 17.8512 16.2172 17.8504 14.9531C17.848 11.7295 17.8472 8.50687 17.8504 5.28337C17.8521 4.04412 18.5802 3.31438 19.8132 3.31358C25.3261 3.31198 30.8382 3.31198 36.3511 3.31358C37.6048 3.31358 38.329 4.04652 38.329 5.3107C38.3306 8.52053 38.3306 11.7303 38.329 14.9402C38.329 16.2236 37.6065 16.9389 36.3151 16.9398C34.1179 16.9406 31.9207 16.9398 29.7236 16.9398C29.5803 16.9398 29.4371 16.9406 29.2724 16.9406ZM23.7842 9.93418C24.8564 11.0127 25.9454 12.1073 26.9311 13.0982C28.7154 11.3583 30.5149 9.60387 32.276 7.88725C31.8063 7.40103 31.3558 6.9341 30.8998 6.46234C29.5956 7.745 28.289 9.03087 26.9311 10.3666C26.3479 9.7638 25.7478 9.14337 25.1652 8.54143C24.6948 9.01639 24.2371 9.4777 23.785 9.93498L23.7842 9.93418Z" fill="#00D4A1"/>
<path id="Vector_2" d="M49.6838 42.7637C49.6838 43.7386 49.687 44.7142 49.6822 45.6891C49.6798 46.1865 49.4718 46.4012 48.9813 46.4019C47.0266 46.4059 45.071 46.4051 43.1163 46.4019C42.6034 46.4012 42.401 46.1914 42.4003 45.665C42.3978 43.7145 42.3978 41.7648 42.4003 39.8143C42.4003 39.2862 42.5962 39.0886 43.1204 39.0878C45.0623 39.0845 47.0034 39.0854 48.9453 39.0878C49.491 39.0878 49.6806 39.2847 49.6822 39.8384C49.6847 40.8133 49.6822 41.789 49.6822 42.7637H49.6838Z" fill="#00D4A1"/>
<path id="Vector_3" d="M32.2517 42.7256C32.246 44.7532 30.6234 46.3669 28.6079 46.3485C26.6043 46.3301 25.0185 44.7194 25.0225 42.7071C25.0264 40.681 26.6459 39.0713 28.6654 39.0857C30.6666 39.1002 32.2572 40.7139 32.2517 42.7256Z" fill="#C6CBD6"/>
<path id="Vector_4" d="M10.9512 46.1935C9.88706 46.1935 8.82289 46.1895 7.75872 46.1951C7.33385 46.1974 6.96099 46.1003 6.74176 45.6992C6.52332 45.2998 6.63773 44.9317 6.86817 44.5724C7.96275 42.8671 9.04933 41.1562 10.1447 39.4515C10.6504 38.6647 11.4185 38.6679 11.9235 39.4587C12.9932 41.1327 14.0534 42.8124 15.1231 44.4857C15.3624 44.8602 15.4592 45.2443 15.2544 45.6559C15.0351 46.0979 14.6383 46.1983 14.1821 46.1951C13.1052 46.1871 12.0275 46.1927 10.9504 46.1927L10.9512 46.1935Z" fill="#C6CBD6"/>
<path id="Vector_5" d="M23.9988 9.85168C24.4517 9.39439 24.9093 8.93309 25.379 8.45812C25.9616 9.06007 26.5616 9.6805 27.1449 10.2832C28.5027 8.94755 29.8094 7.66168 31.1136 6.37903C31.5696 6.85078 32.0202 7.31771 32.4899 7.80393C30.7295 9.52056 28.9293 11.275 27.1449 13.0149C26.16 12.024 25.071 10.9294 23.998 9.85087L23.9988 9.85168Z" fill="#E7ECF8"/>
</g>
</svg>
