<svg width="53" height="53" viewBox="0 0 53 53" fill="none" xmlns="http://www.w3.org/2000/svg">
<g id="Design-System.svg" clip-path="url(#clip0_2161_2302)">
<g id="Clip path group">
<mask id="mask0_2161_2302" style="mask-type:luminance" maskUnits="userSpaceOnUse" x="1" y="12" width="52" height="30">
<g id="clip0_7641_24757">
<path id="Vector" d="M53.0003 12.1457H1.10449V41.9582H53.0003V12.1457Z" fill="white"/>
</g>
</mask>
<g mask="url(#mask0_2161_2302)">
<g id="Group">
<path id="Vector_2" d="M53.0012 40.538V41.9572C35.9754 41.9572 18.9486 41.9572 1.92282 41.9572C1.85174 41.9165 1.78066 41.8748 1.70856 41.8351C1.25569 41.5777 1.02416 41.1037 1.12977 40.649C1.2435 40.1586 1.65779 39.8331 2.19902 39.8148C2.38484 39.8087 2.57067 39.8138 2.75649 39.8138C4.25223 39.8138 5.74797 39.8138 7.3818 39.8138C6.80706 39.4272 6.79996 38.9491 6.79996 38.4496C6.80503 30.1037 6.803 21.757 6.80401 13.4112C6.80401 12.4417 7.10256 12.1457 8.07839 12.1457C20.6221 12.1457 33.1667 12.1457 45.7104 12.1457C46.8041 12.1457 47.0538 12.3949 47.0538 13.4814C47.0538 21.6421 47.0558 29.8026 47.0507 37.9623C47.0507 38.595 47.2153 39.2705 46.5583 39.8117C48.3099 39.8117 49.9479 39.8361 51.5837 39.7995C52.2264 39.7853 52.6885 39.9836 53.0012 40.538ZM8.41348 38.3895H45.5784V16.0256H8.41449L8.41348 38.3895ZM27.1056 40.2187C26.5989 40.2187 26.0871 40.1739 25.5896 40.24C25.3885 40.2665 25.1001 40.5106 25.0626 40.6988C24.9997 41.0131 25.2494 41.2258 25.5896 41.2288C26.5685 41.2369 27.5473 41.2369 28.5251 41.2288C28.8643 41.2258 29.1141 41.0111 29.0492 40.6968C29.0105 40.5085 28.7232 40.2695 28.5201 40.24C28.0581 40.1719 27.5788 40.2187 27.1056 40.2187ZM10.3479 14.0836L10.356 14.3258C10.5672 14.462 10.7693 14.6909 10.9917 14.7143C11.2984 14.7469 11.5288 14.5139 11.5085 14.1732C11.4892 13.8486 11.2861 13.6024 10.9561 13.6716C10.7348 13.7185 10.55 13.9402 10.3479 14.0836ZM12.2915 14.0256L12.2721 14.2698C12.4701 14.4224 12.6479 14.6544 12.8692 14.7082C13.189 14.7855 13.4237 14.5556 13.445 14.2311C13.4653 13.9117 13.2825 13.6401 12.9463 13.6757C12.7179 13.7001 12.5088 13.9025 12.2915 14.0256ZM8.41653 14.282C8.61758 14.4305 8.80239 14.6624 9.02478 14.7082C9.34768 14.7744 9.56396 14.5241 9.57819 14.2046C9.59341 13.8801 9.40353 13.6666 9.0593 13.6553C8.71912 13.6442 8.53534 13.8252 8.41653 14.282Z" fill="#DADADA"/>
<path id="Vector_3" d="M8 38.3639V16H45.1639V38.3639H8ZM15.6472 24.6967C16.812 24.6967 17.9757 24.7008 19.1403 24.6958C19.9862 24.6917 20.4564 24.2227 20.4594 23.3814C20.4645 21.9297 20.4635 20.4771 20.4594 19.0244C20.4564 18.1516 19.9923 17.6938 19.1099 17.6928C16.7815 17.6897 14.452 17.6897 12.1237 17.6928C11.2596 17.6928 10.8209 18.1342 10.8189 19.004C10.8148 20.4558 10.8158 21.9084 10.8189 23.361C10.8209 24.2501 11.2616 24.6927 12.1542 24.6967C13.3188 24.7018 14.4825 24.6977 15.6472 24.6967ZM37.4557 17.6928C36.2748 17.6928 35.0949 17.6887 33.9139 17.6938C33.0935 17.6979 32.6274 18.1627 32.6233 18.9755C32.6182 20.0224 32.6395 21.0691 32.6122 22.1139C32.603 22.4597 32.7157 22.6195 33.0294 22.7426C34.4694 23.3081 35.8981 23.9033 37.3349 24.4739C37.5969 24.5777 37.8801 24.6784 38.1554 24.6856C39.1159 24.711 40.0775 24.7049 41.0392 24.6927C41.7967 24.6825 42.2587 24.2095 42.2618 23.4465C42.2689 21.9451 42.2679 20.4425 42.2618 18.94C42.2587 18.1577 41.7866 17.6948 40.9965 17.6917C39.8156 17.6866 38.6357 17.6907 37.4547 17.6907L37.4557 17.6928ZM25.8981 24.6927C25.8981 24.1932 25.8168 23.7405 25.9123 23.3296C26.2809 21.7406 27.7695 20.9114 29.3302 21.3905C29.9974 21.595 30.6564 21.83 31.3662 22.0681C31.3662 20.9389 31.3916 19.8768 31.3571 18.8168C31.3348 18.1282 30.824 17.6958 30.1152 17.6948C27.7359 17.6907 25.3579 17.6907 22.9786 17.6948C22.2171 17.6958 21.7266 18.1444 21.7176 18.9023C21.6982 20.4384 21.6982 21.9745 21.7176 23.5107C21.7256 24.1759 22.1755 24.6663 22.8071 24.6846C23.8327 24.7161 24.8623 24.6927 25.8981 24.6927ZM35.3974 29.1168C36.0179 28.8177 36.5977 28.6072 37.0953 28.2725C37.3654 28.0904 37.6263 27.7069 37.6446 27.3996C37.6589 27.1688 37.3288 26.7923 37.0689 26.6886C34.3353 25.5971 31.5865 24.5411 28.8347 23.4974C28.6357 23.4221 28.2864 23.4394 28.1564 23.5665C28.0274 23.6927 28.0142 24.0345 28.0772 24.244C28.456 25.5015 28.8722 26.7486 29.2734 27.9989C29.7578 29.5065 30.2401 31.0151 30.7224 32.5228C30.8412 32.893 31.028 33.2979 31.4352 33.2684C31.7541 33.246 32.0801 32.9866 32.3501 32.7689C32.5217 32.6305 32.602 32.3762 32.7167 32.1707C32.9036 31.8371 33.0843 31.4993 33.2457 31.2043C33.7737 31.7028 34.2927 32.1789 34.7963 32.6703C35.2583 33.1219 35.5183 33.1494 36.0098 32.7221C36.3276 32.4453 36.6353 32.1555 36.9236 31.8482C37.3003 31.4464 37.2892 31.1535 36.9155 30.7486C36.4261 30.2176 35.9326 29.6917 35.3974 29.1168ZM28.1533 31.4179C28.0173 31.0029 27.8852 30.658 27.7939 30.3019C27.7279 30.0446 27.605 29.9561 27.3369 29.9571C23.7291 29.9653 20.1203 29.9612 16.5124 29.9683C16.3794 29.9683 16.1398 30.0436 16.1306 30.1107C16.0798 30.4668 16.0301 30.8422 16.1032 31.1849C16.1275 31.301 16.5093 31.4068 16.7287 31.4078C20.3538 31.421 23.9789 31.4169 27.604 31.4169H28.1543L28.1533 31.4179ZM27.1156 28.3589C26.9957 27.9805 26.8729 27.6835 26.8099 27.3732C26.7287 26.9795 26.5124 26.8971 26.1326 26.8991C22.9786 26.9155 19.8247 26.9083 16.6708 26.9083C16.0839 26.9083 15.9985 27.0019 15.9975 27.6285C15.9975 28.2623 16.0808 28.3569 16.6627 28.3579C19.9009 28.3579 23.1391 28.3579 26.3784 28.3579C26.5957 28.3579 26.813 28.3579 27.1166 28.3579L27.1156 28.3589ZM12.9269 26.9094C12.3877 26.9094 11.8464 26.9297 11.3083 26.9043C10.7447 26.8768 10.7783 27.2979 10.7812 27.6235C10.7843 27.9419 10.7204 28.3712 11.286 28.363C12.3654 28.3478 13.4447 28.3417 14.5241 28.3661C15.0857 28.3783 15.0533 27.9735 15.0552 27.6449C15.0572 27.2949 15.0836 26.8676 14.4948 26.9022C13.9738 26.9338 13.4498 26.9094 12.9269 26.9094ZM13.0609 29.9632C12.6396 29.9632 12.2191 29.9632 11.7977 29.9632C10.9772 29.9632 10.7204 30.2837 10.9569 31.0762C10.9996 31.2175 11.2189 31.3986 11.36 31.4017C12.4709 31.4281 13.5828 31.4169 14.6947 31.4169C15.2512 31.4169 15.171 30.9795 15.1771 30.6549C15.1822 30.3325 15.1985 29.946 14.6775 29.9602C14.1393 29.9744 13.6002 29.9632 13.0609 29.9632ZM39.3993 31.4179C40.166 31.4179 40.9397 31.4332 41.7114 31.4078C41.9349 31.4007 42.3197 31.3131 42.3461 31.1972C42.4232 30.8553 42.3714 30.481 42.3359 30.122C42.3298 30.0609 42.1551 29.9714 42.0576 29.9704C41.0676 29.9592 40.0775 29.9632 39.0835 29.9632C39.188 30.4454 39.2845 30.8859 39.3993 31.4179ZM39.7629 28.3589C40.4137 28.3589 41.0696 28.3773 41.7236 28.3488C41.946 28.3396 42.3278 28.2502 42.3532 28.1362C42.4273 27.7924 42.3724 27.417 42.34 27.0558C42.3349 27.0009 42.1866 26.9195 42.1034 26.9186C41.35 26.9073 40.5975 26.9124 39.8491 26.9124C39.8197 27.4088 39.7932 27.8422 39.7629 28.3589Z" fill="#D33B3B"/>
<path id="Vector_4" d="M27.1065 40.2206C27.5786 40.2206 28.0579 40.1738 28.5209 40.2419C28.724 40.2715 29.0114 40.5105 29.05 40.6987C29.115 41.012 28.8652 41.2277 28.526 41.2308C27.5472 41.2388 26.5683 41.2388 25.5904 41.2308C25.2513 41.2277 25.0004 41.015 25.0634 40.7008C25.101 40.5125 25.3894 40.2684 25.5904 40.2419C26.088 40.1759 26.5998 40.2206 27.1065 40.2206Z" fill="#D33B3B"/>
<path id="Vector_5" d="M10.3477 14.0833C10.5487 13.9398 10.7335 13.7181 10.9559 13.6713C11.287 13.6022 11.489 13.8483 11.5083 14.1728C11.5286 14.5137 11.2981 14.7465 10.9915 14.714C10.768 14.6907 10.567 14.4628 10.3558 14.3254L10.3477 14.0833Z" fill="#D33B3B"/>
<path id="Vector_6" d="M12.2908 14.0246C12.5081 13.9015 12.7172 13.6981 12.9457 13.6737C13.2818 13.6371 13.4656 13.9097 13.4443 14.2291C13.423 14.5546 13.1884 14.7835 12.8685 14.7062C12.6471 14.6533 12.4685 14.4204 12.2715 14.2678L12.2908 14.0246Z" fill="#D33B3B"/>
<path id="Vector_7" d="M8.41504 14.2825C8.53385 13.8267 8.71765 13.6446 9.05782 13.6558C9.40204 13.667 9.59092 13.8806 9.5767 14.2051C9.56249 14.5245 9.34619 14.7737 9.02329 14.7087C8.80091 14.6629 8.61711 14.431 8.41504 14.2825Z" fill="#D33B3B"/>
<path id="Vector_8" d="M16.0605 24.7235C14.8958 24.7235 13.7322 24.7275 12.5675 24.7224C11.6749 24.7183 11.2342 24.2769 11.2321 23.3868C11.2291 21.935 11.2281 20.4824 11.2321 19.0298C11.2342 18.1599 11.6729 17.7194 12.537 17.7184C14.8654 17.7154 17.1948 17.7154 19.5232 17.7184C20.4066 17.7194 20.8707 18.1772 20.8727 19.0501C20.8768 20.5017 20.8778 21.9544 20.8727 23.4071C20.8696 24.2484 20.3996 24.7173 19.5537 24.7214C18.389 24.7275 17.2253 24.7224 16.0605 24.7235Z" fill="#E7ECF8"/>
<path id="Vector_9" d="M37.8695 17.7176C39.0504 17.7176 40.2304 17.7135 41.4114 17.7186C42.2014 17.7217 42.6735 18.1846 42.6766 18.9669C42.6827 20.4683 42.6827 21.9709 42.6766 23.4734C42.6735 24.2354 42.2116 24.7094 41.454 24.7196C40.4924 24.7318 39.5308 24.7389 38.5701 24.7125C38.294 24.7053 38.0107 24.6046 37.7497 24.5008C36.3119 23.9292 34.8841 23.3351 33.4443 22.7695C33.1295 22.6464 33.0177 22.4866 33.0269 22.1408C33.0533 21.095 33.033 20.0482 33.038 19.0024C33.0421 18.1896 33.5082 17.7248 34.3287 17.7207C35.5096 17.7146 36.6896 17.7197 37.8705 17.7186L37.8695 17.7176Z" fill="#E7ECF8"/>
<path id="Vector_10" d="M26.3125 24.7193C25.2768 24.7193 24.2492 24.7416 23.2226 24.7111C22.591 24.6918 22.1422 24.2014 22.133 23.5372C22.1137 22.0011 22.1127 20.4649 22.133 18.9288C22.1432 18.1699 22.6327 17.7224 23.3942 17.7213C25.7734 17.7173 28.1515 17.7173 30.5307 17.7213C31.2384 17.7224 31.7502 18.1547 31.7725 18.8434C31.8071 19.9035 31.7817 20.9655 31.7817 22.0947C31.0709 21.8576 30.4128 21.6217 29.7457 21.4172C28.1851 20.938 26.6964 21.7671 26.3278 23.3561C26.2324 23.7671 26.3125 24.2198 26.3125 24.7193Z" fill="#E7ECF8"/>
<path id="Vector_11" d="M35.8119 29.1432C36.347 29.718 36.8416 30.2439 37.331 30.775C37.7047 31.1799 37.7158 31.4728 37.3391 31.8746C37.0518 32.1819 36.7431 32.4727 36.4253 32.7484C35.9338 33.1758 35.6738 33.1483 35.2118 32.6966C34.7082 32.2052 34.1892 31.7292 33.6612 31.2307C33.4998 31.5257 33.3181 31.8625 33.1322 32.1971C33.0175 32.4026 32.9372 32.6569 32.7656 32.7953C32.4945 33.013 32.1685 33.2724 31.8507 33.2948C31.4435 33.3243 31.2567 32.9194 31.1379 32.549C30.6556 31.0404 30.1732 29.5329 29.6889 28.0253C29.2868 26.774 28.8715 25.5278 28.4926 24.2704C28.4297 24.0609 28.4429 23.7201 28.5719 23.5929C28.7019 23.4657 29.0501 23.4475 29.2502 23.5238C32.003 24.5665 34.7508 25.6234 37.4843 26.7149C37.7443 26.8187 38.0744 27.1952 38.0601 27.426C38.0418 27.7332 37.7809 28.1168 37.5108 28.2989C37.0132 28.6335 36.4324 28.8451 35.8119 29.1432ZM29.304 24.3579C30.2077 27.1747 31.0668 29.8512 31.9686 32.661C32.1431 32.3792 32.2447 32.2317 32.3289 32.074C32.6174 31.5409 32.8864 30.9957 33.1901 30.4718C33.4693 29.9896 33.6663 29.9763 34.0431 30.3701C34.635 30.9886 35.225 31.6102 35.8393 32.2561C36.1765 31.9337 36.4851 31.6387 36.9228 31.2195C36.3521 30.7067 35.7957 30.2622 35.3052 29.7536C34.5467 28.9652 34.5812 28.8747 35.5571 28.4433C35.818 28.3274 36.0749 28.2002 36.3298 28.071C36.6588 27.9031 36.9838 27.7271 37.4387 27.4871C34.6676 26.421 32.0548 25.4159 29.304 24.3579Z" fill="#D33B3B"/>
<path id="Vector_12" d="M28.5661 31.4425H28.0158C24.3906 31.4425 20.7655 31.4466 17.1404 31.4334C16.9212 31.4334 16.5403 31.3266 16.5149 31.2106C16.4428 30.8677 16.4916 30.4924 16.5423 30.1363C16.5515 30.0702 16.7912 29.995 16.9241 29.9939C20.532 29.9858 24.1409 29.9909 27.7487 29.9827C28.0168 29.9827 28.1396 30.0702 28.2056 30.3276C28.2971 30.6827 28.429 31.0275 28.5651 31.4435L28.5661 31.4425Z" fill="#E7ECF8"/>
<path id="Vector_13" d="M27.5311 28.3835C27.2275 28.3835 27.0102 28.3835 26.7929 28.3835C23.5546 28.3835 20.3165 28.3835 17.0773 28.3835C16.4954 28.3835 16.4111 28.2879 16.4121 27.6541C16.4121 27.0275 16.4985 26.9339 17.0853 26.9339C20.2393 26.9339 23.3932 26.94 26.5472 26.9247C26.927 26.9227 27.1432 27.0051 27.2244 27.3987C27.2884 27.708 27.4103 28.0061 27.5301 28.3845L27.5311 28.3835Z" fill="#E7ECF8"/>
<g id="Vector_14">
<path d="M13.5305 27.4882C13.6163 27.489 13.704 27.4902 13.7932 27.4915C14.1567 27.4967 14.544 27.5022 14.9178 27.4814C14.9185 27.4991 14.9188 27.5187 14.9189 27.5403C14.9191 27.5681 14.9188 27.594 14.9186 27.6231C14.9185 27.6371 14.9184 27.6519 14.9183 27.6682L13.5305 27.4882ZM13.5305 27.4882H13.342C13.1898 27.4882 13.0315 27.4899 12.8696 27.4918C12.5045 27.496 12.121 27.5004 11.7472 27.4846C11.7471 27.4965 11.747 27.5092 11.7471 27.5226C11.7472 27.5471 11.7474 27.5671 11.7478 27.5895C11.748 27.6058 11.7482 27.6234 11.7484 27.6451V27.6466C11.7487 27.6819 11.7482 27.7199 11.7479 27.752C11.7478 27.7617 11.7477 27.7708 11.7476 27.7792C11.7473 27.8006 11.7472 27.8195 11.7473 27.837C12.8 27.8234 13.8585 27.8178 14.9171 27.8401C14.9175 27.8255 14.9177 27.8096 14.918 27.7922L14.9182 27.7336L14.9183 27.6682L13.5305 27.4882Z" fill="#D33B3B"/>
<path d="M13.5305 27.4882C13.6163 27.489 13.704 27.4902 13.7932 27.4915C14.1567 27.4967 14.544 27.5022 14.9178 27.4814C14.9185 27.4991 14.9188 27.5187 14.9189 27.5403C14.9191 27.5681 14.9188 27.594 14.9186 27.6231C14.9185 27.6371 14.9184 27.6519 14.9183 27.6682M13.5305 27.4882L14.9183 27.6682M13.5305 27.4882H13.342C13.1898 27.4882 13.0315 27.4899 12.8696 27.4918C12.5045 27.496 12.121 27.5004 11.7472 27.4846C11.7471 27.4965 11.747 27.5092 11.7471 27.5226C11.7472 27.5471 11.7474 27.5671 11.7478 27.5895C11.748 27.6058 11.7482 27.6234 11.7484 27.6451V27.6466C11.7487 27.6819 11.7482 27.7199 11.7479 27.752C11.7478 27.7617 11.7477 27.7708 11.7476 27.7792C11.7473 27.8006 11.7472 27.8195 11.7473 27.837C12.8 27.8234 13.8585 27.8178 14.9171 27.8401C14.9175 27.8255 14.9177 27.8096 14.918 27.7922L14.9182 27.7336L14.9183 27.6682" stroke="#E7ECF8"/>
</g>
<g id="Vector_15">
<path d="M13.9557 30.5425C14.3127 30.5448 14.6792 30.5471 15.0411 30.5389C15.0412 30.5448 15.0412 30.551 15.0412 30.5573C15.0412 30.5881 15.0406 30.6188 15.0399 30.6553C15.0397 30.66 15.0397 30.6648 15.0396 30.6697C15.0388 30.7172 15.0393 30.7656 15.0397 30.8047L15.0399 30.813C15.0403 30.8422 15.0405 30.8671 15.0404 30.89C14.7987 30.8901 14.5579 30.8908 14.3178 30.8913C13.5006 30.8935 12.6917 30.8955 11.8817 30.8772C11.8473 30.747 11.8381 30.6603 11.8394 30.607C11.8395 30.5989 11.84 30.5922 11.8405 30.5867C11.8469 30.584 11.8552 30.5811 11.8656 30.5779C11.9284 30.5582 12.0373 30.5405 12.2122 30.5405H12.2147H12.2172H12.2196H12.2221H12.2246H12.227H12.2295H12.232H12.2345H12.2369H12.2394H12.2419H12.2443H12.2468H12.2493H12.2517H12.2542H12.2567H12.2591H12.2616H12.2641H12.2665H12.2691H12.2715H12.2739H12.2765H12.2789H12.2813H12.2839H12.2863H12.2887H12.2913H12.2937H12.2961H12.2987H12.3011H12.3036H12.3061H12.3085H12.311H12.3134H12.3159H12.3184H12.3208H12.3233H12.3258H12.3282H12.3307H12.3332H12.3356H12.3382H12.3406H12.343H12.3456H12.348H12.3504H12.353H12.3554H12.3578H12.3604H12.3628H12.3652H12.3678H12.3702H12.3726H12.3752H12.3776H12.38H12.3826H12.385H12.3875H12.39H12.3924H12.3949H12.3974H12.3998H12.4023H12.4048H12.4072H12.4097H12.4122H12.4146H12.4171H12.4196H12.422H12.4245H12.427H12.4294H12.4319H12.4344H12.4368H12.4393H12.4418H12.4443H12.4467H12.4492H12.4517H12.4541H12.4566H12.4591H12.4615H12.4639H12.4665H12.4689H12.4713H12.4739H12.4763H12.4787H12.4813H12.4837H12.4861H12.4887H12.4911H12.4935H12.4961H12.4985H12.5009H12.5035H12.5059H12.5083H12.5109H12.5133H12.5158H12.5183H12.5207H12.5232H12.5257H12.5281H12.5306H12.5331H12.5355H12.538H12.5405H12.5429H12.5454H12.5479H12.5503H12.5528H12.5553H12.5577H12.5602H12.5627H12.5651H12.5676H12.5701H12.5725H12.575H12.5775H12.5799H12.5824H12.5849H12.5873H12.5898H12.5923H12.5947H12.5972H12.5997H12.6021H12.6046H12.607H12.6095H12.612H12.6144H12.6169H12.6194H12.6218H12.6244H12.6268H12.6292H12.6318H12.6342H12.6366H12.6392H12.6416H12.644H12.6466H12.649H12.6514H12.654H12.6564H12.6588H12.6614H12.6638H12.6662H12.6688H12.6712H12.6736H12.6762H12.6786H12.681H12.6836H12.686H12.6884H12.691H12.6934H12.6958H12.6984H12.7008H12.7032H12.7058H12.7082H12.7106H12.7132H12.7156H12.718H12.7206H12.723H12.7254H12.728H12.7304H12.7328H12.7354H12.7378H12.7402H12.7428H12.7452H12.7476H12.7501H12.7526H12.755H12.7575H12.76H12.7624H12.7649H12.7674H12.7698H12.7723H12.7748H12.7772H12.7797H12.7822H12.7846H12.7871H12.7896H12.792H12.7945H12.797H12.7994H12.8019H12.8044H12.8068H12.8093H12.8118H12.8142H12.8167H12.8192H12.8216H12.8241H12.8266H12.829H12.8315H12.834H12.8364H12.8389H12.8414H12.8438H12.8463H12.8488H12.8512H12.8537H12.8561H12.8586H12.8611H12.8635H12.866H12.8685H12.8709H12.8734H12.8759H12.8783H12.8808H12.8833H12.8857H12.8882H12.8907H12.8931H12.8956H12.8981H12.9005H12.903H12.9055H12.9079H12.9105H12.9129H12.9153H12.9179H12.9203H12.9227H12.9253H12.9277H12.9301H12.9327H12.9351H12.9375H12.9401H12.9425H12.9449H12.9475H12.9499H12.9523H12.9549H12.9573H12.9597H12.9623H12.9647H12.9671H12.9697H12.9721H12.9745H12.9771H12.9795H12.9819H12.9845H12.9869H12.9893H12.9919H12.9943H12.9967H12.9992H13.0017H13.0041H13.0066H13.0091H13.0115H13.014H13.0165H13.0189H13.0214H13.0239H13.0263H13.0288H13.0313H13.0337H13.0362H13.0387H13.0411H13.0436H13.0461H13.0485H13.051H13.0535H13.0559H13.0584H13.0609H13.0633H13.0658H13.0683H13.0707H13.0732H13.0757H13.0781H13.0806H13.0831H13.0855H13.088H13.0905H13.0929H13.0954H13.0979H13.1003H13.1028H13.1052H13.1078H13.1102H13.1126H13.1152H13.1176H13.12H13.1226H13.125H13.1274H13.13H13.1324H13.1348H13.1374H13.1398H13.1422H13.1448H13.1472H13.1496H13.1522H13.1546H13.157H13.1596H13.162H13.1644H13.167H13.1694H13.1718H13.1744H13.1768H13.1792H13.1818H13.1842H13.1866H13.1892H13.1916H13.194H13.1966H13.199H13.2014H13.204H13.2064H13.2089H13.2114H13.2138H13.2163H13.2188H13.2212H13.2237H13.2262H13.2286H13.2311H13.2336H13.236H13.2385H13.241H13.2434H13.2459H13.2483H13.2508H13.2533H13.2557H13.2582H13.2607H13.2631H13.2656H13.2681H13.2705H13.2731H13.2755H13.2779H13.2805H13.2829H13.2853H13.2879H13.2903H13.2927H13.2953H13.2977H13.3001H13.3027H13.3051H13.3075H13.3101H13.3125H13.3149H13.3175H13.3199H13.3224H13.3249H13.3273H13.3298H13.3323H13.3347H13.3372H13.3397H13.3421H13.3446H13.3471H13.3495H13.352H13.3545H13.3569H13.3594H13.3619H13.3644H13.3668H13.3693H13.3718H13.3742H13.3767H13.3792H13.3816H13.3841H13.3866H13.389H13.3914H13.394H13.3964H13.3988H13.4014H13.4038H13.4064H13.4088H13.4112H13.4138H13.4162H13.4186H13.4212H13.4236H13.426H13.4285H13.431H13.4334H13.4359H13.4384H13.4409H13.4433H13.4458H13.4483H13.4507H13.4532H13.4557H13.4581H13.4606H13.4631H13.4655H13.4681H13.4705H13.4729H13.4755C13.6327 30.5405 13.7933 30.5415 13.9557 30.5425Z" fill="#D33B3B"/>
<path d="M11.8203 30.5967C11.8202 30.5967 11.8207 30.5964 11.8215 30.5959M13.9557 30.5425C14.3127 30.5448 14.6792 30.5471 15.0411 30.5389C15.0412 30.5448 15.0412 30.551 15.0412 30.5573C15.0412 30.5881 15.0406 30.6188 15.0399 30.6553C15.0397 30.66 15.0397 30.6648 15.0396 30.6697C15.0388 30.7172 15.0393 30.7656 15.0397 30.8047L15.0399 30.813C15.0403 30.8422 15.0405 30.8671 15.0404 30.89C14.7987 30.8901 14.5579 30.8908 14.3178 30.8913C13.5006 30.8935 12.6917 30.8955 11.8817 30.8772C11.8473 30.747 11.8381 30.6603 11.8394 30.607C11.8395 30.5989 11.84 30.5922 11.8405 30.5867C11.8469 30.584 11.8552 30.5811 11.8656 30.5779C11.9284 30.5582 12.0373 30.5405 12.2122 30.5405H12.2147H12.2172H12.2196H12.2221H12.2246H12.227H12.2295H12.232H12.2345H12.2369H12.2394H12.2419H12.2443H12.2468H12.2493H12.2517H12.2542H12.2567H12.2591H12.2616H12.2641H12.2665H12.2691H12.2715H12.2739H12.2765H12.2789H12.2813H12.2839H12.2863H12.2887H12.2913H12.2937H12.2961H12.2987H12.3011H12.3036H12.3061H12.3085H12.311H12.3134H12.3159H12.3184H12.3208H12.3233H12.3258H12.3282H12.3307H12.3332H12.3356H12.3382H12.3406H12.343H12.3456H12.348H12.3504H12.353H12.3554H12.3578H12.3604H12.3628H12.3652H12.3678H12.3702H12.3726H12.3752H12.3776H12.38H12.3826H12.385H12.3875H12.39H12.3924H12.3949H12.3974H12.3998H12.4023H12.4048H12.4072H12.4097H12.4122H12.4146H12.4171H12.4196H12.422H12.4245H12.427H12.4294H12.4319H12.4344H12.4368H12.4393H12.4418H12.4443H12.4467H12.4492H12.4517H12.4541H12.4566H12.4591H12.4615H12.4639H12.4665H12.4689H12.4713H12.4739H12.4763H12.4787H12.4813H12.4837H12.4861H12.4887H12.4911H12.4935H12.4961H12.4985H12.5009H12.5035H12.5059H12.5083H12.5109H12.5133H12.5158H12.5183H12.5207H12.5232H12.5257H12.5281H12.5306H12.5331H12.5355H12.538H12.5405H12.5429H12.5454H12.5479H12.5503H12.5528H12.5553H12.5577H12.5602H12.5627H12.5651H12.5676H12.5701H12.5725H12.575H12.5775H12.5799H12.5824H12.5849H12.5873H12.5898H12.5923H12.5947H12.5972H12.5997H12.6021H12.6046H12.607H12.6095H12.612H12.6144H12.6169H12.6194H12.6218H12.6244H12.6268H12.6292H12.6318H12.6342H12.6366H12.6392H12.6416H12.644H12.6466H12.649H12.6514H12.654H12.6564H12.6588H12.6614H12.6638H12.6662H12.6688H12.6712H12.6736H12.6762H12.6786H12.681H12.6836H12.686H12.6884H12.691H12.6934H12.6958H12.6984H12.7008H12.7032H12.7058H12.7082H12.7106H12.7132H12.7156H12.718H12.7206H12.723H12.7254H12.728H12.7304H12.7328H12.7354H12.7378H12.7402H12.7428H12.7452H12.7476H12.7501H12.7526H12.755H12.7575H12.76H12.7624H12.7649H12.7674H12.7698H12.7723H12.7748H12.7772H12.7797H12.7822H12.7846H12.7871H12.7896H12.792H12.7945H12.797H12.7994H12.8019H12.8044H12.8068H12.8093H12.8118H12.8142H12.8167H12.8192H12.8216H12.8241H12.8266H12.829H12.8315H12.834H12.8364H12.8389H12.8414H12.8438H12.8463H12.8488H12.8512H12.8537H12.8561H12.8586H12.8611H12.8635H12.866H12.8685H12.8709H12.8734H12.8759H12.8783H12.8808H12.8833H12.8857H12.8882H12.8907H12.8931H12.8956H12.8981H12.9005H12.903H12.9055H12.9079H12.9105H12.9129H12.9153H12.9179H12.9203H12.9227H12.9253H12.9277H12.9301H12.9327H12.9351H12.9375H12.9401H12.9425H12.9449H12.9475H12.9499H12.9523H12.9549H12.9573H12.9597H12.9623H12.9647H12.9671H12.9697H12.9721H12.9745H12.9771H12.9795H12.9819H12.9845H12.9869H12.9893H12.9919H12.9943H12.9967H12.9992H13.0017H13.0041H13.0066H13.0091H13.0115H13.014H13.0165H13.0189H13.0214H13.0239H13.0263H13.0288H13.0313H13.0337H13.0362H13.0387H13.0411H13.0436H13.0461H13.0485H13.051H13.0535H13.0559H13.0584H13.0609H13.0633H13.0658H13.0683H13.0707H13.0732H13.0757H13.0781H13.0806H13.0831H13.0855H13.088H13.0905H13.0929H13.0954H13.0979H13.1003H13.1028H13.1052H13.1078H13.1102H13.1126H13.1152H13.1176H13.12H13.1226H13.125H13.1274H13.13H13.1324H13.1348H13.1374H13.1398H13.1422H13.1448H13.1472H13.1496H13.1522H13.1546H13.157H13.1596H13.162H13.1644H13.167H13.1694H13.1718H13.1744H13.1768H13.1792H13.1818H13.1842H13.1866H13.1892H13.1916H13.194H13.1966H13.199H13.2014H13.204H13.2064H13.2089H13.2114H13.2138H13.2163H13.2188H13.2212H13.2237H13.2262H13.2286H13.2311H13.2336H13.236H13.2385H13.241H13.2434H13.2459H13.2483H13.2508H13.2533H13.2557H13.2582H13.2607H13.2631H13.2656H13.2681H13.2705H13.2731H13.2755H13.2779H13.2805H13.2829H13.2853H13.2879H13.2903H13.2927H13.2953H13.2977H13.3001H13.3027H13.3051H13.3075H13.3101H13.3125H13.3149H13.3175H13.3199H13.3224H13.3249H13.3273H13.3298H13.3323H13.3347H13.3372H13.3397H13.3421H13.3446H13.3471H13.3495H13.352H13.3545H13.3569H13.3594H13.3619H13.3644H13.3668H13.3693H13.3718H13.3742H13.3767H13.3792H13.3816H13.3841H13.3866H13.389H13.3914H13.394H13.3964H13.3988H13.4014H13.4038H13.4064H13.4088H13.4112H13.4138H13.4162H13.4186H13.4212H13.4236H13.426H13.4285H13.431H13.4334H13.4359H13.4384H13.4409H13.4433H13.4458H13.4483H13.4507H13.4532H13.4557H13.4581H13.4606H13.4631H13.4655H13.4681H13.4705H13.4729H13.4755C13.6327 30.5405 13.7933 30.5415 13.9557 30.5425Z" stroke="#E7ECF8"/>
</g>
<path id="Vector_16" d="M40.2591 30.8938C40.2331 30.7739 40.2077 30.6571 40.1826 30.5416C40.8692 30.541 41.552 30.5406 42.2344 30.5467C42.2445 30.6652 42.2506 30.77 42.2485 30.8662C42.2414 30.8674 42.2343 30.8687 42.227 30.8698C42.1775 30.8779 42.1358 30.8817 42.1084 30.8826C41.5583 30.9008 41.0114 30.8979 40.4549 30.8949C40.3898 30.8946 40.3245 30.8941 40.2591 30.8938Z" fill="#D33B3B" stroke="#E7ECF8"/>
<path id="Vector_17" d="M42.114 27.8233C41.6649 27.8421 41.2208 27.8392 40.7637 27.8359C40.7706 27.7198 40.7774 27.6053 40.7842 27.4901C41.2695 27.4896 41.7534 27.489 42.2378 27.4935C42.2478 27.6097 42.2542 27.7118 42.253 27.8059C42.247 27.807 42.2409 27.8081 42.2349 27.8091C42.1855 27.8175 42.143 27.822 42.114 27.8233Z" fill="#D33B3B" stroke="#E7ECF8"/>
<path id="Vector_18" d="M29.3037 24.3562C32.0545 25.4142 34.6692 26.4192 37.4393 27.4854C36.9854 27.7255 36.6594 27.9015 36.3305 28.0693C36.0756 28.1995 35.8197 28.3267 35.5577 28.4416C34.5818 28.8729 34.5474 28.9634 35.306 29.7518C35.7953 30.2605 36.3528 30.7051 36.9235 31.2177C36.4859 31.6369 36.1771 31.9319 35.84 32.2544C35.2247 31.6084 34.6357 30.9868 34.0437 30.3684C33.667 29.9746 33.47 29.9889 33.1907 30.4701C32.8861 30.994 32.6181 31.5392 32.3297 32.0723C32.2443 32.2289 32.1429 32.3774 31.9692 32.6593C31.0675 29.8495 30.2075 27.173 29.3037 24.3562Z" fill="#E7ECF8"/>
</g>
</g>
</g>
</g>
<defs>
<clipPath id="clip0_2161_2302">
<rect width="53" height="53" fill="white"/>
</clipPath>
</defs>
</svg>
