<svg width="53" height="53" viewBox="0 0 53 53" fill="none" xmlns="http://www.w3.org/2000/svg">
<g id="Design-Consulting.svg">
<path id="Vector" d="M20.8939 42.5758C20.8939 39.6995 19.0366 37.255 16.4611 36.3612C17.6545 35.6331 18.4561 34.3224 18.4561 32.8246C18.4561 30.5395 16.5971 28.6802 14.3116 28.6802C12.0266 28.6802 10.1673 30.5395 10.1673 32.8246C10.1673 34.3224 10.9685 35.6331 12.1623 36.3612C9.58673 37.255 7.72949 39.6995 7.72949 42.5758C7.72949 42.8451 7.94783 43.0634 8.21719 43.0634H20.4061C20.6755 43.0634 20.8939 42.8451 20.8939 42.5758Z" fill="#F4AF10"/>
<path id="Vector_2" d="M40.8387 13.2017C42.0324 12.4737 42.8341 11.1629 42.8341 9.66513C42.8341 7.38005 40.9751 5.52072 38.6897 5.52072C36.4046 5.52072 34.5452 7.37997 34.5452 9.66513C34.5452 11.1629 35.3465 12.4737 36.5402 13.2017C33.9647 14.0956 32.1074 16.5401 32.1074 19.4162C32.1074 19.6856 32.3258 19.9039 32.5951 19.9039H44.784C45.0534 19.9039 45.2717 19.686 45.2717 19.4162C45.2717 16.5401 43.4146 14.0956 40.8387 13.2017Z" fill="#F4AF10"/>
<path id="Vector_3" d="M13.0957 24.7762C13.3651 24.7762 13.5834 24.5582 13.5834 24.2885C13.5834 17.5819 18.7202 12.0543 25.2656 11.4292L23.7205 12.9743C23.5302 13.1646 23.5302 13.4731 23.7205 13.6636C23.8158 13.7588 23.9406 13.8064 24.0655 13.8064C24.1902 13.8064 24.315 13.7588 24.4103 13.6636L26.8481 11.2258C26.895 11.1789 26.9293 11.1248 26.9531 11.0674C26.9769 11.0099 26.9908 10.9469 26.9908 10.881C26.9908 10.815 26.9769 10.7521 26.9531 10.6946C26.9293 10.6371 26.8947 10.583 26.8481 10.5361L24.4103 8.09833C24.2198 7.90788 23.9113 7.90788 23.7209 8.09833C23.5305 8.28878 23.5305 8.59724 23.7209 8.7877L25.3761 10.443C18.2397 11.0194 12.6074 17.0068 12.6074 24.2887C12.6074 24.5581 12.8263 24.7762 13.0957 24.7762Z" fill="#C6CBD6"/>
<path id="Vector_4" d="M29.283 34.9169C29.0925 34.7265 28.7842 34.7265 28.5937 34.9169L26.1559 37.3547C26.109 37.4016 26.0745 37.4558 26.0508 37.5132C26.0266 37.5707 26.0127 37.6336 26.0127 37.6996C26.0127 37.7656 26.0266 37.8285 26.0505 37.8859C26.0742 37.9435 26.109 37.9975 26.1556 38.0445L28.5934 40.4823C28.6885 40.5775 28.8133 40.625 28.9382 40.625C29.063 40.625 29.1878 40.5775 29.283 40.4823C29.4735 40.2918 29.4735 39.9833 29.283 39.7928L27.6278 38.1376C34.7639 37.5611 40.3957 31.5737 40.3957 24.2919C40.3957 24.0225 40.1773 23.8042 39.908 23.8042C39.6386 23.8042 39.4203 24.0221 39.4203 24.2919C39.4203 30.9985 34.2835 36.526 27.7381 37.1512L29.2831 35.6062C29.4735 35.416 29.4734 35.1074 29.283 34.9169Z" fill="#C6CBD6"/>
</g>
</svg>
