<svg width="31" height="31" viewBox="0 0 31 31" fill="none" xmlns="http://www.w3.org/2000/svg">
<g clip-path="url(#clip0_1809_152)">
<path d="M7.23333 22.7333C7.02958 22.734 6.82773 22.6941 6.63951 22.6161C6.4513 22.538 6.28047 22.4233 6.13697 22.2787L0.45415 16.5959C0.161717 16.3045 0 15.9149 0 15.5C0 15.0851 0.161717 14.6956 0.454667 14.4036L6.13748 8.72082C6.28095 8.5763 6.45171 8.46174 6.63983 8.38377C6.82796 8.30581 7.0297 8.266 7.23333 8.26667C8.0879 8.26667 8.78333 8.9621 8.78333 9.81667C8.78333 10.2316 8.62162 10.6211 8.32867 10.913L3.7417 15.5L8.32918 20.0875C8.62213 20.3789 8.78333 20.7685 8.78333 21.1833C8.78333 22.0379 8.0879 22.7333 7.23333 22.7333ZM23.7667 23.25C22.9121 23.25 22.2167 22.5546 22.2167 21.7C22.2167 21.2851 22.3784 20.8956 22.6713 20.6036L27.2583 16.0167L22.6708 11.4292C22.5265 11.2856 22.412 11.1148 22.334 10.9267C22.2561 10.7386 22.2162 10.5369 22.2167 10.3333C22.2167 9.47877 22.9121 8.78334 23.7667 8.78334C24.1815 8.78334 24.5711 8.94505 24.863 9.238L30.5458 14.9208C30.8388 15.2133 31 15.6028 31 16.0167C31 16.4316 30.8383 16.8211 30.5453 17.113L24.8625 22.7959C24.7191 22.9405 24.5484 23.0551 24.3602 23.1331C24.1721 23.211 23.9703 23.2508 23.7667 23.25ZM10.85 27.3833C10.5949 27.3829 10.3438 27.3197 10.119 27.1991C9.8942 27.0786 9.70256 26.9045 9.56105 26.6922C9.41955 26.4799 9.33255 26.2361 9.30774 25.9822C9.28293 25.7283 9.32109 25.4722 9.41883 25.2366L18.7193 4.56889C18.8371 4.28662 19.0358 4.04555 19.2904 3.87609C19.5451 3.70662 19.8442 3.61635 20.15 3.61667C20.4051 3.61707 20.6562 3.68035 20.881 3.8009C21.1058 3.92144 21.2974 4.09555 21.4389 4.3078C21.5804 4.52006 21.6675 4.76392 21.6923 5.01781C21.7171 5.2717 21.6789 5.52779 21.5812 5.76342L12.2806 26.4311C12.1629 26.7134 11.9642 26.9545 11.7096 27.1239C11.4549 27.2934 11.1558 27.3837 10.85 27.3833Z" fill="white"/>
</g>
<defs>
<clipPath id="clip0_1809_152">
<rect width="31" height="31" fill="white"/>
</clipPath>
</defs>
</svg>
