<svg width="33" height="25" viewBox="0 0 33 25" fill="none" xmlns="http://www.w3.org/2000/svg">
<path d="M32.6998 2.60086L22.7008 12.5355L32.6998 22.4701C32.8805 22.0923 32.9902 21.6747 32.9902 21.2287V3.84231C32.9902 3.39625 32.8805 2.97866 32.6998 2.60086ZM30.0925 0.94458H2.91824C2.47218 0.94458 2.05458 1.05424 1.67678 1.235L14.4566 13.9504C15.5866 15.0804 17.4241 15.0804 18.5541 13.9504L31.3339 1.235C30.9561 1.05424 30.5385 0.94458 30.0925 0.94458ZM0.310925 2.60086C0.130171 2.97866 0.0205078 3.39625 0.0205078 3.84231V21.2287C0.0205078 21.6747 0.130171 22.0924 0.310925 22.4701L10.31 12.5355L0.310925 2.60086Z" fill="#00D4A1"/>
<path d="M21.3349 13.9014L19.9199 15.3163C18.0371 17.1991 14.9735 17.1991 13.0906 15.3163L11.6758 13.9014L1.67676 23.836C2.05456 24.0168 2.47215 24.1264 2.91821 24.1264H30.0924C30.5385 24.1264 30.9561 24.0168 31.3339 23.836L21.3349 13.9014Z" fill="#00D4A1"/>
</svg>
