<svg width="53" height="53" viewBox="0 0 53 53" fill="none" xmlns="http://www.w3.org/2000/svg">
<g id="Interaction-Design.svg">
<path id="Vector" d="M39.8885 42.8991H12.1455V10.1185H39.8885V42.8991ZM25.9774 32.2954C23.2297 32.2954 20.4806 32.2954 17.7329 32.2954C17.5898 32.2954 17.4058 32.249 17.3112 32.3198C17.1515 32.4382 16.9598 32.6262 16.9457 32.7988C16.9355 32.9378 17.1451 33.1296 17.2998 33.2326C17.402 33.3008 17.5783 33.2595 17.7228 33.2595C23.2514 33.2595 28.78 33.2595 34.3075 33.2595C34.4352 33.2595 34.6014 33.3059 34.6832 33.2429C34.8531 33.1128 35.073 32.9326 35.0921 32.7537C35.1062 32.6184 34.8621 32.4203 34.6934 32.3122C34.5899 32.2451 34.4135 32.294 34.2691 32.2928C31.5048 32.2928 28.7405 32.2928 25.9761 32.2928L25.9774 32.2954ZM26.0196 37.1254C28.7673 37.1254 31.5162 37.1254 34.264 37.1254C34.4072 37.1254 34.5899 37.1757 34.687 37.1061C34.8595 36.9826 35.0742 36.7946 35.0921 36.6156C35.1049 36.4805 34.8557 36.2912 34.6895 36.1766C34.6014 36.1161 34.4416 36.16 34.3139 36.16C28.7852 36.16 23.2565 36.16 17.7292 36.16C17.586 36.16 17.4096 36.1174 17.3061 36.1857C17.1501 36.2887 16.9367 36.4766 16.9457 36.6156C16.9572 36.7881 17.1464 36.9787 17.3061 37.0984C17.4007 37.1692 17.5834 37.1241 17.7278 37.1241C20.4921 37.1241 23.2565 37.1241 26.0208 37.1241L26.0196 37.1254ZM23.1543 24.5687C21.3165 24.5687 19.48 24.5714 17.6423 24.5662C17.278 24.5662 16.9227 24.6035 16.9291 25.0644C16.9355 25.4893 17.2729 25.5369 17.6217 25.5356C21.2961 25.5317 24.9716 25.5317 28.6458 25.5356C29.0101 25.5356 29.3692 25.4957 29.3577 25.0361C29.3462 24.5765 28.973 24.5649 28.6178 24.5649C26.7966 24.5687 24.9754 24.5675 23.1529 24.5675L23.1543 24.5687ZM23.1325 29.3989C24.8579 29.3989 26.5831 29.3989 28.3097 29.3989C28.4695 29.3989 28.6293 29.3989 28.7889 29.3989C29.1238 29.4015 29.368 29.2624 29.3628 28.9033C29.3577 28.5737 29.1277 28.4333 28.812 28.4333C28.7162 28.4333 28.6203 28.4333 28.5245 28.4333C24.9294 28.4333 21.3344 28.4333 17.7393 28.4333C17.6435 28.4333 17.5476 28.4321 17.4518 28.4347C17.1336 28.4437 16.8805 28.6098 16.9431 28.9238C16.9802 29.1066 17.2473 29.2598 17.4351 29.3899C17.5119 29.4426 17.6524 29.4001 17.7649 29.4001C19.5541 29.4001 21.3433 29.4001 23.1338 29.4001L23.1325 29.3989ZM21.3447 19.7309C21.4174 19.6627 21.5989 19.5637 21.6756 19.4117C22.6265 17.5206 23.5722 15.6257 24.4885 13.7166C24.564 13.5582 24.4885 13.2351 24.3658 13.0935C24.1486 12.8425 23.8162 12.9738 23.6181 13.3664C23.006 14.5842 22.4028 15.8072 21.797 17.0288C21.4763 17.6751 21.1478 18.3188 20.8385 18.9702C20.6519 19.3654 20.8603 19.7425 21.3447 19.7297V19.7309ZM17.085 16.3543C17.6167 15.8317 18.0946 15.3618 18.5713 14.8919C18.809 14.6563 18.9636 14.3911 18.68 14.1002C18.3975 13.8105 18.1343 13.9573 17.8966 14.1993C17.3342 14.7683 16.7655 15.3308 16.207 15.905C15.8504 16.2732 15.8568 16.456 16.2313 16.8397C16.7681 17.3893 17.3138 17.9301 17.8531 18.4772C18.0946 18.7217 18.3567 18.9342 18.671 18.6264C18.9842 18.32 18.7937 18.0459 18.5458 17.8013C18.0806 17.3404 17.6153 16.8795 17.085 16.3543ZM28.2663 16.3595C27.7027 16.9091 27.2094 17.388 26.72 17.8695C26.486 18.1 26.3889 18.3626 26.6509 18.6239C26.9142 18.8865 27.171 18.7796 27.4011 18.5479C27.9762 17.9686 28.5487 17.3868 29.1289 16.8138C29.4434 16.5024 29.4407 16.214 29.1277 15.905C28.5577 15.3424 27.9966 14.7721 27.4344 14.2032C27.1966 13.9624 26.9359 13.8105 26.6496 14.0976C26.3646 14.3847 26.5116 14.6512 26.7531 14.8867C27.2336 15.354 27.7129 15.8226 28.265 16.3595H28.2663Z" fill="#00D4A1"/>
<path id="Vector_2" d="M12.1455 9.07992C12.1826 8.24701 12.1416 7.4347 12.267 6.64943C12.5762 4.71714 14.2133 3.32682 16.1622 3.32296C22.7734 3.31008 29.3859 3.30751 35.9969 3.32296C38.1977 3.3281 39.9357 5.10077 39.9779 7.31497C39.9895 7.8917 39.9792 8.46972 39.9792 9.07863H12.1455V9.07992Z" fill="#00D4A1"/>
<path id="Vector_3" d="M39.9837 43.9185C39.9466 44.7527 39.9837 45.5637 39.8597 46.349C39.5542 48.2632 37.9324 49.6676 36.0129 49.6728C29.3699 49.6908 22.7267 49.6935 16.0836 49.6728C13.9366 49.6664 12.2011 47.8861 12.1525 45.7311C12.1385 45.1388 12.1499 44.5454 12.1499 43.9198H39.9837V43.9185Z" fill="#E7ECF8"/>
<path id="Vector_4" d="M37.9526 12.5878H14.2119V40.412H37.9526V12.5878Z" fill="#00D4A1"/>
<path id="Vector_5" d="M32.8464 26.7568C31.8396 25.9262 30.879 25.1425 29.9307 24.3442C29.7722 24.2105 29.6128 24.0291 29.5505 23.8386C29.4427 23.5059 29.5597 23.1993 29.8714 23.0133C30.1924 22.8212 30.508 22.8681 30.7951 23.104C31.8904 24.0061 32.9857 24.9096 34.0803 25.8125C34.228 25.9346 34.3828 26.0499 34.5213 26.1813C34.8754 26.5148 34.8985 27.0149 34.5283 27.3254C33.266 28.3865 31.992 29.4345 30.7104 30.4726C30.3694 30.7492 29.9007 30.6647 29.652 30.3351C29.4049 30.0078 29.4551 29.569 29.8036 29.277C30.6557 28.5624 31.5179 27.8594 32.3754 27.151C32.5208 27.0311 32.6648 26.9089 32.8448 26.7576L32.8464 26.7568Z" fill="#E7ECF8"/>
<path id="Vector_6" d="M19.2734 26.7635C20.1332 27.4734 20.9583 28.1543 21.7835 28.835C21.9705 28.9895 22.1661 29.1354 22.3431 29.2998C22.6671 29.6011 22.6933 30.0467 22.4185 30.3633C22.1614 30.6591 21.7065 30.7183 21.3825 30.4547C20.114 29.4244 18.85 28.3863 17.5969 27.3375C17.2083 27.0125 17.2182 26.4954 17.6085 26.1695C18.8439 25.1385 20.087 24.1172 21.3332 23.0984C21.6949 22.8026 22.1607 22.8426 22.4285 23.1668C22.7148 23.5134 22.6602 23.9567 22.2731 24.2794C21.3902 25.0147 20.4996 25.7423 19.6128 26.4738C19.5151 26.5546 19.4189 26.639 19.2734 26.7635Z" fill="#E7ECF8"/>
<path id="Vector_7" d="M24.3297 31.1402C23.7962 31.1424 23.4399 30.6391 23.6208 30.1351C23.6508 30.0514 23.6908 29.9707 23.7317 29.8916C24.8323 27.7479 25.9353 25.6056 27.0322 23.4596C27.2015 23.1284 27.417 22.8894 27.8227 22.9056C28.3199 22.9255 28.6571 23.4012 28.5077 23.876C28.4808 23.9606 28.4385 24.0404 28.3978 24.1196C27.2862 26.2864 26.1732 28.4524 25.0641 30.6199C24.9078 30.9258 24.6976 31.141 24.3297 31.1402Z" fill="#E7ECF8"/>
<path id="Vector_8" d="M26.5957 48.6552C27.7358 48.6552 28.6601 47.7324 28.6601 46.5941C28.6601 45.4558 27.7358 44.5331 26.5957 44.5331C25.4555 44.5331 24.5312 45.4558 24.5312 46.5941C24.5312 47.7324 25.4555 48.6552 26.5957 48.6552Z" fill="white"/>
<path id="Vector_9" d="M39.8885 42.8991H12.1455V10.1185H39.8885V42.8991ZM25.9774 32.2954C23.2297 32.2954 20.4806 32.2954 17.7329 32.2954C17.5898 32.2954 17.4058 32.249 17.3112 32.3198C17.1515 32.4382 16.9598 32.6262 16.9457 32.7988C16.9355 32.9378 17.1451 33.1296 17.2998 33.2326C17.402 33.3008 17.5783 33.2595 17.7228 33.2595C23.2514 33.2595 28.78 33.2595 34.3075 33.2595C34.4352 33.2595 34.6014 33.3059 34.6832 33.2429C34.8531 33.1128 35.073 32.9326 35.0921 32.7537C35.1062 32.6184 34.8621 32.4203 34.6934 32.3122C34.5899 32.2451 34.4135 32.294 34.2691 32.2928C31.5048 32.2928 28.7405 32.2928 25.9761 32.2928L25.9774 32.2954ZM26.0196 37.1254C28.7673 37.1254 31.5162 37.1254 34.264 37.1254C34.4072 37.1254 34.5899 37.1757 34.687 37.1061C34.8595 36.9826 35.0742 36.7946 35.0921 36.6156C35.1049 36.4805 34.8557 36.2912 34.6895 36.1766C34.6014 36.1161 34.4416 36.16 34.3139 36.16C28.7852 36.16 23.2565 36.16 17.7292 36.16C17.586 36.16 17.4096 36.1174 17.3061 36.1857C17.1501 36.2887 16.9367 36.4766 16.9457 36.6156C16.9572 36.7881 17.1464 36.9787 17.3061 37.0984C17.4007 37.1692 17.5834 37.1241 17.7278 37.1241C20.4921 37.1241 23.2565 37.1241 26.0208 37.1241L26.0196 37.1254ZM23.1543 24.5687C21.3165 24.5687 19.48 24.5714 17.6423 24.5662C17.278 24.5662 16.9227 24.6035 16.9291 25.0644C16.9355 25.4893 17.2729 25.5369 17.6217 25.5356C21.2961 25.5317 24.9716 25.5317 28.6458 25.5356C29.0101 25.5356 29.3692 25.4957 29.3577 25.0361C29.3462 24.5765 28.973 24.5649 28.6178 24.5649C26.7966 24.5687 24.9754 24.5675 23.1529 24.5675L23.1543 24.5687ZM23.1325 29.3989C24.8579 29.3989 26.5831 29.3989 28.3097 29.3989C28.4695 29.3989 28.6293 29.3989 28.7889 29.3989C29.1238 29.4015 29.368 29.2624 29.3628 28.9033C29.3577 28.5737 29.1277 28.4333 28.812 28.4333C28.7162 28.4333 28.6203 28.4333 28.5245 28.4333C24.9294 28.4333 21.3344 28.4333 17.7393 28.4333C17.6435 28.4333 17.5476 28.4321 17.4518 28.4347C17.1336 28.4437 16.8805 28.6098 16.9431 28.9238C16.9802 29.1066 17.2473 29.2598 17.4351 29.3899C17.5119 29.4426 17.6524 29.4001 17.7649 29.4001C19.5541 29.4001 21.3433 29.4001 23.1338 29.4001L23.1325 29.3989ZM21.3447 19.7309C21.4174 19.6627 21.5989 19.5637 21.6756 19.4117C22.6265 17.5206 23.5722 15.6257 24.4885 13.7166C24.564 13.5582 24.4885 13.2351 24.3658 13.0935C24.1486 12.8425 23.8162 12.9738 23.6181 13.3664C23.006 14.5842 22.4028 15.8072 21.797 17.0288C21.4763 17.6751 21.1478 18.3188 20.8385 18.9702C20.6519 19.3654 20.8603 19.7425 21.3447 19.7297V19.7309ZM17.085 16.3543C17.6167 15.8317 18.0946 15.3618 18.5713 14.8919C18.809 14.6563 18.9636 14.3911 18.68 14.1002C18.3975 13.8105 18.1343 13.9573 17.8966 14.1993C17.3342 14.7683 16.7655 15.3308 16.207 15.905C15.8504 16.2732 15.8568 16.456 16.2313 16.8397C16.7681 17.3893 17.3138 17.9301 17.8531 18.4772C18.0946 18.7217 18.3567 18.9342 18.671 18.6264C18.9842 18.32 18.7937 18.0459 18.5458 17.8013C18.0806 17.3404 17.6153 16.8795 17.085 16.3543ZM28.2663 16.3595C27.7027 16.9091 27.2094 17.388 26.72 17.8695C26.486 18.1 26.3889 18.3626 26.6509 18.6239C26.9142 18.8865 27.171 18.7796 27.4011 18.5479C27.9762 17.9686 28.5487 17.3868 29.1289 16.8138C29.4434 16.5024 29.4407 16.214 29.1277 15.905C28.5577 15.3424 27.9966 14.7721 27.4344 14.2032C27.1966 13.9624 26.9359 13.8105 26.6496 14.0976C26.3646 14.3847 26.5116 14.6512 26.7531 14.8867C27.2336 15.354 27.7129 15.8226 28.265 16.3595H28.2663Z" fill="#00D4A1"/>
<path id="Vector_10" d="M12.1455 9.07992C12.1826 8.24701 12.1416 7.4347 12.267 6.64943C12.5762 4.71714 14.2133 3.32682 16.1622 3.32296C22.7734 3.31008 29.3859 3.30751 35.9969 3.32296C38.1977 3.3281 39.9357 5.10077 39.9779 7.31497C39.9895 7.8917 39.9792 8.46972 39.9792 9.07863H12.1455V9.07992Z" fill="#00D4A1"/>
<path id="Vector_11" d="M39.9837 44.1665C39.9466 45.0007 39.9837 45.8117 39.8597 46.597C39.5542 48.5113 37.9324 49.9157 36.0129 49.9209C29.3699 49.9389 22.7267 49.9415 16.0836 49.9209C13.9366 49.9145 12.2011 48.1341 12.1525 45.9791C12.1385 45.3869 12.1499 44.7935 12.1499 44.1678H39.9837V44.1665Z" fill="#F8F8F8"/>
<path id="Vector_12" d="M37.9546 12.5878H14.2139V40.412H37.9546V12.5878Z" fill="#00D4A1"/>
<path id="Vector_13" d="M25.9482 48.5831C26.863 48.5831 27.6045 47.8416 27.6045 46.9269C27.6045 46.0122 26.863 45.2706 25.9482 45.2706C25.0335 45.2706 24.292 46.0122 24.292 46.9269C24.292 47.8416 25.0335 48.5831 25.9482 48.5831Z" fill="white"/>
<path id="Vector_14" d="M30.2336 24.9603C30.1819 24.7596 29.9972 24.4471 30.0759 24.2289C30.1464 24.0336 30.5394 23.7923 30.7338 23.8332C31.5919 24.0155 32.4375 24.2713 33.2726 24.5454C33.6044 24.6542 33.7764 24.9966 33.6001 25.3016C33.4823 25.5047 33.1255 25.7394 32.931 25.6987C32.072 25.5181 31.234 25.2451 30.2336 24.9603Z" fill="#E7ECF8"/>
<path id="Vector_15" d="M27.8854 17.9828C27.6937 18.0384 27.4104 18.206 27.1552 18.1721C26.8062 18.1248 26.6519 17.7984 26.7439 17.4545C26.9624 16.6352 27.2042 15.823 27.4572 15.0141C27.5726 14.6445 27.8637 14.4867 28.232 14.5976C28.576 14.7009 28.7295 14.9802 28.6358 15.3302C28.4125 16.1658 28.1659 16.9944 27.8844 17.9823L27.8854 17.9828Z" fill="#E7ECF8"/>
<path id="Vector_16" d="M16.9853 20.5383C16.9313 20.3376 16.7447 20.0288 16.8224 19.8149C16.8929 19.6195 17.2817 19.3751 17.4738 19.4158C18.3309 19.5978 19.1755 19.8554 20.0107 20.1248C20.3487 20.2332 20.5168 20.5714 20.3481 20.8754C20.2336 21.0813 19.8761 21.3264 19.6839 21.2856C18.8255 21.1042 17.9884 20.8268 16.9853 20.5383Z" fill="#E7ECF8"/>
<path id="Vector_17" d="M23.2913 18.2921C23.0313 18.8139 22.4522 18.873 22.1901 18.4406C21.7425 17.7 21.3381 16.9319 20.9433 16.1605C20.7765 15.8359 20.8951 15.4831 21.2232 15.384C21.4467 15.3163 21.8753 15.4002 21.9823 15.5656C22.4589 16.3068 22.8615 17.0974 23.2668 17.8824C23.3362 18.0159 23.2886 18.2099 23.2913 18.2921Z" fill="#E7ECF8"/>
<path id="Vector_18" d="M33.8187 19.5638C33.5989 19.7306 33.4727 19.851 33.3271 19.9333C32.6918 20.2913 32.0531 20.6441 31.4094 20.9884C30.9577 21.2304 30.5915 21.1615 30.4277 20.801C30.238 20.3852 30.4309 20.1027 30.7951 19.9021C31.4805 19.5261 32.1525 19.121 32.86 18.7937C33.0566 18.7031 33.4176 18.7681 33.5962 18.9028C33.7501 19.0192 33.7508 19.3372 33.8187 19.5638Z" fill="#E7ECF8"/>
<path id="Vector_19" d="M20.2436 24.8544C20.0528 25.0147 19.9594 25.1211 19.8428 25.1877C19.1471 25.5796 18.4504 25.9687 17.7449 26.3428C17.3844 26.5336 17.0538 26.4616 16.861 26.091C16.6785 25.7398 16.814 25.4437 17.145 25.2556C17.8553 24.8535 18.5591 24.4363 19.2953 24.0917C19.4899 24.0002 19.8546 24.0717 20.0342 24.2093C20.1857 24.3257 20.1827 24.6442 20.2423 24.8548L20.2436 24.8544Z" fill="#E7ECF8"/>
<path id="Vector_20" d="M26.5045 25.5037C27.0302 25.5037 27.4563 25.9303 27.4563 26.4555V29.9905H27.8317V27.5944C27.8317 27.0687 28.2584 26.6426 28.7835 26.6426C29.3093 26.6426 29.7354 27.0691 29.7354 27.5944V30.9741H30.1175V28.9475C30.1175 28.422 30.5441 27.9956 31.0694 27.9956C31.5948 27.9956 32.0212 28.4223 32.0212 29.2322V35.0612C32.0204 37.5387 29.5526 40.0074 26.5035 40.0086C23.4558 40.0078 20.9882 37.54 20.986 34.491H20.9795L20.986 28.4038C20.986 27.5929 20.9914 27.452 21.5169 27.452C22.4377 27.452 22.8831 28.2931 22.8831 28.8182V31.4084H23.2652V23.0349C23.2652 22.5092 23.6918 22.0831 24.217 22.0831C24.7427 22.0831 25.1688 22.5097 25.1688 23.0349V29.9894H25.551V26.4544C25.5507 25.9295 25.9776 25.5026 26.5029 25.5026" fill="#E7ECF8"/>
</g>
</svg>
