<svg width="53" height="53" viewBox="0 0 53 53" fill="none" xmlns="http://www.w3.org/2000/svg">
<g id="Interface-design.svg">
<path id="Vector" d="M4.27898 10.1887H8.79009C9.33105 10.1887 9.75595 9.76445 9.75595 9.22439V7.94164H17.9381C12.2197 10.6517 7.96946 16.0043 6.80053 22.3987C5.0811 22.6977 3.76707 24.2022 3.76707 26.0056C3.76707 28.0311 5.41902 29.6702 7.43768 29.6702C9.46646 29.6702 11.1082 28.0306 11.1082 26.0056C11.1082 24.4334 10.123 23.1025 8.73183 22.5819C10.123 15.3682 15.8511 9.65827 23.0675 8.26951C23.5894 9.65838 24.9322 10.6421 26.4971 10.6421C28.0719 10.6421 29.4147 9.65843 29.9362 8.26951C37.152 9.64877 42.8809 15.3771 44.2719 22.5819C42.8808 23.1026 41.8857 24.4338 41.8857 26.0056C41.8857 28.0311 43.5376 29.6702 45.566 29.6702C47.5851 29.6702 49.2366 28.0306 49.2366 26.0056C49.2366 24.2022 47.923 22.6977 46.2032 22.3987C45.0343 16.0047 40.784 10.652 35.0552 7.94164H43.2374V9.22439C43.2374 9.76446 43.672 10.1887 44.2032 10.1887H48.7152C49.2561 10.1887 49.681 9.76445 49.681 9.22439V4.7206C49.681 4.19023 49.2561 3.75632 48.7152 3.75632H44.2041C43.6728 3.75632 43.2382 4.19023 43.2382 4.7206V6.01306L30.0421 6.01267C29.6268 4.46032 28.1872 3.31232 26.4968 3.31232C24.8064 3.31232 23.3764 4.45981 22.9613 6.01267H9.75574V4.72062C9.75574 4.19024 9.33083 3.75634 8.7899 3.75634L4.27836 3.75593C3.74711 3.75593 3.3125 4.18983 3.3125 4.72021V9.22399C3.3125 9.76447 3.74773 10.1887 4.27898 10.1887Z" fill="#282689"/>
<path id="Vector_2" d="M16.3792 28.9195L21.2415 37.4245H31.7736L36.6361 28.9195C36.81 28.6107 36.8002 28.2252 36.607 27.9164L27.4731 13.6919V22.9811C28.7107 23.3896 29.6127 24.542 29.6127 25.9136C29.6127 27.6229 28.2194 29.0139 26.5073 29.0139C24.7951 29.0139 23.402 27.6229 23.402 25.9136C23.402 24.5421 24.3038 23.3896 25.5414 22.9811V13.693L16.4085 27.9155C16.2152 28.2243 16.2054 28.6106 16.3792 28.9195Z" fill="#282689"/>
<path id="Vector_3" d="M21.2314 48.7174C21.2314 49.2477 21.666 49.6817 22.1974 49.6817H30.8043C31.3356 49.6817 31.7702 49.2477 31.7702 48.7174V39.353H21.2319L21.2314 48.7174Z" fill="#E7ECF8"/>
</g>
</svg>
