<svg width="24" height="24" viewBox="0 0 24 24" fill="none" xmlns="http://www.w3.org/2000/svg">
<path d="M4.3077 21.5C3.80257 21.5 3.375 21.325 3.025 20.975C2.675 20.625 2.5 20.1974 2.5 19.6923V8.30771C2.5 7.80258 2.675 7.37501 3.025 7.02501C3.375 6.67501 3.80257 6.50001 4.3077 6.50001H8.5V4.80774C8.5 4.30262 8.675 3.87506 9.025 3.52506C9.375 3.17506 9.80257 3.00006 10.3077 3.00006H13.6922C14.1974 3.00006 14.6249 3.17506 14.9749 3.52506C15.3249 3.87506 15.5 4.30262 15.5 4.80774V6.50001H19.6922C20.1974 6.50001 20.625 6.67501 20.975 7.02501C21.3249 7.37501 21.5 7.80258 21.5 8.30771V19.6923C21.5 20.1974 21.3249 20.625 20.975 20.975C20.625 21.325 20.1974 21.5 19.6922 21.5H4.3077ZM9.99997 6.50001H14V4.80774C14 4.7308 13.9679 4.66029 13.9038 4.59619C13.8397 4.53207 13.7692 4.50001 13.6922 4.50001H10.3077C10.2308 4.50001 10.1602 4.53207 10.0961 4.59619C10.032 4.66029 9.99997 4.7308 9.99997 4.80774V6.50001ZM11.25 14.75V17.75H12.7499V14.75H15.75V13.25H12.7499V10.25H11.25V13.25H8.25V14.75H11.25Z" fill="#D33B3B"/>
</svg>
