<svg width="24" height="32" viewBox="0 0 24 32" fill="none" xmlns="http://www.w3.org/2000/svg">
<path d="M12.4985 0C6.1574 0 0.998535 5.19888 0.998535 11.5891C0.998535 19.5196 11.2899 31.1621 11.7281 31.6539C12.1396 32.1158 12.8582 32.115 13.269 31.6539C13.7072 31.1621 23.9985 19.5196 23.9985 11.5891C23.9984 5.19888 18.8396 0 12.4985 0ZM12.4985 17.42C9.30815 17.42 6.71266 14.8043 6.71266 11.5891C6.71266 8.37401 9.30822 5.75838 12.4985 5.75838C15.6889 5.75838 18.2844 8.37407 18.2844 11.5892C18.2844 14.8043 15.6889 17.42 12.4985 17.42Z" fill="#D33B3B"/>
</svg>
