<svg width="53" height="53" viewBox="0 0 53 53" fill="none" xmlns="http://www.w3.org/2000/svg">
<g id="Prototyping.svg" clip-path="url(#clip0_2161_2261)">
<g id="Clip path group">
<mask id="mask0_2161_2261" style="mask-type:luminance" maskUnits="userSpaceOnUse" x="0" y="-1" width="53" height="54">
<g id="clip0_7641_24448">
<path id="Vector" d="M53 -0.00012207H0V52.9999H53V-0.00012207Z" fill="white"/>
</g>
</mask>
<g mask="url(#mask0_2161_2261)">
<g id="Group">
<path id="Vector_2" d="M52.9309 44.6182H32.9502V21.0092H52.9309V44.6182ZM42.912 36.9812C40.9331 36.9812 38.9532 36.9812 36.9743 36.9812C36.8712 36.9812 36.7387 36.9479 36.6706 36.9989C36.5555 37.0841 36.4175 37.2195 36.4073 37.3437C36.3999 37.4439 36.5509 37.582 36.6623 37.6562C36.7359 37.7053 36.8629 37.6756 36.9669 37.6756C40.9488 37.6756 44.9305 37.6756 48.9114 37.6756C49.0035 37.6756 49.123 37.7091 49.182 37.6636C49.3044 37.57 49.4627 37.4402 49.4765 37.3112C49.4866 37.214 49.3109 37.0712 49.1894 36.9932C49.1148 36.9451 48.9878 36.9803 48.8838 36.9793C46.8928 36.9793 44.902 36.9793 42.9111 36.9793L42.912 36.9812ZM42.9424 40.4599C44.9213 40.4599 46.9011 40.4599 48.8801 40.4599C48.9831 40.4599 49.1148 40.496 49.1848 40.446C49.309 40.357 49.4637 40.2216 49.4765 40.0928C49.4858 39.9954 49.3062 39.8591 49.1866 39.7766C49.123 39.733 49.008 39.7645 48.916 39.7645C44.9342 39.7645 40.9524 39.7645 36.9716 39.7645C36.8684 39.7645 36.7415 39.7339 36.6669 39.783C36.5546 39.8572 36.4009 39.9926 36.4073 40.0928C36.4156 40.217 36.5519 40.3542 36.6669 40.4405C36.7349 40.4915 36.8667 40.459 36.9706 40.459C38.9615 40.459 40.9524 40.459 42.9433 40.459L42.9424 40.4599ZM40.8788 31.4165C39.5552 31.4165 38.2325 31.4183 36.909 31.4147C36.6466 31.4147 36.3908 31.4415 36.3954 31.7734C36.3999 32.0794 36.643 32.1137 36.8943 32.1128C39.5405 32.11 42.1877 32.11 44.8339 32.1128C45.0961 32.1128 45.3548 32.084 45.3466 31.7531C45.3383 31.4221 45.0695 31.4137 44.8136 31.4137C43.5021 31.4165 42.1904 31.4155 40.8779 31.4155L40.8788 31.4165ZM40.8631 34.8951C42.1057 34.8951 43.3482 34.8951 44.5918 34.8951C44.7068 34.8951 44.8219 34.8951 44.9369 34.8951C45.1781 34.897 45.354 34.7968 45.3502 34.5382C45.3466 34.3008 45.1808 34.1998 44.9535 34.1998C44.8845 34.1998 44.8155 34.1998 44.7464 34.1998C42.1573 34.1998 39.5681 34.1998 36.979 34.1998C36.9098 34.1998 36.8408 34.1988 36.7718 34.2007C36.5426 34.2072 36.3604 34.3268 36.4055 34.553C36.4322 34.6847 36.6245 34.7951 36.7599 34.8887C36.8151 34.9267 36.9164 34.8961 36.9973 34.8961C38.286 34.8961 39.5745 34.8961 40.8641 34.8961L40.8631 34.8951ZM39.5754 27.9322C39.6279 27.8831 39.7586 27.8118 39.8138 27.7023C40.4986 26.3404 41.1798 24.9756 41.8397 23.6007C41.8941 23.4866 41.8397 23.2539 41.7514 23.1519C41.5948 22.9711 41.3556 23.0657 41.2129 23.3485C40.772 24.2255 40.3375 25.1063 39.9013 25.9861C39.6703 26.4517 39.4338 26.9152 39.2109 27.3843C39.0766 27.669 39.2266 27.9415 39.5754 27.9322ZM36.5077 25.5004C36.8905 25.1239 37.2348 24.7856 37.5781 24.4471C37.7493 24.2774 37.8606 24.0864 37.6564 23.877C37.453 23.6683 37.2633 23.774 37.0921 23.9483C36.6871 24.3582 36.2776 24.7633 35.8754 25.1768C35.6185 25.442 35.6232 25.5736 35.8928 25.8499C36.2794 26.2458 36.6725 26.6352 37.0608 27.0292C37.2348 27.2054 37.4235 27.3584 37.6499 27.1368C37.8754 26.9161 37.7383 26.7186 37.5598 26.5425C37.2246 26.2106 36.8896 25.8786 36.5077 25.5004ZM44.5605 25.5041C44.1546 25.9 43.7993 26.2448 43.4467 26.5917C43.2783 26.7576 43.2083 26.9468 43.397 27.1349C43.5866 27.3241 43.7717 27.2471 43.9373 27.0803C44.3516 26.663 44.7639 26.244 45.1818 25.8313C45.4082 25.607 45.4064 25.3993 45.1808 25.1768C44.7704 24.7717 44.3663 24.3609 43.9613 23.951C43.7901 23.7777 43.6023 23.6683 43.3962 23.8751C43.1909 24.0818 43.2968 24.2738 43.4707 24.4434C43.8167 24.7799 44.1628 25.1175 44.5605 25.5041Z" fill="#282689"/>
<path id="Vector_3" d="M32.9502 20.2612C32.9769 19.6614 32.9474 19.0764 33.0376 18.5108C33.2604 17.1191 34.4395 16.1179 35.8431 16.115C40.6045 16.1057 45.3668 16.104 50.1282 16.115C51.7132 16.1187 52.965 17.3954 52.9953 18.9901C53.0036 19.4055 52.9962 19.8218 52.9962 20.2603L32.9502 20.2612Z" fill="#282689"/>
<path id="Vector_4" d="M52.9994 45.3527C52.9727 45.9534 52.9994 46.5375 52.9101 47.1031C52.6901 48.4818 51.5221 49.4933 50.1396 49.497C45.3553 49.51 40.5708 49.5118 35.7864 49.497C34.2402 49.4924 32.9901 48.2101 32.9553 46.6581C32.9451 46.2316 32.9534 45.8042 32.9534 45.3537L52.9994 45.3527Z" fill="#E7ECF8"/>
<path id="Vector_5" d="M51.5367 22.7885H34.4385V42.8276H51.5367V22.7885Z" fill="#282689"/>
<path id="Vector_6" d="M47.8549 32.9912C47.1298 32.3929 46.4379 31.8285 45.7549 31.2535C45.6407 31.1573 45.526 31.0266 45.4811 30.8894C45.4034 30.6498 45.4877 30.4291 45.7123 30.2951C45.9434 30.1568 46.1707 30.1906 46.3775 30.3604C47.1664 31.0101 47.9552 31.6609 48.7436 32.3111C48.85 32.399 48.9614 32.482 49.0612 32.5767C49.3162 32.8168 49.3328 33.1771 49.0662 33.4007C48.157 34.1649 47.2396 34.9197 46.3165 35.6673C46.0709 35.8665 45.7334 35.8057 45.5543 35.5683C45.3763 35.3326 45.4124 35.0165 45.6635 34.8063C46.2772 34.2917 46.8981 33.7853 47.5156 33.2751C47.6204 33.1887 47.7241 33.1007 47.8538 32.9917L47.8549 32.9912Z" fill="#E7ECF8"/>
<path id="Vector_7" d="M38.0817 32.9951C38.7009 33.5064 39.2951 33.9967 39.8894 34.487C40.0241 34.5983 40.1649 34.7034 40.2924 34.8218C40.5258 35.0387 40.5447 35.3597 40.3467 35.5877C40.1616 35.8007 39.834 35.8433 39.6005 35.6535C38.687 34.9114 37.7768 34.1638 36.8743 33.4084C36.5942 33.1744 36.6015 32.8019 36.8825 32.5673C37.7723 31.8247 38.6676 31.0892 39.5651 30.3554C39.8257 30.1424 40.161 30.1712 40.354 30.4048C40.5602 30.6543 40.5209 30.9736 40.242 31.2061C39.6062 31.7356 38.9648 32.2597 38.3261 32.7865C38.2557 32.8445 38.1864 32.9055 38.0817 32.9951Z" fill="#E7ECF8"/>
<path id="Vector_8" d="M41.7226 36.1446C41.3384 36.1463 41.0817 35.7838 41.212 35.4208C41.2336 35.3605 41.2624 35.3024 41.2918 35.2454C42.0845 33.7015 42.8789 32.1586 43.6689 30.613C43.7909 30.3745 43.9461 30.2025 44.2383 30.2141C44.5964 30.2284 44.8392 30.5709 44.7316 30.913C44.7122 30.9738 44.6817 31.0314 44.6524 31.0883C43.8518 32.649 43.0502 34.2089 42.2515 35.77C42.1388 35.9903 41.9876 36.1452 41.7226 36.1446Z" fill="#E7ECF8"/>
<path id="Vector_9" d="M43.3608 48.7636C44.182 48.7636 44.8476 48.099 44.8476 47.2792C44.8476 46.4594 44.182 45.7948 43.3608 45.7948C42.5397 45.7948 41.874 46.4594 41.874 47.2792C41.874 48.099 42.5397 48.7636 43.3608 48.7636Z" fill="white"/>
<path id="Vector_10" d="M52.9309 44.6224H32.9502V21.0135H52.9309V44.6224ZM42.912 36.9855C40.9331 36.9855 38.9532 36.9855 36.9743 36.9855C36.8712 36.9855 36.7387 36.9521 36.6706 37.0031C36.5555 37.0884 36.4175 37.2238 36.4073 37.348C36.3999 37.4481 36.5509 37.5863 36.6623 37.6605C36.7359 37.7096 36.8629 37.6799 36.9669 37.6799C40.9488 37.6799 44.9305 37.6799 48.9114 37.6799C49.0035 37.6799 49.123 37.7133 49.182 37.6679C49.3044 37.5742 49.4627 37.4445 49.4765 37.3156C49.4866 37.2182 49.3109 37.0755 49.1894 36.9975C49.1148 36.9494 48.9878 36.9846 48.8838 36.9836C46.8928 36.9836 44.902 36.9836 42.9111 36.9836L42.912 36.9855ZM42.9424 40.4642C44.9213 40.4642 46.9011 40.4642 48.8801 40.4642C48.9831 40.4642 49.1148 40.5004 49.1848 40.4502C49.309 40.3612 49.4637 40.2259 49.4765 40.097C49.4858 39.9996 49.3062 39.8634 49.1866 39.7809C49.123 39.7373 49.008 39.7688 48.916 39.7688C44.9342 39.7688 40.9524 39.7688 36.9716 39.7688C36.8684 39.7688 36.7415 39.7382 36.6669 39.7873C36.5546 39.8615 36.4009 39.9969 36.4073 40.097C36.4156 40.2212 36.5519 40.3585 36.6669 40.4447C36.7349 40.4957 36.8667 40.4633 36.9706 40.4633C38.9615 40.4633 40.9524 40.4633 42.9433 40.4633L42.9424 40.4642ZM40.8788 31.4208C39.5552 31.4208 38.2325 31.4226 36.909 31.4189C36.6466 31.4189 36.3908 31.4458 36.3954 31.7777C36.3999 32.0836 36.643 32.118 36.8943 32.1171C39.5405 32.1142 42.1877 32.1142 44.8339 32.1171C45.0961 32.1171 45.3548 32.0883 45.3466 31.7574C45.3383 31.4263 45.0695 31.4179 44.8136 31.4179C43.5021 31.4208 42.1904 31.4198 40.8779 31.4198L40.8788 31.4208ZM40.8631 34.8994C42.1057 34.8994 43.3482 34.8994 44.5918 34.8994C44.7068 34.8994 44.8219 34.8994 44.9369 34.8994C45.1781 34.9013 45.354 34.8011 45.3502 34.5425C45.3466 34.3051 45.1808 34.2041 44.9535 34.2041C44.8845 34.2041 44.8155 34.2041 44.7464 34.2041C42.1573 34.2041 39.5681 34.2041 36.979 34.2041C36.9098 34.2041 36.8408 34.2031 36.7718 34.205C36.5426 34.2115 36.3604 34.3311 36.4055 34.5573C36.4322 34.6889 36.6245 34.7993 36.7599 34.893C36.8151 34.931 36.9164 34.9004 36.9973 34.9004C38.286 34.9004 39.5745 34.9004 40.8641 34.9004L40.8631 34.8994ZM39.5754 27.9365C39.6279 27.8874 39.7586 27.816 39.8138 27.7066C40.4986 26.3446 41.1798 24.9799 41.8397 23.605C41.8941 23.4909 41.8397 23.2581 41.7514 23.1562C41.5948 22.9754 41.3556 23.07 41.2129 23.3528C40.772 24.2298 40.3375 25.1106 39.9013 25.9905C39.6703 26.4559 39.4338 26.9195 39.2109 27.3886C39.0766 27.6733 39.2266 27.9458 39.5754 27.9365ZM36.5077 25.5047C36.8905 25.1283 37.2348 24.7898 37.5781 24.4514C37.7493 24.2817 37.8606 24.0907 37.6564 23.8812C37.453 23.6727 37.2633 23.7783 37.0921 23.9526C36.6871 24.3624 36.2776 24.7675 35.8754 25.1811C35.6185 25.4463 35.6232 25.5779 35.8928 25.8542C36.2794 26.2501 36.6725 26.6394 37.0608 27.0335C37.2348 27.2096 37.4235 27.3627 37.6499 27.1411C37.8754 26.9204 37.7383 26.7229 37.5598 26.5468C37.2246 26.2149 36.8896 25.883 36.5077 25.5047ZM44.5605 25.5083C44.1546 25.9043 43.7993 26.2491 43.4467 26.5959C43.2783 26.7619 43.2083 26.951 43.397 27.1392C43.5866 27.3283 43.7717 27.2514 43.9373 27.0845C44.3516 26.6673 44.7639 26.2482 45.1818 25.8356C45.4082 25.6112 45.4064 25.4035 45.1808 25.1811C44.7704 24.7759 44.3663 24.3652 43.9613 23.9554C43.7901 23.782 43.6023 23.6727 43.3962 23.8794C43.1909 24.0862 43.2968 24.2781 43.4707 24.4477C43.8167 24.7842 44.1628 25.1218 44.5605 25.5083Z" fill="#282689"/>
<path id="Vector_11" d="M32.9502 20.2612C32.9769 19.6614 32.9474 19.0764 33.0376 18.5108C33.2604 17.1191 34.4395 16.1179 35.8431 16.115C40.6045 16.1057 45.3668 16.104 50.1282 16.115C51.7132 16.1187 52.965 17.3954 52.9953 18.9901C53.0036 19.4055 52.9962 19.8218 52.9962 20.2603L32.9502 20.2612Z" fill="#282689"/>
<path id="Vector_12" d="M52.9994 45.5338C52.9727 46.1346 52.9994 46.7187 52.9101 47.2842C52.6901 48.6629 51.5221 49.6744 50.1396 49.6782C45.3553 49.6911 40.5708 49.693 35.7864 49.6782C34.2402 49.6736 32.9901 48.3913 32.9553 46.8393C32.9451 46.4127 32.9534 45.9853 32.9534 45.5347L52.9994 45.5338Z" fill="#F8F8F8"/>
<path id="Vector_13" d="M51.5387 22.7905H34.4404V42.8297H51.5387V22.7905Z" fill="#282689"/>
<path id="Vector_14" d="M42.894 48.7153C43.5528 48.7153 44.0869 48.1812 44.0869 47.5224C44.0869 46.8636 43.5528 46.3296 42.894 46.3296C42.2352 46.3296 41.7012 46.8636 41.7012 47.5224C41.7012 48.1812 42.2352 48.7153 42.894 48.7153Z" fill="white"/>
<path id="Vector_15" d="M22.1887 32.593H2.20801V8.98419H22.1887V32.593ZM12.1698 24.9562C10.1909 24.9562 8.21105 24.9562 6.23213 24.9562C6.12904 24.9562 5.9965 24.9228 5.92839 24.9737C5.81333 25.0591 5.67527 25.1944 5.66514 25.3187C5.65778 25.4188 5.80873 25.5569 5.92011 25.6311C5.99374 25.6803 6.12075 25.6506 6.22477 25.6506C10.2065 25.6506 14.1883 25.6506 18.1692 25.6506C18.2613 25.6506 18.3808 25.6839 18.4398 25.6385C18.5623 25.5449 18.7205 25.4151 18.7343 25.2862C18.7444 25.1889 18.5687 25.046 18.4472 24.9682C18.3726 24.9199 18.2456 24.9553 18.1416 24.9543C16.1507 24.9543 14.1598 24.9543 12.1689 24.9543L12.1698 24.9562ZM12.2002 28.4348C14.1792 28.4348 16.1589 28.4348 18.1379 28.4348C18.2409 28.4348 18.3726 28.4709 18.4426 28.4209C18.5668 28.3319 18.7215 28.1966 18.7343 28.0677C18.7436 27.9703 18.564 27.8341 18.4444 27.7515C18.3808 27.708 18.2658 27.7394 18.1738 27.7394C14.192 27.7394 10.2102 27.7394 6.22937 27.7394C6.12628 27.7394 5.99926 27.7089 5.92471 27.758C5.81242 27.8322 5.65871 27.9676 5.66514 28.0677C5.67342 28.1919 5.80966 28.3292 5.92471 28.4153C5.99281 28.4663 6.12444 28.4338 6.22844 28.4338C8.21933 28.4338 10.2102 28.4338 12.2012 28.4338L12.2002 28.4348ZM10.1366 19.3914C8.81301 19.3914 7.49036 19.3933 6.16678 19.3896C5.90446 19.3896 5.64858 19.4164 5.65317 19.7484C5.65778 20.0543 5.90077 20.0887 6.15205 20.0877C8.79829 20.0849 11.4455 20.0849 14.0917 20.0877C14.3541 20.0877 14.6127 20.059 14.6044 19.7279C14.5961 19.397 14.3273 19.3886 14.0714 19.3886C12.7599 19.3914 11.4482 19.3905 10.1357 19.3905L10.1366 19.3914ZM10.121 22.8701C11.3635 22.8701 12.6061 22.8701 13.8496 22.8701C13.9646 22.8701 14.0797 22.8701 14.1947 22.8701C14.4359 22.8719 14.6118 22.7718 14.608 22.5131C14.6044 22.2758 14.4386 22.1748 14.2113 22.1748C14.1423 22.1748 14.0733 22.1748 14.0043 22.1748C11.4151 22.1748 8.8259 22.1748 6.23674 22.1748C6.1677 22.1748 6.09867 22.1738 6.02964 22.1756C5.80045 22.1822 5.6182 22.3017 5.6633 22.528C5.69 22.6596 5.88237 22.7699 6.01767 22.8635C6.0729 22.9016 6.17414 22.8711 6.25514 22.8711C7.54374 22.8711 8.83234 22.8711 10.1219 22.8711L10.121 22.8701ZM8.83326 15.9072C8.88573 15.858 9.01643 15.7867 9.07166 15.6773C9.75645 14.3153 10.4376 12.9506 11.0975 11.5755C11.1519 11.4615 11.0975 11.2288 11.0092 11.1268C10.8527 10.946 10.6134 11.0406 10.4707 11.3233C10.0298 12.2005 9.59538 13.0813 9.1591 13.9611C8.92807 14.4265 8.69152 14.8901 8.46878 15.3593C8.33439 15.6438 8.48442 15.9165 8.83326 15.9072ZM5.76547 13.4753C6.14837 13.0988 6.49262 12.7604 6.83593 12.4221C7.00714 12.2524 7.1185 12.0614 6.91416 11.8519C6.71075 11.6432 6.52115 11.7489 6.34995 11.9232C5.94496 12.333 5.53536 12.7382 5.13313 13.1517C4.87634 13.4168 4.88094 13.5486 5.15062 13.8248C5.5372 14.2207 5.93023 14.6101 6.31865 15.0042C6.49262 15.1803 6.6813 15.3333 6.90773 15.1117C7.13323 14.891 6.99608 14.6936 6.81753 14.5174C6.48249 14.1855 6.14745 13.8535 5.76547 13.4753ZM13.8183 13.479C13.4124 13.8749 13.0571 14.2198 12.7045 14.5665C12.5362 14.7325 12.4662 14.9216 12.6549 15.1099C12.8446 15.299 13.0295 15.222 13.1952 15.0551C13.6094 14.6379 14.0217 14.2189 14.4396 13.8063C14.666 13.5819 14.6642 13.3742 14.4386 13.1517C14.0282 12.7465 13.6241 12.3359 13.2191 11.926C13.0479 11.7526 12.8601 11.6432 12.654 11.85C12.4487 12.0567 12.5546 12.2486 12.7285 12.4183C13.0747 12.7549 13.4206 13.0923 13.8183 13.479Z" fill="#282689"/>
<path id="Vector_16" d="M2.20801 8.23614C2.2347 7.63628 2.20525 7.05125 2.29545 6.48569C2.51819 5.09404 3.69726 4.09273 5.10092 4.08994C9.8623 4.08067 14.6246 4.07881 19.386 4.08994C20.971 4.09365 22.2228 5.37033 22.2532 6.96503C22.2614 7.38038 22.254 7.79667 22.254 8.23522L2.20801 8.23614Z" fill="#282689"/>
<path id="Vector_17" d="M22.2572 33.3276C22.2305 33.9284 22.2572 34.5125 22.168 35.078C21.948 36.4567 20.78 37.4682 19.3975 37.472C14.6131 37.4849 9.82868 37.4868 5.04428 37.472C3.49796 37.4673 2.24801 36.185 2.21304 34.633C2.20292 34.2065 2.2112 33.7791 2.2112 33.3285L22.2572 33.3276Z" fill="#E7ECF8"/>
<path id="Vector_18" d="M20.7945 10.7634H3.69629V30.8026H20.7945V10.7634Z" fill="#282689"/>
<path id="Vector_19" d="M17.1146 20.9661C16.3895 20.3679 15.6976 19.8035 15.0147 19.2285C14.9005 19.1322 14.7857 19.0016 14.7409 18.8644C14.6632 18.6248 14.7475 18.4039 14.972 18.27C15.2032 18.1317 15.4304 18.1654 15.6372 18.3354C16.4262 18.985 17.215 19.6358 18.0032 20.286C18.1097 20.374 18.2211 20.457 18.3209 20.5516C18.576 20.7918 18.5925 21.1521 18.3259 21.3756C17.4167 22.1399 16.4993 22.8947 15.5763 23.6423C15.3307 23.8415 14.9931 23.7807 14.8141 23.5433C14.6361 23.3075 14.6721 22.9915 14.9233 22.7812C15.5369 22.2665 16.1578 21.7603 16.7754 21.25C16.8801 21.1637 16.9838 21.0757 17.1135 20.9667L17.1146 20.9661Z" fill="#E7ECF8"/>
<path id="Vector_20" d="M7.3414 20.97C7.96063 21.4813 8.5549 21.9717 9.14918 22.4619C9.28389 22.5731 9.4247 22.6784 9.5522 22.7967C9.78559 23.0137 9.80444 23.3347 9.60653 23.5626C9.42137 23.7757 9.09374 23.8183 8.86036 23.6285C7.94677 22.8864 7.0365 22.1388 6.134 21.3834C5.85404 21.1493 5.86125 20.7769 6.14232 20.5422C7.03207 19.7996 7.92737 19.0642 8.82488 18.3304C9.08543 18.1174 9.42082 18.1461 9.61374 18.3796C9.81996 18.6293 9.7806 18.9485 9.50176 19.1809C8.8659 19.7106 8.2245 20.2346 7.58587 20.7614C7.51547 20.8195 7.44617 20.8803 7.3414 20.97Z" fill="#E7ECF8"/>
<path id="Vector_21" d="M10.9823 24.1196C10.5981 24.1213 10.3415 23.7588 10.4718 23.3957C10.4934 23.3354 10.5222 23.2774 10.5516 23.2203C11.3443 21.6764 12.1388 20.1336 12.9287 18.588C13.0507 18.3495 13.2058 18.1773 13.498 18.189C13.8562 18.2034 14.099 18.5459 13.9915 18.8879C13.972 18.9488 13.9415 19.0063 13.9122 19.0633C13.1117 20.6238 12.31 22.1838 11.5112 23.745C11.3986 23.9652 11.2473 24.1202 10.9823 24.1196Z" fill="#E7ECF8"/>
<path id="Vector_22" d="M12.6186 36.7384C13.4398 36.7384 14.1054 36.0738 14.1054 35.254C14.1054 34.4342 13.4398 33.7697 12.6186 33.7697C11.7975 33.7697 11.1318 34.4342 11.1318 35.254C11.1318 36.0738 11.7975 36.7384 12.6186 36.7384Z" fill="white"/>
<path id="Vector_23" d="M22.1887 32.593H2.20801V8.98419H22.1887V32.593ZM12.1698 24.9562C10.1909 24.9562 8.21105 24.9562 6.23213 24.9562C6.12904 24.9562 5.9965 24.9228 5.92839 24.9737C5.81333 25.0591 5.67527 25.1944 5.66514 25.3187C5.65778 25.4188 5.80873 25.5569 5.92011 25.6311C5.99374 25.6803 6.12075 25.6506 6.22477 25.6506C10.2065 25.6506 14.1883 25.6506 18.1692 25.6506C18.2613 25.6506 18.3808 25.6839 18.4398 25.6385C18.5623 25.5449 18.7205 25.4151 18.7343 25.2862C18.7444 25.1889 18.5687 25.046 18.4472 24.9682C18.3726 24.9199 18.2456 24.9553 18.1416 24.9543C16.1507 24.9543 14.1598 24.9543 12.1689 24.9543L12.1698 24.9562ZM12.2002 28.4348C14.1792 28.4348 16.1589 28.4348 18.1379 28.4348C18.2409 28.4348 18.3726 28.4709 18.4426 28.4209C18.5668 28.3319 18.7215 28.1966 18.7343 28.0677C18.7436 27.9703 18.564 27.8341 18.4444 27.7515C18.3808 27.708 18.2658 27.7394 18.1738 27.7394C14.192 27.7394 10.2102 27.7394 6.22937 27.7394C6.12628 27.7394 5.99926 27.7089 5.92471 27.758C5.81242 27.8322 5.65871 27.9676 5.66514 28.0677C5.67342 28.1919 5.80966 28.3292 5.92471 28.4153C5.99281 28.4663 6.12444 28.4338 6.22844 28.4338C8.21933 28.4338 10.2102 28.4338 12.2012 28.4338L12.2002 28.4348ZM10.1366 19.3914C8.81301 19.3914 7.49036 19.3933 6.16678 19.3896C5.90446 19.3896 5.64858 19.4164 5.65317 19.7484C5.65778 20.0543 5.90077 20.0887 6.15205 20.0877C8.79829 20.0849 11.4455 20.0849 14.0917 20.0877C14.3541 20.0877 14.6127 20.059 14.6044 19.7279C14.5961 19.397 14.3273 19.3886 14.0714 19.3886C12.7599 19.3914 11.4482 19.3905 10.1357 19.3905L10.1366 19.3914ZM10.121 22.8701C11.3635 22.8701 12.6061 22.8701 13.8496 22.8701C13.9646 22.8701 14.0797 22.8701 14.1947 22.8701C14.4359 22.8719 14.6118 22.7718 14.608 22.5131C14.6044 22.2758 14.4386 22.1748 14.2113 22.1748C14.1423 22.1748 14.0733 22.1748 14.0043 22.1748C11.4151 22.1748 8.8259 22.1748 6.23674 22.1748C6.1677 22.1748 6.09867 22.1738 6.02964 22.1756C5.80045 22.1822 5.6182 22.3017 5.6633 22.528C5.69 22.6596 5.88237 22.7699 6.01767 22.8635C6.0729 22.9016 6.17414 22.8711 6.25514 22.8711C7.54374 22.8711 8.83234 22.8711 10.1219 22.8711L10.121 22.8701ZM8.83326 15.9072C8.88573 15.858 9.01643 15.7867 9.07166 15.6773C9.75645 14.3153 10.4376 12.9506 11.0975 11.5755C11.1519 11.4615 11.0975 11.2288 11.0092 11.1268C10.8527 10.946 10.6134 11.0406 10.4707 11.3233C10.0298 12.2005 9.59538 13.0813 9.1591 13.9611C8.92807 14.4265 8.69152 14.8901 8.46878 15.3593C8.33439 15.6438 8.48442 15.9165 8.83326 15.9072ZM5.76547 13.4753C6.14837 13.0988 6.49262 12.7604 6.83593 12.4221C7.00714 12.2524 7.1185 12.0614 6.91416 11.8519C6.71075 11.6432 6.52115 11.7489 6.34995 11.9232C5.94496 12.333 5.53536 12.7382 5.13313 13.1517C4.87634 13.4168 4.88094 13.5486 5.15062 13.8248C5.5372 14.2207 5.93023 14.6101 6.31865 15.0042C6.49262 15.1803 6.6813 15.3333 6.90773 15.1117C7.13323 14.891 6.99608 14.6936 6.81753 14.5174C6.48249 14.1855 6.14745 13.8535 5.76547 13.4753ZM13.8183 13.479C13.4124 13.8749 13.0571 14.2198 12.7045 14.5665C12.5362 14.7325 12.4662 14.9216 12.6549 15.1099C12.8446 15.299 13.0295 15.222 13.1952 15.0551C13.6094 14.6379 14.0217 14.2189 14.4396 13.8063C14.666 13.5819 14.6642 13.3742 14.4386 13.1517C14.0282 12.7465 13.6241 12.3359 13.2191 11.926C13.0479 11.7526 12.8601 11.6432 12.654 11.85C12.4487 12.0567 12.5546 12.2486 12.7285 12.4183C13.0747 12.7549 13.4206 13.0923 13.8183 13.479Z" fill="#282689"/>
<path id="Vector_24" d="M2.20801 8.23614C2.2347 7.63628 2.20525 7.05125 2.29545 6.48569C2.51819 5.09404 3.69726 4.09273 5.10092 4.08994C9.8623 4.08067 14.6246 4.07881 19.386 4.08994C20.971 4.09365 22.2228 5.37033 22.2532 6.96503C22.2614 7.38038 22.254 7.79667 22.254 8.23522L2.20801 8.23614Z" fill="#282689"/>
<path id="Vector_25" d="M22.2572 33.5066C22.2305 34.1074 22.2572 34.6915 22.168 35.257C21.948 36.6357 20.78 37.6472 19.3975 37.651C14.6131 37.6639 9.82868 37.6658 5.04428 37.651C3.49796 37.6463 2.24801 36.3641 2.21304 34.812C2.20292 34.3855 2.2112 33.9581 2.2112 33.5075L22.2572 33.5066Z" fill="#F8F8F8"/>
<path id="Vector_26" d="M20.7945 10.7634H3.69629V30.8026H20.7945V10.7634Z" fill="#282689"/>
<path id="Vector_27" d="M12.1499 36.6859C12.8087 36.6859 13.3427 36.1519 13.3427 35.4931C13.3427 34.8343 12.8087 34.3002 12.1499 34.3002C11.4911 34.3002 10.957 34.8343 10.957 35.4931C10.957 36.1519 11.4911 36.6859 12.1499 36.6859Z" fill="white"/>
<path id="Vector_28" d="M22.2574 20.2916V21.7318C21.3306 21.7373 20.4038 21.7492 19.4771 21.742C19.2485 21.7405 19.1323 21.8128 19.0241 22.0196C18.5981 22.83 17.9078 23.2347 16.9937 23.2371C15.0605 23.2418 13.1266 23.2418 11.1927 23.2371C9.88367 23.2339 8.8916 22.2677 8.8916 21.0105C8.8916 19.7541 9.88606 18.7887 11.1934 18.7855C13.1138 18.7816 15.0343 18.7855 16.9547 18.7839C17.9038 18.7839 18.6132 19.1934 19.0423 20.038C19.1491 20.2479 19.2773 20.2789 19.4762 20.2781C20.4031 20.2765 21.3306 20.2861 22.2574 20.2916ZM14.0764 21.7477C15.0159 21.7477 15.9562 21.75 16.8958 21.7469C17.4602 21.7452 17.7899 21.4757 17.7962 21.0225C17.8034 20.566 17.4714 20.2781 16.9173 20.2774C15.0247 20.2749 13.1313 20.2742 11.2388 20.2774C10.6966 20.2781 10.3909 20.5445 10.3853 21.0002C10.3797 21.4717 10.691 21.7437 11.2564 21.746C12.1958 21.75 13.1369 21.7477 14.0764 21.7477Z" fill="#E7ECF8"/>
<path id="Vector_29" d="M14.0763 21.7479C13.1367 21.7479 12.1964 21.7511 11.2569 21.7471C10.6916 21.7448 10.3795 21.4728 10.3858 21.0012C10.3914 20.5455 10.6971 20.2792 11.2393 20.2783C13.132 20.2752 15.0253 20.2752 16.9178 20.2783C17.472 20.2783 17.804 20.5671 17.7969 21.0235C17.7897 21.4768 17.4601 21.7463 16.8963 21.7479C15.9569 21.7511 15.0158 21.7487 14.0763 21.7479Z" fill="#282689"/>
<path id="Vector_30" d="M33.1631 31.8954C32.2406 31.8972 31.3169 31.9099 30.3944 31.8992C28.4228 31.8759 26.8531 30.3295 26.819 28.3525C26.7937 26.9121 26.8141 25.4708 26.8121 24.0303C26.8103 22.6287 26.092 21.9211 24.6829 21.9134C23.8752 21.9085 23.0675 21.8901 22.2598 21.8774L22.2753 21.8959V20.1357L22.2598 20.1541C23.3584 20.1522 24.4659 20.0656 25.5538 20.1697C27.2063 20.3281 28.5445 21.8326 28.594 23.5073C28.6379 24.9789 28.6086 26.4534 28.6106 27.9269C28.6126 29.411 29.2869 30.0826 30.7837 30.0798C31.5758 30.0788 32.369 30.0661 33.1611 30.0584L33.1475 30.0476C33.1475 30.6687 33.1475 31.2888 33.1475 31.9099L33.1621 31.8964L33.1631 31.8954Z" fill="#282689"/>
<path id="Vector_31" d="M32.9502 31.7805C32.9502 31.1594 32.9502 30.5393 32.9502 29.9182H37.0199C36.9081 29.7744 36.8165 29.6723 36.7417 29.5576C36.4818 29.162 36.546 28.6789 36.8925 28.3719C37.2146 28.0871 37.7255 28.0452 38.0476 28.3476C38.7191 28.9793 39.3731 29.6305 40.0047 30.3022C40.3122 30.6297 40.3024 31.1214 39.9872 31.4559C39.3653 32.1149 38.726 32.7573 38.0631 33.3745C37.7129 33.7011 37.2049 33.6524 36.8711 33.3375C36.5236 33.01 36.4886 32.5172 36.7894 32.107C36.8545 32.0186 36.9314 31.9389 37.0676 31.7805H32.9502Z" fill="#E7ECF8"/>
</g>
</g>
</g>
</g>
<defs>
<clipPath id="clip0_2161_2261">
<rect width="53" height="53" fill="white"/>
</clipPath>
</defs>
</svg>
