<svg width="53" height="53" viewBox="0 0 53 53" fill="none" xmlns="http://www.w3.org/2000/svg">
<g id="User-research.svg">
<path id="Vector" d="M45.4697 49.6872C44.6974 48.8398 43.9241 47.9924 43.1517 47.1442C43.0001 46.9773 42.8478 46.8112 42.6816 46.6288C41.6079 47.2467 40.4768 47.6441 39.2617 47.8201C34.6804 48.4815 30.1914 45.3106 29.3405 40.7998C28.3983 35.8081 31.6129 31.2 36.6488 30.3219C41.4016 29.4936 46.0878 32.854 46.841 37.6335C47.1541 39.6176 46.8547 41.5056 45.8797 43.2693C45.7226 43.5524 45.76 43.7084 45.9655 43.928C46.7387 44.7572 47.4938 45.6018 48.2542 46.4428C48.708 46.9446 48.6997 47.0326 48.1876 47.5062C47.4025 48.2319 46.6192 48.9596 45.8349 49.6853H45.4706L45.4697 49.6872ZM38.0866 46.1235C41.9732 46.1244 45.1657 42.9345 45.1666 39.0487C45.1685 35.1657 41.9959 32.0239 38.0666 32.0157C34.1263 32.0075 30.9802 35.1267 30.9774 39.0433C30.9747 42.9635 34.1464 46.1225 38.0866 46.1235Z" fill="#F4AF10"/>
<path id="Vector_2" d="M35.4314 18.7174C36.6373 19.0649 37.0711 19.71 36.7688 20.7978C36.5451 21.6025 36.1864 22.3801 35.8002 23.1241C35.6769 23.3608 35.2825 23.4769 34.9922 23.6022C34.8543 23.662 34.6681 23.6121 34.4682 23.6121C34.4499 24.7226 34.1303 25.7114 33.4375 26.557C33.1316 26.9299 32.8075 27.2956 32.4478 27.6167C32.226 27.8146 32.2059 27.9932 32.2789 28.2464C32.4697 28.9059 32.4268 28.8596 31.8818 29.2852C30.9798 29.9901 30.1343 30.7658 29.2589 31.5052C29.1155 31.6268 28.9539 31.7729 28.7804 31.8056C26.4122 32.2555 24.1599 32.0096 22.1195 30.6306C21.8338 30.4374 21.5927 30.1788 21.3326 29.9492C20.7273 29.4158 20.5474 28.7953 20.9583 28.0667C21.1016 27.8127 21.045 27.6558 20.8222 27.4589C19.7541 26.5153 19.0656 25.3586 18.9169 23.9206C18.9077 23.8317 18.8776 23.7446 18.8511 23.6321C17.7282 23.6013 17.1703 22.8799 16.923 21.9147C16.7568 21.2668 16.6783 20.5746 16.7075 19.9096C16.7276 19.4451 16.9969 18.9924 17.1566 18.5261C17.1357 17.9854 17.1247 17.3956 17.0882 16.8068C17.0242 15.7861 16.9923 14.7591 16.8582 13.7466C16.7021 12.5672 16.0054 11.8178 14.8122 11.5565C14.6698 11.5257 14.5356 11.4568 14.3174 11.3759C14.9856 10.5948 15.6019 9.83909 16.2565 9.11782C17.7866 7.43214 19.45 5.89525 21.4274 4.72762C22.723 3.961 24.0988 3.41936 25.6116 3.32591C27.6237 3.20162 29.3328 3.93468 30.7525 5.31552C31.3394 5.88709 31.9165 6.32348 32.7673 6.52489C34.3459 6.89868 35.4724 7.9765 36.3041 9.32921C37.4709 11.2263 37.8689 13.293 37.5384 15.4913C37.3669 16.6327 36.7168 17.5144 35.9253 18.3092C35.7984 18.4362 35.6477 18.5405 35.4314 18.7174Z" fill="#F4AF10"/>
<path id="Vector_3" d="M27.1229 43.012H5.52051C5.62093 42.1928 5.67663 41.3835 5.82726 40.5924C6.01259 39.6189 6.22257 38.6436 6.51928 37.7C7.11727 35.8021 8.4794 34.5519 10.2122 33.6664C12.26 32.6194 14.3214 31.5978 16.3683 30.5482C16.9589 30.2451 17.5177 29.8832 18.1092 29.5385C20.0357 33.4042 23.4081 34.4557 27.4571 34.2834C26.22 37.1421 26.0904 40.0209 27.1229 43.012Z" fill="#F4AF10"/>
</g>
</svg>
