<svg width="169" height="38" viewBox="0 0 169 38" fill="none" xmlns="http://www.w3.org/2000/svg">
<path fill-rule="evenodd" clip-rule="evenodd" d="M54.3754 7.07577C55.8894 6.48437 57.5012 6.18701 59.2159 6.18701C60.5935 6.18701 61.7955 6.32009 62.8282 6.57826L62.8297 6.57866L62.8313 6.57905C63.925 6.84639 64.8454 7.1466 65.5988 7.47617L65.6 7.47671L65.6012 7.47724C66.2764 7.7692 66.8751 8.07895 67.3997 8.40516L64.1183 14.1868C63.8676 14.0197 63.6057 13.8572 63.3329 13.6992L63.3097 13.6858L63.2856 13.6744C62.8294 13.4598 62.2927 13.2641 61.6807 13.085C61.0333 12.8622 60.3079 12.7573 59.5141 12.7573C58.6679 12.7573 57.8754 12.9078 57.1446 13.217C56.4306 13.5191 55.795 13.933 55.2419 14.4584L55.2361 14.464L55.2304 14.4697C54.6991 15.0009 54.2826 15.6274 53.9795 16.3424C53.6701 17.0472 53.518 17.8035 53.518 18.6043C53.518 19.4067 53.6707 20.1736 53.9777 20.8993L53.9835 20.913L53.9899 20.9264C54.321 21.6161 54.7638 22.2252 55.3165 22.7502C55.8734 23.2793 56.5248 23.6936 57.2641 23.9948C58.0174 24.3017 58.832 24.4513 59.7005 24.4513C60.547 24.4513 61.3217 24.3456 62.0167 24.1232C62.6651 23.9158 63.2298 23.6765 63.7014 23.4001C63.9951 23.2381 64.2707 23.0592 64.5279 22.8631L67.7918 28.6139C67.2615 28.9945 66.6539 29.3439 65.9662 29.6602C65.2089 29.9911 64.2857 30.3037 63.1914 30.5955C62.1371 30.8767 60.9135 31.0216 59.5141 31.0216C57.6455 31.0216 55.934 30.7226 54.3732 30.132C52.8057 29.5139 51.4613 28.6627 50.3324 27.5808C49.2046 26.5 48.3208 25.2061 47.6817 23.6918C47.0463 22.1613 46.7241 20.4681 46.7241 18.6043C46.7241 16.6905 47.0587 14.989 47.7151 13.4888L47.7158 13.4872L47.7165 13.4855C48.3812 11.9425 49.2787 10.6345 50.4069 9.55328C51.5364 8.47086 52.8545 7.64616 54.3674 7.07884L54.3714 7.07733L54.3754 7.07577ZM127.343 7.17798C128.852 6.51803 130.456 6.18701 132.161 6.18701C133.866 6.18701 135.47 6.51803 136.978 7.17798L136.982 7.17964L136.986 7.18125C138.502 7.82089 139.811 8.70627 140.918 9.83742L140.923 9.84214L140.928 9.84677C142.059 10.9544 142.944 12.2632 143.584 13.7794L143.585 13.7832L143.587 13.787C144.247 15.2954 144.578 16.8992 144.578 18.6043C144.578 20.3095 144.247 21.9132 143.587 23.4216L143.585 23.4254L143.584 23.4292C142.944 24.9466 142.057 26.2697 140.923 27.4038C139.814 28.5125 138.503 29.4004 136.982 30.0662C135.473 30.7023 133.868 31.0216 132.161 31.0216C130.454 31.0216 128.849 30.7023 127.34 30.0662C125.82 29.4009 124.496 28.5132 123.361 27.4038C122.252 26.2695 121.364 24.945 120.699 23.4252C120.063 21.9161 119.743 20.3111 119.743 18.6043C119.743 16.8975 120.063 15.2925 120.699 13.7834C121.365 12.2627 122.252 10.951 123.361 9.84212C124.495 8.7081 125.819 7.82139 127.336 7.18125L127.34 7.17964L127.343 7.17798ZM77.3458 13.3373H70.1791V30.3879H77.3458V13.3373ZM79.9039 12.0491V6.7834H96.0163V12.0491H91.4316V30.3879H84.4886V12.0491H79.9039ZM98.5715 6.90913C98.5715 6.83969 98.6278 6.7834 98.6972 6.7834H106.516C108.05 6.7834 109.452 6.98716 110.725 7.38804L110.727 7.38854L110.729 7.38902C112.026 7.78992 113.131 8.37464 114.055 9.13704C114.972 9.89336 115.684 10.8333 116.193 11.9661L116.196 11.9732L116.199 11.9802C116.723 13.074 116.995 14.3574 116.995 15.846C116.995 17.0332 116.828 18.0053 116.518 18.7808C116.185 19.6128 115.825 20.2811 115.444 20.7976C114.983 21.3963 114.469 21.8978 113.902 22.3061L113.443 22.636L117.848 30.3879H109.968L105.254 22.4204V30.3879H98.5715V6.90913ZM147.894 30.3879V6.7834H154.688V13.6561L160.311 6.7834H168.464L160.206 17.5009L168.999 30.3879H160.94L154.688 21.3185V30.3879H147.894ZM108.75 10.7601C106.178 9.68095 103.218 10.8916 102.138 13.4642C101.059 16.0367 102.27 18.9971 104.842 20.0762C107.415 21.1554 110.375 19.9447 111.454 17.3722C112.534 14.7996 111.323 11.8393 108.75 10.7601ZM132.161 12.7573C131.358 12.7573 130.591 12.91 129.866 13.217L129.862 13.2187L129.858 13.2205C129.166 13.5247 128.554 13.9415 128.026 14.4697C127.495 15.0009 127.078 15.6274 126.775 16.3425C126.466 17.0472 126.314 17.8035 126.314 18.6043C126.314 19.4067 126.466 20.1736 126.773 20.8993L126.775 20.9035L126.777 20.9076C127.081 21.5989 127.498 22.2108 128.026 22.739C128.554 23.2671 129.166 23.6839 129.858 23.9881L129.862 23.9899L129.866 23.9916C130.591 24.2987 131.358 24.4513 132.161 24.4513C132.962 24.4513 133.718 24.2993 134.423 23.9899C135.138 23.6868 135.764 23.2702 136.295 22.739C136.824 22.2108 137.24 21.5989 137.545 20.9076L137.546 20.9035L137.548 20.8993C137.855 20.1736 138.008 19.4067 138.008 18.6043C138.008 17.8035 137.856 17.0472 137.546 16.3425C137.243 15.6274 136.827 15.0009 136.295 14.4697C135.764 13.9384 135.138 13.5218 134.423 13.2187C133.718 12.9094 132.962 12.7573 132.161 12.7573Z" fill="white"/>
<circle cx="106.796" cy="15.384" r="2.81569" fill="white"/>
<rect x="70.1699" y="6.7832" width="7.17322" height="5.06755" fill="white"/>
<path d="M7.0547 1.8172C10.7051 0.265569 14.7327 0.101454 18.6411 0C22.3972 0.0984739 26.252 0.249152 29.7935 1.64114C32.1704 2.53781 34.3265 4.19984 35.4897 6.49445C36.1608 7.69849 36.4546 9.05467 36.7498 10.387C37.1777 12.5025 37.1464 14.6703 37.2791 16.8128V20.2383C37.1538 22.433 37.1807 24.6514 36.7498 26.8178C36.4561 28.1456 36.1652 29.4987 35.4972 30.6999C34.3341 33.005 32.1733 34.6729 29.7875 35.571C26.2475 36.957 22.3958 37.1122 18.6411 37.2092C15.0414 37.1122 11.3641 36.975 7.94344 35.7397C5.93037 35.0354 4.02764 33.8673 2.71542 32.1589C1.71931 30.8788 1.07364 29.3526 0.74708 27.7696C0.104377 25.3735 0.147618 22.8746 0 20.4188V17.0604C0.13719 13.6723 0.150604 10.1527 1.54186 6.99277C2.59313 4.61161 4.67183 2.7974 7.0547 1.8172Z" fill="white"/>
<path d="M20.6544 17.7002C20.8217 17.9085 20.8204 18.2054 20.6513 18.4122L18.7823 20.6984C18.5548 20.9767 18.1287 20.9748 17.9036 20.6946L16.551 19.0107C16.3837 18.8024 16.385 18.5054 16.5541 18.2986L18.4232 16.0125C18.6508 15.7342 19.0768 15.7361 19.3019 16.0163L20.6544 17.7002ZM25.3647 23.5773C25.5895 23.8583 26.0162 23.8605 26.244 23.5819L28.0188 21.4111C28.1876 21.2046 28.1892 20.9082 28.0225 20.6999L26.1736 18.3892C26.0069 18.1809 26.0085 17.8845 26.1773 17.678L27.9264 15.5386C28.1243 15.2965 28.0881 14.9397 27.8457 14.7422L25.7659 13.0482C25.5241 12.8512 25.1684 12.8872 24.971 13.1287L23.8898 14.4511C23.6623 14.7294 23.2362 14.7275 23.0111 14.4473L21.6587 12.7634C21.4914 12.5552 21.4927 12.2582 21.6618 12.0514L23.4573 9.85531C23.6552 9.61321 23.6191 9.25642 23.3766 9.05893L21.2968 7.3649C21.055 7.16792 20.6993 7.20395 20.5019 7.44542L19.3592 8.8431C19.1313 9.12182 18.7045 9.11946 18.4797 8.83824L17.0131 7.00343C16.7883 6.72221 16.3614 6.71985 16.1336 6.99858L14.3589 9.16924C14.1901 9.37567 14.1885 9.67195 14.355 9.88024L16.1242 12.0937C16.2906 12.3019 16.289 12.5982 16.1202 12.8047L14.2515 15.0903C14.0236 15.369 13.5968 15.3667 13.372 15.0855L11.9054 13.2506C11.6806 12.9694 11.2538 12.967 11.0259 13.2458L9.25122 15.4164C9.08245 15.6228 9.08081 15.9191 9.24729 16.1274L11.0166 18.341C11.183 18.5493 11.1814 18.8455 11.0126 19.052L8.88748 21.6513C8.68954 21.8934 8.72568 22.2502 8.96814 22.4477L11.0479 24.1417C11.2898 24.3387 11.6454 24.3027 11.8428 24.0612L13.3156 22.2597C13.5431 21.9814 13.9692 21.9832 14.1943 22.2635L15.5469 23.9474C15.7142 24.1556 15.7129 24.4526 15.5438 24.6594L13.3566 27.3347C13.1587 27.5768 13.1948 27.9336 13.4373 28.131L15.517 29.825C15.7588 30.022 16.1145 29.986 16.3119 29.7445L17.8309 27.8866C18.0587 27.608 18.4854 27.6102 18.7102 27.8912L20.257 29.8244C20.4819 30.1054 20.9086 30.1077 21.1364 29.8291L22.9111 27.6583C23.0799 27.4518 23.0815 27.1554 22.9149 26.9471L21.066 24.6363C20.8993 24.4281 20.9009 24.1316 21.0697 23.9251L22.9384 21.6394C23.1662 21.3607 23.5929 21.363 23.8178 21.644L25.3647 23.5773Z" fill="#282689"/>
<rect x="22.2793" y="14.3984" width="7.95927" height="7.73185" rx="3.86593" transform="rotate(90 22.2793 14.3984)" fill="white"/>
<circle cx="18.4537" cy="18.4147" r="3.79553" fill="white"/>
<circle cx="18.454" cy="18.415" r="2.06341" fill="#282689"/>
</svg>
