<?xml version="1.0" encoding="UTF-8"?>
<svg xmlns="http://www.w3.org/2000/svg" width="53" height="53" viewBox="0 0 53 53" fill="none">
  <path d="M51.3438 19.6517V25.0676C51.3442 25.2413 51.2901 25.4106 51.1891 25.5518C51.088 25.693 50.9451 25.7988 50.7807 25.8544L47.0458 27.0966C46.696 28.3295 46.207 29.5186 45.5883 30.6409L47.3522 34.1605C47.4242 34.312 47.4485 34.4818 47.4219 34.6474C47.3953 34.813 47.319 34.9666 47.2032 35.088L43.3689 38.9222C43.2459 39.0465 43.0867 39.1286 42.9142 39.1569C42.7416 39.1852 42.5645 39.1581 42.4083 39.0795L38.9219 37.3073C37.8101 37.9237 36.6322 38.4127 35.4107 38.7648L34.1685 42.4997C34.1129 42.6642 34.0071 42.807 33.8659 42.9081C33.7247 43.0091 33.5554 43.0632 33.3818 43.0628H27.9327C27.7591 43.0632 27.5897 43.0091 27.4485 42.9081C27.3074 42.807 27.2015 42.6642 27.146 42.4997L25.9038 38.7648C25.1114 38.5467 24.3363 38.2699 23.585 37.9367L27.8747 33.647C28.7805 33.8628 29.7096 33.9657 30.6407 33.9534C32.9337 33.9534 35.1752 33.2735 37.0818 31.9995C38.9884 30.7256 40.4744 28.9149 41.3519 26.7964C42.2294 24.6779 42.459 22.3468 42.0116 20.0978C41.5643 17.8489 40.4601 15.7831 38.8387 14.1617C37.2173 12.5402 35.1515 11.436 32.9025 10.9887C30.6535 10.5414 28.3224 10.7709 26.2039 11.6484C24.0854 12.526 22.2747 14.012 21.0008 15.9185C19.7269 17.8251 19.0469 20.0666 19.0469 22.3597C19.045 23.2949 19.159 24.2267 19.3864 25.1339L15.0968 29.4153C14.7636 28.664 14.4868 27.8889 14.2686 27.0966L10.5338 25.8544C10.3693 25.7988 10.2264 25.693 10.1254 25.5518C10.0243 25.4106 9.97021 25.2413 9.97066 25.0676V19.6517C9.97021 19.4781 10.0243 19.3087 10.1254 19.1676C10.2264 19.0264 10.3693 18.9205 10.5338 18.865L14.2686 17.6228C14.6196 16.389 15.1114 15.1997 15.7344 14.0784L13.9705 10.5589C13.8931 10.4114 13.8619 10.244 13.8812 10.0785C13.9004 9.91306 13.969 9.75723 14.0782 9.6314L17.9124 5.79718C18.0354 5.67289 18.1946 5.59073 18.3671 5.56246C18.5397 5.5342 18.7168 5.56128 18.873 5.63983L22.3594 7.45343C23.4706 6.83561 24.6486 6.34662 25.8707 5.99593L27.1129 2.26108C27.1626 2.08338 27.2703 1.92738 27.4188 1.81786C27.5674 1.70834 27.7482 1.65156 27.9327 1.65655H33.3486C33.5222 1.6561 33.6916 1.71023 33.8328 1.81128C33.9739 1.91233 34.0798 2.05519 34.1353 2.21968L35.3775 5.95452C36.6128 6.316 37.8021 6.81897 38.9219 7.45343L42.4 5.64812C42.5554 5.56853 42.732 5.54009 42.9045 5.56686C43.077 5.59363 43.2367 5.67424 43.3607 5.79718L47.2032 9.6314C47.3274 9.7544 47.4096 9.91359 47.4379 10.0861C47.4661 10.2587 47.4391 10.4358 47.3605 10.592L45.5883 14.0784C46.2061 15.1896 46.6951 16.3676 47.0458 17.5897L50.7807 18.8319C50.9506 18.8891 51.0975 19 51.199 19.1478C51.3006 19.2957 51.3514 19.4725 51.3438 19.6517ZM28.7277 30.4173C29.3542 30.5675 29.9964 30.6426 30.6407 30.6409C32.837 30.6409 34.9434 29.7684 36.4964 28.2154C38.0494 26.6624 38.9219 24.556 38.9219 22.3597C38.9251 21.3011 38.7226 20.2521 38.3257 19.2708C38.2745 19.1432 38.1924 19.0304 38.0867 18.9425C37.9811 18.8546 37.8552 18.7943 37.7204 18.7672C37.5857 18.7401 37.4463 18.747 37.3149 18.7872C37.1834 18.8274 37.0641 18.8996 36.9675 18.9975L32.8269 23.0967L30.4502 22.5087L29.8622 20.132L34.0028 16.0328C34.1007 15.9363 34.173 15.8169 34.2132 15.6855C34.2534 15.554 34.2602 15.4147 34.2331 15.2799C34.206 15.1452 34.1458 15.0193 34.0579 14.9136C33.97 14.808 33.8571 14.7258 33.7296 14.6747C32.7485 14.277 31.6993 14.0744 30.6407 14.0784C28.4443 14.0784 26.338 14.9509 24.7849 16.5039C23.2319 18.057 22.3594 20.1634 22.3594 22.3597C22.3577 23.0039 22.4328 23.6461 22.583 24.2726L11.8174 35.0383C11.203 34.8795 10.572 34.7933 9.93754 34.7816C8.85003 34.7816 7.77317 34.9958 6.76844 35.4119C5.76371 35.8281 4.85079 36.4381 4.08181 37.2071C2.52877 38.7601 1.65629 40.8665 1.65629 43.0628C1.65314 44.1213 1.85564 45.1704 2.25254 46.1517C2.30454 46.2779 2.38694 46.3894 2.49241 46.4761C2.59788 46.5627 2.72315 46.622 2.85707 46.6486C2.99137 46.6767 3.13055 46.6709 3.26208 46.6319C3.39362 46.5929 3.5134 46.5218 3.61066 46.425L7.75129 42.2844L10.128 42.8723L10.716 45.249L6.61675 49.3897C6.51891 49.4862 6.44663 49.6056 6.40643 49.737C6.36623 49.8684 6.35938 50.0078 6.38649 50.1426C6.4136 50.2773 6.47383 50.4032 6.56174 50.5089C6.64965 50.6145 6.76247 50.6966 6.89004 50.7478C7.85843 51.1395 8.89293 51.3419 9.93754 51.344C12.1339 51.344 14.2402 50.4716 15.7933 48.9185C17.3463 47.3655 18.2188 45.2591 18.2188 43.0628C18.2205 42.4185 18.1454 41.7764 17.9952 41.1498L28.7277 30.4173Z" fill="#F4AF10"></path>
</svg>
